<?xml version="1.0" encoding="UTF-8" standalone="no"?>
<!DOCTYPE svg PUBLIC "-//W3C//DTD SVG 1.1//EN"
 "http://www.w3.org/Graphics/SVG/1.1/DTD/svg11.dtd">
<!-- Generated by graphviz version 7.0.5 (20221223.1930)
 -->
<!-- Title: lib/application_business_rules Pages: 1 -->
<svg width="446pt" height="221pt"
 viewBox="0.00 0.00 446.00 220.50" xmlns="http://www.w3.org/2000/svg" xmlns:xlink="http://www.w3.org/1999/xlink">
<g id="graph0" class="graph" transform="scale(1 1) rotate(0) translate(4 216.5)">
<title>lib/application_business_rules</title>
<g id="clust1" class="cluster">
<title>clusterdir_97aefd0d527b934f1d99a682da8fe6a9</title>
<g id="a_clust1"><a xlink:href="dir_97aefd0d527b934f1d99a682da8fe6a9.xhtml" target="_top" xlink:title="lib">
<polygon fill="#edf0f7" stroke="#404040" stroke-dasharray="5,2" points="8,-8 8,-204.5 430,-204.5 430,-8 8,-8"/>
<text text-anchor="middle" x="219" y="-192.5" font-family="Helvetica,sans-Serif" font-size="10.00">lib</text>
</a>
</g>
</g>
<g id="clust2" class="cluster">
<title>clusterdir_6dbb42d2342d9d7292a192bc1d024acc</title>
<g id="a_clust2"><a xlink:href="dir_6dbb42d2342d9d7292a192bc1d024acc.xhtml" target="_top" xlink:title="Package Application Business Rules.">
<polygon fill="#edf0f7" stroke="#404040" stroke-width="2" points="16,-16 16,-177.5 244,-177.5 244,-16 16,-16"/>
</a>
</g>
</g>
<!-- dir_3a2f33b0f26bc6229d595c2c354e6333 -->
<g id="node1" class="node">
<title>dir_3a2f33b0f26bc6229d595c2c354e6333</title>
<g id="a_node1"><a xlink:href="dir_3a2f33b0f26bc6229d595c2c354e6333.xhtml" target="_top" xlink:title="Package Utilities.">
<polygon fill="#c8d2e7" stroke="#404040" points="421.5,-43 374.5,-43 374.5,-24 421.5,-24 421.5,-43"/>
<text text-anchor="middle" x="398" y="-31" font-family="Helvetica,sans-Serif" font-size="10.00">utilities</text>
</a>
</g>
</g>
<!-- dir_71046b38222792489c3876836d4fbdbc -->
<g id="node2" class="node">
<title>dir_71046b38222792489c3876836d4fbdbc</title>
<g id="a_node2"><a xlink:href="dir_71046b38222792489c3876836d4fbdbc.xhtml" target="_top" xlink:title="Package Enterprise Business Rules.">
<polygon fill="#c8d2e7" stroke="red" points="356,-48.5 252,-48.5 252,-18.5 356,-18.5 356,-48.5"/>
<text text-anchor="start" x="260" y="-36.5" font-family="Helvetica,sans-Serif" font-size="10.00">enterprise_business</text>
<text text-anchor="middle" x="304" y="-25.5" font-family="Helvetica,sans-Serif" font-size="10.00">_rules</text>
</a>
</g>
</g>
<!-- dir_6dbb42d2342d9d7292a192bc1d024acc -->
<g id="node3" class="node">
<title>dir_6dbb42d2342d9d7292a192bc1d024acc</title>
<text text-anchor="start" x="136.5" y="-157.5" font-family="Helvetica,sans-Serif" font-size="10.00">application_business</text>
<text text-anchor="middle" x="182" y="-146.5" font-family="Helvetica,sans-Serif" font-size="10.00">_rules</text>
</g>
<!-- dir_17a6007a5c84c34f300c622be50c188b -->
<g id="node4" class="node">
<title>dir_17a6007a5c84c34f300c622be50c188b</title>
<g id="a_node4"><a xlink:href="dir_17a6007a5c84c34f300c622be50c188b.xhtml" target="_top" xlink:title="serial_interface">
<polygon fill="#c8d2e7" stroke="#404040" points="218.5,-103.5 135.5,-103.5 135.5,-84.5 218.5,-84.5 218.5,-103.5"/>
<text text-anchor="middle" x="177" y="-91.5" font-family="Helvetica,sans-Serif" font-size="10.00">serial_interface</text>
</a>
</g>
</g>
<!-- dir_17a6007a5c84c34f300c622be50c188b&#45;&gt;dir_3a2f33b0f26bc6229d595c2c354e6333 -->
<g id="edge1" class="edge">
<title>dir_17a6007a5c84c34f300c622be50c188b&#45;&gt;dir_3a2f33b0f26bc6229d595c2c354e6333</title>
<path fill="none" stroke="#63b8ff" d="M218.63,-85.25C257.1,-77.59 315.6,-64.7 365,-48.5 365.96,-48.19 366.93,-47.86 367.9,-47.51"/>
<polygon fill="#63b8ff" stroke="#63b8ff" points="368.83,-50.9 376.9,-44.04 366.31,-44.37 368.83,-50.9"/>
<g id="a_edge1&#45;headlabel"><a xlink:href="dir_000012_000024.xhtml" target="_top" xlink:title="1">
<text text-anchor="middle" x="367.92" y="-51.8" font-family="Helvetica,sans-Serif" font-size="10.00" fill="#63b8ff">1</text>
</a>
</g>
</g>
<!-- dir_17a6007a5c84c34f300c622be50c188b&#45;&gt;dir_71046b38222792489c3876836d4fbdbc -->
<g id="edge2" class="edge">
<title>dir_17a6007a5c84c34f300c622be50c188b&#45;&gt;dir_71046b38222792489c3876836d4fbdbc</title>
<path fill="none" stroke="#63b8ff" d="M196.29,-84.12C213.78,-76.06 240.16,-63.91 262.43,-53.65"/>
<polygon fill="#63b8ff" stroke="#63b8ff" points="263.66,-56.94 271.28,-49.57 260.73,-50.58 263.66,-56.94"/>
<g id="a_edge2&#45;headlabel"><a xlink:href="dir_000012_000006.xhtml" target="_top" xlink:title="4">
<text text-anchor="middle" x="262.96" y="-57.89" font-family="Helvetica,sans-Serif" font-size="10.00" fill="#63b8ff">4</text>
</a>
</g>
</g>
<!-- dir_dab382b21b73aae3d74d7668eeeacf78 -->
<g id="node5" class="node">
<title>dir_dab382b21b73aae3d74d7668eeeacf78</title>
<g id="a_node5"><a xlink:href="dir_dab382b21b73aae3d74d7668eeeacf78.xhtml" target="_top" xlink:title="tasks">
<polygon fill="#c8d2e7" stroke="#404040" points="133.5,-43 92.5,-43 92.5,-24 133.5,-24 133.5,-43"/>
<text text-anchor="middle" x="113" y="-31" font-family="Helvetica,sans-Serif" font-size="10.00">tasks</text>
</a>
</g>
</g>
<!-- dir_17a6007a5c84c34f300c622be50c188b&#45;&gt;dir_dab382b21b73aae3d74d7668eeeacf78 -->
<g id="edge3" class="edge">
<title>dir_17a6007a5c84c34f300c622be50c188b&#45;&gt;dir_dab382b21b73aae3d74d7668eeeacf78</title>
<path fill="none" stroke="#63b8ff" d="M167.28,-84.12C157.69,-75.35 142.81,-61.75 131.06,-51"/>
<polygon fill="#63b8ff" stroke="#63b8ff" points="133.67,-48.65 123.93,-44.49 128.95,-53.82 133.67,-48.65"/>
<g id="a_edge3&#45;headlabel"><a xlink:href="dir_000012_000017.xhtml" target="_top" xlink:title="1">
<text text-anchor="middle" x="137.12" y="-45.46" font-family="Helvetica,sans-Serif" font-size="10.00" fill="#63b8ff">1</text>
</a>
</g>
</g>
<!-- dir_6c970bd3e9ed525c032ca1b33f237f5b -->
<g id="node6" class="node">
<title>dir_6c970bd3e9ed525c032ca1b33f237f5b</title>
<g id="a_node6"><a xlink:href="dir_6c970bd3e9ed525c032ca1b33f237f5b.xhtml" target="_top" xlink:title="user_interaction">
<polygon fill="#c8d2e7" stroke="#404040" points="110,-164 24,-164 24,-145 110,-145 110,-164"/>
<text text-anchor="middle" x="67" y="-152" font-family="Helvetica,sans-Serif" font-size="10.00">user_interaction</text>
</a>
</g>
</g>
<!-- dir_6c970bd3e9ed525c032ca1b33f237f5b&#45;&gt;dir_3a2f33b0f26bc6229d595c2c354e6333 -->
<g id="edge5" class="edge">
<title>dir_6c970bd3e9ed525c032ca1b33f237f5b&#45;&gt;dir_3a2f33b0f26bc6229d595c2c354e6333</title>
<path fill="none" stroke="#63b8ff" d="M98.41,-144.56C131.04,-135.08 183.46,-119.33 228,-103.5 289.82,-81.53 304.35,-73.54 365,-48.5 365.49,-48.3 365.98,-48.09 366.48,-47.89"/>
<polygon fill="#63b8ff" stroke="#63b8ff" points="367.81,-51.13 375.68,-44.03 365.11,-44.67 367.81,-51.13"/>
<g id="a_edge5&#45;headlabel"><a xlink:href="dir_000023_000024.xhtml" target="_top" xlink:title="2">
<text text-anchor="middle" x="366.99" y="-52.05" font-family="Helvetica,sans-Serif" font-size="10.00" fill="#63b8ff">2</text>
</a>
</g>
</g>
<!-- dir_6c970bd3e9ed525c032ca1b33f237f5b&#45;&gt;dir_17a6007a5c84c34f300c622be50c188b -->
<g id="edge4" class="edge">
<title>dir_6c970bd3e9ed525c032ca1b33f237f5b&#45;&gt;dir_17a6007a5c84c34f300c622be50c188b</title>
<path fill="none" stroke="#63b8ff" d="M83.71,-144.62C101.31,-135.25 129.31,-120.36 150.05,-109.33"/>
<polygon fill="#63b8ff" stroke="#63b8ff" points="151.61,-112.46 158.8,-104.68 148.33,-106.28 151.61,-112.46"/>
<g id="a_edge4&#45;headlabel"><a xlink:href="dir_000023_000012.xhtml" target="_top" xlink:title="1">
<text text-anchor="middle" x="151.11" y="-113.45" font-family="Helvetica,sans-Serif" font-size="10.00" fill="#63b8ff">1</text>
</a>
</g>
</g>
<!-- dir_6c970bd3e9ed525c032ca1b33f237f5b&#45;&gt;dir_dab382b21b73aae3d74d7668eeeacf78 -->
<g id="edge6" class="edge">
<title>dir_6c970bd3e9ed525c032ca1b33f237f5b&#45;&gt;dir_dab382b21b73aae3d74d7668eeeacf78</title>
<path fill="none" stroke="#63b8ff" d="M70.46,-144.56C77.89,-125.34 95.51,-79.74 105.59,-53.67"/>
<polygon fill="#63b8ff" stroke="#63b8ff" points="108.74,-55.23 109.08,-44.64 102.21,-52.7 108.74,-55.23"/>
<g id="a_edge6&#45;headlabel"><a xlink:href="dir_000023_000017.xhtml" target="_top" xlink:title="1">
<text text-anchor="middle" x="110.64" y="-55.69" font-family="Helvetica,sans-Serif" font-size="10.00" fill="#63b8ff">1</text>
</a>
</g>
</g>
</g>
</svg>
