<?xml version="1.0" encoding="UTF-8" standalone="no"?>
<!DOCTYPE svg PUBLIC "-//W3C//DTD SVG 1.1//EN"
 "http://www.w3.org/Graphics/SVG/1.1/DTD/svg11.dtd">
<!-- Generated by graphviz version 7.0.5 (20221223.1930)
 -->
<!-- Title: lib Pages: 1 -->
<svg width="550pt" height="372pt"
 viewBox="0.00 0.00 550.00 372.00" xmlns="http://www.w3.org/2000/svg" xmlns:xlink="http://www.w3.org/1999/xlink">
<g id="graph0" class="graph" transform="scale(1 1) rotate(0) translate(4 368)">
<title>lib</title>
<g id="clust1" class="cluster">
<title>clusterdir_97aefd0d527b934f1d99a682da8fe6a9</title>
<g id="a_clust1"><a xlink:href="dir_97aefd0d527b934f1d99a682da8fe6a9.xhtml" target="_top">
<polygon fill="#edf0f7" stroke="#404040" stroke-width="2" points="8,-8 8,-356 534,-356 534,-8 8,-8"/>
</a>
</g>
</g>
<g id="clust5" class="cluster">
<title>clusterdir_71046b38222792489c3876836d4fbdbc</title>
<g id="a_clust5"><a xlink:href="dir_71046b38222792489c3876836d4fbdbc.xhtml" target="_top" xlink:title="Package Enterprise Business Rules.">
<polygon fill="#c8d2e7" stroke="#404040" points="308,-16 308,-62 526,-62 526,-16 308,-16"/>
</a>
</g>
</g>
<g id="clust4" class="cluster">
<title>clusterdir_b49365647f74dff1c8dd1e88d29293e4</title>
<g id="a_clust4"><a xlink:href="dir_b49365647f74dff1c8dd1e88d29293e4.xhtml" target="_top" xlink:title="Package Board Adapters.">
<polygon fill="#c8d2e7" stroke="#404040" points="16,-203 16,-293 357,-293 357,-203 16,-203"/>
</a>
</g>
</g>
<g id="clust3" class="cluster">
<title>clusterdir_6dbb42d2342d9d7292a192bc1d024acc</title>
<g id="a_clust3"><a xlink:href="dir_6dbb42d2342d9d7292a192bc1d024acc.xhtml" target="_top" xlink:title="Package Application Business Rules.">
<polygon fill="#c8d2e7" stroke="#404040" points="72,-21.5 72,-183 300,-183 300,-21.5 72,-21.5"/>
</a>
</g>
</g>
<g id="clust2" class="cluster">
<title>clusterdir_e75212beacfa7863df067e044f07f232</title>
<g id="a_clust2"><a xlink:href="dir_e75212beacfa7863df067e044f07f232.xhtml" target="_top" xlink:title="Package 3rd Party Adapters.">
<polygon fill="#c8d2e7" stroke="#404040" points="203,-313 203,-348 526,-348 526,-313 203,-313"/>
</a>
</g>
</g>
<!-- dir_97aefd0d527b934f1d99a682da8fe6a9 -->
<g id="node1" class="node">
<title>dir_97aefd0d527b934f1d99a682da8fe6a9</title>
<text text-anchor="middle" x="105" y="-328" font-family="Helvetica,sans-Serif" font-size="10.00">lib</text>
</g>
<!-- dir_e75212beacfa7863df067e044f07f232 -->
<g id="node2" class="node">
<title>dir_e75212beacfa7863df067e044f07f232</title>
<text text-anchor="middle" x="468" y="-328" font-family="Helvetica,sans-Serif" font-size="10.00">3rd_party_adapters</text>
</g>
<!-- dir_e5c908e09902ac05aca8138811a01df8 -->
<g id="node3" class="node">
<title>dir_e5c908e09902ac05aca8138811a01df8</title>
<g id="a_node3"><a xlink:href="dir_e5c908e09902ac05aca8138811a01df8.xhtml" target="_top" xlink:title="Arduino">
<polygon fill="#a2b4d6" stroke="#404040" points="323,-340 273,-340 273,-321 323,-321 323,-340"/>
<text text-anchor="middle" x="298" y="-328" font-family="Helvetica,sans-Serif" font-size="10.00">Arduino</text>
</a>
</g>
</g>
<!-- dir_17a6007a5c84c34f300c622be50c188b -->
<g id="node7" class="node">
<title>dir_17a6007a5c84c34f300c622be50c188b</title>
<g id="a_node7"><a xlink:href="dir_17a6007a5c84c34f300c622be50c188b.xhtml" target="_top" xlink:title="serial_interface">
<polygon fill="#a2b4d6" stroke="#404040" points="274.5,-109 191.5,-109 191.5,-90 274.5,-90 274.5,-109"/>
<text text-anchor="middle" x="233" y="-97" font-family="Helvetica,sans-Serif" font-size="10.00">serial_interface</text>
</a>
</g>
</g>
<!-- dir_e5c908e09902ac05aca8138811a01df8&#45;&gt;dir_17a6007a5c84c34f300c622be50c188b -->
<g id="edge1" class="edge">
<title>dir_e5c908e09902ac05aca8138811a01df8&#45;&gt;dir_17a6007a5c84c34f300c622be50c188b</title>
<path fill="none" stroke="#63b8ff" d="M316.34,-320.57C321.41,-318.11 326.91,-315.44 332,-313 350.63,-304.04 362.82,-310.39 374,-293 395.62,-259.35 392.62,-238.91 375,-203 353.27,-158.72 302.06,-129.4 267.46,-113.86"/>
<polygon fill="#63b8ff" stroke="#63b8ff" points="269.26,-110.83 258.69,-110.08 266.49,-117.26 269.26,-110.83"/>
<g id="a_edge1&#45;headlabel"><a xlink:href="dir_000002_000012.xhtml" target="_top" xlink:title="2">
<text text-anchor="middle" x="272.3" y="-106.55" font-family="Helvetica,sans-Serif" font-size="10.00" fill="#63b8ff">2</text>
</a>
</g>
</g>
<!-- dir_b49365647f74dff1c8dd1e88d29293e4 -->
<g id="node10" class="node">
<title>dir_b49365647f74dff1c8dd1e88d29293e4</title>
<text text-anchor="middle" x="198" y="-273" font-family="Helvetica,sans-Serif" font-size="10.00">board_adapters</text>
</g>
<!-- dir_e5c908e09902ac05aca8138811a01df8&#45;&gt;dir_b49365647f74dff1c8dd1e88d29293e4 -->
<g id="edge2" class="edge">
<title>dir_e5c908e09902ac05aca8138811a01df8&#45;&gt;dir_b49365647f74dff1c8dd1e88d29293e4</title>
<path fill="none" stroke="#63b8ff" d="M281.04,-320.51C265.37,-312.2 241.86,-299.74 223.85,-290.2"/>
<polygon fill="#63b8ff" stroke="#63b8ff" points="225.54,-287.13 215.06,-285.54 222.26,-293.32 225.54,-287.13"/>
<g id="a_edge2&#45;headlabel"><a xlink:href="dir_000002_000003.xhtml" target="_top" xlink:title="1">
<text text-anchor="middle" x="228.71" y="-283.1" font-family="Helvetica,sans-Serif" font-size="10.00" fill="#63b8ff">1</text>
</a>
</g>
</g>
<!-- dir_673789fe363c8cf83b6beac9ec7c58fa -->
<g id="node4" class="node">
<title>dir_673789fe363c8cf83b6beac9ec7c58fa</title>
<g id="a_node4"><a xlink:href="dir_673789fe363c8cf83b6beac9ec7c58fa.xhtml" target="_top" xlink:title="LVGL">
<polygon fill="#a2b4d6" stroke="#404040" points="254.5,-340 211.5,-340 211.5,-321 254.5,-321 254.5,-340"/>
<text text-anchor="middle" x="233" y="-328" font-family="Helvetica,sans-Serif" font-size="10.00">LVGL</text>
</a>
</g>
</g>
<!-- dir_6c970bd3e9ed525c032ca1b33f237f5b -->
<g id="node9" class="node">
<title>dir_6c970bd3e9ed525c032ca1b33f237f5b</title>
<g id="a_node9"><a xlink:href="dir_6c970bd3e9ed525c032ca1b33f237f5b.xhtml" target="_top" xlink:title="user_interaction">
<polygon fill="#a2b4d6" stroke="#404040" points="166,-169.5 80,-169.5 80,-150.5 166,-150.5 166,-169.5"/>
<text text-anchor="middle" x="123" y="-157.5" font-family="Helvetica,sans-Serif" font-size="10.00">user_interaction</text>
</a>
</g>
</g>
<!-- dir_673789fe363c8cf83b6beac9ec7c58fa&#45;&gt;dir_6c970bd3e9ed525c032ca1b33f237f5b -->
<g id="edge3" class="edge">
<title>dir_673789fe363c8cf83b6beac9ec7c58fa&#45;&gt;dir_6c970bd3e9ed525c032ca1b33f237f5b</title>
<path fill="none" stroke="#63b8ff" d="M247.74,-320.55C252.76,-317.8 258.49,-314.99 264,-313 305.41,-298.06 333.19,-327.12 361,-293 386.27,-261.99 387.73,-232.76 361,-203 333.22,-172.07 215.24,-193.43 175,-183 166.87,-180.89 158.37,-177.73 150.64,-174.46"/>
<polygon fill="#63b8ff" stroke="#63b8ff" points="152.3,-171.37 141.74,-170.48 149.44,-177.76 152.3,-171.37"/>
<g id="a_edge3&#45;headlabel"><a xlink:href="dir_000010_000023.xhtml" target="_top" xlink:title="2">
<text text-anchor="middle" x="155.36" y="-167.13" font-family="Helvetica,sans-Serif" font-size="10.00" fill="#63b8ff">2</text>
</a>
</g>
</g>
<!-- dir_673789fe363c8cf83b6beac9ec7c58fa&#45;&gt;dir_b49365647f74dff1c8dd1e88d29293e4 -->
<g id="edge4" class="edge">
<title>dir_673789fe363c8cf83b6beac9ec7c58fa&#45;&gt;dir_b49365647f74dff1c8dd1e88d29293e4</title>
<path fill="none" stroke="#63b8ff" d="M227.22,-320.75C222.48,-313.56 215.6,-303.16 209.72,-294.24"/>
<polygon fill="#63b8ff" stroke="#63b8ff" points="212.71,-292.42 204.28,-286 206.87,-296.28 212.71,-292.42"/>
<g id="a_edge4&#45;headlabel"><a xlink:href="dir_000010_000003.xhtml" target="_top" xlink:title="1">
<text text-anchor="middle" x="216.22" y="-290.09" font-family="Helvetica,sans-Serif" font-size="10.00" fill="#63b8ff">1</text>
</a>
</g>
</g>
<!-- dir_0c9e3c7283f36edd21eeaa604bb6b292 -->
<g id="node5" class="node">
<title>dir_0c9e3c7283f36edd21eeaa604bb6b292</title>
<g id="a_node5"><a xlink:href="dir_0c9e3c7283f36edd21eeaa604bb6b292.xhtml" target="_top" xlink:title="nlohmann">
<polygon fill="#a2b4d6" stroke="#404040" points="400.5,-340 341.5,-340 341.5,-321 400.5,-321 400.5,-340"/>
<text text-anchor="middle" x="371" y="-328" font-family="Helvetica,sans-Serif" font-size="10.00">nlohmann</text>
</a>
</g>
</g>
<!-- dir_0c9e3c7283f36edd21eeaa604bb6b292&#45;&gt;dir_17a6007a5c84c34f300c622be50c188b -->
<g id="edge5" class="edge">
<title>dir_0c9e3c7283f36edd21eeaa604bb6b292&#45;&gt;dir_17a6007a5c84c34f300c622be50c188b</title>
<path fill="none" stroke="#63b8ff" d="M375.86,-320.51C379.46,-313.3 384.06,-302.81 386,-293 393.75,-253.76 397.44,-241.33 386,-203 377.19,-173.47 371.96,-164.38 348,-145 329.5,-130.04 305.39,-119.68 284.03,-112.75"/>
<polygon fill="#63b8ff" stroke="#63b8ff" points="285.19,-109.45 274.6,-109.87 283.14,-116.14 285.19,-109.45"/>
<g id="a_edge5&#45;headlabel"><a xlink:href="dir_000011_000012.xhtml" target="_top" xlink:title="2">
<text text-anchor="middle" x="288.01" y="-104.84" font-family="Helvetica,sans-Serif" font-size="10.00" fill="#63b8ff">2</text>
</a>
</g>
</g>
<!-- dir_2b4ed0f0f8a947c7a7cb51e3d9d332b8 -->
<g id="node15" class="node">
<title>dir_2b4ed0f0f8a947c7a7cb51e3d9d332b8</title>
<g id="a_node15"><a xlink:href="dir_2b4ed0f0f8a947c7a7cb51e3d9d332b8.xhtml" target="_top" xlink:title="serial_protocol">
<polygon fill="#a2b4d6" stroke="#404040" points="396,-48.5 316,-48.5 316,-29.5 396,-29.5 396,-48.5"/>
<text text-anchor="middle" x="356" y="-36.5" font-family="Helvetica,sans-Serif" font-size="10.00">serial_protocol</text>
</a>
</g>
</g>
<!-- dir_0c9e3c7283f36edd21eeaa604bb6b292&#45;&gt;dir_2b4ed0f0f8a947c7a7cb51e3d9d332b8 -->
<g id="edge6" class="edge">
<title>dir_0c9e3c7283f36edd21eeaa604bb6b292&#45;&gt;dir_2b4ed0f0f8a947c7a7cb51e3d9d332b8</title>
<path fill="none" stroke="#63b8ff" d="M379.66,-320.53C395.6,-303.02 428,-262.42 428,-221.5 428,-221.5 428,-221.5 428,-159 428,-117.4 395.4,-77.9 374.07,-56.51"/>
<polygon fill="#63b8ff" stroke="#63b8ff" points="376.73,-54.22 367.1,-49.8 371.87,-59.26 376.73,-54.22"/>
<g id="a_edge6&#45;headlabel"><a xlink:href="dir_000011_000013.xhtml" target="_top" xlink:title="4">
<text text-anchor="middle" x="380.2" y="-51.12" font-family="Helvetica,sans-Serif" font-size="10.00" fill="#63b8ff">4</text>
</a>
</g>
</g>
<!-- dir_6dbb42d2342d9d7292a192bc1d024acc -->
<g id="node6" class="node">
<title>dir_6dbb42d2342d9d7292a192bc1d024acc</title>
<text text-anchor="start" x="192.5" y="-163" font-family="Helvetica,sans-Serif" font-size="10.00">application_business</text>
<text text-anchor="middle" x="238" y="-152" font-family="Helvetica,sans-Serif" font-size="10.00">_rules</text>
</g>
<!-- dir_dab382b21b73aae3d74d7668eeeacf78 -->
<g id="node8" class="node">
<title>dir_dab382b21b73aae3d74d7668eeeacf78</title>
<g id="a_node8"><a xlink:href="dir_dab382b21b73aae3d74d7668eeeacf78.xhtml" target="_top" xlink:title="tasks">
<polygon fill="#a2b4d6" stroke="#404040" points="189.5,-48.5 148.5,-48.5 148.5,-29.5 189.5,-29.5 189.5,-48.5"/>
<text text-anchor="middle" x="169" y="-36.5" font-family="Helvetica,sans-Serif" font-size="10.00">tasks</text>
</a>
</g>
</g>
<!-- dir_17a6007a5c84c34f300c622be50c188b&#45;&gt;dir_dab382b21b73aae3d74d7668eeeacf78 -->
<g id="edge9" class="edge">
<title>dir_17a6007a5c84c34f300c622be50c188b&#45;&gt;dir_dab382b21b73aae3d74d7668eeeacf78</title>
<path fill="none" stroke="#63b8ff" d="M223.28,-89.62C213.69,-80.85 198.81,-67.25 187.06,-56.5"/>
<polygon fill="#63b8ff" stroke="#63b8ff" points="189.67,-54.15 179.93,-49.99 184.95,-59.32 189.67,-54.15"/>
<g id="a_edge9&#45;headlabel"><a xlink:href="dir_000012_000017.xhtml" target="_top" xlink:title="2">
<text text-anchor="middle" x="193.12" y="-50.96" font-family="Helvetica,sans-Serif" font-size="10.00" fill="#63b8ff">2</text>
</a>
</g>
</g>
<!-- dir_17a6007a5c84c34f300c622be50c188b&#45;&gt;dir_2b4ed0f0f8a947c7a7cb51e3d9d332b8 -->
<g id="edge7" class="edge">
<title>dir_17a6007a5c84c34f300c622be50c188b&#45;&gt;dir_2b4ed0f0f8a947c7a7cb51e3d9d332b8</title>
<path fill="none" stroke="#63b8ff" d="M251.68,-89.62C271.64,-80.12 303.54,-64.95 326.82,-53.88"/>
<polygon fill="#63b8ff" stroke="#63b8ff" points="328.25,-57.07 335.78,-49.62 325.24,-50.75 328.25,-57.07"/>
<g id="a_edge7&#45;headlabel"><a xlink:href="dir_000012_000013.xhtml" target="_top" xlink:title="4">
<text text-anchor="middle" x="327.59" y="-58.03" font-family="Helvetica,sans-Serif" font-size="10.00" fill="#63b8ff">4</text>
</a>
</g>
</g>
<!-- dir_3a2f33b0f26bc6229d595c2c354e6333 -->
<g id="node16" class="node">
<title>dir_3a2f33b0f26bc6229d595c2c354e6333</title>
<g id="a_node16"><a xlink:href="dir_3a2f33b0f26bc6229d595c2c354e6333.xhtml" target="_top" xlink:title="Package Utilities.">
<polygon fill="#c8d2e7" stroke="#404040" points="63.5,-48.5 16.5,-48.5 16.5,-29.5 63.5,-29.5 63.5,-48.5"/>
<text text-anchor="middle" x="40" y="-36.5" font-family="Helvetica,sans-Serif" font-size="10.00">utilities</text>
</a>
</g>
</g>
<!-- dir_17a6007a5c84c34f300c622be50c188b&#45;&gt;dir_3a2f33b0f26bc6229d595c2c354e6333 -->
<g id="edge8" class="edge">
<title>dir_17a6007a5c84c34f300c622be50c188b&#45;&gt;dir_3a2f33b0f26bc6229d595c2c354e6333</title>
<path fill="none" stroke="#63b8ff" d="M191.05,-90.23C145.91,-81.17 79.07,-67.24 68,-62 64.54,-60.36 61.11,-58.23 57.9,-55.93"/>
<polygon fill="#63b8ff" stroke="#63b8ff" points="60.3,-53.37 50.31,-49.85 55.92,-58.83 60.3,-53.37"/>
<g id="a_edge8&#45;headlabel"><a xlink:href="dir_000012_000024.xhtml" target="_top" xlink:title="1">
<text text-anchor="middle" x="63.7" y="-49.96" font-family="Helvetica,sans-Serif" font-size="10.00" fill="#63b8ff">1</text>
</a>
</g>
</g>
<!-- dir_6c970bd3e9ed525c032ca1b33f237f5b&#45;&gt;dir_17a6007a5c84c34f300c622be50c188b -->
<g id="edge10" class="edge">
<title>dir_6c970bd3e9ed525c032ca1b33f237f5b&#45;&gt;dir_17a6007a5c84c34f300c622be50c188b</title>
<path fill="none" stroke="#63b8ff" d="M139.71,-150.12C157.31,-140.75 185.31,-125.86 206.05,-114.83"/>
<polygon fill="#63b8ff" stroke="#63b8ff" points="207.61,-117.96 214.8,-110.18 204.33,-111.78 207.61,-117.96"/>
<g id="a_edge10&#45;headlabel"><a xlink:href="dir_000023_000012.xhtml" target="_top" xlink:title="1">
<text text-anchor="middle" x="207.11" y="-118.95" font-family="Helvetica,sans-Serif" font-size="10.00" fill="#63b8ff">1</text>
</a>
</g>
</g>
<!-- dir_6c970bd3e9ed525c032ca1b33f237f5b&#45;&gt;dir_dab382b21b73aae3d74d7668eeeacf78 -->
<g id="edge12" class="edge">
<title>dir_6c970bd3e9ed525c032ca1b33f237f5b&#45;&gt;dir_dab382b21b73aae3d74d7668eeeacf78</title>
<path fill="none" stroke="#63b8ff" d="M126.46,-150.06C133.89,-130.84 151.51,-85.24 161.59,-59.17"/>
<polygon fill="#63b8ff" stroke="#63b8ff" points="164.74,-60.73 165.08,-50.14 158.21,-58.2 164.74,-60.73"/>
<g id="a_edge12&#45;headlabel"><a xlink:href="dir_000023_000017.xhtml" target="_top" xlink:title="1">
<text text-anchor="middle" x="166.64" y="-61.19" font-family="Helvetica,sans-Serif" font-size="10.00" fill="#63b8ff">1</text>
</a>
</g>
</g>
<!-- dir_6c970bd3e9ed525c032ca1b33f237f5b&#45;&gt;dir_3a2f33b0f26bc6229d595c2c354e6333 -->
<g id="edge11" class="edge">
<title>dir_6c970bd3e9ed525c032ca1b33f237f5b&#45;&gt;dir_3a2f33b0f26bc6229d595c2c354e6333</title>
<path fill="none" stroke="#63b8ff" d="M116.76,-150.06C103.18,-130.58 70.69,-84 52.64,-58.12"/>
<polygon fill="#63b8ff" stroke="#63b8ff" points="55.54,-56.17 46.95,-49.97 49.8,-60.17 55.54,-56.17"/>
<g id="a_edge11&#45;headlabel"><a xlink:href="dir_000023_000024.xhtml" target="_top" xlink:title="2">
<text text-anchor="middle" x="59.06" y="-53.75" font-family="Helvetica,sans-Serif" font-size="10.00" fill="#63b8ff">2</text>
</a>
</g>
</g>
<!-- dir_b49365647f74dff1c8dd1e88d29293e4&#45;&gt;dir_6c970bd3e9ed525c032ca1b33f237f5b -->
<g id="edge14" class="edge">
<title>dir_b49365647f74dff1c8dd1e88d29293e4&#45;&gt;dir_6c970bd3e9ed525c032ca1b33f237f5b</title>
<path fill="none" stroke="#63b8ff" d="M197.08,-266.31C195.18,-252.27 189.78,-223.16 176,-203 168.75,-192.39 158,-183.17 148.08,-176.09"/>
<polygon fill="#63b8ff" stroke="#63b8ff" points="150.11,-173.24 139.85,-170.6 146.22,-179.06 150.11,-173.24"/>
<g id="a_edge14&#45;headlabel"><a xlink:href="dir_000003_000023.xhtml" target="_top" xlink:title="6">
<text text-anchor="middle" x="153.42" y="-169.54" font-family="Helvetica,sans-Serif" font-size="10.00" fill="#63b8ff">6</text>
</a>
</g>
</g>
<!-- dir_5d3f509552af106634de565dc9d6f33a -->
<g id="node12" class="node">
<title>dir_5d3f509552af106634de565dc9d6f33a</title>
<g id="a_node12"><a xlink:href="dir_5d3f509552af106634de565dc9d6f33a.xhtml" target="_top" xlink:title="sound_output_interface">
<polygon fill="#a2b4d6" stroke="#404040" points="159,-230 41,-230 41,-211 159,-211 159,-230"/>
<text text-anchor="middle" x="100" y="-218" font-family="Helvetica,sans-Serif" font-size="10.00">sound_output_interface</text>
</a>
</g>
</g>
<!-- dir_b49365647f74dff1c8dd1e88d29293e4&#45;&gt;dir_5d3f509552af106634de565dc9d6f33a -->
<g id="edge13" class="edge">
<title>dir_b49365647f74dff1c8dd1e88d29293e4&#45;&gt;dir_5d3f509552af106634de565dc9d6f33a</title>
<path fill="none" stroke="#63b8ff" d="M182.69,-266.22C167.66,-258.09 144.43,-245.53 126.42,-235.79"/>
<polygon fill="#63b8ff" stroke="#63b8ff" points="128.31,-232.83 117.84,-231.15 124.98,-238.99 128.31,-232.83"/>
<g id="a_edge13&#45;headlabel"><a xlink:href="dir_000003_000014.xhtml" target="_top" xlink:title="1">
<text text-anchor="middle" x="131.49" y="-228.82" font-family="Helvetica,sans-Serif" font-size="10.00" fill="#63b8ff">1</text>
</a>
</g>
</g>
<!-- dir_8d1ee3be5d3bd43266cde43195651fe0 -->
<g id="node11" class="node">
<title>dir_8d1ee3be5d3bd43266cde43195651fe0</title>
<g id="a_node11"><a xlink:href="dir_8d1ee3be5d3bd43266cde43195651fe0.xhtml" target="_top" xlink:title="input_device_interface">
<polygon fill="#a2b4d6" stroke="#404040" points="138,-285 24,-285 24,-266 138,-266 138,-285"/>
<text text-anchor="middle" x="81" y="-273" font-family="Helvetica,sans-Serif" font-size="10.00">input_device_interface</text>
</a>
</g>
</g>
<!-- dir_8d1ee3be5d3bd43266cde43195651fe0&#45;&gt;dir_6c970bd3e9ed525c032ca1b33f237f5b -->
<g id="edge16" class="edge">
<title>dir_8d1ee3be5d3bd43266cde43195651fe0&#45;&gt;dir_6c970bd3e9ed525c032ca1b33f237f5b</title>
<path fill="none" stroke="#63b8ff" d="M117.78,-265.52C136.27,-258.95 157.02,-247.95 168,-230 174.26,-219.76 172.78,-214.01 168,-203 163.54,-192.75 155.21,-183.86 146.92,-176.93"/>
<polygon fill="#63b8ff" stroke="#63b8ff" points="149.06,-174.16 138.99,-170.9 144.83,-179.74 149.06,-174.16"/>
<g id="a_edge16&#45;headlabel"><a xlink:href="dir_000008_000023.xhtml" target="_top" xlink:title="2">
<text text-anchor="middle" x="152.44" y="-170.67" font-family="Helvetica,sans-Serif" font-size="10.00" fill="#63b8ff">2</text>
</a>
</g>
</g>
<!-- dir_8d1ee3be5d3bd43266cde43195651fe0&#45;&gt;dir_3a2f33b0f26bc6229d595c2c354e6333 -->
<g id="edge15" class="edge">
<title>dir_8d1ee3be5d3bd43266cde43195651fe0&#45;&gt;dir_3a2f33b0f26bc6229d595c2c354e6333</title>
<path fill="none" stroke="#63b8ff" d="M65.87,-265.73C54.19,-257.99 38.88,-245.55 32,-230 6.54,-172.48 23.41,-95.33 33.7,-59.64"/>
<polygon fill="#63b8ff" stroke="#63b8ff" points="36.98,-60.87 36.55,-50.29 30.29,-58.83 36.98,-60.87"/>
<g id="a_edge15&#45;headlabel"><a xlink:href="dir_000008_000024.xhtml" target="_top" xlink:title="1">
<text text-anchor="middle" x="39.09" y="-61.19" font-family="Helvetica,sans-Serif" font-size="10.00" fill="#63b8ff">1</text>
</a>
</g>
</g>
<!-- dir_5d3f509552af106634de565dc9d6f33a&#45;&gt;dir_6c970bd3e9ed525c032ca1b33f237f5b -->
<g id="edge18" class="edge">
<title>dir_5d3f509552af106634de565dc9d6f33a&#45;&gt;dir_6c970bd3e9ed525c032ca1b33f237f5b</title>
<path fill="none" stroke="#63b8ff" d="M103.39,-210.87C106.55,-202.83 111.37,-190.57 115.44,-180.22"/>
<polygon fill="#63b8ff" stroke="#63b8ff" points="118.64,-181.66 119.04,-171.08 112.12,-179.1 118.64,-181.66"/>
<g id="a_edge18&#45;headlabel"><a xlink:href="dir_000014_000023.xhtml" target="_top" xlink:title="1">
<text text-anchor="middle" x="120.52" y="-182.14" font-family="Helvetica,sans-Serif" font-size="10.00" fill="#63b8ff">1</text>
</a>
</g>
</g>
<!-- dir_5d3f509552af106634de565dc9d6f33a&#45;&gt;dir_3a2f33b0f26bc6229d595c2c354e6333 -->
<g id="edge17" class="edge">
<title>dir_5d3f509552af106634de565dc9d6f33a&#45;&gt;dir_3a2f33b0f26bc6229d595c2c354e6333</title>
<path fill="none" stroke="#63b8ff" d="M89.75,-210.62C82.54,-203.8 73.28,-193.74 68,-183 48.08,-142.44 42.32,-88.85 40.67,-60.17"/>
<polygon fill="#63b8ff" stroke="#63b8ff" points="44.17,-60.23 40.23,-50.39 37.18,-60.54 44.17,-60.23"/>
<g id="a_edge17&#45;headlabel"><a xlink:href="dir_000014_000024.xhtml" target="_top" xlink:title="1">
<text text-anchor="middle" x="47.1" y="-59.68" font-family="Helvetica,sans-Serif" font-size="10.00" fill="#63b8ff">1</text>
</a>
</g>
</g>
<!-- dir_dd038f7b9d5ffa107a6117feec92b6ac -->
<g id="node13" class="node">
<title>dir_dd038f7b9d5ffa107a6117feec92b6ac</title>
<g id="a_node13"><a xlink:href="dir_dd038f7b9d5ffa107a6117feec92b6ac.xhtml" target="_top" xlink:title="status_indicators">
<polygon fill="#a2b4d6" stroke="#404040" points="348.5,-285 257.5,-285 257.5,-266 348.5,-266 348.5,-285"/>
<text text-anchor="middle" x="303" y="-273" font-family="Helvetica,sans-Serif" font-size="10.00">status_indicators</text>
</a>
</g>
</g>
<!-- dir_dd038f7b9d5ffa107a6117feec92b6ac&#45;&gt;dir_6c970bd3e9ed525c032ca1b33f237f5b -->
<g id="edge19" class="edge">
<title>dir_dd038f7b9d5ffa107a6117feec92b6ac&#45;&gt;dir_6c970bd3e9ed525c032ca1b33f237f5b</title>
<path fill="none" stroke="#63b8ff" d="M288.88,-265.59C258.12,-246.2 184.8,-199.97 146.78,-176"/>
<polygon fill="#63b8ff" stroke="#63b8ff" points="148.66,-173.05 138.34,-170.67 144.93,-178.97 148.66,-173.05"/>
<g id="a_edge19&#45;headlabel"><a xlink:href="dir_000016_000023.xhtml" target="_top" xlink:title="2">
<text text-anchor="middle" x="151.94" y="-169.25" font-family="Helvetica,sans-Serif" font-size="10.00" fill="#63b8ff">2</text>
</a>
</g>
</g>
<!-- dir_71046b38222792489c3876836d4fbdbc -->
<g id="node14" class="node">
<title>dir_71046b38222792489c3876836d4fbdbc</title>
<text text-anchor="start" x="422" y="-42" font-family="Helvetica,sans-Serif" font-size="10.00">enterprise_business</text>
<text text-anchor="middle" x="466" y="-31" font-family="Helvetica,sans-Serif" font-size="10.00">_rules</text>
</g>
</g>
</svg>
