<?xml version="1.0" encoding="UTF-8" standalone="no"?>
<!DOCTYPE svg PUBLIC "-//W3C//DTD SVG 1.1//EN"
 "http://www.w3.org/Graphics/SVG/1.1/DTD/svg11.dtd">
<!-- Generated by graphviz version 7.0.5 (20221223.1930)
 -->
<!-- Title: lib Pages: 1 -->
<svg width="844pt" height="317pt"
 viewBox="0.00 0.00 844.00 317.00" xmlns="http://www.w3.org/2000/svg" xmlns:xlink="http://www.w3.org/1999/xlink">
<g id="graph0" class="graph" transform="scale(1 1) rotate(0) translate(4 313)">
<title>lib</title>
<g id="clust1" class="cluster">
<title>clusterdir_97aefd0d527b934f1d99a682da8fe6a9</title>
<g id="a_clust1"><a xlink:href="dir_97aefd0d527b934f1d99a682da8fe6a9.xhtml" target="_top">
<polygon fill="#edf0f7" stroke="#404040" stroke-width="2" points="8,-8 8,-301 828,-301 828,-8 8,-8"/>
</a>
</g>
</g>
<g id="clust5" class="cluster">
<title>clusterdir_71046b38222792489c3876836d4fbdbc</title>
<g id="a_clust5"><a xlink:href="dir_71046b38222792489c3876836d4fbdbc.xhtml" target="_top" xlink:title="Package Enterprise Business Rules.">
<polygon fill="#c8d2e7" stroke="#404040" points="602,-16 602,-62 820,-62 820,-16 602,-16"/>
</a>
</g>
</g>
<g id="clust4" class="cluster">
<title>clusterdir_b49365647f74dff1c8dd1e88d29293e4</title>
<g id="a_clust4"><a xlink:href="dir_b49365647f74dff1c8dd1e88d29293e4.xhtml" target="_top" xlink:title="Package Board Adapters.">
<polygon fill="#c8d2e7" stroke="#404040" points="16,-142.5 16,-238 358,-238 358,-142.5 16,-142.5"/>
</a>
</g>
</g>
<g id="clust3" class="cluster">
<title>clusterdir_6dbb42d2342d9d7292a192bc1d024acc</title>
<g id="a_clust3"><a xlink:href="dir_6dbb42d2342d9d7292a192bc1d024acc.xhtml" target="_top" xlink:title="Package Application Business Rules.">
<polygon fill="#c8d2e7" stroke="#404040" points="366,-21.5 366,-183 594,-183 594,-21.5 366,-21.5"/>
</a>
</g>
</g>
<g id="clust2" class="cluster">
<title>clusterdir_e75212beacfa7863df067e044f07f232</title>
<g id="a_clust2"><a xlink:href="dir_e75212beacfa7863df067e044f07f232.xhtml" target="_top" xlink:title="Package 3rd Party Adapters.">
<polygon fill="#c8d2e7" stroke="#404040" points="457,-258 457,-293 780,-293 780,-258 457,-258"/>
</a>
</g>
</g>
<!-- dir_97aefd0d527b934f1d99a682da8fe6a9 -->
<g id="node1" class="node">
<title>dir_97aefd0d527b934f1d99a682da8fe6a9</title>
<text text-anchor="middle" x="232" y="-273" font-family="Helvetica,sans-Serif" font-size="10.00">lib</text>
</g>
<!-- dir_e75212beacfa7863df067e044f07f232 -->
<g id="node2" class="node">
<title>dir_e75212beacfa7863df067e044f07f232</title>
<text text-anchor="middle" x="722" y="-273" font-family="Helvetica,sans-Serif" font-size="10.00">3rd_party_adapters</text>
</g>
<!-- dir_e5c908e09902ac05aca8138811a01df8 -->
<g id="node3" class="node">
<title>dir_e5c908e09902ac05aca8138811a01df8</title>
<g id="a_node3"><a xlink:href="dir_e5c908e09902ac05aca8138811a01df8.xhtml" target="_top" xlink:title="Arduino">
<polygon fill="#a2b4d6" stroke="#404040" points="577,-285 527,-285 527,-266 577,-266 577,-285"/>
<text text-anchor="middle" x="552" y="-273" font-family="Helvetica,sans-Serif" font-size="10.00">Arduino</text>
</a>
</g>
</g>
<!-- dir_17a6007a5c84c34f300c622be50c188b -->
<g id="node7" class="node">
<title>dir_17a6007a5c84c34f300c622be50c188b</title>
<g id="a_node7"><a xlink:href="dir_17a6007a5c84c34f300c622be50c188b.xhtml" target="_top" xlink:title="serial_interface">
<polygon fill="#a2b4d6" stroke="#404040" points="585.5,-109 502.5,-109 502.5,-90 585.5,-90 585.5,-109"/>
<text text-anchor="middle" x="544" y="-97" font-family="Helvetica,sans-Serif" font-size="10.00">serial_interface</text>
</a>
</g>
</g>
<!-- dir_e5c908e09902ac05aca8138811a01df8&#45;&gt;dir_17a6007a5c84c34f300c622be50c188b -->
<g id="edge1" class="edge">
<title>dir_e5c908e09902ac05aca8138811a01df8&#45;&gt;dir_17a6007a5c84c34f300c622be50c188b</title>
<path fill="none" stroke="#63b8ff" d="M559.45,-265.56C576.61,-243.82 615.88,-186.75 595,-142.5 589.88,-131.64 580.42,-122.65 571.03,-115.8"/>
<polygon fill="#63b8ff" stroke="#63b8ff" points="572.98,-112.9 562.71,-110.29 569.12,-118.73 572.98,-112.9"/>
<g id="a_edge1&#45;headlabel"><a xlink:href="dir_000002_000012.xhtml" target="_top" xlink:title="2">
<text text-anchor="middle" x="576.28" y="-109.18" font-family="Helvetica,sans-Serif" font-size="10.00" fill="#63b8ff">2</text>
</a>
</g>
</g>
<!-- dir_b49365647f74dff1c8dd1e88d29293e4 -->
<g id="node10" class="node">
<title>dir_b49365647f74dff1c8dd1e88d29293e4</title>
<text text-anchor="middle" x="66" y="-218" font-family="Helvetica,sans-Serif" font-size="10.00">board_adapters</text>
</g>
<!-- dir_e5c908e09902ac05aca8138811a01df8&#45;&gt;dir_b49365647f74dff1c8dd1e88d29293e4 -->
<g id="edge2" class="edge">
<title>dir_e5c908e09902ac05aca8138811a01df8&#45;&gt;dir_b49365647f74dff1c8dd1e88d29293e4</title>
<path fill="none" stroke="#63b8ff" d="M536.93,-265.57C531.2,-262.62 524.48,-259.66 518,-258 345.14,-213.71 292.52,-270.19 117,-238 110.88,-236.88 104.48,-235.22 98.35,-233.37"/>
<polygon fill="#63b8ff" stroke="#63b8ff" points="99.8,-230.16 89.21,-230.4 97.64,-236.82 99.8,-230.16"/>
<g id="a_edge2&#45;headlabel"><a xlink:href="dir_000002_000003.xhtml" target="_top" xlink:title="1">
<text text-anchor="middle" x="102.65" y="-225.6" font-family="Helvetica,sans-Serif" font-size="10.00" fill="#63b8ff">1</text>
</a>
</g>
</g>
<!-- dir_673789fe363c8cf83b6beac9ec7c58fa -->
<g id="node4" class="node">
<title>dir_673789fe363c8cf83b6beac9ec7c58fa</title>
<g id="a_node4"><a xlink:href="dir_673789fe363c8cf83b6beac9ec7c58fa.xhtml" target="_top" xlink:title="LVGL">
<polygon fill="#a2b4d6" stroke="#404040" points="508.5,-285 465.5,-285 465.5,-266 508.5,-266 508.5,-285"/>
<text text-anchor="middle" x="487" y="-273" font-family="Helvetica,sans-Serif" font-size="10.00">LVGL</text>
</a>
</g>
</g>
<!-- dir_6c970bd3e9ed525c032ca1b33f237f5b -->
<g id="node9" class="node">
<title>dir_6c970bd3e9ed525c032ca1b33f237f5b</title>
<g id="a_node9"><a xlink:href="dir_6c970bd3e9ed525c032ca1b33f237f5b.xhtml" target="_top" xlink:title="user_interaction">
<polygon fill="#a2b4d6" stroke="#404040" points="460,-169.5 374,-169.5 374,-150.5 460,-150.5 460,-169.5"/>
<text text-anchor="middle" x="417" y="-157.5" font-family="Helvetica,sans-Serif" font-size="10.00">user_interaction</text>
</a>
</g>
</g>
<!-- dir_673789fe363c8cf83b6beac9ec7c58fa&#45;&gt;dir_6c970bd3e9ed525c032ca1b33f237f5b -->
<g id="edge3" class="edge">
<title>dir_673789fe363c8cf83b6beac9ec7c58fa&#45;&gt;dir_6c970bd3e9ed525c032ca1b33f237f5b</title>
<path fill="none" stroke="#63b8ff" d="M481.51,-265.59C470.11,-247.11 443.68,-204.26 428.42,-179.52"/>
<polygon fill="#63b8ff" stroke="#63b8ff" points="431.49,-177.83 423.26,-171.15 425.53,-181.5 431.49,-177.83"/>
<g id="a_edge3&#45;headlabel"><a xlink:href="dir_000010_000023.xhtml" target="_top" xlink:title="2">
<text text-anchor="middle" x="435" y="-175.61" font-family="Helvetica,sans-Serif" font-size="10.00" fill="#63b8ff">2</text>
</a>
</g>
</g>
<!-- dir_673789fe363c8cf83b6beac9ec7c58fa&#45;&gt;dir_b49365647f74dff1c8dd1e88d29293e4 -->
<g id="edge4" class="edge">
<title>dir_673789fe363c8cf83b6beac9ec7c58fa&#45;&gt;dir_b49365647f74dff1c8dd1e88d29293e4</title>
<path fill="none" stroke="#63b8ff" d="M476.45,-265.76C472.22,-262.75 467.13,-259.7 462,-258 389.12,-233.8 192.48,-252.16 117,-238 110.94,-236.86 104.6,-235.21 98.53,-233.38"/>
<polygon fill="#63b8ff" stroke="#63b8ff" points="100.06,-230.2 89.46,-230.45 97.9,-236.86 100.06,-230.2"/>
<g id="a_edge4&#45;headlabel"><a xlink:href="dir_000010_000003.xhtml" target="_top" xlink:title="1">
<text text-anchor="middle" x="102.91" y="-225.64" font-family="Helvetica,sans-Serif" font-size="10.00" fill="#63b8ff">1</text>
</a>
</g>
</g>
<!-- dir_0c9e3c7283f36edd21eeaa604bb6b292 -->
<g id="node5" class="node">
<title>dir_0c9e3c7283f36edd21eeaa604bb6b292</title>
<g id="a_node5"><a xlink:href="dir_0c9e3c7283f36edd21eeaa604bb6b292.xhtml" target="_top" xlink:title="nlohmann">
<polygon fill="#a2b4d6" stroke="#404040" points="654.5,-285 595.5,-285 595.5,-266 654.5,-266 654.5,-285"/>
<text text-anchor="middle" x="625" y="-273" font-family="Helvetica,sans-Serif" font-size="10.00">nlohmann</text>
</a>
</g>
</g>
<!-- dir_0c9e3c7283f36edd21eeaa604bb6b292&#45;&gt;dir_17a6007a5c84c34f300c622be50c188b -->
<g id="edge5" class="edge">
<title>dir_0c9e3c7283f36edd21eeaa604bb6b292&#45;&gt;dir_17a6007a5c84c34f300c622be50c188b</title>
<path fill="none" stroke="#63b8ff" d="M625.63,-265.69C626.81,-243.26 627.26,-182.95 602,-142.5 594.94,-131.2 583.63,-122 572.85,-115.12"/>
<polygon fill="#63b8ff" stroke="#63b8ff" points="574.95,-112.29 564.56,-110.23 571.4,-118.32 574.95,-112.29"/>
<g id="a_edge5&#45;headlabel"><a xlink:href="dir_000011_000012.xhtml" target="_top" xlink:title="1">
<text text-anchor="middle" x="578.19" y="-108.4" font-family="Helvetica,sans-Serif" font-size="10.00" fill="#63b8ff">1</text>
</a>
</g>
</g>
<!-- dir_dab382b21b73aae3d74d7668eeeacf78 -->
<g id="node8" class="node">
<title>dir_dab382b21b73aae3d74d7668eeeacf78</title>
<g id="a_node8"><a xlink:href="dir_dab382b21b73aae3d74d7668eeeacf78.xhtml" target="_top" xlink:title="tasks">
<polygon fill="#a2b4d6" stroke="#404040" points="564.5,-48.5 523.5,-48.5 523.5,-29.5 564.5,-29.5 564.5,-48.5"/>
<text text-anchor="middle" x="544" y="-36.5" font-family="Helvetica,sans-Serif" font-size="10.00">tasks</text>
</a>
</g>
</g>
<!-- dir_0c9e3c7283f36edd21eeaa604bb6b292&#45;&gt;dir_dab382b21b73aae3d74d7668eeeacf78 -->
<g id="edge7" class="edge">
<title>dir_0c9e3c7283f36edd21eeaa604bb6b292&#45;&gt;dir_dab382b21b73aae3d74d7668eeeacf78</title>
<path fill="none" stroke="#63b8ff" d="M626.48,-265.85C628.36,-253.61 631.12,-230.55 629,-211 622.99,-155.46 625.2,-136.99 595,-90 586.7,-77.09 574.51,-64.98 564.13,-55.91"/>
<polygon fill="#63b8ff" stroke="#63b8ff" points="566.69,-53.49 556.77,-49.75 562.19,-58.85 566.69,-53.49"/>
<g id="a_edge7&#45;headlabel"><a xlink:href="dir_000011_000017.xhtml" target="_top" xlink:title="1">
<text text-anchor="middle" x="570.1" y="-50.15" font-family="Helvetica,sans-Serif" font-size="10.00" fill="#63b8ff">1</text>
</a>
</g>
</g>
<!-- dir_2b4ed0f0f8a947c7a7cb51e3d9d332b8 -->
<g id="node15" class="node">
<title>dir_2b4ed0f0f8a947c7a7cb51e3d9d332b8</title>
<g id="a_node15"><a xlink:href="dir_2b4ed0f0f8a947c7a7cb51e3d9d332b8.xhtml" target="_top" xlink:title="serial_protocol">
<polygon fill="#a2b4d6" stroke="#404040" points="690,-48.5 610,-48.5 610,-29.5 690,-29.5 690,-48.5"/>
<text text-anchor="middle" x="650" y="-36.5" font-family="Helvetica,sans-Serif" font-size="10.00">serial_protocol</text>
</a>
</g>
</g>
<!-- dir_0c9e3c7283f36edd21eeaa604bb6b292&#45;&gt;dir_2b4ed0f0f8a947c7a7cb51e3d9d332b8 -->
<g id="edge6" class="edge">
<title>dir_0c9e3c7283f36edd21eeaa604bb6b292&#45;&gt;dir_2b4ed0f0f8a947c7a7cb51e3d9d332b8</title>
<path fill="none" stroke="#63b8ff" d="M633.29,-265.72C639.23,-258.79 646.73,-248.57 650,-238 669.37,-175.43 659.91,-96.32 653.8,-59.95"/>
<polygon fill="#63b8ff" stroke="#63b8ff" points="657.31,-59.68 652.1,-50.45 650.42,-60.91 657.31,-59.68"/>
<g id="a_edge6&#45;headlabel"><a xlink:href="dir_000011_000013.xhtml" target="_top" xlink:title="4">
<text text-anchor="middle" x="660.47" y="-58.73" font-family="Helvetica,sans-Serif" font-size="10.00" fill="#63b8ff">4</text>
</a>
</g>
</g>
<!-- dir_6dbb42d2342d9d7292a192bc1d024acc -->
<g id="node6" class="node">
<title>dir_6dbb42d2342d9d7292a192bc1d024acc</title>
<text text-anchor="start" x="486.5" y="-163" font-family="Helvetica,sans-Serif" font-size="10.00">application_business</text>
<text text-anchor="middle" x="532" y="-152" font-family="Helvetica,sans-Serif" font-size="10.00">_rules</text>
</g>
<!-- dir_17a6007a5c84c34f300c622be50c188b&#45;&gt;dir_dab382b21b73aae3d74d7668eeeacf78 -->
<g id="edge10" class="edge">
<title>dir_17a6007a5c84c34f300c622be50c188b&#45;&gt;dir_dab382b21b73aae3d74d7668eeeacf78</title>
<path fill="none" stroke="#63b8ff" d="M544,-89.87C544,-82 544,-70.1 544,-59.89"/>
<polygon fill="#63b8ff" stroke="#63b8ff" points="547.5,-60.18 544,-50.18 540.5,-60.18 547.5,-60.18"/>
<g id="a_edge10&#45;headlabel"><a xlink:href="dir_000012_000017.xhtml" target="_top" xlink:title="1">
<text text-anchor="middle" x="550.34" y="-59.76" font-family="Helvetica,sans-Serif" font-size="10.00" fill="#63b8ff">1</text>
</a>
</g>
</g>
<!-- dir_17a6007a5c84c34f300c622be50c188b&#45;&gt;dir_2b4ed0f0f8a947c7a7cb51e3d9d332b8 -->
<g id="edge8" class="edge">
<title>dir_17a6007a5c84c34f300c622be50c188b&#45;&gt;dir_2b4ed0f0f8a947c7a7cb51e3d9d332b8</title>
<path fill="none" stroke="#63b8ff" d="M560.1,-89.62C576.99,-80.29 603.8,-65.5 623.75,-54.49"/>
<polygon fill="#63b8ff" stroke="#63b8ff" points="625.36,-57.6 632.42,-49.7 621.98,-51.47 625.36,-57.6"/>
<g id="a_edge8&#45;headlabel"><a xlink:href="dir_000012_000013.xhtml" target="_top" xlink:title="4">
<text text-anchor="middle" x="624.91" y="-58.59" font-family="Helvetica,sans-Serif" font-size="10.00" fill="#63b8ff">4</text>
</a>
</g>
</g>
<!-- dir_3a2f33b0f26bc6229d595c2c354e6333 -->
<g id="node16" class="node">
<title>dir_3a2f33b0f26bc6229d595c2c354e6333</title>
<g id="a_node16"><a xlink:href="dir_3a2f33b0f26bc6229d595c2c354e6333.xhtml" target="_top" xlink:title="Package Utilities.">
<polygon fill="#c8d2e7" stroke="#404040" points="357.5,-48.5 310.5,-48.5 310.5,-29.5 357.5,-29.5 357.5,-48.5"/>
<text text-anchor="middle" x="334" y="-36.5" font-family="Helvetica,sans-Serif" font-size="10.00">utilities</text>
</a>
</g>
</g>
<!-- dir_17a6007a5c84c34f300c622be50c188b&#45;&gt;dir_3a2f33b0f26bc6229d595c2c354e6333 -->
<g id="edge9" class="edge">
<title>dir_17a6007a5c84c34f300c622be50c188b&#45;&gt;dir_3a2f33b0f26bc6229d595c2c354e6333</title>
<path fill="none" stroke="#63b8ff" d="M502.28,-90.38C449.55,-80.08 365.21,-63.48 362,-62 358.52,-60.4 355.08,-58.28 351.87,-55.99"/>
<polygon fill="#63b8ff" stroke="#63b8ff" points="354.27,-53.43 344.28,-49.9 349.89,-58.89 354.27,-53.43"/>
<g id="a_edge9&#45;headlabel"><a xlink:href="dir_000012_000024.xhtml" target="_top" xlink:title="1">
<text text-anchor="middle" x="357.67" y="-50.02" font-family="Helvetica,sans-Serif" font-size="10.00" fill="#63b8ff">1</text>
</a>
</g>
</g>
<!-- dir_6c970bd3e9ed525c032ca1b33f237f5b&#45;&gt;dir_17a6007a5c84c34f300c622be50c188b -->
<g id="edge11" class="edge">
<title>dir_6c970bd3e9ed525c032ca1b33f237f5b&#45;&gt;dir_17a6007a5c84c34f300c622be50c188b</title>
<path fill="none" stroke="#63b8ff" d="M436.29,-150.12C456.99,-140.58 490.13,-125.31 514.19,-114.23"/>
<polygon fill="#63b8ff" stroke="#63b8ff" points="515.54,-117.46 523.16,-110.1 512.61,-111.11 515.54,-117.46"/>
<g id="a_edge11&#45;headlabel"><a xlink:href="dir_000023_000012.xhtml" target="_top" xlink:title="1">
<text text-anchor="middle" x="514.83" y="-118.41" font-family="Helvetica,sans-Serif" font-size="10.00" fill="#63b8ff">1</text>
</a>
</g>
</g>
<!-- dir_6c970bd3e9ed525c032ca1b33f237f5b&#45;&gt;dir_dab382b21b73aae3d74d7668eeeacf78 -->
<g id="edge13" class="edge">
<title>dir_6c970bd3e9ed525c032ca1b33f237f5b&#45;&gt;dir_dab382b21b73aae3d74d7668eeeacf78</title>
<path fill="none" stroke="#63b8ff" d="M426.55,-150.06C447.79,-130.14 499.26,-81.92 526.47,-56.42"/>
<polygon fill="#63b8ff" stroke="#63b8ff" points="528.68,-59.15 533.58,-49.76 523.89,-54.04 528.68,-59.15"/>
<g id="a_edge13&#45;headlabel"><a xlink:href="dir_000023_000017.xhtml" target="_top" xlink:title="1">
<text text-anchor="middle" x="529.1" y="-60.15" font-family="Helvetica,sans-Serif" font-size="10.00" fill="#63b8ff">1</text>
</a>
</g>
</g>
<!-- dir_6c970bd3e9ed525c032ca1b33f237f5b&#45;&gt;dir_3a2f33b0f26bc6229d595c2c354e6333 -->
<g id="edge12" class="edge">
<title>dir_6c970bd3e9ed525c032ca1b33f237f5b&#45;&gt;dir_3a2f33b0f26bc6229d595c2c354e6333</title>
<path fill="none" stroke="#63b8ff" d="M410.76,-150.06C397.18,-130.58 364.69,-84 346.64,-58.12"/>
<polygon fill="#63b8ff" stroke="#63b8ff" points="349.54,-56.17 340.95,-49.97 343.8,-60.17 349.54,-56.17"/>
<g id="a_edge12&#45;headlabel"><a xlink:href="dir_000023_000024.xhtml" target="_top" xlink:title="2">
<text text-anchor="middle" x="353.06" y="-53.75" font-family="Helvetica,sans-Serif" font-size="10.00" fill="#63b8ff">2</text>
</a>
</g>
</g>
<!-- dir_b49365647f74dff1c8dd1e88d29293e4&#45;&gt;dir_6c970bd3e9ed525c032ca1b33f237f5b -->
<g id="edge15" class="edge">
<title>dir_b49365647f74dff1c8dd1e88d29293e4&#45;&gt;dir_6c970bd3e9ed525c032ca1b33f237f5b</title>
<path fill="none" stroke="#63b8ff" d="M107.44,-212.41C110.68,-211.91 113.89,-211.44 117,-211 225.53,-195.76 255.73,-209.81 362,-183 370.57,-180.84 379.58,-177.65 387.78,-174.36"/>
<polygon fill="#63b8ff" stroke="#63b8ff" points="389.08,-177.62 396.93,-170.5 386.36,-171.17 389.08,-177.62"/>
<g id="a_edge15&#45;headlabel"><a xlink:href="dir_000003_000023.xhtml" target="_top" xlink:title="6">
<text text-anchor="middle" x="388.26" y="-178.54" font-family="Helvetica,sans-Serif" font-size="10.00" fill="#63b8ff">6</text>
</a>
</g>
</g>
<!-- dir_5d3f509552af106634de565dc9d6f33a -->
<g id="node12" class="node">
<title>dir_5d3f509552af106634de565dc9d6f33a</title>
<g id="a_node12"><a xlink:href="dir_5d3f509552af106634de565dc9d6f33a.xhtml" target="_top" xlink:title="sound_output_interface">
<polygon fill="#a2b4d6" stroke="#404040" points="315,-169.5 197,-169.5 197,-150.5 315,-150.5 315,-169.5"/>
<text text-anchor="middle" x="256" y="-157.5" font-family="Helvetica,sans-Serif" font-size="10.00">sound_output_interface</text>
</a>
</g>
</g>
<!-- dir_b49365647f74dff1c8dd1e88d29293e4&#45;&gt;dir_5d3f509552af106634de565dc9d6f33a -->
<g id="edge14" class="edge">
<title>dir_b49365647f74dff1c8dd1e88d29293e4&#45;&gt;dir_5d3f509552af106634de565dc9d6f33a</title>
<path fill="none" stroke="#63b8ff" d="M93.22,-211.12C125.4,-201.21 179.22,-184.64 216.1,-173.29"/>
<polygon fill="#63b8ff" stroke="#63b8ff" points="216.99,-176.67 225.51,-170.39 214.93,-169.98 216.99,-176.67"/>
<g id="a_edge14&#45;headlabel"><a xlink:href="dir_000003_000014.xhtml" target="_top" xlink:title="1">
<text text-anchor="middle" x="215.83" y="-177.5" font-family="Helvetica,sans-Serif" font-size="10.00" fill="#63b8ff">1</text>
</a>
</g>
</g>
<!-- dir_8d1ee3be5d3bd43266cde43195651fe0 -->
<g id="node11" class="node">
<title>dir_8d1ee3be5d3bd43266cde43195651fe0</title>
<g id="a_node11"><a xlink:href="dir_8d1ee3be5d3bd43266cde43195651fe0.xhtml" target="_top" xlink:title="input_device_interface">
<polygon fill="#a2b4d6" stroke="#404040" points="240,-230 126,-230 126,-211 240,-211 240,-230"/>
<text text-anchor="middle" x="183" y="-218" font-family="Helvetica,sans-Serif" font-size="10.00">input_device_interface</text>
</a>
</g>
</g>
<!-- dir_8d1ee3be5d3bd43266cde43195651fe0&#45;&gt;dir_6c970bd3e9ed525c032ca1b33f237f5b -->
<g id="edge17" class="edge">
<title>dir_8d1ee3be5d3bd43266cde43195651fe0&#45;&gt;dir_6c970bd3e9ed525c032ca1b33f237f5b</title>
<path fill="none" stroke="#63b8ff" d="M240.08,-210.55C275.56,-204.33 321.89,-195 362,-183 370.1,-180.57 378.68,-177.44 386.58,-174.3"/>
<polygon fill="#63b8ff" stroke="#63b8ff" points="387.88,-177.55 395.79,-170.5 385.21,-171.07 387.88,-177.55"/>
<g id="a_edge17&#45;headlabel"><a xlink:href="dir_000008_000023.xhtml" target="_top" xlink:title="2">
<text text-anchor="middle" x="387.04" y="-178.46" font-family="Helvetica,sans-Serif" font-size="10.00" fill="#63b8ff">2</text>
</a>
</g>
</g>
<!-- dir_8d1ee3be5d3bd43266cde43195651fe0&#45;&gt;dir_3a2f33b0f26bc6229d595c2c354e6333 -->
<g id="edge16" class="edge">
<title>dir_8d1ee3be5d3bd43266cde43195651fe0&#45;&gt;dir_3a2f33b0f26bc6229d595c2c354e6333</title>
<path fill="none" stroke="#63b8ff" d="M240.41,-211.54C274.47,-205.56 313.09,-196.12 324,-183 353.09,-148.02 345.73,-90.07 339.15,-59.8"/>
<polygon fill="#63b8ff" stroke="#63b8ff" points="342.65,-59.38 336.92,-50.47 335.84,-61.01 342.65,-59.38"/>
<g id="a_edge16&#45;headlabel"><a xlink:href="dir_000008_000024.xhtml" target="_top" xlink:title="1">
<text text-anchor="middle" x="345.89" y="-58.25" font-family="Helvetica,sans-Serif" font-size="10.00" fill="#63b8ff">1</text>
</a>
</g>
</g>
<!-- dir_5d3f509552af106634de565dc9d6f33a&#45;&gt;dir_6c970bd3e9ed525c032ca1b33f237f5b -->
<g id="edge19" class="edge">
<title>dir_5d3f509552af106634de565dc9d6f33a&#45;&gt;dir_6c970bd3e9ed525c032ca1b33f237f5b</title>
<path fill="none" stroke="#63b8ff" d="M315.43,-160C331.08,-160 346.72,-160 362.36,-160"/>
<polygon fill="#63b8ff" stroke="#63b8ff" points="362.24,-163.5 372.24,-160 362.24,-156.5 362.24,-163.5"/>
<g id="a_edge19&#45;headlabel"><a xlink:href="dir_000014_000023.xhtml" target="_top" xlink:title="1">
<text text-anchor="middle" x="360.16" y="-163.84" font-family="Helvetica,sans-Serif" font-size="10.00" fill="#63b8ff">1</text>
</a>
</g>
</g>
<!-- dir_5d3f509552af106634de565dc9d6f33a&#45;&gt;dir_3a2f33b0f26bc6229d595c2c354e6333 -->
<g id="edge18" class="edge">
<title>dir_5d3f509552af106634de565dc9d6f33a&#45;&gt;dir_3a2f33b0f26bc6229d595c2c354e6333</title>
<path fill="none" stroke="#63b8ff" d="M261.86,-150.06C274.63,-130.58 305.16,-84 322.12,-58.12"/>
<polygon fill="#63b8ff" stroke="#63b8ff" points="324.9,-60.27 327.45,-49.99 319.04,-56.44 324.9,-60.27"/>
<g id="a_edge18&#45;headlabel"><a xlink:href="dir_000014_000024.xhtml" target="_top" xlink:title="1">
<text text-anchor="middle" x="326.13" y="-61.07" font-family="Helvetica,sans-Serif" font-size="10.00" fill="#63b8ff">1</text>
</a>
</g>
</g>
<!-- dir_dd038f7b9d5ffa107a6117feec92b6ac -->
<g id="node13" class="node">
<title>dir_dd038f7b9d5ffa107a6117feec92b6ac</title>
<g id="a_node13"><a xlink:href="dir_dd038f7b9d5ffa107a6117feec92b6ac.xhtml" target="_top" xlink:title="status_indicators">
<polygon fill="#a2b4d6" stroke="#404040" points="349.5,-230 258.5,-230 258.5,-211 349.5,-211 349.5,-230"/>
<text text-anchor="middle" x="304" y="-218" font-family="Helvetica,sans-Serif" font-size="10.00">status_indicators</text>
</a>
</g>
</g>
<!-- dir_dd038f7b9d5ffa107a6117feec92b6ac&#45;&gt;dir_6c970bd3e9ed525c032ca1b33f237f5b -->
<g id="edge20" class="edge">
<title>dir_dd038f7b9d5ffa107a6117feec92b6ac&#45;&gt;dir_6c970bd3e9ed525c032ca1b33f237f5b</title>
<path fill="none" stroke="#63b8ff" d="M321.16,-210.62C339.33,-201.21 368.28,-186.22 389.61,-175.18"/>
<polygon fill="#63b8ff" stroke="#63b8ff" points="391.06,-178.37 398.33,-170.66 387.84,-172.15 391.06,-178.37"/>
<g id="a_edge20&#45;headlabel"><a xlink:href="dir_000016_000023.xhtml" target="_top" xlink:title="2">
<text text-anchor="middle" x="390.52" y="-179.35" font-family="Helvetica,sans-Serif" font-size="10.00" fill="#63b8ff">2</text>
</a>
</g>
</g>
<!-- dir_71046b38222792489c3876836d4fbdbc -->
<g id="node14" class="node">
<title>dir_71046b38222792489c3876836d4fbdbc</title>
<text text-anchor="start" x="716" y="-42" font-family="Helvetica,sans-Serif" font-size="10.00">enterprise_business</text>
<text text-anchor="middle" x="760" y="-31" font-family="Helvetica,sans-Serif" font-size="10.00">_rules</text>
</g>
</g>
</svg>
