<?xml version="1.0" encoding="UTF-8" standalone="no"?>
<!DOCTYPE svg PUBLIC "-//W3C//DTD SVG 1.1//EN"
 "http://www.w3.org/Graphics/SVG/1.1/DTD/svg11.dtd">
<!-- Generated by graphviz version 7.0.5 (20221223.1930)
 -->
<!-- Title: lib/3rd_party_adapters/nlohmann/JsonGenerator.cpp Pages: 1 -->
<svg width="703pt" height="214pt"
 viewBox="0.00 0.00 703.00 214.00" xmlns="http://www.w3.org/2000/svg" xmlns:xlink="http://www.w3.org/1999/xlink">
<g id="graph0" class="graph" transform="scale(1 1) rotate(0) translate(4 210)">
<title>lib/3rd_party_adapters/nlohmann/JsonGenerator.cpp</title>
<!-- Node1 -->
<g id="node1" class="node">
<title>Node1</title>
<g id="a_node1"><a xlink:title=" ">
<polygon fill="#999999" stroke="#666666" points="367.5,-206 221.5,-206 221.5,-176 367.5,-176 367.5,-206"/>
<text text-anchor="start" x="229.5" y="-194" font-family="Helvetica,sans-Serif" font-size="10.00">lib/3rd_party_adapters</text>
<text text-anchor="middle" x="294.5" y="-183" font-family="Helvetica,sans-Serif" font-size="10.00">/nlohmann/JsonGenerator.cpp</text>
</a>
</g>
</g>
<!-- Node2 -->
<g id="node2" class="node">
<title>Node2</title>
<g id="a_node2"><a xlink:title=" ">
<polygon fill="#e0e0e0" stroke="#999999" points="130.5,-134.5 32.5,-134.5 32.5,-115.5 130.5,-115.5 130.5,-134.5"/>
<text text-anchor="middle" x="81.5" y="-122.5" font-family="Helvetica,sans-Serif" font-size="10.00">nlohmann/json.hpp</text>
</a>
</g>
</g>
<!-- Node1&#45;&gt;Node2 -->
<g id="edge1" class="edge">
<title>Node1&#45;&gt;Node2</title>
<path fill="none" stroke="#63b8ff" d="M246.43,-175.56C209.01,-164.31 157.65,-148.88 122.23,-138.24"/>
<polygon fill="#63b8ff" stroke="#63b8ff" points="123.36,-134.92 112.78,-135.4 121.35,-141.63 123.36,-134.92"/>
</g>
<!-- Node3 -->
<g id="node3" class="node">
<title>Node3</title>
<g id="a_node3"><a xlink:href="JsonGenerator_8hpp.xhtml" target="_top" xlink:title=" ">
<polygon fill="white" stroke="#666666" points="167,-74 0,-74 0,-55 167,-55 167,-74"/>
<text text-anchor="middle" x="83.5" y="-62" font-family="Helvetica,sans-Serif" font-size="10.00">serial_interface/JsonGenerator.hpp</text>
</a>
</g>
</g>
<!-- Node1&#45;&gt;Node3 -->
<g id="edge2" class="edge">
<title>Node1&#45;&gt;Node3</title>
<path fill="none" stroke="#63b8ff" d="M268.59,-175.53C251.01,-165.65 227.26,-152.18 206.5,-140 171.83,-119.66 132.12,-95.44 107.42,-80.26"/>
<polygon fill="#63b8ff" stroke="#63b8ff" points="109.45,-77.4 99.1,-75.14 105.79,-83.36 109.45,-77.4"/>
</g>
<!-- Node5 -->
<g id="node5" class="node">
<title>Node5</title>
<g id="a_node5"><a xlink:href="DeletedTaskObject_8hpp.xhtml" target="_top" xlink:title=" ">
<polygon fill="white" stroke="#666666" points="558,-140 421,-140 421,-110 558,-110 558,-140"/>
<text text-anchor="start" x="429" y="-128" font-family="Helvetica,sans-Serif" font-size="10.00">serial_protocol/DeletedTask</text>
<text text-anchor="middle" x="489.5" y="-117" font-family="Helvetica,sans-Serif" font-size="10.00">Object.hpp</text>
</a>
</g>
</g>
<!-- Node1&#45;&gt;Node5 -->
<g id="edge4" class="edge">
<title>Node1&#45;&gt;Node5</title>
<path fill="none" stroke="#63b8ff" d="M338.26,-175.64C366.76,-166.28 404.18,-154 434.66,-144"/>
<polygon fill="#63b8ff" stroke="#63b8ff" points="435.7,-147.34 444.11,-140.9 433.52,-140.69 435.7,-147.34"/>
</g>
<!-- Node6 -->
<g id="node6" class="node">
<title>Node6</title>
<g id="a_node6"><a xlink:href="ProtocolVersionObject_8hpp.xhtml" target="_top" xlink:title=" ">
<polygon fill="white" stroke="#666666" points="695,-140 576,-140 576,-110 695,-110 695,-140"/>
<text text-anchor="start" x="584" y="-128" font-family="Helvetica,sans-Serif" font-size="10.00">serial_protocol/Protocol</text>
<text text-anchor="middle" x="635.5" y="-117" font-family="Helvetica,sans-Serif" font-size="10.00">VersionObject.hpp</text>
</a>
</g>
</g>
<!-- Node1&#45;&gt;Node6 -->
<g id="edge5" class="edge">
<title>Node1&#45;&gt;Node6</title>
<path fill="none" stroke="#63b8ff" d="M367.87,-177.01C420.19,-167.65 492.51,-154.49 564.7,-140.52"/>
<polygon fill="#63b8ff" stroke="#63b8ff" points="565.18,-144 574.32,-138.65 563.84,-137.12 565.18,-144"/>
</g>
<!-- Node8 -->
<g id="node8" class="node">
<title>Node8</title>
<g id="a_node8"><a xlink:href="TaskList_8hpp.xhtml" target="_top" xlink:title=" ">
<polygon fill="white" stroke="#666666" points="364,-134.5 225,-134.5 225,-115.5 364,-115.5 364,-134.5"/>
<text text-anchor="middle" x="294.5" y="-122.5" font-family="Helvetica,sans-Serif" font-size="10.00">serial_protocol/TaskList.hpp</text>
</a>
</g>
</g>
<!-- Node1&#45;&gt;Node8 -->
<g id="edge7" class="edge">
<title>Node1&#45;&gt;Node8</title>
<path fill="none" stroke="#63b8ff" d="M294.5,-175.8C294.5,-167.09 294.5,-155.81 294.5,-146.18"/>
<polygon fill="#63b8ff" stroke="#63b8ff" points="298,-146.36 294.5,-136.36 291,-146.36 298,-146.36"/>
</g>
<!-- Node9 -->
<g id="node9" class="node">
<title>Node9</title>
<g id="a_node9"><a xlink:href="TaskObject_8hpp.xhtml" target="_top" xlink:title=" ">
<polygon fill="white" stroke="#666666" points="270,-74 185,-74 185,-55 270,-55 270,-74"/>
<text text-anchor="middle" x="227.5" y="-62" font-family="Helvetica,sans-Serif" font-size="10.00">TaskObject.hpp</text>
</a>
</g>
</g>
<!-- Node1&#45;&gt;Node9 -->
<g id="edge12" class="edge">
<title>Node1&#45;&gt;Node9</title>
<path fill="none" stroke="#63b8ff" d="M256.37,-175.67C240.77,-167.69 224.35,-156.07 215.5,-140 206.04,-122.82 211.75,-100.27 218.12,-84.49"/>
<polygon fill="#63b8ff" stroke="#63b8ff" points="221.13,-86.31 222.04,-75.76 214.75,-83.44 221.13,-86.31"/>
</g>
<!-- Node12 -->
<g id="node12" class="node">
<title>Node12</title>
<g id="a_node12"><a xlink:href="Task_8hpp.xhtml" target="_top" xlink:title=" ">
<polygon fill="white" stroke="#666666" points="434,-74 351,-74 351,-55 434,-55 434,-74"/>
<text text-anchor="middle" x="392.5" y="-62" font-family="Helvetica,sans-Serif" font-size="10.00">tasks/Task.hpp</text>
</a>
</g>
</g>
<!-- Node1&#45;&gt;Node12 -->
<g id="edge13" class="edge">
<title>Node1&#45;&gt;Node12</title>
<path fill="none" stroke="#63b8ff" d="M327.9,-175.64C343.55,-167.34 361.2,-155.45 372.5,-140 384.23,-123.97 389.08,-101.5 391.09,-85.44"/>
<polygon fill="#63b8ff" stroke="#63b8ff" points="394.55,-85.97 392.02,-75.68 387.58,-85.3 394.55,-85.97"/>
</g>
<!-- Node4 -->
<g id="node4" class="node">
<title>Node4</title>
<g id="a_node4"><a xlink:title=" ">
<polygon fill="#e0e0e0" stroke="#999999" points="248,-19 207,-19 207,0 248,0 248,-19"/>
<text text-anchor="middle" x="227.5" y="-7" font-family="Helvetica,sans-Serif" font-size="10.00">string</text>
</a>
</g>
</g>
<!-- Node3&#45;&gt;Node4 -->
<g id="edge3" class="edge">
<title>Node3&#45;&gt;Node4</title>
<path fill="none" stroke="#63b8ff" d="M107.93,-54.51C132.22,-45.57 169.59,-31.81 196.08,-22.06"/>
<polygon fill="#63b8ff" stroke="#63b8ff" points="197.1,-25.42 205.28,-18.68 194.68,-18.85 197.1,-25.42"/>
</g>
<!-- Node7 -->
<g id="node7" class="node">
<title>Node7</title>
<g id="a_node7"><a xlink:title=" ">
<polygon fill="#e0e0e0" stroke="#999999" points="658.5,-74 612.5,-74 612.5,-55 658.5,-55 658.5,-74"/>
<text text-anchor="middle" x="635.5" y="-62" font-family="Helvetica,sans-Serif" font-size="10.00">cstdint</text>
</a>
</g>
</g>
<!-- Node6&#45;&gt;Node7 -->
<g id="edge6" class="edge">
<title>Node6&#45;&gt;Node7</title>
<path fill="none" stroke="#63b8ff" d="M635.5,-109.54C635.5,-102.34 635.5,-93.53 635.5,-85.68"/>
<polygon fill="#63b8ff" stroke="#63b8ff" points="639,-85.69 635.5,-75.69 632,-85.69 639,-85.69"/>
</g>
<!-- Node8&#45;&gt;Node9 -->
<g id="edge8" class="edge">
<title>Node8&#45;&gt;Node9</title>
<path fill="none" stroke="#63b8ff" d="M284.32,-115.12C274.29,-106.35 258.71,-92.75 246.4,-82"/>
<polygon fill="#63b8ff" stroke="#63b8ff" points="248.75,-79.4 238.91,-75.46 244.14,-84.68 248.75,-79.4"/>
</g>
<!-- Node11 -->
<g id="node11" class="node">
<title>Node11</title>
<g id="a_node11"><a xlink:title=" ">
<polygon fill="#e0e0e0" stroke="#999999" points="332.5,-74 288.5,-74 288.5,-55 332.5,-55 332.5,-74"/>
<text text-anchor="middle" x="310.5" y="-62" font-family="Helvetica,sans-Serif" font-size="10.00">vector</text>
</a>
</g>
</g>
<!-- Node8&#45;&gt;Node11 -->
<g id="edge11" class="edge">
<title>Node8&#45;&gt;Node11</title>
<path fill="none" stroke="#63b8ff" d="M296.86,-115.37C299.04,-107.42 302.34,-95.33 305.15,-85.05"/>
<polygon fill="#63b8ff" stroke="#63b8ff" points="308.47,-86.2 307.73,-75.63 301.72,-84.35 308.47,-86.2"/>
</g>
<!-- Node9&#45;&gt;Node4 -->
<g id="edge10" class="edge">
<title>Node9&#45;&gt;Node4</title>
<path fill="none" stroke="#63b8ff" d="M227.5,-54.75C227.5,-48.27 227.5,-39.16 227.5,-30.9"/>
<polygon fill="#63b8ff" stroke="#63b8ff" points="231,-30.96 227.5,-20.96 224,-30.96 231,-30.96"/>
</g>
<!-- Node10 -->
<g id="node10" class="node">
<title>Node10</title>
<g id="a_node10"><a xlink:title=" ">
<polygon fill="#e0e0e0" stroke="#999999" points="334.5,-19 288.5,-19 288.5,0 334.5,0 334.5,-19"/>
<text text-anchor="middle" x="311.5" y="-7" font-family="Helvetica,sans-Serif" font-size="10.00">chrono</text>
</a>
</g>
</g>
<!-- Node9&#45;&gt;Node10 -->
<g id="edge9" class="edge">
<title>Node9&#45;&gt;Node10</title>
<path fill="none" stroke="#63b8ff" d="M241.75,-54.51C254.38,-46.54 273.06,-34.75 287.91,-25.38"/>
<polygon fill="#63b8ff" stroke="#63b8ff" points="289.59,-28.46 296.18,-20.17 285.86,-22.54 289.59,-28.46"/>
</g>
<!-- Node12&#45;&gt;Node4 -->
<g id="edge16" class="edge">
<title>Node12&#45;&gt;Node4</title>
<path fill="none" stroke="#63b8ff" d="M364.51,-54.51C335.32,-45.13 289.66,-30.47 259.17,-20.67"/>
<polygon fill="#63b8ff" stroke="#63b8ff" points="260.33,-17.37 249.74,-17.64 258.19,-24.03 260.33,-17.37"/>
</g>
<!-- Node12&#45;&gt;Node10 -->
<g id="edge14" class="edge">
<title>Node12&#45;&gt;Node10</title>
<path fill="none" stroke="#63b8ff" d="M378.76,-54.51C366.7,-46.62 348.91,-34.98 334.66,-25.65"/>
<polygon fill="#63b8ff" stroke="#63b8ff" points="336.59,-22.73 326.3,-20.19 332.76,-28.59 336.59,-22.73"/>
</g>
<!-- Node13 -->
<g id="node13" class="node">
<title>Node13</title>
<g id="a_node13"><a xlink:title=" ">
<polygon fill="#e0e0e0" stroke="#999999" points="410,-19 375,-19 375,0 410,0 410,-19"/>
<text text-anchor="middle" x="392.5" y="-7" font-family="Helvetica,sans-Serif" font-size="10.00">map</text>
</a>
</g>
</g>
<!-- Node12&#45;&gt;Node13 -->
<g id="edge15" class="edge">
<title>Node12&#45;&gt;Node13</title>
<path fill="none" stroke="#63b8ff" d="M392.5,-54.75C392.5,-48.27 392.5,-39.16 392.5,-30.9"/>
<polygon fill="#63b8ff" stroke="#63b8ff" points="396,-30.96 392.5,-20.96 389,-30.96 396,-30.96"/>
</g>
</g>
</svg>
