<?xml version="1.0" encoding="UTF-8" standalone="no"?>
<!DOCTYPE svg PUBLIC "-//W3C//DTD SVG 1.1//EN"
 "http://www.w3.org/Graphics/SVG/1.1/DTD/svg11.dtd">
<!-- Generated by graphviz version 7.0.5 (20221223.1930)
 -->
<!-- Title: lib/3rd_party_adapters/nlohmann/JsonGenerator.cpp Pages: 1 -->
<svg width="841pt" height="214pt"
 viewBox="0.00 0.00 841.00 214.00" xmlns="http://www.w3.org/2000/svg" xmlns:xlink="http://www.w3.org/1999/xlink">
<g id="graph0" class="graph" transform="scale(1 1) rotate(0) translate(4 210)">
<title>lib/3rd_party_adapters/nlohmann/JsonGenerator.cpp</title>
<!-- Node1 -->
<g id="node1" class="node">
<title>Node1</title>
<g id="a_node1"><a xlink:title=" ">
<polygon fill="#999999" stroke="#666666" points="446.5,-206 300.5,-206 300.5,-176 446.5,-176 446.5,-206"/>
<text text-anchor="start" x="308.5" y="-194" font-family="Helvetica,sans-Serif" font-size="10.00">lib/3rd_party_adapters</text>
<text text-anchor="middle" x="373.5" y="-183" font-family="Helvetica,sans-Serif" font-size="10.00">/nlohmann/JsonGenerator.cpp</text>
</a>
</g>
</g>
<!-- Node2 -->
<g id="node2" class="node">
<title>Node2</title>
<g id="a_node2"><a xlink:title=" ">
<polygon fill="#e0e0e0" stroke="#999999" points="133.5,-134.5 35.5,-134.5 35.5,-115.5 133.5,-115.5 133.5,-134.5"/>
<text text-anchor="middle" x="84.5" y="-122.5" font-family="Helvetica,sans-Serif" font-size="10.00">nlohmann/json.hpp</text>
</a>
</g>
</g>
<!-- Node1&#45;&gt;Node2 -->
<g id="edge1" class="edge">
<title>Node1&#45;&gt;Node2</title>
<path fill="none" stroke="#63b8ff" d="M308.22,-175.58C263.08,-165.6 201.64,-152 147.5,-140 143.72,-139.16 139.81,-138.3 135.88,-137.42"/>
<polygon fill="#63b8ff" stroke="#63b8ff" points="136.83,-134.05 126.31,-135.3 135.31,-140.88 136.83,-134.05"/>
</g>
<!-- Node3 -->
<g id="node3" class="node">
<title>Node3</title>
<g id="a_node3"><a xlink:href="JsonGenerator_8hpp.xhtml" target="_top" xlink:title=" ">
<polygon fill="white" stroke="#666666" points="167,-74 0,-74 0,-55 167,-55 167,-74"/>
<text text-anchor="middle" x="83.5" y="-62" font-family="Helvetica,sans-Serif" font-size="10.00">serial_interface/JsonGenerator.hpp</text>
</a>
</g>
</g>
<!-- Node1&#45;&gt;Node3 -->
<g id="edge2" class="edge">
<title>Node1&#45;&gt;Node3</title>
<path fill="none" stroke="#63b8ff" d="M300.39,-178.49C263.18,-170.82 218.01,-158.63 180.5,-140 161.23,-130.43 159.54,-123.15 142.5,-110 129.93,-100.3 115.73,-89.58 104.41,-81.09"/>
<polygon fill="#63b8ff" stroke="#63b8ff" points="106.63,-78.38 96.52,-75.2 102.43,-83.99 106.63,-78.38"/>
</g>
<!-- Node5 -->
<g id="node5" class="node">
<title>Node5</title>
<g id="a_node5"><a xlink:href="TaskIterator_8hpp.xhtml" target="_top" xlink:title=" ">
<polygon fill="white" stroke="#666666" points="345.5,-134.5 189.5,-134.5 189.5,-115.5 345.5,-115.5 345.5,-134.5"/>
<text text-anchor="middle" x="267.5" y="-122.5" font-family="Helvetica,sans-Serif" font-size="10.00">serial_interface/TaskIterator.hpp</text>
</a>
</g>
</g>
<!-- Node1&#45;&gt;Node5 -->
<g id="edge4" class="edge">
<title>Node1&#45;&gt;Node5</title>
<path fill="none" stroke="#63b8ff" d="M349.71,-175.64C332.46,-165.22 309.22,-151.19 291.84,-140.7"/>
<polygon fill="#63b8ff" stroke="#63b8ff" points="294.05,-137.94 283.68,-135.77 290.43,-143.93 294.05,-137.94"/>
</g>
<!-- Node7 -->
<g id="node7" class="node">
<title>Node7</title>
<g id="a_node7"><a xlink:href="TaskObject_8hpp.xhtml" target="_top" xlink:title=" ">
<polygon fill="white" stroke="#666666" points="502,-74 351,-74 351,-55 502,-55 502,-74"/>
<text text-anchor="middle" x="426.5" y="-62" font-family="Helvetica,sans-Serif" font-size="10.00">serial_protocol/TaskObject.hpp</text>
</a>
</g>
</g>
<!-- Node1&#45;&gt;Node7 -->
<g id="edge19" class="edge">
<title>Node1&#45;&gt;Node7</title>
<path fill="none" stroke="#63b8ff" d="M375.09,-175.53C377.31,-159.02 382.29,-131.54 392.5,-110 397.12,-100.26 404.12,-90.6 410.57,-82.79"/>
<polygon fill="#63b8ff" stroke="#63b8ff" points="413.05,-85.28 416.97,-75.43 407.77,-80.68 413.05,-85.28"/>
</g>
<!-- Node11 -->
<g id="node11" class="node">
<title>Node11</title>
<g id="a_node11"><a xlink:href="DeletedTaskObject_8hpp.xhtml" target="_top" xlink:title=" ">
<polygon fill="white" stroke="#666666" points="539,-140 402,-140 402,-110 539,-110 539,-140"/>
<text text-anchor="start" x="410" y="-128" font-family="Helvetica,sans-Serif" font-size="10.00">serial_protocol/DeletedTask</text>
<text text-anchor="middle" x="470.5" y="-117" font-family="Helvetica,sans-Serif" font-size="10.00">Object.hpp</text>
</a>
</g>
</g>
<!-- Node1&#45;&gt;Node11 -->
<g id="edge13" class="edge">
<title>Node1&#45;&gt;Node11</title>
<path fill="none" stroke="#63b8ff" d="M395.03,-175.8C408,-167.24 424.74,-156.19 439.16,-146.68"/>
<polygon fill="#63b8ff" stroke="#63b8ff" points="441.01,-149.65 447.43,-141.22 437.16,-143.8 441.01,-149.65"/>
</g>
<!-- Node12 -->
<g id="node12" class="node">
<title>Node12</title>
<g id="a_node12"><a xlink:href="ProtocolVersionObject_8hpp.xhtml" target="_top" xlink:title=" ">
<polygon fill="white" stroke="#666666" points="833,-140 714,-140 714,-110 833,-110 833,-140"/>
<text text-anchor="start" x="722" y="-128" font-family="Helvetica,sans-Serif" font-size="10.00">serial_protocol/Protocol</text>
<text text-anchor="middle" x="773.5" y="-117" font-family="Helvetica,sans-Serif" font-size="10.00">VersionObject.hpp</text>
</a>
</g>
</g>
<!-- Node1&#45;&gt;Node12 -->
<g id="edge14" class="edge">
<title>Node1&#45;&gt;Node12</title>
<path fill="none" stroke="#63b8ff" d="M446.97,-179.98C511.6,-170.92 608.5,-156.74 702.54,-140.29"/>
<polygon fill="#63b8ff" stroke="#63b8ff" points="702.96,-143.77 712.21,-138.59 701.75,-136.88 702.96,-143.77"/>
</g>
<!-- Node14 -->
<g id="node14" class="node">
<title>Node14</title>
<g id="a_node14"><a xlink:href="TaskList_8hpp.xhtml" target="_top" xlink:title=" ">
<polygon fill="white" stroke="#666666" points="696,-134.5 557,-134.5 557,-115.5 696,-115.5 696,-134.5"/>
<text text-anchor="middle" x="626.5" y="-122.5" font-family="Helvetica,sans-Serif" font-size="10.00">serial_protocol/TaskList.hpp</text>
</a>
</g>
</g>
<!-- Node1&#45;&gt;Node14 -->
<g id="edge16" class="edge">
<title>Node1&#45;&gt;Node14</title>
<path fill="none" stroke="#63b8ff" d="M430.59,-175.56C475.72,-164.14 537.91,-148.41 580.02,-137.76"/>
<polygon fill="#63b8ff" stroke="#63b8ff" points="580.76,-141.18 589.6,-135.33 579.05,-134.39 580.76,-141.18"/>
</g>
<!-- Node4 -->
<g id="node4" class="node">
<title>Node4</title>
<g id="a_node4"><a xlink:title=" ">
<polygon fill="#e0e0e0" stroke="#999999" points="219,-19 178,-19 178,0 219,0 219,-19"/>
<text text-anchor="middle" x="198.5" y="-7" font-family="Helvetica,sans-Serif" font-size="10.00">string</text>
</a>
</g>
</g>
<!-- Node3&#45;&gt;Node4 -->
<g id="edge3" class="edge">
<title>Node3&#45;&gt;Node4</title>
<path fill="none" stroke="#63b8ff" d="M103.01,-54.51C121.13,-46.16 148.35,-33.61 169.1,-24.05"/>
<polygon fill="#63b8ff" stroke="#63b8ff" points="170.29,-27.36 177.91,-19.99 167.36,-21 170.29,-27.36"/>
</g>
<!-- Node6 -->
<g id="node6" class="node">
<title>Node6</title>
<g id="a_node6"><a xlink:title=" ">
<polygon fill="#e0e0e0" stroke="#999999" points="333,-74 286,-74 286,-55 333,-55 333,-74"/>
<text text-anchor="middle" x="309.5" y="-62" font-family="Helvetica,sans-Serif" font-size="10.00">iterator</text>
</a>
</g>
</g>
<!-- Node5&#45;&gt;Node6 -->
<g id="edge5" class="edge">
<title>Node5&#45;&gt;Node6</title>
<path fill="none" stroke="#63b8ff" d="M273.7,-115.37C279.71,-106.99 289.03,-94.01 296.65,-83.39"/>
<polygon fill="#63b8ff" stroke="#63b8ff" points="299.41,-85.56 302.39,-75.4 293.72,-81.48 299.41,-85.56"/>
</g>
<!-- Node5&#45;&gt;Node7 -->
<g id="edge6" class="edge">
<title>Node5&#45;&gt;Node7</title>
<path fill="none" stroke="#63b8ff" d="M291.65,-115.12C318.26,-105.32 361.31,-89.48 391.6,-78.34"/>
<polygon fill="#63b8ff" stroke="#63b8ff" points="392.53,-81.73 400.7,-74.99 390.11,-75.16 392.53,-81.73"/>
</g>
<!-- Node9 -->
<g id="node9" class="node">
<title>Node9</title>
<g id="a_node9"><a xlink:href="Task_8hpp.xhtml" target="_top" xlink:title=" ">
<polygon fill="white" stroke="#666666" points="268,-74 185,-74 185,-55 268,-55 268,-74"/>
<text text-anchor="middle" x="226.5" y="-62" font-family="Helvetica,sans-Serif" font-size="10.00">tasks/Task.hpp</text>
</a>
</g>
</g>
<!-- Node5&#45;&gt;Node9 -->
<g id="edge9" class="edge">
<title>Node5&#45;&gt;Node9</title>
<path fill="none" stroke="#63b8ff" d="M261.45,-115.37C255.58,-106.99 246.48,-94.01 239.04,-83.39"/>
<polygon fill="#63b8ff" stroke="#63b8ff" points="242.05,-81.59 233.44,-75.41 236.32,-85.6 242.05,-81.59"/>
</g>
<!-- Node7&#45;&gt;Node4 -->
<g id="edge8" class="edge">
<title>Node7&#45;&gt;Node4</title>
<path fill="none" stroke="#63b8ff" d="M382.43,-54.51C344.43,-46.56 287.83,-34.27 230.46,-19.65"/>
<polygon fill="#63b8ff" stroke="#63b8ff" points="231.39,-16.27 220.83,-17.17 229.64,-23.05 231.39,-16.27"/>
</g>
<!-- Node8 -->
<g id="node8" class="node">
<title>Node8</title>
<g id="a_node8"><a xlink:title=" ">
<polygon fill="#e0e0e0" stroke="#999999" points="406.5,-19 360.5,-19 360.5,0 406.5,0 406.5,-19"/>
<text text-anchor="middle" x="383.5" y="-7" font-family="Helvetica,sans-Serif" font-size="10.00">chrono</text>
</a>
</g>
</g>
<!-- Node7&#45;&gt;Node8 -->
<g id="edge7" class="edge">
<title>Node7&#45;&gt;Node8</title>
<path fill="none" stroke="#63b8ff" d="M419.4,-54.75C413.58,-47.58 405.17,-37.2 397.94,-28.3"/>
<polygon fill="#63b8ff" stroke="#63b8ff" points="400.73,-26.18 391.71,-20.62 395.29,-30.59 400.73,-26.18"/>
</g>
<!-- Node9&#45;&gt;Node4 -->
<g id="edge12" class="edge">
<title>Node9&#45;&gt;Node4</title>
<path fill="none" stroke="#63b8ff" d="M221.88,-54.75C218.25,-47.88 213.07,-38.08 208.51,-29.45"/>
<polygon fill="#63b8ff" stroke="#63b8ff" points="211.7,-27.99 203.93,-20.78 205.51,-31.26 211.7,-27.99"/>
</g>
<!-- Node9&#45;&gt;Node8 -->
<g id="edge10" class="edge">
<title>Node9&#45;&gt;Node8</title>
<path fill="none" stroke="#63b8ff" d="M253.13,-54.51C279.62,-45.57 320.38,-31.81 349.26,-22.06"/>
<polygon fill="#63b8ff" stroke="#63b8ff" points="350.28,-25.41 358.64,-18.89 348.05,-18.77 350.28,-25.41"/>
</g>
<!-- Node10 -->
<g id="node10" class="node">
<title>Node10</title>
<g id="a_node10"><a xlink:title=" ">
<polygon fill="#e0e0e0" stroke="#999999" points="272,-19 237,-19 237,0 272,0 272,-19"/>
<text text-anchor="middle" x="254.5" y="-7" font-family="Helvetica,sans-Serif" font-size="10.00">map</text>
</a>
</g>
</g>
<!-- Node9&#45;&gt;Node10 -->
<g id="edge11" class="edge">
<title>Node9&#45;&gt;Node10</title>
<path fill="none" stroke="#63b8ff" d="M231.12,-54.75C234.75,-47.88 239.93,-38.08 244.49,-29.45"/>
<polygon fill="#63b8ff" stroke="#63b8ff" points="247.49,-31.26 249.07,-20.78 241.3,-27.99 247.49,-31.26"/>
</g>
<!-- Node13 -->
<g id="node13" class="node">
<title>Node13</title>
<g id="a_node13"><a xlink:title=" ">
<polygon fill="#e0e0e0" stroke="#999999" points="796.5,-74 750.5,-74 750.5,-55 796.5,-55 796.5,-74"/>
<text text-anchor="middle" x="773.5" y="-62" font-family="Helvetica,sans-Serif" font-size="10.00">cstdint</text>
</a>
</g>
</g>
<!-- Node12&#45;&gt;Node13 -->
<g id="edge15" class="edge">
<title>Node12&#45;&gt;Node13</title>
<path fill="none" stroke="#63b8ff" d="M773.5,-109.54C773.5,-102.34 773.5,-93.53 773.5,-85.68"/>
<polygon fill="#63b8ff" stroke="#63b8ff" points="777,-85.69 773.5,-75.69 770,-85.69 777,-85.69"/>
</g>
<!-- Node14&#45;&gt;Node7 -->
<g id="edge17" class="edge">
<title>Node14&#45;&gt;Node7</title>
<path fill="none" stroke="#63b8ff" d="M596.12,-115.12C561.91,-105.11 506.11,-88.79 467.92,-77.62"/>
<polygon fill="#63b8ff" stroke="#63b8ff" points="469.19,-74.34 458.61,-74.89 467.23,-81.06 469.19,-74.34"/>
</g>
<!-- Node15 -->
<g id="node15" class="node">
<title>Node15</title>
<g id="a_node15"><a xlink:title=" ">
<polygon fill="#e0e0e0" stroke="#999999" points="648.5,-74 604.5,-74 604.5,-55 648.5,-55 648.5,-74"/>
<text text-anchor="middle" x="626.5" y="-62" font-family="Helvetica,sans-Serif" font-size="10.00">vector</text>
</a>
</g>
</g>
<!-- Node14&#45;&gt;Node15 -->
<g id="edge18" class="edge">
<title>Node14&#45;&gt;Node15</title>
<path fill="none" stroke="#63b8ff" d="M626.5,-115.37C626.5,-107.5 626.5,-95.6 626.5,-85.39"/>
<polygon fill="#63b8ff" stroke="#63b8ff" points="630,-85.68 626.5,-75.68 623,-85.68 630,-85.68"/>
</g>
</g>
</svg>
