<?xml version="1.0" encoding="UTF-8" standalone="no"?>
<!DOCTYPE svg PUBLIC "-//W3C//DTD SVG 1.1//EN"
 "http://www.w3.org/Graphics/SVG/1.1/DTD/svg11.dtd">
<!-- Generated by graphviz version 7.0.5 (20221223.1930)
 -->
<!-- Title: lib/application_business_rules/serial_interface/Protocol.cpp Pages: 1 -->
<svg width="1191pt" height="225pt"
 viewBox="0.00 0.00 1191.26 225.00" xmlns="http://www.w3.org/2000/svg" xmlns:xlink="http://www.w3.org/1999/xlink">
<g id="graph0" class="graph" transform="scale(1 1) rotate(0) translate(4 221)">
<title>lib/application_business_rules/serial_interface/Protocol.cpp</title>
<!-- Node1 -->
<g id="node1" class="node">
<title>Node1</title>
<g id="a_node1"><a xlink:title=" ">
<polygon fill="#999999" stroke="#666666" points="758.76,-217 638.76,-217 638.76,-176 758.76,-176 758.76,-217"/>
<text text-anchor="start" x="646.76" y="-205" font-family="Helvetica,sans-Serif" font-size="10.00">lib/application_business</text>
<text text-anchor="start" x="646.76" y="-194" font-family="Helvetica,sans-Serif" font-size="10.00">_rules/serial_interface</text>
<text text-anchor="middle" x="698.76" y="-183" font-family="Helvetica,sans-Serif" font-size="10.00">/Protocol.cpp</text>
</a>
</g>
</g>
<!-- Node2 -->
<g id="node2" class="node">
<title>Node2</title>
<g id="a_node2"><a xlink:href="Protocol_8hpp.xhtml" target="_top" xlink:title=" ">
<polygon fill="white" stroke="#666666" points="133.26,-134.5 62.26,-134.5 62.26,-115.5 133.26,-115.5 133.26,-134.5"/>
<text text-anchor="middle" x="97.76" y="-122.5" font-family="Helvetica,sans-Serif" font-size="10.00">Protocol.hpp</text>
</a>
</g>
</g>
<!-- Node1&#45;&gt;Node2 -->
<g id="edge1" class="edge">
<title>Node1&#45;&gt;Node2</title>
<path fill="none" stroke="#63b8ff" d="M638.51,-193.47C535.83,-189.13 320.76,-176.19 142.76,-140 139.95,-139.43 137.07,-138.75 134.19,-138.01"/>
<polygon fill="#63b8ff" stroke="#63b8ff" points="135.26,-134.68 124.68,-135.32 133.35,-141.41 135.26,-134.68"/>
</g>
<!-- Node3 -->
<g id="node3" class="node">
<title>Node3</title>
<g id="a_node3"><a xlink:href="command__line__interpreter_8hpp.xhtml" target="_top" xlink:title=" ">
<polygon fill="white" stroke="#666666" points="297.76,-134.5 151.76,-134.5 151.76,-115.5 297.76,-115.5 297.76,-134.5"/>
<text text-anchor="middle" x="224.76" y="-122.5" font-family="Helvetica,sans-Serif" font-size="10.00">command_line_interpreter.hpp</text>
</a>
</g>
</g>
<!-- Node1&#45;&gt;Node3 -->
<g id="edge2" class="edge">
<title>Node1&#45;&gt;Node3</title>
<path fill="none" stroke="#63b8ff" d="M638.72,-186.7C551.68,-173.93 390.63,-150.32 297.14,-136.61"/>
<polygon fill="#63b8ff" stroke="#63b8ff" points="297.7,-133.16 287.3,-135.17 296.68,-140.08 297.7,-133.16"/>
</g>
<!-- Node11 -->
<g id="node11" class="node">
<title>Node11</title>
<g id="a_node11"><a xlink:title=" ">
<polygon fill="#e0e0e0" stroke="#999999" points="848.26,-19 807.26,-19 807.26,0 848.26,0 848.26,-19"/>
<text text-anchor="middle" x="827.76" y="-7" font-family="Helvetica,sans-Serif" font-size="10.00">string</text>
</a>
</g>
</g>
<!-- Node1&#45;&gt;Node11 -->
<g id="edge33" class="edge">
<title>Node1&#45;&gt;Node11</title>
<path fill="none" stroke="#63b8ff" d="M759.08,-190.63C825.32,-183.88 925.42,-169.09 948.76,-140 958.3,-128.11 950.9,-65.6 942.76,-55 922.99,-29.27 886.32,-18.41 859.69,-13.83"/>
<polygon fill="#63b8ff" stroke="#63b8ff" points="860.51,-10.41 850.11,-12.4 859.48,-17.34 860.51,-10.41"/>
</g>
<!-- Node15 -->
<g id="node15" class="node">
<title>Node15</title>
<g id="a_node15"><a xlink:href="serial__port_8hpp.xhtml" target="_top" xlink:title=" ">
<polygon fill="white" stroke="#666666" points="456.76,-134.5 376.76,-134.5 376.76,-115.5 456.76,-115.5 456.76,-134.5"/>
<text text-anchor="middle" x="416.76" y="-122.5" font-family="Helvetica,sans-Serif" font-size="10.00">serial_port.hpp</text>
</a>
</g>
</g>
<!-- Node1&#45;&gt;Node15 -->
<g id="edge15" class="edge">
<title>Node1&#45;&gt;Node15</title>
<path fill="none" stroke="#63b8ff" d="M638.69,-181.14C592.68,-170.07 527.65,-154.3 470.76,-140 467.86,-139.27 464.88,-138.52 461.88,-137.75"/>
<polygon fill="#63b8ff" stroke="#63b8ff" points="463.04,-134.44 452.48,-135.34 461.3,-141.22 463.04,-134.44"/>
</g>
<!-- Node16 -->
<g id="node16" class="node">
<title>Node16</title>
<g id="a_node16"><a xlink:title=" ">
<polygon fill="#e0e0e0" stroke="#999999" points="670.76,-74 632.76,-74 632.76,-55 670.76,-55 670.76,-74"/>
<text text-anchor="middle" x="651.76" y="-62" font-family="Helvetica,sans-Serif" font-size="10.00">array</text>
</a>
</g>
</g>
<!-- Node1&#45;&gt;Node16 -->
<g id="edge21" class="edge">
<title>Node1&#45;&gt;Node16</title>
<path fill="none" stroke="#63b8ff" d="M638.33,-186.39C587.34,-177.32 520.09,-161.63 503.76,-140 495.72,-129.36 495.8,-120.7 503.76,-110 507.36,-105.15 579.12,-85.11 621.37,-73.64"/>
<polygon fill="#63b8ff" stroke="#63b8ff" points="622.22,-77.04 630.96,-71.05 620.4,-70.28 622.22,-77.04"/>
</g>
<!-- Node19 -->
<g id="node19" class="node">
<title>Node19</title>
<g id="a_node19"><a xlink:href="JsonGenerator_8hpp.xhtml" target="_top" xlink:title=" ">
<polygon fill="white" stroke="#666666" points="610.76,-134.5 512.76,-134.5 512.76,-115.5 610.76,-115.5 610.76,-134.5"/>
<text text-anchor="middle" x="561.76" y="-122.5" font-family="Helvetica,sans-Serif" font-size="10.00">JsonGenerator.hpp</text>
</a>
</g>
</g>
<!-- Node1&#45;&gt;Node19 -->
<g id="edge22" class="edge">
<title>Node1&#45;&gt;Node19</title>
<path fill="none" stroke="#63b8ff" d="M659.5,-175.58C637.11,-164.23 609.6,-150.27 589.47,-140.06"/>
<polygon fill="#63b8ff" stroke="#63b8ff" points="591.26,-137.04 580.76,-135.64 588.09,-143.28 591.26,-137.04"/>
</g>
<!-- Node20 -->
<g id="node20" class="node">
<title>Node20</title>
<g id="a_node20"><a xlink:href="DeletedTaskObject_8hpp.xhtml" target="_top" xlink:title=" ">
<polygon fill="white" stroke="#666666" points="923.26,-140 786.26,-140 786.26,-110 923.26,-110 923.26,-140"/>
<text text-anchor="start" x="794.26" y="-128" font-family="Helvetica,sans-Serif" font-size="10.00">serial_protocol/DeletedTask</text>
<text text-anchor="middle" x="854.76" y="-117" font-family="Helvetica,sans-Serif" font-size="10.00">Object.hpp</text>
</a>
</g>
</g>
<!-- Node1&#45;&gt;Node20 -->
<g id="edge24" class="edge">
<title>Node1&#45;&gt;Node20</title>
<path fill="none" stroke="#63b8ff" d="M743.46,-175.58C765.03,-165.98 790.77,-154.51 812.07,-145.02"/>
<polygon fill="#63b8ff" stroke="#63b8ff" points="813.35,-148.28 821.06,-141.01 810.5,-141.89 813.35,-148.28"/>
</g>
<!-- Node21 -->
<g id="node21" class="node">
<title>Node21</title>
<g id="a_node21"><a xlink:href="ProtocolVersionObject_8hpp.xhtml" target="_top" xlink:title=" ">
<polygon fill="white" stroke="#666666" points="1137.26,-140 1018.26,-140 1018.26,-110 1137.26,-110 1137.26,-140"/>
<text text-anchor="start" x="1026.26" y="-128" font-family="Helvetica,sans-Serif" font-size="10.00">serial_protocol/Protocol</text>
<text text-anchor="middle" x="1077.76" y="-117" font-family="Helvetica,sans-Serif" font-size="10.00">VersionObject.hpp</text>
</a>
</g>
</g>
<!-- Node1&#45;&gt;Node21 -->
<g id="edge25" class="edge">
<title>Node1&#45;&gt;Node21</title>
<path fill="none" stroke="#63b8ff" d="M759.25,-184.62C820.81,-173.52 918.96,-155.74 1003.76,-140 1004.77,-139.81 1005.79,-139.62 1006.82,-139.43"/>
<polygon fill="#63b8ff" stroke="#63b8ff" points="1007.31,-142.9 1016.5,-137.62 1006.03,-136.02 1007.31,-142.9"/>
</g>
<!-- Node23 -->
<g id="node23" class="node">
<title>Node23</title>
<g id="a_node23"><a xlink:href="TaskList_8hpp.xhtml" target="_top" xlink:title=" ">
<polygon fill="white" stroke="#666666" points="768.26,-134.5 629.26,-134.5 629.26,-115.5 768.26,-115.5 768.26,-134.5"/>
<text text-anchor="middle" x="698.76" y="-122.5" font-family="Helvetica,sans-Serif" font-size="10.00">serial_protocol/TaskList.hpp</text>
</a>
</g>
</g>
<!-- Node1&#45;&gt;Node23 -->
<g id="edge27" class="edge">
<title>Node1&#45;&gt;Node23</title>
<path fill="none" stroke="#63b8ff" d="M698.76,-175.77C698.76,-166.5 698.76,-155.46 698.76,-146.14"/>
<polygon fill="#63b8ff" stroke="#63b8ff" points="702.26,-146.33 698.76,-136.33 695.26,-146.33 702.26,-146.33"/>
</g>
<!-- Node24 -->
<g id="node24" class="node">
<title>Node24</title>
<g id="a_node24"><a xlink:href="TaskObject_8hpp.xhtml" target="_top" xlink:title=" ">
<polygon fill="white" stroke="#666666" points="933.26,-74 848.26,-74 848.26,-55 933.26,-55 933.26,-74"/>
<text text-anchor="middle" x="890.76" y="-62" font-family="Helvetica,sans-Serif" font-size="10.00">TaskObject.hpp</text>
</a>
</g>
</g>
<!-- Node1&#45;&gt;Node24 -->
<g id="edge32" class="edge">
<title>Node1&#45;&gt;Node24</title>
<path fill="none" stroke="#63b8ff" d="M759.19,-189.59C821.19,-182.13 911.49,-166.9 932.76,-140 947.34,-121.55 927.8,-97.41 910.78,-81.69"/>
<polygon fill="#63b8ff" stroke="#63b8ff" points="913.28,-79.23 903.44,-75.3 908.69,-84.51 913.28,-79.23"/>
</g>
<!-- Node26 -->
<g id="node26" class="node">
<title>Node26</title>
<g id="a_node26"><a xlink:href="Task_8hpp.xhtml" target="_top" xlink:title=" ">
<polygon fill="white" stroke="#666666" points="1183.26,-74 1100.26,-74 1100.26,-55 1183.26,-55 1183.26,-74"/>
<text text-anchor="middle" x="1141.76" y="-62" font-family="Helvetica,sans-Serif" font-size="10.00">tasks/Task.hpp</text>
</a>
</g>
</g>
<!-- Node1&#45;&gt;Node26 -->
<g id="edge34" class="edge">
<title>Node1&#45;&gt;Node26</title>
<path fill="none" stroke="#63b8ff" d="M759.08,-192.4C875.4,-185.8 1121.49,-168.59 1146.76,-140 1159.88,-125.15 1155.55,-101.46 1149.92,-84.79"/>
<polygon fill="#63b8ff" stroke="#63b8ff" points="1153.22,-83.62 1146.38,-75.54 1146.69,-86.13 1153.22,-83.62"/>
</g>
<!-- Node4 -->
<g id="node4" class="node">
<title>Node4</title>
<g id="a_node4"><a xlink:title=" ">
<polygon fill="#e0e0e0" stroke="#999999" points="438.26,-74 379.26,-74 379.26,-55 438.26,-55 438.26,-74"/>
<text text-anchor="middle" x="408.76" y="-62" font-family="Helvetica,sans-Serif" font-size="10.00">functional</text>
</a>
</g>
</g>
<!-- Node3&#45;&gt;Node4 -->
<g id="edge3" class="edge">
<title>Node3&#45;&gt;Node4</title>
<path fill="none" stroke="#63b8ff" d="M252.7,-115.12C283.91,-105.19 334.64,-89.07 369.74,-77.9"/>
<polygon fill="#63b8ff" stroke="#63b8ff" points="370.64,-81.29 379.11,-74.93 368.52,-74.62 370.64,-81.29"/>
</g>
<!-- Node5 -->
<g id="node5" class="node">
<title>Node5</title>
<g id="a_node5"><a xlink:title=" ">
<polygon fill="#e0e0e0" stroke="#999999" points="182.76,-74 128.76,-74 128.76,-55 182.76,-55 182.76,-74"/>
<text text-anchor="middle" x="155.76" y="-62" font-family="Helvetica,sans-Serif" font-size="10.00">iostream</text>
</a>
</g>
</g>
<!-- Node3&#45;&gt;Node5 -->
<g id="edge4" class="edge">
<title>Node3&#45;&gt;Node5</title>
<path fill="none" stroke="#63b8ff" d="M214.28,-115.12C203.84,-106.27 187.58,-92.48 174.85,-81.69"/>
<polygon fill="#63b8ff" stroke="#63b8ff" points="177.38,-79.24 167.49,-75.45 172.85,-84.58 177.38,-79.24"/>
</g>
<!-- Node6 -->
<g id="node6" class="node">
<title>Node6</title>
<g id="a_node6"><a xlink:title=" ">
<polygon fill="#e0e0e0" stroke="#999999" points="248.26,-74 201.26,-74 201.26,-55 248.26,-55 248.26,-74"/>
<text text-anchor="middle" x="224.76" y="-62" font-family="Helvetica,sans-Serif" font-size="10.00">iterator</text>
</a>
</g>
</g>
<!-- Node3&#45;&gt;Node6 -->
<g id="edge5" class="edge">
<title>Node3&#45;&gt;Node6</title>
<path fill="none" stroke="#63b8ff" d="M224.76,-115.37C224.76,-107.5 224.76,-95.6 224.76,-85.39"/>
<polygon fill="#63b8ff" stroke="#63b8ff" points="228.26,-85.68 224.76,-75.68 221.26,-85.68 228.26,-85.68"/>
</g>
<!-- Node7 -->
<g id="node7" class="node">
<title>Node7</title>
<g id="a_node7"><a xlink:title=" ">
<polygon fill="#e0e0e0" stroke="#999999" points="143.26,-19 84.26,-19 84.26,0 143.26,0 143.26,-19"/>
<text text-anchor="middle" x="113.76" y="-7" font-family="Helvetica,sans-Serif" font-size="10.00">stdexcept</text>
</a>
</g>
</g>
<!-- Node3&#45;&gt;Node7 -->
<g id="edge6" class="edge">
<title>Node3&#45;&gt;Node7</title>
<path fill="none" stroke="#63b8ff" d="M178.71,-115C116.1,-102.55 11.2,-80.82 5.76,-74 -16.4,-46.22 33.71,-28.03 72.87,-18.51"/>
<polygon fill="#63b8ff" stroke="#63b8ff" points="73.63,-21.93 82.59,-16.28 72.06,-15.11 73.63,-21.93"/>
</g>
<!-- Node8 -->
<g id="node8" class="node">
<title>Node8</title>
<g id="a_node8"><a xlink:href="string__helpers_8hpp.xhtml" target="_top" xlink:title=" ">
<polygon fill="white" stroke="#666666" points="361.26,-74 266.26,-74 266.26,-55 361.26,-55 361.26,-74"/>
<text text-anchor="middle" x="313.76" y="-62" font-family="Helvetica,sans-Serif" font-size="10.00">string_helpers.hpp</text>
</a>
</g>
</g>
<!-- Node3&#45;&gt;Node8 -->
<g id="edge7" class="edge">
<title>Node3&#45;&gt;Node8</title>
<path fill="none" stroke="#63b8ff" d="M238.27,-115.12C252.13,-106.01 273.93,-91.68 290.55,-80.75"/>
<polygon fill="#63b8ff" stroke="#63b8ff" points="292.41,-83.72 298.85,-75.3 288.57,-77.87 292.41,-83.72"/>
</g>
<!-- Node13 -->
<g id="node13" class="node">
<title>Node13</title>
<g id="a_node13"><a xlink:title=" ">
<polygon fill="#e0e0e0" stroke="#999999" points="52.76,-74 14.76,-74 14.76,-55 52.76,-55 52.76,-74"/>
<text text-anchor="middle" x="33.76" y="-62" font-family="Helvetica,sans-Serif" font-size="10.00">tuple</text>
</a>
</g>
</g>
<!-- Node3&#45;&gt;Node13 -->
<g id="edge13" class="edge">
<title>Node3&#45;&gt;Node13</title>
<path fill="none" stroke="#63b8ff" d="M195.75,-115.12C160.15,-104.21 100.09,-85.82 63.96,-74.75"/>
<polygon fill="#63b8ff" stroke="#63b8ff" points="65.16,-71.46 54.58,-71.88 63.11,-78.15 65.16,-71.46"/>
</g>
<!-- Node14 -->
<g id="node14" class="node">
<title>Node14</title>
<g id="a_node14"><a xlink:title=" ">
<polygon fill="#e0e0e0" stroke="#999999" points="110.26,-74 71.26,-74 71.26,-55 110.26,-55 110.26,-74"/>
<text text-anchor="middle" x="90.76" y="-62" font-family="Helvetica,sans-Serif" font-size="10.00">utility</text>
</a>
</g>
</g>
<!-- Node3&#45;&gt;Node14 -->
<g id="edge14" class="edge">
<title>Node3&#45;&gt;Node14</title>
<path fill="none" stroke="#63b8ff" d="M204.41,-115.12C182.11,-105.38 146.14,-89.68 120.64,-78.55"/>
<polygon fill="#63b8ff" stroke="#63b8ff" points="122.38,-75.49 111.81,-74.69 119.58,-81.9 122.38,-75.49"/>
</g>
<!-- Node8&#45;&gt;Node7 -->
<g id="edge10" class="edge">
<title>Node8&#45;&gt;Node7</title>
<path fill="none" stroke="#63b8ff" d="M279.83,-54.51C245.19,-45.33 191.4,-31.07 154.48,-21.29"/>
<polygon fill="#63b8ff" stroke="#63b8ff" points="155.63,-17.97 145.06,-18.8 153.83,-24.74 155.63,-17.97"/>
</g>
<!-- Node9 -->
<g id="node9" class="node">
<title>Node9</title>
<g id="a_node9"><a xlink:title=" ">
<polygon fill="#e0e0e0" stroke="#999999" points="303.76,-19 253.76,-19 253.76,0 303.76,0 303.76,-19"/>
<text text-anchor="middle" x="278.76" y="-7" font-family="Helvetica,sans-Serif" font-size="10.00">iomanip</text>
</a>
</g>
</g>
<!-- Node8&#45;&gt;Node9 -->
<g id="edge8" class="edge">
<title>Node8&#45;&gt;Node9</title>
<path fill="none" stroke="#63b8ff" d="M307.98,-54.75C303.34,-47.73 296.68,-37.64 290.89,-28.87"/>
<polygon fill="#63b8ff" stroke="#63b8ff" points="293.93,-27.12 285.5,-20.71 288.09,-30.98 293.93,-27.12"/>
</g>
<!-- Node10 -->
<g id="node10" class="node">
<title>Node10</title>
<g id="a_node10"><a xlink:title=" ">
<polygon fill="#e0e0e0" stroke="#999999" points="373.76,-19 321.76,-19 321.76,0 373.76,0 373.76,-19"/>
<text text-anchor="middle" x="347.76" y="-7" font-family="Helvetica,sans-Serif" font-size="10.00">sstream</text>
</a>
</g>
</g>
<!-- Node8&#45;&gt;Node10 -->
<g id="edge9" class="edge">
<title>Node8&#45;&gt;Node10</title>
<path fill="none" stroke="#63b8ff" d="M319.37,-54.75C323.87,-47.73 330.34,-37.64 335.97,-28.87"/>
<polygon fill="#63b8ff" stroke="#63b8ff" points="338.75,-31.02 341.2,-20.72 332.86,-27.24 338.75,-31.02"/>
</g>
<!-- Node8&#45;&gt;Node11 -->
<g id="edge11" class="edge">
<title>Node8&#45;&gt;Node11</title>
<path fill="none" stroke="#63b8ff" d="M361.69,-56.05C364.42,-55.68 367.12,-55.33 369.76,-55 529.34,-35.15 721.13,-19 795.81,-13.01"/>
<polygon fill="#63b8ff" stroke="#63b8ff" points="795.97,-16.51 805.66,-12.22 795.42,-9.53 795.97,-16.51"/>
</g>
<!-- Node12 -->
<g id="node12" class="node">
<title>Node12</title>
<g id="a_node12"><a xlink:title=" ">
<polygon fill="#e0e0e0" stroke="#999999" points="561.76,-19 517.76,-19 517.76,0 561.76,0 561.76,-19"/>
<text text-anchor="middle" x="539.76" y="-7" font-family="Helvetica,sans-Serif" font-size="10.00">vector</text>
</a>
</g>
</g>
<!-- Node8&#45;&gt;Node12 -->
<g id="edge12" class="edge">
<title>Node8&#45;&gt;Node12</title>
<path fill="none" stroke="#63b8ff" d="M352.09,-54.51C395.4,-44.35 465.18,-27.99 506.35,-18.34"/>
<polygon fill="#63b8ff" stroke="#63b8ff" points="506.99,-21.78 515.93,-16.09 505.39,-14.96 506.99,-21.78"/>
</g>
<!-- Node15&#45;&gt;Node4 -->
<g id="edge17" class="edge">
<title>Node15&#45;&gt;Node4</title>
<path fill="none" stroke="#63b8ff" d="M415.58,-115.37C414.5,-107.5 412.87,-95.6 411.48,-85.39"/>
<polygon fill="#63b8ff" stroke="#63b8ff" points="414.97,-85.1 410.15,-75.67 408.03,-86.05 414.97,-85.1"/>
</g>
<!-- Node15&#45;&gt;Node11 -->
<g id="edge20" class="edge">
<title>Node15&#45;&gt;Node11</title>
<path fill="none" stroke="#63b8ff" d="M453.98,-115C488.65,-106.15 541.5,-91.46 585.76,-74 603.32,-67.07 605.95,-61.28 623.76,-55 682.74,-34.19 754.9,-21.21 795.67,-14.97"/>
<polygon fill="#63b8ff" stroke="#63b8ff" points="796.15,-18.43 805.52,-13.5 795.12,-11.51 796.15,-18.43"/>
</g>
<!-- Node15&#45;&gt;Node16 -->
<g id="edge16" class="edge">
<title>Node15&#45;&gt;Node16</title>
<path fill="none" stroke="#63b8ff" d="M451.02,-115.03C457.57,-113.34 464.37,-111.6 470.76,-110 536.41,-93.5 553.09,-90.44 618.76,-74 619.74,-73.75 620.73,-73.5 621.74,-73.25"/>
<polygon fill="#63b8ff" stroke="#63b8ff" points="622.28,-76.72 631.11,-70.86 620.55,-69.94 622.28,-76.72"/>
</g>
<!-- Node17 -->
<g id="node17" class="node">
<title>Node17</title>
<g id="a_node17"><a xlink:title=" ">
<polygon fill="#e0e0e0" stroke="#999999" points="576.76,-74 526.76,-74 526.76,-55 576.76,-55 576.76,-74"/>
<text text-anchor="middle" x="551.76" y="-62" font-family="Helvetica,sans-Serif" font-size="10.00">optional</text>
</a>
</g>
</g>
<!-- Node15&#45;&gt;Node17 -->
<g id="edge18" class="edge">
<title>Node15&#45;&gt;Node17</title>
<path fill="none" stroke="#63b8ff" d="M437.26,-115.12C459.46,-105.49 495.13,-90.04 520.76,-78.93"/>
<polygon fill="#63b8ff" stroke="#63b8ff" points="521.89,-82.26 529.67,-75.07 519.1,-75.83 521.89,-82.26"/>
</g>
<!-- Node18 -->
<g id="node18" class="node">
<title>Node18</title>
<g id="a_node18"><a xlink:title=" ">
<polygon fill="#e0e0e0" stroke="#999999" points="508.76,-74 456.76,-74 456.76,-55 508.76,-55 508.76,-74"/>
<text text-anchor="middle" x="482.76" y="-62" font-family="Helvetica,sans-Serif" font-size="10.00">ostream</text>
</a>
</g>
</g>
<!-- Node15&#45;&gt;Node18 -->
<g id="edge19" class="edge">
<title>Node15&#45;&gt;Node18</title>
<path fill="none" stroke="#63b8ff" d="M426.78,-115.12C436.67,-106.35 452.01,-92.75 464.14,-82"/>
<polygon fill="#63b8ff" stroke="#63b8ff" points="466.34,-84.72 471.51,-75.47 461.7,-79.49 466.34,-84.72"/>
</g>
<!-- Node19&#45;&gt;Node11 -->
<g id="edge23" class="edge">
<title>Node19&#45;&gt;Node11</title>
<path fill="none" stroke="#63b8ff" d="M582.66,-115.18C606.25,-105.21 645.78,-88.49 679.76,-74 720.3,-56.71 767.03,-36.64 796.96,-23.76"/>
<polygon fill="#63b8ff" stroke="#63b8ff" points="797.99,-27.13 805.79,-19.96 795.22,-20.7 797.99,-27.13"/>
</g>
<!-- Node22 -->
<g id="node22" class="node">
<title>Node22</title>
<g id="a_node22"><a xlink:title=" ">
<polygon fill="#e0e0e0" stroke="#999999" points="1081.76,-74 1035.76,-74 1035.76,-55 1081.76,-55 1081.76,-74"/>
<text text-anchor="middle" x="1058.76" y="-62" font-family="Helvetica,sans-Serif" font-size="10.00">cstdint</text>
</a>
</g>
</g>
<!-- Node21&#45;&gt;Node22 -->
<g id="edge26" class="edge">
<title>Node21&#45;&gt;Node22</title>
<path fill="none" stroke="#63b8ff" d="M1073.06,-109.54C1070.67,-102.17 1067.72,-93.1 1065.13,-85.11"/>
<polygon fill="#63b8ff" stroke="#63b8ff" points="1068.46,-84.04 1062.04,-75.61 1061.8,-86.21 1068.46,-84.04"/>
</g>
<!-- Node23&#45;&gt;Node12 -->
<g id="edge31" class="edge">
<title>Node23&#45;&gt;Node12</title>
<path fill="none" stroke="#63b8ff" d="M698.87,-115.08C698.55,-100.53 695.78,-71.66 679.76,-55 651.85,-25.99 605.14,-15.83 573.42,-12.31"/>
<polygon fill="#63b8ff" stroke="#63b8ff" points="573.85,-8.84 563.57,-11.4 573.21,-15.81 573.85,-8.84"/>
</g>
<!-- Node23&#45;&gt;Node24 -->
<g id="edge28" class="edge">
<title>Node23&#45;&gt;Node24</title>
<path fill="none" stroke="#63b8ff" d="M727.92,-115.12C760.62,-105.15 813.87,-88.93 850.52,-77.76"/>
<polygon fill="#63b8ff" stroke="#63b8ff" points="851.33,-81.17 859.87,-74.91 849.29,-74.48 851.33,-81.17"/>
</g>
<!-- Node24&#45;&gt;Node11 -->
<g id="edge30" class="edge">
<title>Node24&#45;&gt;Node11</title>
<path fill="none" stroke="#63b8ff" d="M880.07,-54.51C871.06,-46.93 857.92,-35.88 847.07,-26.75"/>
<polygon fill="#63b8ff" stroke="#63b8ff" points="849.35,-24.09 839.44,-20.33 844.84,-29.45 849.35,-24.09"/>
</g>
<!-- Node25 -->
<g id="node25" class="node">
<title>Node25</title>
<g id="a_node25"><a xlink:title=" ">
<polygon fill="#e0e0e0" stroke="#999999" points="1009.76,-19 963.76,-19 963.76,0 1009.76,0 1009.76,-19"/>
<text text-anchor="middle" x="986.76" y="-7" font-family="Helvetica,sans-Serif" font-size="10.00">chrono</text>
</a>
</g>
</g>
<!-- Node24&#45;&gt;Node25 -->
<g id="edge29" class="edge">
<title>Node24&#45;&gt;Node25</title>
<path fill="none" stroke="#63b8ff" d="M907.04,-54.51C921.75,-46.39 943.65,-34.3 960.77,-24.85"/>
<polygon fill="#63b8ff" stroke="#63b8ff" points="962.32,-27.99 969.39,-20.09 958.94,-21.86 962.32,-27.99"/>
</g>
<!-- Node26&#45;&gt;Node11 -->
<g id="edge37" class="edge">
<title>Node26&#45;&gt;Node11</title>
<path fill="none" stroke="#63b8ff" d="M1100.06,-56.46C1036.52,-45.74 916.81,-25.53 859.67,-15.89"/>
<polygon fill="#63b8ff" stroke="#63b8ff" points="860.41,-12.46 849.97,-14.25 859.24,-19.36 860.41,-12.46"/>
</g>
<!-- Node26&#45;&gt;Node25 -->
<g id="edge35" class="edge">
<title>Node26&#45;&gt;Node25</title>
<path fill="none" stroke="#63b8ff" d="M1115.46,-54.51C1089.39,-45.59 1049.31,-31.89 1020.81,-22.14"/>
<polygon fill="#63b8ff" stroke="#63b8ff" points="1022.16,-18.91 1011.56,-18.98 1019.89,-25.53 1022.16,-18.91"/>
</g>
<!-- Node27 -->
<g id="node27" class="node">
<title>Node27</title>
<g id="a_node27"><a xlink:title=" ">
<polygon fill="#e0e0e0" stroke="#999999" points="1159.26,-19 1124.26,-19 1124.26,0 1159.26,0 1159.26,-19"/>
<text text-anchor="middle" x="1141.76" y="-7" font-family="Helvetica,sans-Serif" font-size="10.00">map</text>
</a>
</g>
</g>
<!-- Node26&#45;&gt;Node27 -->
<g id="edge36" class="edge">
<title>Node26&#45;&gt;Node27</title>
<path fill="none" stroke="#63b8ff" d="M1141.76,-54.75C1141.76,-48.27 1141.76,-39.16 1141.76,-30.9"/>
<polygon fill="#63b8ff" stroke="#63b8ff" points="1145.26,-30.96 1141.76,-20.96 1138.26,-30.96 1145.26,-30.96"/>
</g>
</g>
</svg>
