<?xml version="1.0" encoding="UTF-8" standalone="no"?>
<!DOCTYPE svg PUBLIC "-//W3C//DTD SVG 1.1//EN"
 "http://www.w3.org/Graphics/SVG/1.1/DTD/svg11.dtd">
<!-- Generated by graphviz version 7.0.5 (20221223.1930)
 -->
<!-- Title: lib/application_business_rules/serial_interface/Protocol.cpp Pages: 1 -->
<svg width="1080pt" height="225pt"
 viewBox="0.00 0.00 1080.26 225.00" xmlns="http://www.w3.org/2000/svg" xmlns:xlink="http://www.w3.org/1999/xlink">
<g id="graph0" class="graph" transform="scale(1 1) rotate(0) translate(4 221)">
<title>lib/application_business_rules/serial_interface/Protocol.cpp</title>
<!-- Node1 -->
<g id="node1" class="node">
<title>Node1</title>
<g id="a_node1"><a xlink:title=" ">
<polygon fill="#999999" stroke="#666666" points="733.76,-217 613.76,-217 613.76,-176 733.76,-176 733.76,-217"/>
<text text-anchor="start" x="621.76" y="-205" font-family="Helvetica,sans-Serif" font-size="10.00">lib/application_business</text>
<text text-anchor="start" x="621.76" y="-194" font-family="Helvetica,sans-Serif" font-size="10.00">_rules/serial_interface</text>
<text text-anchor="middle" x="673.76" y="-183" font-family="Helvetica,sans-Serif" font-size="10.00">/Protocol.cpp</text>
</a>
</g>
</g>
<!-- Node2 -->
<g id="node2" class="node">
<title>Node2</title>
<g id="a_node2"><a xlink:href="Protocol_8hpp.xhtml" target="_top" xlink:title=" ">
<polygon fill="white" stroke="#666666" points="133.26,-134.5 62.26,-134.5 62.26,-115.5 133.26,-115.5 133.26,-134.5"/>
<text text-anchor="middle" x="97.76" y="-122.5" font-family="Helvetica,sans-Serif" font-size="10.00">Protocol.hpp</text>
</a>
</g>
</g>
<!-- Node1&#45;&gt;Node2 -->
<g id="edge1" class="edge">
<title>Node1&#45;&gt;Node2</title>
<path fill="none" stroke="#63b8ff" d="M613.44,-193.07C514.32,-188.22 311.17,-174.64 142.76,-140 139.95,-139.42 137.07,-138.74 134.19,-138"/>
<polygon fill="#63b8ff" stroke="#63b8ff" points="135.26,-134.66 124.68,-135.3 133.35,-141.4 135.26,-134.66"/>
</g>
<!-- Node3 -->
<g id="node3" class="node">
<title>Node3</title>
<g id="a_node3"><a xlink:href="command__line__interpreter_8hpp.xhtml" target="_top" xlink:title=" ">
<polygon fill="white" stroke="#666666" points="297.76,-134.5 151.76,-134.5 151.76,-115.5 297.76,-115.5 297.76,-134.5"/>
<text text-anchor="middle" x="224.76" y="-122.5" font-family="Helvetica,sans-Serif" font-size="10.00">command_line_interpreter.hpp</text>
</a>
</g>
</g>
<!-- Node1&#45;&gt;Node3 -->
<g id="edge2" class="edge">
<title>Node1&#45;&gt;Node3</title>
<path fill="none" stroke="#63b8ff" d="M613.67,-186.2C530.68,-173.35 381.35,-150.24 293.85,-136.69"/>
<polygon fill="#63b8ff" stroke="#63b8ff" points="294.63,-133.27 284.21,-135.2 293.55,-140.19 294.63,-133.27"/>
</g>
<!-- Node11 -->
<g id="node11" class="node">
<title>Node11</title>
<g id="a_node11"><a xlink:title=" ">
<polygon fill="#e0e0e0" stroke="#999999" points="773.26,-19 732.26,-19 732.26,0 773.26,0 773.26,-19"/>
<text text-anchor="middle" x="752.76" y="-7" font-family="Helvetica,sans-Serif" font-size="10.00">string</text>
</a>
</g>
</g>
<!-- Node1&#45;&gt;Node11 -->
<g id="edge32" class="edge">
<title>Node1&#45;&gt;Node11</title>
<path fill="none" stroke="#63b8ff" d="M734.2,-188.45C768.65,-181.47 810.3,-167.59 837.76,-140 865.29,-112.34 881.41,-87.46 859.76,-55 843.18,-30.15 809.83,-19.16 784.75,-14.3"/>
<polygon fill="#63b8ff" stroke="#63b8ff" points="785.49,-10.88 775.05,-12.68 784.33,-17.78 785.49,-10.88"/>
</g>
<!-- Node15 -->
<g id="node15" class="node">
<title>Node15</title>
<g id="a_node15"><a xlink:href="serial__port_8hpp.xhtml" target="_top" xlink:title=" ">
<polygon fill="white" stroke="#666666" points="500.76,-134.5 420.76,-134.5 420.76,-115.5 500.76,-115.5 500.76,-134.5"/>
<text text-anchor="middle" x="460.76" y="-122.5" font-family="Helvetica,sans-Serif" font-size="10.00">serial_port.hpp</text>
</a>
</g>
</g>
<!-- Node1&#45;&gt;Node15 -->
<g id="edge15" class="edge">
<title>Node1&#45;&gt;Node15</title>
<path fill="none" stroke="#63b8ff" d="M613.29,-175.77C576.43,-163.74 530.47,-148.75 498.68,-138.37"/>
<polygon fill="#63b8ff" stroke="#63b8ff" points="500.1,-135.16 489.51,-135.38 497.93,-141.81 500.1,-135.16"/>
</g>
<!-- Node16 -->
<g id="node16" class="node">
<title>Node16</title>
<g id="a_node16"><a xlink:title=" ">
<polygon fill="#e0e0e0" stroke="#999999" points="670.76,-74 632.76,-74 632.76,-55 670.76,-55 670.76,-74"/>
<text text-anchor="middle" x="651.76" y="-62" font-family="Helvetica,sans-Serif" font-size="10.00">array</text>
</a>
</g>
</g>
<!-- Node1&#45;&gt;Node16 -->
<g id="edge21" class="edge">
<title>Node1&#45;&gt;Node16</title>
<path fill="none" stroke="#63b8ff" d="M613.55,-184.07C588.79,-176.09 562.51,-162.62 547.76,-140 540.47,-128.83 540.41,-121.13 547.76,-110 556.31,-97.03 594.01,-83.1 621.57,-74.34"/>
<polygon fill="#63b8ff" stroke="#63b8ff" points="622.31,-77.78 630.83,-71.48 620.24,-71.09 622.31,-77.78"/>
</g>
<!-- Node19 -->
<g id="node19" class="node">
<title>Node19</title>
<g id="a_node19"><a xlink:href="JsonGenerator_8hpp.xhtml" target="_top" xlink:title=" ">
<polygon fill="white" stroke="#666666" points="654.76,-134.5 556.76,-134.5 556.76,-115.5 654.76,-115.5 654.76,-134.5"/>
<text text-anchor="middle" x="605.76" y="-122.5" font-family="Helvetica,sans-Serif" font-size="10.00">JsonGenerator.hpp</text>
</a>
</g>
</g>
<!-- Node1&#45;&gt;Node19 -->
<g id="edge22" class="edge">
<title>Node1&#45;&gt;Node19</title>
<path fill="none" stroke="#63b8ff" d="M654.45,-175.77C644.35,-165.45 632.11,-152.93 622.42,-143.04"/>
<polygon fill="#63b8ff" stroke="#63b8ff" points="624.94,-140.6 615.44,-135.9 619.94,-145.5 624.94,-140.6"/>
</g>
<!-- Node20 -->
<g id="node20" class="node">
<title>Node20</title>
<g id="a_node20"><a xlink:href="ProtocolVersionObject_8hpp.xhtml" target="_top" xlink:title=" ">
<polygon fill="white" stroke="#666666" points="1026.26,-140 907.26,-140 907.26,-110 1026.26,-110 1026.26,-140"/>
<text text-anchor="start" x="915.26" y="-128" font-family="Helvetica,sans-Serif" font-size="10.00">serial_protocol/Protocol</text>
<text text-anchor="middle" x="966.76" y="-117" font-family="Helvetica,sans-Serif" font-size="10.00">VersionObject.hpp</text>
</a>
</g>
</g>
<!-- Node1&#45;&gt;Node20 -->
<g id="edge24" class="edge">
<title>Node1&#45;&gt;Node20</title>
<path fill="none" stroke="#63b8ff" d="M734.11,-181.18C781.15,-170.03 846.55,-154.51 896.04,-142.77"/>
<polygon fill="#63b8ff" stroke="#63b8ff" points="896.59,-146.24 905.51,-140.53 894.97,-139.43 896.59,-146.24"/>
</g>
<!-- Node22 -->
<g id="node22" class="node">
<title>Node22</title>
<g id="a_node22"><a xlink:href="TaskList_8hpp.xhtml" target="_top" xlink:title=" ">
<polygon fill="white" stroke="#666666" points="812.26,-134.5 673.26,-134.5 673.26,-115.5 812.26,-115.5 812.26,-134.5"/>
<text text-anchor="middle" x="742.76" y="-122.5" font-family="Helvetica,sans-Serif" font-size="10.00">serial_protocol/TaskList.hpp</text>
</a>
</g>
</g>
<!-- Node1&#45;&gt;Node22 -->
<g id="edge26" class="edge">
<title>Node1&#45;&gt;Node22</title>
<path fill="none" stroke="#63b8ff" d="M693.35,-175.77C703.7,-165.34 716.27,-152.68 726.14,-142.73"/>
<polygon fill="#63b8ff" stroke="#63b8ff" points="728.37,-145.46 732.93,-135.89 723.4,-140.52 728.37,-145.46"/>
</g>
<!-- Node23 -->
<g id="node23" class="node">
<title>Node23</title>
<g id="a_node23"><a xlink:href="TaskObject_8hpp.xhtml" target="_top" xlink:title=" ">
<polygon fill="white" stroke="#666666" points="850.26,-74 765.26,-74 765.26,-55 850.26,-55 850.26,-74"/>
<text text-anchor="middle" x="807.76" y="-62" font-family="Helvetica,sans-Serif" font-size="10.00">TaskObject.hpp</text>
</a>
</g>
</g>
<!-- Node1&#45;&gt;Node23 -->
<g id="edge31" class="edge">
<title>Node1&#45;&gt;Node23</title>
<path fill="none" stroke="#63b8ff" d="M734.26,-189.09C765.9,-182.31 802.06,-168.42 821.76,-140 833.21,-123.48 826.01,-100.15 818.34,-84.02"/>
<polygon fill="#63b8ff" stroke="#63b8ff" points="821.62,-82.74 813.88,-75.51 815.42,-85.99 821.62,-82.74"/>
</g>
<!-- Node25 -->
<g id="node25" class="node">
<title>Node25</title>
<g id="a_node25"><a xlink:href="Task_8hpp.xhtml" target="_top" xlink:title=" ">
<polygon fill="white" stroke="#666666" points="1072.26,-74 989.26,-74 989.26,-55 1072.26,-55 1072.26,-74"/>
<text text-anchor="middle" x="1030.76" y="-62" font-family="Helvetica,sans-Serif" font-size="10.00">tasks/Task.hpp</text>
</a>
</g>
</g>
<!-- Node1&#45;&gt;Node25 -->
<g id="edge33" class="edge">
<title>Node1&#45;&gt;Node25</title>
<path fill="none" stroke="#63b8ff" d="M734.14,-195.34C826.85,-193.66 997.61,-184.45 1035.76,-140 1048.67,-124.96 1044.37,-101.31 1038.82,-84.7"/>
<polygon fill="#63b8ff" stroke="#63b8ff" points="1042.14,-83.6 1035.32,-75.49 1035.6,-86.08 1042.14,-83.6"/>
</g>
<!-- Node4 -->
<g id="node4" class="node">
<title>Node4</title>
<g id="a_node4"><a xlink:title=" ">
<polygon fill="#e0e0e0" stroke="#999999" points="438.26,-74 379.26,-74 379.26,-55 438.26,-55 438.26,-74"/>
<text text-anchor="middle" x="408.76" y="-62" font-family="Helvetica,sans-Serif" font-size="10.00">functional</text>
</a>
</g>
</g>
<!-- Node3&#45;&gt;Node4 -->
<g id="edge3" class="edge">
<title>Node3&#45;&gt;Node4</title>
<path fill="none" stroke="#63b8ff" d="M252.7,-115.12C283.91,-105.19 334.64,-89.07 369.74,-77.9"/>
<polygon fill="#63b8ff" stroke="#63b8ff" points="370.64,-81.29 379.11,-74.93 368.52,-74.62 370.64,-81.29"/>
</g>
<!-- Node5 -->
<g id="node5" class="node">
<title>Node5</title>
<g id="a_node5"><a xlink:title=" ">
<polygon fill="#e0e0e0" stroke="#999999" points="182.76,-74 128.76,-74 128.76,-55 182.76,-55 182.76,-74"/>
<text text-anchor="middle" x="155.76" y="-62" font-family="Helvetica,sans-Serif" font-size="10.00">iostream</text>
</a>
</g>
</g>
<!-- Node3&#45;&gt;Node5 -->
<g id="edge4" class="edge">
<title>Node3&#45;&gt;Node5</title>
<path fill="none" stroke="#63b8ff" d="M214.28,-115.12C203.84,-106.27 187.58,-92.48 174.85,-81.69"/>
<polygon fill="#63b8ff" stroke="#63b8ff" points="177.38,-79.24 167.49,-75.45 172.85,-84.58 177.38,-79.24"/>
</g>
<!-- Node6 -->
<g id="node6" class="node">
<title>Node6</title>
<g id="a_node6"><a xlink:title=" ">
<polygon fill="#e0e0e0" stroke="#999999" points="248.26,-74 201.26,-74 201.26,-55 248.26,-55 248.26,-74"/>
<text text-anchor="middle" x="224.76" y="-62" font-family="Helvetica,sans-Serif" font-size="10.00">iterator</text>
</a>
</g>
</g>
<!-- Node3&#45;&gt;Node6 -->
<g id="edge5" class="edge">
<title>Node3&#45;&gt;Node6</title>
<path fill="none" stroke="#63b8ff" d="M224.76,-115.37C224.76,-107.5 224.76,-95.6 224.76,-85.39"/>
<polygon fill="#63b8ff" stroke="#63b8ff" points="228.26,-85.68 224.76,-75.68 221.26,-85.68 228.26,-85.68"/>
</g>
<!-- Node7 -->
<g id="node7" class="node">
<title>Node7</title>
<g id="a_node7"><a xlink:title=" ">
<polygon fill="#e0e0e0" stroke="#999999" points="143.26,-19 84.26,-19 84.26,0 143.26,0 143.26,-19"/>
<text text-anchor="middle" x="113.76" y="-7" font-family="Helvetica,sans-Serif" font-size="10.00">stdexcept</text>
</a>
</g>
</g>
<!-- Node3&#45;&gt;Node7 -->
<g id="edge6" class="edge">
<title>Node3&#45;&gt;Node7</title>
<path fill="none" stroke="#63b8ff" d="M178.71,-115C116.1,-102.55 11.2,-80.82 5.76,-74 -16.4,-46.22 33.71,-28.03 72.87,-18.51"/>
<polygon fill="#63b8ff" stroke="#63b8ff" points="73.63,-21.93 82.59,-16.28 72.06,-15.11 73.63,-21.93"/>
</g>
<!-- Node8 -->
<g id="node8" class="node">
<title>Node8</title>
<g id="a_node8"><a xlink:href="string__helpers_8hpp.xhtml" target="_top" xlink:title=" ">
<polygon fill="white" stroke="#666666" points="361.26,-74 266.26,-74 266.26,-55 361.26,-55 361.26,-74"/>
<text text-anchor="middle" x="313.76" y="-62" font-family="Helvetica,sans-Serif" font-size="10.00">string_helpers.hpp</text>
</a>
</g>
</g>
<!-- Node3&#45;&gt;Node8 -->
<g id="edge7" class="edge">
<title>Node3&#45;&gt;Node8</title>
<path fill="none" stroke="#63b8ff" d="M238.27,-115.12C252.13,-106.01 273.93,-91.68 290.55,-80.75"/>
<polygon fill="#63b8ff" stroke="#63b8ff" points="292.41,-83.72 298.85,-75.3 288.57,-77.87 292.41,-83.72"/>
</g>
<!-- Node13 -->
<g id="node13" class="node">
<title>Node13</title>
<g id="a_node13"><a xlink:title=" ">
<polygon fill="#e0e0e0" stroke="#999999" points="52.76,-74 14.76,-74 14.76,-55 52.76,-55 52.76,-74"/>
<text text-anchor="middle" x="33.76" y="-62" font-family="Helvetica,sans-Serif" font-size="10.00">tuple</text>
</a>
</g>
</g>
<!-- Node3&#45;&gt;Node13 -->
<g id="edge13" class="edge">
<title>Node3&#45;&gt;Node13</title>
<path fill="none" stroke="#63b8ff" d="M195.75,-115.12C160.15,-104.21 100.09,-85.82 63.96,-74.75"/>
<polygon fill="#63b8ff" stroke="#63b8ff" points="65.16,-71.46 54.58,-71.88 63.11,-78.15 65.16,-71.46"/>
</g>
<!-- Node14 -->
<g id="node14" class="node">
<title>Node14</title>
<g id="a_node14"><a xlink:title=" ">
<polygon fill="#e0e0e0" stroke="#999999" points="110.26,-74 71.26,-74 71.26,-55 110.26,-55 110.26,-74"/>
<text text-anchor="middle" x="90.76" y="-62" font-family="Helvetica,sans-Serif" font-size="10.00">utility</text>
</a>
</g>
</g>
<!-- Node3&#45;&gt;Node14 -->
<g id="edge14" class="edge">
<title>Node3&#45;&gt;Node14</title>
<path fill="none" stroke="#63b8ff" d="M204.41,-115.12C182.11,-105.38 146.14,-89.68 120.64,-78.55"/>
<polygon fill="#63b8ff" stroke="#63b8ff" points="122.38,-75.49 111.81,-74.69 119.58,-81.9 122.38,-75.49"/>
</g>
<!-- Node8&#45;&gt;Node7 -->
<g id="edge10" class="edge">
<title>Node8&#45;&gt;Node7</title>
<path fill="none" stroke="#63b8ff" d="M279.83,-54.51C245.19,-45.33 191.4,-31.07 154.48,-21.29"/>
<polygon fill="#63b8ff" stroke="#63b8ff" points="155.63,-17.97 145.06,-18.8 153.83,-24.74 155.63,-17.97"/>
</g>
<!-- Node9 -->
<g id="node9" class="node">
<title>Node9</title>
<g id="a_node9"><a xlink:title=" ">
<polygon fill="#e0e0e0" stroke="#999999" points="303.76,-19 253.76,-19 253.76,0 303.76,0 303.76,-19"/>
<text text-anchor="middle" x="278.76" y="-7" font-family="Helvetica,sans-Serif" font-size="10.00">iomanip</text>
</a>
</g>
</g>
<!-- Node8&#45;&gt;Node9 -->
<g id="edge8" class="edge">
<title>Node8&#45;&gt;Node9</title>
<path fill="none" stroke="#63b8ff" d="M307.98,-54.75C303.34,-47.73 296.68,-37.64 290.89,-28.87"/>
<polygon fill="#63b8ff" stroke="#63b8ff" points="293.93,-27.12 285.5,-20.71 288.09,-30.98 293.93,-27.12"/>
</g>
<!-- Node10 -->
<g id="node10" class="node">
<title>Node10</title>
<g id="a_node10"><a xlink:title=" ">
<polygon fill="#e0e0e0" stroke="#999999" points="373.76,-19 321.76,-19 321.76,0 373.76,0 373.76,-19"/>
<text text-anchor="middle" x="347.76" y="-7" font-family="Helvetica,sans-Serif" font-size="10.00">sstream</text>
</a>
</g>
</g>
<!-- Node8&#45;&gt;Node10 -->
<g id="edge9" class="edge">
<title>Node8&#45;&gt;Node10</title>
<path fill="none" stroke="#63b8ff" d="M319.37,-54.75C323.87,-47.73 330.34,-37.64 335.97,-28.87"/>
<polygon fill="#63b8ff" stroke="#63b8ff" points="338.75,-31.02 341.2,-20.72 332.86,-27.24 338.75,-31.02"/>
</g>
<!-- Node8&#45;&gt;Node11 -->
<g id="edge11" class="edge">
<title>Node8&#45;&gt;Node11</title>
<path fill="none" stroke="#63b8ff" d="M361.7,-56.11C364.43,-55.73 367.13,-55.35 369.76,-55 499.67,-37.6 654.92,-20.78 720.74,-13.84"/>
<polygon fill="#63b8ff" stroke="#63b8ff" points="720.88,-17.34 730.46,-12.82 720.15,-10.38 720.88,-17.34"/>
</g>
<!-- Node12 -->
<g id="node12" class="node">
<title>Node12</title>
<g id="a_node12"><a xlink:title=" ">
<polygon fill="#e0e0e0" stroke="#999999" points="584.76,-19 540.76,-19 540.76,0 584.76,0 584.76,-19"/>
<text text-anchor="middle" x="562.76" y="-7" font-family="Helvetica,sans-Serif" font-size="10.00">vector</text>
</a>
</g>
</g>
<!-- Node8&#45;&gt;Node12 -->
<g id="edge12" class="edge">
<title>Node8&#45;&gt;Node12</title>
<path fill="none" stroke="#63b8ff" d="M356,-54.51C404.91,-44.1 484.47,-27.16 529.3,-17.62"/>
<polygon fill="#63b8ff" stroke="#63b8ff" points="529.91,-21.07 538.96,-15.57 528.45,-14.22 529.91,-21.07"/>
</g>
<!-- Node15&#45;&gt;Node4 -->
<g id="edge17" class="edge">
<title>Node15&#45;&gt;Node4</title>
<path fill="none" stroke="#63b8ff" d="M453.08,-115.37C445.48,-106.81 433.62,-93.47 424.08,-82.74"/>
<polygon fill="#63b8ff" stroke="#63b8ff" points="426.73,-80.45 417.47,-75.3 421.49,-85.1 426.73,-80.45"/>
</g>
<!-- Node15&#45;&gt;Node11 -->
<g id="edge20" class="edge">
<title>Node15&#45;&gt;Node11</title>
<path fill="none" stroke="#63b8ff" d="M484.97,-115C510.33,-105.41 551.22,-89.51 585.76,-74 602.98,-66.26 606.35,-62.32 623.76,-55 656.29,-41.33 694.64,-28.5 721.02,-20.16"/>
<polygon fill="#63b8ff" stroke="#63b8ff" points="721.94,-23.54 730.44,-17.22 719.85,-16.86 721.94,-23.54"/>
</g>
<!-- Node15&#45;&gt;Node16 -->
<g id="edge16" class="edge">
<title>Node15&#45;&gt;Node16</title>
<path fill="none" stroke="#63b8ff" d="M489.77,-115.12C525.36,-104.21 585.42,-85.82 621.55,-74.75"/>
<polygon fill="#63b8ff" stroke="#63b8ff" points="622.4,-78.15 630.94,-71.88 620.35,-71.46 622.4,-78.15"/>
</g>
<!-- Node17 -->
<g id="node17" class="node">
<title>Node17</title>
<g id="a_node17"><a xlink:title=" ">
<polygon fill="#e0e0e0" stroke="#999999" points="576.76,-74 526.76,-74 526.76,-55 576.76,-55 576.76,-74"/>
<text text-anchor="middle" x="551.76" y="-62" font-family="Helvetica,sans-Serif" font-size="10.00">optional</text>
</a>
</g>
</g>
<!-- Node15&#45;&gt;Node17 -->
<g id="edge18" class="edge">
<title>Node15&#45;&gt;Node17</title>
<path fill="none" stroke="#63b8ff" d="M474.58,-115.12C488.88,-105.92 511.46,-91.41 528.51,-80.44"/>
<polygon fill="#63b8ff" stroke="#63b8ff" points="530.01,-83.64 536.53,-75.29 526.23,-77.75 530.01,-83.64"/>
</g>
<!-- Node18 -->
<g id="node18" class="node">
<title>Node18</title>
<g id="a_node18"><a xlink:title=" ">
<polygon fill="#e0e0e0" stroke="#999999" points="508.76,-74 456.76,-74 456.76,-55 508.76,-55 508.76,-74"/>
<text text-anchor="middle" x="482.76" y="-62" font-family="Helvetica,sans-Serif" font-size="10.00">ostream</text>
</a>
</g>
</g>
<!-- Node15&#45;&gt;Node18 -->
<g id="edge19" class="edge">
<title>Node15&#45;&gt;Node18</title>
<path fill="none" stroke="#63b8ff" d="M464,-115.37C467.03,-107.33 471.64,-95.07 475.53,-84.72"/>
<polygon fill="#63b8ff" stroke="#63b8ff" points="478.72,-86.18 478.96,-75.58 472.17,-83.71 478.72,-86.18"/>
</g>
<!-- Node19&#45;&gt;Node11 -->
<g id="edge23" class="edge">
<title>Node19&#45;&gt;Node11</title>
<path fill="none" stroke="#63b8ff" d="M620.02,-115.09C635.19,-105.46 659.72,-89.4 679.76,-74 699.43,-58.89 720.69,-40.09 735.17,-26.87"/>
<polygon fill="#63b8ff" stroke="#63b8ff" points="737.52,-29.47 742.5,-20.12 732.77,-24.32 737.52,-29.47"/>
</g>
<!-- Node21 -->
<g id="node21" class="node">
<title>Node21</title>
<g id="a_node21"><a xlink:title=" ">
<polygon fill="#e0e0e0" stroke="#999999" points="970.76,-74 924.76,-74 924.76,-55 970.76,-55 970.76,-74"/>
<text text-anchor="middle" x="947.76" y="-62" font-family="Helvetica,sans-Serif" font-size="10.00">cstdint</text>
</a>
</g>
</g>
<!-- Node20&#45;&gt;Node21 -->
<g id="edge25" class="edge">
<title>Node20&#45;&gt;Node21</title>
<path fill="none" stroke="#63b8ff" d="M962.06,-109.54C959.67,-102.17 956.72,-93.1 954.13,-85.11"/>
<polygon fill="#63b8ff" stroke="#63b8ff" points="957.46,-84.04 951.04,-75.61 950.8,-86.21 957.46,-84.04"/>
</g>
<!-- Node22&#45;&gt;Node12 -->
<g id="edge30" class="edge">
<title>Node22&#45;&gt;Node12</title>
<path fill="none" stroke="#63b8ff" d="M736.8,-115.15C726.66,-100.7 704.71,-71.96 679.76,-55 654,-37.49 620.42,-25.64 595.84,-18.6"/>
<polygon fill="#63b8ff" stroke="#63b8ff" points="596.94,-15.27 586.37,-16.01 595.09,-22.02 596.94,-15.27"/>
</g>
<!-- Node22&#45;&gt;Node23 -->
<g id="edge27" class="edge">
<title>Node22&#45;&gt;Node23</title>
<path fill="none" stroke="#63b8ff" d="M752.63,-115.12C762.36,-106.35 777.48,-92.75 789.42,-82"/>
<polygon fill="#63b8ff" stroke="#63b8ff" points="791.58,-84.77 796.67,-75.48 786.89,-79.57 791.58,-84.77"/>
</g>
<!-- Node23&#45;&gt;Node11 -->
<g id="edge29" class="edge">
<title>Node23&#45;&gt;Node11</title>
<path fill="none" stroke="#63b8ff" d="M798.67,-54.75C790.92,-47.27 779.55,-36.32 770.06,-27.17"/>
<polygon fill="#63b8ff" stroke="#63b8ff" points="772.76,-24.91 763.13,-20.49 767.9,-29.95 772.76,-24.91"/>
</g>
<!-- Node24 -->
<g id="node24" class="node">
<title>Node24</title>
<g id="a_node24"><a xlink:title=" ">
<polygon fill="#e0e0e0" stroke="#999999" points="912.76,-19 866.76,-19 866.76,0 912.76,0 912.76,-19"/>
<text text-anchor="middle" x="889.76" y="-7" font-family="Helvetica,sans-Serif" font-size="10.00">chrono</text>
</a>
</g>
</g>
<!-- Node23&#45;&gt;Node24 -->
<g id="edge28" class="edge">
<title>Node23&#45;&gt;Node24</title>
<path fill="none" stroke="#63b8ff" d="M821.67,-54.51C833.99,-46.54 852.23,-34.75 866.73,-25.38"/>
<polygon fill="#63b8ff" stroke="#63b8ff" points="868.28,-28.55 874.78,-20.18 864.48,-22.67 868.28,-28.55"/>
</g>
<!-- Node25&#45;&gt;Node11 -->
<g id="edge36" class="edge">
<title>Node25&#45;&gt;Node11</title>
<path fill="none" stroke="#63b8ff" d="M988.84,-55.51C932.95,-44.85 835.23,-26.22 784.84,-16.62"/>
<polygon fill="#63b8ff" stroke="#63b8ff" points="785.64,-13.21 775.16,-14.77 784.33,-20.08 785.64,-13.21"/>
</g>
<!-- Node25&#45;&gt;Node24 -->
<g id="edge34" class="edge">
<title>Node25&#45;&gt;Node24</title>
<path fill="none" stroke="#63b8ff" d="M1006.84,-54.51C983.98,-45.92 949.29,-32.88 923.6,-23.22"/>
<polygon fill="#63b8ff" stroke="#63b8ff" points="924.86,-19.96 914.27,-19.71 922.4,-26.51 924.86,-19.96"/>
</g>
<!-- Node26 -->
<g id="node26" class="node">
<title>Node26</title>
<g id="a_node26"><a xlink:title=" ">
<polygon fill="#e0e0e0" stroke="#999999" points="1048.26,-19 1013.26,-19 1013.26,0 1048.26,0 1048.26,-19"/>
<text text-anchor="middle" x="1030.76" y="-7" font-family="Helvetica,sans-Serif" font-size="10.00">map</text>
</a>
</g>
</g>
<!-- Node25&#45;&gt;Node26 -->
<g id="edge35" class="edge">
<title>Node25&#45;&gt;Node26</title>
<path fill="none" stroke="#63b8ff" d="M1030.76,-54.75C1030.76,-48.27 1030.76,-39.16 1030.76,-30.9"/>
<polygon fill="#63b8ff" stroke="#63b8ff" points="1034.26,-30.96 1030.76,-20.96 1027.26,-30.96 1034.26,-30.96"/>
</g>
</g>
</svg>
