<?xml version="1.0" encoding="UTF-8" standalone="no"?>
<!DOCTYPE svg PUBLIC "-//W3C//DTD SVG 1.1//EN"
 "http://www.w3.org/Graphics/SVG/1.1/DTD/svg11.dtd">
<!-- Generated by graphviz version 7.0.5 (20221223.1930)
 -->
<!-- Title: lib/application_business_rules/tasks/Task.hpp Pages: 1 -->
<svg width="884pt" height="181pt"
 viewBox="0.00 0.00 884.00 181.00" xmlns="http://www.w3.org/2000/svg" xmlns:xlink="http://www.w3.org/1999/xlink">
<g id="graph0" class="graph" transform="scale(1 1) rotate(0) translate(4 177)">
<title>lib/application_business_rules/tasks/Task.hpp</title>
<!-- Node1 -->
<g id="node1" class="node">
<title>Node1</title>
<g id="a_node1"><a xlink:title=" ">
<polygon fill="#999999" stroke="#666666" points="534,-173 414,-173 414,-143 534,-143 534,-173"/>
<text text-anchor="start" x="422" y="-161" font-family="Helvetica,sans-Serif" font-size="10.00">lib/application_business</text>
<text text-anchor="middle" x="474" y="-150" font-family="Helvetica,sans-Serif" font-size="10.00">_rules/tasks/Task.hpp</text>
</a>
</g>
</g>
<!-- Node2 -->
<g id="node2" class="node">
<title>Node2</title>
<g id="a_node2"><a xlink:href="Protocol_8cpp.xhtml" target="_top" xlink:title=" ">
<polygon fill="white" stroke="#666666" points="120,-107 0,-107 0,-66 120,-66 120,-107"/>
<text text-anchor="start" x="8" y="-95" font-family="Helvetica,sans-Serif" font-size="10.00">lib/application_business</text>
<text text-anchor="start" x="8" y="-84" font-family="Helvetica,sans-Serif" font-size="10.00">_rules/serial_interface</text>
<text text-anchor="middle" x="60" y="-73" font-family="Helvetica,sans-Serif" font-size="10.00">/Protocol.cpp</text>
</a>
</g>
</g>
<!-- Node1&#45;&gt;Node2 -->
<g id="edge1" class="edge">
<title>Node1&#45;&gt;Node2</title>
<path fill="none" stroke="#63b8ff" d="M402.41,-149.41C332.29,-141.32 222.64,-126.93 129,-107 126.2,-106.4 123.35,-105.76 120.47,-105.08"/>
<polygon fill="#63b8ff" stroke="#63b8ff" points="401.91,-152.87 412.24,-150.53 402.7,-145.92 401.91,-152.87"/>
</g>
<!-- Node3 -->
<g id="node3" class="node">
<title>Node3</title>
<g id="a_node3"><a xlink:href="TaskIterator_8hpp.xhtml" target="_top" xlink:title=" ">
<polygon fill="white" stroke="#666666" points="258,-107 138,-107 138,-66 258,-66 258,-107"/>
<text text-anchor="start" x="146" y="-95" font-family="Helvetica,sans-Serif" font-size="10.00">lib/application_business</text>
<text text-anchor="start" x="146" y="-84" font-family="Helvetica,sans-Serif" font-size="10.00">_rules/serial_interface</text>
<text text-anchor="middle" x="198" y="-73" font-family="Helvetica,sans-Serif" font-size="10.00">/TaskIterator.hpp</text>
</a>
</g>
</g>
<!-- Node1&#45;&gt;Node3 -->
<g id="edge2" class="edge">
<title>Node1&#45;&gt;Node3</title>
<path fill="none" stroke="#63b8ff" d="M402.63,-140.48C362.66,-131.04 311.95,-118.78 267,-107 264.11,-106.24 261.16,-105.46 258.17,-104.65"/>
<polygon fill="#63b8ff" stroke="#63b8ff" points="401.6,-143.83 412.14,-142.71 403.21,-137.01 401.6,-143.83"/>
</g>
<!-- Node5 -->
<g id="node5" class="node">
<title>Node5</title>
<g id="a_node5"><a xlink:href="Task_8cpp.xhtml" target="_top" xlink:title=" ">
<polygon fill="white" stroke="#666666" points="396,-101.5 276,-101.5 276,-71.5 396,-71.5 396,-101.5"/>
<text text-anchor="start" x="284" y="-89.5" font-family="Helvetica,sans-Serif" font-size="10.00">lib/application_business</text>
<text text-anchor="middle" x="336" y="-78.5" font-family="Helvetica,sans-Serif" font-size="10.00">_rules/tasks/Task.cpp</text>
</a>
</g>
</g>
<!-- Node1&#45;&gt;Node5 -->
<g id="edge4" class="edge">
<title>Node1&#45;&gt;Node5</title>
<path fill="none" stroke="#63b8ff" d="M435.19,-137.46C412.75,-126.15 384.99,-112.17 364.56,-101.88"/>
<polygon fill="#63b8ff" stroke="#63b8ff" points="433.55,-140.55 444.05,-141.92 436.7,-134.29 433.55,-140.55"/>
</g>
<!-- Node6 -->
<g id="node6" class="node">
<title>Node6</title>
<g id="a_node6"><a xlink:href="ProcessHmiInputs_8cpp.xhtml" target="_top" xlink:title=" ">
<polygon fill="white" stroke="#666666" points="534,-107 414,-107 414,-66 534,-66 534,-107"/>
<text text-anchor="start" x="422" y="-95" font-family="Helvetica,sans-Serif" font-size="10.00">lib/application_business</text>
<text text-anchor="start" x="422" y="-84" font-family="Helvetica,sans-Serif" font-size="10.00">_rules/user_interaction</text>
<text text-anchor="middle" x="474" y="-73" font-family="Helvetica,sans-Serif" font-size="10.00">/ProcessHmiInputs.cpp</text>
</a>
</g>
</g>
<!-- Node1&#45;&gt;Node6 -->
<g id="edge5" class="edge">
<title>Node1&#45;&gt;Node6</title>
<path fill="none" stroke="#63b8ff" d="M474,-131.36C474,-123.45 474,-114.87 474,-107.42"/>
<polygon fill="#63b8ff" stroke="#63b8ff" points="470.5,-131.09 474,-141.09 477.5,-131.09 470.5,-131.09"/>
</g>
<!-- Node7 -->
<g id="node7" class="node">
<title>Node7</title>
<g id="a_node7"><a xlink:href="main_8cpp.xhtml" target="_top" xlink:title=" ">
<polygon fill="white" stroke="#666666" points="624,-96 552,-96 552,-77 624,-77 624,-96"/>
<text text-anchor="middle" x="588" y="-84" font-family="Helvetica,sans-Serif" font-size="10.00">src/main.cpp</text>
</a>
</g>
</g>
<!-- Node1&#45;&gt;Node7 -->
<g id="edge6" class="edge">
<title>Node1&#45;&gt;Node7</title>
<path fill="none" stroke="#63b8ff" d="M507.24,-136.74C529.18,-123.36 556.84,-106.5 573.44,-96.38"/>
<polygon fill="#63b8ff" stroke="#63b8ff" points="505.63,-133.62 498.91,-141.81 509.27,-139.59 505.63,-133.62"/>
</g>
<!-- Node8 -->
<g id="node8" class="node">
<title>Node8</title>
<g id="a_node8"><a xlink:href="test__hmi_8cpp.xhtml" target="_top" xlink:title=" ">
<polygon fill="white" stroke="#666666" points="735.5,-101.5 642.5,-101.5 642.5,-71.5 735.5,-71.5 735.5,-101.5"/>
<text text-anchor="start" x="650.5" y="-89.5" font-family="Helvetica,sans-Serif" font-size="10.00">test/test_hmi/test</text>
<text text-anchor="middle" x="689" y="-78.5" font-family="Helvetica,sans-Serif" font-size="10.00">_hmi.cpp</text>
</a>
</g>
</g>
<!-- Node1&#45;&gt;Node8 -->
<g id="edge7" class="edge">
<title>Node1&#45;&gt;Node8</title>
<path fill="none" stroke="#63b8ff" d="M531.86,-139.27C562.07,-129.89 599.61,-118.06 633,-107 637.89,-105.38 643,-103.65 648.07,-101.91"/>
<polygon fill="#63b8ff" stroke="#63b8ff" points="531.05,-135.86 522.53,-142.16 533.12,-142.54 531.05,-135.86"/>
</g>
<!-- Node9 -->
<g id="node9" class="node">
<title>Node9</title>
<g id="a_node9"><a xlink:href="task_8cpp.xhtml" target="_top" xlink:title=" ">
<polygon fill="white" stroke="#666666" points="876,-96 754,-96 754,-77 876,-77 876,-96"/>
<text text-anchor="middle" x="815" y="-84" font-family="Helvetica,sans-Serif" font-size="10.00">test/test_tasks/task.cpp</text>
</a>
</g>
</g>
<!-- Node1&#45;&gt;Node9 -->
<g id="edge8" class="edge">
<title>Node1&#45;&gt;Node9</title>
<path fill="none" stroke="#63b8ff" d="M545.67,-145.57C600.51,-136.39 677.87,-122.51 745,-107 758.28,-103.93 772.81,-99.98 785.17,-96.44"/>
<polygon fill="#63b8ff" stroke="#63b8ff" points="545.11,-142.12 535.82,-147.21 546.26,-149.02 545.11,-142.12"/>
</g>
<!-- Node4 -->
<g id="node4" class="node">
<title>Node4</title>
<g id="a_node4"><a xlink:href="JsonGenerator_8cpp.xhtml" target="_top" xlink:title=" ">
<polygon fill="white" stroke="#666666" points="271,-30 125,-30 125,0 271,0 271,-30"/>
<text text-anchor="start" x="133" y="-18" font-family="Helvetica,sans-Serif" font-size="10.00">lib/3rd_party_adapters</text>
<text text-anchor="middle" x="198" y="-7" font-family="Helvetica,sans-Serif" font-size="10.00">/nlohmann/JsonGenerator.cpp</text>
</a>
</g>
</g>
<!-- Node3&#45;&gt;Node4 -->
<g id="edge3" class="edge">
<title>Node3&#45;&gt;Node4</title>
<path fill="none" stroke="#63b8ff" d="M198,-54.38C198,-46.04 198,-37.43 198,-30.47"/>
<polygon fill="#63b8ff" stroke="#63b8ff" points="194.5,-54.26 198,-64.26 201.5,-54.26 194.5,-54.26"/>
</g>
</g>
</svg>
