<?xml version="1.0" encoding="UTF-8" standalone="no"?>
<!DOCTYPE svg PUBLIC "-//W3C//DTD SVG 1.1//EN"
 "http://www.w3.org/Graphics/SVG/1.1/DTD/svg11.dtd">
<!-- Generated by graphviz version 7.0.5 (20221223.1930)
 -->
<!-- Title: lib/application_business_rules/serial_interface/TaskIterator.hpp Pages: 1 -->
<svg width="325pt" height="159pt"
 viewBox="0.00 0.00 325.00 159.00" xmlns="http://www.w3.org/2000/svg" xmlns:xlink="http://www.w3.org/1999/xlink">
<g id="graph0" class="graph" transform="scale(1 1) rotate(0) translate(4 155)">
<title>lib/application_business_rules/serial_interface/TaskIterator.hpp</title>
<!-- Node1 -->
<g id="node1" class="node">
<title>Node1</title>
<g id="a_node1"><a xlink:title=" ">
<polygon fill="#999999" stroke="#666666" points="200.5,-151 80.5,-151 80.5,-110 200.5,-110 200.5,-151"/>
<text text-anchor="start" x="88.5" y="-139" font-family="Helvetica,sans-Serif" font-size="10.00">lib/application_business</text>
<text text-anchor="start" x="88.5" y="-128" font-family="Helvetica,sans-Serif" font-size="10.00">_rules/serial_interface</text>
<text text-anchor="middle" x="140.5" y="-117" font-family="Helvetica,sans-Serif" font-size="10.00">/TaskIterator.hpp</text>
</a>
</g>
</g>
<!-- Node2 -->
<g id="node2" class="node">
<title>Node2</title>
<g id="a_node2"><a xlink:title=" ">
<polygon fill="#e0e0e0" stroke="#999999" points="47,-74 0,-74 0,-55 47,-55 47,-74"/>
<text text-anchor="middle" x="23.5" y="-62" font-family="Helvetica,sans-Serif" font-size="10.00">iterator</text>
</a>
</g>
</g>
<!-- Node1&#45;&gt;Node2 -->
<g id="edge1" class="edge">
<title>Node1&#45;&gt;Node2</title>
<path fill="none" stroke="#63b8ff" d="M104.12,-109.6C86.4,-99.91 65.51,-88.48 49.43,-79.68"/>
<polygon fill="#63b8ff" stroke="#63b8ff" points="51.42,-76.79 40.97,-75.06 48.07,-82.93 51.42,-76.79"/>
</g>
<!-- Node3 -->
<g id="node3" class="node">
<title>Node3</title>
<g id="a_node3"><a xlink:href="TaskObject_8hpp.xhtml" target="_top" xlink:title=" ">
<polygon fill="white" stroke="#666666" points="216,-74 65,-74 65,-55 216,-55 216,-74"/>
<text text-anchor="middle" x="140.5" y="-62" font-family="Helvetica,sans-Serif" font-size="10.00">serial_protocol/TaskObject.hpp</text>
</a>
</g>
</g>
<!-- Node1&#45;&gt;Node3 -->
<g id="edge2" class="edge">
<title>Node1&#45;&gt;Node3</title>
<path fill="none" stroke="#63b8ff" d="M140.5,-109.6C140.5,-101.98 140.5,-93.3 140.5,-85.66"/>
<polygon fill="#63b8ff" stroke="#63b8ff" points="144,-85.68 140.5,-75.68 137,-85.68 144,-85.68"/>
</g>
<!-- Node6 -->
<g id="node6" class="node">
<title>Node6</title>
<g id="a_node6"><a xlink:href="Task_8hpp.xhtml" target="_top" xlink:title=" ">
<polygon fill="white" stroke="#666666" points="317,-74 234,-74 234,-55 317,-55 317,-74"/>
<text text-anchor="middle" x="275.5" y="-62" font-family="Helvetica,sans-Serif" font-size="10.00">tasks/Task.hpp</text>
</a>
</g>
</g>
<!-- Node1&#45;&gt;Node6 -->
<g id="edge5" class="edge">
<title>Node1&#45;&gt;Node6</title>
<path fill="none" stroke="#63b8ff" d="M182.47,-109.6C203.31,-99.72 227.95,-88.04 246.63,-79.19"/>
<polygon fill="#63b8ff" stroke="#63b8ff" points="247.97,-82.43 255.51,-74.98 244.97,-76.1 247.97,-82.43"/>
</g>
<!-- Node4 -->
<g id="node4" class="node">
<title>Node4</title>
<g id="a_node4"><a xlink:title=" ">
<polygon fill="#e0e0e0" stroke="#999999" points="236.5,-19 190.5,-19 190.5,0 236.5,0 236.5,-19"/>
<text text-anchor="middle" x="213.5" y="-7" font-family="Helvetica,sans-Serif" font-size="10.00">chrono</text>
</a>
</g>
</g>
<!-- Node3&#45;&gt;Node4 -->
<g id="edge3" class="edge">
<title>Node3&#45;&gt;Node4</title>
<path fill="none" stroke="#63b8ff" d="M152.88,-54.51C163.65,-46.7 179.47,-35.21 192.25,-25.93"/>
<polygon fill="#63b8ff" stroke="#63b8ff" points="194.04,-28.95 200.07,-20.25 189.93,-23.29 194.04,-28.95"/>
</g>
<!-- Node5 -->
<g id="node5" class="node">
<title>Node5</title>
<g id="a_node5"><a xlink:title=" ">
<polygon fill="#e0e0e0" stroke="#999999" points="165,-19 124,-19 124,0 165,0 165,-19"/>
<text text-anchor="middle" x="144.5" y="-7" font-family="Helvetica,sans-Serif" font-size="10.00">string</text>
</a>
</g>
</g>
<!-- Node3&#45;&gt;Node5 -->
<g id="edge4" class="edge">
<title>Node3&#45;&gt;Node5</title>
<path fill="none" stroke="#63b8ff" d="M141.16,-54.75C141.65,-48.27 142.34,-39.16 142.96,-30.9"/>
<polygon fill="#63b8ff" stroke="#63b8ff" points="146.45,-31.19 143.71,-20.95 139.47,-30.66 146.45,-31.19"/>
</g>
<!-- Node6&#45;&gt;Node4 -->
<g id="edge6" class="edge">
<title>Node6&#45;&gt;Node4</title>
<path fill="none" stroke="#63b8ff" d="M264.98,-54.51C256.11,-46.93 243.19,-35.88 232.51,-26.75"/>
<polygon fill="#63b8ff" stroke="#63b8ff" points="234.89,-24.18 225.01,-20.34 230.34,-29.5 234.89,-24.18"/>
</g>
<!-- Node6&#45;&gt;Node5 -->
<g id="edge8" class="edge">
<title>Node6&#45;&gt;Node5</title>
<path fill="none" stroke="#63b8ff" d="M253.28,-54.51C231.98,-45.89 199.63,-32.8 175.74,-23.14"/>
<polygon fill="#63b8ff" stroke="#63b8ff" points="177.09,-19.91 166.5,-19.4 174.46,-26.4 177.09,-19.91"/>
</g>
<!-- Node7 -->
<g id="node7" class="node">
<title>Node7</title>
<g id="a_node7"><a xlink:title=" ">
<polygon fill="#e0e0e0" stroke="#999999" points="293,-19 258,-19 258,0 293,0 293,-19"/>
<text text-anchor="middle" x="275.5" y="-7" font-family="Helvetica,sans-Serif" font-size="10.00">map</text>
</a>
</g>
</g>
<!-- Node6&#45;&gt;Node7 -->
<g id="edge7" class="edge">
<title>Node6&#45;&gt;Node7</title>
<path fill="none" stroke="#63b8ff" d="M275.5,-54.75C275.5,-48.27 275.5,-39.16 275.5,-30.9"/>
<polygon fill="#63b8ff" stroke="#63b8ff" points="279,-30.96 275.5,-20.96 272,-30.96 279,-30.96"/>
</g>
</g>
</svg>
