<?xml version="1.0" encoding="UTF-8" standalone="no"?>
<!DOCTYPE svg PUBLIC "-//W3C//DTD SVG 1.1//EN"
 "http://www.w3.org/Graphics/SVG/1.1/DTD/svg11.dtd">
<!-- Generated by graphviz version 7.0.5 (20221223.1930)
 -->
<!-- Title: lib/enterprise_business_rules/serial_protocol/TaskObject.hpp Pages: 1 -->
<svg width="330pt" height="203pt"
 viewBox="0.00 0.00 329.91 203.00" xmlns="http://www.w3.org/2000/svg" xmlns:xlink="http://www.w3.org/1999/xlink">
<g id="graph0" class="graph" transform="scale(1 1) rotate(0) translate(4 199)">
<title>lib/enterprise_business_rules/serial_protocol/TaskObject.hpp</title>
<!-- Node1 -->
<g id="node1" class="node">
<title>Node1</title>
<g id="a_node1"><a xlink:title=" ">
<polygon fill="#999999" stroke="#666666" points="201.91,-195 85.91,-195 85.91,-154 201.91,-154 201.91,-195"/>
<text text-anchor="start" x="93.91" y="-183" font-family="Helvetica,sans-Serif" font-size="10.00">lib/enterprise_business</text>
<text text-anchor="start" x="93.91" y="-172" font-family="Helvetica,sans-Serif" font-size="10.00">_rules/serial_protocol</text>
<text text-anchor="middle" x="143.91" y="-161" font-family="Helvetica,sans-Serif" font-size="10.00">/TaskObject.hpp</text>
</a>
</g>
</g>
<!-- Node2 -->
<g id="node2" class="node">
<title>Node2</title>
<g id="a_node2"><a xlink:href="JsonGenerator_8cpp.xhtml" target="_top" xlink:title=" ">
<polygon fill="white" stroke="#666666" points="148.91,-35.5 2.91,-35.5 2.91,-5.5 148.91,-5.5 148.91,-35.5"/>
<text text-anchor="start" x="10.91" y="-23.5" font-family="Helvetica,sans-Serif" font-size="10.00">lib/3rd_party_adapters</text>
<text text-anchor="middle" x="75.91" y="-12.5" font-family="Helvetica,sans-Serif" font-size="10.00">/nlohmann/JsonGenerator.cpp</text>
</a>
</g>
</g>
<!-- Node1&#45;&gt;Node2 -->
<g id="edge1" class="edge">
<title>Node1&#45;&gt;Node2</title>
<path fill="none" stroke="#63b8ff" d="M74.75,-162.26C49.02,-154.36 22.35,-140.9 6.91,-118 -3.27,-102.89 -0.96,-93.43 6.91,-77 15.42,-59.25 32.67,-45.38 47.79,-35.94"/>
<polygon fill="#63b8ff" stroke="#63b8ff" points="73.66,-165.59 84.23,-164.91 75.54,-158.85 73.66,-165.59"/>
</g>
<!-- Node3 -->
<g id="node3" class="node">
<title>Node3</title>
<g id="a_node3"><a xlink:href="Protocol_8cpp.xhtml" target="_top" xlink:title=" ">
<polygon fill="white" stroke="#666666" points="321.91,-41 201.91,-41 201.91,0 321.91,0 321.91,-41"/>
<text text-anchor="start" x="209.91" y="-29" font-family="Helvetica,sans-Serif" font-size="10.00">lib/application_business</text>
<text text-anchor="start" x="209.91" y="-18" font-family="Helvetica,sans-Serif" font-size="10.00">_rules/serial_interface</text>
<text text-anchor="middle" x="261.91" y="-7" font-family="Helvetica,sans-Serif" font-size="10.00">/Protocol.cpp</text>
</a>
</g>
</g>
<!-- Node1&#45;&gt;Node3 -->
<g id="edge2" class="edge">
<title>Node1&#45;&gt;Node3</title>
<path fill="none" stroke="#63b8ff" d="M213.36,-161.61C238.33,-153.62 263.98,-140.28 278.91,-118 294.35,-94.96 283.24,-62.14 273.13,-41.33"/>
<polygon fill="#63b8ff" stroke="#63b8ff" points="212.43,-158.24 203.81,-164.4 214.39,-164.96 212.43,-158.24"/>
</g>
<!-- Node4 -->
<g id="node4" class="node">
<title>Node4</title>
<g id="a_node4"><a xlink:href="TaskIterator_8hpp.xhtml" target="_top" xlink:title=" ">
<polygon fill="white" stroke="#666666" points="135.91,-118 15.91,-118 15.91,-77 135.91,-77 135.91,-118"/>
<text text-anchor="start" x="23.91" y="-106" font-family="Helvetica,sans-Serif" font-size="10.00">lib/application_business</text>
<text text-anchor="start" x="23.91" y="-95" font-family="Helvetica,sans-Serif" font-size="10.00">_rules/serial_interface</text>
<text text-anchor="middle" x="75.91" y="-84" font-family="Helvetica,sans-Serif" font-size="10.00">/TaskIterator.hpp</text>
</a>
</g>
</g>
<!-- Node1&#45;&gt;Node4 -->
<g id="edge3" class="edge">
<title>Node1&#45;&gt;Node4</title>
<path fill="none" stroke="#63b8ff" d="M118.49,-145.46C110.31,-136.44 101.43,-126.64 93.9,-118.33"/>
<polygon fill="#63b8ff" stroke="#63b8ff" points="115.72,-147.62 125.03,-152.67 120.91,-142.91 115.72,-147.62"/>
</g>
<!-- Node5 -->
<g id="node5" class="node">
<title>Node5</title>
<g id="a_node5"><a xlink:href="TaskList_8hpp.xhtml" target="_top" xlink:title=" ">
<polygon fill="white" stroke="#666666" points="269.91,-118 153.91,-118 153.91,-77 269.91,-77 269.91,-118"/>
<text text-anchor="start" x="161.91" y="-106" font-family="Helvetica,sans-Serif" font-size="10.00">lib/enterprise_business</text>
<text text-anchor="start" x="161.91" y="-95" font-family="Helvetica,sans-Serif" font-size="10.00">_rules/serial_protocol</text>
<text text-anchor="middle" x="211.91" y="-84" font-family="Helvetica,sans-Serif" font-size="10.00">/TaskList.hpp</text>
</a>
</g>
</g>
<!-- Node1&#45;&gt;Node5 -->
<g id="edge5" class="edge">
<title>Node1&#45;&gt;Node5</title>
<path fill="none" stroke="#63b8ff" d="M169.34,-145.46C177.52,-136.44 186.4,-126.64 193.93,-118.33"/>
<polygon fill="#63b8ff" stroke="#63b8ff" points="166.92,-142.91 162.8,-152.67 172.11,-147.62 166.92,-142.91"/>
</g>
<!-- Node4&#45;&gt;Node2 -->
<g id="edge4" class="edge">
<title>Node4&#45;&gt;Node2</title>
<path fill="none" stroke="#63b8ff" d="M75.91,-65.28C75.91,-55.07 75.91,-44.21 75.91,-35.86"/>
<polygon fill="#63b8ff" stroke="#63b8ff" points="72.42,-65.28 75.91,-75.28 79.42,-65.28 72.42,-65.28"/>
</g>
<!-- Node5&#45;&gt;Node2 -->
<g id="edge6" class="edge">
<title>Node5&#45;&gt;Node2</title>
<path fill="none" stroke="#63b8ff" d="M165.95,-71.15C144.56,-59.36 119.91,-45.76 101.82,-35.79"/>
<polygon fill="#63b8ff" stroke="#63b8ff" points="164.05,-74.1 174.5,-75.87 167.43,-67.97 164.05,-74.1"/>
</g>
<!-- Node5&#45;&gt;Node3 -->
<g id="edge7" class="edge">
<title>Node5&#45;&gt;Node3</title>
<path fill="none" stroke="#63b8ff" d="M231.35,-67.34C237.16,-58.63 243.38,-49.3 248.69,-41.33"/>
<polygon fill="#63b8ff" stroke="#63b8ff" points="228.53,-65.27 225.89,-75.54 234.35,-69.16 228.53,-65.27"/>
</g>
</g>
</svg>
