<svg xmlns="http://www.w3.org/2000/svg" xmlns:xlink="http://www.w3.org/1999/xlink" contentStyleType="text/css" height="254px" preserveAspectRatio="none" style="width:1202px;height:254px;background:#FFFFFF;" version="1.1" viewBox="0 0 1202 254" width="1202px" zoomAndPan="magnify"><defs/><g><text fill="#000000" font-family="sans-serif" font-size="14" font-weight="bold" lengthAdjust="spacing" textLength="389" x="405" y="32.9951">debouncing by post-event filtering: not too short</text><line style="stroke:#333333;stroke-width:0.5;" x1="10" x2="10" y1="47.2969" y2="210.5"/><line style="stroke:#333333;stroke-width:0.5;" x1="1190" x2="1190" y1="47.2969" y2="210.5"/><rect fill="#EEEEEE" height="163.2031" style="stroke:none;stroke-width:1.0;" width="250" x="410" y="47.2969"/><rect fill="#EEEEEE" height="163.2031" style="stroke:none;stroke-width:1.0;" width="250" x="735" y="47.2969"/><line style="stroke:#333333;stroke-width:0.5;stroke-dasharray:3.0,5.0;" x1="160" x2="160" y1="47.2969" y2="210.5"/><line style="stroke:#333333;stroke-width:0.5;stroke-dasharray:3.0,5.0;" x1="410" x2="410" y1="47.2969" y2="210.5"/><line style="stroke:#333333;stroke-width:0.5;stroke-dasharray:3.0,5.0;" x1="660" x2="660" y1="47.2969" y2="210.5"/><line style="stroke:#333333;stroke-width:0.5;stroke-dasharray:3.0,5.0;" x1="910" x2="910" y1="47.2969" y2="210.5"/><line style="stroke:#333333;stroke-width:0.5;stroke-dasharray:3.0,5.0;" x1="1160" x2="1160" y1="47.2969" y2="210.5"/><line style="stroke:#333333;stroke-width:0.5;" x1="10" x2="1190" y1="47.2969" y2="47.2969"/><text fill="#333333" font-family="sans-serif" font-size="14" font-weight="bold" lengthAdjust="spacing" textLength="92" x="15" y="94.1943">digital input</text><line style="stroke:#006400;stroke-width:2.0;" x1="160" x2="160" y1="102.2344" y2="102.2344"/><line style="stroke:#006400;stroke-width:2.0;" x1="160" x2="410" y1="102.2344" y2="102.2344"/><line style="stroke:#006400;stroke-width:2.0;" x1="410" x2="410" y1="88.2344" y2="102.2344"/><line style="stroke:#006400;stroke-width:2.0;" x1="410" x2="410" y1="88.2344" y2="102.2344"/><line style="stroke:#006400;stroke-width:2.0;" x1="415" x2="415" y1="88.2344" y2="102.2344"/><line style="stroke:#006400;stroke-width:2.0;" x1="420" x2="420" y1="88.2344" y2="102.2344"/><line style="stroke:#006400;stroke-width:2.0;" x1="425" x2="425" y1="88.2344" y2="102.2344"/><line style="stroke:#006400;stroke-width:2.0;" x1="430" x2="430" y1="88.2344" y2="102.2344"/><line style="stroke:#006400;stroke-width:2.0;" x1="435" x2="435" y1="88.2344" y2="102.2344"/><line style="stroke:#006400;stroke-width:2.0;" x1="440" x2="440" y1="88.2344" y2="102.2344"/><line style="stroke:#006400;stroke-width:2.0;" x1="445" x2="445" y1="88.2344" y2="102.2344"/><line style="stroke:#006400;stroke-width:2.0;" x1="450" x2="450" y1="88.2344" y2="102.2344"/><line style="stroke:#006400;stroke-width:2.0;" x1="455" x2="455" y1="88.2344" y2="102.2344"/><line style="stroke:#006400;stroke-width:2.0;" x1="460" x2="460" y1="88.2344" y2="102.2344"/><line style="stroke:#006400;stroke-width:2.0;" x1="465" x2="465" y1="88.2344" y2="102.2344"/><line style="stroke:#006400;stroke-width:2.0;" x1="470" x2="470" y1="88.2344" y2="102.2344"/><line style="stroke:#006400;stroke-width:2.0;" x1="475" x2="475" y1="88.2344" y2="102.2344"/><line style="stroke:#006400;stroke-width:2.0;" x1="480" x2="480" y1="88.2344" y2="102.2344"/><line style="stroke:#006400;stroke-width:2.0;" x1="485" x2="485" y1="88.2344" y2="102.2344"/><line style="stroke:#006400;stroke-width:2.0;" x1="490" x2="490" y1="88.2344" y2="102.2344"/><line style="stroke:#006400;stroke-width:2.0;" x1="495" x2="495" y1="88.2344" y2="102.2344"/><line style="stroke:#006400;stroke-width:2.0;" x1="500" x2="500" y1="88.2344" y2="102.2344"/><line style="stroke:#006400;stroke-width:2.0;" x1="505" x2="505" y1="88.2344" y2="102.2344"/><line style="stroke:#006400;stroke-width:2.0;" x1="510" x2="510" y1="88.2344" y2="102.2344"/><line style="stroke:#006400;stroke-width:2.0;" x1="515" x2="515" y1="88.2344" y2="102.2344"/><line style="stroke:#006400;stroke-width:2.0;" x1="520" x2="520" y1="88.2344" y2="102.2344"/><line style="stroke:#006400;stroke-width:2.0;" x1="525" x2="525" y1="88.2344" y2="102.2344"/><line style="stroke:#006400;stroke-width:2.0;" x1="530" x2="530" y1="88.2344" y2="102.2344"/><line style="stroke:#006400;stroke-width:2.0;" x1="535" x2="535" y1="88.2344" y2="102.2344"/><line style="stroke:#006400;stroke-width:2.0;" x1="540" x2="540" y1="88.2344" y2="102.2344"/><line style="stroke:#006400;stroke-width:2.0;" x1="545" x2="545" y1="88.2344" y2="102.2344"/><line style="stroke:#006400;stroke-width:2.0;" x1="550" x2="550" y1="88.2344" y2="102.2344"/><line style="stroke:#006400;stroke-width:2.0;" x1="555" x2="555" y1="88.2344" y2="102.2344"/><line style="stroke:#006400;stroke-width:2.0;" x1="560" x2="560" y1="88.2344" y2="102.2344"/><line style="stroke:#006400;stroke-width:2.0;" x1="565" x2="565" y1="88.2344" y2="102.2344"/><line style="stroke:#006400;stroke-width:2.0;" x1="570" x2="570" y1="88.2344" y2="102.2344"/><line style="stroke:#006400;stroke-width:2.0;" x1="575" x2="575" y1="88.2344" y2="102.2344"/><line style="stroke:#006400;stroke-width:2.0;" x1="580" x2="580" y1="88.2344" y2="102.2344"/><line style="stroke:#006400;stroke-width:2.0;" x1="585" x2="585" y1="88.2344" y2="102.2344"/><line style="stroke:#006400;stroke-width:2.0;" x1="590" x2="590" y1="88.2344" y2="102.2344"/><line style="stroke:#006400;stroke-width:2.0;" x1="595" x2="595" y1="88.2344" y2="102.2344"/><line style="stroke:#006400;stroke-width:2.0;" x1="600" x2="600" y1="88.2344" y2="102.2344"/><line style="stroke:#006400;stroke-width:2.0;" x1="605" x2="605" y1="88.2344" y2="102.2344"/><line style="stroke:#006400;stroke-width:2.0;" x1="610" x2="610" y1="88.2344" y2="102.2344"/><line style="stroke:#006400;stroke-width:2.0;" x1="610" x2="735" y1="88.2344" y2="88.2344"/><line style="stroke:#006400;stroke-width:2.0;" x1="735" x2="735" y1="88.2344" y2="102.2344"/><line style="stroke:#006400;stroke-width:2.0;" x1="735" x2="735" y1="88.2344" y2="102.2344"/><line style="stroke:#006400;stroke-width:2.0;" x1="740" x2="740" y1="88.2344" y2="102.2344"/><line style="stroke:#006400;stroke-width:2.0;" x1="745" x2="745" y1="88.2344" y2="102.2344"/><line style="stroke:#006400;stroke-width:2.0;" x1="750" x2="750" y1="88.2344" y2="102.2344"/><line style="stroke:#006400;stroke-width:2.0;" x1="755" x2="755" y1="88.2344" y2="102.2344"/><line style="stroke:#006400;stroke-width:2.0;" x1="760" x2="760" y1="88.2344" y2="102.2344"/><line style="stroke:#006400;stroke-width:2.0;" x1="765" x2="765" y1="88.2344" y2="102.2344"/><line style="stroke:#006400;stroke-width:2.0;" x1="770" x2="770" y1="88.2344" y2="102.2344"/><line style="stroke:#006400;stroke-width:2.0;" x1="775" x2="775" y1="88.2344" y2="102.2344"/><line style="stroke:#006400;stroke-width:2.0;" x1="780" x2="780" y1="88.2344" y2="102.2344"/><line style="stroke:#006400;stroke-width:2.0;" x1="785" x2="785" y1="88.2344" y2="102.2344"/><line style="stroke:#006400;stroke-width:2.0;" x1="790" x2="790" y1="88.2344" y2="102.2344"/><line style="stroke:#006400;stroke-width:2.0;" x1="795" x2="795" y1="88.2344" y2="102.2344"/><line style="stroke:#006400;stroke-width:2.0;" x1="800" x2="800" y1="88.2344" y2="102.2344"/><line style="stroke:#006400;stroke-width:2.0;" x1="805" x2="805" y1="88.2344" y2="102.2344"/><line style="stroke:#006400;stroke-width:2.0;" x1="810" x2="810" y1="88.2344" y2="102.2344"/><line style="stroke:#006400;stroke-width:2.0;" x1="815" x2="815" y1="88.2344" y2="102.2344"/><line style="stroke:#006400;stroke-width:2.0;" x1="820" x2="820" y1="88.2344" y2="102.2344"/><line style="stroke:#006400;stroke-width:2.0;" x1="825" x2="825" y1="88.2344" y2="102.2344"/><line style="stroke:#006400;stroke-width:2.0;" x1="830" x2="830" y1="88.2344" y2="102.2344"/><line style="stroke:#006400;stroke-width:2.0;" x1="835" x2="835" y1="88.2344" y2="102.2344"/><line style="stroke:#006400;stroke-width:2.0;" x1="840" x2="840" y1="88.2344" y2="102.2344"/><line style="stroke:#006400;stroke-width:2.0;" x1="845" x2="845" y1="88.2344" y2="102.2344"/><line style="stroke:#006400;stroke-width:2.0;" x1="850" x2="850" y1="88.2344" y2="102.2344"/><line style="stroke:#006400;stroke-width:2.0;" x1="855" x2="855" y1="88.2344" y2="102.2344"/><line style="stroke:#006400;stroke-width:2.0;" x1="860" x2="860" y1="88.2344" y2="102.2344"/><line style="stroke:#006400;stroke-width:2.0;" x1="865" x2="865" y1="88.2344" y2="102.2344"/><line style="stroke:#006400;stroke-width:2.0;" x1="870" x2="870" y1="88.2344" y2="102.2344"/><line style="stroke:#006400;stroke-width:2.0;" x1="875" x2="875" y1="88.2344" y2="102.2344"/><line style="stroke:#006400;stroke-width:2.0;" x1="880" x2="880" y1="88.2344" y2="102.2344"/><line style="stroke:#006400;stroke-width:2.0;" x1="885" x2="885" y1="88.2344" y2="102.2344"/><line style="stroke:#006400;stroke-width:2.0;" x1="890" x2="890" y1="88.2344" y2="102.2344"/><line style="stroke:#006400;stroke-width:2.0;" x1="895" x2="895" y1="88.2344" y2="102.2344"/><line style="stroke:#006400;stroke-width:2.0;" x1="900" x2="900" y1="88.2344" y2="102.2344"/><line style="stroke:#006400;stroke-width:2.0;" x1="905" x2="905" y1="88.2344" y2="102.2344"/><line style="stroke:#006400;stroke-width:2.0;" x1="910" x2="910" y1="88.2344" y2="102.2344"/><line style="stroke:#006400;stroke-width:2.0;" x1="915" x2="915" y1="88.2344" y2="102.2344"/><line style="stroke:#006400;stroke-width:2.0;" x1="920" x2="920" y1="88.2344" y2="102.2344"/><line style="stroke:#006400;stroke-width:2.0;" x1="925" x2="925" y1="88.2344" y2="102.2344"/><line style="stroke:#006400;stroke-width:2.0;" x1="930" x2="930" y1="88.2344" y2="102.2344"/><line style="stroke:#006400;stroke-width:2.0;" x1="935" x2="935" y1="88.2344" y2="102.2344"/><line style="stroke:#006400;stroke-width:2.0;" x1="935" x2="1185" y1="102.2344" y2="102.2344"/><line style="stroke:#8B0000;stroke-width:1.5;" x1="412.5" x2="607.5" y1="80.2344" y2="80.2344"/><polygon fill="#8B0000" points="420.5,84.2344,420.5,76.2344,412.5,80.2344" style="stroke:#8B0000;stroke-width:2.0;"/><polygon fill="#8B0000" points="599.5,84.2344,599.5,76.2344,607.5,80.2344" style="stroke:#8B0000;stroke-width:2.0;"/><text fill="#8B0000" font-family="sans-serif" font-size="12" lengthAdjust="spacing" textLength="58" x="481" y="72.4043">bouncing</text><line style="stroke:#8B0000;stroke-width:1.5;" x1="737.5" x2="932.5" y1="80.2344" y2="80.2344"/><polygon fill="#8B0000" points="745.5,84.2344,745.5,76.2344,737.5,80.2344" style="stroke:#8B0000;stroke-width:2.0;"/><polygon fill="#8B0000" points="924.5,84.2344,924.5,76.2344,932.5,80.2344" style="stroke:#8B0000;stroke-width:2.0;"/><text fill="#8B0000" font-family="sans-serif" font-size="12" lengthAdjust="spacing" textLength="58" x="806" y="72.4043">bouncing</text><path d="M410,111.2344 L410,136.3672 L545,136.3672 L545,121.2344 L535,111.2344 L410,111.2344 " fill="#FEFFDD" style="stroke:#333333;stroke-width:0.5;"/><path d="M535,111.2344 L535,121.2344 L545,121.2344 L535,111.2344 " fill="#FEFFDD" style="stroke:#333333;stroke-width:0.5;"/><text fill="#333333" font-family="sans-serif" font-size="13" font-weight="bold" lengthAdjust="spacing" textLength="114" x="416" y="128.3013">button pressed</text><path d="M735,111.2344 L735,136.3672 L874,136.3672 L874,121.2344 L864,111.2344 L735,111.2344 " fill="#FEFFDD" style="stroke:#333333;stroke-width:0.5;"/><path d="M864,111.2344 L864,121.2344 L874,121.2344 L864,111.2344 " fill="#FEFFDD" style="stroke:#333333;stroke-width:0.5;"/><text fill="#333333" font-family="sans-serif" font-size="13" font-weight="bold" lengthAdjust="spacing" textLength="118" x="741" y="128.3013">button released</text><line style="stroke:#333333;stroke-width:0.5;" x1="10" x2="1190" y1="145.3672" y2="145.3672"/><text fill="#333333" font-family="sans-serif" font-size="14" font-weight="bold" lengthAdjust="spacing" textLength="140" x="15" y="182.7803">debounced signal</text><line style="stroke:#006400;stroke-width:2.0;" x1="160" x2="160" y1="202.5" y2="202.5"/><line style="stroke:#006400;stroke-width:2.0;" x1="160" x2="410" y1="202.5" y2="202.5"/><line style="stroke:#006400;stroke-width:2.0;" x1="410" x2="410" y1="188.5" y2="202.5"/><line style="stroke:#006400;stroke-width:2.0;" x1="410" x2="735" y1="188.5" y2="188.5"/><line style="stroke:#006400;stroke-width:2.0;" x1="735" x2="735" y1="188.5" y2="202.5"/><line style="stroke:#006400;stroke-width:2.0;" x1="735" x2="1185" y1="202.5" y2="202.5"/><path d="M160,153.3672 L160,178.5 L264,178.5 L264,163.3672 L254,153.3672 L160,153.3672 " fill="#FEFFDD" style="stroke:#333333;stroke-width:0.5;"/><path d="M254,153.3672 L254,163.3672 L264,163.3672 L254,153.3672 " fill="#FEFFDD" style="stroke:#333333;stroke-width:0.5;"/><text fill="#333333" font-family="sans-serif" font-size="13" font-weight="bold" lengthAdjust="spacing" textLength="83" x="166" y="170.4341">debounced</text><line style="stroke:#00008B;stroke-width:1.5;" x1="410" x2="410" y1="88.2344" y2="188.5"/><polygon fill="#00008B" points="407.2638,180.9825,412.7362,180.9825,410,188.5" style="stroke:#00008B;stroke-width:1.5;"/><text fill="#00008B" font-family="Serif" font-size="14" lengthAdjust="spacing" textLength="144" x="410" y="177.6807">rising edge detected</text><line style="stroke:#00008B;stroke-width:1.5;" x1="735" x2="735" y1="88.2344" y2="188.5"/><polygon fill="#00008B" points="732.2638,180.9825,737.7362,180.9825,735,188.5" style="stroke:#00008B;stroke-width:1.5;"/><text fill="#00008B" font-family="Serif" font-size="14" lengthAdjust="spacing" textLength="147" x="735" y="177.6807">falling edge detected</text><line style="stroke:#333333;stroke-width:2.0;stroke-dasharray:4.0,4.0;" x1="410" x2="410" y1="47.2969" y2="210.5"/><line style="stroke:#333333;stroke-width:2.0;stroke-dasharray:4.0,4.0;" x1="660" x2="660" y1="47.2969" y2="210.5"/><text fill="#000000" font-family="sans-serif" font-size="12" lengthAdjust="spacing" textLength="143" x="413" y="60.4355">state changes ignored</text><line style="stroke:#333333;stroke-width:2.0;stroke-dasharray:4.0,4.0;" x1="735" x2="735" y1="47.2969" y2="210.5"/><line style="stroke:#333333;stroke-width:2.0;stroke-dasharray:4.0,4.0;" x1="985" x2="985" y1="47.2969" y2="210.5"/><text fill="#000000" font-family="sans-serif" font-size="12" lengthAdjust="spacing" textLength="143" x="738" y="60.4355">state changes ignored</text><text fill="#000000" font-family="sans-serif" font-size="14" lengthAdjust="spacing" textLength="176" x="511.5" y="237.2998">debouncing normal pulse</text><!--SRC=[bP3HQiCm34NV_HMYhrb7CoYCCaOe-H4dKHE1QnbBsLh6_droitQ3iOS-62Fh7jqhAsb06B3ZEVOKH-ZEa5XqZMyO5GuK5BEzxo2oWZA3J9pLzJufSVnDHiv77o3DGT1DD20e7N7jJoHEUcysDNY1f-q64fqmYEie-do6rK0ZgQ4Kqwoh8cf_Uei13Y0qHXykxRrppSQrG0A1tvr5CpDEm0VOmmvkZDjV9KrLB_eFgnuc6gVF1UjObO-5R8tiPgiYf8mYXhTDjO6NzIlO_VXS-j_BsYnxBLwPf2oFmrY-KR5NuyhyO4V1U6MeQbEAUlFh9nz75B1bE5yJ5hsxU2mXR_NsZj0P0_fBwcksWm_XRxZ_bxetzlAnjzHMVW40]--></g></svg>