<?xml version="1.0" encoding="UTF-8" standalone="no"?>
<!DOCTYPE svg PUBLIC "-//W3C//DTD SVG 1.1//EN"
 "http://www.w3.org/Graphics/SVG/1.1/DTD/svg11.dtd">
<!-- Generated by graphviz version 2.43.0 (0)
 -->
<!-- Title: lib/application_business_rules/user_interaction/keypad_factory_interface.hpp Pages: 1 -->
<svg width="172pt" height="218pt"
 viewBox="0.00 0.00 172.00 218.00" xmlns="http://www.w3.org/2000/svg" xmlns:xlink="http://www.w3.org/1999/xlink">
<g id="graph0" class="graph" transform="scale(1 1) rotate(0) translate(4 214)">
<title>lib/application_business_rules/user_interaction/keypad_factory_interface.hpp</title>
<polygon fill="white" stroke="transparent" points="-4,4 -4,-214 168,-214 168,4 -4,4"/>
<!-- Node1 -->
<g id="node1" class="node">
<title>Node1</title>
<g id="a_node1"><a xlink:title="Dependency injection for the keypad.">
<polygon fill="#bfbfbf" stroke="black" points="0,-168.5 0,-209.5 164,-209.5 164,-168.5 0,-168.5"/>
<text text-anchor="start" x="8" y="-197.5" font-family="Helvetica,sans-Serif" font-size="10.00">lib/application_business</text>
<text text-anchor="start" x="8" y="-186.5" font-family="Helvetica,sans-Serif" font-size="10.00">_rules/user_interaction</text>
<text text-anchor="middle" x="82" y="-175.5" font-family="Helvetica,sans-Serif" font-size="10.00">/keypad_factory_interface.hpp</text>
</a>
</g>
</g>
<!-- Node2 -->
<g id="node2" class="node">
<title>Node2</title>
<g id="a_node2"><a xlink:href="IKeypad_8hpp.xhtml" target="_top" xlink:title=" ">
<polygon fill="white" stroke="black" points="43.5,-112.5 43.5,-131.5 120.5,-131.5 120.5,-112.5 43.5,-112.5"/>
<text text-anchor="middle" x="82" y="-119.5" font-family="Helvetica,sans-Serif" font-size="10.00">IKeypad.hpp</text>
</a>
</g>
</g>
<!-- Node1&#45;&gt;Node2 -->
<g id="edge1" class="edge">
<title>Node1&#45;&gt;Node2</title>
<path fill="none" stroke="midnightblue" d="M82,-168.5C82,-160.07 82,-150.24 82,-141.87"/>
<polygon fill="midnightblue" stroke="midnightblue" points="85.5,-141.65 82,-131.65 78.5,-141.65 85.5,-141.65"/>
</g>
<!-- Node3 -->
<g id="node3" class="node">
<title>Node3</title>
<g id="a_node3"><a xlink:href="KeyIds_8hpp.xhtml" target="_top" xlink:title=" ">
<polygon fill="white" stroke="black" points="4,-56.5 4,-75.5 74,-75.5 74,-56.5 4,-56.5"/>
<text text-anchor="middle" x="39" y="-63.5" font-family="Helvetica,sans-Serif" font-size="10.00">KeyIds.hpp</text>
</a>
</g>
</g>
<!-- Node2&#45;&gt;Node3 -->
<g id="edge2" class="edge">
<title>Node2&#45;&gt;Node3</title>
<path fill="none" stroke="midnightblue" d="M74.9,-112.08C68.76,-104.38 59.73,-93.03 52.26,-83.65"/>
<polygon fill="midnightblue" stroke="midnightblue" points="54.94,-81.39 45.97,-75.75 49.46,-85.75 54.94,-81.39"/>
</g>
<!-- Node5 -->
<g id="node5" class="node">
<title>Node5</title>
<g id="a_node5"><a xlink:title=" ">
<polygon fill="white" stroke="#bfbfbf" points="92.5,-56.5 92.5,-75.5 157.5,-75.5 157.5,-56.5 92.5,-56.5"/>
<text text-anchor="middle" x="125" y="-63.5" font-family="Helvetica,sans-Serif" font-size="10.00">functional</text>
</a>
</g>
</g>
<!-- Node2&#45;&gt;Node5 -->
<g id="edge4" class="edge">
<title>Node2&#45;&gt;Node5</title>
<path fill="none" stroke="midnightblue" d="M89.1,-112.08C95.24,-104.38 104.27,-93.03 111.74,-83.65"/>
<polygon fill="midnightblue" stroke="midnightblue" points="114.54,-85.75 118.03,-75.75 109.06,-81.39 114.54,-85.75"/>
</g>
<!-- Node4 -->
<g id="node4" class="node">
<title>Node4</title>
<g id="a_node4"><a xlink:title=" ">
<polygon fill="white" stroke="#bfbfbf" points="10.5,-0.5 10.5,-19.5 67.5,-19.5 67.5,-0.5 10.5,-0.5"/>
<text text-anchor="middle" x="39" y="-7.5" font-family="Helvetica,sans-Serif" font-size="10.00">ostream</text>
</a>
</g>
</g>
<!-- Node3&#45;&gt;Node4 -->
<g id="edge3" class="edge">
<title>Node3&#45;&gt;Node4</title>
<path fill="none" stroke="midnightblue" d="M39,-56.08C39,-49.01 39,-38.86 39,-29.99"/>
<polygon fill="midnightblue" stroke="midnightblue" points="42.5,-29.75 39,-19.75 35.5,-29.75 42.5,-29.75"/>
</g>
</g>
</svg>
