<?xml version="1.0" encoding="UTF-8" standalone="no"?>
<!DOCTYPE svg PUBLIC "-//W3C//DTD SVG 1.1//EN"
 "http://www.w3.org/Graphics/SVG/1.1/DTD/svg11.dtd">
<!-- Generated by graphviz version 2.43.0 (0)
 -->
<!-- Title: lib/board_adapters/status_indicators/status_indicators.hpp Pages: 1 -->
<svg width="256pt" height="173pt"
 viewBox="0.00 0.00 256.00 173.00" xmlns="http://www.w3.org/2000/svg" xmlns:xlink="http://www.w3.org/1999/xlink">
<g id="graph0" class="graph" transform="scale(1 1) rotate(0) translate(4 169)">
<title>lib/board_adapters/status_indicators/status_indicators.hpp</title>
<polygon fill="white" stroke="transparent" points="-4,4 -4,-169 252,-169 252,4 -4,4"/>
<!-- Node1 -->
<g id="node1" class="node">
<title>Node1</title>
<g id="a_node1"><a xlink:title=" ">
<polygon fill="#bfbfbf" stroke="black" points="47,-123.5 47,-164.5 183,-164.5 183,-123.5 47,-123.5"/>
<text text-anchor="start" x="55" y="-152.5" font-family="Helvetica,sans-Serif" font-size="10.00">lib/board_adapters</text>
<text text-anchor="start" x="55" y="-141.5" font-family="Helvetica,sans-Serif" font-size="10.00">/status_indicators/status</text>
<text text-anchor="middle" x="115" y="-130.5" font-family="Helvetica,sans-Serif" font-size="10.00">_indicators.hpp</text>
</a>
</g>
</g>
<!-- Node2 -->
<g id="node2" class="node">
<title>Node2</title>
<g id="a_node2"><a xlink:href="board__types_8hpp.xhtml" target="_top" xlink:title=" ">
<polygon fill="white" stroke="black" points="0,-62 0,-81 98,-81 98,-62 0,-62"/>
<text text-anchor="middle" x="49" y="-69" font-family="Helvetica,sans-Serif" font-size="10.00">board_types.hpp</text>
</a>
</g>
</g>
<!-- Node1&#45;&gt;Node2 -->
<g id="edge1" class="edge">
<title>Node1&#45;&gt;Node2</title>
<path fill="none" stroke="midnightblue" d="M96.62,-123.36C86.38,-112.43 73.8,-98.99 64.14,-88.67"/>
<polygon fill="midnightblue" stroke="midnightblue" points="66.51,-86.08 57.12,-81.17 61.4,-90.87 66.51,-86.08"/>
</g>
<!-- Node4 -->
<g id="node4" class="node">
<title>Node4</title>
<g id="a_node4"><a xlink:href="IStatusIndicator_8hpp.xhtml" target="_top" xlink:title=" ">
<polygon fill="white" stroke="black" points="116,-56.5 116,-86.5 248,-86.5 248,-56.5 116,-56.5"/>
<text text-anchor="start" x="124" y="-74.5" font-family="Helvetica,sans-Serif" font-size="10.00">user_interaction/IStatus</text>
<text text-anchor="middle" x="182" y="-63.5" font-family="Helvetica,sans-Serif" font-size="10.00">Indicator.hpp</text>
</a>
</g>
</g>
<!-- Node1&#45;&gt;Node4 -->
<g id="edge3" class="edge">
<title>Node1&#45;&gt;Node4</title>
<path fill="none" stroke="midnightblue" d="M133.66,-123.36C142.25,-114.32 152.48,-103.57 161.3,-94.28"/>
<polygon fill="midnightblue" stroke="midnightblue" points="163.97,-96.55 168.32,-86.89 158.9,-91.73 163.97,-96.55"/>
</g>
<!-- Node3 -->
<g id="node3" class="node">
<title>Node3</title>
<g id="a_node3"><a xlink:title=" ">
<polygon fill="white" stroke="#bfbfbf" points="24,-0.5 24,-19.5 74,-19.5 74,-0.5 24,-0.5"/>
<text text-anchor="middle" x="49" y="-7.5" font-family="Helvetica,sans-Serif" font-size="10.00">cstdint</text>
</a>
</g>
</g>
<!-- Node2&#45;&gt;Node3 -->
<g id="edge2" class="edge">
<title>Node2&#45;&gt;Node3</title>
<path fill="none" stroke="midnightblue" d="M49,-61.98C49,-53.58 49,-40.48 49,-29.66"/>
<polygon fill="midnightblue" stroke="midnightblue" points="52.5,-29.51 49,-19.51 45.5,-29.51 52.5,-29.51"/>
</g>
</g>
</svg>
