<?xml version="1.0" encoding="UTF-8" standalone="no"?>
<!DOCTYPE svg PUBLIC "-//W3C//DTD SVG 1.1//EN"
 "http://www.w3.org/Graphics/SVG/1.1/DTD/svg11.dtd">
<!-- Generated by graphviz version 2.43.0 (0)
 -->
<!-- Title: command_line_interpreter::Command&lt; CharType, ReturnType, ArgTypes &gt; Pages: 1 -->
<svg width="201pt" height="270pt"
 viewBox="0.00 0.00 201.00 270.00" xmlns="http://www.w3.org/2000/svg" xmlns:xlink="http://www.w3.org/1999/xlink">
<g id="graph0" class="graph" transform="scale(1 1) rotate(0) translate(4 266)">
<title>command_line_interpreter::Command&lt; CharType, ReturnType, ArgTypes &gt;</title>
<polygon fill="white" stroke="transparent" points="-4,4 -4,-266 197,-266 197,4 -4,4"/>
<!-- Node1 -->
<g id="node1" class="node">
<title>Node1</title>
<g id="a_node1"><a xlink:title="Combines a command with a function.">
<polygon fill="#bfbfbf" stroke="black" points="0,-0.5 0,-123.5 193,-123.5 193,-0.5 0,-0.5"/>
<text text-anchor="start" x="8" y="-111.5" font-family="Helvetica,sans-Serif" font-size="10.00">command_line_interpreter</text>
<text text-anchor="start" x="8" y="-100.5" font-family="Helvetica,sans-Serif" font-size="10.00">::Command&lt; CharType, ReturnType,</text>
<text text-anchor="middle" x="96.5" y="-89.5" font-family="Helvetica,sans-Serif" font-size="10.00"> ArgTypes &gt;</text>
<polyline fill="none" stroke="black" points="0,-82.5 193,-82.5 "/>
<text text-anchor="start" x="8" y="-70.5" font-family="Helvetica,sans-Serif" font-size="10.00">+ options</text>
<text text-anchor="start" x="8" y="-59.5" font-family="Helvetica,sans-Serif" font-size="10.00">+ handler</text>
<polyline fill="none" stroke="black" points="0,-52.5 193,-52.5 "/>
<text text-anchor="start" x="8" y="-40.5" font-family="Helvetica,sans-Serif" font-size="10.00">+ execute()</text>
<text text-anchor="start" x="8" y="-29.5" font-family="Helvetica,sans-Serif" font-size="10.00">+ execute()</text>
<text text-anchor="start" x="8" y="-18.5" font-family="Helvetica,sans-Serif" font-size="10.00">+ generateHelpMessage()</text>
<text text-anchor="start" x="8" y="-7.5" font-family="Helvetica,sans-Serif" font-size="10.00">+ Command()</text>
</a>
</g>
</g>
<!-- Node2 -->
<g id="node2" class="node">
<title>Node2</title>
<g id="a_node2"><a xlink:href="structcommand__line__interpreter_1_1BaseCommand.xhtml" target="_top" xlink:title="Interface for all Command.">
<polygon fill="white" stroke="black" points="14.5,-160.5 14.5,-261.5 178.5,-261.5 178.5,-160.5 14.5,-160.5"/>
<text text-anchor="start" x="22.5" y="-249.5" font-family="Helvetica,sans-Serif" font-size="10.00">command_line_interpreter</text>
<text text-anchor="middle" x="96.5" y="-238.5" font-family="Helvetica,sans-Serif" font-size="10.00">::BaseCommand&lt; CharType &gt;</text>
<polyline fill="none" stroke="black" points="14.5,-231.5 178.5,-231.5 "/>
<text text-anchor="start" x="22.5" y="-219.5" font-family="Helvetica,sans-Serif" font-size="10.00">+ commandName</text>
<polyline fill="none" stroke="black" points="14.5,-212.5 178.5,-212.5 "/>
<text text-anchor="start" x="22.5" y="-200.5" font-family="Helvetica,sans-Serif" font-size="10.00">+ BaseCommand()</text>
<text text-anchor="start" x="22.5" y="-189.5" font-family="Helvetica,sans-Serif" font-size="10.00">+ execute()</text>
<text text-anchor="start" x="22.5" y="-178.5" font-family="Helvetica,sans-Serif" font-size="10.00">+ generateHelpMessage()</text>
<text text-anchor="start" x="22.5" y="-167.5" font-family="Helvetica,sans-Serif" font-size="10.00">+ ~BaseCommand()</text>
</a>
</g>
</g>
<!-- Node2&#45;&gt;Node1 -->
<g id="edge1" class="edge">
<title>Node2&#45;&gt;Node1</title>
<path fill="none" stroke="midnightblue" d="M96.5,-150.14C96.5,-141.41 96.5,-132.42 96.5,-123.67"/>
<polygon fill="none" stroke="midnightblue" points="93,-150.23 96.5,-160.23 100,-150.23 93,-150.23"/>
</g>
</g>
</svg>
