<?xml version="1.0" encoding="UTF-8" standalone="no"?>
<!DOCTYPE svg PUBLIC "-//W3C//DTD SVG 1.1//EN"
 "http://www.w3.org/Graphics/SVG/1.1/DTD/svg11.dtd">
<!-- Generated by graphviz version 2.43.0 (0)
 -->
<!-- Title: test/test_tasks/task.cpp Pages: 1 -->
<svg width="351pt" height="140pt"
 viewBox="0.00 0.00 350.50 140.00" xmlns="http://www.w3.org/2000/svg" xmlns:xlink="http://www.w3.org/1999/xlink">
<g id="graph0" class="graph" transform="scale(1 1) rotate(0) translate(4 136)">
<title>test/test_tasks/task.cpp</title>
<polygon fill="white" stroke="transparent" points="-4,4 -4,-136 346.5,-136 346.5,4 -4,4"/>
<!-- Node1 -->
<g id="node1" class="node">
<title>Node1</title>
<g id="a_node1"><a xlink:title=" ">
<polygon fill="#bfbfbf" stroke="black" points="148.5,-112.5 148.5,-131.5 281.5,-131.5 281.5,-112.5 148.5,-112.5"/>
<text text-anchor="middle" x="215" y="-119.5" font-family="Helvetica,sans-Serif" font-size="10.00">test/test_tasks/task.cpp</text>
</a>
</g>
</g>
<!-- Node2 -->
<g id="node2" class="node">
<title>Node2</title>
<g id="a_node2"><a xlink:href="Task_8hpp.xhtml" target="_top" xlink:title=" ">
<polygon fill="white" stroke="black" points="42.5,-56.5 42.5,-75.5 131.5,-75.5 131.5,-56.5 42.5,-56.5"/>
<text text-anchor="middle" x="87" y="-63.5" font-family="Helvetica,sans-Serif" font-size="10.00">tasks/Task.hpp</text>
</a>
</g>
</g>
<!-- Node1&#45;&gt;Node2 -->
<g id="edge1" class="edge">
<title>Node1&#45;&gt;Node2</title>
<path fill="none" stroke="midnightblue" d="M194.72,-112.44C173.65,-103.56 140.48,-89.56 116.51,-79.45"/>
<polygon fill="midnightblue" stroke="midnightblue" points="117.76,-76.18 107.19,-75.52 115.04,-82.63 117.76,-76.18"/>
</g>
<!-- Node6 -->
<g id="node6" class="node">
<title>Node6</title>
<g id="a_node6"><a xlink:title=" ">
<polygon fill="white" stroke="#bfbfbf" points="149,-56.5 149,-75.5 209,-75.5 209,-56.5 149,-56.5"/>
<text text-anchor="middle" x="179" y="-63.5" font-family="Helvetica,sans-Serif" font-size="10.00">iostream</text>
</a>
</g>
</g>
<!-- Node1&#45;&gt;Node6 -->
<g id="edge5" class="edge">
<title>Node1&#45;&gt;Node6</title>
<path fill="none" stroke="midnightblue" d="M209.06,-112.08C204.02,-104.53 196.66,-93.49 190.49,-84.23"/>
<polygon fill="midnightblue" stroke="midnightblue" points="193.29,-82.13 184.83,-75.75 187.47,-86.01 193.29,-82.13"/>
</g>
<!-- Node7 -->
<g id="node7" class="node">
<title>Node7</title>
<g id="a_node7"><a xlink:title=" ">
<polygon fill="white" stroke="#bfbfbf" points="227,-56.5 227,-75.5 275,-75.5 275,-56.5 227,-56.5"/>
<text text-anchor="middle" x="251" y="-63.5" font-family="Helvetica,sans-Serif" font-size="10.00">thread</text>
</a>
</g>
</g>
<!-- Node1&#45;&gt;Node7 -->
<g id="edge6" class="edge">
<title>Node1&#45;&gt;Node7</title>
<path fill="none" stroke="midnightblue" d="M220.94,-112.08C225.98,-104.53 233.34,-93.49 239.51,-84.23"/>
<polygon fill="midnightblue" stroke="midnightblue" points="242.53,-86.01 245.17,-75.75 236.71,-82.13 242.53,-86.01"/>
</g>
<!-- Node8 -->
<g id="node8" class="node">
<title>Node8</title>
<g id="a_node8"><a xlink:title=" ">
<polygon fill="white" stroke="#bfbfbf" points="293.5,-56.5 293.5,-75.5 342.5,-75.5 342.5,-56.5 293.5,-56.5"/>
<text text-anchor="middle" x="318" y="-63.5" font-family="Helvetica,sans-Serif" font-size="10.00">unity.h</text>
</a>
</g>
</g>
<!-- Node1&#45;&gt;Node8 -->
<g id="edge7" class="edge">
<title>Node1&#45;&gt;Node8</title>
<path fill="none" stroke="midnightblue" d="M231.55,-112.32C247.99,-103.7 273.43,-90.36 292.47,-80.39"/>
<polygon fill="midnightblue" stroke="midnightblue" points="294.26,-83.4 301.49,-75.65 291.01,-77.2 294.26,-83.4"/>
</g>
<!-- Node3 -->
<g id="node3" class="node">
<title>Node3</title>
<g id="a_node3"><a xlink:title=" ">
<polygon fill="white" stroke="#bfbfbf" points="0,-0.5 0,-19.5 50,-19.5 50,-0.5 0,-0.5"/>
<text text-anchor="middle" x="25" y="-7.5" font-family="Helvetica,sans-Serif" font-size="10.00">chrono</text>
</a>
</g>
</g>
<!-- Node2&#45;&gt;Node3 -->
<g id="edge2" class="edge">
<title>Node2&#45;&gt;Node3</title>
<path fill="none" stroke="midnightblue" d="M77.04,-56.32C67.87,-48.34 54.06,-36.31 42.97,-26.65"/>
<polygon fill="midnightblue" stroke="midnightblue" points="44.98,-23.76 35.14,-19.83 40.38,-29.04 44.98,-23.76"/>
</g>
<!-- Node4 -->
<g id="node4" class="node">
<title>Node4</title>
<g id="a_node4"><a xlink:title=" ">
<polygon fill="white" stroke="#bfbfbf" points="68,-0.5 68,-19.5 106,-19.5 106,-0.5 68,-0.5"/>
<text text-anchor="middle" x="87" y="-7.5" font-family="Helvetica,sans-Serif" font-size="10.00">map</text>
</a>
</g>
</g>
<!-- Node2&#45;&gt;Node4 -->
<g id="edge3" class="edge">
<title>Node2&#45;&gt;Node4</title>
<path fill="none" stroke="midnightblue" d="M87,-56.08C87,-49.01 87,-38.86 87,-29.99"/>
<polygon fill="midnightblue" stroke="midnightblue" points="90.5,-29.75 87,-19.75 83.5,-29.75 90.5,-29.75"/>
</g>
<!-- Node5 -->
<g id="node5" class="node">
<title>Node5</title>
<g id="a_node5"><a xlink:title=" ">
<polygon fill="white" stroke="#bfbfbf" points="124,-0.5 124,-19.5 168,-19.5 168,-0.5 124,-0.5"/>
<text text-anchor="middle" x="146" y="-7.5" font-family="Helvetica,sans-Serif" font-size="10.00">string</text>
</a>
</g>
</g>
<!-- Node2&#45;&gt;Node5 -->
<g id="edge4" class="edge">
<title>Node2&#45;&gt;Node5</title>
<path fill="none" stroke="midnightblue" d="M96.48,-56.32C105.2,-48.34 118.34,-36.31 128.9,-26.65"/>
<polygon fill="midnightblue" stroke="midnightblue" points="131.33,-29.17 136.35,-19.83 126.61,-24 131.33,-29.17"/>
</g>
</g>
</svg>
