<?xml version="1.0" encoding="UTF-8" standalone="no"?>
<!DOCTYPE svg PUBLIC "-//W3C//DTD SVG 1.1//EN"
 "http://www.w3.org/Graphics/SVG/1.1/DTD/svg11.dtd">
<!-- Generated by graphviz version 7.0.5 (20221223.1930)
 -->
<!-- Title: lib/board_adapters/input_device_interface/Keypad.cpp Pages: 1 -->
<svg width="1040pt" height="269pt"
 viewBox="0.00 0.00 1040.00 269.00" xmlns="http://www.w3.org/2000/svg" xmlns:xlink="http://www.w3.org/1999/xlink">
<g id="graph0" class="graph" transform="scale(1 1) rotate(0) translate(4 265)">
<title>lib/board_adapters/input_device_interface/Keypad.cpp</title>
<!-- Node1 -->
<g id="node1" class="node">
<title>Node1</title>
<g id="a_node1"><a xlink:title=" ">
<polygon fill="#999999" stroke="#666666" points="609.5,-261 492.5,-261 492.5,-220 609.5,-220 609.5,-261"/>
<text text-anchor="start" x="500.5" y="-249" font-family="Helvetica,sans-Serif" font-size="10.00">lib/board_adapters</text>
<text text-anchor="start" x="500.5" y="-238" font-family="Helvetica,sans-Serif" font-size="10.00">/input_device_interface</text>
<text text-anchor="middle" x="551" y="-227" font-family="Helvetica,sans-Serif" font-size="10.00">/Keypad.cpp</text>
</a>
</g>
</g>
<!-- Node2 -->
<g id="node2" class="node">
<title>Node2</title>
<g id="a_node2"><a xlink:href="Keypad_8hpp.xhtml" target="_top" xlink:title=" ">
<polygon fill="white" stroke="#666666" points="123.5,-184 56.5,-184 56.5,-165 123.5,-165 123.5,-184"/>
<text text-anchor="middle" x="90" y="-172" font-family="Helvetica,sans-Serif" font-size="10.00">Keypad.hpp</text>
</a>
</g>
</g>
<!-- Node1&#45;&gt;Node2 -->
<g id="edge1" class="edge">
<title>Node1&#45;&gt;Node2</title>
<path fill="none" stroke="#63b8ff" d="M492.15,-231.33C398.83,-218.38 218.94,-193.4 135.08,-181.76"/>
<polygon fill="#63b8ff" stroke="#63b8ff" points="135.79,-178.32 125.41,-180.42 134.83,-185.26 135.79,-178.32"/>
</g>
<!-- Node6 -->
<g id="node6" class="node">
<title>Node6</title>
<g id="a_node6"><a xlink:title=" ">
<polygon fill="#e0e0e0" stroke="#999999" points="199.5,-74 140.5,-74 140.5,-55 199.5,-55 199.5,-74"/>
<text text-anchor="middle" x="170" y="-62" font-family="Helvetica,sans-Serif" font-size="10.00">functional</text>
</a>
</g>
</g>
<!-- Node1&#45;&gt;Node6 -->
<g id="edge26" class="edge">
<title>Node1&#45;&gt;Node6</title>
<path fill="none" stroke="#63b8ff" d="M492.17,-238.61C400.73,-235.94 230.67,-225.39 189,-184 163.08,-158.26 163.75,-112.2 166.75,-85.72"/>
<polygon fill="#63b8ff" stroke="#63b8ff" points="170.19,-86.36 168.09,-75.97 163.26,-85.4 170.19,-86.36"/>
</g>
<!-- Node7 -->
<g id="node7" class="node">
<title>Node7</title>
<g id="a_node7"><a xlink:href="Arduino-wrapper_8h.xhtml" target="_top" xlink:title="Circumvents problematic processor macros defined by Arduino framework.">
<polygon fill="white" stroke="#666666" points="293.5,-184 198.5,-184 198.5,-165 293.5,-165 293.5,-184"/>
<text text-anchor="middle" x="246" y="-172" font-family="Helvetica,sans-Serif" font-size="10.00">Arduino&#45;wrapper.h</text>
</a>
</g>
</g>
<!-- Node1&#45;&gt;Node7 -->
<g id="edge6" class="edge">
<title>Node1&#45;&gt;Node7</title>
<path fill="none" stroke="#63b8ff" d="M492.19,-227.16C436.44,-215.46 353.4,-198.04 299.47,-186.72"/>
<polygon fill="#63b8ff" stroke="#63b8ff" points="300.42,-183.34 289.91,-184.71 298.98,-190.19 300.42,-183.34"/>
</g>
<!-- Node9 -->
<g id="node9" class="node">
<title>Node9</title>
<g id="a_node9"><a xlink:href="Worker_8hpp.xhtml" target="_top" xlink:title=" ">
<polygon fill="white" stroke="#666666" points="415.5,-184 350.5,-184 350.5,-165 415.5,-165 415.5,-184"/>
<text text-anchor="middle" x="383" y="-172" font-family="Helvetica,sans-Serif" font-size="10.00">Worker.hpp</text>
</a>
</g>
</g>
<!-- Node1&#45;&gt;Node9 -->
<g id="edge8" class="edge">
<title>Node1&#45;&gt;Node9</title>
<path fill="none" stroke="#63b8ff" d="M498.76,-219.6C471.99,-209.4 440.16,-197.28 416.67,-188.32"/>
<polygon fill="#63b8ff" stroke="#63b8ff" points="418.19,-185.16 407.59,-184.87 415.69,-191.7 418.19,-185.16"/>
</g>
<!-- Node10 -->
<g id="node10" class="node">
<title>Node10</title>
<g id="a_node10"><a xlink:title=" ">
<polygon fill="#e0e0e0" stroke="#999999" points="320,-129 274,-129 274,-110 320,-110 320,-129"/>
<text text-anchor="middle" x="297" y="-117" font-family="Helvetica,sans-Serif" font-size="10.00">chrono</text>
</a>
</g>
</g>
<!-- Node1&#45;&gt;Node10 -->
<g id="edge20" class="edge">
<title>Node1&#45;&gt;Node10</title>
<path fill="none" stroke="#63b8ff" d="M492.04,-234.95C447.19,-229.03 385.77,-215.4 341,-184 325.06,-172.82 313.05,-153.9 305.63,-139.61"/>
<polygon fill="#63b8ff" stroke="#63b8ff" points="308.85,-138.22 301.35,-130.74 302.55,-141.27 308.85,-138.22"/>
</g>
<!-- Node13 -->
<g id="node13" class="node">
<title>Node13</title>
<g id="a_node13"><a xlink:title=" ">
<polygon fill="#e0e0e0" stroke="#999999" points="595,-129 551,-129 551,-110 595,-110 595,-129"/>
<text text-anchor="middle" x="573" y="-117" font-family="Helvetica,sans-Serif" font-size="10.00">thread</text>
</a>
</g>
</g>
<!-- Node1&#45;&gt;Node13 -->
<g id="edge28" class="edge">
<title>Node1&#45;&gt;Node13</title>
<path fill="none" stroke="#63b8ff" d="M498.97,-219.57C472.27,-206.18 448.17,-186.99 463,-165 472,-151.65 510.99,-138.02 540.01,-129.42"/>
<polygon fill="#63b8ff" stroke="#63b8ff" points="540.85,-132.82 549.5,-126.7 538.92,-126.1 540.85,-132.82"/>
</g>
<!-- Node14 -->
<g id="node14" class="node">
<title>Node14</title>
<g id="a_node14"><a xlink:title=" ">
<polygon fill="#e0e0e0" stroke="#999999" points="510,-184 472,-184 472,-165 510,-165 510,-184"/>
<text text-anchor="middle" x="491" y="-172" font-family="Helvetica,sans-Serif" font-size="10.00">array</text>
</a>
</g>
</g>
<!-- Node1&#45;&gt;Node14 -->
<g id="edge14" class="edge">
<title>Node1&#45;&gt;Node14</title>
<path fill="none" stroke="#63b8ff" d="M532.34,-219.6C524.16,-210.87 514.65,-200.73 506.82,-192.38"/>
<polygon fill="#63b8ff" stroke="#63b8ff" points="509.55,-190.17 500.16,-185.27 504.44,-194.96 509.55,-190.17"/>
</g>
<!-- Node15 -->
<g id="node15" class="node">
<title>Node15</title>
<g id="a_node15"><a xlink:title=" ">
<polygon fill="#e0e0e0" stroke="#999999" points="574,-184 528,-184 528,-165 574,-165 574,-184"/>
<text text-anchor="middle" x="551" y="-172" font-family="Helvetica,sans-Serif" font-size="10.00">atomic</text>
</a>
</g>
</g>
<!-- Node1&#45;&gt;Node15 -->
<g id="edge15" class="edge">
<title>Node1&#45;&gt;Node15</title>
<path fill="none" stroke="#63b8ff" d="M551,-219.6C551,-211.98 551,-203.3 551,-195.66"/>
<polygon fill="#63b8ff" stroke="#63b8ff" points="554.5,-195.68 551,-185.68 547.5,-195.68 554.5,-195.68"/>
</g>
<!-- Node16 -->
<g id="node16" class="node">
<title>Node16</title>
<g id="a_node16"><a xlink:href="board__pins_8hpp.xhtml" target="_top" xlink:title="Provides named objects for the pins provided by the board.">
<polygon fill="white" stroke="#666666" points="674,-184 592,-184 592,-165 674,-165 674,-184"/>
<text text-anchor="middle" x="633" y="-172" font-family="Helvetica,sans-Serif" font-size="10.00">board_pins.hpp</text>
</a>
</g>
</g>
<!-- Node1&#45;&gt;Node16 -->
<g id="edge16" class="edge">
<title>Node1&#45;&gt;Node16</title>
<path fill="none" stroke="#63b8ff" d="M576.5,-219.6C588.28,-210.41 602.06,-199.65 613.07,-191.06"/>
<polygon fill="#63b8ff" stroke="#63b8ff" points="614.98,-194.01 620.71,-185.09 610.67,-188.49 614.98,-194.01"/>
</g>
<!-- Node19 -->
<g id="node19" class="node">
<title>Node19</title>
<g id="a_node19"><a xlink:title=" ">
<polygon fill="#e0e0e0" stroke="#999999" points="741.5,-184 692.5,-184 692.5,-165 741.5,-165 741.5,-184"/>
<text text-anchor="middle" x="717" y="-172" font-family="Helvetica,sans-Serif" font-size="10.00">cassert</text>
</a>
</g>
</g>
<!-- Node1&#45;&gt;Node19 -->
<g id="edge19" class="edge">
<title>Node1&#45;&gt;Node19</title>
<path fill="none" stroke="#63b8ff" d="M602.61,-219.6C628.95,-209.45 660.23,-197.39 683.42,-188.45"/>
<polygon fill="#63b8ff" stroke="#63b8ff" points="684.61,-191.74 692.68,-184.88 682.09,-185.21 684.61,-191.74"/>
</g>
<!-- Node20 -->
<g id="node20" class="node">
<title>Node20</title>
<g id="a_node20"><a xlink:title=" ">
<polygon fill="#e0e0e0" stroke="#999999" points="779.5,-129 730.5,-129 730.5,-110 779.5,-110 779.5,-129"/>
<text text-anchor="middle" x="755" y="-117" font-family="Helvetica,sans-Serif" font-size="10.00">cstddef</text>
</a>
</g>
</g>
<!-- Node1&#45;&gt;Node20 -->
<g id="edge21" class="edge">
<title>Node1&#45;&gt;Node20</title>
<path fill="none" stroke="#63b8ff" d="M609.73,-230.69C661.76,-221.59 732.16,-205.67 750,-184 759.79,-172.1 760.41,-154.34 758.93,-140.63"/>
<polygon fill="#63b8ff" stroke="#63b8ff" points="762.42,-140.29 757.43,-130.95 755.51,-141.37 762.42,-140.29"/>
</g>
<!-- Node21 -->
<g id="node21" class="node">
<title>Node21</title>
<g id="a_node21"><a xlink:href="find_8hpp.xhtml" target="_top" xlink:title=" ">
<polygon fill="white" stroke="#666666" points="848,-184 798,-184 798,-165 848,-165 848,-184"/>
<text text-anchor="middle" x="823" y="-172" font-family="Helvetica,sans-Serif" font-size="10.00">find.hpp</text>
</a>
</g>
</g>
<!-- Node1&#45;&gt;Node21 -->
<g id="edge22" class="edge">
<title>Node1&#45;&gt;Node21</title>
<path fill="none" stroke="#63b8ff" d="M609.69,-225.69C663.42,-213.05 741.26,-194.73 786.54,-184.08"/>
<polygon fill="#63b8ff" stroke="#63b8ff" points="787.19,-187.52 796.12,-181.82 785.58,-180.71 787.19,-187.52"/>
</g>
<!-- Node23 -->
<g id="node23" class="node">
<title>Node23</title>
<g id="a_node23"><a xlink:title=" ">
<polygon fill="#e0e0e0" stroke="#999999" points="905.5,-129 866.5,-129 866.5,-110 905.5,-110 905.5,-129"/>
<text text-anchor="middle" x="886" y="-117" font-family="Helvetica,sans-Serif" font-size="10.00">utility</text>
</a>
</g>
</g>
<!-- Node1&#45;&gt;Node23 -->
<g id="edge30" class="edge">
<title>Node1&#45;&gt;Node23</title>
<path fill="none" stroke="#63b8ff" d="M609.99,-235.26C687.81,-228.59 819.33,-213.29 857,-184 870.62,-173.41 878.06,-154.97 881.98,-140.68"/>
<polygon fill="#63b8ff" stroke="#63b8ff" points="885.38,-141.5 884.24,-130.97 878.56,-139.91 885.38,-141.5"/>
</g>
<!-- Node24 -->
<g id="node24" class="node">
<title>Node24</title>
<g id="a_node24"><a xlink:title=" ">
<polygon fill="#e0e0e0" stroke="#999999" points="951.5,-184 904.5,-184 904.5,-165 951.5,-165 951.5,-184"/>
<text text-anchor="middle" x="928" y="-172" font-family="Helvetica,sans-Serif" font-size="10.00">iterator</text>
</a>
</g>
</g>
<!-- Node1&#45;&gt;Node24 -->
<g id="edge27" class="edge">
<title>Node1&#45;&gt;Node24</title>
<path fill="none" stroke="#63b8ff" d="M609.98,-230.9C677.75,-220.78 792.22,-202.92 890,-184 891.02,-183.8 892.05,-183.6 893.09,-183.39"/>
<polygon fill="#63b8ff" stroke="#63b8ff" points="893.79,-186.82 902.85,-181.33 892.34,-179.97 893.79,-186.82"/>
</g>
<!-- Node25 -->
<g id="node25" class="node">
<title>Node25</title>
<g id="a_node25"><a xlink:title=" ">
<polygon fill="#e0e0e0" stroke="#999999" points="1032,-184 970,-184 970,-165 1032,-165 1032,-184"/>
<text text-anchor="middle" x="1001" y="-172" font-family="Helvetica,sans-Serif" font-size="10.00">type_traits</text>
</a>
</g>
</g>
<!-- Node1&#45;&gt;Node25 -->
<g id="edge29" class="edge">
<title>Node1&#45;&gt;Node25</title>
<path fill="none" stroke="#63b8ff" d="M609.94,-232.93C687.52,-223.96 828.36,-206.62 958.27,-184.36"/>
<polygon fill="#63b8ff" stroke="#63b8ff" points="958.85,-187.81 968.11,-182.66 957.66,-180.92 958.85,-187.81"/>
</g>
<!-- Node3 -->
<g id="node3" class="node">
<title>Node3</title>
<g id="a_node3"><a xlink:href="IKeypad_8hpp.xhtml" target="_top" xlink:title=" ">
<polygon fill="white" stroke="#666666" points="142,-129 0,-129 0,-110 142,-110 142,-129"/>
<text text-anchor="middle" x="71" y="-117" font-family="Helvetica,sans-Serif" font-size="10.00">user_interaction/IKeypad.hpp</text>
</a>
</g>
</g>
<!-- Node2&#45;&gt;Node3 -->
<g id="edge2" class="edge">
<title>Node2&#45;&gt;Node3</title>
<path fill="none" stroke="#63b8ff" d="M86.86,-164.75C84.46,-158.04 81.04,-148.52 78,-140.02"/>
<polygon fill="#63b8ff" stroke="#63b8ff" points="81.39,-139.1 74.72,-130.87 74.8,-141.46 81.39,-139.1"/>
</g>
<!-- Node4 -->
<g id="node4" class="node">
<title>Node4</title>
<g id="a_node4"><a xlink:href="KeyIds_8hpp.xhtml" target="_top" xlink:title=" ">
<polygon fill="white" stroke="#666666" points="103.5,-74 38.5,-74 38.5,-55 103.5,-55 103.5,-74"/>
<text text-anchor="middle" x="71" y="-62" font-family="Helvetica,sans-Serif" font-size="10.00">KeyIds.hpp</text>
</a>
</g>
</g>
<!-- Node3&#45;&gt;Node4 -->
<g id="edge3" class="edge">
<title>Node3&#45;&gt;Node4</title>
<path fill="none" stroke="#63b8ff" d="M71,-109.75C71,-103.27 71,-94.16 71,-85.9"/>
<polygon fill="#63b8ff" stroke="#63b8ff" points="74.5,-85.96 71,-75.96 67.5,-85.96 74.5,-85.96"/>
</g>
<!-- Node3&#45;&gt;Node6 -->
<g id="edge5" class="edge">
<title>Node3&#45;&gt;Node6</title>
<path fill="none" stroke="#63b8ff" d="M87.79,-109.51C103.1,-101.31 125.97,-89.07 143.7,-79.58"/>
<polygon fill="#63b8ff" stroke="#63b8ff" points="144.96,-82.88 152.12,-75.07 141.65,-76.71 144.96,-82.88"/>
</g>
<!-- Node5 -->
<g id="node5" class="node">
<title>Node5</title>
<g id="a_node5"><a xlink:title=" ">
<polygon fill="#e0e0e0" stroke="#999999" points="97,-19 45,-19 45,0 97,0 97,-19"/>
<text text-anchor="middle" x="71" y="-7" font-family="Helvetica,sans-Serif" font-size="10.00">ostream</text>
</a>
</g>
</g>
<!-- Node4&#45;&gt;Node5 -->
<g id="edge4" class="edge">
<title>Node4&#45;&gt;Node5</title>
<path fill="none" stroke="#63b8ff" d="M71,-54.75C71,-48.27 71,-39.16 71,-30.9"/>
<polygon fill="#63b8ff" stroke="#63b8ff" points="74.5,-30.96 71,-20.96 67.5,-30.96 74.5,-30.96"/>
</g>
<!-- Node8 -->
<g id="node8" class="node">
<title>Node8</title>
<g id="a_node8"><a xlink:title=" ">
<polygon fill="#e0e0e0" stroke="#999999" points="255.5,-129 198.5,-129 198.5,-110 255.5,-110 255.5,-129"/>
<text text-anchor="middle" x="227" y="-117" font-family="Helvetica,sans-Serif" font-size="10.00">Arduino.h</text>
</a>
</g>
</g>
<!-- Node7&#45;&gt;Node8 -->
<g id="edge7" class="edge">
<title>Node7&#45;&gt;Node8</title>
<path fill="none" stroke="#63b8ff" d="M242.86,-164.75C240.46,-158.04 237.04,-148.52 234,-140.02"/>
<polygon fill="#63b8ff" stroke="#63b8ff" points="237.39,-139.1 230.72,-130.87 230.8,-141.46 237.39,-139.1"/>
</g>
<!-- Node9&#45;&gt;Node6 -->
<g id="edge11" class="edge">
<title>Node9&#45;&gt;Node6</title>
<path fill="none" stroke="#63b8ff" d="M377.91,-164.66C369.51,-150.88 351.43,-124.36 329,-110 293.04,-86.98 245.11,-75.68 211.3,-70.26"/>
<polygon fill="#63b8ff" stroke="#63b8ff" points="211.88,-66.81 201.47,-68.8 210.85,-73.73 211.88,-66.81"/>
</g>
<!-- Node9&#45;&gt;Node10 -->
<g id="edge9" class="edge">
<title>Node9&#45;&gt;Node10</title>
<path fill="none" stroke="#63b8ff" d="M368.41,-164.51C355.48,-156.54 336.36,-144.75 321.15,-135.38"/>
<polygon fill="#63b8ff" stroke="#63b8ff" points="323.01,-132.42 312.66,-130.15 319.34,-138.38 323.01,-132.42"/>
</g>
<!-- Node11 -->
<g id="node11" class="node">
<title>Node11</title>
<g id="a_node11"><a xlink:title=" ">
<polygon fill="#e0e0e0" stroke="#999999" points="471.5,-129 376.5,-129 376.5,-110 471.5,-110 471.5,-129"/>
<text text-anchor="middle" x="424" y="-117" font-family="Helvetica,sans-Serif" font-size="10.00">condition_variable</text>
</a>
</g>
</g>
<!-- Node9&#45;&gt;Node11 -->
<g id="edge10" class="edge">
<title>Node9&#45;&gt;Node11</title>
<path fill="none" stroke="#63b8ff" d="M389.77,-164.75C395.32,-157.58 403.34,-147.2 410.23,-138.3"/>
<polygon fill="#63b8ff" stroke="#63b8ff" points="412.81,-140.69 416.16,-130.64 407.27,-136.41 412.81,-140.69"/>
</g>
<!-- Node12 -->
<g id="node12" class="node">
<title>Node12</title>
<g id="a_node12"><a xlink:title=" ">
<polygon fill="#e0e0e0" stroke="#999999" points="532.5,-129 489.5,-129 489.5,-110 532.5,-110 532.5,-129"/>
<text text-anchor="middle" x="511" y="-117" font-family="Helvetica,sans-Serif" font-size="10.00">mutex</text>
</a>
</g>
</g>
<!-- Node9&#45;&gt;Node12 -->
<g id="edge12" class="edge">
<title>Node9&#45;&gt;Node12</title>
<path fill="none" stroke="#63b8ff" d="M404.71,-164.51C425.16,-156.04 456.02,-143.27 479.23,-133.66"/>
<polygon fill="#63b8ff" stroke="#63b8ff" points="480.31,-137 488.21,-129.94 477.63,-130.53 480.31,-137"/>
</g>
<!-- Node9&#45;&gt;Node13 -->
<g id="edge13" class="edge">
<title>Node9&#45;&gt;Node13</title>
<path fill="none" stroke="#63b8ff" d="M415.23,-164.51C449.86,-154.85 504.61,-139.58 539.66,-129.8"/>
<polygon fill="#63b8ff" stroke="#63b8ff" points="540.58,-133.18 549.28,-127.12 538.7,-126.43 540.58,-133.18"/>
</g>
<!-- Node17 -->
<g id="node17" class="node">
<title>Node17</title>
<g id="a_node17"><a xlink:href="board__types_8hpp.xhtml" target="_top" xlink:title=" ">
<polygon fill="white" stroke="#666666" points="700.5,-129 613.5,-129 613.5,-110 700.5,-110 700.5,-129"/>
<text text-anchor="middle" x="657" y="-117" font-family="Helvetica,sans-Serif" font-size="10.00">board_types.hpp</text>
</a>
</g>
</g>
<!-- Node16&#45;&gt;Node17 -->
<g id="edge17" class="edge">
<title>Node16&#45;&gt;Node17</title>
<path fill="none" stroke="#63b8ff" d="M636.96,-164.75C640.04,-157.96 644.41,-148.3 648.29,-139.73"/>
<polygon fill="#63b8ff" stroke="#63b8ff" points="651.39,-141.37 652.33,-130.82 645.01,-138.49 651.39,-141.37"/>
</g>
<!-- Node18 -->
<g id="node18" class="node">
<title>Node18</title>
<g id="a_node18"><a xlink:title=" ">
<polygon fill="#e0e0e0" stroke="#999999" points="680,-74 634,-74 634,-55 680,-55 680,-74"/>
<text text-anchor="middle" x="657" y="-62" font-family="Helvetica,sans-Serif" font-size="10.00">cstdint</text>
</a>
</g>
</g>
<!-- Node17&#45;&gt;Node18 -->
<g id="edge18" class="edge">
<title>Node17&#45;&gt;Node18</title>
<path fill="none" stroke="#63b8ff" d="M657,-109.75C657,-103.27 657,-94.16 657,-85.9"/>
<polygon fill="#63b8ff" stroke="#63b8ff" points="660.5,-85.96 657,-75.96 653.5,-85.96 660.5,-85.96"/>
</g>
<!-- Node21&#45;&gt;Node20 -->
<g id="edge23" class="edge">
<title>Node21&#45;&gt;Node20</title>
<path fill="none" stroke="#63b8ff" d="M811.46,-164.51C801.54,-156.77 786.99,-145.43 775.14,-136.2"/>
<polygon fill="#63b8ff" stroke="#63b8ff" points="777.6,-133.68 767.56,-130.29 773.29,-139.2 777.6,-133.68"/>
</g>
<!-- Node22 -->
<g id="node22" class="node">
<title>Node22</title>
<g id="a_node22"><a xlink:title=" ">
<polygon fill="#e0e0e0" stroke="#999999" points="848,-129 798,-129 798,-110 848,-110 848,-129"/>
<text text-anchor="middle" x="823" y="-117" font-family="Helvetica,sans-Serif" font-size="10.00">optional</text>
</a>
</g>
</g>
<!-- Node21&#45;&gt;Node22 -->
<g id="edge24" class="edge">
<title>Node21&#45;&gt;Node22</title>
<path fill="none" stroke="#63b8ff" d="M823,-164.75C823,-158.27 823,-149.16 823,-140.9"/>
<polygon fill="#63b8ff" stroke="#63b8ff" points="826.5,-140.96 823,-130.96 819.5,-140.96 826.5,-140.96"/>
</g>
<!-- Node21&#45;&gt;Node23 -->
<g id="edge25" class="edge">
<title>Node21&#45;&gt;Node23</title>
<path fill="none" stroke="#63b8ff" d="M833.69,-164.51C842.7,-156.93 855.83,-145.88 866.68,-136.75"/>
<polygon fill="#63b8ff" stroke="#63b8ff" points="868.91,-139.45 874.31,-130.33 864.41,-134.09 868.91,-139.45"/>
</g>
</g>
</svg>
