<?xml version="1.0" encoding="UTF-8" standalone="no"?>
<!DOCTYPE svg PUBLIC "-//W3C//DTD SVG 1.1//EN"
 "http://www.w3.org/Graphics/SVG/1.1/DTD/svg11.dtd">
<!-- Generated by graphviz version 7.0.5 (20221223.1930)
 -->
<!-- Title: lib/board_adapters/input_device_interface/Keypad.cpp Pages: 1 -->
<svg width="1013pt" height="269pt"
 viewBox="0.00 0.00 1013.00 269.00" xmlns="http://www.w3.org/2000/svg" xmlns:xlink="http://www.w3.org/1999/xlink">
<g id="graph0" class="graph" transform="scale(1 1) rotate(0) translate(4 265)">
<title>lib/board_adapters/input_device_interface/Keypad.cpp</title>
<!-- Node1 -->
<g id="node1" class="node">
<title>Node1</title>
<g id="a_node1"><a xlink:title=" ">
<polygon fill="#999999" stroke="#666666" points="623.5,-261 506.5,-261 506.5,-220 623.5,-220 623.5,-261"/>
<text text-anchor="start" x="514.5" y="-249" font-family="Helvetica,sans-Serif" font-size="10.00">lib/board_adapters</text>
<text text-anchor="start" x="514.5" y="-238" font-family="Helvetica,sans-Serif" font-size="10.00">/input_device_interface</text>
<text text-anchor="middle" x="565" y="-227" font-family="Helvetica,sans-Serif" font-size="10.00">/Keypad.cpp</text>
</a>
</g>
</g>
<!-- Node2 -->
<g id="node2" class="node">
<title>Node2</title>
<g id="a_node2"><a xlink:href="Keypad_8hpp.xhtml" target="_top" xlink:title=" ">
<polygon fill="white" stroke="#666666" points="123.5,-184 56.5,-184 56.5,-165 123.5,-165 123.5,-184"/>
<text text-anchor="middle" x="90" y="-172" font-family="Helvetica,sans-Serif" font-size="10.00">Keypad.hpp</text>
</a>
</g>
</g>
<!-- Node1&#45;&gt;Node2 -->
<g id="edge1" class="edge">
<title>Node1&#45;&gt;Node2</title>
<path fill="none" stroke="#63b8ff" d="M506.28,-231.59C410.17,-218.64 221.35,-193.2 135.01,-181.56"/>
<polygon fill="#63b8ff" stroke="#63b8ff" points="135.65,-178.12 125.27,-180.25 134.71,-185.06 135.65,-178.12"/>
</g>
<!-- Node6 -->
<g id="node6" class="node">
<title>Node6</title>
<g id="a_node6"><a xlink:title=" ">
<polygon fill="#e0e0e0" stroke="#999999" points="199.5,-74 140.5,-74 140.5,-55 199.5,-55 199.5,-74"/>
<text text-anchor="middle" x="170" y="-62" font-family="Helvetica,sans-Serif" font-size="10.00">functional</text>
</a>
</g>
</g>
<!-- Node1&#45;&gt;Node6 -->
<g id="edge26" class="edge">
<title>Node1&#45;&gt;Node6</title>
<path fill="none" stroke="#63b8ff" d="M506.04,-238.79C412.39,-236.39 235.76,-226.22 192,-184 165.47,-158.41 165.04,-111.92 167.34,-85.42"/>
<polygon fill="#63b8ff" stroke="#63b8ff" points="170.8,-86.02 168.43,-75.69 163.84,-85.24 170.8,-86.02"/>
</g>
<!-- Node7 -->
<g id="node7" class="node">
<title>Node7</title>
<g id="a_node7"><a xlink:href="Arduino-wrapper_8h.xhtml" target="_top" xlink:title="Circumvents problematic processor macros defined by Arduino framework.">
<polygon fill="white" stroke="#666666" points="296.5,-184 201.5,-184 201.5,-165 296.5,-165 296.5,-184"/>
<text text-anchor="middle" x="249" y="-172" font-family="Helvetica,sans-Serif" font-size="10.00">Arduino&#45;wrapper.h</text>
</a>
</g>
</g>
<!-- Node1&#45;&gt;Node7 -->
<g id="edge6" class="edge">
<title>Node1&#45;&gt;Node7</title>
<path fill="none" stroke="#63b8ff" d="M506.3,-227.61C448.53,-215.91 360.96,-198.18 304.36,-186.71"/>
<polygon fill="#63b8ff" stroke="#63b8ff" points="305.11,-183.29 294.61,-184.74 303.72,-190.15 305.11,-183.29"/>
</g>
<!-- Node9 -->
<g id="node9" class="node">
<title>Node9</title>
<g id="a_node9"><a xlink:href="Worker_8hpp.xhtml" target="_top" xlink:title=" ">
<polygon fill="white" stroke="#666666" points="426.5,-184 361.5,-184 361.5,-165 426.5,-165 426.5,-184"/>
<text text-anchor="middle" x="394" y="-172" font-family="Helvetica,sans-Serif" font-size="10.00">Worker.hpp</text>
</a>
</g>
</g>
<!-- Node1&#45;&gt;Node9 -->
<g id="edge8" class="edge">
<title>Node1&#45;&gt;Node9</title>
<path fill="none" stroke="#63b8ff" d="M511.83,-219.6C484.58,-209.4 452.19,-197.28 428.27,-188.32"/>
<polygon fill="#63b8ff" stroke="#63b8ff" points="429.6,-185.09 419.01,-184.86 427.15,-191.64 429.6,-185.09"/>
</g>
<!-- Node10 -->
<g id="node10" class="node">
<title>Node10</title>
<g id="a_node10"><a xlink:title=" ">
<polygon fill="#e0e0e0" stroke="#999999" points="320,-129 274,-129 274,-110 320,-110 320,-129"/>
<text text-anchor="middle" x="297" y="-117" font-family="Helvetica,sans-Serif" font-size="10.00">chrono</text>
</a>
</g>
</g>
<!-- Node1&#45;&gt;Node10 -->
<g id="edge20" class="edge">
<title>Node1&#45;&gt;Node10</title>
<path fill="none" stroke="#63b8ff" d="M506.14,-233.74C461.15,-227.16 399.07,-213.24 352,-184 333.66,-172.6 318.13,-153.15 308.31,-138.77"/>
<polygon fill="#63b8ff" stroke="#63b8ff" points="311.41,-137.12 303.02,-130.65 305.54,-140.94 311.41,-137.12"/>
</g>
<!-- Node14 -->
<g id="node14" class="node">
<title>Node14</title>
<g id="a_node14"><a xlink:title=" ">
<polygon fill="#e0e0e0" stroke="#999999" points="483,-184 445,-184 445,-165 483,-165 483,-184"/>
<text text-anchor="middle" x="464" y="-172" font-family="Helvetica,sans-Serif" font-size="10.00">array</text>
</a>
</g>
</g>
<!-- Node1&#45;&gt;Node14 -->
<g id="edge14" class="edge">
<title>Node1&#45;&gt;Node14</title>
<path fill="none" stroke="#63b8ff" d="M533.6,-219.6C518.74,-210.19 501.29,-199.13 487.58,-190.44"/>
<polygon fill="#63b8ff" stroke="#63b8ff" points="489.53,-187.54 479.21,-185.14 485.79,-193.45 489.53,-187.54"/>
</g>
<!-- Node15 -->
<g id="node15" class="node">
<title>Node15</title>
<g id="a_node15"><a xlink:title=" ">
<polygon fill="#e0e0e0" stroke="#999999" points="547,-184 501,-184 501,-165 547,-165 547,-184"/>
<text text-anchor="middle" x="524" y="-172" font-family="Helvetica,sans-Serif" font-size="10.00">atomic</text>
</a>
</g>
</g>
<!-- Node1&#45;&gt;Node15 -->
<g id="edge15" class="edge">
<title>Node1&#45;&gt;Node15</title>
<path fill="none" stroke="#63b8ff" d="M552.25,-219.6C546.96,-211.33 540.85,-201.8 535.67,-193.72"/>
<polygon fill="#63b8ff" stroke="#63b8ff" points="538.71,-191.97 530.37,-185.44 532.81,-195.75 538.71,-191.97"/>
</g>
<!-- Node16 -->
<g id="node16" class="node">
<title>Node16</title>
<g id="a_node16"><a xlink:href="board__pins_8hpp.xhtml" target="_top" xlink:title="Provides named objects for the pins provided by the board.">
<polygon fill="white" stroke="#666666" points="647,-184 565,-184 565,-165 647,-165 647,-184"/>
<text text-anchor="middle" x="606" y="-172" font-family="Helvetica,sans-Serif" font-size="10.00">board_pins.hpp</text>
</a>
</g>
</g>
<!-- Node1&#45;&gt;Node16 -->
<g id="edge16" class="edge">
<title>Node1&#45;&gt;Node16</title>
<path fill="none" stroke="#63b8ff" d="M577.75,-219.6C583.04,-211.33 589.15,-201.8 594.33,-193.72"/>
<polygon fill="#63b8ff" stroke="#63b8ff" points="597.19,-195.75 599.63,-185.44 591.29,-191.97 597.19,-195.75"/>
</g>
<!-- Node19 -->
<g id="node19" class="node">
<title>Node19</title>
<g id="a_node19"><a xlink:title=" ">
<polygon fill="#e0e0e0" stroke="#999999" points="714.5,-184 665.5,-184 665.5,-165 714.5,-165 714.5,-184"/>
<text text-anchor="middle" x="690" y="-172" font-family="Helvetica,sans-Serif" font-size="10.00">cassert</text>
</a>
</g>
</g>
<!-- Node1&#45;&gt;Node19 -->
<g id="edge19" class="edge">
<title>Node1&#45;&gt;Node19</title>
<path fill="none" stroke="#63b8ff" d="M603.87,-219.6C622.98,-209.82 645.54,-198.26 662.78,-189.43"/>
<polygon fill="#63b8ff" stroke="#63b8ff" points="664.1,-192.69 671.41,-185.02 660.91,-186.46 664.1,-192.69"/>
</g>
<!-- Node20 -->
<g id="node20" class="node">
<title>Node20</title>
<g id="a_node20"><a xlink:title=" ">
<polygon fill="#e0e0e0" stroke="#999999" points="767.5,-129 718.5,-129 718.5,-110 767.5,-110 767.5,-129"/>
<text text-anchor="middle" x="743" y="-117" font-family="Helvetica,sans-Serif" font-size="10.00">cstddef</text>
</a>
</g>
</g>
<!-- Node1&#45;&gt;Node20 -->
<g id="edge21" class="edge">
<title>Node1&#45;&gt;Node20</title>
<path fill="none" stroke="#63b8ff" d="M623.82,-231.97C657,-224.83 696.92,-210.95 723,-184 734.32,-172.3 739.24,-154.25 741.37,-140.38"/>
<polygon fill="#63b8ff" stroke="#63b8ff" points="744.83,-140.95 742.48,-130.62 737.88,-140.16 744.83,-140.95"/>
</g>
<!-- Node21 -->
<g id="node21" class="node">
<title>Node21</title>
<g id="a_node21"><a xlink:href="find_8hpp.xhtml" target="_top" xlink:title=" ">
<polygon fill="white" stroke="#666666" points="821,-184 771,-184 771,-165 821,-165 821,-184"/>
<text text-anchor="middle" x="796" y="-172" font-family="Helvetica,sans-Serif" font-size="10.00">find.hpp</text>
</a>
</g>
</g>
<!-- Node1&#45;&gt;Node21 -->
<g id="edge22" class="edge">
<title>Node1&#45;&gt;Node21</title>
<path fill="none" stroke="#63b8ff" d="M623.89,-223.18C666.71,-211.32 723.32,-195.64 759.7,-185.56"/>
<polygon fill="#63b8ff" stroke="#63b8ff" points="760.6,-188.94 769.3,-182.9 758.73,-182.19 760.6,-188.94"/>
</g>
<!-- Node23 -->
<g id="node23" class="node">
<title>Node23</title>
<g id="a_node23"><a xlink:title=" ">
<polygon fill="#e0e0e0" stroke="#999999" points="893.5,-129 854.5,-129 854.5,-110 893.5,-110 893.5,-129"/>
<text text-anchor="middle" x="874" y="-117" font-family="Helvetica,sans-Serif" font-size="10.00">utility</text>
</a>
</g>
</g>
<!-- Node1&#45;&gt;Node23 -->
<g id="edge29" class="edge">
<title>Node1&#45;&gt;Node23</title>
<path fill="none" stroke="#63b8ff" d="M623.75,-239.41C680.85,-236.68 767.81,-225.25 830,-184 846.4,-173.12 858.46,-153.84 865.76,-139.37"/>
<polygon fill="#63b8ff" stroke="#63b8ff" points="868.88,-140.97 869.95,-130.42 862.54,-138 868.88,-140.97"/>
</g>
<!-- Node24 -->
<g id="node24" class="node">
<title>Node24</title>
<g id="a_node24"><a xlink:title=" ">
<polygon fill="#e0e0e0" stroke="#999999" points="924.5,-184 877.5,-184 877.5,-165 924.5,-165 924.5,-184"/>
<text text-anchor="middle" x="901" y="-172" font-family="Helvetica,sans-Serif" font-size="10.00">iterator</text>
</a>
</g>
</g>
<!-- Node1&#45;&gt;Node24 -->
<g id="edge27" class="edge">
<title>Node1&#45;&gt;Node24</title>
<path fill="none" stroke="#63b8ff" d="M623.93,-229.17C684.13,-218.46 780.25,-200.95 863,-184 864.01,-183.79 865.04,-183.58 866.08,-183.36"/>
<polygon fill="#63b8ff" stroke="#63b8ff" points="866.8,-186.79 875.83,-181.26 865.32,-179.95 866.8,-186.79"/>
</g>
<!-- Node25 -->
<g id="node25" class="node">
<title>Node25</title>
<g id="a_node25"><a xlink:title=" ">
<polygon fill="#e0e0e0" stroke="#999999" points="1005,-184 943,-184 943,-165 1005,-165 1005,-184"/>
<text text-anchor="middle" x="974" y="-172" font-family="Helvetica,sans-Serif" font-size="10.00">type_traits</text>
</a>
</g>
</g>
<!-- Node1&#45;&gt;Node25 -->
<g id="edge28" class="edge">
<title>Node1&#45;&gt;Node25</title>
<path fill="none" stroke="#63b8ff" d="M623.98,-231.74C694.69,-222.19 817.05,-204.89 931.54,-184.36"/>
<polygon fill="#63b8ff" stroke="#63b8ff" points="931.88,-187.85 941.1,-182.63 930.64,-180.96 931.88,-187.85"/>
</g>
<!-- Node3 -->
<g id="node3" class="node">
<title>Node3</title>
<g id="a_node3"><a xlink:href="IKeypad_8hpp.xhtml" target="_top" xlink:title=" ">
<polygon fill="white" stroke="#666666" points="142,-129 0,-129 0,-110 142,-110 142,-129"/>
<text text-anchor="middle" x="71" y="-117" font-family="Helvetica,sans-Serif" font-size="10.00">user_interaction/IKeypad.hpp</text>
</a>
</g>
</g>
<!-- Node2&#45;&gt;Node3 -->
<g id="edge2" class="edge">
<title>Node2&#45;&gt;Node3</title>
<path fill="none" stroke="#63b8ff" d="M86.86,-164.75C84.46,-158.04 81.04,-148.52 78,-140.02"/>
<polygon fill="#63b8ff" stroke="#63b8ff" points="81.39,-139.1 74.72,-130.87 74.8,-141.46 81.39,-139.1"/>
</g>
<!-- Node4 -->
<g id="node4" class="node">
<title>Node4</title>
<g id="a_node4"><a xlink:href="KeyIds_8hpp.xhtml" target="_top" xlink:title=" ">
<polygon fill="white" stroke="#666666" points="103.5,-74 38.5,-74 38.5,-55 103.5,-55 103.5,-74"/>
<text text-anchor="middle" x="71" y="-62" font-family="Helvetica,sans-Serif" font-size="10.00">KeyIds.hpp</text>
</a>
</g>
</g>
<!-- Node3&#45;&gt;Node4 -->
<g id="edge3" class="edge">
<title>Node3&#45;&gt;Node4</title>
<path fill="none" stroke="#63b8ff" d="M71,-109.75C71,-103.27 71,-94.16 71,-85.9"/>
<polygon fill="#63b8ff" stroke="#63b8ff" points="74.5,-85.96 71,-75.96 67.5,-85.96 74.5,-85.96"/>
</g>
<!-- Node3&#45;&gt;Node6 -->
<g id="edge5" class="edge">
<title>Node3&#45;&gt;Node6</title>
<path fill="none" stroke="#63b8ff" d="M87.79,-109.51C103.1,-101.31 125.97,-89.07 143.7,-79.58"/>
<polygon fill="#63b8ff" stroke="#63b8ff" points="144.96,-82.88 152.12,-75.07 141.65,-76.71 144.96,-82.88"/>
</g>
<!-- Node5 -->
<g id="node5" class="node">
<title>Node5</title>
<g id="a_node5"><a xlink:title=" ">
<polygon fill="#e0e0e0" stroke="#999999" points="97,-19 45,-19 45,0 97,0 97,-19"/>
<text text-anchor="middle" x="71" y="-7" font-family="Helvetica,sans-Serif" font-size="10.00">ostream</text>
</a>
</g>
</g>
<!-- Node4&#45;&gt;Node5 -->
<g id="edge4" class="edge">
<title>Node4&#45;&gt;Node5</title>
<path fill="none" stroke="#63b8ff" d="M71,-54.75C71,-48.27 71,-39.16 71,-30.9"/>
<polygon fill="#63b8ff" stroke="#63b8ff" points="74.5,-30.96 71,-20.96 67.5,-30.96 74.5,-30.96"/>
</g>
<!-- Node8 -->
<g id="node8" class="node">
<title>Node8</title>
<g id="a_node8"><a xlink:title=" ">
<polygon fill="#e0e0e0" stroke="#999999" points="255.5,-129 198.5,-129 198.5,-110 255.5,-110 255.5,-129"/>
<text text-anchor="middle" x="227" y="-117" font-family="Helvetica,sans-Serif" font-size="10.00">Arduino.h</text>
</a>
</g>
</g>
<!-- Node7&#45;&gt;Node8 -->
<g id="edge7" class="edge">
<title>Node7&#45;&gt;Node8</title>
<path fill="none" stroke="#63b8ff" d="M245.37,-164.75C242.58,-158.04 238.63,-148.52 235.1,-140.02"/>
<polygon fill="#63b8ff" stroke="#63b8ff" points="238.36,-138.73 231.29,-130.84 231.89,-141.42 238.36,-138.73"/>
</g>
<!-- Node9&#45;&gt;Node6 -->
<g id="edge11" class="edge">
<title>Node9&#45;&gt;Node6</title>
<path fill="none" stroke="#63b8ff" d="M387.43,-164.7C376.72,-150.96 354.14,-124.51 329,-110 292.13,-88.73 244.54,-77.16 211.07,-71.2"/>
<polygon fill="#63b8ff" stroke="#63b8ff" points="211.79,-67.77 201.35,-69.57 210.63,-74.67 211.79,-67.77"/>
</g>
<!-- Node9&#45;&gt;Node10 -->
<g id="edge9" class="edge">
<title>Node9&#45;&gt;Node10</title>
<path fill="none" stroke="#63b8ff" d="M377.55,-164.51C362.68,-156.39 340.56,-144.3 323.25,-134.85"/>
<polygon fill="#63b8ff" stroke="#63b8ff" points="324.99,-131.81 314.54,-130.08 321.64,-137.95 324.99,-131.81"/>
</g>
<!-- Node11 -->
<g id="node11" class="node">
<title>Node11</title>
<g id="a_node11"><a xlink:title=" ">
<polygon fill="#e0e0e0" stroke="#999999" points="471.5,-129 376.5,-129 376.5,-110 471.5,-110 471.5,-129"/>
<text text-anchor="middle" x="424" y="-117" font-family="Helvetica,sans-Serif" font-size="10.00">condition_variable</text>
</a>
</g>
</g>
<!-- Node9&#45;&gt;Node11 -->
<g id="edge10" class="edge">
<title>Node9&#45;&gt;Node11</title>
<path fill="none" stroke="#63b8ff" d="M398.95,-164.75C402.84,-157.88 408.39,-148.08 413.28,-139.45"/>
<polygon fill="#63b8ff" stroke="#63b8ff" points="416.31,-141.19 418.19,-130.76 410.22,-137.74 416.31,-141.19"/>
</g>
<!-- Node12 -->
<g id="node12" class="node">
<title>Node12</title>
<g id="a_node12"><a xlink:title=" ">
<polygon fill="#e0e0e0" stroke="#999999" points="532.5,-129 489.5,-129 489.5,-110 532.5,-110 532.5,-129"/>
<text text-anchor="middle" x="511" y="-117" font-family="Helvetica,sans-Serif" font-size="10.00">mutex</text>
</a>
</g>
</g>
<!-- Node9&#45;&gt;Node12 -->
<g id="edge12" class="edge">
<title>Node9&#45;&gt;Node12</title>
<path fill="none" stroke="#63b8ff" d="M413.85,-164.51C432.28,-156.16 459.98,-143.61 481.09,-134.05"/>
<polygon fill="#63b8ff" stroke="#63b8ff" points="482.4,-137.3 490.07,-129.98 479.51,-130.92 482.4,-137.3"/>
</g>
<!-- Node13 -->
<g id="node13" class="node">
<title>Node13</title>
<g id="a_node13"><a xlink:title=" ">
<polygon fill="#e0e0e0" stroke="#999999" points="595,-129 551,-129 551,-110 595,-110 595,-129"/>
<text text-anchor="middle" x="573" y="-117" font-family="Helvetica,sans-Serif" font-size="10.00">thread</text>
</a>
</g>
</g>
<!-- Node9&#45;&gt;Node13 -->
<g id="edge13" class="edge">
<title>Node9&#45;&gt;Node13</title>
<path fill="none" stroke="#63b8ff" d="M424.36,-164.51C456.4,-155.02 506.72,-140.12 539.79,-130.33"/>
<polygon fill="#63b8ff" stroke="#63b8ff" points="540.66,-133.73 549.26,-127.53 538.67,-127.01 540.66,-133.73"/>
</g>
<!-- Node17 -->
<g id="node17" class="node">
<title>Node17</title>
<g id="a_node17"><a xlink:href="board__types_8hpp.xhtml" target="_top" xlink:title=" ">
<polygon fill="white" stroke="#666666" points="700.5,-129 613.5,-129 613.5,-110 700.5,-110 700.5,-129"/>
<text text-anchor="middle" x="657" y="-117" font-family="Helvetica,sans-Serif" font-size="10.00">board_types.hpp</text>
</a>
</g>
</g>
<!-- Node16&#45;&gt;Node17 -->
<g id="edge17" class="edge">
<title>Node16&#45;&gt;Node17</title>
<path fill="none" stroke="#63b8ff" d="M614.42,-164.75C621.47,-157.43 631.73,-146.76 640.41,-137.74"/>
<polygon fill="#63b8ff" stroke="#63b8ff" points="642.93,-140.17 647.35,-130.53 637.89,-135.31 642.93,-140.17"/>
</g>
<!-- Node18 -->
<g id="node18" class="node">
<title>Node18</title>
<g id="a_node18"><a xlink:title=" ">
<polygon fill="#e0e0e0" stroke="#999999" points="680,-74 634,-74 634,-55 680,-55 680,-74"/>
<text text-anchor="middle" x="657" y="-62" font-family="Helvetica,sans-Serif" font-size="10.00">cstdint</text>
</a>
</g>
</g>
<!-- Node17&#45;&gt;Node18 -->
<g id="edge18" class="edge">
<title>Node17&#45;&gt;Node18</title>
<path fill="none" stroke="#63b8ff" d="M657,-109.75C657,-103.27 657,-94.16 657,-85.9"/>
<polygon fill="#63b8ff" stroke="#63b8ff" points="660.5,-85.96 657,-75.96 653.5,-85.96 660.5,-85.96"/>
</g>
<!-- Node21&#45;&gt;Node20 -->
<g id="edge23" class="edge">
<title>Node21&#45;&gt;Node20</title>
<path fill="none" stroke="#63b8ff" d="M787.25,-164.75C779.85,-157.35 769.04,-146.54 759.95,-137.45"/>
<polygon fill="#63b8ff" stroke="#63b8ff" points="762.56,-135.11 753.01,-130.51 757.61,-140.06 762.56,-135.11"/>
</g>
<!-- Node22 -->
<g id="node22" class="node">
<title>Node22</title>
<g id="a_node22"><a xlink:title=" ">
<polygon fill="#e0e0e0" stroke="#999999" points="836,-129 786,-129 786,-110 836,-110 836,-129"/>
<text text-anchor="middle" x="811" y="-117" font-family="Helvetica,sans-Serif" font-size="10.00">optional</text>
</a>
</g>
</g>
<!-- Node21&#45;&gt;Node22 -->
<g id="edge24" class="edge">
<title>Node21&#45;&gt;Node22</title>
<path fill="none" stroke="#63b8ff" d="M798.48,-164.75C800.35,-158.11 803.01,-148.73 805.39,-140.31"/>
<polygon fill="#63b8ff" stroke="#63b8ff" points="808.7,-141.47 808.06,-130.9 801.97,-139.57 808.7,-141.47"/>
</g>
<!-- Node21&#45;&gt;Node23 -->
<g id="edge25" class="edge">
<title>Node21&#45;&gt;Node23</title>
<path fill="none" stroke="#63b8ff" d="M809.23,-164.51C820.84,-156.62 837.97,-144.98 851.7,-135.65"/>
<polygon fill="#63b8ff" stroke="#63b8ff" points="853.41,-138.72 859.71,-130.21 849.47,-132.93 853.41,-138.72"/>
</g>
</g>
</svg>
