<?xml version="1.0" encoding="UTF-8" standalone="no"?>
<!DOCTYPE svg PUBLIC "-//W3C//DTD SVG 1.1//EN"
 "http://www.w3.org/Graphics/SVG/1.1/DTD/svg11.dtd">
<!-- Generated by graphviz version 2.43.0 (0)
 -->
<!-- Title: Task&#45;Tracker&#45;Device/lib/utilities/Arduino&#45;wrapper.h Pages: 1 -->
<svg width="758pt" height="139pt"
 viewBox="0.00 0.00 757.50 139.00" xmlns="http://www.w3.org/2000/svg" xmlns:xlink="http://www.w3.org/1999/xlink">
<g id="graph0" class="graph" transform="scale(1 1) rotate(0) translate(4 135)">
<title>Task&#45;Tracker&#45;Device/lib/utilities/Arduino&#45;wrapper.h</title>
<polygon fill="white" stroke="transparent" points="-4,4 -4,-135 753.5,-135 753.5,4 -4,4"/>
<!-- Node1 -->
<g id="node1" class="node">
<title>Node1</title>
<g id="a_node1"><a xlink:title="Circumvents problematic processor macros defined by Arduino framework.">
<polygon fill="#bfbfbf" stroke="black" points="322,-89.5 322,-130.5 435,-130.5 435,-89.5 322,-89.5"/>
<text text-anchor="start" x="330" y="-118.5" font-family="Helvetica,sans-Serif" font-size="10.00">Task&#45;Tracker&#45;Device</text>
<text text-anchor="start" x="330" y="-107.5" font-family="Helvetica,sans-Serif" font-size="10.00">/lib/utilities/Arduino</text>
<text text-anchor="middle" x="378.5" y="-96.5" font-family="Helvetica,sans-Serif" font-size="10.00">&#45;wrapper.h</text>
</a>
</g>
</g>
<!-- Node2 -->
<g id="node2" class="node">
<title>Node2</title>
<g id="a_node2"><a xlink:href="Keypad_8cpp.xhtml" target="_top" xlink:title=" ">
<polygon fill="white" stroke="black" points="0,-0.5 0,-52.5 131,-52.5 131,-0.5 0,-0.5"/>
<text text-anchor="start" x="8" y="-40.5" font-family="Helvetica,sans-Serif" font-size="10.00">Task&#45;Tracker&#45;Device</text>
<text text-anchor="start" x="8" y="-29.5" font-family="Helvetica,sans-Serif" font-size="10.00">/lib/board_adapters</text>
<text text-anchor="start" x="8" y="-18.5" font-family="Helvetica,sans-Serif" font-size="10.00">/input_device_interface</text>
<text text-anchor="middle" x="65.5" y="-7.5" font-family="Helvetica,sans-Serif" font-size="10.00">/Keypad.cpp</text>
</a>
</g>
</g>
<!-- Node1&#45;&gt;Node2 -->
<g id="edge1" class="edge">
<title>Node1&#45;&gt;Node2</title>
<path fill="none" stroke="midnightblue" d="M311.89,-95.13C263.92,-84.71 197.83,-69.45 140.5,-53 137.46,-52.13 134.36,-51.21 131.24,-50.25"/>
<polygon fill="midnightblue" stroke="midnightblue" points="311.33,-98.59 321.84,-97.28 312.8,-91.75 311.33,-98.59"/>
</g>
<!-- Node3 -->
<g id="node3" class="node">
<title>Node3</title>
<g id="a_node3"><a xlink:href="sound__output_8cpp.xhtml" target="_top" xlink:title=" ">
<polygon fill="white" stroke="black" points="149.5,-0.5 149.5,-52.5 283.5,-52.5 283.5,-0.5 149.5,-0.5"/>
<text text-anchor="start" x="157.5" y="-40.5" font-family="Helvetica,sans-Serif" font-size="10.00">Task&#45;Tracker&#45;Device</text>
<text text-anchor="start" x="157.5" y="-29.5" font-family="Helvetica,sans-Serif" font-size="10.00">/lib/board_adapters</text>
<text text-anchor="start" x="157.5" y="-18.5" font-family="Helvetica,sans-Serif" font-size="10.00">/sound_output_interface</text>
<text text-anchor="middle" x="216.5" y="-7.5" font-family="Helvetica,sans-Serif" font-size="10.00">/sound_output.cpp</text>
</a>
</g>
</g>
<!-- Node1&#45;&gt;Node3 -->
<g id="edge2" class="edge">
<title>Node1&#45;&gt;Node3</title>
<path fill="none" stroke="midnightblue" d="M330.65,-84.93C310.4,-74.74 286.81,-62.87 266.35,-52.58"/>
<polygon fill="midnightblue" stroke="midnightblue" points="329.19,-88.11 339.7,-89.48 332.34,-81.86 329.19,-88.11"/>
</g>
<!-- Node4 -->
<g id="node4" class="node">
<title>Node4</title>
<g id="a_node4"><a xlink:href="test__dummies_8cpp.xhtml" target="_top" xlink:title=" ">
<polygon fill="white" stroke="black" points="302,-11.5 302,-41.5 455,-41.5 455,-11.5 302,-11.5"/>
<text text-anchor="start" x="310" y="-29.5" font-family="Helvetica,sans-Serif" font-size="10.00">Task&#45;Tracker&#45;Device</text>
<text text-anchor="middle" x="378.5" y="-18.5" font-family="Helvetica,sans-Serif" font-size="10.00">/test/hmi/test_dummies.cpp</text>
</a>
</g>
</g>
<!-- Node1&#45;&gt;Node4 -->
<g id="edge3" class="edge">
<title>Node1&#45;&gt;Node4</title>
<path fill="none" stroke="midnightblue" d="M378.5,-79.03C378.5,-66.26 378.5,-51.97 378.5,-41.68"/>
<polygon fill="midnightblue" stroke="midnightblue" points="375,-79.27 378.5,-89.27 382,-79.27 375,-79.27"/>
</g>
<!-- Node5 -->
<g id="node5" class="node">
<title>Node5</title>
<g id="a_node5"><a xlink:href="test__hmi_8cpp.xhtml" target="_top" xlink:title=" ">
<polygon fill="white" stroke="black" points="473.5,-6 473.5,-47 601.5,-47 601.5,-6 473.5,-6"/>
<text text-anchor="start" x="481.5" y="-35" font-family="Helvetica,sans-Serif" font-size="10.00">Task&#45;Tracker&#45;Device</text>
<text text-anchor="start" x="481.5" y="-24" font-family="Helvetica,sans-Serif" font-size="10.00">/test/hmi/test_hmi/test</text>
<text text-anchor="middle" x="537.5" y="-13" font-family="Helvetica,sans-Serif" font-size="10.00">_hmi.cpp</text>
</a>
</g>
</g>
<!-- Node1&#45;&gt;Node5 -->
<g id="edge4" class="edge">
<title>Node1&#45;&gt;Node5</title>
<path fill="none" stroke="midnightblue" d="M425.69,-84.81C449.23,-72.75 477.32,-58.35 499.45,-47"/>
<polygon fill="midnightblue" stroke="midnightblue" points="423.89,-81.8 416.58,-89.48 427.08,-88.03 423.89,-81.8"/>
</g>
<!-- Node6 -->
<g id="node6" class="node">
<title>Node6</title>
<g id="a_node6"><a xlink:href="test__keyState_8cpp.xhtml" target="_top" xlink:title=" ">
<polygon fill="white" stroke="black" points="619.5,-6 619.5,-47 749.5,-47 749.5,-6 619.5,-6"/>
<text text-anchor="start" x="627.5" y="-35" font-family="Helvetica,sans-Serif" font-size="10.00">Task&#45;Tracker&#45;Device</text>
<text text-anchor="start" x="627.5" y="-24" font-family="Helvetica,sans-Serif" font-size="10.00">/test/hmi/test_keyState</text>
<text text-anchor="middle" x="684.5" y="-13" font-family="Helvetica,sans-Serif" font-size="10.00">/test_keyState.cpp</text>
</a>
</g>
</g>
<!-- Node1&#45;&gt;Node6 -->
<g id="edge5" class="edge">
<title>Node1&#45;&gt;Node6</title>
<path fill="none" stroke="midnightblue" d="M445.13,-94.68C491.74,-84.24 555.29,-69.14 610.5,-53 616.76,-51.17 623.28,-49.13 629.73,-47.02"/>
<polygon fill="midnightblue" stroke="midnightblue" points="444.15,-91.32 435.15,-96.91 445.67,-98.15 444.15,-91.32"/>
</g>
</g>
</svg>
