<?xml version="1.0" encoding="UTF-8" standalone="no"?>
<!DOCTYPE svg PUBLIC "-//W3C//DTD SVG 1.1//EN"
 "http://www.w3.org/Graphics/SVG/1.1/DTD/svg11.dtd">
<!-- Generated by graphviz version 2.43.0 (0)
 -->
<!-- Title: Task&#45;Tracker&#45;Device/lib/board_adapters/board_types.hpp Pages: 1 -->
<svg width="1459pt" height="228pt"
 viewBox="0.00 0.00 1459.00 228.00" xmlns="http://www.w3.org/2000/svg" xmlns:xlink="http://www.w3.org/1999/xlink">
<g id="graph0" class="graph" transform="scale(1 1) rotate(0) translate(4 224)">
<title>Task&#45;Tracker&#45;Device/lib/board_adapters/board_types.hpp</title>
<polygon fill="white" stroke="transparent" points="-4,4 -4,-224 1455,-224 1455,4 -4,4"/>
<!-- Node1 -->
<g id="node1" class="node">
<title>Node1</title>
<g id="a_node1"><a xlink:title=" ">
<polygon fill="#bfbfbf" stroke="black" points="826.5,-178.5 826.5,-219.5 939.5,-219.5 939.5,-178.5 826.5,-178.5"/>
<text text-anchor="start" x="834.5" y="-207.5" font-family="Helvetica,sans-Serif" font-size="10.00">Task&#45;Tracker&#45;Device</text>
<text text-anchor="start" x="834.5" y="-196.5" font-family="Helvetica,sans-Serif" font-size="10.00">/lib/board_adapters</text>
<text text-anchor="middle" x="883" y="-185.5" font-family="Helvetica,sans-Serif" font-size="10.00">/board_types.hpp</text>
</a>
</g>
</g>
<!-- Node2 -->
<g id="node2" class="node">
<title>Node2</title>
<g id="a_node2"><a xlink:href="board__pins_8hpp.xhtml" target="_top" xlink:title="Provides named objects for the pins provided by the board.">
<polygon fill="white" stroke="black" points="667.5,-95 667.5,-136 780.5,-136 780.5,-95 667.5,-95"/>
<text text-anchor="start" x="675.5" y="-124" font-family="Helvetica,sans-Serif" font-size="10.00">Task&#45;Tracker&#45;Device</text>
<text text-anchor="start" x="675.5" y="-113" font-family="Helvetica,sans-Serif" font-size="10.00">/lib/board_adapters</text>
<text text-anchor="middle" x="724" y="-102" font-family="Helvetica,sans-Serif" font-size="10.00">/board_pins.hpp</text>
</a>
</g>
</g>
<!-- Node1&#45;&gt;Node2 -->
<g id="edge1" class="edge">
<title>Node1&#45;&gt;Node2</title>
<path fill="none" stroke="midnightblue" d="M835.81,-173.81C812.27,-161.75 784.18,-147.35 762.05,-136"/>
<polygon fill="midnightblue" stroke="midnightblue" points="834.42,-177.03 844.92,-178.48 837.61,-170.8 834.42,-177.03"/>
</g>
<!-- Node11 -->
<g id="node11" class="node">
<title>Node11</title>
<g id="a_node11"><a xlink:href="status__indicators_8hpp.xhtml" target="_top" xlink:title=" ">
<polygon fill="white" stroke="black" points="1137,-89.5 1137,-141.5 1273,-141.5 1273,-89.5 1137,-89.5"/>
<text text-anchor="start" x="1145" y="-129.5" font-family="Helvetica,sans-Serif" font-size="10.00">Task&#45;Tracker&#45;Device</text>
<text text-anchor="start" x="1145" y="-118.5" font-family="Helvetica,sans-Serif" font-size="10.00">/lib/board_adapters</text>
<text text-anchor="start" x="1145" y="-107.5" font-family="Helvetica,sans-Serif" font-size="10.00">/status_indicators/status</text>
<text text-anchor="middle" x="1205" y="-96.5" font-family="Helvetica,sans-Serif" font-size="10.00">_indicators.hpp</text>
</a>
</g>
</g>
<!-- Node1&#45;&gt;Node11 -->
<g id="edge10" class="edge">
<title>Node1&#45;&gt;Node11</title>
<path fill="none" stroke="midnightblue" d="M949.77,-181.1C1004.49,-167.25 1081.61,-147.73 1136.73,-133.78"/>
<polygon fill="midnightblue" stroke="midnightblue" points="948.66,-177.77 939.83,-183.62 950.38,-184.56 948.66,-177.77"/>
</g>
<!-- Node13 -->
<g id="node13" class="node">
<title>Node13</title>
<g id="a_node13"><a xlink:href="test__dummies_8hpp.xhtml" target="_top" xlink:title=" ">
<polygon fill="white" stroke="black" points="806,-100.5 806,-130.5 960,-130.5 960,-100.5 806,-100.5"/>
<text text-anchor="start" x="814" y="-118.5" font-family="Helvetica,sans-Serif" font-size="10.00">Task&#45;Tracker&#45;Device</text>
<text text-anchor="middle" x="883" y="-107.5" font-family="Helvetica,sans-Serif" font-size="10.00">/test/hmi/test_dummies.hpp</text>
</a>
</g>
</g>
<!-- Node1&#45;&gt;Node13 -->
<g id="edge13" class="edge">
<title>Node1&#45;&gt;Node13</title>
<path fill="none" stroke="midnightblue" d="M883,-168.03C883,-155.26 883,-140.97 883,-130.68"/>
<polygon fill="midnightblue" stroke="midnightblue" points="879.5,-168.27 883,-178.27 886.5,-168.27 879.5,-168.27"/>
</g>
<!-- Node3 -->
<g id="node3" class="node">
<title>Node3</title>
<g id="a_node3"><a xlink:href="framework__adapter_8cpp.xhtml" target="_top" xlink:title=" ">
<polygon fill="white" stroke="black" points="152,-6 152,-47 328,-47 328,-6 152,-6"/>
<text text-anchor="start" x="160" y="-35" font-family="Helvetica,sans-Serif" font-size="10.00">Task&#45;Tracker&#45;Device</text>
<text text-anchor="start" x="160" y="-24" font-family="Helvetica,sans-Serif" font-size="10.00">/lib/3rd_party_adapters</text>
<text text-anchor="middle" x="240" y="-13" font-family="Helvetica,sans-Serif" font-size="10.00">/Arduino/framework_adapter.cpp</text>
</a>
</g>
</g>
<!-- Node2&#45;&gt;Node3 -->
<g id="edge2" class="edge">
<title>Node2&#45;&gt;Node3</title>
<path fill="none" stroke="midnightblue" d="M657.18,-105.94C579.75,-95.54 448.5,-76.45 337,-53 328.57,-51.23 319.77,-49.18 311.06,-47.05"/>
<polygon fill="midnightblue" stroke="midnightblue" points="656.9,-109.43 667.28,-107.29 657.83,-102.49 656.9,-109.43"/>
</g>
<!-- Node4 -->
<g id="node4" class="node">
<title>Node4</title>
<g id="a_node4"><a xlink:href="guiEngine__factory__interface_8cpp.xhtml" target="_top" xlink:title=" ">
<polygon fill="white" stroke="black" points="346,-0.5 346,-52.5 480,-52.5 480,-0.5 346,-0.5"/>
<text text-anchor="start" x="354" y="-40.5" font-family="Helvetica,sans-Serif" font-size="10.00">Task&#45;Tracker&#45;Device</text>
<text text-anchor="start" x="354" y="-29.5" font-family="Helvetica,sans-Serif" font-size="10.00">/lib/3rd_party_adapters</text>
<text text-anchor="start" x="354" y="-18.5" font-family="Helvetica,sans-Serif" font-size="10.00">/LVGL/guiEngine_factory</text>
<text text-anchor="middle" x="413" y="-7.5" font-family="Helvetica,sans-Serif" font-size="10.00">_interface.cpp</text>
</a>
</g>
</g>
<!-- Node2&#45;&gt;Node4 -->
<g id="edge3" class="edge">
<title>Node2&#45;&gt;Node4</title>
<path fill="none" stroke="midnightblue" d="M657.39,-98.35C610.16,-86.58 545.41,-69.82 489,-53 486.07,-52.12 483.07,-51.21 480.06,-50.27"/>
<polygon fill="midnightblue" stroke="midnightblue" points="656.65,-101.77 667.2,-100.78 658.33,-94.97 656.65,-101.77"/>
</g>
<!-- Node5 -->
<g id="node5" class="node">
<title>Node5</title>
<g id="a_node5"><a xlink:href="Keypad_8cpp.xhtml" target="_top" xlink:title=" ">
<polygon fill="white" stroke="black" points="498.5,-0.5 498.5,-52.5 629.5,-52.5 629.5,-0.5 498.5,-0.5"/>
<text text-anchor="start" x="506.5" y="-40.5" font-family="Helvetica,sans-Serif" font-size="10.00">Task&#45;Tracker&#45;Device</text>
<text text-anchor="start" x="506.5" y="-29.5" font-family="Helvetica,sans-Serif" font-size="10.00">/lib/board_adapters</text>
<text text-anchor="start" x="506.5" y="-18.5" font-family="Helvetica,sans-Serif" font-size="10.00">/input_device_interface</text>
<text text-anchor="middle" x="564" y="-7.5" font-family="Helvetica,sans-Serif" font-size="10.00">/Keypad.cpp</text>
</a>
</g>
</g>
<!-- Node2&#45;&gt;Node5 -->
<g id="edge4" class="edge">
<title>Node2&#45;&gt;Node5</title>
<path fill="none" stroke="midnightblue" d="M679.15,-90.11C657.61,-78.4 631.83,-64.38 610.13,-52.58"/>
<polygon fill="midnightblue" stroke="midnightblue" points="677.64,-93.27 688.09,-94.98 680.98,-87.12 677.64,-93.27"/>
</g>
<!-- Node6 -->
<g id="node6" class="node">
<title>Node6</title>
<g id="a_node6"><a xlink:href="sound__output_8cpp.xhtml" target="_top" xlink:title=" ">
<polygon fill="white" stroke="black" points="0,-0.5 0,-52.5 134,-52.5 134,-0.5 0,-0.5"/>
<text text-anchor="start" x="8" y="-40.5" font-family="Helvetica,sans-Serif" font-size="10.00">Task&#45;Tracker&#45;Device</text>
<text text-anchor="start" x="8" y="-29.5" font-family="Helvetica,sans-Serif" font-size="10.00">/lib/board_adapters</text>
<text text-anchor="start" x="8" y="-18.5" font-family="Helvetica,sans-Serif" font-size="10.00">/sound_output_interface</text>
<text text-anchor="middle" x="67" y="-7.5" font-family="Helvetica,sans-Serif" font-size="10.00">/sound_output.cpp</text>
</a>
</g>
</g>
<!-- Node2&#45;&gt;Node6 -->
<g id="edge5" class="edge">
<title>Node2&#45;&gt;Node6</title>
<path fill="none" stroke="midnightblue" d="M657.08,-112.16C548.19,-107.29 326.38,-92.97 143,-53 140.14,-52.38 137.25,-51.69 134.33,-50.94"/>
<polygon fill="midnightblue" stroke="midnightblue" points="657.12,-115.66 667.26,-112.6 657.42,-108.67 657.12,-115.66"/>
</g>
<!-- Node7 -->
<g id="node7" class="node">
<title>Node7</title>
<g id="a_node7"><a xlink:href="statusindicators__factory__interface_8cpp.xhtml" target="_top" xlink:title=" ">
<polygon fill="white" stroke="black" points="1113,-0.5 1113,-52.5 1297,-52.5 1297,-0.5 1113,-0.5"/>
<text text-anchor="start" x="1121" y="-40.5" font-family="Helvetica,sans-Serif" font-size="10.00">Task&#45;Tracker&#45;Device</text>
<text text-anchor="start" x="1121" y="-29.5" font-family="Helvetica,sans-Serif" font-size="10.00">/lib/board_adapters</text>
<text text-anchor="start" x="1121" y="-18.5" font-family="Helvetica,sans-Serif" font-size="10.00">/status_indicators/statusindicators</text>
<text text-anchor="middle" x="1205" y="-7.5" font-family="Helvetica,sans-Serif" font-size="10.00">_factory_interface.cpp</text>
</a>
</g>
</g>
<!-- Node2&#45;&gt;Node7 -->
<g id="edge6" class="edge">
<title>Node2&#45;&gt;Node7</title>
<path fill="none" stroke="midnightblue" d="M785.24,-92.03C789.19,-90.91 793.14,-89.89 797,-89 930.87,-58.16 968.89,-77.87 1104,-53 1106.93,-52.46 1109.91,-51.88 1112.91,-51.28"/>
<polygon fill="midnightblue" stroke="midnightblue" points="784.01,-88.74 775.43,-94.96 786.01,-95.45 784.01,-88.74"/>
</g>
<!-- Node8 -->
<g id="node8" class="node">
<title>Node8</title>
<g id="a_node8"><a xlink:href="test__dummies_8cpp.xhtml" target="_top" xlink:title=" ">
<polygon fill="white" stroke="black" points="647.5,-11.5 647.5,-41.5 800.5,-41.5 800.5,-11.5 647.5,-11.5"/>
<text text-anchor="start" x="655.5" y="-29.5" font-family="Helvetica,sans-Serif" font-size="10.00">Task&#45;Tracker&#45;Device</text>
<text text-anchor="middle" x="724" y="-18.5" font-family="Helvetica,sans-Serif" font-size="10.00">/test/hmi/test_dummies.cpp</text>
</a>
</g>
</g>
<!-- Node2&#45;&gt;Node8 -->
<g id="edge7" class="edge">
<title>Node2&#45;&gt;Node8</title>
<path fill="none" stroke="midnightblue" d="M724,-84.69C724,-70.15 724,-53.36 724,-41.74"/>
<polygon fill="midnightblue" stroke="midnightblue" points="720.5,-84.76 724,-94.76 727.5,-84.76 720.5,-84.76"/>
</g>
<!-- Node9 -->
<g id="node9" class="node">
<title>Node9</title>
<g id="a_node9"><a xlink:href="test__hmi_8cpp.xhtml" target="_top" xlink:title=" ">
<polygon fill="white" stroke="black" points="819,-6 819,-47 947,-47 947,-6 819,-6"/>
<text text-anchor="start" x="827" y="-35" font-family="Helvetica,sans-Serif" font-size="10.00">Task&#45;Tracker&#45;Device</text>
<text text-anchor="start" x="827" y="-24" font-family="Helvetica,sans-Serif" font-size="10.00">/test/hmi/test_hmi/test</text>
<text text-anchor="middle" x="883" y="-13" font-family="Helvetica,sans-Serif" font-size="10.00">_hmi.cpp</text>
</a>
</g>
</g>
<!-- Node2&#45;&gt;Node9 -->
<g id="edge8" class="edge">
<title>Node2&#45;&gt;Node9</title>
<path fill="none" stroke="midnightblue" d="M768.55,-90.12C793.38,-76.54 823.89,-59.84 847.16,-47.11"/>
<polygon fill="midnightblue" stroke="midnightblue" points="766.78,-87.1 759.68,-94.98 770.14,-93.25 766.78,-87.1"/>
</g>
<!-- Node10 -->
<g id="node10" class="node">
<title>Node10</title>
<g id="a_node10"><a xlink:href="test__keyState_8cpp.xhtml" target="_top" xlink:title=" ">
<polygon fill="white" stroke="black" points="965,-6 965,-47 1095,-47 1095,-6 965,-6"/>
<text text-anchor="start" x="973" y="-35" font-family="Helvetica,sans-Serif" font-size="10.00">Task&#45;Tracker&#45;Device</text>
<text text-anchor="start" x="973" y="-24" font-family="Helvetica,sans-Serif" font-size="10.00">/test/hmi/test_keyState</text>
<text text-anchor="middle" x="1030" y="-13" font-family="Helvetica,sans-Serif" font-size="10.00">/test_keyState.cpp</text>
</a>
</g>
</g>
<!-- Node2&#45;&gt;Node10 -->
<g id="edge9" class="edge">
<title>Node2&#45;&gt;Node10</title>
<path fill="none" stroke="midnightblue" d="M787.56,-91.82C790.75,-90.83 793.9,-89.89 797,-89 866.65,-69.02 886.31,-72.83 956,-53 962.27,-51.21 968.8,-49.2 975.25,-47.11"/>
<polygon fill="midnightblue" stroke="midnightblue" points="786.46,-88.5 778,-94.87 788.59,-95.17 786.46,-88.5"/>
</g>
<!-- Node11&#45;&gt;Node7 -->
<g id="edge12" class="edge">
<title>Node11&#45;&gt;Node7</title>
<path fill="none" stroke="midnightblue" d="M1205,-79.19C1205,-70.28 1205,-60.9 1205,-52.61"/>
<polygon fill="midnightblue" stroke="midnightblue" points="1201.5,-79.34 1205,-89.34 1208.5,-79.34 1201.5,-79.34"/>
</g>
<!-- Node12 -->
<g id="node12" class="node">
<title>Node12</title>
<g id="a_node12"><a xlink:href="status__indicators_8cpp.xhtml" target="_top" xlink:title=" ">
<polygon fill="white" stroke="black" points="1315,-0.5 1315,-52.5 1451,-52.5 1451,-0.5 1315,-0.5"/>
<text text-anchor="start" x="1323" y="-40.5" font-family="Helvetica,sans-Serif" font-size="10.00">Task&#45;Tracker&#45;Device</text>
<text text-anchor="start" x="1323" y="-29.5" font-family="Helvetica,sans-Serif" font-size="10.00">/lib/board_adapters</text>
<text text-anchor="start" x="1323" y="-18.5" font-family="Helvetica,sans-Serif" font-size="10.00">/status_indicators/status</text>
<text text-anchor="middle" x="1383" y="-7.5" font-family="Helvetica,sans-Serif" font-size="10.00">_indicators.cpp</text>
</a>
</g>
</g>
<!-- Node11&#45;&gt;Node12 -->
<g id="edge11" class="edge">
<title>Node11&#45;&gt;Node12</title>
<path fill="none" stroke="midnightblue" d="M1265.53,-84.92C1287.02,-74.41 1310.98,-62.7 1331.63,-52.61"/>
<polygon fill="midnightblue" stroke="midnightblue" points="1263.93,-81.8 1256.48,-89.34 1267.01,-88.09 1263.93,-81.8"/>
</g>
<!-- Node13&#45;&gt;Node8 -->
<g id="edge14" class="edge">
<title>Node13&#45;&gt;Node8</title>
<path fill="none" stroke="midnightblue" d="M848.3,-95.51C818.56,-79.24 776.4,-56.17 749.63,-41.52"/>
<polygon fill="midnightblue" stroke="midnightblue" points="846.65,-98.6 857.1,-100.33 850.01,-92.46 846.65,-98.6"/>
</g>
<!-- Node13&#45;&gt;Node9 -->
<g id="edge15" class="edge">
<title>Node13&#45;&gt;Node9</title>
<path fill="none" stroke="midnightblue" d="M883,-90.04C883,-76.47 883,-59.81 883,-47.1"/>
<polygon fill="midnightblue" stroke="midnightblue" points="879.5,-90.13 883,-100.13 886.5,-90.13 879.5,-90.13"/>
</g>
<!-- Node13&#45;&gt;Node10 -->
<g id="edge16" class="edge">
<title>Node13&#45;&gt;Node10</title>
<path fill="none" stroke="midnightblue" d="M915.76,-95.11C939.95,-80.79 972.76,-61.38 997.01,-47.03"/>
<polygon fill="midnightblue" stroke="midnightblue" points="913.77,-92.22 906.95,-100.33 917.33,-98.25 913.77,-92.22"/>
</g>
</g>
</svg>
