<?xml version="1.0" encoding="UTF-8" standalone="no"?>
<!DOCTYPE svg PUBLIC "-//W3C//DTD SVG 1.1//EN"
 "http://www.w3.org/Graphics/SVG/1.1/DTD/svg11.dtd">
<!-- Generated by graphviz version 2.43.0 (0)
 -->
<!-- Title: lib/board_adapters/board_pins.hpp Pages: 1 -->
<svg width="115pt" height="151pt"
 viewBox="0.00 0.00 115.00 151.00" xmlns="http://www.w3.org/2000/svg" xmlns:xlink="http://www.w3.org/1999/xlink">
<g id="graph0" class="graph" transform="scale(1 1) rotate(0) translate(4 147)">
<title>lib/board_adapters/board_pins.hpp</title>
<polygon fill="white" stroke="transparent" points="-4,4 -4,-147 111,-147 111,4 -4,4"/>
<!-- Node1 -->
<g id="node1" class="node">
<title>Node1</title>
<g id="a_node1"><a xlink:title="Provides named objects for the pins provided by the board.">
<polygon fill="#bfbfbf" stroke="black" points="0,-112.5 0,-142.5 107,-142.5 107,-112.5 0,-112.5"/>
<text text-anchor="start" x="8" y="-130.5" font-family="Helvetica,sans-Serif" font-size="10.00">lib/board_adapters</text>
<text text-anchor="middle" x="53.5" y="-119.5" font-family="Helvetica,sans-Serif" font-size="10.00">/board_pins.hpp</text>
</a>
</g>
</g>
<!-- Node2 -->
<g id="node2" class="node">
<title>Node2</title>
<g id="a_node2"><a xlink:href="board__types_8hpp.xhtml" target="_top" xlink:title=" ">
<polygon fill="white" stroke="black" points="4.5,-56.5 4.5,-75.5 102.5,-75.5 102.5,-56.5 4.5,-56.5"/>
<text text-anchor="middle" x="53.5" y="-63.5" font-family="Helvetica,sans-Serif" font-size="10.00">board_types.hpp</text>
</a>
</g>
</g>
<!-- Node1&#45;&gt;Node2 -->
<g id="edge1" class="edge">
<title>Node1&#45;&gt;Node2</title>
<path fill="none" stroke="midnightblue" d="M53.5,-112.4C53.5,-104.47 53.5,-94.46 53.5,-85.86"/>
<polygon fill="midnightblue" stroke="midnightblue" points="57,-85.66 53.5,-75.66 50,-85.66 57,-85.66"/>
</g>
<!-- Node3 -->
<g id="node3" class="node">
<title>Node3</title>
<g id="a_node3"><a xlink:title=" ">
<polygon fill="white" stroke="#bfbfbf" points="28.5,-0.5 28.5,-19.5 78.5,-19.5 78.5,-0.5 28.5,-0.5"/>
<text text-anchor="middle" x="53.5" y="-7.5" font-family="Helvetica,sans-Serif" font-size="10.00">cstdint</text>
</a>
</g>
</g>
<!-- Node2&#45;&gt;Node3 -->
<g id="edge2" class="edge">
<title>Node2&#45;&gt;Node3</title>
<path fill="none" stroke="midnightblue" d="M53.5,-56.08C53.5,-49.01 53.5,-38.86 53.5,-29.99"/>
<polygon fill="midnightblue" stroke="midnightblue" points="57,-29.75 53.5,-19.75 50,-29.75 57,-29.75"/>
</g>
</g>
</svg>
