<?xml version="1.0" encoding="UTF-8" standalone="no"?>
<!DOCTYPE svg PUBLIC "-//W3C//DTD SVG 1.1//EN"
 "http://www.w3.org/Graphics/SVG/1.1/DTD/svg11.dtd">
<!-- Generated by graphviz version 2.43.0 (0)
 -->
<!-- Title: lib/board_adapters/board_types.hpp Pages: 1 -->
<svg width="1450pt" height="195pt"
 viewBox="0.00 0.00 1450.00 195.00" xmlns="http://www.w3.org/2000/svg" xmlns:xlink="http://www.w3.org/1999/xlink">
<g id="graph0" class="graph" transform="scale(1 1) rotate(0) translate(4 191)">
<title>lib/board_adapters/board_types.hpp</title>
<polygon fill="white" stroke="transparent" points="-4,4 -4,-191 1446,-191 1446,4 -4,4"/>
<!-- Node1 -->
<g id="node1" class="node">
<title>Node1</title>
<g id="a_node1"><a xlink:title=" ">
<polygon fill="#bfbfbf" stroke="black" points="824.5,-156.5 824.5,-186.5 931.5,-186.5 931.5,-156.5 824.5,-156.5"/>
<text text-anchor="start" x="832.5" y="-174.5" font-family="Helvetica,sans-Serif" font-size="10.00">lib/board_adapters</text>
<text text-anchor="middle" x="878" y="-163.5" font-family="Helvetica,sans-Serif" font-size="10.00">/board_types.hpp</text>
</a>
</g>
</g>
<!-- Node2 -->
<g id="node2" class="node">
<title>Node2</title>
<g id="a_node2"><a xlink:href="board__pins_8hpp.xhtml" target="_top" xlink:title="Provides named objects for the pins provided by the board.">
<polygon fill="white" stroke="black" points="669.5,-84 669.5,-114 776.5,-114 776.5,-84 669.5,-84"/>
<text text-anchor="start" x="677.5" y="-102" font-family="Helvetica,sans-Serif" font-size="10.00">lib/board_adapters</text>
<text text-anchor="middle" x="723" y="-91" font-family="Helvetica,sans-Serif" font-size="10.00">/board_pins.hpp</text>
</a>
</g>
</g>
<!-- Node1&#45;&gt;Node2 -->
<g id="edge1" class="edge">
<title>Node1&#45;&gt;Node2</title>
<path fill="none" stroke="midnightblue" d="M837.74,-152.19C811.58,-140.29 778,-125.02 753.94,-114.07"/>
<polygon fill="midnightblue" stroke="midnightblue" points="836.45,-155.45 847.01,-156.4 839.35,-149.08 836.45,-155.45"/>
</g>
<!-- Node11 -->
<g id="node11" class="node">
<title>Node11</title>
<g id="a_node11"><a xlink:href="status__indicators_8hpp.xhtml" target="_top" xlink:title=" ">
<polygon fill="white" stroke="black" points="1128,-78.5 1128,-119.5 1264,-119.5 1264,-78.5 1128,-78.5"/>
<text text-anchor="start" x="1136" y="-107.5" font-family="Helvetica,sans-Serif" font-size="10.00">lib/board_adapters</text>
<text text-anchor="start" x="1136" y="-96.5" font-family="Helvetica,sans-Serif" font-size="10.00">/status_indicators/status</text>
<text text-anchor="middle" x="1196" y="-85.5" font-family="Helvetica,sans-Serif" font-size="10.00">_indicators.hpp</text>
</a>
</g>
</g>
<!-- Node1&#45;&gt;Node11 -->
<g id="edge10" class="edge">
<title>Node1&#45;&gt;Node11</title>
<path fill="none" stroke="midnightblue" d="M941.37,-156.45C995.27,-144.5 1072.51,-127.38 1127.76,-115.13"/>
<polygon fill="midnightblue" stroke="midnightblue" points="940.59,-153.04 931.58,-158.62 942.11,-159.87 940.59,-153.04"/>
</g>
<!-- Node13 -->
<g id="node13" class="node">
<title>Node13</title>
<g id="a_node13"><a xlink:href="test__dummies_8hpp.xhtml" target="_top" xlink:title=" ">
<polygon fill="white" stroke="black" points="802.5,-89.5 802.5,-108.5 953.5,-108.5 953.5,-89.5 802.5,-89.5"/>
<text text-anchor="middle" x="878" y="-96.5" font-family="Helvetica,sans-Serif" font-size="10.00">test/hmi/test_dummies.hpp</text>
</a>
</g>
</g>
<!-- Node1&#45;&gt;Node13 -->
<g id="edge13" class="edge">
<title>Node1&#45;&gt;Node13</title>
<path fill="none" stroke="midnightblue" d="M878,-146.09C878,-133.21 878,-118.2 878,-108.89"/>
<polygon fill="midnightblue" stroke="midnightblue" points="874.5,-146.23 878,-156.23 881.5,-146.23 874.5,-146.23"/>
</g>
<!-- Node3 -->
<g id="node3" class="node">
<title>Node3</title>
<g id="a_node3"><a xlink:href="framework__adapter_8cpp.xhtml" target="_top" xlink:title=" ">
<polygon fill="white" stroke="black" points="152,-6 152,-36 328,-36 328,-6 152,-6"/>
<text text-anchor="start" x="160" y="-24" font-family="Helvetica,sans-Serif" font-size="10.00">lib/3rd_party_adapters</text>
<text text-anchor="middle" x="240" y="-13" font-family="Helvetica,sans-Serif" font-size="10.00">/Arduino/framework_adapter.cpp</text>
</a>
</g>
</g>
<!-- Node2&#45;&gt;Node3 -->
<g id="edge2" class="edge">
<title>Node2&#45;&gt;Node3</title>
<path fill="none" stroke="midnightblue" d="M659.47,-89.96C582.82,-79.98 450.14,-61.85 337,-42 326.75,-40.2 315.93,-38.14 305.38,-36.03"/>
<polygon fill="midnightblue" stroke="midnightblue" points="659.09,-93.44 669.45,-91.25 659.99,-86.5 659.09,-93.44"/>
</g>
<!-- Node4 -->
<g id="node4" class="node">
<title>Node4</title>
<g id="a_node4"><a xlink:href="guiEngine__factory__interface_8cpp.xhtml" target="_top" xlink:title=" ">
<polygon fill="white" stroke="black" points="346,-0.5 346,-41.5 480,-41.5 480,-0.5 346,-0.5"/>
<text text-anchor="start" x="354" y="-29.5" font-family="Helvetica,sans-Serif" font-size="10.00">lib/3rd_party_adapters</text>
<text text-anchor="start" x="354" y="-18.5" font-family="Helvetica,sans-Serif" font-size="10.00">/LVGL/guiEngine_factory</text>
<text text-anchor="middle" x="413" y="-7.5" font-family="Helvetica,sans-Serif" font-size="10.00">_interface.cpp</text>
</a>
</g>
</g>
<!-- Node2&#45;&gt;Node4 -->
<g id="edge3" class="edge">
<title>Node2&#45;&gt;Node4</title>
<path fill="none" stroke="midnightblue" d="M659.71,-83.26C612.58,-72.18 546.68,-56.49 489,-42 486.09,-41.27 483.12,-40.52 480.12,-39.75"/>
<polygon fill="midnightblue" stroke="midnightblue" points="658.94,-86.67 669.48,-85.55 660.54,-79.86 658.94,-86.67"/>
</g>
<!-- Node5 -->
<g id="node5" class="node">
<title>Node5</title>
<g id="a_node5"><a xlink:href="Keypad_8cpp.xhtml" target="_top" xlink:title=" ">
<polygon fill="white" stroke="black" points="498.5,-0.5 498.5,-41.5 629.5,-41.5 629.5,-0.5 498.5,-0.5"/>
<text text-anchor="start" x="506.5" y="-29.5" font-family="Helvetica,sans-Serif" font-size="10.00">lib/board_adapters</text>
<text text-anchor="start" x="506.5" y="-18.5" font-family="Helvetica,sans-Serif" font-size="10.00">/input_device_interface</text>
<text text-anchor="middle" x="564" y="-7.5" font-family="Helvetica,sans-Serif" font-size="10.00">/Keypad.cpp</text>
</a>
</g>
</g>
<!-- Node2&#45;&gt;Node5 -->
<g id="edge4" class="edge">
<title>Node2&#45;&gt;Node5</title>
<path fill="none" stroke="midnightblue" d="M684.3,-79.5C660.3,-68.03 629.49,-53.3 605.06,-41.63"/>
<polygon fill="midnightblue" stroke="midnightblue" points="682.93,-82.73 693.47,-83.88 685.95,-76.41 682.93,-82.73"/>
</g>
<!-- Node6 -->
<g id="node6" class="node">
<title>Node6</title>
<g id="a_node6"><a xlink:href="sound__output_8cpp.xhtml" target="_top" xlink:title=" ">
<polygon fill="white" stroke="black" points="0,-0.5 0,-41.5 134,-41.5 134,-0.5 0,-0.5"/>
<text text-anchor="start" x="8" y="-29.5" font-family="Helvetica,sans-Serif" font-size="10.00">lib/board_adapters</text>
<text text-anchor="start" x="8" y="-18.5" font-family="Helvetica,sans-Serif" font-size="10.00">/sound_output_interface</text>
<text text-anchor="middle" x="67" y="-7.5" font-family="Helvetica,sans-Serif" font-size="10.00">/sound_output.cpp</text>
</a>
</g>
</g>
<!-- Node2&#45;&gt;Node6 -->
<g id="edge5" class="edge">
<title>Node2&#45;&gt;Node6</title>
<path fill="none" stroke="midnightblue" d="M659.42,-95.22C552.21,-89.77 328.95,-75.22 143,-42 140.05,-41.47 137.04,-40.89 134.01,-40.26"/>
<polygon fill="midnightblue" stroke="midnightblue" points="659.27,-98.71 669.43,-95.71 659.62,-91.72 659.27,-98.71"/>
</g>
<!-- Node7 -->
<g id="node7" class="node">
<title>Node7</title>
<g id="a_node7"><a xlink:href="statusindicators__factory__interface_8cpp.xhtml" target="_top" xlink:title=" ">
<polygon fill="white" stroke="black" points="1104,-0.5 1104,-41.5 1288,-41.5 1288,-0.5 1104,-0.5"/>
<text text-anchor="start" x="1112" y="-29.5" font-family="Helvetica,sans-Serif" font-size="10.00">lib/board_adapters</text>
<text text-anchor="start" x="1112" y="-18.5" font-family="Helvetica,sans-Serif" font-size="10.00">/status_indicators/statusindicators</text>
<text text-anchor="middle" x="1196" y="-7.5" font-family="Helvetica,sans-Serif" font-size="10.00">_factory_interface.cpp</text>
</a>
</g>
</g>
<!-- Node2&#45;&gt;Node7 -->
<g id="edge6" class="edge">
<title>Node2&#45;&gt;Node7</title>
<path fill="none" stroke="midnightblue" d="M778.36,-81.31C783.29,-80.09 788.22,-78.96 793,-78 925.52,-51.35 961.49,-63.14 1095,-42 1097.91,-41.54 1100.87,-41.05 1103.85,-40.55"/>
<polygon fill="midnightblue" stroke="midnightblue" points="777.1,-78.02 768.3,-83.92 778.86,-84.79 777.1,-78.02"/>
</g>
<!-- Node8 -->
<g id="node8" class="node">
<title>Node8</title>
<g id="a_node8"><a xlink:href="test__dummies_8cpp.xhtml" target="_top" xlink:title=" ">
<polygon fill="white" stroke="black" points="648,-11.5 648,-30.5 798,-30.5 798,-11.5 648,-11.5"/>
<text text-anchor="middle" x="723" y="-18.5" font-family="Helvetica,sans-Serif" font-size="10.00">test/hmi/test_dummies.cpp</text>
</a>
</g>
</g>
<!-- Node2&#45;&gt;Node8 -->
<g id="edge7" class="edge">
<title>Node2&#45;&gt;Node8</title>
<path fill="none" stroke="midnightblue" d="M723,-73.67C723,-58.9 723,-40.95 723,-30.56"/>
<polygon fill="midnightblue" stroke="midnightblue" points="719.5,-73.7 723,-83.7 726.5,-73.71 719.5,-73.7"/>
</g>
<!-- Node9 -->
<g id="node9" class="node">
<title>Node9</title>
<g id="a_node9"><a xlink:href="test__hmi_8cpp.xhtml" target="_top" xlink:title=" ">
<polygon fill="white" stroke="black" points="815.5,-6 815.5,-36 940.5,-36 940.5,-6 815.5,-6"/>
<text text-anchor="start" x="823.5" y="-24" font-family="Helvetica,sans-Serif" font-size="10.00">test/hmi/test_hmi/test</text>
<text text-anchor="middle" x="878" y="-13" font-family="Helvetica,sans-Serif" font-size="10.00">_hmi.cpp</text>
</a>
</g>
</g>
<!-- Node2&#45;&gt;Node9 -->
<g id="edge8" class="edge">
<title>Node2&#45;&gt;Node9</title>
<path fill="none" stroke="midnightblue" d="M761.04,-79.35C788.32,-65.97 824.51,-48.23 849.36,-36.04"/>
<polygon fill="midnightblue" stroke="midnightblue" points="759.23,-76.34 751.79,-83.88 762.31,-82.62 759.23,-76.34"/>
</g>
<!-- Node10 -->
<g id="node10" class="node">
<title>Node10</title>
<g id="a_node10"><a xlink:href="test__keyState_8cpp.xhtml" target="_top" xlink:title=" ">
<polygon fill="white" stroke="black" points="958.5,-6 958.5,-36 1085.5,-36 1085.5,-6 958.5,-6"/>
<text text-anchor="start" x="966.5" y="-24" font-family="Helvetica,sans-Serif" font-size="10.00">test/hmi/test_keyState</text>
<text text-anchor="middle" x="1022" y="-13" font-family="Helvetica,sans-Serif" font-size="10.00">/test_keyState.cpp</text>
</a>
</g>
</g>
<!-- Node2&#45;&gt;Node10 -->
<g id="edge9" class="edge">
<title>Node2&#45;&gt;Node10</title>
<path fill="none" stroke="midnightblue" d="M780.54,-81.3C784.75,-80.16 788.94,-79.05 793,-78 862.33,-60.16 880.6,-59.58 950,-42 957.29,-40.15 964.98,-38.11 972.5,-36.07"/>
<polygon fill="midnightblue" stroke="midnightblue" points="779.44,-77.97 770.73,-84 781.3,-84.72 779.44,-77.97"/>
</g>
<!-- Node11&#45;&gt;Node7 -->
<g id="edge12" class="edge">
<title>Node11&#45;&gt;Node7</title>
<path fill="none" stroke="midnightblue" d="M1196,-68.3C1196,-59.3 1196,-49.65 1196,-41.51"/>
<polygon fill="midnightblue" stroke="midnightblue" points="1192.5,-68.43 1196,-78.43 1199.5,-68.43 1192.5,-68.43"/>
</g>
<!-- Node12 -->
<g id="node12" class="node">
<title>Node12</title>
<g id="a_node12"><a xlink:href="status__indicators_8cpp.xhtml" target="_top" xlink:title=" ">
<polygon fill="white" stroke="black" points="1306,-0.5 1306,-41.5 1442,-41.5 1442,-0.5 1306,-0.5"/>
<text text-anchor="start" x="1314" y="-29.5" font-family="Helvetica,sans-Serif" font-size="10.00">lib/board_adapters</text>
<text text-anchor="start" x="1314" y="-18.5" font-family="Helvetica,sans-Serif" font-size="10.00">/status_indicators/status</text>
<text text-anchor="middle" x="1374" y="-7.5" font-family="Helvetica,sans-Serif" font-size="10.00">_indicators.cpp</text>
</a>
</g>
</g>
<!-- Node11&#45;&gt;Node12 -->
<g id="edge11" class="edge">
<title>Node11&#45;&gt;Node12</title>
<path fill="none" stroke="midnightblue" d="M1251.11,-74.47C1275.88,-63.89 1304.77,-51.56 1328.32,-41.51"/>
<polygon fill="midnightblue" stroke="midnightblue" points="1249.66,-71.28 1241.84,-78.43 1252.41,-77.72 1249.66,-71.28"/>
</g>
<!-- Node13&#45;&gt;Node8 -->
<g id="edge14" class="edge">
<title>Node13&#45;&gt;Node8</title>
<path fill="none" stroke="midnightblue" d="M851.4,-84.96C819.73,-69.43 767.74,-43.94 740.65,-30.66"/>
<polygon fill="midnightblue" stroke="midnightblue" points="850,-88.17 860.52,-89.43 853.08,-81.88 850,-88.17"/>
</g>
<!-- Node13&#45;&gt;Node9 -->
<g id="edge15" class="edge">
<title>Node13&#45;&gt;Node9</title>
<path fill="none" stroke="midnightblue" d="M878,-79.28C878,-65.9 878,-48.19 878,-36.02"/>
<polygon fill="midnightblue" stroke="midnightblue" points="874.5,-79.28 878,-89.28 881.5,-79.28 874.5,-79.28"/>
</g>
<!-- Node13&#45;&gt;Node10 -->
<g id="edge16" class="edge">
<title>Node13&#45;&gt;Node10</title>
<path fill="none" stroke="midnightblue" d="M903.39,-84.6C929.21,-70.97 969.05,-49.95 995.32,-36.08"/>
<polygon fill="midnightblue" stroke="midnightblue" points="901.45,-81.67 894.24,-89.43 904.72,-87.86 901.45,-81.67"/>
</g>
</g>
</svg>
