<?xml version="1.0" encoding="UTF-8" standalone="no"?>
<!DOCTYPE svg PUBLIC "-//W3C//DTD SVG 1.1//EN"
 "http://www.w3.org/Graphics/SVG/1.1/DTD/svg11.dtd">
<!-- Generated by graphviz version 2.43.0 (0)
 -->
<!-- Title: GuiEngine Pages: 1 -->
<svg width="238pt" height="226pt"
 viewBox="0.00 0.00 238.00 226.00" xmlns="http://www.w3.org/2000/svg" xmlns:xlink="http://www.w3.org/1999/xlink">
<g id="graph0" class="graph" transform="scale(1 1) rotate(0) translate(4 222)">
<title>GuiEngine</title>
<polygon fill="white" stroke="transparent" points="-4,4 -4,-222 234,-222 234,4 -4,4"/>
<!-- Node1 -->
<g id="node1" class="node">
<title>Node1</title>
<g id="a_node1"><a xlink:title="lvgl version of a GuiEngine">
<polygon fill="#bfbfbf" stroke="black" points="62,-0.5 62,-90.5 170,-90.5 170,-0.5 62,-0.5"/>
<text text-anchor="middle" x="116" y="-78.5" font-family="Helvetica,sans-Serif" font-size="10.00">GuiEngine</text>
<polyline fill="none" stroke="black" points="62,-71.5 170,-71.5 "/>
<text text-anchor="middle" x="116" y="-59.5" font-family="Helvetica,sans-Serif" font-size="10.00"> </text>
<polyline fill="none" stroke="black" points="62,-52.5 170,-52.5 "/>
<text text-anchor="start" x="70" y="-40.5" font-family="Helvetica,sans-Serif" font-size="10.00">+ GuiEngine()</text>
<text text-anchor="start" x="70" y="-29.5" font-family="Helvetica,sans-Serif" font-size="10.00">+ registerKeyPad()</text>
<text text-anchor="start" x="70" y="-18.5" font-family="Helvetica,sans-Serif" font-size="10.00">+ refresh()</text>
<text text-anchor="start" x="70" y="-7.5" font-family="Helvetica,sans-Serif" font-size="10.00">+ drawMenu()</text>
</a>
</g>
</g>
<!-- Node2 -->
<g id="node2" class="node">
<title>Node2</title>
<g id="a_node2"><a xlink:href="classIGuiEngine.xhtml" target="_top" xlink:title="Interface to a guiEngine capable of displaying various information to a human.">
<polygon fill="white" stroke="black" points="0,-138.5 0,-217.5 108,-217.5 108,-138.5 0,-138.5"/>
<text text-anchor="middle" x="54" y="-205.5" font-family="Helvetica,sans-Serif" font-size="10.00">IGuiEngine</text>
<polyline fill="none" stroke="black" points="0,-198.5 108,-198.5 "/>
<text text-anchor="middle" x="54" y="-186.5" font-family="Helvetica,sans-Serif" font-size="10.00"> </text>
<polyline fill="none" stroke="black" points="0,-179.5 108,-179.5 "/>
<text text-anchor="start" x="8" y="-167.5" font-family="Helvetica,sans-Serif" font-size="10.00">+ registerKeyPad()</text>
<text text-anchor="start" x="8" y="-156.5" font-family="Helvetica,sans-Serif" font-size="10.00">+ refresh()</text>
<text text-anchor="start" x="8" y="-145.5" font-family="Helvetica,sans-Serif" font-size="10.00">+ drawMenu()</text>
</a>
</g>
</g>
<!-- Node2&#45;&gt;Node1 -->
<g id="edge1" class="edge">
<title>Node2&#45;&gt;Node1</title>
<path fill="none" stroke="midnightblue" d="M76.86,-128.89C82.77,-116.45 89.1,-103.12 94.92,-90.88"/>
<polygon fill="none" stroke="midnightblue" points="73.56,-127.66 72.43,-138.2 79.89,-130.67 73.56,-127.66"/>
</g>
<!-- Node3 -->
<g id="node3" class="node">
<title>Node3</title>
<g id="a_node3"><a xlink:title=" ">
<polygon fill="white" stroke="#bfbfbf" points="126,-149.5 126,-206.5 230,-206.5 230,-149.5 126,-149.5"/>
<text text-anchor="middle" x="178" y="-194.5" font-family="Helvetica,sans-Serif" font-size="10.00">Adafruit_SSD1306</text>
<polyline fill="none" stroke="#bfbfbf" points="126,-187.5 230,-187.5 "/>
<text text-anchor="middle" x="178" y="-175.5" font-family="Helvetica,sans-Serif" font-size="10.00"> </text>
<polyline fill="none" stroke="#bfbfbf" points="126,-168.5 230,-168.5 "/>
<text text-anchor="middle" x="178" y="-156.5" font-family="Helvetica,sans-Serif" font-size="10.00"> </text>
</a>
</g>
</g>
<!-- Node3&#45;&gt;Node1 -->
<g id="edge2" class="edge">
<title>Node3&#45;&gt;Node1</title>
<path fill="none" stroke="#404040" d="M164.85,-149.32C158.27,-135.46 150.05,-118.17 142.25,-101.75"/>
<polygon fill="none" stroke="#404040" points="142.09,-101.41 135.9,-97.7 136.94,-90.57 143.12,-94.27 142.09,-101.41"/>
<text text-anchor="middle" x="173.5" y="-112" font-family="Helvetica,sans-Serif" font-size="10.00"> +display</text>
</g>
</g>
</svg>
