<?xml version="1.0" encoding="UTF-8" standalone="no"?>
<!DOCTYPE svg PUBLIC "-//W3C//DTD SVG 1.1//EN"
 "http://www.w3.org/Graphics/SVG/1.1/DTD/svg11.dtd">
<!-- Generated by graphviz version 2.43.0 (0)
 -->
<!-- Title: ScreenValueModifier Pages: 1 -->
<svg width="151pt" height="215pt"
 viewBox="0.00 0.00 151.00 215.00" xmlns="http://www.w3.org/2000/svg" xmlns:xlink="http://www.w3.org/1999/xlink">
<g id="graph0" class="graph" transform="scale(1 1) rotate(0) translate(4 211)">
<title>ScreenValueModifier</title>
<polygon fill="white" stroke="transparent" points="-4,4 -4,-211 147,-211 147,4 -4,4"/>
<!-- Node1 -->
<g id="node1" class="node">
<title>Node1</title>
<g id="a_node1"><a xlink:title="Screen for value modification.">
<polygon fill="#bfbfbf" stroke="black" points="0,-0.5 0,-90.5 143,-90.5 143,-0.5 0,-0.5"/>
<text text-anchor="middle" x="71.5" y="-78.5" font-family="Helvetica,sans-Serif" font-size="10.00">ScreenValueModifier</text>
<polyline fill="none" stroke="black" points="0,-71.5 143,-71.5 "/>
<text text-anchor="start" x="8" y="-59.5" font-family="Helvetica,sans-Serif" font-size="10.00">+ _menuItem</text>
<text text-anchor="start" x="8" y="-48.5" font-family="Helvetica,sans-Serif" font-size="10.00">+ _spinbox</text>
<polyline fill="none" stroke="black" points="0,-41.5 143,-41.5 "/>
<text text-anchor="start" x="8" y="-29.5" font-family="Helvetica,sans-Serif" font-size="10.00">+ ScreenValueModifier()</text>
<text text-anchor="start" x="8" y="-18.5" font-family="Helvetica,sans-Serif" font-size="10.00">+ ~ScreenValueModifier()</text>
<text text-anchor="start" x="8" y="-7.5" font-family="Helvetica,sans-Serif" font-size="10.00">+ draw()</text>
</a>
</g>
</g>
<!-- Node2 -->
<g id="node2" class="node">
<title>Node2</title>
<g id="a_node2"><a xlink:href="classIScreen.xhtml" target="_top" xlink:title="Interface class for Screen objects.">
<polygon fill="white" stroke="black" points="31.5,-127.5 31.5,-206.5 111.5,-206.5 111.5,-127.5 31.5,-127.5"/>
<text text-anchor="middle" x="71.5" y="-194.5" font-family="Helvetica,sans-Serif" font-size="10.00">IScreen</text>
<polyline fill="none" stroke="black" points="31.5,-187.5 111.5,-187.5 "/>
<text text-anchor="middle" x="71.5" y="-175.5" font-family="Helvetica,sans-Serif" font-size="10.00"> </text>
<polyline fill="none" stroke="black" points="31.5,-168.5 111.5,-168.5 "/>
<text text-anchor="start" x="39.5" y="-156.5" font-family="Helvetica,sans-Serif" font-size="10.00">+ IScreen()</text>
<text text-anchor="start" x="39.5" y="-145.5" font-family="Helvetica,sans-Serif" font-size="10.00">+ ~IScreen()</text>
<text text-anchor="start" x="39.5" y="-134.5" font-family="Helvetica,sans-Serif" font-size="10.00">+ draw()</text>
</a>
</g>
</g>
<!-- Node2&#45;&gt;Node1 -->
<g id="edge1" class="edge">
<title>Node2&#45;&gt;Node1</title>
<path fill="none" stroke="midnightblue" d="M71.5,-117.19C71.5,-108.49 71.5,-99.48 71.5,-90.91"/>
<polygon fill="none" stroke="midnightblue" points="68,-117.2 71.5,-127.2 75,-117.2 68,-117.2"/>
</g>
</g>
</svg>
