<?xml version="1.0" encoding="UTF-8" standalone="no"?>
<!DOCTYPE svg PUBLIC "-//W3C//DTD SVG 1.1//EN"
 "http://www.w3.org/Graphics/SVG/1.1/DTD/svg11.dtd">
<!-- Generated by graphviz version 2.43.0 (0)
 -->
<!-- Title: Task&#45;Tracker&#45;Device/lib/3rd_party_adapters/FreeRTOS/debouncedIsr.cpp Pages: 1 -->
<svg width="532pt" height="173pt"
 viewBox="0.00 0.00 532.00 173.00" xmlns="http://www.w3.org/2000/svg" xmlns:xlink="http://www.w3.org/1999/xlink">
<g id="graph0" class="graph" transform="scale(1 1) rotate(0) translate(4 169)">
<title>Task&#45;Tracker&#45;Device/lib/3rd_party_adapters/FreeRTOS/debouncedIsr.cpp</title>
<polygon fill="white" stroke="transparent" points="-4,4 -4,-169 528,-169 528,4 -4,4"/>
<!-- Node1 -->
<g id="node1" class="node">
<title>Node1</title>
<g id="a_node1"><a xlink:title=" ">
<polygon fill="#bfbfbf" stroke="black" points="131.5,-123.5 131.5,-164.5 285.5,-164.5 285.5,-123.5 131.5,-123.5"/>
<text text-anchor="start" x="139.5" y="-152.5" font-family="Helvetica,sans-Serif" font-size="10.00">Task&#45;Tracker&#45;Device</text>
<text text-anchor="start" x="139.5" y="-141.5" font-family="Helvetica,sans-Serif" font-size="10.00">/lib/3rd_party_adapters</text>
<text text-anchor="middle" x="208.5" y="-130.5" font-family="Helvetica,sans-Serif" font-size="10.00">/FreeRTOS/debouncedIsr.cpp</text>
</a>
</g>
</g>
<!-- Node2 -->
<g id="node2" class="node">
<title>Node2</title>
<g id="a_node2"><a xlink:title=" ">
<polygon fill="white" stroke="#bfbfbf" points="0,-62 0,-81 63,-81 63,-62 0,-62"/>
<text text-anchor="middle" x="31.5" y="-69" font-family="Helvetica,sans-Serif" font-size="10.00">Arduino.h</text>
</a>
</g>
</g>
<!-- Node1&#45;&gt;Node2 -->
<g id="edge1" class="edge">
<title>Node1&#45;&gt;Node2</title>
<path fill="none" stroke="midnightblue" d="M159.2,-123.36C128.36,-111.08 89.56,-95.63 62.87,-84.99"/>
<polygon fill="midnightblue" stroke="midnightblue" points="63.86,-81.62 53.28,-81.17 61.27,-88.13 63.86,-81.62"/>
</g>
<!-- Node3 -->
<g id="node3" class="node">
<title>Node3</title>
<g id="a_node3"><a xlink:title=" ">
<polygon fill="white" stroke="#bfbfbf" points="81.5,-62 81.5,-81 133.5,-81 133.5,-62 81.5,-62"/>
<text text-anchor="middle" x="107.5" y="-69" font-family="Helvetica,sans-Serif" font-size="10.00">cassert</text>
</a>
</g>
</g>
<!-- Node1&#45;&gt;Node3 -->
<g id="edge2" class="edge">
<title>Node1&#45;&gt;Node3</title>
<path fill="none" stroke="midnightblue" d="M180.37,-123.36C163.93,-111.89 143.54,-97.65 128.51,-87.16"/>
<polygon fill="midnightblue" stroke="midnightblue" points="130.13,-84.03 119.93,-81.17 126.12,-89.77 130.13,-84.03"/>
</g>
<!-- Node4 -->
<g id="node4" class="node">
<title>Node4</title>
<g id="a_node4"><a xlink:title=" ">
<polygon fill="white" stroke="#bfbfbf" points="152,-62 152,-81 265,-81 265,-62 152,-62"/>
<text text-anchor="middle" x="208.5" y="-69" font-family="Helvetica,sans-Serif" font-size="10.00">freertos/FreeRTOS.h</text>
</a>
</g>
</g>
<!-- Node1&#45;&gt;Node4 -->
<g id="edge3" class="edge">
<title>Node1&#45;&gt;Node4</title>
<path fill="none" stroke="midnightblue" d="M208.5,-123.36C208.5,-113.3 208.5,-101.1 208.5,-91.18"/>
<polygon fill="midnightblue" stroke="midnightblue" points="212,-91.17 208.5,-81.17 205,-91.17 212,-91.17"/>
</g>
<!-- Node5 -->
<g id="node5" class="node">
<title>Node5</title>
<g id="a_node5"><a xlink:title=" ">
<polygon fill="white" stroke="#bfbfbf" points="283.5,-62 283.5,-81 371.5,-81 371.5,-62 283.5,-62"/>
<text text-anchor="middle" x="327.5" y="-69" font-family="Helvetica,sans-Serif" font-size="10.00">freertos/task.h</text>
</a>
</g>
</g>
<!-- Node1&#45;&gt;Node5 -->
<g id="edge4" class="edge">
<title>Node1&#45;&gt;Node5</title>
<path fill="none" stroke="midnightblue" d="M241.65,-123.36C261.56,-111.57 286.41,-96.85 304.24,-86.28"/>
<polygon fill="midnightblue" stroke="midnightblue" points="306.04,-89.28 312.86,-81.17 302.47,-83.26 306.04,-89.28"/>
</g>
<!-- Node6 -->
<g id="node6" class="node">
<title>Node6</title>
<g id="a_node6"><a xlink:href="debouncedIsr_8hpp.xhtml" target="_top" xlink:title=" ">
<polygon fill="white" stroke="black" points="389.5,-56.5 389.5,-86.5 517.5,-86.5 517.5,-56.5 389.5,-56.5"/>
<text text-anchor="start" x="397.5" y="-74.5" font-family="Helvetica,sans-Serif" font-size="10.00">input_device_interface</text>
<text text-anchor="middle" x="453.5" y="-63.5" font-family="Helvetica,sans-Serif" font-size="10.00">/debouncedIsr.hpp</text>
</a>
</g>
</g>
<!-- Node1&#45;&gt;Node6 -->
<g id="edge5" class="edge">
<title>Node1&#45;&gt;Node6</title>
<path fill="none" stroke="midnightblue" d="M276.42,-123.46C313.57,-112.77 359.14,-99.65 394.75,-89.41"/>
<polygon fill="midnightblue" stroke="midnightblue" points="395.87,-92.73 404.51,-86.6 393.93,-86 395.87,-92.73"/>
</g>
<!-- Node7 -->
<g id="node7" class="node">
<title>Node7</title>
<g id="a_node7"><a xlink:title=" ">
<polygon fill="white" stroke="#bfbfbf" points="390.5,-0.5 390.5,-19.5 440.5,-19.5 440.5,-0.5 390.5,-0.5"/>
<text text-anchor="middle" x="415.5" y="-7.5" font-family="Helvetica,sans-Serif" font-size="10.00">chrono</text>
</a>
</g>
</g>
<!-- Node6&#45;&gt;Node7 -->
<g id="edge6" class="edge">
<title>Node6&#45;&gt;Node7</title>
<path fill="none" stroke="midnightblue" d="M444.49,-56.4C439.09,-47.93 432.17,-37.1 426.45,-28.14"/>
<polygon fill="midnightblue" stroke="midnightblue" points="429.36,-26.2 421.03,-19.66 423.46,-29.97 429.36,-26.2"/>
</g>
<!-- Node8 -->
<g id="node8" class="node">
<title>Node8</title>
<g id="a_node8"><a xlink:title=" ">
<polygon fill="white" stroke="#bfbfbf" points="459,-0.5 459,-19.5 524,-19.5 524,-0.5 459,-0.5"/>
<text text-anchor="middle" x="491.5" y="-7.5" font-family="Helvetica,sans-Serif" font-size="10.00">functional</text>
</a>
</g>
</g>
<!-- Node6&#45;&gt;Node8 -->
<g id="edge7" class="edge">
<title>Node6&#45;&gt;Node8</title>
<path fill="none" stroke="midnightblue" d="M462.51,-56.4C467.91,-47.93 474.83,-37.1 480.55,-28.14"/>
<polygon fill="midnightblue" stroke="midnightblue" points="483.54,-29.97 485.97,-19.66 477.64,-26.2 483.54,-29.97"/>
</g>
</g>
</svg>
