<?xml version="1.0" encoding="UTF-8" standalone="no"?>
<!DOCTYPE svg PUBLIC "-//W3C//DTD SVG 1.1//EN"
 "http://www.w3.org/Graphics/SVG/1.1/DTD/svg11.dtd">
<!-- Generated by graphviz version 2.43.0 (0)
 -->
<!-- Title: lib/board_adapters/input_device_interface/debouncedIsr.hpp Pages: 1 -->
<svg width="623pt" height="128pt"
 viewBox="0.00 0.00 622.50 128.00" xmlns="http://www.w3.org/2000/svg" xmlns:xlink="http://www.w3.org/1999/xlink">
<g id="graph0" class="graph" transform="scale(1 1) rotate(0) translate(4 124)">
<title>lib/board_adapters/input_device_interface/debouncedIsr.hpp</title>
<polygon fill="white" stroke="transparent" points="-4,4 -4,-124 618.5,-124 618.5,4 -4,4"/>
<!-- Node1 -->
<g id="node1" class="node">
<title>Node1</title>
<g id="a_node1"><a xlink:title=" ">
<polygon fill="#bfbfbf" stroke="black" points="251.5,-78.5 251.5,-119.5 382.5,-119.5 382.5,-78.5 251.5,-78.5"/>
<text text-anchor="start" x="259.5" y="-107.5" font-family="Helvetica,sans-Serif" font-size="10.00">lib/board_adapters</text>
<text text-anchor="start" x="259.5" y="-96.5" font-family="Helvetica,sans-Serif" font-size="10.00">/input_device_interface</text>
<text text-anchor="middle" x="317" y="-85.5" font-family="Helvetica,sans-Serif" font-size="10.00">/debouncedIsr.hpp</text>
</a>
</g>
</g>
<!-- Node2 -->
<g id="node2" class="node">
<title>Node2</title>
<g id="a_node2"><a xlink:href="debouncedIsr_8cpp.xhtml" target="_top" xlink:title=" ">
<polygon fill="white" stroke="black" points="0,-6 0,-36 154,-36 154,-6 0,-6"/>
<text text-anchor="start" x="8" y="-24" font-family="Helvetica,sans-Serif" font-size="10.00">lib/3rd_party_adapters</text>
<text text-anchor="middle" x="77" y="-13" font-family="Helvetica,sans-Serif" font-size="10.00">/FreeRTOS/debouncedIsr.cpp</text>
</a>
</g>
</g>
<!-- Node1&#45;&gt;Node2 -->
<g id="edge1" class="edge">
<title>Node1&#45;&gt;Node2</title>
<path fill="none" stroke="midnightblue" d="M245.44,-75.34C205.22,-62.6 156.29,-47.11 121.55,-36.11"/>
<polygon fill="midnightblue" stroke="midnightblue" points="244.6,-78.75 255.19,-78.43 246.72,-72.07 244.6,-78.75"/>
</g>
<!-- Node3 -->
<g id="node3" class="node">
<title>Node3</title>
<g id="a_node3"><a xlink:href="Keypad_8cpp.xhtml" target="_top" xlink:title=" ">
<polygon fill="white" stroke="black" points="172.5,-0.5 172.5,-41.5 303.5,-41.5 303.5,-0.5 172.5,-0.5"/>
<text text-anchor="start" x="180.5" y="-29.5" font-family="Helvetica,sans-Serif" font-size="10.00">lib/board_adapters</text>
<text text-anchor="start" x="180.5" y="-18.5" font-family="Helvetica,sans-Serif" font-size="10.00">/input_device_interface</text>
<text text-anchor="middle" x="238" y="-7.5" font-family="Helvetica,sans-Serif" font-size="10.00">/Keypad.cpp</text>
</a>
</g>
</g>
<!-- Node1&#45;&gt;Node3 -->
<g id="edge2" class="edge">
<title>Node1&#45;&gt;Node3</title>
<path fill="none" stroke="midnightblue" d="M289.45,-71.49C279.19,-61.63 267.76,-50.63 258.28,-41.51"/>
<polygon fill="midnightblue" stroke="midnightblue" points="287.02,-74.02 296.66,-78.43 291.88,-68.97 287.02,-74.02"/>
</g>
<!-- Node4 -->
<g id="node4" class="node">
<title>Node4</title>
<g id="a_node4"><a xlink:href="test__dummies_8cpp.xhtml" target="_top" xlink:title=" ">
<polygon fill="white" stroke="black" points="322,-11.5 322,-30.5 472,-30.5 472,-11.5 322,-11.5"/>
<text text-anchor="middle" x="397" y="-18.5" font-family="Helvetica,sans-Serif" font-size="10.00">test/hmi/test_dummies.cpp</text>
</a>
</g>
</g>
<!-- Node1&#45;&gt;Node4 -->
<g id="edge3" class="edge">
<title>Node1&#45;&gt;Node4</title>
<path fill="none" stroke="midnightblue" d="M345.18,-71.23C360.2,-56.96 377.66,-40.37 388,-30.55"/>
<polygon fill="midnightblue" stroke="midnightblue" points="342.44,-69 337.6,-78.43 347.26,-74.08 342.44,-69"/>
</g>
<!-- Node5 -->
<g id="node5" class="node">
<title>Node5</title>
<g id="a_node5"><a xlink:href="test__hmi_8cpp.xhtml" target="_top" xlink:title=" ">
<polygon fill="white" stroke="black" points="489.5,-6 489.5,-36 614.5,-36 614.5,-6 489.5,-6"/>
<text text-anchor="start" x="497.5" y="-24" font-family="Helvetica,sans-Serif" font-size="10.00">test/hmi/test_hmi/test</text>
<text text-anchor="middle" x="552" y="-13" font-family="Helvetica,sans-Serif" font-size="10.00">_hmi.cpp</text>
</a>
</g>
</g>
<!-- Node1&#45;&gt;Node5 -->
<g id="edge4" class="edge">
<title>Node1&#45;&gt;Node5</title>
<path fill="none" stroke="midnightblue" d="M387.32,-75.26C426.65,-62.54 474.44,-47.08 508.38,-36.11"/>
<polygon fill="midnightblue" stroke="midnightblue" points="385.96,-72.02 377.52,-78.43 388.11,-78.68 385.96,-72.02"/>
</g>
</g>
</svg>
