<?xml version="1.0" encoding="UTF-8" standalone="no"?>
<!DOCTYPE svg PUBLIC "-//W3C//DTD SVG 1.1//EN"
 "http://www.w3.org/Graphics/SVG/1.1/DTD/svg11.dtd">
<!-- Generated by graphviz version 2.43.0 (0)
 -->
<!-- Title: Task&#45;Tracker&#45;Device/test/test_tasks Pages: 1 -->
<svg width="108pt" height="151pt"
 viewBox="0.00 0.00 108.00 151.00" xmlns="http://www.w3.org/2000/svg" xmlns:xlink="http://www.w3.org/1999/xlink">
<g id="graph0" class="graph" transform="scale(1 1) rotate(0) translate(4 147)">
<title>Task&#45;Tracker&#45;Device/test/test_tasks</title>
<polygon fill="white" stroke="transparent" points="-4,4 -4,-147 104,-147 104,4 -4,4"/>
<g id="clust1" class="cluster">
<title>clusterdir_75b09ee04e6f334759174746683ad215</title>
<g id="a_clust1"><a xlink:href="dir_75b09ee04e6f334759174746683ad215.xhtml" target="_top" xlink:title="test">
<polygon fill="#ddddee" stroke="black" points="8,-64 8,-135 92,-135 92,-64 8,-64"/>
<text text-anchor="middle" x="50" y="-123" font-family="Helvetica,sans-Serif" font-size="10.00">test</text>
</a>
</g>
</g>
<!-- dir_89fe783c9bd82ad9c25cd8b221206f12 -->
<g id="node1" class="node">
<title>dir_89fe783c9bd82ad9c25cd8b221206f12</title>
<g id="a_node1"><a xlink:href="dir_89fe783c9bd82ad9c25cd8b221206f12.xhtml" target="_top" xlink:title="test_tasks">
<polygon fill="#eeeeff" stroke="black" points="83.5,-108 16.5,-108 16.5,-72 83.5,-72 83.5,-108"/>
<text text-anchor="middle" x="50" y="-87.5" font-family="Helvetica,sans-Serif" font-size="10.00">test_tasks</text>
</a>
</g>
</g>
<!-- dir_bb6849ea4d307d3e6f07c34bd3d0693d -->
<g id="node2" class="node">
<title>dir_bb6849ea4d307d3e6f07c34bd3d0693d</title>
<g id="a_node2"><a xlink:href="dir_bb6849ea4d307d3e6f07c34bd3d0693d.xhtml" target="_top" xlink:title="lib">
<polygon fill="white" stroke="red" points="77,-36 23,-36 23,0 77,0 77,-36"/>
<text text-anchor="middle" x="50" y="-15.5" font-family="Helvetica,sans-Serif" font-size="10.00">lib</text>
</a>
</g>
</g>
<!-- dir_89fe783c9bd82ad9c25cd8b221206f12&#45;&gt;dir_bb6849ea4d307d3e6f07c34bd3d0693d -->
<g id="edge1" class="edge">
<title>dir_89fe783c9bd82ad9c25cd8b221206f12&#45;&gt;dir_bb6849ea4d307d3e6f07c34bd3d0693d</title>
<path fill="none" stroke="black" d="M50,-71.7C50,-63.98 50,-54.71 50,-46.11"/>
<polygon fill="black" stroke="black" points="53.5,-46.1 50,-36.1 46.5,-46.1 53.5,-46.1"/>
<g id="a_edge1&#45;headlabel"><a xlink:href="dir_000028_000004.xhtml" target="_top" xlink:title="1">
<text text-anchor="middle" x="56.34" y="-47.2" font-family="Helvetica,sans-Serif" font-size="10.00">1</text>
</a>
</g>
</g>
</g>
</svg>
