<?xml version="1.0" encoding="UTF-8" standalone="no"?>
<!DOCTYPE svg PUBLIC "-//W3C//DTD SVG 1.1//EN"
 "http://www.w3.org/Graphics/SVG/1.1/DTD/svg11.dtd">
<!-- Generated by graphviz version 2.43.0 (0)
 -->
<!-- Title: Task&#45;Tracker&#45;Device/test/test_string_helpers Pages: 1 -->
<svg width="150pt" height="151pt"
 viewBox="0.00 0.00 150.00 151.00" xmlns="http://www.w3.org/2000/svg" xmlns:xlink="http://www.w3.org/1999/xlink">
<g id="graph0" class="graph" transform="scale(1 1) rotate(0) translate(4 147)">
<title>Task&#45;Tracker&#45;Device/test/test_string_helpers</title>
<polygon fill="white" stroke="transparent" points="-4,4 -4,-147 146,-147 146,4 -4,4"/>
<g id="clust1" class="cluster">
<title>clusterdir_75b09ee04e6f334759174746683ad215</title>
<g id="a_clust1"><a xlink:href="dir_75b09ee04e6f334759174746683ad215.xhtml" target="_top" xlink:title="test">
<polygon fill="#ddddee" stroke="black" points="8,-64 8,-135 134,-135 134,-64 8,-64"/>
<text text-anchor="middle" x="71" y="-123" font-family="Helvetica,sans-Serif" font-size="10.00">test</text>
</a>
</g>
</g>
<!-- dir_58405109ae94bf39283a73532e1c620b -->
<g id="node1" class="node">
<title>dir_58405109ae94bf39283a73532e1c620b</title>
<g id="a_node1"><a xlink:href="dir_58405109ae94bf39283a73532e1c620b.xhtml" target="_top" xlink:title="test_string_helpers">
<polygon fill="#eeeeff" stroke="black" points="126,-108 16,-108 16,-72 126,-72 126,-108"/>
<text text-anchor="middle" x="71" y="-87.5" font-family="Helvetica,sans-Serif" font-size="10.00">test_string_helpers</text>
</a>
</g>
</g>
<!-- dir_bb6849ea4d307d3e6f07c34bd3d0693d -->
<g id="node2" class="node">
<title>dir_bb6849ea4d307d3e6f07c34bd3d0693d</title>
<g id="a_node2"><a xlink:href="dir_bb6849ea4d307d3e6f07c34bd3d0693d.xhtml" target="_top" xlink:title="lib">
<polygon fill="white" stroke="red" points="98,-36 44,-36 44,0 98,0 98,-36"/>
<text text-anchor="middle" x="71" y="-15.5" font-family="Helvetica,sans-Serif" font-size="10.00">lib</text>
</a>
</g>
</g>
<!-- dir_58405109ae94bf39283a73532e1c620b&#45;&gt;dir_bb6849ea4d307d3e6f07c34bd3d0693d -->
<g id="edge1" class="edge">
<title>dir_58405109ae94bf39283a73532e1c620b&#45;&gt;dir_bb6849ea4d307d3e6f07c34bd3d0693d</title>
<path fill="none" stroke="black" d="M71,-71.7C71,-63.98 71,-54.71 71,-46.11"/>
<polygon fill="black" stroke="black" points="74.5,-46.1 71,-36.1 67.5,-46.1 74.5,-46.1"/>
<g id="a_edge1&#45;headlabel"><a xlink:href="dir_000027_000004.xhtml" target="_top" xlink:title="1">
<text text-anchor="middle" x="77.34" y="-47.2" font-family="Helvetica,sans-Serif" font-size="10.00">1</text>
</a>
</g>
</g>
</g>
</svg>
