<?xml version="1.0" encoding="UTF-8" standalone="no"?>
<!DOCTYPE svg PUBLIC "-//W3C//DTD SVG 1.1//EN"
 "http://www.w3.org/Graphics/SVG/1.1/DTD/svg11.dtd">
<!-- Generated by graphviz version 2.43.0 (0)
 -->
<!-- Title: Task&#45;Tracker&#45;Device/lib Pages: 1 -->
<svg width="272pt" height="327pt"
 viewBox="0.00 0.00 272.00 327.00" xmlns="http://www.w3.org/2000/svg" xmlns:xlink="http://www.w3.org/1999/xlink">
<g id="graph0" class="graph" transform="scale(1 1) rotate(0) translate(4 323)">
<title>Task&#45;Tracker&#45;Device/lib</title>
<polygon fill="white" stroke="transparent" points="-4,4 -4,-323 268,-323 268,4 -4,4"/>
<g id="clust1" class="cluster">
<title>clusterdir_7a0d9093671d12905beda7b1ed8f0dec</title>
<g id="a_clust1"><a xlink:href="dir_7a0d9093671d12905beda7b1ed8f0dec.xhtml" target="_top" xlink:title="Task&#45;Tracker&#45;Device">
<polygon fill="#ddddee" stroke="black" points="8,-8 8,-311 256,-311 256,-8 8,-8"/>
<text text-anchor="middle" x="132" y="-299" font-family="Helvetica,sans-Serif" font-size="10.00">Task&#45;Tracker&#45;Device</text>
</a>
</g>
</g>
<g id="clust2" class="cluster">
<title>clusterdir_bb6849ea4d307d3e6f07c34bd3d0693d</title>
<g id="a_clust2"><a xlink:href="dir_bb6849ea4d307d3e6f07c34bd3d0693d.xhtml" target="_top">
<polygon fill="#eeeeff" stroke="black" points="16,-16 16,-284 248,-284 248,-16 16,-16"/>
</a>
</g>
</g>
<!-- dir_bb6849ea4d307d3e6f07c34bd3d0693d -->
<g id="node1" class="node">
<title>dir_bb6849ea4d307d3e6f07c34bd3d0693d</title>
<text text-anchor="middle" x="213" y="-255.5" font-family="Helvetica,sans-Serif" font-size="10.00">lib</text>
</g>
<!-- dir_60c2c4d274c08a1458706f202c2ac02e -->
<g id="node2" class="node">
<title>dir_60c2c4d274c08a1458706f202c2ac02e</title>
<g id="a_node2"><a xlink:href="dir_60c2c4d274c08a1458706f202c2ac02e.xhtml" target="_top" xlink:title="3rd_party_adapters">
<polygon fill="white" stroke="red" points="167.5,-276 56.5,-276 56.5,-240 167.5,-240 167.5,-276"/>
<text text-anchor="middle" x="112" y="-255.5" font-family="Helvetica,sans-Serif" font-size="10.00">3rd_party_adapters</text>
</a>
</g>
</g>
<!-- dir_cc4eb8107cf563e196ee7789b7c073d2 -->
<g id="node3" class="node">
<title>dir_cc4eb8107cf563e196ee7789b7c073d2</title>
<g id="a_node3"><a xlink:href="dir_cc4eb8107cf563e196ee7789b7c073d2.xhtml" target="_top" xlink:title="application_business_rules">
<polygon fill="white" stroke="red" points="200,-132 52,-132 52,-96 200,-96 200,-132"/>
<text text-anchor="middle" x="126" y="-111.5" font-family="Helvetica,sans-Serif" font-size="10.00">application_business_rules</text>
</a>
</g>
</g>
<!-- dir_60c2c4d274c08a1458706f202c2ac02e&#45;&gt;dir_cc4eb8107cf563e196ee7789b7c073d2 -->
<g id="edge6" class="edge">
<title>dir_60c2c4d274c08a1458706f202c2ac02e&#45;&gt;dir_cc4eb8107cf563e196ee7789b7c073d2</title>
<path fill="none" stroke="black" d="M117.36,-239.52C120.23,-229.28 123.48,-216.03 125,-204 127.6,-183.43 127.75,-159.98 127.3,-142.32"/>
<polygon fill="black" stroke="black" points="130.8,-142.02 126.97,-132.14 123.8,-142.25 130.8,-142.02"/>
<g id="a_edge6&#45;headlabel"><a xlink:href="dir_000005_000006.xhtml" target="_top" xlink:title="7">
<text text-anchor="middle" x="133.75" y="-143.02" font-family="Helvetica,sans-Serif" font-size="10.00">7</text>
</a>
</g>
</g>
<!-- dir_49a5f6ab04696b445f2adbc130c9ef44 -->
<g id="node4" class="node">
<title>dir_49a5f6ab04696b445f2adbc130c9ef44</title>
<g id="a_node4"><a xlink:href="dir_49a5f6ab04696b445f2adbc130c9ef44.xhtml" target="_top" xlink:title="board_adapters">
<polygon fill="white" stroke="red" points="116,-204 24,-204 24,-168 116,-168 116,-204"/>
<text text-anchor="middle" x="70" y="-183.5" font-family="Helvetica,sans-Serif" font-size="10.00">board_adapters</text>
</a>
</g>
</g>
<!-- dir_60c2c4d274c08a1458706f202c2ac02e&#45;&gt;dir_49a5f6ab04696b445f2adbc130c9ef44 -->
<g id="edge5" class="edge">
<title>dir_60c2c4d274c08a1458706f202c2ac02e&#45;&gt;dir_49a5f6ab04696b445f2adbc130c9ef44</title>
<path fill="none" stroke="black" d="M101.62,-239.7C96.74,-231.56 90.81,-221.69 85.42,-212.7"/>
<polygon fill="black" stroke="black" points="88.41,-210.88 80.26,-204.1 82.41,-214.48 88.41,-210.88"/>
<g id="a_edge5&#45;headlabel"><a xlink:href="dir_000005_000007.xhtml" target="_top" xlink:title="3">
<text text-anchor="middle" x="92.69" y="-210" font-family="Helvetica,sans-Serif" font-size="10.00">3</text>
</a>
</g>
</g>
<!-- dir_e70fd5d37674c687c1056755f18dec05 -->
<g id="node5" class="node">
<title>dir_e70fd5d37674c687c1056755f18dec05</title>
<g id="a_node5"><a xlink:href="dir_e70fd5d37674c687c1056755f18dec05.xhtml" target="_top" xlink:title="enterprise_business_rules">
<polygon fill="white" stroke="red" points="239.5,-60 96.5,-60 96.5,-24 239.5,-24 239.5,-60"/>
<text text-anchor="middle" x="168" y="-39.5" font-family="Helvetica,sans-Serif" font-size="10.00">enterprise_business_rules</text>
</a>
</g>
</g>
<!-- dir_60c2c4d274c08a1458706f202c2ac02e&#45;&gt;dir_e70fd5d37674c687c1056755f18dec05 -->
<g id="edge7" class="edge">
<title>dir_60c2c4d274c08a1458706f202c2ac02e&#45;&gt;dir_e70fd5d37674c687c1056755f18dec05</title>
<path fill="none" stroke="black" d="M131.53,-239.89C155.17,-217.76 193.69,-176.7 209,-132 214.18,-116.86 214.17,-111.14 209,-96 205.56,-85.93 199.34,-76.28 192.77,-68.05"/>
<polygon fill="black" stroke="black" points="195.32,-65.65 186.17,-60.32 190,-70.2 195.32,-65.65"/>
<g id="a_edge7&#45;headlabel"><a xlink:href="dir_000005_000008.xhtml" target="_top" xlink:title="4">
<text text-anchor="middle" x="199.82" y="-64.04" font-family="Helvetica,sans-Serif" font-size="10.00">4</text>
</a>
</g>
</g>
<!-- dir_cc4eb8107cf563e196ee7789b7c073d2&#45;&gt;dir_e70fd5d37674c687c1056755f18dec05 -->
<g id="edge2" class="edge">
<title>dir_cc4eb8107cf563e196ee7789b7c073d2&#45;&gt;dir_e70fd5d37674c687c1056755f18dec05</title>
<path fill="none" stroke="black" d="M136.38,-95.7C141.26,-87.56 147.19,-77.69 152.58,-68.7"/>
<polygon fill="black" stroke="black" points="155.59,-70.48 157.74,-60.1 149.59,-66.88 155.59,-70.48"/>
<g id="a_edge2&#45;headlabel"><a xlink:href="dir_000006_000008.xhtml" target="_top" xlink:title="4">
<text text-anchor="middle" x="156.18" y="-72.52" font-family="Helvetica,sans-Serif" font-size="10.00">4</text>
</a>
</g>
</g>
<!-- dir_77250fbdc01bb7367d479e08fa573657 -->
<g id="node6" class="node">
<title>dir_77250fbdc01bb7367d479e08fa573657</title>
<g id="a_node6"><a xlink:href="dir_77250fbdc01bb7367d479e08fa573657.xhtml" target="_top" xlink:title="utilities">
<polygon fill="white" stroke="black" points="78,-60 24,-60 24,-24 78,-24 78,-60"/>
<text text-anchor="middle" x="51" y="-39.5" font-family="Helvetica,sans-Serif" font-size="10.00">utilities</text>
</a>
</g>
</g>
<!-- dir_cc4eb8107cf563e196ee7789b7c073d2&#45;&gt;dir_77250fbdc01bb7367d479e08fa573657 -->
<g id="edge1" class="edge">
<title>dir_cc4eb8107cf563e196ee7789b7c073d2&#45;&gt;dir_77250fbdc01bb7367d479e08fa573657</title>
<path fill="none" stroke="black" d="M107.46,-95.7C98.2,-87.05 86.84,-76.45 76.74,-67.03"/>
<polygon fill="black" stroke="black" points="79.02,-64.37 69.33,-60.1 74.25,-69.49 79.02,-64.37"/>
<g id="a_edge1&#45;headlabel"><a xlink:href="dir_000006_000009.xhtml" target="_top" xlink:title="3">
<text text-anchor="middle" x="83.59" y="-62.25" font-family="Helvetica,sans-Serif" font-size="10.00">3</text>
</a>
</g>
</g>
<!-- dir_49a5f6ab04696b445f2adbc130c9ef44&#45;&gt;dir_cc4eb8107cf563e196ee7789b7c073d2 -->
<g id="edge3" class="edge">
<title>dir_49a5f6ab04696b445f2adbc130c9ef44&#45;&gt;dir_cc4eb8107cf563e196ee7789b7c073d2</title>
<path fill="none" stroke="black" d="M83.84,-167.7C90.49,-159.39 98.58,-149.28 105.89,-140.14"/>
<polygon fill="black" stroke="black" points="108.8,-142.1 112.32,-132.1 103.34,-137.73 108.8,-142.1"/>
<g id="a_edge3&#45;headlabel"><a xlink:href="dir_000007_000006.xhtml" target="_top" xlink:title="6">
<text text-anchor="middle" x="108.77" y="-144.18" font-family="Helvetica,sans-Serif" font-size="10.00">6</text>
</a>
</g>
</g>
<!-- dir_49a5f6ab04696b445f2adbc130c9ef44&#45;&gt;dir_77250fbdc01bb7367d479e08fa573657 -->
<g id="edge4" class="edge">
<title>dir_49a5f6ab04696b445f2adbc130c9ef44&#45;&gt;dir_77250fbdc01bb7367d479e08fa573657</title>
<path fill="none" stroke="black" d="M58.53,-167.67C52.63,-157.69 46.04,-144.65 43,-132 38.12,-111.67 40.6,-88.07 44.04,-70.29"/>
<polygon fill="black" stroke="black" points="47.5,-70.81 46.18,-60.3 40.66,-69.34 47.5,-70.81"/>
<g id="a_edge4&#45;headlabel"><a xlink:href="dir_000007_000009.xhtml" target="_top" xlink:title="2">
<text text-anchor="middle" x="49.52" y="-72.43" font-family="Helvetica,sans-Serif" font-size="10.00">2</text>
</a>
</g>
</g>
</g>
</svg>
