<?xml version="1.0" encoding="UTF-8" standalone="no"?>
<!DOCTYPE svg PUBLIC "-//W3C//DTD SVG 1.1//EN"
 "http://www.w3.org/Graphics/SVG/1.1/DTD/svg11.dtd">
<!-- Generated by graphviz version 2.43.0 (0)
 -->
<!-- Title: Task&#45;Tracker&#45;Device/lib/3rd_party_adapters/Arduino Pages: 1 -->
<svg width="165pt" height="223pt"
 viewBox="0.00 0.00 165.00 223.00" xmlns="http://www.w3.org/2000/svg" xmlns:xlink="http://www.w3.org/1999/xlink">
<g id="graph0" class="graph" transform="scale(1 1) rotate(0) translate(4 219)">
<title>Task&#45;Tracker&#45;Device/lib/3rd_party_adapters/Arduino</title>
<polygon fill="white" stroke="transparent" points="-4,4 -4,-219 161,-219 161,4 -4,4"/>
<g id="clust1" class="cluster">
<title>clusterdir_60c2c4d274c08a1458706f202c2ac02e</title>
<g id="a_clust1"><a xlink:href="dir_60c2c4d274c08a1458706f202c2ac02e.xhtml" target="_top" xlink:title="3rd_party_adapters">
<polygon fill="#ddddee" stroke="black" points="28,-136 28,-207 139,-207 139,-136 28,-136"/>
<text text-anchor="middle" x="83.5" y="-195" font-family="Helvetica,sans-Serif" font-size="10.00">3rd_party_adapters</text>
</a>
</g>
</g>
<!-- dir_caf2c0c105311d2ab92f604f9634cd65 -->
<g id="node1" class="node">
<title>dir_caf2c0c105311d2ab92f604f9634cd65</title>
<g id="a_node1"><a xlink:href="dir_caf2c0c105311d2ab92f604f9634cd65.xhtml" target="_top" xlink:title="Arduino">
<polygon fill="#eeeeff" stroke="black" points="110,-180 56,-180 56,-144 110,-144 110,-180"/>
<text text-anchor="middle" x="83" y="-159.5" font-family="Helvetica,sans-Serif" font-size="10.00">Arduino</text>
</a>
</g>
</g>
<!-- dir_49a5f6ab04696b445f2adbc130c9ef44 -->
<g id="node2" class="node">
<title>dir_49a5f6ab04696b445f2adbc130c9ef44</title>
<g id="a_node2"><a xlink:href="dir_49a5f6ab04696b445f2adbc130c9ef44.xhtml" target="_top" xlink:title="board_adapters">
<polygon fill="white" stroke="red" points="92,-108 0,-108 0,-72 92,-72 92,-108"/>
<text text-anchor="middle" x="46" y="-87.5" font-family="Helvetica,sans-Serif" font-size="10.00">board_adapters</text>
</a>
</g>
</g>
<!-- dir_caf2c0c105311d2ab92f604f9634cd65&#45;&gt;dir_49a5f6ab04696b445f2adbc130c9ef44 -->
<g id="edge1" class="edge">
<title>dir_caf2c0c105311d2ab92f604f9634cd65&#45;&gt;dir_49a5f6ab04696b445f2adbc130c9ef44</title>
<path fill="none" stroke="black" d="M73.85,-143.7C69.6,-135.64 64.44,-125.89 59.73,-116.98"/>
<polygon fill="black" stroke="black" points="62.81,-115.31 55.04,-108.1 56.62,-118.58 62.81,-115.31"/>
<g id="a_edge1&#45;headlabel"><a xlink:href="dir_000010_000007.xhtml" target="_top" xlink:title="1">
<text text-anchor="middle" x="67" y="-114.66" font-family="Helvetica,sans-Serif" font-size="10.00">1</text>
</a>
</g>
</g>
<!-- dir_cc4eb8107cf563e196ee7789b7c073d2 -->
<g id="node3" class="node">
<title>dir_cc4eb8107cf563e196ee7789b7c073d2</title>
<g id="a_node3"><a xlink:href="dir_cc4eb8107cf563e196ee7789b7c073d2.xhtml" target="_top" xlink:title="application_business_rules">
<polygon fill="white" stroke="red" points="157,-36 9,-36 9,0 157,0 157,-36"/>
<text text-anchor="middle" x="83" y="-15.5" font-family="Helvetica,sans-Serif" font-size="10.00">application_business_rules</text>
</a>
</g>
</g>
<!-- dir_caf2c0c105311d2ab92f604f9634cd65&#45;&gt;dir_cc4eb8107cf563e196ee7789b7c073d2 -->
<g id="edge2" class="edge">
<title>dir_caf2c0c105311d2ab92f604f9634cd65&#45;&gt;dir_cc4eb8107cf563e196ee7789b7c073d2</title>
<path fill="none" stroke="black" d="M90.48,-143.7C94.47,-133.52 98.97,-120.27 101,-108 103.61,-92.21 103.61,-87.79 101,-72 99.56,-63.28 96.87,-54.06 94,-45.8"/>
<polygon fill="black" stroke="black" points="97.23,-44.46 90.48,-36.3 90.67,-46.89 97.23,-44.46"/>
<g id="a_edge2&#45;headlabel"><a xlink:href="dir_000010_000006.xhtml" target="_top" xlink:title="1">
<text text-anchor="middle" x="101.14" y="-44.34" font-family="Helvetica,sans-Serif" font-size="10.00">1</text>
</a>
</g>
</g>
<!-- dir_49a5f6ab04696b445f2adbc130c9ef44&#45;&gt;dir_cc4eb8107cf563e196ee7789b7c073d2 -->
<g id="edge3" class="edge">
<title>dir_49a5f6ab04696b445f2adbc130c9ef44&#45;&gt;dir_cc4eb8107cf563e196ee7789b7c073d2</title>
<path fill="none" stroke="black" d="M55.15,-71.7C59.4,-63.64 64.56,-53.89 69.27,-44.98"/>
<polygon fill="black" stroke="black" points="72.38,-46.58 73.96,-36.1 66.19,-43.31 72.38,-46.58"/>
<g id="a_edge3&#45;headlabel"><a xlink:href="dir_000007_000006.xhtml" target="_top" xlink:title="6">
<text text-anchor="middle" x="73.21" y="-48.59" font-family="Helvetica,sans-Serif" font-size="10.00">6</text>
</a>
</g>
</g>
</g>
</svg>
