<?xml version="1.0" encoding="UTF-8" standalone="no"?>
<!DOCTYPE svg PUBLIC "-//W3C//DTD SVG 1.1//EN"
 "http://www.w3.org/Graphics/SVG/1.1/DTD/svg11.dtd">
<!-- Generated by graphviz version 2.43.0 (0)
 -->
<!-- Title: Task&#45;Tracker&#45;Device/lib/application_business_rules Pages: 1 -->
<svg width="542pt" height="255pt"
 viewBox="0.00 0.00 542.00 255.00" xmlns="http://www.w3.org/2000/svg" xmlns:xlink="http://www.w3.org/1999/xlink">
<g id="graph0" class="graph" transform="scale(1 1) rotate(0) translate(4 251)">
<title>Task&#45;Tracker&#45;Device/lib/application_business_rules</title>
<polygon fill="white" stroke="transparent" points="-4,4 -4,-251 538,-251 538,4 -4,4"/>
<g id="clust1" class="cluster">
<title>clusterdir_bb6849ea4d307d3e6f07c34bd3d0693d</title>
<g id="a_clust1"><a xlink:href="dir_bb6849ea4d307d3e6f07c34bd3d0693d.xhtml" target="_top" xlink:title="lib">
<polygon fill="#ddddee" stroke="black" points="8,-8 8,-239 526,-239 526,-8 8,-8"/>
<text text-anchor="middle" x="267" y="-227" font-family="Helvetica,sans-Serif" font-size="10.00">lib</text>
</a>
</g>
</g>
<g id="clust2" class="cluster">
<title>clusterdir_cc4eb8107cf563e196ee7789b7c073d2</title>
<g id="a_clust2"><a xlink:href="dir_cc4eb8107cf563e196ee7789b7c073d2.xhtml" target="_top">
<polygon fill="#eeeeff" stroke="black" points="16,-16 16,-212 294,-212 294,-16 16,-16"/>
</a>
</g>
</g>
<!-- dir_77250fbdc01bb7367d479e08fa573657 -->
<g id="node1" class="node">
<title>dir_77250fbdc01bb7367d479e08fa573657</title>
<g id="a_node1"><a xlink:href="dir_77250fbdc01bb7367d479e08fa573657.xhtml" target="_top" xlink:title="utilities">
<polygon fill="none" stroke="black" points="518,-60 464,-60 464,-24 518,-24 518,-60"/>
<text text-anchor="middle" x="491" y="-39.5" font-family="Helvetica,sans-Serif" font-size="10.00">utilities</text>
</a>
</g>
</g>
<!-- dir_e70fd5d37674c687c1056755f18dec05 -->
<g id="node2" class="node">
<title>dir_e70fd5d37674c687c1056755f18dec05</title>
<g id="a_node2"><a xlink:href="dir_e70fd5d37674c687c1056755f18dec05.xhtml" target="_top" xlink:title="enterprise_business_rules">
<polygon fill="white" stroke="red" points="445.5,-60 302.5,-60 302.5,-24 445.5,-24 445.5,-60"/>
<text text-anchor="middle" x="374" y="-39.5" font-family="Helvetica,sans-Serif" font-size="10.00">enterprise_business_rules</text>
</a>
</g>
</g>
<!-- dir_cc4eb8107cf563e196ee7789b7c073d2 -->
<g id="node3" class="node">
<title>dir_cc4eb8107cf563e196ee7789b7c073d2</title>
<text text-anchor="middle" x="212" y="-183.5" font-family="Helvetica,sans-Serif" font-size="10.00">application_business_rules</text>
</g>
<!-- dir_05b5e851ac9e59efa54369b7cbb1f529 -->
<g id="node4" class="node">
<title>dir_05b5e851ac9e59efa54369b7cbb1f529</title>
<g id="a_node4"><a xlink:href="dir_05b5e851ac9e59efa54369b7cbb1f529.xhtml" target="_top" xlink:title="serial_interface">
<polygon fill="white" stroke="black" points="260,-132 168,-132 168,-96 260,-96 260,-132"/>
<text text-anchor="middle" x="214" y="-111.5" font-family="Helvetica,sans-Serif" font-size="10.00">serial_interface</text>
</a>
</g>
</g>
<!-- dir_05b5e851ac9e59efa54369b7cbb1f529&#45;&gt;dir_77250fbdc01bb7367d479e08fa573657 -->
<g id="edge4" class="edge">
<title>dir_05b5e851ac9e59efa54369b7cbb1f529&#45;&gt;dir_77250fbdc01bb7367d479e08fa573657</title>
<path fill="none" stroke="black" d="M260.24,-97.02C261.5,-96.67 262.76,-96.33 264,-96 344.53,-74.83 370.93,-85.79 454.17,-59.82"/>
<polygon fill="black" stroke="black" points="455.32,-63.12 463.78,-56.74 453.19,-56.46 455.32,-63.12"/>
<g id="a_edge4&#45;headlabel"><a xlink:href="dir_000014_000009.xhtml" target="_top" xlink:title="1">
<text text-anchor="middle" x="452.77" y="-64.42" font-family="Helvetica,sans-Serif" font-size="10.00">1</text>
</a>
</g>
</g>
<!-- dir_05b5e851ac9e59efa54369b7cbb1f529&#45;&gt;dir_e70fd5d37674c687c1056755f18dec05 -->
<g id="edge6" class="edge">
<title>dir_05b5e851ac9e59efa54369b7cbb1f529&#45;&gt;dir_e70fd5d37674c687c1056755f18dec05</title>
<path fill="none" stroke="black" d="M253.14,-95.88C275.01,-86.31 302.46,-74.3 325.66,-64.15"/>
<polygon fill="black" stroke="black" points="327.23,-67.28 334.99,-60.07 324.42,-60.87 327.23,-67.28"/>
<g id="a_edge6&#45;headlabel"><a xlink:href="dir_000014_000008.xhtml" target="_top" xlink:title="4">
<text text-anchor="middle" x="325.07" y="-68.83" font-family="Helvetica,sans-Serif" font-size="10.00">4</text>
</a>
</g>
</g>
<!-- dir_a152533725ee893b28a6891613a99b53 -->
<g id="node5" class="node">
<title>dir_a152533725ee893b28a6891613a99b53</title>
<g id="a_node5"><a xlink:href="dir_a152533725ee893b28a6891613a99b53.xhtml" target="_top" xlink:title="tasks">
<polygon fill="white" stroke="black" points="157,-60 103,-60 103,-24 157,-24 157,-60"/>
<text text-anchor="middle" x="130" y="-39.5" font-family="Helvetica,sans-Serif" font-size="10.00">tasks</text>
</a>
</g>
</g>
<!-- dir_05b5e851ac9e59efa54369b7cbb1f529&#45;&gt;dir_a152533725ee893b28a6891613a99b53 -->
<g id="edge5" class="edge">
<title>dir_05b5e851ac9e59efa54369b7cbb1f529&#45;&gt;dir_a152533725ee893b28a6891613a99b53</title>
<path fill="none" stroke="black" d="M193.24,-95.7C182.76,-86.97 169.89,-76.24 158.5,-66.75"/>
<polygon fill="black" stroke="black" points="160.45,-63.82 150.53,-60.1 155.97,-69.19 160.45,-63.82"/>
<g id="a_edge5&#45;headlabel"><a xlink:href="dir_000014_000015.xhtml" target="_top" xlink:title="1">
<text text-anchor="middle" x="165.03" y="-61.44" font-family="Helvetica,sans-Serif" font-size="10.00">1</text>
</a>
</g>
</g>
<!-- dir_fca5679270aca10c608379ce2e021563 -->
<g id="node6" class="node">
<title>dir_fca5679270aca10c608379ce2e021563</title>
<g id="a_node6"><a xlink:href="dir_fca5679270aca10c608379ce2e021563.xhtml" target="_top" xlink:title="user_interaction">
<polygon fill="white" stroke="black" points="119.5,-204 24.5,-204 24.5,-168 119.5,-168 119.5,-204"/>
<text text-anchor="middle" x="72" y="-183.5" font-family="Helvetica,sans-Serif" font-size="10.00">user_interaction</text>
</a>
</g>
</g>
<!-- dir_fca5679270aca10c608379ce2e021563&#45;&gt;dir_77250fbdc01bb7367d479e08fa573657 -->
<g id="edge2" class="edge">
<title>dir_fca5679270aca10c608379ce2e021563&#45;&gt;dir_77250fbdc01bb7367d479e08fa573657</title>
<path fill="none" stroke="black" d="M119.55,-170.67C122.74,-169.75 125.92,-168.86 129,-168 190.91,-150.82 207.83,-151.63 269,-132 350.44,-105.87 372.04,-95.67 454.68,-60.02"/>
<polygon fill="black" stroke="black" points="456.17,-63.19 463.97,-56.02 453.4,-56.76 456.17,-63.19"/>
<g id="a_edge2&#45;headlabel"><a xlink:href="dir_000016_000009.xhtml" target="_top" xlink:title="2">
<text text-anchor="middle" x="453.99" y="-64.72" font-family="Helvetica,sans-Serif" font-size="10.00">2</text>
</a>
</g>
</g>
<!-- dir_fca5679270aca10c608379ce2e021563&#45;&gt;dir_05b5e851ac9e59efa54369b7cbb1f529 -->
<g id="edge1" class="edge">
<title>dir_fca5679270aca10c608379ce2e021563&#45;&gt;dir_05b5e851ac9e59efa54369b7cbb1f529</title>
<path fill="none" stroke="black" d="M106.74,-167.88C125.82,-158.47 149.68,-146.71 170.05,-136.67"/>
<polygon fill="black" stroke="black" points="171.71,-139.75 179.13,-132.19 168.61,-133.47 171.71,-139.75"/>
<g id="a_edge1&#45;headlabel"><a xlink:href="dir_000016_000014.xhtml" target="_top" xlink:title="1">
<text text-anchor="middle" x="169.74" y="-141.39" font-family="Helvetica,sans-Serif" font-size="10.00">1</text>
</a>
</g>
</g>
<!-- dir_fca5679270aca10c608379ce2e021563&#45;&gt;dir_a152533725ee893b28a6891613a99b53 -->
<g id="edge3" class="edge">
<title>dir_fca5679270aca10c608379ce2e021563&#45;&gt;dir_a152533725ee893b28a6891613a99b53</title>
<path fill="none" stroke="black" d="M79,-167.87C88.97,-143.46 107.36,-98.43 119.12,-69.64"/>
<polygon fill="black" stroke="black" points="122.44,-70.77 122.98,-60.19 115.96,-68.12 122.44,-70.77"/>
<g id="a_edge3&#45;headlabel"><a xlink:href="dir_000016_000015.xhtml" target="_top" xlink:title="1">
<text text-anchor="middle" x="123.71" y="-72.67" font-family="Helvetica,sans-Serif" font-size="10.00">1</text>
</a>
</g>
</g>
</g>
</svg>
