<?xml version="1.0" encoding="UTF-8" standalone="no"?>
<!DOCTYPE svg PUBLIC "-//W3C//DTD SVG 1.1//EN"
 "http://www.w3.org/Graphics/SVG/1.1/DTD/svg11.dtd">
<!-- Generated by graphviz version 2.43.0 (0)
 -->
<!-- Title: lib/application_business_rules/serial_interface Pages: 1 -->
<svg width="388pt" height="167pt"
 viewBox="0.00 0.00 387.50 167.00" xmlns="http://www.w3.org/2000/svg" xmlns:xlink="http://www.w3.org/1999/xlink">
<g id="graph0" class="graph" transform="scale(1 1) rotate(0) translate(4 163)">
<title>lib/application_business_rules/serial_interface</title>
<polygon fill="white" stroke="transparent" points="-4,4 -4,-163 383.5,-163 383.5,4 -4,4"/>
<g id="clust1" class="cluster">
<title>clusterdir_6dbb42d2342d9d7292a192bc1d024acc</title>
<g id="a_clust1"><a xlink:href="dir_6dbb42d2342d9d7292a192bc1d024acc.xhtml" target="_top" xlink:title="application_business_rules">
<polygon fill="#ddddee" stroke="black" points="8,-8 8,-151 156,-151 156,-8 8,-8"/>
<text text-anchor="middle" x="82" y="-139" font-family="Helvetica,sans-Serif" font-size="10.00">application_business_rules</text>
</a>
</g>
</g>
<!-- dir_dab382b21b73aae3d74d7668eeeacf78 -->
<g id="node1" class="node">
<title>dir_dab382b21b73aae3d74d7668eeeacf78</title>
<g id="a_node1"><a xlink:href="dir_dab382b21b73aae3d74d7668eeeacf78.xhtml" target="_top" xlink:title="tasks">
<polygon fill="none" stroke="black" points="129,-52 75,-52 75,-16 129,-16 129,-52"/>
<text text-anchor="middle" x="102" y="-31.5" font-family="Helvetica,sans-Serif" font-size="10.00">tasks</text>
</a>
</g>
</g>
<!-- dir_17a6007a5c84c34f300c622be50c188b -->
<g id="node2" class="node">
<title>dir_17a6007a5c84c34f300c622be50c188b</title>
<g id="a_node2"><a xlink:href="dir_17a6007a5c84c34f300c622be50c188b.xhtml" target="_top" xlink:title="serial_interface">
<polygon fill="#eeeeff" stroke="black" points="148,-124 56,-124 56,-88 148,-88 148,-124"/>
<text text-anchor="middle" x="102" y="-103.5" font-family="Helvetica,sans-Serif" font-size="10.00">serial_interface</text>
</a>
</g>
</g>
<!-- dir_17a6007a5c84c34f300c622be50c188b&#45;&gt;dir_dab382b21b73aae3d74d7668eeeacf78 -->
<g id="edge3" class="edge">
<title>dir_17a6007a5c84c34f300c622be50c188b&#45;&gt;dir_dab382b21b73aae3d74d7668eeeacf78</title>
<path fill="none" stroke="black" d="M102,-87.7C102,-79.98 102,-70.71 102,-62.11"/>
<polygon fill="black" stroke="black" points="105.5,-62.1 102,-52.1 98.5,-62.1 105.5,-62.1"/>
<g id="a_edge3&#45;headlabel"><a xlink:href="dir_000013_000014.xhtml" target="_top" xlink:title="1">
<text text-anchor="middle" x="108.34" y="-63.2" font-family="Helvetica,sans-Serif" font-size="10.00">1</text>
</a>
</g>
</g>
<!-- dir_3a2f33b0f26bc6229d595c2c354e6333 -->
<g id="node3" class="node">
<title>dir_3a2f33b0f26bc6229d595c2c354e6333</title>
<g id="a_node3"><a xlink:href="dir_3a2f33b0f26bc6229d595c2c354e6333.xhtml" target="_top" xlink:title="utilities">
<polygon fill="none" stroke="black" points="218,-52 164,-52 164,-16 218,-16 218,-52"/>
<text text-anchor="middle" x="191" y="-31.5" font-family="Helvetica,sans-Serif" font-size="10.00">utilities</text>
</a>
</g>
</g>
<!-- dir_17a6007a5c84c34f300c622be50c188b&#45;&gt;dir_3a2f33b0f26bc6229d595c2c354e6333 -->
<g id="edge1" class="edge">
<title>dir_17a6007a5c84c34f300c622be50c188b&#45;&gt;dir_3a2f33b0f26bc6229d595c2c354e6333</title>
<path fill="none" stroke="black" d="M124,-87.7C135.21,-78.88 149,-68.03 161.15,-58.47"/>
<polygon fill="black" stroke="black" points="163.56,-61.04 169.25,-52.1 159.23,-55.54 163.56,-61.04"/>
<g id="a_edge1&#45;headlabel"><a xlink:href="dir_000013_000008.xhtml" target="_top" xlink:title="1">
<text text-anchor="middle" x="162.49" y="-62.99" font-family="Helvetica,sans-Serif" font-size="10.00">1</text>
</a>
</g>
</g>
<!-- dir_71046b38222792489c3876836d4fbdbc -->
<g id="node4" class="node">
<title>dir_71046b38222792489c3876836d4fbdbc</title>
<g id="a_node4"><a xlink:href="dir_71046b38222792489c3876836d4fbdbc.xhtml" target="_top" xlink:title="enterprise_business_rules">
<polygon fill="white" stroke="red" points="379.5,-52 236.5,-52 236.5,-16 379.5,-16 379.5,-52"/>
<text text-anchor="middle" x="308" y="-31.5" font-family="Helvetica,sans-Serif" font-size="10.00">enterprise_business_rules</text>
</a>
</g>
</g>
<!-- dir_17a6007a5c84c34f300c622be50c188b&#45;&gt;dir_71046b38222792489c3876836d4fbdbc -->
<g id="edge2" class="edge">
<title>dir_17a6007a5c84c34f300c622be50c188b&#45;&gt;dir_71046b38222792489c3876836d4fbdbc</title>
<path fill="none" stroke="black" d="M148.23,-89.29C177.79,-79.24 216.43,-66.12 248.3,-55.28"/>
<polygon fill="black" stroke="black" points="249.62,-58.53 257.96,-52 247.37,-51.91 249.62,-58.53"/>
<g id="a_edge2&#45;headlabel"><a xlink:href="dir_000013_000007.xhtml" target="_top" xlink:title="4">
<text text-anchor="middle" x="247.13" y="-59.88" font-family="Helvetica,sans-Serif" font-size="10.00">4</text>
</a>
</g>
</g>
</g>
</svg>
