<?xml version="1.0" encoding="UTF-8" standalone="no"?>
<!DOCTYPE svg PUBLIC "-//W3C//DTD SVG 1.1//EN"
 "http://www.w3.org/Graphics/SVG/1.1/DTD/svg11.dtd">
<!-- Generated by graphviz version 2.43.0 (0)
 -->
<!-- Title: lib/board_adapters/sound_output_interface Pages: 1 -->
<svg width="215pt" height="223pt"
 viewBox="0.00 0.00 215.00 223.00" xmlns="http://www.w3.org/2000/svg" xmlns:xlink="http://www.w3.org/1999/xlink">
<g id="graph0" class="graph" transform="scale(1 1) rotate(0) translate(4 219)">
<title>lib/board_adapters/sound_output_interface</title>
<polygon fill="white" stroke="transparent" points="-4,4 -4,-219 211,-219 211,4 -4,4"/>
<g id="clust1" class="cluster">
<title>clusterdir_b49365647f74dff1c8dd1e88d29293e4</title>
<g id="a_clust1"><a xlink:href="dir_b49365647f74dff1c8dd1e88d29293e4.xhtml" target="_top" xlink:title="board_adapters">
<polygon fill="#ddddee" stroke="black" points="8,-136 8,-207 156,-207 156,-136 8,-136"/>
<text text-anchor="middle" x="82" y="-195" font-family="Helvetica,sans-Serif" font-size="10.00">board_adapters</text>
</a>
</g>
</g>
<!-- dir_5d3f509552af106634de565dc9d6f33a -->
<g id="node1" class="node">
<title>dir_5d3f509552af106634de565dc9d6f33a</title>
<g id="a_node1"><a xlink:href="dir_5d3f509552af106634de565dc9d6f33a.xhtml" target="_top" xlink:title="sound_output_interface">
<polygon fill="#eeeeff" stroke="black" points="147.5,-180 16.5,-180 16.5,-144 147.5,-144 147.5,-180"/>
<text text-anchor="middle" x="82" y="-159.5" font-family="Helvetica,sans-Serif" font-size="10.00">sound_output_interface</text>
</a>
</g>
</g>
<!-- dir_3a2f33b0f26bc6229d595c2c354e6333 -->
<g id="node2" class="node">
<title>dir_3a2f33b0f26bc6229d595c2c354e6333</title>
<g id="a_node2"><a xlink:href="dir_3a2f33b0f26bc6229d595c2c354e6333.xhtml" target="_top" xlink:title="utilities">
<polygon fill="none" stroke="black" points="109,-36 55,-36 55,0 109,0 109,-36"/>
<text text-anchor="middle" x="82" y="-15.5" font-family="Helvetica,sans-Serif" font-size="10.00">utilities</text>
</a>
</g>
</g>
<!-- dir_5d3f509552af106634de565dc9d6f33a&#45;&gt;dir_3a2f33b0f26bc6229d595c2c354e6333 -->
<g id="edge2" class="edge">
<title>dir_5d3f509552af106634de565dc9d6f33a&#45;&gt;dir_3a2f33b0f26bc6229d595c2c354e6333</title>
<path fill="none" stroke="black" d="M68.44,-143.97C61.44,-134.09 53.63,-121.05 50,-108 45.71,-92.59 45.71,-87.41 50,-72 52.67,-62.42 57.59,-52.84 62.78,-44.51"/>
<polygon fill="black" stroke="black" points="65.8,-46.29 68.44,-36.03 59.98,-42.41 65.8,-46.29"/>
<g id="a_edge2&#45;headlabel"><a xlink:href="dir_000017_000008.xhtml" target="_top" xlink:title="1">
<text text-anchor="middle" x="66.17" y="-48.36" font-family="Helvetica,sans-Serif" font-size="10.00">1</text>
</a>
</g>
</g>
<!-- dir_6dbb42d2342d9d7292a192bc1d024acc -->
<g id="node3" class="node">
<title>dir_6dbb42d2342d9d7292a192bc1d024acc</title>
<g id="a_node3"><a xlink:href="dir_6dbb42d2342d9d7292a192bc1d024acc.xhtml" target="_top" xlink:title="application_business_rules">
<polygon fill="white" stroke="red" points="207,-108 59,-108 59,-72 207,-72 207,-108"/>
<text text-anchor="middle" x="133" y="-87.5" font-family="Helvetica,sans-Serif" font-size="10.00">application_business_rules</text>
</a>
</g>
</g>
<!-- dir_5d3f509552af106634de565dc9d6f33a&#45;&gt;dir_6dbb42d2342d9d7292a192bc1d024acc -->
<g id="edge3" class="edge">
<title>dir_5d3f509552af106634de565dc9d6f33a&#45;&gt;dir_6dbb42d2342d9d7292a192bc1d024acc</title>
<path fill="none" stroke="black" d="M94.61,-143.7C100.6,-135.47 107.88,-125.48 114.48,-116.42"/>
<polygon fill="black" stroke="black" points="117.48,-118.25 120.54,-108.1 111.82,-114.13 117.48,-118.25"/>
<g id="a_edge3&#45;headlabel"><a xlink:href="dir_000017_000005.xhtml" target="_top" xlink:title="1">
<text text-anchor="middle" x="117.66" y="-120.32" font-family="Helvetica,sans-Serif" font-size="10.00">1</text>
</a>
</g>
</g>
<!-- dir_6dbb42d2342d9d7292a192bc1d024acc&#45;&gt;dir_3a2f33b0f26bc6229d595c2c354e6333 -->
<g id="edge1" class="edge">
<title>dir_6dbb42d2342d9d7292a192bc1d024acc&#45;&gt;dir_3a2f33b0f26bc6229d595c2c354e6333</title>
<path fill="none" stroke="black" d="M120.39,-71.7C114.4,-63.47 107.12,-53.48 100.52,-44.42"/>
<polygon fill="black" stroke="black" points="103.18,-42.13 94.46,-36.1 97.52,-46.25 103.18,-42.13"/>
<g id="a_edge1&#45;headlabel"><a xlink:href="dir_000005_000008.xhtml" target="_top" xlink:title="3">
<text text-anchor="middle" x="107.59" y="-40.86" font-family="Helvetica,sans-Serif" font-size="10.00">3</text>
</a>
</g>
</g>
</g>
</svg>
