<?xml version="1.0" encoding="UTF-8" standalone="no"?>
<!DOCTYPE svg PUBLIC "-//W3C//DTD SVG 1.1//EN"
 "http://www.w3.org/Graphics/SVG/1.1/DTD/svg11.dtd">
<!-- Generated by graphviz version 2.43.0 (0)
 -->
<!-- Title: lib Pages: 1 -->
<svg width="256pt" height="292pt"
 viewBox="0.00 0.00 256.00 292.00" xmlns="http://www.w3.org/2000/svg" xmlns:xlink="http://www.w3.org/1999/xlink">
<g id="graph0" class="graph" transform="scale(1 1) rotate(0) translate(4 288)">
<title>lib</title>
<polygon fill="white" stroke="transparent" points="-4,4 -4,-288 252,-288 252,4 -4,4"/>
<g id="clust1" class="cluster">
<title>clusterdir_97aefd0d527b934f1d99a682da8fe6a9</title>
<g id="a_clust1"><a xlink:href="dir_97aefd0d527b934f1d99a682da8fe6a9.xhtml" target="_top">
<polygon fill="#eeeeff" stroke="black" points="8,-8 8,-276 240,-276 240,-8 8,-8"/>
</a>
</g>
</g>
<!-- dir_97aefd0d527b934f1d99a682da8fe6a9 -->
<g id="node1" class="node">
<title>dir_97aefd0d527b934f1d99a682da8fe6a9</title>
<text text-anchor="middle" x="205" y="-247.5" font-family="Helvetica,sans-Serif" font-size="10.00">lib</text>
</g>
<!-- dir_e75212beacfa7863df067e044f07f232 -->
<g id="node2" class="node">
<title>dir_e75212beacfa7863df067e044f07f232</title>
<g id="a_node2"><a xlink:href="dir_e75212beacfa7863df067e044f07f232.xhtml" target="_top" xlink:title="3rd_party_adapters">
<polygon fill="white" stroke="red" points="159.5,-268 48.5,-268 48.5,-232 159.5,-232 159.5,-268"/>
<text text-anchor="middle" x="104" y="-247.5" font-family="Helvetica,sans-Serif" font-size="10.00">3rd_party_adapters</text>
</a>
</g>
</g>
<!-- dir_6dbb42d2342d9d7292a192bc1d024acc -->
<g id="node3" class="node">
<title>dir_6dbb42d2342d9d7292a192bc1d024acc</title>
<g id="a_node3"><a xlink:href="dir_6dbb42d2342d9d7292a192bc1d024acc.xhtml" target="_top" xlink:title="application_business_rules">
<polygon fill="white" stroke="red" points="192,-124 44,-124 44,-88 192,-88 192,-124"/>
<text text-anchor="middle" x="118" y="-103.5" font-family="Helvetica,sans-Serif" font-size="10.00">application_business_rules</text>
</a>
</g>
</g>
<!-- dir_e75212beacfa7863df067e044f07f232&#45;&gt;dir_6dbb42d2342d9d7292a192bc1d024acc -->
<g id="edge6" class="edge">
<title>dir_e75212beacfa7863df067e044f07f232&#45;&gt;dir_6dbb42d2342d9d7292a192bc1d024acc</title>
<path fill="none" stroke="black" d="M109.36,-231.52C112.23,-221.28 115.48,-208.03 117,-196 119.6,-175.43 119.75,-151.98 119.3,-134.32"/>
<polygon fill="black" stroke="black" points="122.8,-134.02 118.97,-124.14 115.8,-134.25 122.8,-134.02"/>
<g id="a_edge6&#45;headlabel"><a xlink:href="dir_000004_000005.xhtml" target="_top" xlink:title="6">
<text text-anchor="middle" x="125.75" y="-135.02" font-family="Helvetica,sans-Serif" font-size="10.00">6</text>
</a>
</g>
</g>
<!-- dir_b49365647f74dff1c8dd1e88d29293e4 -->
<g id="node4" class="node">
<title>dir_b49365647f74dff1c8dd1e88d29293e4</title>
<g id="a_node4"><a xlink:href="dir_b49365647f74dff1c8dd1e88d29293e4.xhtml" target="_top" xlink:title="board_adapters">
<polygon fill="white" stroke="red" points="108,-196 16,-196 16,-160 108,-160 108,-196"/>
<text text-anchor="middle" x="62" y="-175.5" font-family="Helvetica,sans-Serif" font-size="10.00">board_adapters</text>
</a>
</g>
</g>
<!-- dir_e75212beacfa7863df067e044f07f232&#45;&gt;dir_b49365647f74dff1c8dd1e88d29293e4 -->
<g id="edge5" class="edge">
<title>dir_e75212beacfa7863df067e044f07f232&#45;&gt;dir_b49365647f74dff1c8dd1e88d29293e4</title>
<path fill="none" stroke="black" d="M93.62,-231.7C88.74,-223.56 82.81,-213.69 77.42,-204.7"/>
<polygon fill="black" stroke="black" points="80.41,-202.88 72.26,-196.1 74.41,-206.48 80.41,-202.88"/>
<g id="a_edge5&#45;headlabel"><a xlink:href="dir_000004_000006.xhtml" target="_top" xlink:title="3">
<text text-anchor="middle" x="84.69" y="-202" font-family="Helvetica,sans-Serif" font-size="10.00">3</text>
</a>
</g>
</g>
<!-- dir_71046b38222792489c3876836d4fbdbc -->
<g id="node5" class="node">
<title>dir_71046b38222792489c3876836d4fbdbc</title>
<g id="a_node5"><a xlink:href="dir_71046b38222792489c3876836d4fbdbc.xhtml" target="_top" xlink:title="enterprise_business_rules">
<polygon fill="white" stroke="red" points="231.5,-52 88.5,-52 88.5,-16 231.5,-16 231.5,-52"/>
<text text-anchor="middle" x="160" y="-31.5" font-family="Helvetica,sans-Serif" font-size="10.00">enterprise_business_rules</text>
</a>
</g>
</g>
<!-- dir_e75212beacfa7863df067e044f07f232&#45;&gt;dir_71046b38222792489c3876836d4fbdbc -->
<g id="edge7" class="edge">
<title>dir_e75212beacfa7863df067e044f07f232&#45;&gt;dir_71046b38222792489c3876836d4fbdbc</title>
<path fill="none" stroke="black" d="M123.53,-231.89C147.17,-209.76 185.69,-168.7 201,-124 206.18,-108.86 206.17,-103.14 201,-88 197.56,-77.93 191.34,-68.28 184.77,-60.05"/>
<polygon fill="black" stroke="black" points="187.32,-57.65 178.17,-52.32 182,-62.2 187.32,-57.65"/>
<g id="a_edge7&#45;headlabel"><a xlink:href="dir_000004_000007.xhtml" target="_top" xlink:title="4">
<text text-anchor="middle" x="191.82" y="-56.04" font-family="Helvetica,sans-Serif" font-size="10.00">4</text>
</a>
</g>
</g>
<!-- dir_6dbb42d2342d9d7292a192bc1d024acc&#45;&gt;dir_71046b38222792489c3876836d4fbdbc -->
<g id="edge4" class="edge">
<title>dir_6dbb42d2342d9d7292a192bc1d024acc&#45;&gt;dir_71046b38222792489c3876836d4fbdbc</title>
<path fill="none" stroke="black" d="M128.38,-87.7C133.26,-79.56 139.19,-69.69 144.58,-60.7"/>
<polygon fill="black" stroke="black" points="147.59,-62.48 149.74,-52.1 141.59,-58.88 147.59,-62.48"/>
<g id="a_edge4&#45;headlabel"><a xlink:href="dir_000005_000007.xhtml" target="_top" xlink:title="3">
<text text-anchor="middle" x="148.18" y="-64.52" font-family="Helvetica,sans-Serif" font-size="10.00">3</text>
</a>
</g>
</g>
<!-- dir_3a2f33b0f26bc6229d595c2c354e6333 -->
<g id="node6" class="node">
<title>dir_3a2f33b0f26bc6229d595c2c354e6333</title>
<g id="a_node6"><a xlink:href="dir_3a2f33b0f26bc6229d595c2c354e6333.xhtml" target="_top" xlink:title="utilities">
<polygon fill="white" stroke="black" points="70,-52 16,-52 16,-16 70,-16 70,-52"/>
<text text-anchor="middle" x="43" y="-31.5" font-family="Helvetica,sans-Serif" font-size="10.00">utilities</text>
</a>
</g>
</g>
<!-- dir_6dbb42d2342d9d7292a192bc1d024acc&#45;&gt;dir_3a2f33b0f26bc6229d595c2c354e6333 -->
<g id="edge3" class="edge">
<title>dir_6dbb42d2342d9d7292a192bc1d024acc&#45;&gt;dir_3a2f33b0f26bc6229d595c2c354e6333</title>
<path fill="none" stroke="black" d="M99.46,-87.7C90.2,-79.05 78.84,-68.45 68.74,-59.03"/>
<polygon fill="black" stroke="black" points="71.02,-56.37 61.33,-52.1 66.25,-61.49 71.02,-56.37"/>
<g id="a_edge3&#45;headlabel"><a xlink:href="dir_000005_000008.xhtml" target="_top" xlink:title="3">
<text text-anchor="middle" x="75.59" y="-54.25" font-family="Helvetica,sans-Serif" font-size="10.00">3</text>
</a>
</g>
</g>
<!-- dir_b49365647f74dff1c8dd1e88d29293e4&#45;&gt;dir_6dbb42d2342d9d7292a192bc1d024acc -->
<g id="edge1" class="edge">
<title>dir_b49365647f74dff1c8dd1e88d29293e4&#45;&gt;dir_6dbb42d2342d9d7292a192bc1d024acc</title>
<path fill="none" stroke="black" d="M75.84,-159.7C82.49,-151.39 90.58,-141.28 97.89,-132.14"/>
<polygon fill="black" stroke="black" points="100.8,-134.1 104.32,-124.1 95.34,-129.73 100.8,-134.1"/>
<g id="a_edge1&#45;headlabel"><a xlink:href="dir_000006_000005.xhtml" target="_top" xlink:title="6">
<text text-anchor="middle" x="100.77" y="-136.18" font-family="Helvetica,sans-Serif" font-size="10.00">6</text>
</a>
</g>
</g>
<!-- dir_b49365647f74dff1c8dd1e88d29293e4&#45;&gt;dir_3a2f33b0f26bc6229d595c2c354e6333 -->
<g id="edge2" class="edge">
<title>dir_b49365647f74dff1c8dd1e88d29293e4&#45;&gt;dir_3a2f33b0f26bc6229d595c2c354e6333</title>
<path fill="none" stroke="black" d="M50.53,-159.67C44.63,-149.69 38.04,-136.65 35,-124 30.12,-103.67 32.6,-80.07 36.04,-62.29"/>
<polygon fill="black" stroke="black" points="39.5,-62.81 38.18,-52.3 32.66,-61.34 39.5,-62.81"/>
<g id="a_edge2&#45;headlabel"><a xlink:href="dir_000006_000008.xhtml" target="_top" xlink:title="2">
<text text-anchor="middle" x="41.52" y="-64.43" font-family="Helvetica,sans-Serif" font-size="10.00">2</text>
</a>
</g>
</g>
</g>
</svg>
