<?xml version="1.0" encoding="UTF-8" standalone="no"?>
<!DOCTYPE svg PUBLIC "-//W3C//DTD SVG 1.1//EN"
 "http://www.w3.org/Graphics/SVG/1.1/DTD/svg11.dtd">
<!-- Generated by graphviz version 2.43.0 (0)
 -->
<!-- Title: Task&#45;Tracker&#45;Device/lib/application_business_rules/user_interaction Pages: 1 -->
<svg width="226pt" height="239pt"
 viewBox="0.00 0.00 226.00 239.00" xmlns="http://www.w3.org/2000/svg" xmlns:xlink="http://www.w3.org/1999/xlink">
<g id="graph0" class="graph" transform="scale(1 1) rotate(0) translate(4 235)">
<title>Task&#45;Tracker&#45;Device/lib/application_business_rules/user_interaction</title>
<polygon fill="white" stroke="transparent" points="-4,4 -4,-235 222,-235 222,4 -4,4"/>
<g id="clust1" class="cluster">
<title>clusterdir_cc4eb8107cf563e196ee7789b7c073d2</title>
<g id="a_clust1"><a xlink:href="dir_cc4eb8107cf563e196ee7789b7c073d2.xhtml" target="_top" xlink:title="application_business_rules">
<polygon fill="#ddddee" stroke="black" points="8,-8 8,-223 156,-223 156,-8 8,-8"/>
<text text-anchor="middle" x="82" y="-211" font-family="Helvetica,sans-Serif" font-size="10.00">application_business_rules</text>
</a>
</g>
</g>
<!-- dir_05b5e851ac9e59efa54369b7cbb1f529 -->
<g id="node1" class="node">
<title>dir_05b5e851ac9e59efa54369b7cbb1f529</title>
<g id="a_node1"><a xlink:href="dir_05b5e851ac9e59efa54369b7cbb1f529.xhtml" target="_top" xlink:title="serial_interface">
<polygon fill="none" stroke="black" points="148,-124 56,-124 56,-88 148,-88 148,-124"/>
<text text-anchor="middle" x="102" y="-103.5" font-family="Helvetica,sans-Serif" font-size="10.00">serial_interface</text>
</a>
</g>
</g>
<!-- dir_a152533725ee893b28a6891613a99b53 -->
<g id="node2" class="node">
<title>dir_a152533725ee893b28a6891613a99b53</title>
<g id="a_node2"><a xlink:href="dir_a152533725ee893b28a6891613a99b53.xhtml" target="_top" xlink:title="tasks">
<polygon fill="none" stroke="black" points="99,-52 45,-52 45,-16 99,-16 99,-52"/>
<text text-anchor="middle" x="72" y="-31.5" font-family="Helvetica,sans-Serif" font-size="10.00">tasks</text>
</a>
</g>
</g>
<!-- dir_05b5e851ac9e59efa54369b7cbb1f529&#45;&gt;dir_a152533725ee893b28a6891613a99b53 -->
<g id="edge5" class="edge">
<title>dir_05b5e851ac9e59efa54369b7cbb1f529&#45;&gt;dir_a152533725ee893b28a6891613a99b53</title>
<path fill="none" stroke="black" d="M94.58,-87.7C91.21,-79.81 87.13,-70.3 83.38,-61.55"/>
<polygon fill="black" stroke="black" points="86.49,-59.92 79.33,-52.1 80.05,-62.67 86.49,-59.92"/>
<g id="a_edge5&#45;headlabel"><a xlink:href="dir_000014_000015.xhtml" target="_top" xlink:title="1">
<text text-anchor="middle" x="90.51" y="-59.6" font-family="Helvetica,sans-Serif" font-size="10.00">1</text>
</a>
</g>
</g>
<!-- dir_77250fbdc01bb7367d479e08fa573657 -->
<g id="node4" class="node">
<title>dir_77250fbdc01bb7367d479e08fa573657</title>
<g id="a_node4"><a xlink:href="dir_77250fbdc01bb7367d479e08fa573657.xhtml" target="_top" xlink:title="utilities">
<polygon fill="none" stroke="black" points="218,-52 164,-52 164,-16 218,-16 218,-52"/>
<text text-anchor="middle" x="191" y="-31.5" font-family="Helvetica,sans-Serif" font-size="10.00">utilities</text>
</a>
</g>
</g>
<!-- dir_05b5e851ac9e59efa54369b7cbb1f529&#45;&gt;dir_77250fbdc01bb7367d479e08fa573657 -->
<g id="edge4" class="edge">
<title>dir_05b5e851ac9e59efa54369b7cbb1f529&#45;&gt;dir_77250fbdc01bb7367d479e08fa573657</title>
<path fill="none" stroke="black" d="M124,-87.7C135.21,-78.88 149,-68.03 161.15,-58.47"/>
<polygon fill="black" stroke="black" points="163.56,-61.04 169.25,-52.1 159.23,-55.54 163.56,-61.04"/>
<g id="a_edge4&#45;headlabel"><a xlink:href="dir_000014_000009.xhtml" target="_top" xlink:title="1">
<text text-anchor="middle" x="162.49" y="-62.99" font-family="Helvetica,sans-Serif" font-size="10.00">1</text>
</a>
</g>
</g>
<!-- dir_fca5679270aca10c608379ce2e021563 -->
<g id="node3" class="node">
<title>dir_fca5679270aca10c608379ce2e021563</title>
<g id="a_node3"><a xlink:href="dir_fca5679270aca10c608379ce2e021563.xhtml" target="_top" xlink:title="user_interaction">
<polygon fill="#eeeeff" stroke="black" points="147.5,-196 52.5,-196 52.5,-160 147.5,-160 147.5,-196"/>
<text text-anchor="middle" x="100" y="-175.5" font-family="Helvetica,sans-Serif" font-size="10.00">user_interaction</text>
</a>
</g>
</g>
<!-- dir_fca5679270aca10c608379ce2e021563&#45;&gt;dir_05b5e851ac9e59efa54369b7cbb1f529 -->
<g id="edge1" class="edge">
<title>dir_fca5679270aca10c608379ce2e021563&#45;&gt;dir_05b5e851ac9e59efa54369b7cbb1f529</title>
<path fill="none" stroke="black" d="M100.49,-159.7C100.71,-151.98 100.98,-142.71 101.23,-134.11"/>
<polygon fill="black" stroke="black" points="104.72,-134.2 101.51,-124.1 97.73,-134 104.72,-134.2"/>
<g id="a_edge1&#45;headlabel"><a xlink:href="dir_000016_000014.xhtml" target="_top" xlink:title="1">
<text text-anchor="middle" x="107.46" y="-135.37" font-family="Helvetica,sans-Serif" font-size="10.00">1</text>
</a>
</g>
</g>
<!-- dir_fca5679270aca10c608379ce2e021563&#45;&gt;dir_a152533725ee893b28a6891613a99b53 -->
<g id="edge3" class="edge">
<title>dir_fca5679270aca10c608379ce2e021563&#45;&gt;dir_a152533725ee893b28a6891613a99b53</title>
<path fill="none" stroke="black" d="M75.52,-159.77C64.6,-150.56 52.88,-138.19 47,-124 38.47,-103.42 46.54,-78.99 55.72,-60.94"/>
<polygon fill="black" stroke="black" points="58.81,-62.59 60.54,-52.13 52.67,-59.23 58.81,-62.59"/>
<g id="a_edge3&#45;headlabel"><a xlink:href="dir_000016_000015.xhtml" target="_top" xlink:title="1">
<text text-anchor="middle" x="59.57" y="-64.6" font-family="Helvetica,sans-Serif" font-size="10.00">1</text>
</a>
</g>
</g>
<!-- dir_fca5679270aca10c608379ce2e021563&#45;&gt;dir_77250fbdc01bb7367d479e08fa573657 -->
<g id="edge2" class="edge">
<title>dir_fca5679270aca10c608379ce2e021563&#45;&gt;dir_77250fbdc01bb7367d479e08fa573657</title>
<path fill="none" stroke="black" d="M122.93,-159.87C134.41,-150.35 147.78,-137.67 157,-124 169.82,-105 178.72,-80.49 184.19,-62"/>
<polygon fill="black" stroke="black" points="187.62,-62.74 186.95,-52.17 180.88,-60.85 187.62,-62.74"/>
<g id="a_edge2&#45;headlabel"><a xlink:href="dir_000016_000009.xhtml" target="_top" xlink:title="2">
<text text-anchor="middle" x="189.38" y="-64.47" font-family="Helvetica,sans-Serif" font-size="10.00">2</text>
</a>
</g>
</g>
</g>
</svg>
