<?xml version="1.0" encoding="UTF-8" standalone="no"?>
<!DOCTYPE svg PUBLIC "-//W3C//DTD SVG 1.1//EN"
 "http://www.w3.org/Graphics/SVG/1.1/DTD/svg11.dtd">
<!-- Generated by graphviz version 2.43.0 (0)
 -->
<!-- Title: Task&#45;Tracker&#45;Device/lib/board_adapters Pages: 1 -->
<svg width="412pt" height="319pt"
 viewBox="0.00 0.00 412.00 319.00" xmlns="http://www.w3.org/2000/svg" xmlns:xlink="http://www.w3.org/1999/xlink">
<g id="graph0" class="graph" transform="scale(1 1) rotate(0) translate(4 315)">
<title>Task&#45;Tracker&#45;Device/lib/board_adapters</title>
<polygon fill="white" stroke="transparent" points="-4,4 -4,-315 408,-315 408,4 -4,4"/>
<g id="clust1" class="cluster">
<title>clusterdir_bb6849ea4d307d3e6f07c34bd3d0693d</title>
<g id="a_clust1"><a xlink:href="dir_bb6849ea4d307d3e6f07c34bd3d0693d.xhtml" target="_top" xlink:title="lib">
<polygon fill="#ddddee" stroke="black" points="8,-8 8,-303 396,-303 396,-8 8,-8"/>
<text text-anchor="middle" x="202" y="-291" font-family="Helvetica,sans-Serif" font-size="10.00">lib</text>
</a>
</g>
</g>
<g id="clust2" class="cluster">
<title>clusterdir_49a5f6ab04696b445f2adbc130c9ef44</title>
<g id="a_clust2"><a xlink:href="dir_49a5f6ab04696b445f2adbc130c9ef44.xhtml" target="_top">
<polygon fill="#eeeeff" stroke="black" points="16,-152 16,-276 388,-276 388,-152 16,-152"/>
</a>
</g>
</g>
<!-- dir_cc4eb8107cf563e196ee7789b7c073d2 -->
<g id="node1" class="node">
<title>dir_cc4eb8107cf563e196ee7789b7c073d2</title>
<g id="a_node1"><a xlink:href="dir_cc4eb8107cf563e196ee7789b7c073d2.xhtml" target="_top" xlink:title="application_business_rules">
<polygon fill="white" stroke="red" points="266,-124 118,-124 118,-88 266,-88 266,-124"/>
<text text-anchor="middle" x="192" y="-103.5" font-family="Helvetica,sans-Serif" font-size="10.00">application_business_rules</text>
</a>
</g>
</g>
<!-- dir_77250fbdc01bb7367d479e08fa573657 -->
<g id="node2" class="node">
<title>dir_77250fbdc01bb7367d479e08fa573657</title>
<g id="a_node2"><a xlink:href="dir_77250fbdc01bb7367d479e08fa573657.xhtml" target="_top" xlink:title="utilities">
<polygon fill="none" stroke="black" points="219,-52 165,-52 165,-16 219,-16 219,-52"/>
<text text-anchor="middle" x="192" y="-31.5" font-family="Helvetica,sans-Serif" font-size="10.00">utilities</text>
</a>
</g>
</g>
<!-- dir_cc4eb8107cf563e196ee7789b7c073d2&#45;&gt;dir_77250fbdc01bb7367d479e08fa573657 -->
<g id="edge5" class="edge">
<title>dir_cc4eb8107cf563e196ee7789b7c073d2&#45;&gt;dir_77250fbdc01bb7367d479e08fa573657</title>
<path fill="none" stroke="black" d="M192,-87.7C192,-79.98 192,-70.71 192,-62.11"/>
<polygon fill="black" stroke="black" points="195.5,-62.1 192,-52.1 188.5,-62.1 195.5,-62.1"/>
<g id="a_edge5&#45;headlabel"><a xlink:href="dir_000006_000009.xhtml" target="_top" xlink:title="3">
<text text-anchor="middle" x="198.34" y="-63.2" font-family="Helvetica,sans-Serif" font-size="10.00">3</text>
</a>
</g>
</g>
<!-- dir_49a5f6ab04696b445f2adbc130c9ef44 -->
<g id="node3" class="node">
<title>dir_49a5f6ab04696b445f2adbc130c9ef44</title>
<text text-anchor="middle" x="70" y="-247.5" font-family="Helvetica,sans-Serif" font-size="10.00">board_adapters</text>
</g>
<!-- dir_49a5f6ab04696b445f2adbc130c9ef44&#45;&gt;dir_cc4eb8107cf563e196ee7789b7c073d2 -->
<g id="edge7" class="edge">
<title>dir_49a5f6ab04696b445f2adbc130c9ef44&#45;&gt;dir_cc4eb8107cf563e196ee7789b7c073d2</title>
<path fill="none" stroke="black" d="M116.2,-232.03C133.64,-223.58 152.32,-211.74 165,-196 172.74,-186.39 180.86,-156.55 186.15,-134.05"/>
<polygon fill="black" stroke="black" points="189.62,-134.54 188.43,-124.02 182.8,-132.99 189.62,-134.54"/>
<g id="a_edge7&#45;headlabel"><a xlink:href="dir_000007_000006.xhtml" target="_top" xlink:title="6">
<text text-anchor="middle" x="191.59" y="-136.18" font-family="Helvetica,sans-Serif" font-size="10.00">6</text>
</a>
</g>
</g>
<!-- dir_d10a16c9edae2d9519314512b0d44a07 -->
<g id="node5" class="node">
<title>dir_d10a16c9edae2d9519314512b0d44a07</title>
<g id="a_node5"><a xlink:href="dir_d10a16c9edae2d9519314512b0d44a07.xhtml" target="_top" xlink:title="sound_output_interface">
<polygon fill="white" stroke="black" points="155.5,-196 24.5,-196 24.5,-160 155.5,-160 155.5,-196"/>
<text text-anchor="middle" x="90" y="-175.5" font-family="Helvetica,sans-Serif" font-size="10.00">sound_output_interface</text>
</a>
</g>
</g>
<!-- dir_49a5f6ab04696b445f2adbc130c9ef44&#45;&gt;dir_d10a16c9edae2d9519314512b0d44a07 -->
<g id="edge8" class="edge">
<title>dir_49a5f6ab04696b445f2adbc130c9ef44&#45;&gt;dir_d10a16c9edae2d9519314512b0d44a07</title>
<path fill="none" stroke="black" d="M74.94,-231.7C77.17,-223.9 79.85,-214.51 82.33,-205.83"/>
<polygon fill="black" stroke="black" points="85.73,-206.68 85.11,-196.1 79,-204.76 85.73,-206.68"/>
<g id="a_edge8&#45;headlabel"><a xlink:href="dir_000007_000018.xhtml" target="_top" xlink:title="1">
<text text-anchor="middle" x="87.47" y="-208.42" font-family="Helvetica,sans-Serif" font-size="10.00">1</text>
</a>
</g>
</g>
<!-- dir_b192ae19673eac2db9bfabf62a1b64b1 -->
<g id="node4" class="node">
<title>dir_b192ae19673eac2db9bfabf62a1b64b1</title>
<g id="a_node4"><a xlink:href="dir_b192ae19673eac2db9bfabf62a1b64b1.xhtml" target="_top" xlink:title="input_device_interface">
<polygon fill="white" stroke="black" points="380,-268 252,-268 252,-232 380,-232 380,-268"/>
<text text-anchor="middle" x="316" y="-247.5" font-family="Helvetica,sans-Serif" font-size="10.00">input_device_interface</text>
</a>
</g>
</g>
<!-- dir_b192ae19673eac2db9bfabf62a1b64b1&#45;&gt;dir_cc4eb8107cf563e196ee7789b7c073d2 -->
<g id="edge4" class="edge">
<title>dir_b192ae19673eac2db9bfabf62a1b64b1&#45;&gt;dir_cc4eb8107cf563e196ee7789b7c073d2</title>
<path fill="none" stroke="black" d="M301.04,-231.87C279.26,-206.92 238.67,-160.45 213.63,-131.77"/>
<polygon fill="black" stroke="black" points="216.22,-129.42 207.01,-124.19 210.95,-134.02 216.22,-129.42"/>
<g id="a_edge4&#45;headlabel"><a xlink:href="dir_000017_000006.xhtml" target="_top" xlink:title="2">
<text text-anchor="middle" x="220.73" y="-127.76" font-family="Helvetica,sans-Serif" font-size="10.00">2</text>
</a>
</g>
</g>
<!-- dir_b192ae19673eac2db9bfabf62a1b64b1&#45;&gt;dir_77250fbdc01bb7367d479e08fa573657 -->
<g id="edge3" class="edge">
<title>dir_b192ae19673eac2db9bfabf62a1b64b1&#45;&gt;dir_77250fbdc01bb7367d479e08fa573657</title>
<path fill="none" stroke="black" d="M315.65,-231.77C314.21,-200.29 307.28,-132.65 275,-88 263.17,-71.63 244.58,-59.09 228,-50.32"/>
<polygon fill="black" stroke="black" points="229.55,-47.18 219.04,-45.84 226.42,-53.44 229.55,-47.18"/>
<g id="a_edge3&#45;headlabel"><a xlink:href="dir_000017_000009.xhtml" target="_top" xlink:title="1">
<text text-anchor="middle" x="234.04" y="-43.75" font-family="Helvetica,sans-Serif" font-size="10.00">1</text>
</a>
</g>
</g>
<!-- dir_d10a16c9edae2d9519314512b0d44a07&#45;&gt;dir_cc4eb8107cf563e196ee7789b7c073d2 -->
<g id="edge2" class="edge">
<title>dir_d10a16c9edae2d9519314512b0d44a07&#45;&gt;dir_cc4eb8107cf563e196ee7789b7c073d2</title>
<path fill="none" stroke="black" d="M114.95,-159.88C128.04,-150.89 144.26,-139.76 158.44,-130.03"/>
<polygon fill="black" stroke="black" points="160.69,-132.73 166.95,-124.19 156.73,-126.96 160.69,-132.73"/>
<g id="a_edge2&#45;headlabel"><a xlink:href="dir_000018_000006.xhtml" target="_top" xlink:title="1">
<text text-anchor="middle" x="159.33" y="-134.61" font-family="Helvetica,sans-Serif" font-size="10.00">1</text>
</a>
</g>
</g>
<!-- dir_d10a16c9edae2d9519314512b0d44a07&#45;&gt;dir_77250fbdc01bb7367d479e08fa573657 -->
<g id="edge1" class="edge">
<title>dir_d10a16c9edae2d9519314512b0d44a07&#45;&gt;dir_77250fbdc01bb7367d479e08fa573657</title>
<path fill="none" stroke="black" d="M89.85,-159.73C90.5,-140.57 94.05,-109.55 109,-88 120.51,-71.41 139.07,-58.84 155.72,-50.12"/>
<polygon fill="black" stroke="black" points="157.31,-53.24 164.72,-45.67 154.21,-46.97 157.31,-53.24"/>
<g id="a_edge1&#45;headlabel"><a xlink:href="dir_000018_000009.xhtml" target="_top" xlink:title="1">
<text text-anchor="middle" x="155.35" y="-54.88" font-family="Helvetica,sans-Serif" font-size="10.00">1</text>
</a>
</g>
</g>
<!-- dir_979be6e6248a7f790cc0bd4fb58a98d4 -->
<g id="node6" class="node">
<title>dir_979be6e6248a7f790cc0bd4fb58a98d4</title>
<g id="a_node6"><a xlink:href="dir_979be6e6248a7f790cc0bd4fb58a98d4.xhtml" target="_top" xlink:title="status_indicators">
<polygon fill="white" stroke="black" points="234,-268 134,-268 134,-232 234,-232 234,-268"/>
<text text-anchor="middle" x="184" y="-247.5" font-family="Helvetica,sans-Serif" font-size="10.00">status_indicators</text>
</a>
</g>
</g>
<!-- dir_979be6e6248a7f790cc0bd4fb58a98d4&#45;&gt;dir_cc4eb8107cf563e196ee7789b7c073d2 -->
<g id="edge6" class="edge">
<title>dir_979be6e6248a7f790cc0bd4fb58a98d4&#45;&gt;dir_cc4eb8107cf563e196ee7789b7c073d2</title>
<path fill="none" stroke="black" d="M184.96,-231.87C186.33,-207.67 188.83,-163.21 190.46,-134.39"/>
<polygon fill="black" stroke="black" points="193.96,-134.37 191.03,-124.19 186.97,-133.98 193.96,-134.37"/>
<g id="a_edge6&#45;headlabel"><a xlink:href="dir_000019_000006.xhtml" target="_top" xlink:title="2">
<text text-anchor="middle" x="196.6" y="-135.62" font-family="Helvetica,sans-Serif" font-size="10.00">2</text>
</a>
</g>
</g>
</g>
</svg>
