<?xml version="1.0" encoding="UTF-8" standalone="no"?>
<!DOCTYPE svg PUBLIC "-//W3C//DTD SVG 1.1//EN"
 "http://www.w3.org/Graphics/SVG/1.1/DTD/svg11.dtd">
<!-- Generated by graphviz version 2.43.0 (0)
 -->
<!-- Title: Task&#45;Tracker&#45;Device/lib/3rd_party_adapters/FreeRTOS Pages: 1 -->
<svg width="135pt" height="151pt"
 viewBox="0.00 0.00 135.00 151.00" xmlns="http://www.w3.org/2000/svg" xmlns:xlink="http://www.w3.org/1999/xlink">
<g id="graph0" class="graph" transform="scale(1 1) rotate(0) translate(4 147)">
<title>Task&#45;Tracker&#45;Device/lib/3rd_party_adapters/FreeRTOS</title>
<polygon fill="white" stroke="transparent" points="-4,4 -4,-147 131,-147 131,4 -4,4"/>
<g id="clust1" class="cluster">
<title>clusterdir_60c2c4d274c08a1458706f202c2ac02e</title>
<g id="a_clust1"><a xlink:href="dir_60c2c4d274c08a1458706f202c2ac02e.xhtml" target="_top" xlink:title="3rd_party_adapters">
<polygon fill="#ddddee" stroke="black" points="8,-64 8,-135 119,-135 119,-64 8,-64"/>
<text text-anchor="middle" x="63.5" y="-123" font-family="Helvetica,sans-Serif" font-size="10.00">3rd_party_adapters</text>
</a>
</g>
</g>
<!-- dir_a268bc7b3a14a9993daf0eb877b6358e -->
<g id="node1" class="node">
<title>dir_a268bc7b3a14a9993daf0eb877b6358e</title>
<g id="a_node1"><a xlink:href="dir_a268bc7b3a14a9993daf0eb877b6358e.xhtml" target="_top" xlink:title="FreeRTOS">
<polygon fill="#eeeeff" stroke="black" points="94.5,-108 31.5,-108 31.5,-72 94.5,-72 94.5,-108"/>
<text text-anchor="middle" x="63" y="-87.5" font-family="Helvetica,sans-Serif" font-size="10.00">FreeRTOS</text>
</a>
</g>
</g>
<!-- dir_49a5f6ab04696b445f2adbc130c9ef44 -->
<g id="node2" class="node">
<title>dir_49a5f6ab04696b445f2adbc130c9ef44</title>
<g id="a_node2"><a xlink:href="dir_49a5f6ab04696b445f2adbc130c9ef44.xhtml" target="_top" xlink:title="board_adapters">
<polygon fill="white" stroke="red" points="109,-36 17,-36 17,0 109,0 109,-36"/>
<text text-anchor="middle" x="63" y="-15.5" font-family="Helvetica,sans-Serif" font-size="10.00">board_adapters</text>
</a>
</g>
</g>
<!-- dir_a268bc7b3a14a9993daf0eb877b6358e&#45;&gt;dir_49a5f6ab04696b445f2adbc130c9ef44 -->
<g id="edge1" class="edge">
<title>dir_a268bc7b3a14a9993daf0eb877b6358e&#45;&gt;dir_49a5f6ab04696b445f2adbc130c9ef44</title>
<path fill="none" stroke="black" d="M63,-71.7C63,-63.98 63,-54.71 63,-46.11"/>
<polygon fill="black" stroke="black" points="66.5,-46.1 63,-36.1 59.5,-46.1 66.5,-46.1"/>
<g id="a_edge1&#45;headlabel"><a xlink:href="dir_000011_000007.xhtml" target="_top" xlink:title="1">
<text text-anchor="middle" x="69.34" y="-47.2" font-family="Helvetica,sans-Serif" font-size="10.00">1</text>
</a>
</g>
</g>
</g>
</svg>
