<?xml version="1.0" encoding="UTF-8" standalone="no"?>
<!DOCTYPE svg PUBLIC "-//W3C//DTD SVG 1.1//EN"
 "http://www.w3.org/Graphics/SVG/1.1/DTD/svg11.dtd">
<!-- Generated by graphviz version 2.43.0 (0)
 -->
<!-- Title: Task&#45;Tracker&#45;Device Pages: 1 -->
<svg width="450pt" height="148pt"
 viewBox="0.00 0.00 450.00 148.00" xmlns="http://www.w3.org/2000/svg" xmlns:xlink="http://www.w3.org/1999/xlink">
<g id="graph0" class="graph" transform="scale(1 1) rotate(0) translate(4 144)">
<title>Task&#45;Tracker&#45;Device</title>
<polygon fill="white" stroke="transparent" points="-4,4 -4,-144 446,-144 446,4 -4,4"/>
<g id="clust1" class="cluster">
<title>clusterdir_7a0d9093671d12905beda7b1ed8f0dec</title>
<g id="a_clust1"><a xlink:href="dir_7a0d9093671d12905beda7b1ed8f0dec.xhtml" target="_top">
<polygon fill="#eeeeff" stroke="black" points="8,-8 8,-132 434,-132 434,-8 8,-8"/>
</a>
</g>
</g>
<!-- dir_7a0d9093671d12905beda7b1ed8f0dec -->
<g id="node1" class="node">
<title>dir_7a0d9093671d12905beda7b1ed8f0dec</title>
<text text-anchor="middle" x="369" y="-103.5" font-family="Helvetica,sans-Serif" font-size="10.00">Task&#45;Tracker&#45;Device</text>
</g>
<!-- dir_57829967051a5b202fbb7b1efbc7cffe -->
<g id="node2" class="node">
<title>dir_57829967051a5b202fbb7b1efbc7cffe</title>
<g id="a_node2"><a xlink:href="dir_57829967051a5b202fbb7b1efbc7cffe.xhtml" target="_top" xlink:title="doc">
<polygon fill="white" stroke="red" points="294,-124 240,-124 240,-88 294,-88 294,-124"/>
<text text-anchor="middle" x="267" y="-103.5" font-family="Helvetica,sans-Serif" font-size="10.00">doc</text>
</a>
</g>
</g>
<!-- dir_1e07336a4e10baf2ce1d76477cea1d24 -->
<g id="node3" class="node">
<title>dir_1e07336a4e10baf2ce1d76477cea1d24</title>
<g id="a_node3"><a xlink:href="dir_1e07336a4e10baf2ce1d76477cea1d24.xhtml" target="_top" xlink:title="hardware">
<polygon fill="white" stroke="black" points="222,-124 160,-124 160,-88 222,-88 222,-124"/>
<text text-anchor="middle" x="191" y="-103.5" font-family="Helvetica,sans-Serif" font-size="10.00">hardware</text>
</a>
</g>
</g>
<!-- dir_bb6849ea4d307d3e6f07c34bd3d0693d -->
<g id="node4" class="node">
<title>dir_bb6849ea4d307d3e6f07c34bd3d0693d</title>
<g id="a_node4"><a xlink:href="dir_bb6849ea4d307d3e6f07c34bd3d0693d.xhtml" target="_top" xlink:title="lib">
<polygon fill="white" stroke="red" points="106,-52 52,-52 52,-16 106,-16 106,-52"/>
<text text-anchor="middle" x="79" y="-31.5" font-family="Helvetica,sans-Serif" font-size="10.00">lib</text>
</a>
</g>
</g>
<!-- dir_e5b7aa30f8e85baf26cc944fcbe876bc -->
<g id="node5" class="node">
<title>dir_e5b7aa30f8e85baf26cc944fcbe876bc</title>
<g id="a_node5"><a xlink:href="dir_e5b7aa30f8e85baf26cc944fcbe876bc.xhtml" target="_top" xlink:title="src">
<polygon fill="white" stroke="black" points="142,-124 88,-124 88,-88 142,-88 142,-124"/>
<text text-anchor="middle" x="115" y="-103.5" font-family="Helvetica,sans-Serif" font-size="10.00">src</text>
</a>
</g>
</g>
<!-- dir_e5b7aa30f8e85baf26cc944fcbe876bc&#45;&gt;dir_bb6849ea4d307d3e6f07c34bd3d0693d -->
<g id="edge2" class="edge">
<title>dir_e5b7aa30f8e85baf26cc944fcbe876bc&#45;&gt;dir_bb6849ea4d307d3e6f07c34bd3d0693d</title>
<path fill="none" stroke="black" d="M106.1,-87.7C102,-79.73 97.05,-70.1 92.51,-61.26"/>
<polygon fill="black" stroke="black" points="95.48,-59.4 87.8,-52.1 89.26,-62.6 95.48,-59.4"/>
<g id="a_edge2&#45;headlabel"><a xlink:href="dir_000021_000004.xhtml" target="_top" xlink:title="9">
<text text-anchor="middle" x="99.65" y="-58.79" font-family="Helvetica,sans-Serif" font-size="10.00">9</text>
</a>
</g>
</g>
<!-- dir_75b09ee04e6f334759174746683ad215 -->
<g id="node6" class="node">
<title>dir_75b09ee04e6f334759174746683ad215</title>
<g id="a_node6"><a xlink:href="dir_75b09ee04e6f334759174746683ad215.xhtml" target="_top" xlink:title="test">
<polygon fill="white" stroke="red" points="70,-124 16,-124 16,-88 70,-88 70,-124"/>
<text text-anchor="middle" x="43" y="-103.5" font-family="Helvetica,sans-Serif" font-size="10.00">test</text>
</a>
</g>
</g>
<!-- dir_75b09ee04e6f334759174746683ad215&#45;&gt;dir_bb6849ea4d307d3e6f07c34bd3d0693d -->
<g id="edge1" class="edge">
<title>dir_75b09ee04e6f334759174746683ad215&#45;&gt;dir_bb6849ea4d307d3e6f07c34bd3d0693d</title>
<path fill="none" stroke="black" d="M51.9,-87.7C56,-79.73 60.95,-70.1 65.49,-61.26"/>
<polygon fill="black" stroke="black" points="68.74,-62.6 70.2,-52.1 62.52,-59.4 68.74,-62.6"/>
<g id="a_edge1&#45;headlabel"><a xlink:href="dir_000022_000004.xhtml" target="_top" xlink:title="19">
<text text-anchor="middle" x="69.62" y="-64.59" font-family="Helvetica,sans-Serif" font-size="10.00">19</text>
</a>
</g>
</g>
</g>
</svg>
