<?xml version="1.0" encoding="UTF-8" standalone="no"?>
<!DOCTYPE svg PUBLIC "-//W3C//DTD SVG 1.1//EN"
 "http://www.w3.org/Graphics/SVG/1.1/DTD/svg11.dtd">
<!-- Generated by graphviz version 2.43.0 (0)
 -->
<!-- Title: Task&#45;Tracker&#45;Device/lib/3rd_party_adapters Pages: 1 -->
<svg width="476pt" height="319pt"
 viewBox="0.00 0.00 476.00 319.00" xmlns="http://www.w3.org/2000/svg" xmlns:xlink="http://www.w3.org/1999/xlink">
<g id="graph0" class="graph" transform="scale(1 1) rotate(0) translate(4 315)">
<title>Task&#45;Tracker&#45;Device/lib/3rd_party_adapters</title>
<polygon fill="white" stroke="transparent" points="-4,4 -4,-315 472,-315 472,4 -4,4"/>
<g id="clust1" class="cluster">
<title>clusterdir_bb6849ea4d307d3e6f07c34bd3d0693d</title>
<g id="a_clust1"><a xlink:href="dir_bb6849ea4d307d3e6f07c34bd3d0693d.xhtml" target="_top" xlink:title="lib">
<polygon fill="#ddddee" stroke="black" points="8,-8 8,-303 460,-303 460,-8 8,-8"/>
<text text-anchor="middle" x="234" y="-291" font-family="Helvetica,sans-Serif" font-size="10.00">lib</text>
</a>
</g>
</g>
<g id="clust2" class="cluster">
<title>clusterdir_60c2c4d274c08a1458706f202c2ac02e</title>
<g id="a_clust2"><a xlink:href="dir_60c2c4d274c08a1458706f202c2ac02e.xhtml" target="_top">
<polygon fill="#eeeeff" stroke="black" points="16,-224 16,-276 452,-276 452,-224 16,-224"/>
</a>
</g>
</g>
<!-- dir_49a5f6ab04696b445f2adbc130c9ef44 -->
<g id="node1" class="node">
<title>dir_49a5f6ab04696b445f2adbc130c9ef44</title>
<g id="a_node1"><a xlink:href="dir_49a5f6ab04696b445f2adbc130c9ef44.xhtml" target="_top" xlink:title="board_adapters">
<polygon fill="white" stroke="red" points="177,-196 85,-196 85,-160 177,-160 177,-196"/>
<text text-anchor="middle" x="131" y="-175.5" font-family="Helvetica,sans-Serif" font-size="10.00">board_adapters</text>
</a>
</g>
</g>
<!-- dir_cc4eb8107cf563e196ee7789b7c073d2 -->
<g id="node2" class="node">
<title>dir_cc4eb8107cf563e196ee7789b7c073d2</title>
<g id="a_node2"><a xlink:href="dir_cc4eb8107cf563e196ee7789b7c073d2.xhtml" target="_top" xlink:title="application_business_rules">
<polygon fill="white" stroke="red" points="264,-124 116,-124 116,-88 264,-88 264,-124"/>
<text text-anchor="middle" x="190" y="-103.5" font-family="Helvetica,sans-Serif" font-size="10.00">application_business_rules</text>
</a>
</g>
</g>
<!-- dir_49a5f6ab04696b445f2adbc130c9ef44&#45;&gt;dir_cc4eb8107cf563e196ee7789b7c073d2 -->
<g id="edge9" class="edge">
<title>dir_49a5f6ab04696b445f2adbc130c9ef44&#45;&gt;dir_cc4eb8107cf563e196ee7789b7c073d2</title>
<path fill="none" stroke="black" d="M145.58,-159.7C152.66,-151.3 161.28,-141.07 169.05,-131.86"/>
<polygon fill="black" stroke="black" points="171.81,-134.01 175.58,-124.1 166.46,-129.49 171.81,-134.01"/>
<g id="a_edge9&#45;headlabel"><a xlink:href="dir_000007_000006.xhtml" target="_top" xlink:title="6">
<text text-anchor="middle" x="171.67" y="-136.08" font-family="Helvetica,sans-Serif" font-size="10.00">6</text>
</a>
</g>
</g>
<!-- dir_e70fd5d37674c687c1056755f18dec05 -->
<g id="node3" class="node">
<title>dir_e70fd5d37674c687c1056755f18dec05</title>
<g id="a_node3"><a xlink:href="dir_e70fd5d37674c687c1056755f18dec05.xhtml" target="_top" xlink:title="enterprise_business_rules">
<polygon fill="white" stroke="red" points="307.5,-52 164.5,-52 164.5,-16 307.5,-16 307.5,-52"/>
<text text-anchor="middle" x="236" y="-31.5" font-family="Helvetica,sans-Serif" font-size="10.00">enterprise_business_rules</text>
</a>
</g>
</g>
<!-- dir_cc4eb8107cf563e196ee7789b7c073d2&#45;&gt;dir_e70fd5d37674c687c1056755f18dec05 -->
<g id="edge6" class="edge">
<title>dir_cc4eb8107cf563e196ee7789b7c073d2&#45;&gt;dir_e70fd5d37674c687c1056755f18dec05</title>
<path fill="none" stroke="black" d="M201.37,-87.7C206.72,-79.56 213.2,-69.69 219.11,-60.7"/>
<polygon fill="black" stroke="black" points="222.19,-62.38 224.76,-52.1 216.34,-58.54 222.19,-62.38"/>
<g id="a_edge6&#45;headlabel"><a xlink:href="dir_000006_000008.xhtml" target="_top" xlink:title="4">
<text text-anchor="middle" x="222.59" y="-64.45" font-family="Helvetica,sans-Serif" font-size="10.00">4</text>
</a>
</g>
</g>
<!-- dir_60c2c4d274c08a1458706f202c2ac02e -->
<g id="node4" class="node">
<title>dir_60c2c4d274c08a1458706f202c2ac02e</title>
<text text-anchor="middle" x="389" y="-247.5" font-family="Helvetica,sans-Serif" font-size="10.00">3rd_party_adapters</text>
</g>
<!-- dir_caf2c0c105311d2ab92f604f9634cd65 -->
<g id="node5" class="node">
<title>dir_caf2c0c105311d2ab92f604f9634cd65</title>
<g id="a_node5"><a xlink:href="dir_caf2c0c105311d2ab92f604f9634cd65.xhtml" target="_top" xlink:title="Arduino">
<polygon fill="white" stroke="black" points="78,-268 24,-268 24,-232 78,-232 78,-268"/>
<text text-anchor="middle" x="51" y="-247.5" font-family="Helvetica,sans-Serif" font-size="10.00">Arduino</text>
</a>
</g>
</g>
<!-- dir_caf2c0c105311d2ab92f604f9634cd65&#45;&gt;dir_49a5f6ab04696b445f2adbc130c9ef44 -->
<g id="edge7" class="edge">
<title>dir_caf2c0c105311d2ab92f604f9634cd65&#45;&gt;dir_49a5f6ab04696b445f2adbc130c9ef44</title>
<path fill="none" stroke="black" d="M70.78,-231.7C80.75,-222.97 93.01,-212.24 103.86,-202.75"/>
<polygon fill="black" stroke="black" points="106.23,-205.32 111.45,-196.1 101.62,-200.06 106.23,-205.32"/>
<g id="a_edge7&#45;headlabel"><a xlink:href="dir_000010_000007.xhtml" target="_top" xlink:title="1">
<text text-anchor="middle" x="105.4" y="-207.33" font-family="Helvetica,sans-Serif" font-size="10.00">1</text>
</a>
</g>
</g>
<!-- dir_caf2c0c105311d2ab92f604f9634cd65&#45;&gt;dir_cc4eb8107cf563e196ee7789b7c073d2 -->
<g id="edge8" class="edge">
<title>dir_caf2c0c105311d2ab92f604f9634cd65&#45;&gt;dir_cc4eb8107cf563e196ee7789b7c073d2</title>
<path fill="none" stroke="black" d="M51.64,-231.96C53.22,-212.45 58.53,-180.54 76,-160 87.58,-146.38 103.43,-136.05 119.62,-128.3"/>
<polygon fill="black" stroke="black" points="121.46,-131.31 129.16,-124.03 118.61,-124.92 121.46,-131.31"/>
<g id="a_edge8&#45;headlabel"><a xlink:href="dir_000010_000006.xhtml" target="_top" xlink:title="1">
<text text-anchor="middle" x="119.34" y="-132.86" font-family="Helvetica,sans-Serif" font-size="10.00">1</text>
</a>
</g>
</g>
<!-- dir_a268bc7b3a14a9993daf0eb877b6358e -->
<g id="node6" class="node">
<title>dir_a268bc7b3a14a9993daf0eb877b6358e</title>
<g id="a_node6"><a xlink:href="dir_a268bc7b3a14a9993daf0eb877b6358e.xhtml" target="_top" xlink:title="FreeRTOS">
<polygon fill="white" stroke="black" points="159.5,-268 96.5,-268 96.5,-232 159.5,-232 159.5,-268"/>
<text text-anchor="middle" x="128" y="-247.5" font-family="Helvetica,sans-Serif" font-size="10.00">FreeRTOS</text>
</a>
</g>
</g>
<!-- dir_a268bc7b3a14a9993daf0eb877b6358e&#45;&gt;dir_49a5f6ab04696b445f2adbc130c9ef44 -->
<g id="edge1" class="edge">
<title>dir_a268bc7b3a14a9993daf0eb877b6358e&#45;&gt;dir_49a5f6ab04696b445f2adbc130c9ef44</title>
<path fill="none" stroke="black" d="M128.74,-231.7C129.07,-223.98 129.47,-214.71 129.84,-206.11"/>
<polygon fill="black" stroke="black" points="133.34,-206.25 130.27,-196.1 126.34,-205.95 133.34,-206.25"/>
<g id="a_edge1&#45;headlabel"><a xlink:href="dir_000011_000007.xhtml" target="_top" xlink:title="1">
<text text-anchor="middle" x="136.02" y="-207.46" font-family="Helvetica,sans-Serif" font-size="10.00">1</text>
</a>
</g>
</g>
<!-- dir_8806b862e08e9224669fd98ac43f6aa4 -->
<g id="node7" class="node">
<title>dir_8806b862e08e9224669fd98ac43f6aa4</title>
<g id="a_node7"><a xlink:href="dir_8806b862e08e9224669fd98ac43f6aa4.xhtml" target="_top" xlink:title="LVGL">
<polygon fill="white" stroke="black" points="232,-268 178,-268 178,-232 232,-232 232,-268"/>
<text text-anchor="middle" x="205" y="-247.5" font-family="Helvetica,sans-Serif" font-size="10.00">LVGL</text>
</a>
</g>
</g>
<!-- dir_8806b862e08e9224669fd98ac43f6aa4&#45;&gt;dir_49a5f6ab04696b445f2adbc130c9ef44 -->
<g id="edge2" class="edge">
<title>dir_8806b862e08e9224669fd98ac43f6aa4&#45;&gt;dir_49a5f6ab04696b445f2adbc130c9ef44</title>
<path fill="none" stroke="black" d="M186.71,-231.7C177.57,-223.05 166.36,-212.45 156.4,-203.03"/>
<polygon fill="black" stroke="black" points="158.75,-200.43 149.08,-196.1 153.94,-205.52 158.75,-200.43"/>
<g id="a_edge2&#45;headlabel"><a xlink:href="dir_000012_000007.xhtml" target="_top" xlink:title="1">
<text text-anchor="middle" x="163.31" y="-198.34" font-family="Helvetica,sans-Serif" font-size="10.00">1</text>
</a>
</g>
</g>
<!-- dir_8806b862e08e9224669fd98ac43f6aa4&#45;&gt;dir_cc4eb8107cf563e196ee7789b7c073d2 -->
<g id="edge3" class="edge">
<title>dir_8806b862e08e9224669fd98ac43f6aa4&#45;&gt;dir_cc4eb8107cf563e196ee7789b7c073d2</title>
<path fill="none" stroke="black" d="M203.19,-231.87C200.63,-207.67 195.94,-163.21 192.89,-134.39"/>
<polygon fill="black" stroke="black" points="196.35,-133.77 191.82,-124.19 189.39,-134.5 196.35,-133.77"/>
<g id="a_edge3&#45;headlabel"><a xlink:href="dir_000012_000006.xhtml" target="_top" xlink:title="4">
<text text-anchor="middle" x="199.55" y="-134.54" font-family="Helvetica,sans-Serif" font-size="10.00">4</text>
</a>
</g>
</g>
<!-- dir_bf17d512c758a4805b63156929ae8d1e -->
<g id="node8" class="node">
<title>dir_bf17d512c758a4805b63156929ae8d1e</title>
<g id="a_node8"><a xlink:href="dir_bf17d512c758a4805b63156929ae8d1e.xhtml" target="_top" xlink:title="nlohmann">
<polygon fill="white" stroke="black" points="315.5,-268 250.5,-268 250.5,-232 315.5,-232 315.5,-268"/>
<text text-anchor="middle" x="283" y="-247.5" font-family="Helvetica,sans-Serif" font-size="10.00">nlohmann</text>
</a>
</g>
</g>
<!-- dir_bf17d512c758a4805b63156929ae8d1e&#45;&gt;dir_cc4eb8107cf563e196ee7789b7c073d2 -->
<g id="edge4" class="edge">
<title>dir_bf17d512c758a4805b63156929ae8d1e&#45;&gt;dir_cc4eb8107cf563e196ee7789b7c073d2</title>
<path fill="none" stroke="black" d="M271.78,-231.87C255.65,-207.24 225.78,-161.64 206.95,-132.88"/>
<polygon fill="black" stroke="black" points="209.66,-130.64 201.26,-124.19 203.81,-134.47 209.66,-130.64"/>
<g id="a_edge4&#45;headlabel"><a xlink:href="dir_000013_000006.xhtml" target="_top" xlink:title="2">
<text text-anchor="middle" x="214.01" y="-129.59" font-family="Helvetica,sans-Serif" font-size="10.00">2</text>
</a>
</g>
</g>
<!-- dir_bf17d512c758a4805b63156929ae8d1e&#45;&gt;dir_e70fd5d37674c687c1056755f18dec05 -->
<g id="edge5" class="edge">
<title>dir_bf17d512c758a4805b63156929ae8d1e&#45;&gt;dir_e70fd5d37674c687c1056755f18dec05</title>
<path fill="none" stroke="black" d="M284.89,-231.96C287.58,-201.91 290.44,-137.97 273,-88 269.6,-78.25 263.86,-68.66 257.9,-60.38"/>
<polygon fill="black" stroke="black" points="260.56,-58.09 251.71,-52.26 255,-62.33 260.56,-58.09"/>
<g id="a_edge5&#45;headlabel"><a xlink:href="dir_000013_000008.xhtml" target="_top" xlink:title="4">
<text text-anchor="middle" x="265" y="-56.72" font-family="Helvetica,sans-Serif" font-size="10.00">4</text>
</a>
</g>
</g>
</g>
</svg>
