<?xml version="1.0" encoding="UTF-8" standalone="no"?>
<!DOCTYPE svg PUBLIC "-//W3C//DTD SVG 1.1//EN"
 "http://www.w3.org/Graphics/SVG/1.1/DTD/svg11.dtd">
<!-- Generated by graphviz version 2.43.0 (0)
 -->
<!-- Title: Task&#45;Tracker&#45;Device/lib/board_adapters/status_indicators Pages: 1 -->
<svg width="156pt" height="151pt"
 viewBox="0.00 0.00 156.00 151.00" xmlns="http://www.w3.org/2000/svg" xmlns:xlink="http://www.w3.org/1999/xlink">
<g id="graph0" class="graph" transform="scale(1 1) rotate(0) translate(4 147)">
<title>Task&#45;Tracker&#45;Device/lib/board_adapters/status_indicators</title>
<polygon fill="white" stroke="transparent" points="-4,4 -4,-147 152,-147 152,4 -4,4"/>
<g id="clust1" class="cluster">
<title>clusterdir_49a5f6ab04696b445f2adbc130c9ef44</title>
<g id="a_clust1"><a xlink:href="dir_49a5f6ab04696b445f2adbc130c9ef44.xhtml" target="_top" xlink:title="board_adapters">
<polygon fill="#ddddee" stroke="black" points="16,-64 16,-135 132,-135 132,-64 16,-64"/>
<text text-anchor="middle" x="74" y="-123" font-family="Helvetica,sans-Serif" font-size="10.00">board_adapters</text>
</a>
</g>
</g>
<!-- dir_979be6e6248a7f790cc0bd4fb58a98d4 -->
<g id="node1" class="node">
<title>dir_979be6e6248a7f790cc0bd4fb58a98d4</title>
<g id="a_node1"><a xlink:href="dir_979be6e6248a7f790cc0bd4fb58a98d4.xhtml" target="_top" xlink:title="status_indicators">
<polygon fill="#eeeeff" stroke="black" points="124,-108 24,-108 24,-72 124,-72 124,-108"/>
<text text-anchor="middle" x="74" y="-87.5" font-family="Helvetica,sans-Serif" font-size="10.00">status_indicators</text>
</a>
</g>
</g>
<!-- dir_cc4eb8107cf563e196ee7789b7c073d2 -->
<g id="node2" class="node">
<title>dir_cc4eb8107cf563e196ee7789b7c073d2</title>
<g id="a_node2"><a xlink:href="dir_cc4eb8107cf563e196ee7789b7c073d2.xhtml" target="_top" xlink:title="application_business_rules">
<polygon fill="white" stroke="red" points="148,-36 0,-36 0,0 148,0 148,-36"/>
<text text-anchor="middle" x="74" y="-15.5" font-family="Helvetica,sans-Serif" font-size="10.00">application_business_rules</text>
</a>
</g>
</g>
<!-- dir_979be6e6248a7f790cc0bd4fb58a98d4&#45;&gt;dir_cc4eb8107cf563e196ee7789b7c073d2 -->
<g id="edge1" class="edge">
<title>dir_979be6e6248a7f790cc0bd4fb58a98d4&#45;&gt;dir_cc4eb8107cf563e196ee7789b7c073d2</title>
<path fill="none" stroke="black" d="M74,-71.7C74,-63.98 74,-54.71 74,-46.11"/>
<polygon fill="black" stroke="black" points="77.5,-46.1 74,-36.1 70.5,-46.1 77.5,-46.1"/>
<g id="a_edge1&#45;headlabel"><a xlink:href="dir_000019_000006.xhtml" target="_top" xlink:title="2">
<text text-anchor="middle" x="80.34" y="-47.2" font-family="Helvetica,sans-Serif" font-size="10.00">2</text>
</a>
</g>
</g>
</g>
</svg>
