<?xml version="1.0" encoding="UTF-8" standalone="no"?>
<!DOCTYPE svg PUBLIC "-//W3C//DTD SVG 1.1//EN"
 "http://www.w3.org/Graphics/SVG/1.1/DTD/svg11.dtd">
<!-- Generated by graphviz version 2.43.0 (0)
 -->
<!-- Title: lib/application_business_rules Pages: 1 -->
<svg width="318pt" height="247pt"
 viewBox="0.00 0.00 318.00 247.00" xmlns="http://www.w3.org/2000/svg" xmlns:xlink="http://www.w3.org/1999/xlink">
<g id="graph0" class="graph" transform="scale(1 1) rotate(0) translate(4 243)">
<title>lib/application_business_rules</title>
<polygon fill="white" stroke="transparent" points="-4,4 -4,-243 314,-243 314,4 -4,4"/>
<g id="clust1" class="cluster">
<title>clusterdir_97aefd0d527b934f1d99a682da8fe6a9</title>
<g id="a_clust1"><a xlink:href="dir_97aefd0d527b934f1d99a682da8fe6a9.xhtml" target="_top" xlink:title="lib">
<polygon fill="#ddddee" stroke="black" points="8,-8 8,-231 302,-231 302,-8 8,-8"/>
<text text-anchor="middle" x="155" y="-219" font-family="Helvetica,sans-Serif" font-size="10.00">lib</text>
</a>
</g>
</g>
<g id="clust2" class="cluster">
<title>clusterdir_6dbb42d2342d9d7292a192bc1d024acc</title>
<g id="a_clust2"><a xlink:href="dir_6dbb42d2342d9d7292a192bc1d024acc.xhtml" target="_top">
<polygon fill="#eeeeff" stroke="black" points="16,-80 16,-204 294,-204 294,-80 16,-80"/>
</a>
</g>
</g>
<!-- dir_3a2f33b0f26bc6229d595c2c354e6333 -->
<g id="node1" class="node">
<title>dir_3a2f33b0f26bc6229d595c2c354e6333</title>
<g id="a_node1"><a xlink:href="dir_3a2f33b0f26bc6229d595c2c354e6333.xhtml" target="_top" xlink:title="utilities">
<polygon fill="none" stroke="black" points="233,-52 179,-52 179,-16 233,-16 233,-52"/>
<text text-anchor="middle" x="206" y="-31.5" font-family="Helvetica,sans-Serif" font-size="10.00">utilities</text>
</a>
</g>
</g>
<!-- dir_71046b38222792489c3876836d4fbdbc -->
<g id="node2" class="node">
<title>dir_71046b38222792489c3876836d4fbdbc</title>
<g id="a_node2"><a xlink:href="dir_71046b38222792489c3876836d4fbdbc.xhtml" target="_top" xlink:title="enterprise_business_rules">
<polygon fill="white" stroke="red" points="159.5,-52 16.5,-52 16.5,-16 159.5,-16 159.5,-52"/>
<text text-anchor="middle" x="88" y="-31.5" font-family="Helvetica,sans-Serif" font-size="10.00">enterprise_business_rules</text>
</a>
</g>
</g>
<!-- dir_6dbb42d2342d9d7292a192bc1d024acc -->
<g id="node3" class="node">
<title>dir_6dbb42d2342d9d7292a192bc1d024acc</title>
<text text-anchor="middle" x="212" y="-175.5" font-family="Helvetica,sans-Serif" font-size="10.00">application_business_rules</text>
</g>
<!-- dir_17a6007a5c84c34f300c622be50c188b -->
<g id="node4" class="node">
<title>dir_17a6007a5c84c34f300c622be50c188b</title>
<g id="a_node4"><a xlink:href="dir_17a6007a5c84c34f300c622be50c188b.xhtml" target="_top" xlink:title="serial_interface">
<polygon fill="white" stroke="black" points="117,-124 25,-124 25,-88 117,-88 117,-124"/>
<text text-anchor="middle" x="71" y="-103.5" font-family="Helvetica,sans-Serif" font-size="10.00">serial_interface</text>
</a>
</g>
</g>
<!-- dir_17a6007a5c84c34f300c622be50c188b&#45;&gt;dir_3a2f33b0f26bc6229d595c2c354e6333 -->
<g id="edge1" class="edge">
<title>dir_17a6007a5c84c34f300c622be50c188b&#45;&gt;dir_3a2f33b0f26bc6229d595c2c354e6333</title>
<path fill="none" stroke="black" d="M104.02,-87.88C123.93,-77.56 149.29,-64.4 169.75,-53.8"/>
<polygon fill="black" stroke="black" points="171.5,-56.83 178.76,-49.12 168.27,-50.62 171.5,-56.83"/>
<g id="a_edge1&#45;headlabel"><a xlink:href="dir_000013_000008.xhtml" target="_top" xlink:title="1">
<text text-anchor="middle" x="169.61" y="-58.51" font-family="Helvetica,sans-Serif" font-size="10.00">1</text>
</a>
</g>
</g>
<!-- dir_17a6007a5c84c34f300c622be50c188b&#45;&gt;dir_71046b38222792489c3876836d4fbdbc -->
<g id="edge2" class="edge">
<title>dir_17a6007a5c84c34f300c622be50c188b&#45;&gt;dir_71046b38222792489c3876836d4fbdbc</title>
<path fill="none" stroke="black" d="M75.2,-87.7C77.1,-79.9 79.38,-70.51 81.48,-61.83"/>
<polygon fill="black" stroke="black" points="84.89,-62.65 83.85,-52.1 78.08,-61 84.89,-62.65"/>
<g id="a_edge2&#45;headlabel"><a xlink:href="dir_000013_000007.xhtml" target="_top" xlink:title="3">
<text text-anchor="middle" x="86.8" y="-64.31" font-family="Helvetica,sans-Serif" font-size="10.00">3</text>
</a>
</g>
</g>
<!-- dir_dab382b21b73aae3d74d7668eeeacf78 -->
<g id="node5" class="node">
<title>dir_dab382b21b73aae3d74d7668eeeacf78</title>
<g id="a_node5"><a xlink:href="dir_dab382b21b73aae3d74d7668eeeacf78.xhtml" target="_top" xlink:title="tasks">
<polygon fill="white" stroke="black" points="189,-124 135,-124 135,-88 189,-88 189,-124"/>
<text text-anchor="middle" x="162" y="-103.5" font-family="Helvetica,sans-Serif" font-size="10.00">tasks</text>
</a>
</g>
</g>
<!-- dir_6c970bd3e9ed525c032ca1b33f237f5b -->
<g id="node6" class="node">
<title>dir_6c970bd3e9ed525c032ca1b33f237f5b</title>
<g id="a_node6"><a xlink:href="dir_6c970bd3e9ed525c032ca1b33f237f5b.xhtml" target="_top" xlink:title="user_interaction">
<polygon fill="white" stroke="black" points="119.5,-196 24.5,-196 24.5,-160 119.5,-160 119.5,-196"/>
<text text-anchor="middle" x="72" y="-175.5" font-family="Helvetica,sans-Serif" font-size="10.00">user_interaction</text>
</a>
</g>
</g>
<!-- dir_6c970bd3e9ed525c032ca1b33f237f5b&#45;&gt;dir_3a2f33b0f26bc6229d595c2c354e6333 -->
<g id="edge4" class="edge">
<title>dir_6c970bd3e9ed525c032ca1b33f237f5b&#45;&gt;dir_3a2f33b0f26bc6229d595c2c354e6333</title>
<path fill="none" stroke="black" d="M119.79,-162.59C151.17,-152.11 188.16,-137.46 198,-124 210.84,-106.43 212.01,-81.4 210.45,-62.36"/>
<polygon fill="black" stroke="black" points="213.9,-61.76 209.31,-52.21 206.94,-62.53 213.9,-61.76"/>
<g id="a_edge4&#45;headlabel"><a xlink:href="dir_000015_000008.xhtml" target="_top" xlink:title="2">
<text text-anchor="middle" x="217.12" y="-62.52" font-family="Helvetica,sans-Serif" font-size="10.00">2</text>
</a>
</g>
</g>
<!-- dir_6c970bd3e9ed525c032ca1b33f237f5b&#45;&gt;dir_17a6007a5c84c34f300c622be50c188b -->
<g id="edge3" class="edge">
<title>dir_6c970bd3e9ed525c032ca1b33f237f5b&#45;&gt;dir_17a6007a5c84c34f300c622be50c188b</title>
<path fill="none" stroke="black" d="M71.75,-159.7C71.64,-151.98 71.51,-142.71 71.39,-134.11"/>
<polygon fill="black" stroke="black" points="74.89,-134.05 71.24,-124.1 67.89,-134.15 74.89,-134.05"/>
<g id="a_edge3&#45;headlabel"><a xlink:href="dir_000015_000013.xhtml" target="_top" xlink:title="1">
<text text-anchor="middle" x="77.78" y="-135.11" font-family="Helvetica,sans-Serif" font-size="10.00">1</text>
</a>
</g>
</g>
<!-- dir_6c970bd3e9ed525c032ca1b33f237f5b&#45;&gt;dir_dab382b21b73aae3d74d7668eeeacf78 -->
<g id="edge5" class="edge">
<title>dir_6c970bd3e9ed525c032ca1b33f237f5b&#45;&gt;dir_dab382b21b73aae3d74d7668eeeacf78</title>
<path fill="none" stroke="black" d="M94.25,-159.7C105.58,-150.88 119.53,-140.03 131.82,-130.47"/>
<polygon fill="black" stroke="black" points="134.26,-133.01 140.01,-124.1 129.97,-127.48 134.26,-133.01"/>
<g id="a_edge5&#45;headlabel"><a xlink:href="dir_000015_000014.xhtml" target="_top" xlink:title="1">
<text text-anchor="middle" x="133.17" y="-134.95" font-family="Helvetica,sans-Serif" font-size="10.00">1</text>
</a>
</g>
</g>
</g>
</svg>
