<?xml version="1.0" encoding="UTF-8" standalone="no"?>
<!DOCTYPE svg PUBLIC "-//W3C//DTD SVG 1.1//EN"
 "http://www.w3.org/Graphics/SVG/1.1/DTD/svg11.dtd">
<!-- Generated by graphviz version 2.43.0 (0)
 -->
<!-- Title: Task&#45;Tracker&#45;Device/src Pages: 1 -->
<svg width="137pt" height="167pt"
 viewBox="0.00 0.00 137.00 167.00" xmlns="http://www.w3.org/2000/svg" xmlns:xlink="http://www.w3.org/1999/xlink">
<g id="graph0" class="graph" transform="scale(1 1) rotate(0) translate(4 163)">
<title>Task&#45;Tracker&#45;Device/src</title>
<polygon fill="white" stroke="transparent" points="-4,4 -4,-163 133,-163 133,4 -4,4"/>
<g id="clust1" class="cluster">
<title>clusterdir_7a0d9093671d12905beda7b1ed8f0dec</title>
<g id="a_clust1"><a xlink:href="dir_7a0d9093671d12905beda7b1ed8f0dec.xhtml" target="_top" xlink:title="Task&#45;Tracker&#45;Device">
<polygon fill="#ddddee" stroke="black" points="8,-8 8,-151 121,-151 121,-8 8,-8"/>
<text text-anchor="middle" x="64.5" y="-139" font-family="Helvetica,sans-Serif" font-size="10.00">Task&#45;Tracker&#45;Device</text>
</a>
</g>
</g>
<!-- dir_bb6849ea4d307d3e6f07c34bd3d0693d -->
<g id="node1" class="node">
<title>dir_bb6849ea4d307d3e6f07c34bd3d0693d</title>
<g id="a_node1"><a xlink:href="dir_bb6849ea4d307d3e6f07c34bd3d0693d.xhtml" target="_top" xlink:title="lib">
<polygon fill="white" stroke="red" points="91,-52 37,-52 37,-16 91,-16 91,-52"/>
<text text-anchor="middle" x="64" y="-31.5" font-family="Helvetica,sans-Serif" font-size="10.00">lib</text>
</a>
</g>
</g>
<!-- dir_e5b7aa30f8e85baf26cc944fcbe876bc -->
<g id="node2" class="node">
<title>dir_e5b7aa30f8e85baf26cc944fcbe876bc</title>
<g id="a_node2"><a xlink:href="dir_e5b7aa30f8e85baf26cc944fcbe876bc.xhtml" target="_top" xlink:title="src">
<polygon fill="#eeeeff" stroke="black" points="91,-124 37,-124 37,-88 91,-88 91,-124"/>
<text text-anchor="middle" x="64" y="-103.5" font-family="Helvetica,sans-Serif" font-size="10.00">src</text>
</a>
</g>
</g>
<!-- dir_e5b7aa30f8e85baf26cc944fcbe876bc&#45;&gt;dir_bb6849ea4d307d3e6f07c34bd3d0693d -->
<g id="edge1" class="edge">
<title>dir_e5b7aa30f8e85baf26cc944fcbe876bc&#45;&gt;dir_bb6849ea4d307d3e6f07c34bd3d0693d</title>
<path fill="none" stroke="black" d="M64,-87.7C64,-79.98 64,-70.71 64,-62.11"/>
<polygon fill="black" stroke="black" points="67.5,-62.1 64,-52.1 60.5,-62.1 67.5,-62.1"/>
<g id="a_edge1&#45;headlabel"><a xlink:href="dir_000021_000004.xhtml" target="_top" xlink:title="9">
<text text-anchor="middle" x="70.34" y="-63.2" font-family="Helvetica,sans-Serif" font-size="10.00">9</text>
</a>
</g>
</g>
</g>
</svg>
