<?xml version="1.0" encoding="UTF-8" standalone="no"?>
<!DOCTYPE svg PUBLIC "-//W3C//DTD SVG 1.1//EN"
 "http://www.w3.org/Graphics/SVG/1.1/DTD/svg11.dtd">
<!-- Generated by graphviz version 2.43.0 (0)
 -->
<!-- Title: Task&#45;Tracker&#45;Device/test Pages: 1 -->
<svg width="468pt" height="175pt"
 viewBox="0.00 0.00 468.00 175.00" xmlns="http://www.w3.org/2000/svg" xmlns:xlink="http://www.w3.org/1999/xlink">
<g id="graph0" class="graph" transform="scale(1 1) rotate(0) translate(4 171)">
<title>Task&#45;Tracker&#45;Device/test</title>
<polygon fill="white" stroke="transparent" points="-4,4 -4,-171 464,-171 464,4 -4,4"/>
<g id="clust1" class="cluster">
<title>clusterdir_7a0d9093671d12905beda7b1ed8f0dec</title>
<g id="a_clust1"><a xlink:href="dir_7a0d9093671d12905beda7b1ed8f0dec.xhtml" target="_top" xlink:title="Task&#45;Tracker&#45;Device">
<polygon fill="#ddddee" stroke="black" points="8,-8 8,-159 452,-159 452,-8 8,-8"/>
<text text-anchor="middle" x="230" y="-147" font-family="Helvetica,sans-Serif" font-size="10.00">Task&#45;Tracker&#45;Device</text>
</a>
</g>
</g>
<g id="clust2" class="cluster">
<title>clusterdir_75b09ee04e6f334759174746683ad215</title>
<g id="a_clust2"><a xlink:href="dir_75b09ee04e6f334759174746683ad215.xhtml" target="_top">
<polygon fill="#eeeeff" stroke="black" points="16,-80 16,-132 444,-132 444,-80 16,-80"/>
</a>
</g>
</g>
<!-- dir_bb6849ea4d307d3e6f07c34bd3d0693d -->
<g id="node1" class="node">
<title>dir_bb6849ea4d307d3e6f07c34bd3d0693d</title>
<g id="a_node1"><a xlink:href="dir_bb6849ea4d307d3e6f07c34bd3d0693d.xhtml" target="_top" xlink:title="lib">
<polygon fill="white" stroke="red" points="242,-52 188,-52 188,-16 242,-16 242,-52"/>
<text text-anchor="middle" x="215" y="-31.5" font-family="Helvetica,sans-Serif" font-size="10.00">lib</text>
</a>
</g>
</g>
<!-- dir_75b09ee04e6f334759174746683ad215 -->
<g id="node2" class="node">
<title>dir_75b09ee04e6f334759174746683ad215</title>
<text text-anchor="middle" x="409" y="-103.5" font-family="Helvetica,sans-Serif" font-size="10.00">test</text>
</g>
<!-- dir_4529f6765ae1cac1537a050fab398911 -->
<g id="node3" class="node">
<title>dir_4529f6765ae1cac1537a050fab398911</title>
<g id="a_node3"><a xlink:href="dir_4529f6765ae1cac1537a050fab398911.xhtml" target="_top" xlink:title="hmi">
<polygon fill="white" stroke="red" points="364,-124 310,-124 310,-88 364,-88 364,-124"/>
<text text-anchor="middle" x="337" y="-103.5" font-family="Helvetica,sans-Serif" font-size="10.00">hmi</text>
</a>
</g>
</g>
<!-- dir_4529f6765ae1cac1537a050fab398911&#45;&gt;dir_bb6849ea4d307d3e6f07c34bd3d0693d -->
<g id="edge2" class="edge">
<title>dir_4529f6765ae1cac1537a050fab398911&#45;&gt;dir_bb6849ea4d307d3e6f07c34bd3d0693d</title>
<path fill="none" stroke="black" d="M313.26,-87.9C309.23,-85.17 305.04,-82.44 301,-80 285.12,-70.39 266.99,-60.71 251.48,-52.82"/>
<polygon fill="black" stroke="black" points="252.71,-49.52 242.21,-48.14 249.56,-55.77 252.71,-49.52"/>
<g id="a_edge2&#45;headlabel"><a xlink:href="dir_000023_000004.xhtml" target="_top" xlink:title="16">
<text text-anchor="middle" x="257.2" y="-46.1" font-family="Helvetica,sans-Serif" font-size="10.00">16</text>
</a>
</g>
</g>
<!-- dir_819cd84af3524d09e659598f15263a22 -->
<g id="node4" class="node">
<title>dir_819cd84af3524d09e659598f15263a22</title>
<g id="a_node4"><a xlink:href="dir_819cd84af3524d09e659598f15263a22.xhtml" target="_top" xlink:title="test_cli">
<polygon fill="white" stroke="black" points="292,-124 238,-124 238,-88 292,-88 292,-124"/>
<text text-anchor="middle" x="265" y="-103.5" font-family="Helvetica,sans-Serif" font-size="10.00">test_cli</text>
</a>
</g>
</g>
<!-- dir_819cd84af3524d09e659598f15263a22&#45;&gt;dir_bb6849ea4d307d3e6f07c34bd3d0693d -->
<g id="edge4" class="edge">
<title>dir_819cd84af3524d09e659598f15263a22&#45;&gt;dir_bb6849ea4d307d3e6f07c34bd3d0693d</title>
<path fill="none" stroke="black" d="M252.64,-87.7C246.77,-79.47 239.63,-69.48 233.16,-60.42"/>
<polygon fill="black" stroke="black" points="235.88,-58.21 227.22,-52.1 230.18,-62.28 235.88,-58.21"/>
<g id="a_edge4&#45;headlabel"><a xlink:href="dir_000026_000004.xhtml" target="_top" xlink:title="1">
<text text-anchor="middle" x="240.28" y="-56.98" font-family="Helvetica,sans-Serif" font-size="10.00">1</text>
</a>
</g>
</g>
<!-- dir_58405109ae94bf39283a73532e1c620b -->
<g id="node5" class="node">
<title>dir_58405109ae94bf39283a73532e1c620b</title>
<g id="a_node5"><a xlink:href="dir_58405109ae94bf39283a73532e1c620b.xhtml" target="_top" xlink:title="test_string_helpers">
<polygon fill="white" stroke="black" points="220,-124 110,-124 110,-88 220,-88 220,-124"/>
<text text-anchor="middle" x="165" y="-103.5" font-family="Helvetica,sans-Serif" font-size="10.00">test_string_helpers</text>
</a>
</g>
</g>
<!-- dir_58405109ae94bf39283a73532e1c620b&#45;&gt;dir_bb6849ea4d307d3e6f07c34bd3d0693d -->
<g id="edge3" class="edge">
<title>dir_58405109ae94bf39283a73532e1c620b&#45;&gt;dir_bb6849ea4d307d3e6f07c34bd3d0693d</title>
<path fill="none" stroke="black" d="M177.36,-87.7C183.23,-79.47 190.37,-69.48 196.84,-60.42"/>
<polygon fill="black" stroke="black" points="199.82,-62.28 202.78,-52.1 194.12,-58.21 199.82,-62.28"/>
<g id="a_edge3&#45;headlabel"><a xlink:href="dir_000027_000004.xhtml" target="_top" xlink:title="1">
<text text-anchor="middle" x="200.04" y="-64.35" font-family="Helvetica,sans-Serif" font-size="10.00">1</text>
</a>
</g>
</g>
<!-- dir_89fe783c9bd82ad9c25cd8b221206f12 -->
<g id="node6" class="node">
<title>dir_89fe783c9bd82ad9c25cd8b221206f12</title>
<g id="a_node6"><a xlink:href="dir_89fe783c9bd82ad9c25cd8b221206f12.xhtml" target="_top" xlink:title="test_tasks">
<polygon fill="white" stroke="black" points="91.5,-124 24.5,-124 24.5,-88 91.5,-88 91.5,-124"/>
<text text-anchor="middle" x="58" y="-103.5" font-family="Helvetica,sans-Serif" font-size="10.00">test_tasks</text>
</a>
</g>
</g>
<!-- dir_89fe783c9bd82ad9c25cd8b221206f12&#45;&gt;dir_bb6849ea4d307d3e6f07c34bd3d0693d -->
<g id="edge1" class="edge">
<title>dir_89fe783c9bd82ad9c25cd8b221206f12&#45;&gt;dir_bb6849ea4d307d3e6f07c34bd3d0693d</title>
<path fill="none" stroke="black" d="M85.89,-87.97C90.85,-85.18 96.03,-82.41 101,-80 126.19,-67.79 155.59,-56.25 178.22,-47.91"/>
<polygon fill="black" stroke="black" points="179.59,-51.14 187.79,-44.43 177.2,-44.56 179.59,-51.14"/>
<g id="a_edge1&#45;headlabel"><a xlink:href="dir_000028_000004.xhtml" target="_top" xlink:title="1">
<text text-anchor="middle" x="177.18" y="-52.54" font-family="Helvetica,sans-Serif" font-size="10.00">1</text>
</a>
</g>
</g>
</g>
</svg>
