<?xml version="1.0" encoding="UTF-8" standalone="no"?>
<!DOCTYPE svg PUBLIC "-//W3C//DTD SVG 1.1//EN"
 "http://www.w3.org/Graphics/SVG/1.1/DTD/svg11.dtd">
<!-- Generated by graphviz version 2.43.0 (0)
 -->
<!-- Title: lib/3rd_party_adapters/LVGL Pages: 1 -->
<svg width="165pt" height="223pt"
 viewBox="0.00 0.00 165.00 223.00" xmlns="http://www.w3.org/2000/svg" xmlns:xlink="http://www.w3.org/1999/xlink">
<g id="graph0" class="graph" transform="scale(1 1) rotate(0) translate(4 219)">
<title>lib/3rd_party_adapters/LVGL</title>
<polygon fill="white" stroke="transparent" points="-4,4 -4,-219 161,-219 161,4 -4,4"/>
<g id="clust1" class="cluster">
<title>clusterdir_e75212beacfa7863df067e044f07f232</title>
<g id="a_clust1"><a xlink:href="dir_e75212beacfa7863df067e044f07f232.xhtml" target="_top" xlink:title="3rd_party_adapters">
<polygon fill="#ddddee" stroke="black" points="19,-136 19,-207 130,-207 130,-136 19,-136"/>
<text text-anchor="middle" x="74.5" y="-195" font-family="Helvetica,sans-Serif" font-size="10.00">3rd_party_adapters</text>
</a>
</g>
</g>
<!-- dir_673789fe363c8cf83b6beac9ec7c58fa -->
<g id="node1" class="node">
<title>dir_673789fe363c8cf83b6beac9ec7c58fa</title>
<g id="a_node1"><a xlink:href="dir_673789fe363c8cf83b6beac9ec7c58fa.xhtml" target="_top" xlink:title="LVGL">
<polygon fill="#eeeeff" stroke="black" points="101,-180 47,-180 47,-144 101,-144 101,-180"/>
<text text-anchor="middle" x="74" y="-159.5" font-family="Helvetica,sans-Serif" font-size="10.00">LVGL</text>
</a>
</g>
</g>
<!-- dir_6dbb42d2342d9d7292a192bc1d024acc -->
<g id="node2" class="node">
<title>dir_6dbb42d2342d9d7292a192bc1d024acc</title>
<g id="a_node2"><a xlink:href="dir_6dbb42d2342d9d7292a192bc1d024acc.xhtml" target="_top" xlink:title="application_business_rules">
<polygon fill="white" stroke="red" points="148,-36 0,-36 0,0 148,0 148,-36"/>
<text text-anchor="middle" x="74" y="-15.5" font-family="Helvetica,sans-Serif" font-size="10.00">application_business_rules</text>
</a>
</g>
</g>
<!-- dir_673789fe363c8cf83b6beac9ec7c58fa&#45;&gt;dir_6dbb42d2342d9d7292a192bc1d024acc -->
<g id="edge2" class="edge">
<title>dir_673789fe363c8cf83b6beac9ec7c58fa&#45;&gt;dir_6dbb42d2342d9d7292a192bc1d024acc</title>
<path fill="none" stroke="black" d="M66.52,-143.7C62.53,-133.52 58.03,-120.27 56,-108 53.39,-92.21 53.39,-87.79 56,-72 57.44,-63.28 60.13,-54.06 63,-45.8"/>
<polygon fill="black" stroke="black" points="66.33,-46.89 66.52,-36.3 59.77,-44.46 66.33,-46.89"/>
<g id="a_edge2&#45;headlabel"><a xlink:href="dir_000011_000005.xhtml" target="_top" xlink:title="2">
<text text-anchor="middle" x="67.74" y="-48.75" font-family="Helvetica,sans-Serif" font-size="10.00">2</text>
</a>
</g>
</g>
<!-- dir_b49365647f74dff1c8dd1e88d29293e4 -->
<g id="node3" class="node">
<title>dir_b49365647f74dff1c8dd1e88d29293e4</title>
<g id="a_node3"><a xlink:href="dir_b49365647f74dff1c8dd1e88d29293e4.xhtml" target="_top" xlink:title="board_adapters">
<polygon fill="white" stroke="red" points="157,-108 65,-108 65,-72 157,-72 157,-108"/>
<text text-anchor="middle" x="111" y="-87.5" font-family="Helvetica,sans-Serif" font-size="10.00">board_adapters</text>
</a>
</g>
</g>
<!-- dir_673789fe363c8cf83b6beac9ec7c58fa&#45;&gt;dir_b49365647f74dff1c8dd1e88d29293e4 -->
<g id="edge3" class="edge">
<title>dir_673789fe363c8cf83b6beac9ec7c58fa&#45;&gt;dir_b49365647f74dff1c8dd1e88d29293e4</title>
<path fill="none" stroke="black" d="M83.15,-143.7C87.4,-135.64 92.56,-125.89 97.27,-116.98"/>
<polygon fill="black" stroke="black" points="100.38,-118.58 101.96,-108.1 94.19,-115.31 100.38,-118.58"/>
<g id="a_edge3&#45;headlabel"><a xlink:href="dir_000011_000006.xhtml" target="_top" xlink:title="1">
<text text-anchor="middle" x="101.21" y="-120.59" font-family="Helvetica,sans-Serif" font-size="10.00">1</text>
</a>
</g>
</g>
<!-- dir_b49365647f74dff1c8dd1e88d29293e4&#45;&gt;dir_6dbb42d2342d9d7292a192bc1d024acc -->
<g id="edge1" class="edge">
<title>dir_b49365647f74dff1c8dd1e88d29293e4&#45;&gt;dir_6dbb42d2342d9d7292a192bc1d024acc</title>
<path fill="none" stroke="black" d="M101.85,-71.7C97.6,-63.64 92.44,-53.89 87.73,-44.98"/>
<polygon fill="black" stroke="black" points="90.81,-43.31 83.04,-36.1 84.62,-46.58 90.81,-43.31"/>
<g id="a_edge1&#45;headlabel"><a xlink:href="dir_000006_000005.xhtml" target="_top" xlink:title="6">
<text text-anchor="middle" x="95" y="-42.66" font-family="Helvetica,sans-Serif" font-size="10.00">6</text>
</a>
</g>
</g>
</g>
</svg>
