<?xml version="1.0" encoding="UTF-8" standalone="no"?>
<!DOCTYPE svg PUBLIC "-//W3C//DTD SVG 1.1//EN"
 "http://www.w3.org/Graphics/SVG/1.1/DTD/svg11.dtd">
<!-- Generated by graphviz version 2.43.0 (0)
 -->
<!-- Title: Task&#45;Tracker&#45;Device/lib/3rd_party_adapters/nlohmann Pages: 1 -->
<svg width="205pt" height="223pt"
 viewBox="0.00 0.00 204.50 223.00" xmlns="http://www.w3.org/2000/svg" xmlns:xlink="http://www.w3.org/1999/xlink">
<g id="graph0" class="graph" transform="scale(1 1) rotate(0) translate(4 219)">
<title>Task&#45;Tracker&#45;Device/lib/3rd_party_adapters/nlohmann</title>
<polygon fill="white" stroke="transparent" points="-4,4 -4,-219 200.5,-219 200.5,4 -4,4"/>
<g id="clust1" class="cluster">
<title>clusterdir_60c2c4d274c08a1458706f202c2ac02e</title>
<g id="a_clust1"><a xlink:href="dir_60c2c4d274c08a1458706f202c2ac02e.xhtml" target="_top" xlink:title="3rd_party_adapters">
<polygon fill="#ddddee" stroke="black" points="70,-136 70,-207 181,-207 181,-136 70,-136"/>
<text text-anchor="middle" x="125.5" y="-195" font-family="Helvetica,sans-Serif" font-size="10.00">3rd_party_adapters</text>
</a>
</g>
</g>
<!-- dir_bf17d512c758a4805b63156929ae8d1e -->
<g id="node1" class="node">
<title>dir_bf17d512c758a4805b63156929ae8d1e</title>
<g id="a_node1"><a xlink:href="dir_bf17d512c758a4805b63156929ae8d1e.xhtml" target="_top" xlink:title="nlohmann">
<polygon fill="#eeeeff" stroke="black" points="157.5,-180 92.5,-180 92.5,-144 157.5,-144 157.5,-180"/>
<text text-anchor="middle" x="125" y="-159.5" font-family="Helvetica,sans-Serif" font-size="10.00">nlohmann</text>
</a>
</g>
</g>
<!-- dir_cc4eb8107cf563e196ee7789b7c073d2 -->
<g id="node2" class="node">
<title>dir_cc4eb8107cf563e196ee7789b7c073d2</title>
<g id="a_node2"><a xlink:href="dir_cc4eb8107cf563e196ee7789b7c073d2.xhtml" target="_top" xlink:title="application_business_rules">
<polygon fill="white" stroke="red" points="148,-108 0,-108 0,-72 148,-72 148,-108"/>
<text text-anchor="middle" x="74" y="-87.5" font-family="Helvetica,sans-Serif" font-size="10.00">application_business_rules</text>
</a>
</g>
</g>
<!-- dir_bf17d512c758a4805b63156929ae8d1e&#45;&gt;dir_cc4eb8107cf563e196ee7789b7c073d2 -->
<g id="edge1" class="edge">
<title>dir_bf17d512c758a4805b63156929ae8d1e&#45;&gt;dir_cc4eb8107cf563e196ee7789b7c073d2</title>
<path fill="none" stroke="black" d="M112.39,-143.7C106.4,-135.47 99.12,-125.48 92.52,-116.42"/>
<polygon fill="black" stroke="black" points="95.18,-114.13 86.46,-108.1 89.52,-118.25 95.18,-114.13"/>
<g id="a_edge1&#45;headlabel"><a xlink:href="dir_000013_000006.xhtml" target="_top" xlink:title="2">
<text text-anchor="middle" x="99.59" y="-112.86" font-family="Helvetica,sans-Serif" font-size="10.00">2</text>
</a>
</g>
</g>
<!-- dir_e70fd5d37674c687c1056755f18dec05 -->
<g id="node3" class="node">
<title>dir_e70fd5d37674c687c1056755f18dec05</title>
<g id="a_node3"><a xlink:href="dir_e70fd5d37674c687c1056755f18dec05.xhtml" target="_top" xlink:title="enterprise_business_rules">
<polygon fill="white" stroke="red" points="196.5,-36 53.5,-36 53.5,0 196.5,0 196.5,-36"/>
<text text-anchor="middle" x="125" y="-15.5" font-family="Helvetica,sans-Serif" font-size="10.00">enterprise_business_rules</text>
</a>
</g>
</g>
<!-- dir_bf17d512c758a4805b63156929ae8d1e&#45;&gt;dir_e70fd5d37674c687c1056755f18dec05 -->
<g id="edge2" class="edge">
<title>dir_bf17d512c758a4805b63156929ae8d1e&#45;&gt;dir_e70fd5d37674c687c1056755f18dec05</title>
<path fill="none" stroke="black" d="M138.56,-143.97C145.56,-134.09 153.37,-121.05 157,-108 161.29,-92.59 161.29,-87.41 157,-72 154.33,-62.42 149.41,-52.84 144.22,-44.51"/>
<polygon fill="black" stroke="black" points="147.02,-42.41 138.56,-36.03 141.2,-46.29 147.02,-42.41"/>
<g id="a_edge2&#45;headlabel"><a xlink:href="dir_000013_000008.xhtml" target="_top" xlink:title="4">
<text text-anchor="middle" x="151.38" y="-41.33" font-family="Helvetica,sans-Serif" font-size="10.00">4</text>
</a>
</g>
</g>
<!-- dir_cc4eb8107cf563e196ee7789b7c073d2&#45;&gt;dir_e70fd5d37674c687c1056755f18dec05 -->
<g id="edge3" class="edge">
<title>dir_cc4eb8107cf563e196ee7789b7c073d2&#45;&gt;dir_e70fd5d37674c687c1056755f18dec05</title>
<path fill="none" stroke="black" d="M86.61,-71.7C92.6,-63.47 99.88,-53.48 106.48,-44.42"/>
<polygon fill="black" stroke="black" points="109.48,-46.25 112.54,-36.1 103.82,-42.13 109.48,-46.25"/>
<g id="a_edge3&#45;headlabel"><a xlink:href="dir_000006_000008.xhtml" target="_top" xlink:title="4">
<text text-anchor="middle" x="109.66" y="-48.32" font-family="Helvetica,sans-Serif" font-size="10.00">4</text>
</a>
</g>
</g>
</g>
</svg>
