<?xml version="1.0" encoding="UTF-8" standalone="no"?>
<!DOCTYPE svg PUBLIC "-//W3C//DTD SVG 1.1//EN"
 "http://www.w3.org/Graphics/SVG/1.1/DTD/svg11.dtd">
<!-- Generated by graphviz version 2.43.0 (0)
 -->
<!-- Title: lib/application_business_rules/serial_interface Pages: 1 -->
<svg width="224pt" height="151pt"
 viewBox="0.00 0.00 223.50 151.00" xmlns="http://www.w3.org/2000/svg" xmlns:xlink="http://www.w3.org/1999/xlink">
<g id="graph0" class="graph" transform="scale(1 1) rotate(0) translate(4 147)">
<title>lib/application_business_rules/serial_interface</title>
<polygon fill="white" stroke="transparent" points="-4,4 -4,-147 219.5,-147 219.5,4 -4,4"/>
<g id="clust1" class="cluster">
<title>clusterdir_6dbb42d2342d9d7292a192bc1d024acc</title>
<g id="a_clust1"><a xlink:href="dir_6dbb42d2342d9d7292a192bc1d024acc.xhtml" target="_top" xlink:title="application_business_rules">
<polygon fill="#ddddee" stroke="black" points="11,-64 11,-135 159,-135 159,-64 11,-64"/>
<text text-anchor="middle" x="85" y="-123" font-family="Helvetica,sans-Serif" font-size="10.00">application_business_rules</text>
</a>
</g>
</g>
<!-- dir_17a6007a5c84c34f300c622be50c188b -->
<g id="node1" class="node">
<title>dir_17a6007a5c84c34f300c622be50c188b</title>
<g id="a_node1"><a xlink:href="dir_17a6007a5c84c34f300c622be50c188b.xhtml" target="_top" xlink:title="serial_interface">
<polygon fill="#eeeeff" stroke="black" points="131,-108 39,-108 39,-72 131,-72 131,-108"/>
<text text-anchor="middle" x="85" y="-87.5" font-family="Helvetica,sans-Serif" font-size="10.00">serial_interface</text>
</a>
</g>
</g>
<!-- dir_3a2f33b0f26bc6229d595c2c354e6333 -->
<g id="node2" class="node">
<title>dir_3a2f33b0f26bc6229d595c2c354e6333</title>
<g id="a_node2"><a xlink:href="dir_3a2f33b0f26bc6229d595c2c354e6333.xhtml" target="_top" xlink:title="utilities">
<polygon fill="none" stroke="black" points="54,-36 0,-36 0,0 54,0 54,-36"/>
<text text-anchor="middle" x="27" y="-15.5" font-family="Helvetica,sans-Serif" font-size="10.00">utilities</text>
</a>
</g>
</g>
<!-- dir_17a6007a5c84c34f300c622be50c188b&#45;&gt;dir_3a2f33b0f26bc6229d595c2c354e6333 -->
<g id="edge1" class="edge">
<title>dir_17a6007a5c84c34f300c622be50c188b&#45;&gt;dir_3a2f33b0f26bc6229d595c2c354e6333</title>
<path fill="none" stroke="black" d="M70.66,-71.7C63.71,-63.3 55.23,-53.07 47.6,-43.86"/>
<polygon fill="black" stroke="black" points="50.25,-41.57 41.17,-36.1 44.86,-46.04 50.25,-41.57"/>
<g id="a_edge1&#45;headlabel"><a xlink:href="dir_000013_000008.xhtml" target="_top" xlink:title="1">
<text text-anchor="middle" x="54.73" y="-40.03" font-family="Helvetica,sans-Serif" font-size="10.00">1</text>
</a>
</g>
</g>
<!-- dir_71046b38222792489c3876836d4fbdbc -->
<g id="node3" class="node">
<title>dir_71046b38222792489c3876836d4fbdbc</title>
<g id="a_node3"><a xlink:href="dir_71046b38222792489c3876836d4fbdbc.xhtml" target="_top" xlink:title="enterprise_business_rules">
<polygon fill="white" stroke="red" points="215.5,-36 72.5,-36 72.5,0 215.5,0 215.5,-36"/>
<text text-anchor="middle" x="144" y="-15.5" font-family="Helvetica,sans-Serif" font-size="10.00">enterprise_business_rules</text>
</a>
</g>
</g>
<!-- dir_17a6007a5c84c34f300c622be50c188b&#45;&gt;dir_71046b38222792489c3876836d4fbdbc -->
<g id="edge2" class="edge">
<title>dir_17a6007a5c84c34f300c622be50c188b&#45;&gt;dir_71046b38222792489c3876836d4fbdbc</title>
<path fill="none" stroke="black" d="M99.58,-71.7C106.66,-63.3 115.28,-53.07 123.05,-43.86"/>
<polygon fill="black" stroke="black" points="125.81,-46.01 129.58,-36.1 120.46,-41.49 125.81,-46.01"/>
<g id="a_edge2&#45;headlabel"><a xlink:href="dir_000013_000007.xhtml" target="_top" xlink:title="3">
<text text-anchor="middle" x="125.67" y="-48.08" font-family="Helvetica,sans-Serif" font-size="10.00">3</text>
</a>
</g>
</g>
</g>
</svg>
