<?xml version="1.0" encoding="UTF-8" standalone="no"?>
<!DOCTYPE svg PUBLIC "-//W3C//DTD SVG 1.1//EN"
 "http://www.w3.org/Graphics/SVG/1.1/DTD/svg11.dtd">
<!-- Generated by graphviz version 2.43.0 (0)
 -->
<!-- Title: Task&#45;Tracker&#45;Device/test/hmi/test_keyState Pages: 1 -->
<svg width="124pt" height="151pt"
 viewBox="0.00 0.00 124.00 151.00" xmlns="http://www.w3.org/2000/svg" xmlns:xlink="http://www.w3.org/1999/xlink">
<g id="graph0" class="graph" transform="scale(1 1) rotate(0) translate(4 147)">
<title>Task&#45;Tracker&#45;Device/test/hmi/test_keyState</title>
<polygon fill="white" stroke="transparent" points="-4,4 -4,-147 120,-147 120,4 -4,4"/>
<g id="clust1" class="cluster">
<title>clusterdir_4529f6765ae1cac1537a050fab398911</title>
<g id="a_clust1"><a xlink:href="dir_4529f6765ae1cac1537a050fab398911.xhtml" target="_top" xlink:title="hmi">
<polygon fill="#ddddee" stroke="black" points="8,-64 8,-135 108,-135 108,-64 8,-64"/>
<text text-anchor="middle" x="58" y="-123" font-family="Helvetica,sans-Serif" font-size="10.00">hmi</text>
</a>
</g>
</g>
<!-- dir_15457ae2eabadb2e4f1a3287cb974943 -->
<g id="node1" class="node">
<title>dir_15457ae2eabadb2e4f1a3287cb974943</title>
<g id="a_node1"><a xlink:href="dir_15457ae2eabadb2e4f1a3287cb974943.xhtml" target="_top" xlink:title="test_keyState">
<polygon fill="#eeeeff" stroke="black" points="99.5,-108 16.5,-108 16.5,-72 99.5,-72 99.5,-108"/>
<text text-anchor="middle" x="58" y="-87.5" font-family="Helvetica,sans-Serif" font-size="10.00">test_keyState</text>
</a>
</g>
</g>
<!-- dir_bb6849ea4d307d3e6f07c34bd3d0693d -->
<g id="node2" class="node">
<title>dir_bb6849ea4d307d3e6f07c34bd3d0693d</title>
<g id="a_node2"><a xlink:href="dir_bb6849ea4d307d3e6f07c34bd3d0693d.xhtml" target="_top" xlink:title="lib">
<polygon fill="white" stroke="red" points="85,-36 31,-36 31,0 85,0 85,-36"/>
<text text-anchor="middle" x="58" y="-15.5" font-family="Helvetica,sans-Serif" font-size="10.00">lib</text>
</a>
</g>
</g>
<!-- dir_15457ae2eabadb2e4f1a3287cb974943&#45;&gt;dir_bb6849ea4d307d3e6f07c34bd3d0693d -->
<g id="edge1" class="edge">
<title>dir_15457ae2eabadb2e4f1a3287cb974943&#45;&gt;dir_bb6849ea4d307d3e6f07c34bd3d0693d</title>
<path fill="none" stroke="black" d="M58,-71.7C58,-63.98 58,-54.71 58,-46.11"/>
<polygon fill="black" stroke="black" points="61.5,-46.1 58,-36.1 54.5,-46.1 61.5,-46.1"/>
<g id="a_edge1&#45;headlabel"><a xlink:href="dir_000025_000004.xhtml" target="_top" xlink:title="3">
<text text-anchor="middle" x="64.34" y="-47.2" font-family="Helvetica,sans-Serif" font-size="10.00">3</text>
</a>
</g>
</g>
</g>
</svg>
