<?xml version="1.0" encoding="UTF-8" standalone="no"?>
<!DOCTYPE svg PUBLIC "-//W3C//DTD SVG 1.1//EN"
 "http://www.w3.org/Graphics/SVG/1.1/DTD/svg11.dtd">
<!-- Generated by graphviz version 2.43.0 (0)
 -->
<!-- Title: dependency_injection_interface_adapter Pages: 1 -->
<svg width="714pt" height="309pt"
 viewBox="0.00 0.00 714.00 308.91" xmlns="http://www.w3.org/2000/svg" xmlns:xlink="http://www.w3.org/1999/xlink">
<g id="graph0" class="graph" transform="scale(1 1) rotate(0) translate(4 304.91)">
<title>dependency_injection_interface_adapter</title>
<polygon fill="white" stroke="transparent" points="-4,4 -4,-304.91 710,-304.91 710,4 -4,4"/>
<g id="clust1" class="cluster">
<title>cluster_high</title>
<polygon fill="none" stroke="black" points="8,-116 8,-292.91 331,-292.91 331,-116 8,-116"/>
<text text-anchor="middle" x="169.5" y="-123.8" font-family="Times,serif" font-size="14.00">high level policy package</text>
</g>
<g id="clust2" class="cluster">
<title>cluster_low</title>
<polygon fill="none" stroke="black" points="56,-8 56,-83 440,-83 440,-8 56,-8"/>
<text text-anchor="middle" x="248" y="-15.8" font-family="Times,serif" font-size="14.00">interface adapters package</text>
</g>
<g id="clust3" class="cluster">
<title>cluster_external</title>
<polygon fill="none" stroke="black" points="539,-8 539,-83 698,-83 698,-8 539,-8"/>
<text text-anchor="middle" x="618.5" y="-15.8" font-family="Times,serif" font-size="14.00">third party libraries</text>
</g>
<!-- factory_interface -->
<g id="node1" class="node">
<title>factory_interface</title>
<ellipse fill="none" stroke="black" cx="230" cy="-172.46" rx="93.18" ry="25.41"/>
<text text-anchor="start" x="189.5" y="-176.26" font-family="Times,serif" font-size="14.00">«interface»</text>
<text text-anchor="start" x="172" y="-162.26" font-family="Courier New" font-size="14.00">B&amp; factoryB();</text>
</g>
<!-- interface_b -->
<g id="node3" class="node">
<title>interface_b</title>
<polygon fill="none" stroke="black" points="177.5,-284.91 80.5,-284.91 80.5,-248.91 177.5,-248.91 177.5,-284.91"/>
<text text-anchor="start" x="88.5" y="-270.71" font-family="Times,serif" font-size="14.00">«interface»</text>
<text text-anchor="start" x="124.5" y="-256.71" font-family="Courier New" font-size="14.00">B</text>
</g>
<!-- factory_interface&#45;&gt;interface_b -->
<g id="edge6" class="edge">
<title>factory_interface&#45;&gt;interface_b</title>
<path fill="none" stroke="black" stroke-dasharray="5,2" d="M207.58,-197.29C197.32,-207.88 184.82,-220.32 173,-230.91 168.82,-234.66 164.3,-238.49 159.8,-242.17"/>
<polygon fill="black" stroke="black" points="151.8,-248.6 156.78,-238.83 155.7,-245.47 159.6,-242.34 159.6,-242.34 159.6,-242.34 155.7,-245.47 162.42,-245.84 151.8,-248.6 151.8,-248.6"/>
<text text-anchor="middle" x="236.5" y="-219.71" font-family="Times,serif" font-size="14.00">«depends on»</text>
</g>
<!-- component_a -->
<g id="node2" class="node">
<title>component_a</title>
<polygon fill="none" stroke="black" points="70,-190.46 16,-190.46 16,-186.46 12,-186.46 12,-182.46 16,-182.46 16,-162.46 12,-162.46 12,-158.46 16,-158.46 16,-154.46 70,-154.46 70,-190.46"/>
<polyline fill="none" stroke="black" points="16,-186.46 20,-186.46 20,-182.46 16,-182.46 "/>
<polyline fill="none" stroke="black" points="16,-162.46 20,-162.46 20,-158.46 16,-158.46 "/>
<text text-anchor="middle" x="43" y="-168.76" font-family="Courier New" font-size="14.00">A</text>
</g>
<!-- component_a&#45;&gt;factory_interface -->
<g id="edge5" class="edge">
<title>component_a&#45;&gt;factory_interface</title>
<path fill="none" stroke="black" stroke-dasharray="5,2" d="M70.19,-172.46C85.43,-172.46 105.5,-172.46 126.25,-172.46"/>
<polygon fill="black" stroke="black" points="136.48,-172.46 126.48,-176.96 131.48,-172.46 126.48,-172.46 126.48,-172.46 126.48,-172.46 131.48,-172.46 126.48,-167.96 136.48,-172.46 136.48,-172.46"/>
<text text-anchor="middle" x="103.33" y="-158.26" font-family="Times,serif" font-size="14.00">«calls»</text>
</g>
<!-- component_a&#45;&gt;interface_b -->
<g id="edge4" class="edge">
<title>component_a&#45;&gt;interface_b</title>
<path fill="none" stroke="black" stroke-dasharray="5,2" d="M49.44,-190.48C54.7,-202.74 63.04,-219.13 74,-230.91 78.05,-235.26 82.75,-239.3 87.67,-242.98"/>
<polygon fill="black" stroke="black" points="96.08,-248.8 85.29,-246.8 91.97,-245.95 87.86,-243.1 87.86,-243.1 87.86,-243.1 91.97,-245.95 90.42,-239.41 96.08,-248.8 96.08,-248.8"/>
<text text-anchor="middle" x="123.5" y="-219.71" font-family="Times,serif" font-size="14.00">«depends on»</text>
</g>
<!-- factory_impl -->
<g id="node4" class="node">
<title>factory_impl</title>
<ellipse fill="none" stroke="black" cx="155" cy="-57" rx="90.98" ry="18"/>
<text text-anchor="middle" x="155" y="-53.3" font-family="Courier New" font-size="14.00">B&amp; factoryB(){}</text>
</g>
<!-- factory_impl&#45;&gt;factory_interface -->
<g id="edge7" class="edge">
<title>factory_impl&#45;&gt;factory_interface</title>
<path fill="none" stroke="black" stroke-dasharray="5,2" d="M166.39,-75.23C177.51,-92.05 194.7,-118.05 208.41,-138.79"/>
<polygon fill="black" stroke="black" points="214.04,-147.31 204.77,-141.45 211.28,-143.14 208.53,-138.97 208.53,-138.97 208.53,-138.97 211.28,-143.14 212.28,-136.49 214.04,-147.31 214.04,-147.31"/>
<text text-anchor="middle" x="238.5" y="-96.8" font-family="Times,serif" font-size="14.00">«implements»</text>
</g>
<!-- component_b -->
<g id="node5" class="node">
<title>component_b</title>
<polygon fill="none" stroke="black" points="432,-75 378,-75 378,-71 374,-71 374,-67 378,-67 378,-47 374,-47 374,-43 378,-43 378,-39 432,-39 432,-75"/>
<polyline fill="none" stroke="black" points="378,-71 382,-71 382,-67 378,-67 "/>
<polyline fill="none" stroke="black" points="378,-47 382,-47 382,-43 378,-43 "/>
<text text-anchor="middle" x="405" y="-53.3" font-family="Courier New" font-size="14.00">B</text>
</g>
<!-- factory_impl&#45;&gt;component_b -->
<g id="edge3" class="edge">
<title>factory_impl&#45;&gt;component_b</title>
<path fill="none" stroke="black" stroke-dasharray="5,2" d="M246.32,-57C288.3,-57 335.76,-57 367.75,-57"/>
<polygon fill="black" stroke="black" points="377.97,-57 367.97,-61.5 372.97,-57 367.97,-57 367.97,-57 367.97,-57 372.97,-57 367.97,-52.5 377.97,-57 377.97,-57"/>
<text text-anchor="middle" x="312" y="-42.8" font-family="Times,serif" font-size="14.00">«instantiates a»</text>
</g>
<!-- component_b&#45;&gt;interface_b -->
<g id="edge1" class="edge">
<title>component_b&#45;&gt;interface_b</title>
<path fill="none" stroke="black" stroke-dasharray="5,2" d="M400.18,-75.07C388.56,-112.38 355.07,-200.28 290,-230.91 257.89,-246.03 219.09,-254.71 187.62,-259.65"/>
<polygon fill="none" stroke="black" points="187.06,-256.2 177.68,-261.13 188.09,-263.12 187.06,-256.2"/>
<text text-anchor="middle" x="420.5" y="-168.76" font-family="Times,serif" font-size="14.00">«realizes»</text>
</g>
<!-- component_c -->
<g id="node6" class="node">
<title>component_c</title>
<polygon fill="none" stroke="black" points="683,-75 555,-75 555,-71 551,-71 551,-67 555,-67 555,-47 551,-47 551,-43 555,-43 555,-39 683,-39 683,-75"/>
<polyline fill="none" stroke="black" points="555,-71 559,-71 559,-67 555,-67 "/>
<polyline fill="none" stroke="black" points="555,-47 559,-47 559,-43 555,-43 "/>
<text text-anchor="middle" x="619" y="-53.3" font-family="Times,serif" font-size="14.00">external library</text>
</g>
<!-- component_b&#45;&gt;component_c -->
<g id="edge2" class="edge">
<title>component_b&#45;&gt;component_c</title>
<path fill="none" stroke="black" stroke-dasharray="5,2" d="M432.1,-57C460.29,-57 505.66,-57 544.64,-57"/>
<polygon fill="black" stroke="black" points="554.92,-57 544.92,-61.5 549.92,-57 544.92,-57 544.92,-57 544.92,-57 549.92,-57 544.92,-52.5 554.92,-57 554.92,-57"/>
<text text-anchor="middle" x="493.5" y="-42.8" font-family="Times,serif" font-size="14.00">«delegates to»</text>
</g>
</g>
</svg>
