<?xml version="1.0" encoding="UTF-8" standalone="no"?>
<!DOCTYPE svg PUBLIC "-//W3C//DTD SVG 1.1//EN"
 "http://www.w3.org/Graphics/SVG/1.1/DTD/svg11.dtd">
<!-- Generated by graphviz version 2.43.0 (0)
 -->
<!-- Title: Task&#45;Tracker&#45;Device/lib/3rd_party_adapters/LVGL/guiEngine_factory_interface.cpp Pages: 1 -->
<svg width="592pt" height="352pt"
 viewBox="0.00 0.00 592.26 352.00" xmlns="http://www.w3.org/2000/svg" xmlns:xlink="http://www.w3.org/1999/xlink">
<g id="graph0" class="graph" transform="scale(1 1) rotate(0) translate(4 348)">
<title>Task&#45;Tracker&#45;Device/lib/3rd_party_adapters/LVGL/guiEngine_factory_interface.cpp</title>
<polygon fill="white" stroke="transparent" points="-4,4 -4,-348 588.26,-348 588.26,4 -4,4"/>
<!-- Node1 -->
<g id="node1" class="node">
<title>Node1</title>
<g id="a_node1"><a xlink:title=" ">
<polygon fill="#bfbfbf" stroke="black" points="272.76,-291.5 272.76,-343.5 406.76,-343.5 406.76,-291.5 272.76,-291.5"/>
<text text-anchor="start" x="280.76" y="-331.5" font-family="Helvetica,sans-Serif" font-size="10.00">Task&#45;Tracker&#45;Device</text>
<text text-anchor="start" x="280.76" y="-320.5" font-family="Helvetica,sans-Serif" font-size="10.00">/lib/3rd_party_adapters</text>
<text text-anchor="start" x="280.76" y="-309.5" font-family="Helvetica,sans-Serif" font-size="10.00">/LVGL/guiEngine_factory</text>
<text text-anchor="middle" x="339.76" y="-298.5" font-family="Helvetica,sans-Serif" font-size="10.00">_interface.cpp</text>
</a>
</g>
</g>
<!-- Node2 -->
<g id="node2" class="node">
<title>Node2</title>
<g id="a_node2"><a xlink:href="GuiEngine_8hpp.xhtml" target="_top" xlink:title=" ">
<polygon fill="white" stroke="black" points="113.26,-230 113.26,-249 200.26,-249 200.26,-230 113.26,-230"/>
<text text-anchor="middle" x="156.76" y="-237" font-family="Helvetica,sans-Serif" font-size="10.00">GuiEngine.hpp</text>
</a>
</g>
</g>
<!-- Node1&#45;&gt;Node2 -->
<g id="edge1" class="edge">
<title>Node1&#45;&gt;Node2</title>
<path fill="none" stroke="midnightblue" d="M279.33,-291.4C248.26,-278.5 211.77,-263.35 186.74,-252.95"/>
<polygon fill="midnightblue" stroke="midnightblue" points="187.99,-249.68 177.41,-249.08 185.3,-256.15 187.99,-249.68"/>
</g>
<!-- Node15 -->
<g id="node15" class="node">
<title>Node15</title>
<g id="a_node15"><a xlink:title=" ">
<polygon fill="white" stroke="#bfbfbf" points="500.26,-230 500.26,-249 563.26,-249 563.26,-230 500.26,-230"/>
<text text-anchor="middle" x="531.76" y="-237" font-family="Helvetica,sans-Serif" font-size="10.00">Arduino.h</text>
</a>
</g>
</g>
<!-- Node1&#45;&gt;Node15 -->
<g id="edge15" class="edge">
<title>Node1&#45;&gt;Node15</title>
<path fill="none" stroke="midnightblue" d="M403.16,-291.4C435.89,-278.45 474.37,-263.22 500.65,-252.81"/>
<polygon fill="midnightblue" stroke="midnightblue" points="502.07,-256.01 510.08,-249.08 499.5,-249.5 502.07,-256.01"/>
</g>
<!-- Node16 -->
<g id="node16" class="node">
<title>Node16</title>
<g id="a_node16"><a xlink:href="board__pins_8hpp.xhtml" target="_top" xlink:title="Provides named objects for the pins provided by the board.">
<polygon fill="white" stroke="black" points="226.26,-230 226.26,-249 317.26,-249 317.26,-230 226.26,-230"/>
<text text-anchor="middle" x="271.76" y="-237" font-family="Helvetica,sans-Serif" font-size="10.00">board_pins.hpp</text>
</a>
</g>
</g>
<!-- Node1&#45;&gt;Node16 -->
<g id="edge16" class="edge">
<title>Node1&#45;&gt;Node16</title>
<path fill="none" stroke="midnightblue" d="M317.11,-291.19C306.97,-279.86 295.31,-266.82 286.35,-256.81"/>
<polygon fill="midnightblue" stroke="midnightblue" points="288.82,-254.33 279.55,-249.21 283.61,-259 288.82,-254.33"/>
</g>
<!-- Node18 -->
<g id="node18" class="node">
<title>Node18</title>
<g id="a_node18"><a xlink:href="guiEngine__factory__interface_8hpp.xhtml" target="_top" xlink:title="Dependency injection for the guiEngine.">
<polygon fill="white" stroke="black" points="335.76,-224.5 335.76,-254.5 481.76,-254.5 481.76,-224.5 335.76,-224.5"/>
<text text-anchor="start" x="343.76" y="-242.5" font-family="Helvetica,sans-Serif" font-size="10.00">user_interaction/guiEngine</text>
<text text-anchor="middle" x="408.76" y="-231.5" font-family="Helvetica,sans-Serif" font-size="10.00">_factory_interface.hpp</text>
</a>
</g>
</g>
<!-- Node1&#45;&gt;Node18 -->
<g id="edge19" class="edge">
<title>Node1&#45;&gt;Node18</title>
<path fill="none" stroke="midnightblue" d="M362.73,-291.19C371.22,-281.84 380.76,-271.33 388.95,-262.32"/>
<polygon fill="midnightblue" stroke="midnightblue" points="391.6,-264.6 395.73,-254.85 386.42,-259.9 391.6,-264.6"/>
</g>
<!-- Node3 -->
<g id="node3" class="node">
<title>Node3</title>
<g id="a_node3"><a xlink:title=" ">
<polygon fill="white" stroke="#bfbfbf" points="91.26,-168.5 91.26,-187.5 204.26,-187.5 204.26,-168.5 91.26,-168.5"/>
<text text-anchor="middle" x="147.76" y="-175.5" font-family="Helvetica,sans-Serif" font-size="10.00">Adafruit_SSD1306.h</text>
</a>
</g>
</g>
<!-- Node2&#45;&gt;Node3 -->
<g id="edge2" class="edge">
<title>Node2&#45;&gt;Node3</title>
<path fill="none" stroke="midnightblue" d="M155.47,-229.98C154.2,-221.58 152.21,-208.48 150.58,-197.66"/>
<polygon fill="midnightblue" stroke="midnightblue" points="154,-196.87 149.04,-187.51 147.08,-197.92 154,-196.87"/>
</g>
<!-- Node4 -->
<g id="node4" class="node">
<title>Node4</title>
<g id="a_node4"><a xlink:title=" ">
<polygon fill="white" stroke="#bfbfbf" points="200.76,-56.5 200.76,-75.5 250.76,-75.5 250.76,-56.5 200.76,-56.5"/>
<text text-anchor="middle" x="225.76" y="-63.5" font-family="Helvetica,sans-Serif" font-size="10.00">cstdint</text>
</a>
</g>
</g>
<!-- Node2&#45;&gt;Node4 -->
<g id="edge3" class="edge">
<title>Node2&#45;&gt;Node4</title>
<path fill="none" stroke="midnightblue" d="M113.22,-234.65C59.48,-228.01 -21.65,-210.74 5.76,-168 46.82,-103.96 139.82,-79.98 190.77,-71.43"/>
<polygon fill="midnightblue" stroke="midnightblue" points="191.33,-74.89 200.67,-69.88 190.25,-67.97 191.33,-74.89"/>
</g>
<!-- Node5 -->
<g id="node5" class="node">
<title>Node5</title>
<g id="a_node5"><a xlink:title=" ">
<polygon fill="white" stroke="#bfbfbf" points="222.76,-168.5 222.76,-187.5 266.76,-187.5 266.76,-168.5 222.76,-168.5"/>
<text text-anchor="middle" x="244.76" y="-175.5" font-family="Helvetica,sans-Serif" font-size="10.00">lvgl.h</text>
</a>
</g>
</g>
<!-- Node2&#45;&gt;Node5 -->
<g id="edge4" class="edge">
<title>Node2&#45;&gt;Node5</title>
<path fill="none" stroke="midnightblue" d="M169.36,-229.98C183.48,-220.43 206.59,-204.81 223.5,-193.37"/>
<polygon fill="midnightblue" stroke="midnightblue" points="225.85,-196.01 232.17,-187.51 221.93,-190.21 225.85,-196.01"/>
</g>
<!-- Node6 -->
<g id="node6" class="node">
<title>Node6</title>
<g id="a_node6"><a xlink:title=" ">
<polygon fill="white" stroke="#bfbfbf" points="14.76,-168.5 14.76,-187.5 72.76,-187.5 72.76,-168.5 14.76,-168.5"/>
<text text-anchor="middle" x="43.76" y="-175.5" font-family="Helvetica,sans-Serif" font-size="10.00">memory</text>
</a>
</g>
</g>
<!-- Node2&#45;&gt;Node6 -->
<g id="edge5" class="edge">
<title>Node2&#45;&gt;Node6</title>
<path fill="none" stroke="midnightblue" d="M140.57,-229.98C121.85,-220.12 90.83,-203.79 68.96,-192.27"/>
<polygon fill="midnightblue" stroke="midnightblue" points="70.39,-189.07 59.92,-187.51 67.13,-195.27 70.39,-189.07"/>
</g>
<!-- Node7 -->
<g id="node7" class="node">
<title>Node7</title>
<g id="a_node7"><a xlink:href="IGuiEngine_8hpp.xhtml" target="_top" xlink:title=" ">
<polygon fill="white" stroke="black" points="322.76,-168.5 322.76,-187.5 494.76,-187.5 494.76,-168.5 322.76,-168.5"/>
<text text-anchor="middle" x="408.76" y="-175.5" font-family="Helvetica,sans-Serif" font-size="10.00">user_interaction/IGuiEngine.hpp</text>
</a>
</g>
</g>
<!-- Node2&#45;&gt;Node7 -->
<g id="edge6" class="edge">
<title>Node2&#45;&gt;Node7</title>
<path fill="none" stroke="midnightblue" d="M191.96,-229.95C200.1,-227.98 208.73,-225.91 216.76,-224 266.29,-212.21 323.06,-198.93 361.95,-189.87"/>
<polygon fill="midnightblue" stroke="midnightblue" points="362.98,-193.23 371.93,-187.55 361.4,-186.41 362.98,-193.23"/>
</g>
<!-- Node8 -->
<g id="node8" class="node">
<title>Node8</title>
<g id="a_node8"><a xlink:href="MenuItem_8hpp.xhtml" target="_top" xlink:title=" ">
<polygon fill="white" stroke="black" points="293.26,-112.5 293.26,-131.5 380.26,-131.5 380.26,-112.5 293.26,-112.5"/>
<text text-anchor="middle" x="336.76" y="-119.5" font-family="Helvetica,sans-Serif" font-size="10.00">MenuItem.hpp</text>
</a>
</g>
</g>
<!-- Node7&#45;&gt;Node8 -->
<g id="edge7" class="edge">
<title>Node7&#45;&gt;Node8</title>
<path fill="none" stroke="midnightblue" d="M397.19,-168.32C386.34,-160.18 369.87,-147.84 356.87,-138.09"/>
<polygon fill="midnightblue" stroke="midnightblue" points="358.63,-135.03 348.53,-131.83 354.43,-140.63 358.63,-135.03"/>
</g>
<!-- Node11 -->
<g id="node11" class="node">
<title>Node11</title>
<g id="a_node11"><a xlink:href="IKeypad_8hpp.xhtml" target="_top" xlink:title=" ">
<polygon fill="white" stroke="black" points="398.76,-112.5 398.76,-131.5 556.76,-131.5 556.76,-112.5 398.76,-112.5"/>
<text text-anchor="middle" x="477.76" y="-119.5" font-family="Helvetica,sans-Serif" font-size="10.00">user_interaction/IKeypad.hpp</text>
</a>
</g>
</g>
<!-- Node7&#45;&gt;Node11 -->
<g id="edge11" class="edge">
<title>Node7&#45;&gt;Node11</title>
<path fill="none" stroke="midnightblue" d="M419.84,-168.32C430.24,-160.18 446.02,-147.84 458.48,-138.09"/>
<polygon fill="midnightblue" stroke="midnightblue" points="460.75,-140.75 466.47,-131.83 456.44,-135.24 460.75,-140.75"/>
</g>
<!-- Node8&#45;&gt;Node4 -->
<g id="edge8" class="edge">
<title>Node8&#45;&gt;Node4</title>
<path fill="none" stroke="midnightblue" d="M318.92,-112.32C301.04,-103.62 273.28,-90.12 252.71,-80.11"/>
<polygon fill="midnightblue" stroke="midnightblue" points="254.07,-76.88 243.55,-75.65 251.01,-83.18 254.07,-76.88"/>
</g>
<!-- Node9 -->
<g id="node9" class="node">
<title>Node9</title>
<g id="a_node9"><a xlink:title=" ">
<polygon fill="white" stroke="#bfbfbf" points="356.76,-56.5 356.76,-75.5 400.76,-75.5 400.76,-56.5 356.76,-56.5"/>
<text text-anchor="middle" x="378.76" y="-63.5" font-family="Helvetica,sans-Serif" font-size="10.00">string</text>
</a>
</g>
</g>
<!-- Node8&#45;&gt;Node9 -->
<g id="edge9" class="edge">
<title>Node8&#45;&gt;Node9</title>
<path fill="none" stroke="midnightblue" d="M343.69,-112.08C349.68,-104.38 358.51,-93.03 365.8,-83.65"/>
<polygon fill="midnightblue" stroke="midnightblue" points="368.57,-85.79 371.95,-75.75 363.05,-81.5 368.57,-85.79"/>
</g>
<!-- Node10 -->
<g id="node10" class="node">
<title>Node10</title>
<g id="a_node10"><a xlink:title=" ">
<polygon fill="white" stroke="#bfbfbf" points="291.26,-56.5 291.26,-75.5 338.26,-75.5 338.26,-56.5 291.26,-56.5"/>
<text text-anchor="middle" x="314.76" y="-63.5" font-family="Helvetica,sans-Serif" font-size="10.00">vector</text>
</a>
</g>
</g>
<!-- Node8&#45;&gt;Node10 -->
<g id="edge10" class="edge">
<title>Node8&#45;&gt;Node10</title>
<path fill="none" stroke="midnightblue" d="M333.12,-112.08C330.14,-104.77 325.83,-94.18 322.13,-85.1"/>
<polygon fill="midnightblue" stroke="midnightblue" points="325.33,-83.69 318.32,-75.75 318.85,-86.33 325.33,-83.69"/>
</g>
<!-- Node12 -->
<g id="node12" class="node">
<title>Node12</title>
<g id="a_node12"><a xlink:href="KeyIds_8hpp.xhtml" target="_top" xlink:title=" ">
<polygon fill="white" stroke="black" points="430.76,-56.5 430.76,-75.5 500.76,-75.5 500.76,-56.5 430.76,-56.5"/>
<text text-anchor="middle" x="465.76" y="-63.5" font-family="Helvetica,sans-Serif" font-size="10.00">KeyIds.hpp</text>
</a>
</g>
</g>
<!-- Node11&#45;&gt;Node12 -->
<g id="edge12" class="edge">
<title>Node11&#45;&gt;Node12</title>
<path fill="none" stroke="midnightblue" d="M475.77,-112.08C474.18,-104.93 471.9,-94.64 469.91,-85.69"/>
<polygon fill="midnightblue" stroke="midnightblue" points="473.29,-84.75 467.7,-75.75 466.45,-86.27 473.29,-84.75"/>
</g>
<!-- Node14 -->
<g id="node14" class="node">
<title>Node14</title>
<g id="a_node14"><a xlink:title=" ">
<polygon fill="white" stroke="#bfbfbf" points="519.26,-56.5 519.26,-75.5 584.26,-75.5 584.26,-56.5 519.26,-56.5"/>
<text text-anchor="middle" x="551.76" y="-63.5" font-family="Helvetica,sans-Serif" font-size="10.00">functional</text>
</a>
</g>
</g>
<!-- Node11&#45;&gt;Node14 -->
<g id="edge14" class="edge">
<title>Node11&#45;&gt;Node14</title>
<path fill="none" stroke="midnightblue" d="M489.64,-112.32C500.91,-104.11 518.04,-91.6 531.46,-81.81"/>
<polygon fill="midnightblue" stroke="midnightblue" points="533.63,-84.56 539.65,-75.83 529.51,-78.9 533.63,-84.56"/>
</g>
<!-- Node13 -->
<g id="node13" class="node">
<title>Node13</title>
<g id="a_node13"><a xlink:title=" ">
<polygon fill="white" stroke="#bfbfbf" points="437.26,-0.5 437.26,-19.5 494.26,-19.5 494.26,-0.5 437.26,-0.5"/>
<text text-anchor="middle" x="465.76" y="-7.5" font-family="Helvetica,sans-Serif" font-size="10.00">ostream</text>
</a>
</g>
</g>
<!-- Node12&#45;&gt;Node13 -->
<g id="edge13" class="edge">
<title>Node12&#45;&gt;Node13</title>
<path fill="none" stroke="midnightblue" d="M465.76,-56.08C465.76,-49.01 465.76,-38.86 465.76,-29.99"/>
<polygon fill="midnightblue" stroke="midnightblue" points="469.26,-29.75 465.76,-19.75 462.26,-29.75 469.26,-29.75"/>
</g>
<!-- Node17 -->
<g id="node17" class="node">
<title>Node17</title>
<g id="a_node17"><a xlink:href="board__types_8hpp.xhtml" target="_top" xlink:title=" ">
<polygon fill="white" stroke="black" points="176.76,-112.5 176.76,-131.5 274.76,-131.5 274.76,-112.5 176.76,-112.5"/>
<text text-anchor="middle" x="225.76" y="-119.5" font-family="Helvetica,sans-Serif" font-size="10.00">board_types.hpp</text>
</a>
</g>
</g>
<!-- Node16&#45;&gt;Node17 -->
<g id="edge17" class="edge">
<title>Node16&#45;&gt;Node17</title>
<path fill="none" stroke="midnightblue" d="M274.7,-229.8C278.85,-216.01 284.93,-188.61 275.76,-168 270.19,-155.5 259.24,-145.01 249,-137.32"/>
<polygon fill="midnightblue" stroke="midnightblue" points="250.91,-134.38 240.71,-131.53 246.9,-140.12 250.91,-134.38"/>
</g>
<!-- Node17&#45;&gt;Node4 -->
<g id="edge18" class="edge">
<title>Node17&#45;&gt;Node4</title>
<path fill="none" stroke="midnightblue" d="M225.76,-112.08C225.76,-105.01 225.76,-94.86 225.76,-85.99"/>
<polygon fill="midnightblue" stroke="midnightblue" points="229.26,-85.75 225.76,-75.75 222.26,-85.75 229.26,-85.75"/>
</g>
<!-- Node18&#45;&gt;Node7 -->
<g id="edge20" class="edge">
<title>Node18&#45;&gt;Node7</title>
<path fill="none" stroke="midnightblue" d="M408.76,-224.4C408.76,-216.47 408.76,-206.46 408.76,-197.86"/>
<polygon fill="midnightblue" stroke="midnightblue" points="412.26,-197.66 408.76,-187.66 405.26,-197.66 412.26,-197.66"/>
</g>
</g>
</svg>
