<?xml version="1.0" encoding="UTF-8" standalone="no"?>
<!DOCTYPE svg PUBLIC "-//W3C//DTD SVG 1.1//EN"
 "http://www.w3.org/Graphics/SVG/1.1/DTD/svg11.dtd">
<!-- Generated by graphviz version 2.43.0 (0)
 -->
<!-- Title: lib/3rd_party_adapters/LVGL/GuiEngine.hpp Pages: 1 -->
<svg width="511pt" height="263pt"
 viewBox="0.00 0.00 511.00 263.00" xmlns="http://www.w3.org/2000/svg" xmlns:xlink="http://www.w3.org/1999/xlink">
<g id="graph0" class="graph" transform="scale(1 1) rotate(0) translate(4 259)">
<title>lib/3rd_party_adapters/LVGL/GuiEngine.hpp</title>
<polygon fill="white" stroke="transparent" points="-4,4 -4,-259 507,-259 507,4 -4,4"/>
<!-- Node1 -->
<g id="node1" class="node">
<title>Node1</title>
<g id="a_node1"><a xlink:title=" ">
<polygon fill="#bfbfbf" stroke="black" points="128.5,-224.5 128.5,-254.5 254.5,-254.5 254.5,-224.5 128.5,-224.5"/>
<text text-anchor="start" x="136.5" y="-242.5" font-family="Helvetica,sans-Serif" font-size="10.00">lib/3rd_party_adapters</text>
<text text-anchor="middle" x="191.5" y="-231.5" font-family="Helvetica,sans-Serif" font-size="10.00">/LVGL/GuiEngine.hpp</text>
</a>
</g>
</g>
<!-- Node2 -->
<g id="node2" class="node">
<title>Node2</title>
<g id="a_node2"><a xlink:title=" ">
<polygon fill="white" stroke="#bfbfbf" points="0,-168.5 0,-187.5 113,-187.5 113,-168.5 0,-168.5"/>
<text text-anchor="middle" x="56.5" y="-175.5" font-family="Helvetica,sans-Serif" font-size="10.00">Adafruit_SSD1306.h</text>
</a>
</g>
</g>
<!-- Node1&#45;&gt;Node2 -->
<g id="edge1" class="edge">
<title>Node1&#45;&gt;Node2</title>
<path fill="none" stroke="midnightblue" d="M159.51,-224.4C137.06,-214.51 107.29,-201.38 85.52,-191.79"/>
<polygon fill="midnightblue" stroke="midnightblue" points="86.71,-188.49 76.14,-187.66 83.88,-194.89 86.71,-188.49"/>
</g>
<!-- Node3 -->
<g id="node3" class="node">
<title>Node3</title>
<g id="a_node3"><a xlink:title=" ">
<polygon fill="white" stroke="#bfbfbf" points="139.5,-56.5 139.5,-75.5 189.5,-75.5 189.5,-56.5 139.5,-56.5"/>
<text text-anchor="middle" x="164.5" y="-63.5" font-family="Helvetica,sans-Serif" font-size="10.00">cstdint</text>
</a>
</g>
</g>
<!-- Node1&#45;&gt;Node3 -->
<g id="edge2" class="edge">
<title>Node1&#45;&gt;Node3</title>
<path fill="none" stroke="midnightblue" d="M179.96,-224.49C172.81,-214.88 164.3,-201.46 160.5,-188 150.59,-152.9 155.95,-109.79 160.43,-85.66"/>
<polygon fill="midnightblue" stroke="midnightblue" points="163.89,-86.22 162.44,-75.73 157.03,-84.84 163.89,-86.22"/>
</g>
<!-- Node4 -->
<g id="node4" class="node">
<title>Node4</title>
<g id="a_node4"><a xlink:title=" ">
<polygon fill="white" stroke="#bfbfbf" points="169.5,-168.5 169.5,-187.5 213.5,-187.5 213.5,-168.5 169.5,-168.5"/>
<text text-anchor="middle" x="191.5" y="-175.5" font-family="Helvetica,sans-Serif" font-size="10.00">lvgl.h</text>
</a>
</g>
</g>
<!-- Node1&#45;&gt;Node4 -->
<g id="edge3" class="edge">
<title>Node1&#45;&gt;Node4</title>
<path fill="none" stroke="midnightblue" d="M191.5,-224.4C191.5,-216.47 191.5,-206.46 191.5,-197.86"/>
<polygon fill="midnightblue" stroke="midnightblue" points="195,-197.66 191.5,-187.66 188,-197.66 195,-197.66"/>
</g>
<!-- Node5 -->
<g id="node5" class="node">
<title>Node5</title>
<g id="a_node5"><a xlink:title=" ">
<polygon fill="white" stroke="#bfbfbf" points="231.5,-168.5 231.5,-187.5 289.5,-187.5 289.5,-168.5 231.5,-168.5"/>
<text text-anchor="middle" x="260.5" y="-175.5" font-family="Helvetica,sans-Serif" font-size="10.00">memory</text>
</a>
</g>
</g>
<!-- Node1&#45;&gt;Node5 -->
<g id="edge4" class="edge">
<title>Node1&#45;&gt;Node5</title>
<path fill="none" stroke="midnightblue" d="M207.85,-224.4C218.4,-215.31 232.1,-203.49 242.88,-194.19"/>
<polygon fill="midnightblue" stroke="midnightblue" points="245.17,-196.84 250.46,-187.66 240.6,-191.54 245.17,-196.84"/>
</g>
<!-- Node6 -->
<g id="node6" class="node">
<title>Node6</title>
<g id="a_node6"><a xlink:href="IGuiEngine_8hpp.xhtml" target="_top" xlink:title=" ">
<polygon fill="white" stroke="black" points="307.5,-168.5 307.5,-187.5 479.5,-187.5 479.5,-168.5 307.5,-168.5"/>
<text text-anchor="middle" x="393.5" y="-175.5" font-family="Helvetica,sans-Serif" font-size="10.00">user_interaction/IGuiEngine.hpp</text>
</a>
</g>
</g>
<!-- Node1&#45;&gt;Node6 -->
<g id="edge5" class="edge">
<title>Node1&#45;&gt;Node6</title>
<path fill="none" stroke="midnightblue" d="M239.12,-224.47C274.42,-214.08 321.94,-200.08 354.89,-190.37"/>
<polygon fill="midnightblue" stroke="midnightblue" points="356.02,-193.69 364.62,-187.51 354.04,-186.97 356.02,-193.69"/>
</g>
<!-- Node7 -->
<g id="node7" class="node">
<title>Node7</title>
<g id="a_node7"><a xlink:href="MenuItem_8hpp.xhtml" target="_top" xlink:title=" ">
<polygon fill="white" stroke="black" points="198,-112.5 198,-131.5 285,-131.5 285,-112.5 198,-112.5"/>
<text text-anchor="middle" x="241.5" y="-119.5" font-family="Helvetica,sans-Serif" font-size="10.00">MenuItem.hpp</text>
</a>
</g>
</g>
<!-- Node6&#45;&gt;Node7 -->
<g id="edge6" class="edge">
<title>Node6&#45;&gt;Node7</title>
<path fill="none" stroke="midnightblue" d="M369.42,-168.44C343.96,-159.4 303.61,-145.06 275.04,-134.92"/>
<polygon fill="midnightblue" stroke="midnightblue" points="276.07,-131.57 265.47,-131.52 273.72,-138.16 276.07,-131.57"/>
</g>
<!-- Node10 -->
<g id="node10" class="node">
<title>Node10</title>
<g id="a_node10"><a xlink:href="IKeypad_8hpp.xhtml" target="_top" xlink:title=" ">
<polygon fill="white" stroke="black" points="314.5,-112.5 314.5,-131.5 472.5,-131.5 472.5,-112.5 314.5,-112.5"/>
<text text-anchor="middle" x="393.5" y="-119.5" font-family="Helvetica,sans-Serif" font-size="10.00">user_interaction/IKeypad.hpp</text>
</a>
</g>
</g>
<!-- Node6&#45;&gt;Node10 -->
<g id="edge10" class="edge">
<title>Node6&#45;&gt;Node10</title>
<path fill="none" stroke="midnightblue" d="M393.5,-168.08C393.5,-161.01 393.5,-150.86 393.5,-141.99"/>
<polygon fill="midnightblue" stroke="midnightblue" points="397,-141.75 393.5,-131.75 390,-141.75 397,-141.75"/>
</g>
<!-- Node7&#45;&gt;Node3 -->
<g id="edge7" class="edge">
<title>Node7&#45;&gt;Node3</title>
<path fill="none" stroke="midnightblue" d="M229.13,-112.32C217.34,-104.06 199.37,-91.45 185.36,-81.63"/>
<polygon fill="midnightblue" stroke="midnightblue" points="187.04,-78.53 176.84,-75.65 183.02,-84.26 187.04,-78.53"/>
</g>
<!-- Node8 -->
<g id="node8" class="node">
<title>Node8</title>
<g id="a_node8"><a xlink:title=" ">
<polygon fill="white" stroke="#bfbfbf" points="213.5,-56.5 213.5,-75.5 257.5,-75.5 257.5,-56.5 213.5,-56.5"/>
<text text-anchor="middle" x="235.5" y="-63.5" font-family="Helvetica,sans-Serif" font-size="10.00">string</text>
</a>
</g>
</g>
<!-- Node7&#45;&gt;Node8 -->
<g id="edge8" class="edge">
<title>Node7&#45;&gt;Node8</title>
<path fill="none" stroke="midnightblue" d="M240.51,-112.08C239.71,-104.93 238.57,-94.64 237.58,-85.69"/>
<polygon fill="midnightblue" stroke="midnightblue" points="241.06,-85.3 236.47,-75.75 234.1,-86.08 241.06,-85.3"/>
</g>
<!-- Node9 -->
<g id="node9" class="node">
<title>Node9</title>
<g id="a_node9"><a xlink:title=" ">
<polygon fill="white" stroke="#bfbfbf" points="276,-56.5 276,-75.5 323,-75.5 323,-56.5 276,-56.5"/>
<text text-anchor="middle" x="299.5" y="-63.5" font-family="Helvetica,sans-Serif" font-size="10.00">vector</text>
</a>
</g>
</g>
<!-- Node7&#45;&gt;Node9 -->
<g id="edge9" class="edge">
<title>Node7&#45;&gt;Node9</title>
<path fill="none" stroke="midnightblue" d="M250.82,-112.32C259.39,-104.34 272.31,-92.31 282.69,-82.65"/>
<polygon fill="midnightblue" stroke="midnightblue" points="285.08,-85.21 290.01,-75.83 280.31,-80.09 285.08,-85.21"/>
</g>
<!-- Node11 -->
<g id="node11" class="node">
<title>Node11</title>
<g id="a_node11"><a xlink:href="KeyIds_8hpp.xhtml" target="_top" xlink:title=" ">
<polygon fill="white" stroke="black" points="349.5,-56.5 349.5,-75.5 419.5,-75.5 419.5,-56.5 349.5,-56.5"/>
<text text-anchor="middle" x="384.5" y="-63.5" font-family="Helvetica,sans-Serif" font-size="10.00">KeyIds.hpp</text>
</a>
</g>
</g>
<!-- Node10&#45;&gt;Node11 -->
<g id="edge11" class="edge">
<title>Node10&#45;&gt;Node11</title>
<path fill="none" stroke="midnightblue" d="M392.01,-112.08C390.82,-104.93 389.11,-94.64 387.62,-85.69"/>
<polygon fill="midnightblue" stroke="midnightblue" points="391.05,-85.04 385.96,-75.75 384.15,-86.19 391.05,-85.04"/>
</g>
<!-- Node13 -->
<g id="node13" class="node">
<title>Node13</title>
<g id="a_node13"><a xlink:title=" ">
<polygon fill="white" stroke="#bfbfbf" points="438,-56.5 438,-75.5 503,-75.5 503,-56.5 438,-56.5"/>
<text text-anchor="middle" x="470.5" y="-63.5" font-family="Helvetica,sans-Serif" font-size="10.00">functional</text>
</a>
</g>
</g>
<!-- Node10&#45;&gt;Node13 -->
<g id="edge13" class="edge">
<title>Node10&#45;&gt;Node13</title>
<path fill="none" stroke="midnightblue" d="M405.87,-112.32C417.66,-104.06 435.63,-91.45 449.64,-81.63"/>
<polygon fill="midnightblue" stroke="midnightblue" points="451.98,-84.26 458.16,-75.65 447.96,-78.53 451.98,-84.26"/>
</g>
<!-- Node12 -->
<g id="node12" class="node">
<title>Node12</title>
<g id="a_node12"><a xlink:title=" ">
<polygon fill="white" stroke="#bfbfbf" points="356,-0.5 356,-19.5 413,-19.5 413,-0.5 356,-0.5"/>
<text text-anchor="middle" x="384.5" y="-7.5" font-family="Helvetica,sans-Serif" font-size="10.00">ostream</text>
</a>
</g>
</g>
<!-- Node11&#45;&gt;Node12 -->
<g id="edge12" class="edge">
<title>Node11&#45;&gt;Node12</title>
<path fill="none" stroke="midnightblue" d="M384.5,-56.08C384.5,-49.01 384.5,-38.86 384.5,-29.99"/>
<polygon fill="midnightblue" stroke="midnightblue" points="388,-29.75 384.5,-19.75 381,-29.75 388,-29.75"/>
</g>
</g>
</svg>
