<?xml version="1.0" encoding="UTF-8" standalone="no"?>
<!DOCTYPE svg PUBLIC "-//W3C//DTD SVG 1.1//EN"
 "http://www.w3.org/Graphics/SVG/1.1/DTD/svg11.dtd">
<!-- Generated by graphviz version 2.43.0 (0)
 -->
<!-- Title: Task&#45;Tracker&#45;Device/lib/application_business_rules/user_interaction/IKeypad.hpp Pages: 1 -->
<svg width="1210pt" height="417pt"
 viewBox="0.00 0.00 1209.50 417.00" xmlns="http://www.w3.org/2000/svg" xmlns:xlink="http://www.w3.org/1999/xlink">
<g id="graph0" class="graph" transform="scale(1 1) rotate(0) translate(4 413)">
<title>Task&#45;Tracker&#45;Device/lib/application_business_rules/user_interaction/IKeypad.hpp</title>
<polygon fill="white" stroke="transparent" points="-4,4 -4,-413 1205.5,-413 1205.5,4 -4,4"/>
<!-- Node1 -->
<g id="node1" class="node">
<title>Node1</title>
<g id="a_node1"><a xlink:title=" ">
<polygon fill="#bfbfbf" stroke="black" points="588,-356.5 588,-408.5 725,-408.5 725,-356.5 588,-356.5"/>
<text text-anchor="start" x="596" y="-396.5" font-family="Helvetica,sans-Serif" font-size="10.00">Task&#45;Tracker&#45;Device</text>
<text text-anchor="start" x="596" y="-385.5" font-family="Helvetica,sans-Serif" font-size="10.00">/lib/application_business</text>
<text text-anchor="start" x="596" y="-374.5" font-family="Helvetica,sans-Serif" font-size="10.00">_rules/user_interaction</text>
<text text-anchor="middle" x="656.5" y="-363.5" font-family="Helvetica,sans-Serif" font-size="10.00">/IKeypad.hpp</text>
</a>
</g>
</g>
<!-- Node2 -->
<g id="node2" class="node">
<title>Node2</title>
<g id="a_node2"><a xlink:href="IGuiEngine_8hpp.xhtml" target="_top" xlink:title=" ">
<polygon fill="white" stroke="black" points="269,-267.5 269,-319.5 406,-319.5 406,-267.5 269,-267.5"/>
<text text-anchor="start" x="277" y="-307.5" font-family="Helvetica,sans-Serif" font-size="10.00">Task&#45;Tracker&#45;Device</text>
<text text-anchor="start" x="277" y="-296.5" font-family="Helvetica,sans-Serif" font-size="10.00">/lib/application_business</text>
<text text-anchor="start" x="277" y="-285.5" font-family="Helvetica,sans-Serif" font-size="10.00">_rules/user_interaction</text>
<text text-anchor="middle" x="337.5" y="-274.5" font-family="Helvetica,sans-Serif" font-size="10.00">/IGuiEngine.hpp</text>
</a>
</g>
</g>
<!-- Node1&#45;&gt;Node2 -->
<g id="edge1" class="edge">
<title>Node1&#45;&gt;Node2</title>
<path fill="none" stroke="midnightblue" d="M577.71,-360.01C525.1,-345.66 456.59,-326.98 406.2,-313.24"/>
<polygon fill="midnightblue" stroke="midnightblue" points="577.11,-363.47 587.67,-362.73 578.95,-356.72 577.11,-363.47"/>
</g>
<!-- Node8 -->
<g id="node8" class="node">
<title>Node8</title>
<g id="a_node8"><a xlink:href="Menu_8hpp.xhtml" target="_top" xlink:title=" ">
<polygon fill="white" stroke="black" points="400,-178.5 400,-230.5 537,-230.5 537,-178.5 400,-178.5"/>
<text text-anchor="start" x="408" y="-218.5" font-family="Helvetica,sans-Serif" font-size="10.00">Task&#45;Tracker&#45;Device</text>
<text text-anchor="start" x="408" y="-207.5" font-family="Helvetica,sans-Serif" font-size="10.00">/lib/application_business</text>
<text text-anchor="start" x="408" y="-196.5" font-family="Helvetica,sans-Serif" font-size="10.00">_rules/user_interaction</text>
<text text-anchor="middle" x="468.5" y="-185.5" font-family="Helvetica,sans-Serif" font-size="10.00">/Menu.hpp</text>
</a>
</g>
</g>
<!-- Node1&#45;&gt;Node8 -->
<g id="edge18" class="edge">
<title>Node1&#45;&gt;Node8</title>
<path fill="none" stroke="midnightblue" d="M622.1,-349.3C585.61,-315.14 528.73,-261.88 495.39,-230.67"/>
<polygon fill="midnightblue" stroke="midnightblue" points="619.87,-352 629.56,-356.28 624.66,-346.89 619.87,-352"/>
</g>
<!-- Node12 -->
<g id="node12" class="node">
<title>Node12</title>
<g id="a_node12"><a xlink:href="keypad__factory__interface_8hpp.xhtml" target="_top" xlink:title="Dependency injection for the keypad.">
<polygon fill="white" stroke="black" points="629.5,-267.5 629.5,-319.5 793.5,-319.5 793.5,-267.5 629.5,-267.5"/>
<text text-anchor="start" x="637.5" y="-307.5" font-family="Helvetica,sans-Serif" font-size="10.00">Task&#45;Tracker&#45;Device</text>
<text text-anchor="start" x="637.5" y="-296.5" font-family="Helvetica,sans-Serif" font-size="10.00">/lib/application_business</text>
<text text-anchor="start" x="637.5" y="-285.5" font-family="Helvetica,sans-Serif" font-size="10.00">_rules/user_interaction</text>
<text text-anchor="middle" x="711.5" y="-274.5" font-family="Helvetica,sans-Serif" font-size="10.00">/keypad_factory_interface.hpp</text>
</a>
</g>
</g>
<!-- Node1&#45;&gt;Node12 -->
<g id="edge14" class="edge">
<title>Node1&#45;&gt;Node12</title>
<path fill="none" stroke="midnightblue" d="M677.91,-347.64C683.81,-338.31 690.1,-328.35 695.63,-319.61"/>
<polygon fill="midnightblue" stroke="midnightblue" points="674.79,-346.01 672.41,-356.34 680.71,-349.75 674.79,-346.01"/>
</g>
<!-- Node14 -->
<g id="node14" class="node">
<title>Node14</title>
<g id="a_node14"><a xlink:href="test__hmi_8cpp.xhtml" target="_top" xlink:title=" ">
<polygon fill="white" stroke="black" points="555.5,-184 555.5,-225 683.5,-225 683.5,-184 555.5,-184"/>
<text text-anchor="start" x="563.5" y="-213" font-family="Helvetica,sans-Serif" font-size="10.00">Task&#45;Tracker&#45;Device</text>
<text text-anchor="start" x="563.5" y="-202" font-family="Helvetica,sans-Serif" font-size="10.00">/test/hmi/test_hmi/test</text>
<text text-anchor="middle" x="619.5" y="-191" font-family="Helvetica,sans-Serif" font-size="10.00">_hmi.cpp</text>
</a>
</g>
</g>
<!-- Node1&#45;&gt;Node14 -->
<g id="edge24" class="edge">
<title>Node1&#45;&gt;Node14</title>
<path fill="none" stroke="midnightblue" d="M632.47,-347.6C627.57,-338.98 623.11,-329.47 620.5,-320 611.62,-287.81 613.96,-248.56 616.62,-225.37"/>
<polygon fill="midnightblue" stroke="midnightblue" points="629.52,-349.48 637.69,-356.22 635.5,-345.85 629.52,-349.48"/>
</g>
<!-- Node15 -->
<g id="node15" class="node">
<title>Node15</title>
<g id="a_node15"><a xlink:href="ProcessHmiInputs_8cpp.xhtml" target="_top" xlink:title=" ">
<polygon fill="white" stroke="black" points="961,-267.5 961,-319.5 1098,-319.5 1098,-267.5 961,-267.5"/>
<text text-anchor="start" x="969" y="-307.5" font-family="Helvetica,sans-Serif" font-size="10.00">Task&#45;Tracker&#45;Device</text>
<text text-anchor="start" x="969" y="-296.5" font-family="Helvetica,sans-Serif" font-size="10.00">/lib/application_business</text>
<text text-anchor="start" x="969" y="-285.5" font-family="Helvetica,sans-Serif" font-size="10.00">_rules/user_interaction</text>
<text text-anchor="middle" x="1029.5" y="-274.5" font-family="Helvetica,sans-Serif" font-size="10.00">/ProcessHmiInputs.cpp</text>
</a>
</g>
</g>
<!-- Node1&#45;&gt;Node15 -->
<g id="edge19" class="edge">
<title>Node1&#45;&gt;Node15</title>
<path fill="none" stroke="midnightblue" d="M735.37,-367.67C795.34,-356.54 879.66,-339.56 952.5,-320 955.22,-319.27 957.99,-318.5 960.77,-317.7"/>
<polygon fill="midnightblue" stroke="midnightblue" points="734.41,-364.29 725.21,-369.54 735.68,-371.17 734.41,-364.29"/>
</g>
<!-- Node16 -->
<g id="node16" class="node">
<title>Node16</title>
<g id="a_node16"><a xlink:href="Keypad_8hpp.xhtml" target="_top" xlink:title=" ">
<polygon fill="white" stroke="black" points="812,-267.5 812,-319.5 943,-319.5 943,-267.5 812,-267.5"/>
<text text-anchor="start" x="820" y="-307.5" font-family="Helvetica,sans-Serif" font-size="10.00">Task&#45;Tracker&#45;Device</text>
<text text-anchor="start" x="820" y="-296.5" font-family="Helvetica,sans-Serif" font-size="10.00">/lib/board_adapters</text>
<text text-anchor="start" x="820" y="-285.5" font-family="Helvetica,sans-Serif" font-size="10.00">/input_device_interface</text>
<text text-anchor="middle" x="877.5" y="-274.5" font-family="Helvetica,sans-Serif" font-size="10.00">/Keypad.hpp</text>
</a>
</g>
</g>
<!-- Node1&#45;&gt;Node16 -->
<g id="edge20" class="edge">
<title>Node1&#45;&gt;Node16</title>
<path fill="none" stroke="midnightblue" d="M729.62,-352.72C756.89,-341.98 787.6,-329.89 813.94,-319.52"/>
<polygon fill="midnightblue" stroke="midnightblue" points="728.15,-349.53 720.13,-356.45 730.71,-356.05 728.15,-349.53"/>
</g>
<!-- Node3 -->
<g id="node3" class="node">
<title>Node3</title>
<g id="a_node3"><a xlink:href="GuiEngine_8hpp.xhtml" target="_top" xlink:title=" ">
<polygon fill="white" stroke="black" points="58,-184 58,-225 187,-225 187,-184 58,-184"/>
<text text-anchor="start" x="66" y="-213" font-family="Helvetica,sans-Serif" font-size="10.00">Task&#45;Tracker&#45;Device</text>
<text text-anchor="start" x="66" y="-202" font-family="Helvetica,sans-Serif" font-size="10.00">/lib/3rd_party_adapters</text>
<text text-anchor="middle" x="122.5" y="-191" font-family="Helvetica,sans-Serif" font-size="10.00">/LVGL/GuiEngine.hpp</text>
</a>
</g>
</g>
<!-- Node2&#45;&gt;Node3 -->
<g id="edge2" class="edge">
<title>Node2&#45;&gt;Node3</title>
<path fill="none" stroke="midnightblue" d="M266.08,-263.6C234.87,-250.97 199.06,-236.48 171.02,-225.13"/>
<polygon fill="midnightblue" stroke="midnightblue" points="265.02,-266.95 275.6,-267.45 267.64,-260.46 265.02,-266.95"/>
</g>
<!-- Node6 -->
<g id="node6" class="node">
<title>Node6</title>
<g id="a_node6"><a xlink:href="guiEngine__factory__interface_8hpp.xhtml" target="_top" xlink:title="Dependency injection for the guiEngine.">
<polygon fill="white" stroke="black" points="205,-178.5 205,-230.5 382,-230.5 382,-178.5 205,-178.5"/>
<text text-anchor="start" x="213" y="-218.5" font-family="Helvetica,sans-Serif" font-size="10.00">Task&#45;Tracker&#45;Device</text>
<text text-anchor="start" x="213" y="-207.5" font-family="Helvetica,sans-Serif" font-size="10.00">/lib/application_business</text>
<text text-anchor="start" x="213" y="-196.5" font-family="Helvetica,sans-Serif" font-size="10.00">_rules/user_interaction</text>
<text text-anchor="middle" x="293.5" y="-185.5" font-family="Helvetica,sans-Serif" font-size="10.00">/guiEngine_factory_interface.hpp</text>
</a>
</g>
</g>
<!-- Node2&#45;&gt;Node6 -->
<g id="edge5" class="edge">
<title>Node2&#45;&gt;Node6</title>
<path fill="none" stroke="midnightblue" d="M320.23,-258.35C315.55,-249.1 310.57,-239.26 306.2,-230.61"/>
<polygon fill="midnightblue" stroke="midnightblue" points="317.14,-259.99 324.77,-267.34 323.38,-256.83 317.14,-259.99"/>
</g>
<!-- Node2&#45;&gt;Node8 -->
<g id="edge8" class="edge">
<title>Node2&#45;&gt;Node8</title>
<path fill="none" stroke="midnightblue" d="M383.75,-261.79C399.12,-251.58 416.04,-240.34 430.69,-230.61"/>
<polygon fill="midnightblue" stroke="midnightblue" points="381.78,-258.89 375.39,-267.34 385.66,-264.72 381.78,-258.89"/>
</g>
<!-- Node4 -->
<g id="node4" class="node">
<title>Node4</title>
<g id="a_node4"><a xlink:href="GuiEngine_8cpp.xhtml" target="_top" xlink:title="Connects LVGL callbacks to display driver and input device.">
<polygon fill="white" stroke="black" points="0,-95 0,-136 129,-136 129,-95 0,-95"/>
<text text-anchor="start" x="8" y="-124" font-family="Helvetica,sans-Serif" font-size="10.00">Task&#45;Tracker&#45;Device</text>
<text text-anchor="start" x="8" y="-113" font-family="Helvetica,sans-Serif" font-size="10.00">/lib/3rd_party_adapters</text>
<text text-anchor="middle" x="64.5" y="-102" font-family="Helvetica,sans-Serif" font-size="10.00">/LVGL/GuiEngine.cpp</text>
</a>
</g>
</g>
<!-- Node3&#45;&gt;Node4 -->
<g id="edge3" class="edge">
<title>Node3&#45;&gt;Node4</title>
<path fill="none" stroke="midnightblue" d="M103.7,-175.3C95.18,-162.52 85.31,-147.72 77.61,-136.16"/>
<polygon fill="midnightblue" stroke="midnightblue" points="100.88,-177.38 109.34,-183.76 106.7,-173.5 100.88,-177.38"/>
</g>
<!-- Node5 -->
<g id="node5" class="node">
<title>Node5</title>
<g id="a_node5"><a xlink:href="guiEngine__factory__interface_8cpp.xhtml" target="_top" xlink:title=" ">
<polygon fill="white" stroke="black" points="147.5,-89.5 147.5,-141.5 281.5,-141.5 281.5,-89.5 147.5,-89.5"/>
<text text-anchor="start" x="155.5" y="-129.5" font-family="Helvetica,sans-Serif" font-size="10.00">Task&#45;Tracker&#45;Device</text>
<text text-anchor="start" x="155.5" y="-118.5" font-family="Helvetica,sans-Serif" font-size="10.00">/lib/3rd_party_adapters</text>
<text text-anchor="start" x="155.5" y="-107.5" font-family="Helvetica,sans-Serif" font-size="10.00">/LVGL/guiEngine_factory</text>
<text text-anchor="middle" x="214.5" y="-96.5" font-family="Helvetica,sans-Serif" font-size="10.00">_interface.cpp</text>
</a>
</g>
</g>
<!-- Node3&#45;&gt;Node5 -->
<g id="edge4" class="edge">
<title>Node3&#45;&gt;Node5</title>
<path fill="none" stroke="midnightblue" d="M150.81,-176.73C162.57,-165.6 176.16,-152.75 187.76,-141.79"/>
<polygon fill="midnightblue" stroke="midnightblue" points="148.24,-174.34 143.38,-183.76 153.05,-179.43 148.24,-174.34"/>
</g>
<!-- Node6&#45;&gt;Node5 -->
<g id="edge6" class="edge">
<title>Node6&#45;&gt;Node5</title>
<path fill="none" stroke="midnightblue" d="M263.8,-170.79C255.03,-161.13 245.56,-150.71 237.3,-141.61"/>
<polygon fill="midnightblue" stroke="midnightblue" points="261.34,-173.29 270.65,-178.34 266.52,-168.58 261.34,-173.29"/>
</g>
<!-- Node7 -->
<g id="node7" class="node">
<title>Node7</title>
<g id="a_node7"><a xlink:href="main_8cpp.xhtml" target="_top" xlink:title=" ">
<polygon fill="white" stroke="black" points="547,-11.5 547,-41.5 660,-41.5 660,-11.5 547,-11.5"/>
<text text-anchor="start" x="555" y="-29.5" font-family="Helvetica,sans-Serif" font-size="10.00">Task&#45;Tracker&#45;Device</text>
<text text-anchor="middle" x="603.5" y="-18.5" font-family="Helvetica,sans-Serif" font-size="10.00">/src/main.cpp</text>
</a>
</g>
</g>
<!-- Node6&#45;&gt;Node7 -->
<g id="edge7" class="edge">
<title>Node6&#45;&gt;Node7</title>
<path fill="none" stroke="midnightblue" d="M295.17,-168.21C298.3,-142.68 306.65,-109.23 328.5,-89 330.53,-87.12 466.78,-57.24 546.71,-39.83"/>
<polygon fill="midnightblue" stroke="midnightblue" points="291.68,-167.96 294.16,-178.26 298.65,-168.66 291.68,-167.96"/>
</g>
<!-- Node8&#45;&gt;Node7 -->
<g id="edge13" class="edge">
<title>Node8&#45;&gt;Node7</title>
<path fill="none" stroke="midnightblue" d="M546.95,-177.34C590.09,-162.58 635.51,-146.25 638.5,-142 660.59,-110.52 632.47,-64.74 615.18,-41.77"/>
<polygon fill="midnightblue" stroke="midnightblue" points="545.56,-174.11 537.22,-180.65 547.82,-180.74 545.56,-174.11"/>
</g>
<!-- Node9 -->
<g id="node9" class="node">
<title>Node9</title>
<g id="a_node9"><a xlink:href="Menu_8cpp.xhtml" target="_top" xlink:title=" ">
<polygon fill="white" stroke="black" points="493,-89.5 493,-141.5 630,-141.5 630,-89.5 493,-89.5"/>
<text text-anchor="start" x="501" y="-129.5" font-family="Helvetica,sans-Serif" font-size="10.00">Task&#45;Tracker&#45;Device</text>
<text text-anchor="start" x="501" y="-118.5" font-family="Helvetica,sans-Serif" font-size="10.00">/lib/application_business</text>
<text text-anchor="start" x="501" y="-107.5" font-family="Helvetica,sans-Serif" font-size="10.00">_rules/user_interaction</text>
<text text-anchor="middle" x="561.5" y="-96.5" font-family="Helvetica,sans-Serif" font-size="10.00">/Menu.cpp</text>
</a>
</g>
</g>
<!-- Node8&#45;&gt;Node9 -->
<g id="edge9" class="edge">
<title>Node8&#45;&gt;Node9</title>
<path fill="none" stroke="midnightblue" d="M502.85,-171.36C513.35,-161.54 524.74,-150.89 534.66,-141.61"/>
<polygon fill="midnightblue" stroke="midnightblue" points="500.31,-168.95 495.4,-178.34 505.09,-174.06 500.31,-168.95"/>
</g>
<!-- Node10 -->
<g id="node10" class="node">
<title>Node10</title>
<g id="a_node10"><a xlink:href="Presenter_8hpp.xhtml" target="_top" xlink:title=" ">
<polygon fill="white" stroke="black" points="338,-89.5 338,-141.5 475,-141.5 475,-89.5 338,-89.5"/>
<text text-anchor="start" x="346" y="-129.5" font-family="Helvetica,sans-Serif" font-size="10.00">Task&#45;Tracker&#45;Device</text>
<text text-anchor="start" x="346" y="-118.5" font-family="Helvetica,sans-Serif" font-size="10.00">/lib/application_business</text>
<text text-anchor="start" x="346" y="-107.5" font-family="Helvetica,sans-Serif" font-size="10.00">_rules/user_interaction</text>
<text text-anchor="middle" x="406.5" y="-96.5" font-family="Helvetica,sans-Serif" font-size="10.00">/Presenter.hpp</text>
</a>
</g>
</g>
<!-- Node8&#45;&gt;Node10 -->
<g id="edge10" class="edge">
<title>Node8&#45;&gt;Node10</title>
<path fill="none" stroke="midnightblue" d="M444.57,-169.93C437.86,-160.51 430.69,-150.44 424.39,-141.61"/>
<polygon fill="midnightblue" stroke="midnightblue" points="441.91,-172.22 450.57,-178.34 447.61,-168.16 441.91,-172.22"/>
</g>
<!-- Node10&#45;&gt;Node7 -->
<g id="edge12" class="edge">
<title>Node10&#45;&gt;Node7</title>
<path fill="none" stroke="midnightblue" d="M472.48,-85.36C505.91,-70.6 544.96,-53.35 571.68,-41.55"/>
<polygon fill="midnightblue" stroke="midnightblue" points="470.95,-82.21 463.22,-89.45 473.78,-88.61 470.95,-82.21"/>
</g>
<!-- Node11 -->
<g id="node11" class="node">
<title>Node11</title>
<g id="a_node11"><a xlink:href="Presenter_8cpp.xhtml" target="_top" xlink:title=" ">
<polygon fill="white" stroke="black" points="338,-0.5 338,-52.5 475,-52.5 475,-0.5 338,-0.5"/>
<text text-anchor="start" x="346" y="-40.5" font-family="Helvetica,sans-Serif" font-size="10.00">Task&#45;Tracker&#45;Device</text>
<text text-anchor="start" x="346" y="-29.5" font-family="Helvetica,sans-Serif" font-size="10.00">/lib/application_business</text>
<text text-anchor="start" x="346" y="-18.5" font-family="Helvetica,sans-Serif" font-size="10.00">_rules/user_interaction</text>
<text text-anchor="middle" x="406.5" y="-7.5" font-family="Helvetica,sans-Serif" font-size="10.00">/Presenter.cpp</text>
</a>
</g>
</g>
<!-- Node10&#45;&gt;Node11 -->
<g id="edge11" class="edge">
<title>Node10&#45;&gt;Node11</title>
<path fill="none" stroke="midnightblue" d="M406.5,-79.19C406.5,-70.28 406.5,-60.9 406.5,-52.61"/>
<polygon fill="midnightblue" stroke="midnightblue" points="403,-79.34 406.5,-89.34 410,-79.34 403,-79.34"/>
</g>
<!-- Node12&#45;&gt;Node7 -->
<g id="edge16" class="edge">
<title>Node12&#45;&gt;Node7</title>
<path fill="none" stroke="midnightblue" d="M708.27,-257.06C703.06,-214.46 689.87,-142.08 657.5,-89 646.55,-71.05 630.21,-53.3 618.38,-41.52"/>
<polygon fill="midnightblue" stroke="midnightblue" points="704.82,-257.68 709.43,-267.22 711.78,-256.89 704.82,-257.68"/>
</g>
<!-- Node13 -->
<g id="node13" class="node">
<title>Node13</title>
<g id="a_node13"><a xlink:href="keypad__factory__interface_8cpp.xhtml" target="_top" xlink:title=" ">
<polygon fill="white" stroke="black" points="739.5,-178.5 739.5,-230.5 903.5,-230.5 903.5,-178.5 739.5,-178.5"/>
<text text-anchor="start" x="747.5" y="-218.5" font-family="Helvetica,sans-Serif" font-size="10.00">Task&#45;Tracker&#45;Device</text>
<text text-anchor="start" x="747.5" y="-207.5" font-family="Helvetica,sans-Serif" font-size="10.00">/lib/board_adapters</text>
<text text-anchor="start" x="747.5" y="-196.5" font-family="Helvetica,sans-Serif" font-size="10.00">/input_device_interface</text>
<text text-anchor="middle" x="821.5" y="-185.5" font-family="Helvetica,sans-Serif" font-size="10.00">/keypad_factory_interface.cpp</text>
</a>
</g>
</g>
<!-- Node12&#45;&gt;Node13 -->
<g id="edge15" class="edge">
<title>Node12&#45;&gt;Node13</title>
<path fill="none" stroke="midnightblue" d="M751.41,-260.93C764.03,-250.96 777.79,-240.07 789.75,-230.61"/>
<polygon fill="midnightblue" stroke="midnightblue" points="748.99,-258.39 743.32,-267.34 753.33,-263.88 748.99,-258.39"/>
</g>
<!-- Node12&#45;&gt;Node14 -->
<g id="edge17" class="edge">
<title>Node12&#45;&gt;Node14</title>
<path fill="none" stroke="midnightblue" d="M677.32,-260.18C664.86,-248.39 651.15,-235.43 640.21,-225.08"/>
<polygon fill="midnightblue" stroke="midnightblue" points="675.22,-263.01 684.89,-267.34 680.03,-257.92 675.22,-263.01"/>
</g>
<!-- Node16&#45;&gt;Node13 -->
<g id="edge22" class="edge">
<title>Node16&#45;&gt;Node13</title>
<path fill="none" stroke="midnightblue" d="M855.89,-258.93C849.83,-249.51 843.35,-239.44 837.66,-230.61"/>
<polygon fill="midnightblue" stroke="midnightblue" points="852.95,-260.82 861.3,-267.34 858.83,-257.03 852.95,-260.82"/>
</g>
<!-- Node17 -->
<g id="node17" class="node">
<title>Node17</title>
<g id="a_node17"><a xlink:href="Keypad_8cpp.xhtml" target="_top" xlink:title=" ">
<polygon fill="white" stroke="black" points="922,-178.5 922,-230.5 1053,-230.5 1053,-178.5 922,-178.5"/>
<text text-anchor="start" x="930" y="-218.5" font-family="Helvetica,sans-Serif" font-size="10.00">Task&#45;Tracker&#45;Device</text>
<text text-anchor="start" x="930" y="-207.5" font-family="Helvetica,sans-Serif" font-size="10.00">/lib/board_adapters</text>
<text text-anchor="start" x="930" y="-196.5" font-family="Helvetica,sans-Serif" font-size="10.00">/input_device_interface</text>
<text text-anchor="middle" x="987.5" y="-185.5" font-family="Helvetica,sans-Serif" font-size="10.00">/Keypad.cpp</text>
</a>
</g>
</g>
<!-- Node16&#45;&gt;Node17 -->
<g id="edge21" class="edge">
<title>Node16&#45;&gt;Node17</title>
<path fill="none" stroke="midnightblue" d="M917.41,-260.93C930.03,-250.96 943.79,-240.07 955.75,-230.61"/>
<polygon fill="midnightblue" stroke="midnightblue" points="914.99,-258.39 909.32,-267.34 919.33,-263.88 914.99,-258.39"/>
</g>
<!-- Node18 -->
<g id="node18" class="node">
<title>Node18</title>
<g id="a_node18"><a xlink:href="test__keyState_8cpp.xhtml" target="_top" xlink:title=" ">
<polygon fill="white" stroke="black" points="1071.5,-184 1071.5,-225 1201.5,-225 1201.5,-184 1071.5,-184"/>
<text text-anchor="start" x="1079.5" y="-213" font-family="Helvetica,sans-Serif" font-size="10.00">Task&#45;Tracker&#45;Device</text>
<text text-anchor="start" x="1079.5" y="-202" font-family="Helvetica,sans-Serif" font-size="10.00">/test/hmi/test_keyState</text>
<text text-anchor="middle" x="1136.5" y="-191" font-family="Helvetica,sans-Serif" font-size="10.00">/test_keyState.cpp</text>
</a>
</g>
</g>
<!-- Node16&#45;&gt;Node18 -->
<g id="edge23" class="edge">
<title>Node16&#45;&gt;Node18</title>
<path fill="none" stroke="midnightblue" d="M953.07,-266.83C1002.88,-250.28 1016.59,-246.42 1062.5,-231 1068.17,-229.1 1074.07,-227.09 1079.97,-225.08"/>
<polygon fill="midnightblue" stroke="midnightblue" points="951.72,-263.59 943.34,-270.07 953.93,-270.23 951.72,-263.59"/>
</g>
</g>
</svg>
