<?xml version="1.0" encoding="UTF-8" standalone="no"?>
<!DOCTYPE svg PUBLIC "-//W3C//DTD SVG 1.1//EN"
 "http://www.w3.org/Graphics/SVG/1.1/DTD/svg11.dtd">
<!-- Generated by graphviz version 2.43.0 (0)
 -->
<!-- Title: lib/3rd_party_adapters/nlohmann/JsonGenerator.cpp Pages: 1 -->
<svg width="684pt" height="218pt"
 viewBox="0.00 0.00 684.00 218.00" xmlns="http://www.w3.org/2000/svg" xmlns:xlink="http://www.w3.org/1999/xlink">
<g id="graph0" class="graph" transform="scale(1 1) rotate(0) translate(4 214)">
<title>lib/3rd_party_adapters/nlohmann/JsonGenerator.cpp</title>
<polygon fill="white" stroke="transparent" points="-4,4 -4,-214 680,-214 680,4 -4,4"/>
<!-- Node1 -->
<g id="node1" class="node">
<title>Node1</title>
<g id="a_node1"><a xlink:title=" ">
<polygon fill="#bfbfbf" stroke="black" points="242,-179.5 242,-209.5 402,-209.5 402,-179.5 242,-179.5"/>
<text text-anchor="start" x="250" y="-197.5" font-family="Helvetica,sans-Serif" font-size="10.00">lib/3rd_party_adapters</text>
<text text-anchor="middle" x="322" y="-186.5" font-family="Helvetica,sans-Serif" font-size="10.00">/nlohmann/JsonGenerator.cpp</text>
</a>
</g>
</g>
<!-- Node2 -->
<g id="node2" class="node">
<title>Node2</title>
<g id="a_node2"><a xlink:title=" ">
<polygon fill="white" stroke="#bfbfbf" points="0,-118 0,-137 110,-137 110,-118 0,-118"/>
<text text-anchor="middle" x="55" y="-125" font-family="Helvetica,sans-Serif" font-size="10.00">nlohmann/json.hpp</text>
</a>
</g>
</g>
<!-- Node1&#45;&gt;Node2 -->
<g id="edge1" class="edge">
<title>Node1&#45;&gt;Node2</title>
<path fill="none" stroke="midnightblue" d="M264.39,-179.48C215.08,-167.47 145.08,-150.43 99.85,-139.42"/>
<polygon fill="midnightblue" stroke="midnightblue" points="100.58,-135.99 90.03,-137.03 98.92,-142.79 100.58,-135.99"/>
</g>
<!-- Node3 -->
<g id="node3" class="node">
<title>Node3</title>
<g id="a_node3"><a xlink:href="JsonGenerator_8hpp.xhtml" target="_top" xlink:title="Interface to JSON serializer.">
<polygon fill="white" stroke="black" points="109.5,-56.5 109.5,-75.5 294.5,-75.5 294.5,-56.5 109.5,-56.5"/>
<text text-anchor="middle" x="202" y="-63.5" font-family="Helvetica,sans-Serif" font-size="10.00">serial_interface/JsonGenerator.hpp</text>
</a>
</g>
</g>
<!-- Node1&#45;&gt;Node3 -->
<g id="edge2" class="edge">
<title>Node1&#45;&gt;Node3</title>
<path fill="none" stroke="midnightblue" d="M241.76,-188.89C210.12,-182.66 176.69,-169.61 157,-143 142.21,-123.01 164.22,-97.85 182.33,-82.09"/>
<polygon fill="midnightblue" stroke="midnightblue" points="184.76,-84.63 190.24,-75.56 180.3,-79.23 184.76,-84.63"/>
</g>
<!-- Node5 -->
<g id="node5" class="node">
<title>Node5</title>
<g id="a_node5"><a xlink:href="DeletedTaskObject_8hpp.xhtml" target="_top" xlink:title=" ">
<polygon fill="white" stroke="black" points="166,-112.5 166,-142.5 318,-142.5 318,-112.5 166,-112.5"/>
<text text-anchor="start" x="174" y="-130.5" font-family="Helvetica,sans-Serif" font-size="10.00">serial_protocol/DeletedTask</text>
<text text-anchor="middle" x="242" y="-119.5" font-family="Helvetica,sans-Serif" font-size="10.00">Object.hpp</text>
</a>
</g>
</g>
<!-- Node1&#45;&gt;Node5 -->
<g id="edge4" class="edge">
<title>Node1&#45;&gt;Node5</title>
<path fill="none" stroke="midnightblue" d="M304.64,-179.4C293.74,-170.54 279.49,-158.96 267.34,-149.09"/>
<polygon fill="midnightblue" stroke="midnightblue" points="269.29,-146.17 259.32,-142.58 264.88,-151.6 269.29,-146.17"/>
</g>
<!-- Node6 -->
<g id="node6" class="node">
<title>Node6</title>
<g id="a_node6"><a xlink:href="ProtocolVersionObject_8hpp.xhtml" target="_top" xlink:title=" ">
<polygon fill="white" stroke="black" points="336.5,-112.5 336.5,-142.5 467.5,-142.5 467.5,-112.5 336.5,-112.5"/>
<text text-anchor="start" x="344.5" y="-130.5" font-family="Helvetica,sans-Serif" font-size="10.00">serial_protocol/Protocol</text>
<text text-anchor="middle" x="402" y="-119.5" font-family="Helvetica,sans-Serif" font-size="10.00">VersionObject.hpp</text>
</a>
</g>
</g>
<!-- Node1&#45;&gt;Node6 -->
<g id="edge5" class="edge">
<title>Node1&#45;&gt;Node6</title>
<path fill="none" stroke="midnightblue" d="M339.36,-179.4C350.26,-170.54 364.51,-158.96 376.66,-149.09"/>
<polygon fill="midnightblue" stroke="midnightblue" points="379.12,-151.6 384.68,-142.58 374.71,-146.17 379.12,-151.6"/>
</g>
<!-- Node8 -->
<g id="node8" class="node">
<title>Node8</title>
<g id="a_node8"><a xlink:href="TaskList_8hpp.xhtml" target="_top" xlink:title=" ">
<polygon fill="white" stroke="black" points="524,-118 524,-137 676,-137 676,-118 524,-118"/>
<text text-anchor="middle" x="600" y="-125" font-family="Helvetica,sans-Serif" font-size="10.00">serial_protocol/TaskList.hpp</text>
</a>
</g>
</g>
<!-- Node1&#45;&gt;Node8 -->
<g id="edge7" class="edge">
<title>Node1&#45;&gt;Node8</title>
<path fill="none" stroke="midnightblue" d="M381.98,-179.48C433.43,-167.45 506.52,-150.36 553.6,-139.35"/>
<polygon fill="midnightblue" stroke="midnightblue" points="554.58,-142.71 563.52,-137.03 552.99,-135.9 554.58,-142.71"/>
</g>
<!-- Node9 -->
<g id="node9" class="node">
<title>Node9</title>
<g id="a_node9"><a xlink:href="TaskObject_8hpp.xhtml" target="_top" xlink:title=" ">
<polygon fill="white" stroke="black" points="450.5,-56.5 450.5,-75.5 541.5,-75.5 541.5,-56.5 450.5,-56.5"/>
<text text-anchor="middle" x="496" y="-63.5" font-family="Helvetica,sans-Serif" font-size="10.00">TaskObject.hpp</text>
</a>
</g>
</g>
<!-- Node1&#45;&gt;Node9 -->
<g id="edge12" class="edge">
<title>Node1&#45;&gt;Node9</title>
<path fill="none" stroke="midnightblue" d="M402.37,-182.91C428.99,-175.66 456.71,-163.48 476,-143 490.44,-127.67 494.74,-103.19 495.88,-86.17"/>
<polygon fill="midnightblue" stroke="midnightblue" points="499.39,-85.9 496.24,-75.79 492.39,-85.66 499.39,-85.9"/>
</g>
<!-- Node4 -->
<g id="node4" class="node">
<title>Node4</title>
<g id="a_node4"><a xlink:title=" ">
<polygon fill="white" stroke="#bfbfbf" points="295,-0.5 295,-19.5 339,-19.5 339,-0.5 295,-0.5"/>
<text text-anchor="middle" x="317" y="-7.5" font-family="Helvetica,sans-Serif" font-size="10.00">string</text>
</a>
</g>
</g>
<!-- Node3&#45;&gt;Node4 -->
<g id="edge3" class="edge">
<title>Node3&#45;&gt;Node4</title>
<path fill="none" stroke="midnightblue" d="M220.22,-56.44C238.9,-47.68 268.16,-33.94 289.62,-23.86"/>
<polygon fill="midnightblue" stroke="midnightblue" points="291.3,-26.93 298.86,-19.52 288.32,-20.6 291.3,-26.93"/>
</g>
<!-- Node7 -->
<g id="node7" class="node">
<title>Node7</title>
<g id="a_node7"><a xlink:title=" ">
<polygon fill="white" stroke="#bfbfbf" points="377,-56.5 377,-75.5 427,-75.5 427,-56.5 377,-56.5"/>
<text text-anchor="middle" x="402" y="-63.5" font-family="Helvetica,sans-Serif" font-size="10.00">cstdint</text>
</a>
</g>
</g>
<!-- Node6&#45;&gt;Node7 -->
<g id="edge6" class="edge">
<title>Node6&#45;&gt;Node7</title>
<path fill="none" stroke="midnightblue" d="M402,-112.4C402,-104.47 402,-94.46 402,-85.86"/>
<polygon fill="midnightblue" stroke="midnightblue" points="405.5,-85.66 402,-75.66 398.5,-85.66 405.5,-85.66"/>
</g>
<!-- Node8&#45;&gt;Node9 -->
<g id="edge8" class="edge">
<title>Node8&#45;&gt;Node9</title>
<path fill="none" stroke="midnightblue" d="M585.1,-117.98C568.03,-108.21 539.84,-92.08 519.74,-80.58"/>
<polygon fill="midnightblue" stroke="midnightblue" points="521.29,-77.44 510.87,-75.51 517.81,-83.51 521.29,-77.44"/>
</g>
<!-- Node11 -->
<g id="node11" class="node">
<title>Node11</title>
<g id="a_node11"><a xlink:title=" ">
<polygon fill="white" stroke="#bfbfbf" points="576.5,-56.5 576.5,-75.5 623.5,-75.5 623.5,-56.5 576.5,-56.5"/>
<text text-anchor="middle" x="600" y="-63.5" font-family="Helvetica,sans-Serif" font-size="10.00">vector</text>
</a>
</g>
</g>
<!-- Node8&#45;&gt;Node11 -->
<g id="edge11" class="edge">
<title>Node8&#45;&gt;Node11</title>
<path fill="none" stroke="midnightblue" d="M600,-117.98C600,-109.58 600,-96.48 600,-85.66"/>
<polygon fill="midnightblue" stroke="midnightblue" points="603.5,-85.51 600,-75.51 596.5,-85.51 603.5,-85.51"/>
</g>
<!-- Node9&#45;&gt;Node4 -->
<g id="edge10" class="edge">
<title>Node9&#45;&gt;Node4</title>
<path fill="none" stroke="midnightblue" d="M467.64,-56.44C435.3,-46.69 382.56,-30.78 348.83,-20.6"/>
<polygon fill="midnightblue" stroke="midnightblue" points="349.61,-17.18 339.02,-17.64 347.59,-23.88 349.61,-17.18"/>
</g>
<!-- Node10 -->
<g id="node10" class="node">
<title>Node10</title>
<g id="a_node10"><a xlink:title=" ">
<polygon fill="white" stroke="#bfbfbf" points="471,-0.5 471,-19.5 521,-19.5 521,-0.5 471,-0.5"/>
<text text-anchor="middle" x="496" y="-7.5" font-family="Helvetica,sans-Serif" font-size="10.00">chrono</text>
</a>
</g>
</g>
<!-- Node9&#45;&gt;Node10 -->
<g id="edge9" class="edge">
<title>Node9&#45;&gt;Node10</title>
<path fill="none" stroke="midnightblue" d="M496,-56.08C496,-49.01 496,-38.86 496,-29.99"/>
<polygon fill="midnightblue" stroke="midnightblue" points="499.5,-29.75 496,-19.75 492.5,-29.75 499.5,-29.75"/>
</g>
</g>
</svg>
