<?xml version="1.0" encoding="UTF-8" standalone="no"?>
<!DOCTYPE svg PUBLIC "-//W3C//DTD SVG 1.1//EN"
 "http://www.w3.org/Graphics/SVG/1.1/DTD/svg11.dtd">
<!-- Generated by graphviz version 2.43.0 (0)
 -->
<!-- Title: Task&#45;Tracker&#45;Device/lib/3rd_party_adapters/nlohmann/JsonGenerator.cpp Pages: 1 -->
<svg width="759pt" height="229pt"
 viewBox="0.00 0.00 759.00 229.00" xmlns="http://www.w3.org/2000/svg" xmlns:xlink="http://www.w3.org/1999/xlink">
<g id="graph0" class="graph" transform="scale(1 1) rotate(0) translate(4 225)">
<title>Task&#45;Tracker&#45;Device/lib/3rd_party_adapters/nlohmann/JsonGenerator.cpp</title>
<polygon fill="white" stroke="transparent" points="-4,4 -4,-225 755,-225 755,4 -4,4"/>
<!-- Node1 -->
<g id="node1" class="node">
<title>Node1</title>
<g id="a_node1"><a xlink:title=" ">
<polygon fill="#bfbfbf" stroke="black" points="237.5,-179.5 237.5,-220.5 397.5,-220.5 397.5,-179.5 237.5,-179.5"/>
<text text-anchor="start" x="245.5" y="-208.5" font-family="Helvetica,sans-Serif" font-size="10.00">Task&#45;Tracker&#45;Device</text>
<text text-anchor="start" x="245.5" y="-197.5" font-family="Helvetica,sans-Serif" font-size="10.00">/lib/3rd_party_adapters</text>
<text text-anchor="middle" x="317.5" y="-186.5" font-family="Helvetica,sans-Serif" font-size="10.00">/nlohmann/JsonGenerator.cpp</text>
</a>
</g>
</g>
<!-- Node2 -->
<g id="node2" class="node">
<title>Node2</title>
<g id="a_node2"><a xlink:title=" ">
<polygon fill="white" stroke="#bfbfbf" points="37.5,-118 37.5,-137 147.5,-137 147.5,-118 37.5,-118"/>
<text text-anchor="middle" x="92.5" y="-125" font-family="Helvetica,sans-Serif" font-size="10.00">nlohmann/json.hpp</text>
</a>
</g>
</g>
<!-- Node1&#45;&gt;Node2 -->
<g id="edge1" class="edge">
<title>Node1&#45;&gt;Node2</title>
<path fill="none" stroke="midnightblue" d="M255.12,-179.46C214.64,-166.77 163.27,-150.68 129.22,-140.01"/>
<polygon fill="midnightblue" stroke="midnightblue" points="130.26,-136.66 119.67,-137.01 128.17,-143.34 130.26,-136.66"/>
</g>
<!-- Node3 -->
<g id="node3" class="node">
<title>Node3</title>
<g id="a_node3"><a xlink:href="JsonGenerator_8hpp.xhtml" target="_top" xlink:title="Interface to JSON serializer.">
<polygon fill="white" stroke="black" points="0,-56.5 0,-75.5 185,-75.5 185,-56.5 0,-56.5"/>
<text text-anchor="middle" x="92.5" y="-63.5" font-family="Helvetica,sans-Serif" font-size="10.00">serial_interface/JsonGenerator.hpp</text>
</a>
</g>
</g>
<!-- Node1&#45;&gt;Node3 -->
<g id="edge2" class="edge">
<title>Node1&#45;&gt;Node3</title>
<path fill="none" stroke="midnightblue" d="M283.82,-179.24C237.62,-152.14 155.81,-104.14 115.81,-80.68"/>
<polygon fill="midnightblue" stroke="midnightblue" points="117.44,-77.57 107.04,-75.53 113.9,-83.61 117.44,-77.57"/>
</g>
<!-- Node5 -->
<g id="node5" class="node">
<title>Node5</title>
<g id="a_node5"><a xlink:href="DeletedTaskObject_8hpp.xhtml" target="_top" xlink:title=" ">
<polygon fill="white" stroke="black" points="449.5,-112.5 449.5,-142.5 601.5,-142.5 601.5,-112.5 449.5,-112.5"/>
<text text-anchor="start" x="457.5" y="-130.5" font-family="Helvetica,sans-Serif" font-size="10.00">serial_protocol/DeletedTask</text>
<text text-anchor="middle" x="525.5" y="-119.5" font-family="Helvetica,sans-Serif" font-size="10.00">Object.hpp</text>
</a>
</g>
</g>
<!-- Node1&#45;&gt;Node5 -->
<g id="edge4" class="edge">
<title>Node1&#45;&gt;Node5</title>
<path fill="none" stroke="midnightblue" d="M375.16,-179.46C406.16,-168.95 444.07,-156.1 474.06,-145.93"/>
<polygon fill="midnightblue" stroke="midnightblue" points="475.56,-149.12 483.91,-142.6 473.32,-142.49 475.56,-149.12"/>
</g>
<!-- Node6 -->
<g id="node6" class="node">
<title>Node6</title>
<g id="a_node6"><a xlink:href="ProtocolVersionObject_8hpp.xhtml" target="_top" xlink:title=" ">
<polygon fill="white" stroke="black" points="620,-112.5 620,-142.5 751,-142.5 751,-112.5 620,-112.5"/>
<text text-anchor="start" x="628" y="-130.5" font-family="Helvetica,sans-Serif" font-size="10.00">serial_protocol/Protocol</text>
<text text-anchor="middle" x="685.5" y="-119.5" font-family="Helvetica,sans-Serif" font-size="10.00">VersionObject.hpp</text>
</a>
</g>
</g>
<!-- Node1&#45;&gt;Node6 -->
<g id="edge5" class="edge">
<title>Node1&#45;&gt;Node6</title>
<path fill="none" stroke="midnightblue" d="M397.72,-183.72C454.19,-172.94 531.85,-158.11 609.67,-143.16"/>
<polygon fill="midnightblue" stroke="midnightblue" points="610.49,-146.56 619.65,-141.24 609.17,-139.69 610.49,-146.56"/>
</g>
<!-- Node8 -->
<g id="node8" class="node">
<title>Node8</title>
<g id="a_node8"><a xlink:href="TaskList_8hpp.xhtml" target="_top" xlink:title=" ">
<polygon fill="white" stroke="black" points="241.5,-118 241.5,-137 393.5,-137 393.5,-118 241.5,-118"/>
<text text-anchor="middle" x="317.5" y="-125" font-family="Helvetica,sans-Serif" font-size="10.00">serial_protocol/TaskList.hpp</text>
</a>
</g>
</g>
<!-- Node1&#45;&gt;Node8 -->
<g id="edge7" class="edge">
<title>Node1&#45;&gt;Node8</title>
<path fill="none" stroke="midnightblue" d="M317.5,-179.36C317.5,-169.3 317.5,-157.1 317.5,-147.18"/>
<polygon fill="midnightblue" stroke="midnightblue" points="321,-147.17 317.5,-137.17 314,-147.17 321,-147.17"/>
</g>
<!-- Node9 -->
<g id="node9" class="node">
<title>Node9</title>
<g id="a_node9"><a xlink:href="TaskObject_8hpp.xhtml" target="_top" xlink:title=" ">
<polygon fill="white" stroke="black" points="203,-56.5 203,-75.5 294,-75.5 294,-56.5 203,-56.5"/>
<text text-anchor="middle" x="248.5" y="-63.5" font-family="Helvetica,sans-Serif" font-size="10.00">TaskObject.hpp</text>
</a>
</g>
</g>
<!-- Node1&#45;&gt;Node9 -->
<g id="edge12" class="edge">
<title>Node1&#45;&gt;Node9</title>
<path fill="none" stroke="midnightblue" d="M270.61,-179.29C255.68,-170.51 240.88,-158.56 232.5,-143 222.54,-124.52 230.62,-100.41 238.47,-84.35"/>
<polygon fill="midnightblue" stroke="midnightblue" points="241.56,-85.99 243.17,-75.51 235.38,-82.7 241.56,-85.99"/>
</g>
<!-- Node12 -->
<g id="node12" class="node">
<title>Node12</title>
<g id="a_node12"><a xlink:href="Task_8hpp.xhtml" target="_top" xlink:title=" ">
<polygon fill="white" stroke="black" points="377,-56.5 377,-75.5 466,-75.5 466,-56.5 377,-56.5"/>
<text text-anchor="middle" x="421.5" y="-63.5" font-family="Helvetica,sans-Serif" font-size="10.00">tasks/Task.hpp</text>
</a>
</g>
</g>
<!-- Node1&#45;&gt;Node12 -->
<g id="edge13" class="edge">
<title>Node1&#45;&gt;Node12</title>
<path fill="none" stroke="midnightblue" d="M360.13,-179.33C375.54,-170.28 391.77,-158.14 402.5,-143 414.51,-126.05 418.96,-102.27 420.58,-85.84"/>
<polygon fill="midnightblue" stroke="midnightblue" points="424.08,-86.05 421.32,-75.82 417.1,-85.54 424.08,-86.05"/>
</g>
<!-- Node4 -->
<g id="node4" class="node">
<title>Node4</title>
<g id="a_node4"><a xlink:title=" ">
<polygon fill="white" stroke="#bfbfbf" points="226.5,-0.5 226.5,-19.5 270.5,-19.5 270.5,-0.5 226.5,-0.5"/>
<text text-anchor="middle" x="248.5" y="-7.5" font-family="Helvetica,sans-Serif" font-size="10.00">string</text>
</a>
</g>
</g>
<!-- Node3&#45;&gt;Node4 -->
<g id="edge3" class="edge">
<title>Node3&#45;&gt;Node4</title>
<path fill="none" stroke="midnightblue" d="M117.22,-56.44C144.12,-47.13 187.21,-32.22 216.63,-22.03"/>
<polygon fill="midnightblue" stroke="midnightblue" points="218.11,-25.22 226.42,-18.64 215.82,-18.61 218.11,-25.22"/>
</g>
<!-- Node7 -->
<g id="node7" class="node">
<title>Node7</title>
<g id="a_node7"><a xlink:title=" ">
<polygon fill="white" stroke="#bfbfbf" points="660.5,-56.5 660.5,-75.5 710.5,-75.5 710.5,-56.5 660.5,-56.5"/>
<text text-anchor="middle" x="685.5" y="-63.5" font-family="Helvetica,sans-Serif" font-size="10.00">cstdint</text>
</a>
</g>
</g>
<!-- Node6&#45;&gt;Node7 -->
<g id="edge6" class="edge">
<title>Node6&#45;&gt;Node7</title>
<path fill="none" stroke="midnightblue" d="M685.5,-112.4C685.5,-104.47 685.5,-94.46 685.5,-85.86"/>
<polygon fill="midnightblue" stroke="midnightblue" points="689,-85.66 685.5,-75.66 682,-85.66 689,-85.66"/>
</g>
<!-- Node8&#45;&gt;Node9 -->
<g id="edge8" class="edge">
<title>Node8&#45;&gt;Node9</title>
<path fill="none" stroke="midnightblue" d="M307.61,-117.98C296.85,-108.7 279.43,-93.67 266.28,-82.33"/>
<polygon fill="midnightblue" stroke="midnightblue" points="268.23,-79.39 258.37,-75.51 263.66,-84.69 268.23,-79.39"/>
</g>
<!-- Node11 -->
<g id="node11" class="node">
<title>Node11</title>
<g id="a_node11"><a xlink:title=" ">
<polygon fill="white" stroke="#bfbfbf" points="312,-56.5 312,-75.5 359,-75.5 359,-56.5 312,-56.5"/>
<text text-anchor="middle" x="335.5" y="-63.5" font-family="Helvetica,sans-Serif" font-size="10.00">vector</text>
</a>
</g>
</g>
<!-- Node8&#45;&gt;Node11 -->
<g id="edge11" class="edge">
<title>Node8&#45;&gt;Node11</title>
<path fill="none" stroke="midnightblue" d="M320.08,-117.98C322.65,-109.49 326.67,-96.2 329.96,-85.32"/>
<polygon fill="midnightblue" stroke="midnightblue" points="333.38,-86.09 332.93,-75.51 326.68,-84.07 333.38,-86.09"/>
</g>
<!-- Node9&#45;&gt;Node4 -->
<g id="edge10" class="edge">
<title>Node9&#45;&gt;Node4</title>
<path fill="none" stroke="midnightblue" d="M248.5,-56.08C248.5,-49.01 248.5,-38.86 248.5,-29.99"/>
<polygon fill="midnightblue" stroke="midnightblue" points="252,-29.75 248.5,-19.75 245,-29.75 252,-29.75"/>
</g>
<!-- Node10 -->
<g id="node10" class="node">
<title>Node10</title>
<g id="a_node10"><a xlink:title=" ">
<polygon fill="white" stroke="#bfbfbf" points="311.5,-0.5 311.5,-19.5 361.5,-19.5 361.5,-0.5 311.5,-0.5"/>
<text text-anchor="middle" x="336.5" y="-7.5" font-family="Helvetica,sans-Serif" font-size="10.00">chrono</text>
</a>
</g>
</g>
<!-- Node9&#45;&gt;Node10 -->
<g id="edge9" class="edge">
<title>Node9&#45;&gt;Node10</title>
<path fill="none" stroke="midnightblue" d="M262.64,-56.32C276.37,-47.9 297.44,-34.97 313.56,-25.07"/>
<polygon fill="midnightblue" stroke="midnightblue" points="315.7,-27.87 322.4,-19.65 312.04,-21.9 315.7,-27.87"/>
</g>
<!-- Node12&#45;&gt;Node4 -->
<g id="edge16" class="edge">
<title>Node12&#45;&gt;Node4</title>
<path fill="none" stroke="midnightblue" d="M394.09,-56.44C363.22,-46.81 313.14,-31.18 280.5,-20.99"/>
<polygon fill="midnightblue" stroke="midnightblue" points="281.16,-17.53 270.57,-17.89 279.07,-24.21 281.16,-17.53"/>
</g>
<!-- Node12&#45;&gt;Node10 -->
<g id="edge14" class="edge">
<title>Node12&#45;&gt;Node10</title>
<path fill="none" stroke="midnightblue" d="M407.84,-56.32C394.58,-47.9 374.23,-34.97 358.65,-25.07"/>
<polygon fill="midnightblue" stroke="midnightblue" points="360.44,-22.06 350.12,-19.65 356.69,-27.97 360.44,-22.06"/>
</g>
<!-- Node13 -->
<g id="node13" class="node">
<title>Node13</title>
<g id="a_node13"><a xlink:title=" ">
<polygon fill="white" stroke="#bfbfbf" points="402.5,-0.5 402.5,-19.5 440.5,-19.5 440.5,-0.5 402.5,-0.5"/>
<text text-anchor="middle" x="421.5" y="-7.5" font-family="Helvetica,sans-Serif" font-size="10.00">map</text>
</a>
</g>
</g>
<!-- Node12&#45;&gt;Node13 -->
<g id="edge15" class="edge">
<title>Node12&#45;&gt;Node13</title>
<path fill="none" stroke="midnightblue" d="M421.5,-56.08C421.5,-49.01 421.5,-38.86 421.5,-29.99"/>
<polygon fill="midnightblue" stroke="midnightblue" points="425,-29.75 421.5,-19.75 418,-29.75 425,-29.75"/>
</g>
</g>
</svg>
