<?xml version="1.0" encoding="UTF-8" standalone="no"?>
<!DOCTYPE svg PUBLIC "-//W3C//DTD SVG 1.1//EN"
 "http://www.w3.org/Graphics/SVG/1.1/DTD/svg11.dtd">
<!-- Generated by graphviz version 2.43.0 (0)
 -->
<!-- Title: Task&#45;Tracker&#45;Device/lib/application_business_rules/user_interaction/KeyIds.hpp Pages: 1 -->
<svg width="1633pt" height="506pt"
 viewBox="0.00 0.00 1632.50 506.00" xmlns="http://www.w3.org/2000/svg" xmlns:xlink="http://www.w3.org/1999/xlink">
<g id="graph0" class="graph" transform="scale(1 1) rotate(0) translate(4 502)">
<title>Task&#45;Tracker&#45;Device/lib/application_business_rules/user_interaction/KeyIds.hpp</title>
<polygon fill="white" stroke="transparent" points="-4,4 -4,-502 1628.5,-502 1628.5,4 -4,4"/>
<!-- Node1 -->
<g id="node1" class="node">
<title>Node1</title>
<g id="a_node1"><a xlink:title=" ">
<polygon fill="#bfbfbf" stroke="black" points="1155,-445.5 1155,-497.5 1292,-497.5 1292,-445.5 1155,-445.5"/>
<text text-anchor="start" x="1163" y="-485.5" font-family="Helvetica,sans-Serif" font-size="10.00">Task&#45;Tracker&#45;Device</text>
<text text-anchor="start" x="1163" y="-474.5" font-family="Helvetica,sans-Serif" font-size="10.00">/lib/application_business</text>
<text text-anchor="start" x="1163" y="-463.5" font-family="Helvetica,sans-Serif" font-size="10.00">_rules/user_interaction</text>
<text text-anchor="middle" x="1223.5" y="-452.5" font-family="Helvetica,sans-Serif" font-size="10.00">/KeyIds.hpp</text>
</a>
</g>
</g>
<!-- Node2 -->
<g id="node2" class="node">
<title>Node2</title>
<g id="a_node2"><a xlink:href="board__interface_8hpp.xhtml" target="_top" xlink:title=" ">
<polygon fill="white" stroke="black" points="1252,-356.5 1252,-408.5 1389,-408.5 1389,-356.5 1252,-356.5"/>
<text text-anchor="start" x="1260" y="-396.5" font-family="Helvetica,sans-Serif" font-size="10.00">Task&#45;Tracker&#45;Device</text>
<text text-anchor="start" x="1260" y="-385.5" font-family="Helvetica,sans-Serif" font-size="10.00">/lib/application_business</text>
<text text-anchor="start" x="1260" y="-374.5" font-family="Helvetica,sans-Serif" font-size="10.00">_rules/user_interaction</text>
<text text-anchor="middle" x="1320.5" y="-363.5" font-family="Helvetica,sans-Serif" font-size="10.00">/board_interface.hpp</text>
</a>
</g>
</g>
<!-- Node1&#45;&gt;Node2 -->
<g id="edge1" class="edge">
<title>Node1&#45;&gt;Node2</title>
<path fill="none" stroke="midnightblue" d="M1259.01,-438.65C1270.05,-428.75 1282.06,-417.98 1292.51,-408.61"/>
<polygon fill="midnightblue" stroke="midnightblue" points="1256.66,-436.05 1251.56,-445.34 1261.34,-441.26 1256.66,-436.05"/>
</g>
<!-- Node7 -->
<g id="node7" class="node">
<title>Node7</title>
<g id="a_node7"><a xlink:href="IKeypad_8hpp.xhtml" target="_top" xlink:title=" ">
<polygon fill="white" stroke="black" points="664,-356.5 664,-408.5 801,-408.5 801,-356.5 664,-356.5"/>
<text text-anchor="start" x="672" y="-396.5" font-family="Helvetica,sans-Serif" font-size="10.00">Task&#45;Tracker&#45;Device</text>
<text text-anchor="start" x="672" y="-385.5" font-family="Helvetica,sans-Serif" font-size="10.00">/lib/application_business</text>
<text text-anchor="start" x="672" y="-374.5" font-family="Helvetica,sans-Serif" font-size="10.00">_rules/user_interaction</text>
<text text-anchor="middle" x="732.5" y="-363.5" font-family="Helvetica,sans-Serif" font-size="10.00">/IKeypad.hpp</text>
</a>
</g>
</g>
<!-- Node1&#45;&gt;Node7 -->
<g id="edge6" class="edge">
<title>Node1&#45;&gt;Node7</title>
<path fill="none" stroke="midnightblue" d="M1144.85,-456.56C1049.86,-439.73 891.63,-411.7 801.3,-395.69"/>
<polygon fill="midnightblue" stroke="midnightblue" points="1144.51,-460.06 1154.97,-458.36 1145.73,-453.17 1144.51,-460.06"/>
</g>
<!-- Node23 -->
<g id="node23" class="node">
<title>Node23</title>
<g id="a_node23"><a xlink:href="KeyIds_8cpp.xhtml" target="_top" xlink:title=" ">
<polygon fill="white" stroke="black" points="1407,-356.5 1407,-408.5 1544,-408.5 1544,-356.5 1407,-356.5"/>
<text text-anchor="start" x="1415" y="-396.5" font-family="Helvetica,sans-Serif" font-size="10.00">Task&#45;Tracker&#45;Device</text>
<text text-anchor="start" x="1415" y="-385.5" font-family="Helvetica,sans-Serif" font-size="10.00">/lib/application_business</text>
<text text-anchor="start" x="1415" y="-374.5" font-family="Helvetica,sans-Serif" font-size="10.00">_rules/user_interaction</text>
<text text-anchor="middle" x="1475.5" y="-363.5" font-family="Helvetica,sans-Serif" font-size="10.00">/KeyIds.cpp</text>
</a>
</g>
</g>
<!-- Node1&#45;&gt;Node23 -->
<g id="edge31" class="edge">
<title>Node1&#45;&gt;Node23</title>
<path fill="none" stroke="midnightblue" d="M1301.83,-443.46C1335.5,-431.83 1374.49,-418.37 1406.99,-407.15"/>
<polygon fill="midnightblue" stroke="midnightblue" points="1300.34,-440.27 1292.03,-446.84 1302.62,-446.89 1300.34,-440.27"/>
</g>
<!-- Node24 -->
<g id="node24" class="node">
<title>Node24</title>
<g id="a_node24"><a xlink:href="ProcessHmiInputs_8hpp.xhtml" target="_top" xlink:title=" ">
<polygon fill="white" stroke="black" points="1078,-356.5 1078,-408.5 1215,-408.5 1215,-356.5 1078,-356.5"/>
<text text-anchor="start" x="1086" y="-396.5" font-family="Helvetica,sans-Serif" font-size="10.00">Task&#45;Tracker&#45;Device</text>
<text text-anchor="start" x="1086" y="-385.5" font-family="Helvetica,sans-Serif" font-size="10.00">/lib/application_business</text>
<text text-anchor="start" x="1086" y="-374.5" font-family="Helvetica,sans-Serif" font-size="10.00">_rules/user_interaction</text>
<text text-anchor="middle" x="1146.5" y="-363.5" font-family="Helvetica,sans-Serif" font-size="10.00">/ProcessHmiInputs.hpp</text>
</a>
</g>
</g>
<!-- Node1&#45;&gt;Node24 -->
<g id="edge32" class="edge">
<title>Node1&#45;&gt;Node24</title>
<path fill="none" stroke="midnightblue" d="M1194.55,-437.79C1186,-428.13 1176.78,-417.71 1168.72,-408.61"/>
<polygon fill="midnightblue" stroke="midnightblue" points="1191.98,-440.17 1201.23,-445.34 1197.22,-435.53 1191.98,-440.17"/>
</g>
<!-- Node3 -->
<g id="node3" class="node">
<title>Node3</title>
<g id="a_node3"><a xlink:href="Presenter_8cpp.xhtml" target="_top" xlink:title=" ">
<polygon fill="white" stroke="black" points="1058,-0.5 1058,-52.5 1195,-52.5 1195,-0.5 1058,-0.5"/>
<text text-anchor="start" x="1066" y="-40.5" font-family="Helvetica,sans-Serif" font-size="10.00">Task&#45;Tracker&#45;Device</text>
<text text-anchor="start" x="1066" y="-29.5" font-family="Helvetica,sans-Serif" font-size="10.00">/lib/application_business</text>
<text text-anchor="start" x="1066" y="-18.5" font-family="Helvetica,sans-Serif" font-size="10.00">_rules/user_interaction</text>
<text text-anchor="middle" x="1126.5" y="-7.5" font-family="Helvetica,sans-Serif" font-size="10.00">/Presenter.cpp</text>
</a>
</g>
</g>
<!-- Node2&#45;&gt;Node3 -->
<g id="edge2" class="edge">
<title>Node2&#45;&gt;Node3</title>
<path fill="none" stroke="midnightblue" d="M1320.95,-345.78C1320.44,-322.91 1318.29,-292.8 1311.5,-267 1289.28,-182.59 1286.86,-153.91 1228.5,-89 1215.37,-74.39 1197.93,-62.16 1181.2,-52.54"/>
<polygon fill="midnightblue" stroke="midnightblue" points="1317.45,-346.1 1321.08,-356.05 1324.45,-346.01 1317.45,-346.1"/>
</g>
<!-- Node4 -->
<g id="node4" class="node">
<title>Node4</title>
<g id="a_node4"><a xlink:href="ProcessHmiInputs_8cpp.xhtml" target="_top" xlink:title=" ">
<polygon fill="white" stroke="black" points="1165,-267.5 1165,-319.5 1302,-319.5 1302,-267.5 1165,-267.5"/>
<text text-anchor="start" x="1173" y="-307.5" font-family="Helvetica,sans-Serif" font-size="10.00">Task&#45;Tracker&#45;Device</text>
<text text-anchor="start" x="1173" y="-296.5" font-family="Helvetica,sans-Serif" font-size="10.00">/lib/application_business</text>
<text text-anchor="start" x="1173" y="-285.5" font-family="Helvetica,sans-Serif" font-size="10.00">_rules/user_interaction</text>
<text text-anchor="middle" x="1233.5" y="-274.5" font-family="Helvetica,sans-Serif" font-size="10.00">/ProcessHmiInputs.cpp</text>
</a>
</g>
</g>
<!-- Node2&#45;&gt;Node4 -->
<g id="edge3" class="edge">
<title>Node2&#45;&gt;Node4</title>
<path fill="none" stroke="midnightblue" d="M1288.08,-349.08C1278.34,-339.34 1267.8,-328.8 1258.61,-319.61"/>
<polygon fill="midnightblue" stroke="midnightblue" points="1285.79,-351.74 1295.34,-356.34 1290.74,-346.79 1285.79,-351.74"/>
</g>
<!-- Node5 -->
<g id="node5" class="node">
<title>Node5</title>
<g id="a_node5"><a xlink:href="board_8cpp.xhtml" target="_top" xlink:title=" ">
<polygon fill="white" stroke="black" points="1359,-273 1359,-314 1472,-314 1472,-273 1359,-273"/>
<text text-anchor="start" x="1367" y="-302" font-family="Helvetica,sans-Serif" font-size="10.00">Task&#45;Tracker&#45;Device</text>
<text text-anchor="start" x="1367" y="-291" font-family="Helvetica,sans-Serif" font-size="10.00">/lib/board_adapters</text>
<text text-anchor="middle" x="1415.5" y="-280" font-family="Helvetica,sans-Serif" font-size="10.00">/board.cpp</text>
</a>
</g>
</g>
<!-- Node2&#45;&gt;Node5 -->
<g id="edge4" class="edge">
<title>Node2&#45;&gt;Node5</title>
<path fill="none" stroke="midnightblue" d="M1355.43,-349.51C1368.4,-337.64 1382.71,-324.53 1394.12,-314.08"/>
<polygon fill="midnightblue" stroke="midnightblue" points="1352.99,-347 1347.98,-356.34 1357.72,-352.16 1352.99,-347"/>
</g>
<!-- Node6 -->
<g id="node6" class="node">
<title>Node6</title>
<g id="a_node6"><a xlink:href="sound__output_8cpp.xhtml" target="_top" xlink:title=" ">
<polygon fill="white" stroke="black" points="1490.5,-267.5 1490.5,-319.5 1624.5,-319.5 1624.5,-267.5 1490.5,-267.5"/>
<text text-anchor="start" x="1498.5" y="-307.5" font-family="Helvetica,sans-Serif" font-size="10.00">Task&#45;Tracker&#45;Device</text>
<text text-anchor="start" x="1498.5" y="-296.5" font-family="Helvetica,sans-Serif" font-size="10.00">/lib/board_adapters</text>
<text text-anchor="start" x="1498.5" y="-285.5" font-family="Helvetica,sans-Serif" font-size="10.00">/sound_output_interface</text>
<text text-anchor="middle" x="1557.5" y="-274.5" font-family="Helvetica,sans-Serif" font-size="10.00">/sound_output.cpp</text>
</a>
</g>
</g>
<!-- Node2&#45;&gt;Node6 -->
<g id="edge5" class="edge">
<title>Node2&#45;&gt;Node6</title>
<path fill="none" stroke="midnightblue" d="M1398.23,-352.97C1427.92,-342.07 1461.51,-329.74 1490.16,-319.22"/>
<polygon fill="midnightblue" stroke="midnightblue" points="1396.91,-349.72 1388.73,-356.45 1399.33,-356.29 1396.91,-349.72"/>
</g>
<!-- Node7&#45;&gt;Node4 -->
<g id="edge25" class="edge">
<title>Node7&#45;&gt;Node4</title>
<path fill="none" stroke="midnightblue" d="M811.18,-367.84C908.48,-350.94 1072.53,-322.45 1164.92,-306.41"/>
<polygon fill="midnightblue" stroke="midnightblue" points="810.37,-364.43 801.11,-369.59 811.56,-371.32 810.37,-364.43"/>
</g>
<!-- Node8 -->
<g id="node8" class="node">
<title>Node8</title>
<g id="a_node8"><a xlink:href="IGuiEngine_8hpp.xhtml" target="_top" xlink:title=" ">
<polygon fill="white" stroke="black" points="800,-267.5 800,-319.5 937,-319.5 937,-267.5 800,-267.5"/>
<text text-anchor="start" x="808" y="-307.5" font-family="Helvetica,sans-Serif" font-size="10.00">Task&#45;Tracker&#45;Device</text>
<text text-anchor="start" x="808" y="-296.5" font-family="Helvetica,sans-Serif" font-size="10.00">/lib/application_business</text>
<text text-anchor="start" x="808" y="-285.5" font-family="Helvetica,sans-Serif" font-size="10.00">_rules/user_interaction</text>
<text text-anchor="middle" x="868.5" y="-274.5" font-family="Helvetica,sans-Serif" font-size="10.00">/IGuiEngine.hpp</text>
</a>
</g>
</g>
<!-- Node7&#45;&gt;Node8 -->
<g id="edge7" class="edge">
<title>Node7&#45;&gt;Node8</title>
<path fill="none" stroke="midnightblue" d="M780.51,-350.79C796.47,-340.58 814.04,-329.34 829.25,-319.61"/>
<polygon fill="midnightblue" stroke="midnightblue" points="778.37,-348 771.84,-356.34 782.15,-353.9 778.37,-348"/>
</g>
<!-- Node14 -->
<g id="node14" class="node">
<title>Node14</title>
<g id="a_node14"><a xlink:href="Menu_8hpp.xhtml" target="_top" xlink:title=" ">
<polygon fill="white" stroke="black" points="664,-178.5 664,-230.5 801,-230.5 801,-178.5 664,-178.5"/>
<text text-anchor="start" x="672" y="-218.5" font-family="Helvetica,sans-Serif" font-size="10.00">Task&#45;Tracker&#45;Device</text>
<text text-anchor="start" x="672" y="-207.5" font-family="Helvetica,sans-Serif" font-size="10.00">/lib/application_business</text>
<text text-anchor="start" x="672" y="-196.5" font-family="Helvetica,sans-Serif" font-size="10.00">_rules/user_interaction</text>
<text text-anchor="middle" x="732.5" y="-185.5" font-family="Helvetica,sans-Serif" font-size="10.00">/Menu.hpp</text>
</a>
</g>
</g>
<!-- Node7&#45;&gt;Node14 -->
<g id="edge24" class="edge">
<title>Node7&#45;&gt;Node14</title>
<path fill="none" stroke="midnightblue" d="M732.5,-346.25C732.5,-312.04 732.5,-260.97 732.5,-230.67"/>
<polygon fill="midnightblue" stroke="midnightblue" points="729,-346.28 732.5,-356.28 736,-346.28 729,-346.28"/>
</g>
<!-- Node17 -->
<g id="node17" class="node">
<title>Node17</title>
<g id="a_node17"><a xlink:href="keypad__factory__interface_8hpp.xhtml" target="_top" xlink:title="Dependency injection for the keypad.">
<polygon fill="white" stroke="black" points="414.5,-267.5 414.5,-319.5 578.5,-319.5 578.5,-267.5 414.5,-267.5"/>
<text text-anchor="start" x="422.5" y="-307.5" font-family="Helvetica,sans-Serif" font-size="10.00">Task&#45;Tracker&#45;Device</text>
<text text-anchor="start" x="422.5" y="-296.5" font-family="Helvetica,sans-Serif" font-size="10.00">/lib/application_business</text>
<text text-anchor="start" x="422.5" y="-285.5" font-family="Helvetica,sans-Serif" font-size="10.00">_rules/user_interaction</text>
<text text-anchor="middle" x="496.5" y="-274.5" font-family="Helvetica,sans-Serif" font-size="10.00">/keypad_factory_interface.hpp</text>
</a>
</g>
</g>
<!-- Node7&#45;&gt;Node17 -->
<g id="edge20" class="edge">
<title>Node7&#45;&gt;Node17</title>
<path fill="none" stroke="midnightblue" d="M654.8,-352.86C625.59,-342.09 592.63,-329.94 564.37,-319.52"/>
<polygon fill="midnightblue" stroke="midnightblue" points="653.96,-356.28 664.56,-356.45 656.38,-349.71 653.96,-356.28"/>
</g>
<!-- Node19 -->
<g id="node19" class="node">
<title>Node19</title>
<g id="a_node19"><a xlink:href="test__hmi_8cpp.xhtml" target="_top" xlink:title=" ">
<polygon fill="white" stroke="black" points="517.5,-184 517.5,-225 645.5,-225 645.5,-184 517.5,-184"/>
<text text-anchor="start" x="525.5" y="-213" font-family="Helvetica,sans-Serif" font-size="10.00">Task&#45;Tracker&#45;Device</text>
<text text-anchor="start" x="525.5" y="-202" font-family="Helvetica,sans-Serif" font-size="10.00">/test/hmi/test_hmi/test</text>
<text text-anchor="middle" x="581.5" y="-191" font-family="Helvetica,sans-Serif" font-size="10.00">_hmi.cpp</text>
</a>
</g>
</g>
<!-- Node7&#45;&gt;Node19 -->
<g id="edge30" class="edge">
<title>Node7&#45;&gt;Node19</title>
<path fill="none" stroke="midnightblue" d="M695.74,-349.46C685.89,-340.29 675.49,-330.05 666.5,-320 638.61,-288.81 610.5,-248.9 594.61,-225.38"/>
<polygon fill="midnightblue" stroke="midnightblue" points="693.4,-352.06 703.13,-356.24 698.13,-346.9 693.4,-352.06"/>
</g>
<!-- Node20 -->
<g id="node20" class="node">
<title>Node20</title>
<g id="a_node20"><a xlink:href="Keypad_8hpp.xhtml" target="_top" xlink:title=" ">
<polygon fill="white" stroke="black" points="211,-267.5 211,-319.5 342,-319.5 342,-267.5 211,-267.5"/>
<text text-anchor="start" x="219" y="-307.5" font-family="Helvetica,sans-Serif" font-size="10.00">Task&#45;Tracker&#45;Device</text>
<text text-anchor="start" x="219" y="-296.5" font-family="Helvetica,sans-Serif" font-size="10.00">/lib/board_adapters</text>
<text text-anchor="start" x="219" y="-285.5" font-family="Helvetica,sans-Serif" font-size="10.00">/input_device_interface</text>
<text text-anchor="middle" x="276.5" y="-274.5" font-family="Helvetica,sans-Serif" font-size="10.00">/Keypad.hpp</text>
</a>
</g>
</g>
<!-- Node7&#45;&gt;Node20 -->
<g id="edge26" class="edge">
<title>Node7&#45;&gt;Node20</title>
<path fill="none" stroke="midnightblue" d="M653.93,-366.93C587.67,-354.6 490.34,-336.36 405.5,-320 384.88,-316.02 362.42,-311.61 342.1,-307.59"/>
<polygon fill="midnightblue" stroke="midnightblue" points="653.41,-370.4 663.88,-368.79 654.69,-363.52 653.41,-370.4"/>
</g>
<!-- Node9 -->
<g id="node9" class="node">
<title>Node9</title>
<g id="a_node9"><a xlink:href="GuiEngine_8hpp.xhtml" target="_top" xlink:title=" ">
<polygon fill="white" stroke="black" points="1014,-184 1014,-225 1143,-225 1143,-184 1014,-184"/>
<text text-anchor="start" x="1022" y="-213" font-family="Helvetica,sans-Serif" font-size="10.00">Task&#45;Tracker&#45;Device</text>
<text text-anchor="start" x="1022" y="-202" font-family="Helvetica,sans-Serif" font-size="10.00">/lib/3rd_party_adapters</text>
<text text-anchor="middle" x="1078.5" y="-191" font-family="Helvetica,sans-Serif" font-size="10.00">/LVGL/GuiEngine.hpp</text>
</a>
</g>
</g>
<!-- Node8&#45;&gt;Node9 -->
<g id="edge8" class="edge">
<title>Node8&#45;&gt;Node9</title>
<path fill="none" stroke="midnightblue" d="M938.26,-263.6C968.75,-250.97 1003.72,-236.48 1031.11,-225.13"/>
<polygon fill="midnightblue" stroke="midnightblue" points="936.86,-260.39 928.96,-267.45 939.54,-266.86 936.86,-260.39"/>
</g>
<!-- Node12 -->
<g id="node12" class="node">
<title>Node12</title>
<g id="a_node12"><a xlink:href="guiEngine__factory__interface_8hpp.xhtml" target="_top" xlink:title="Dependency injection for the guiEngine.">
<polygon fill="white" stroke="black" points="819,-178.5 819,-230.5 996,-230.5 996,-178.5 819,-178.5"/>
<text text-anchor="start" x="827" y="-218.5" font-family="Helvetica,sans-Serif" font-size="10.00">Task&#45;Tracker&#45;Device</text>
<text text-anchor="start" x="827" y="-207.5" font-family="Helvetica,sans-Serif" font-size="10.00">/lib/application_business</text>
<text text-anchor="start" x="827" y="-196.5" font-family="Helvetica,sans-Serif" font-size="10.00">_rules/user_interaction</text>
<text text-anchor="middle" x="907.5" y="-185.5" font-family="Helvetica,sans-Serif" font-size="10.00">/guiEngine_factory_interface.hpp</text>
</a>
</g>
</g>
<!-- Node8&#45;&gt;Node12 -->
<g id="edge11" class="edge">
<title>Node8&#45;&gt;Node12</title>
<path fill="none" stroke="midnightblue" d="M883.94,-258.06C888.05,-248.9 892.41,-239.17 896.24,-230.61"/>
<polygon fill="midnightblue" stroke="midnightblue" points="880.68,-256.78 879.78,-267.34 887.06,-259.64 880.68,-256.78"/>
</g>
<!-- Node8&#45;&gt;Node14 -->
<g id="edge14" class="edge">
<title>Node8&#45;&gt;Node14</title>
<path fill="none" stroke="midnightblue" d="M820.49,-261.79C804.53,-251.58 786.96,-240.34 771.75,-230.61"/>
<polygon fill="midnightblue" stroke="midnightblue" points="818.85,-264.9 829.16,-267.34 822.63,-259 818.85,-264.9"/>
</g>
<!-- Node10 -->
<g id="node10" class="node">
<title>Node10</title>
<g id="a_node10"><a xlink:href="GuiEngine_8cpp.xhtml" target="_top" xlink:title="Connects LVGL callbacks to display driver and input device.">
<polygon fill="white" stroke="black" points="1057,-95 1057,-136 1186,-136 1186,-95 1057,-95"/>
<text text-anchor="start" x="1065" y="-124" font-family="Helvetica,sans-Serif" font-size="10.00">Task&#45;Tracker&#45;Device</text>
<text text-anchor="start" x="1065" y="-113" font-family="Helvetica,sans-Serif" font-size="10.00">/lib/3rd_party_adapters</text>
<text text-anchor="middle" x="1121.5" y="-102" font-family="Helvetica,sans-Serif" font-size="10.00">/LVGL/GuiEngine.cpp</text>
</a>
</g>
</g>
<!-- Node9&#45;&gt;Node10 -->
<g id="edge9" class="edge">
<title>Node9&#45;&gt;Node10</title>
<path fill="none" stroke="midnightblue" d="M1092.8,-174.56C1099.04,-161.95 1106.18,-147.5 1111.78,-136.16"/>
<polygon fill="midnightblue" stroke="midnightblue" points="1089.55,-173.24 1088.26,-183.76 1095.83,-176.34 1089.55,-173.24"/>
</g>
<!-- Node11 -->
<g id="node11" class="node">
<title>Node11</title>
<g id="a_node11"><a xlink:href="guiEngine__factory__interface_8cpp.xhtml" target="_top" xlink:title=" ">
<polygon fill="white" stroke="black" points="904.5,-89.5 904.5,-141.5 1038.5,-141.5 1038.5,-89.5 904.5,-89.5"/>
<text text-anchor="start" x="912.5" y="-129.5" font-family="Helvetica,sans-Serif" font-size="10.00">Task&#45;Tracker&#45;Device</text>
<text text-anchor="start" x="912.5" y="-118.5" font-family="Helvetica,sans-Serif" font-size="10.00">/lib/3rd_party_adapters</text>
<text text-anchor="start" x="912.5" y="-107.5" font-family="Helvetica,sans-Serif" font-size="10.00">/LVGL/guiEngine_factory</text>
<text text-anchor="middle" x="971.5" y="-96.5" font-family="Helvetica,sans-Serif" font-size="10.00">_interface.cpp</text>
</a>
</g>
</g>
<!-- Node9&#45;&gt;Node11 -->
<g id="edge10" class="edge">
<title>Node9&#45;&gt;Node11</title>
<path fill="none" stroke="midnightblue" d="M1046.56,-177.53C1032.57,-166.15 1016.22,-152.86 1002.35,-141.58"/>
<polygon fill="midnightblue" stroke="midnightblue" points="1044.52,-180.38 1054.49,-183.98 1048.94,-174.95 1044.52,-180.38"/>
</g>
<!-- Node12&#45;&gt;Node11 -->
<g id="edge12" class="edge">
<title>Node12&#45;&gt;Node11</title>
<path fill="none" stroke="midnightblue" d="M931.99,-170.22C938.97,-160.72 946.47,-150.53 953.03,-141.61"/>
<polygon fill="midnightblue" stroke="midnightblue" points="929.12,-168.21 926.01,-178.34 934.76,-172.35 929.12,-168.21"/>
</g>
<!-- Node13 -->
<g id="node13" class="node">
<title>Node13</title>
<g id="a_node13"><a xlink:href="main_8cpp.xhtml" target="_top" xlink:title=" ">
<polygon fill="white" stroke="black" points="723,-11.5 723,-41.5 836,-41.5 836,-11.5 723,-11.5"/>
<text text-anchor="start" x="731" y="-29.5" font-family="Helvetica,sans-Serif" font-size="10.00">Task&#45;Tracker&#45;Device</text>
<text text-anchor="middle" x="779.5" y="-18.5" font-family="Helvetica,sans-Serif" font-size="10.00">/src/main.cpp</text>
</a>
</g>
</g>
<!-- Node12&#45;&gt;Node13 -->
<g id="edge13" class="edge">
<title>Node12&#45;&gt;Node13</title>
<path fill="none" stroke="midnightblue" d="M897.28,-168.63C889.11,-144.63 875.94,-112.89 857.5,-89 842.54,-69.62 820.17,-52.81 803.22,-41.69"/>
<polygon fill="midnightblue" stroke="midnightblue" points="894.04,-169.99 900.48,-178.4 900.69,-167.81 894.04,-169.99"/>
</g>
<!-- Node14&#45;&gt;Node13 -->
<g id="edge19" class="edge">
<title>Node14&#45;&gt;Node13</title>
<path fill="none" stroke="midnightblue" d="M654.05,-177.84C603.44,-161.24 546.94,-142.61 546.5,-142 532.7,-122.91 532.13,-107.66 546.5,-89 567.88,-61.24 661.03,-43.48 722.88,-34.52"/>
<polygon fill="midnightblue" stroke="midnightblue" points="653.15,-181.23 663.74,-181.02 655.33,-174.58 653.15,-181.23"/>
</g>
<!-- Node15 -->
<g id="node15" class="node">
<title>Node15</title>
<g id="a_node15"><a xlink:href="Menu_8cpp.xhtml" target="_top" xlink:title=" ">
<polygon fill="white" stroke="black" points="556,-89.5 556,-141.5 693,-141.5 693,-89.5 556,-89.5"/>
<text text-anchor="start" x="564" y="-129.5" font-family="Helvetica,sans-Serif" font-size="10.00">Task&#45;Tracker&#45;Device</text>
<text text-anchor="start" x="564" y="-118.5" font-family="Helvetica,sans-Serif" font-size="10.00">/lib/application_business</text>
<text text-anchor="start" x="564" y="-107.5" font-family="Helvetica,sans-Serif" font-size="10.00">_rules/user_interaction</text>
<text text-anchor="middle" x="624.5" y="-96.5" font-family="Helvetica,sans-Serif" font-size="10.00">/Menu.cpp</text>
</a>
</g>
</g>
<!-- Node14&#45;&gt;Node15 -->
<g id="edge15" class="edge">
<title>Node14&#45;&gt;Node15</title>
<path fill="none" stroke="midnightblue" d="M693.31,-171.93C680.93,-161.96 667.41,-151.07 655.67,-141.61"/>
<polygon fill="midnightblue" stroke="midnightblue" points="691.28,-174.79 701.26,-178.34 695.67,-169.34 691.28,-174.79"/>
</g>
<!-- Node16 -->
<g id="node16" class="node">
<title>Node16</title>
<g id="a_node16"><a xlink:href="Presenter_8hpp.xhtml" target="_top" xlink:title=" ">
<polygon fill="white" stroke="black" points="711,-89.5 711,-141.5 848,-141.5 848,-89.5 711,-89.5"/>
<text text-anchor="start" x="719" y="-129.5" font-family="Helvetica,sans-Serif" font-size="10.00">Task&#45;Tracker&#45;Device</text>
<text text-anchor="start" x="719" y="-118.5" font-family="Helvetica,sans-Serif" font-size="10.00">/lib/application_business</text>
<text text-anchor="start" x="719" y="-107.5" font-family="Helvetica,sans-Serif" font-size="10.00">_rules/user_interaction</text>
<text text-anchor="middle" x="779.5" y="-96.5" font-family="Helvetica,sans-Serif" font-size="10.00">/Presenter.hpp</text>
</a>
</g>
</g>
<!-- Node14&#45;&gt;Node16 -->
<g id="edge16" class="edge">
<title>Node14&#45;&gt;Node16</title>
<path fill="none" stroke="midnightblue" d="M750.95,-169.35C755.95,-160.1 761.26,-150.26 765.94,-141.61"/>
<polygon fill="midnightblue" stroke="midnightblue" points="747.77,-167.87 746.09,-178.34 753.93,-171.2 747.77,-167.87"/>
</g>
<!-- Node16&#45;&gt;Node3 -->
<g id="edge17" class="edge">
<title>Node16&#45;&gt;Node3</title>
<path fill="none" stroke="midnightblue" d="M857.89,-94.85C918.02,-79.77 1000.21,-59.16 1057.79,-44.73"/>
<polygon fill="midnightblue" stroke="midnightblue" points="856.9,-91.48 848.06,-97.31 858.61,-98.27 856.9,-91.48"/>
</g>
<!-- Node16&#45;&gt;Node13 -->
<g id="edge18" class="edge">
<title>Node16&#45;&gt;Node13</title>
<path fill="none" stroke="midnightblue" d="M779.5,-79.15C779.5,-66.05 779.5,-51.93 779.5,-41.77"/>
<polygon fill="midnightblue" stroke="midnightblue" points="776,-79.34 779.5,-89.34 783,-79.34 776,-79.34"/>
</g>
<!-- Node17&#45;&gt;Node13 -->
<g id="edge22" class="edge">
<title>Node17&#45;&gt;Node13</title>
<path fill="none" stroke="midnightblue" d="M491.56,-257.38C487.31,-211.81 487.71,-132.93 532.5,-89 559.2,-62.81 658.56,-44.37 722.83,-34.88"/>
<polygon fill="midnightblue" stroke="midnightblue" points="488.09,-257.82 492.62,-267.39 495.05,-257.08 488.09,-257.82"/>
</g>
<!-- Node18 -->
<g id="node18" class="node">
<title>Node18</title>
<g id="a_node18"><a xlink:href="keypad__factory__interface_8cpp.xhtml" target="_top" xlink:title=" ">
<polygon fill="white" stroke="black" points="297.5,-178.5 297.5,-230.5 461.5,-230.5 461.5,-178.5 297.5,-178.5"/>
<text text-anchor="start" x="305.5" y="-218.5" font-family="Helvetica,sans-Serif" font-size="10.00">Task&#45;Tracker&#45;Device</text>
<text text-anchor="start" x="305.5" y="-207.5" font-family="Helvetica,sans-Serif" font-size="10.00">/lib/board_adapters</text>
<text text-anchor="start" x="305.5" y="-196.5" font-family="Helvetica,sans-Serif" font-size="10.00">/input_device_interface</text>
<text text-anchor="middle" x="379.5" y="-185.5" font-family="Helvetica,sans-Serif" font-size="10.00">/keypad_factory_interface.cpp</text>
</a>
</g>
</g>
<!-- Node17&#45;&gt;Node18 -->
<g id="edge21" class="edge">
<title>Node17&#45;&gt;Node18</title>
<path fill="none" stroke="midnightblue" d="M454.43,-261.22C440.91,-251.16 426.11,-240.16 413.27,-230.61"/>
<polygon fill="midnightblue" stroke="midnightblue" points="452.55,-264.18 462.66,-267.34 456.72,-258.56 452.55,-264.18"/>
</g>
<!-- Node17&#45;&gt;Node19 -->
<g id="edge23" class="edge">
<title>Node17&#45;&gt;Node19</title>
<path fill="none" stroke="midnightblue" d="M528.08,-260.18C539.59,-248.39 552.26,-235.43 562.37,-225.08"/>
<polygon fill="midnightblue" stroke="midnightblue" points="525.57,-257.74 521.09,-267.34 530.58,-262.63 525.57,-257.74"/>
</g>
<!-- Node20&#45;&gt;Node18 -->
<g id="edge28" class="edge">
<title>Node20&#45;&gt;Node18</title>
<path fill="none" stroke="midnightblue" d="M314.21,-260.65C325.93,-250.75 338.68,-239.98 349.78,-230.61"/>
<polygon fill="midnightblue" stroke="midnightblue" points="311.67,-258.21 306.29,-267.34 316.19,-263.56 311.67,-258.21"/>
</g>
<!-- Node21 -->
<g id="node21" class="node">
<title>Node21</title>
<g id="a_node21"><a xlink:href="Keypad_8cpp.xhtml" target="_top" xlink:title=" ">
<polygon fill="white" stroke="black" points="0,-178.5 0,-230.5 131,-230.5 131,-178.5 0,-178.5"/>
<text text-anchor="start" x="8" y="-218.5" font-family="Helvetica,sans-Serif" font-size="10.00">Task&#45;Tracker&#45;Device</text>
<text text-anchor="start" x="8" y="-207.5" font-family="Helvetica,sans-Serif" font-size="10.00">/lib/board_adapters</text>
<text text-anchor="start" x="8" y="-196.5" font-family="Helvetica,sans-Serif" font-size="10.00">/input_device_interface</text>
<text text-anchor="middle" x="65.5" y="-185.5" font-family="Helvetica,sans-Serif" font-size="10.00">/Keypad.cpp</text>
</a>
</g>
</g>
<!-- Node20&#45;&gt;Node21 -->
<g id="edge27" class="edge">
<title>Node20&#45;&gt;Node21</title>
<path fill="none" stroke="midnightblue" d="M206.35,-263.58C180.4,-252.88 151.22,-240.85 126.18,-230.52"/>
<polygon fill="midnightblue" stroke="midnightblue" points="205.17,-266.88 215.75,-267.45 207.84,-260.41 205.17,-266.88"/>
</g>
<!-- Node22 -->
<g id="node22" class="node">
<title>Node22</title>
<g id="a_node22"><a xlink:href="test__keyState_8cpp.xhtml" target="_top" xlink:title=" ">
<polygon fill="white" stroke="black" points="149.5,-184 149.5,-225 279.5,-225 279.5,-184 149.5,-184"/>
<text text-anchor="start" x="157.5" y="-213" font-family="Helvetica,sans-Serif" font-size="10.00">Task&#45;Tracker&#45;Device</text>
<text text-anchor="start" x="157.5" y="-202" font-family="Helvetica,sans-Serif" font-size="10.00">/test/hmi/test_keyState</text>
<text text-anchor="middle" x="214.5" y="-191" font-family="Helvetica,sans-Serif" font-size="10.00">/test_keyState.cpp</text>
</a>
</g>
</g>
<!-- Node20&#45;&gt;Node22 -->
<g id="edge29" class="edge">
<title>Node20&#45;&gt;Node22</title>
<path fill="none" stroke="midnightblue" d="M252.75,-259.18C244.55,-247.66 235.62,-235.13 228.46,-225.08"/>
<polygon fill="midnightblue" stroke="midnightblue" points="249.91,-261.22 258.57,-267.34 255.61,-257.16 249.91,-261.22"/>
</g>
<!-- Node24&#45;&gt;Node4 -->
<g id="edge33" class="edge">
<title>Node24&#45;&gt;Node4</title>
<path fill="none" stroke="midnightblue" d="M1178.92,-349.08C1188.66,-339.34 1199.2,-328.8 1208.39,-319.61"/>
<polygon fill="midnightblue" stroke="midnightblue" points="1176.26,-346.79 1171.66,-356.34 1181.21,-351.74 1176.26,-346.79"/>
</g>
<!-- Node24&#45;&gt;Node13 -->
<g id="edge34" class="edge">
<title>Node24&#45;&gt;Node13</title>
<path fill="none" stroke="midnightblue" d="M1147.63,-346.05C1148.83,-323.29 1151.33,-293.2 1156.5,-267 1172.17,-187.54 1248.41,-150.31 1195.5,-89 1172.34,-62.16 944.81,-40.64 836.39,-31.82"/>
<polygon fill="midnightblue" stroke="midnightblue" points="1144.12,-346.11 1147.15,-356.27 1151.11,-346.44 1144.12,-346.11"/>
</g>
<!-- Node24&#45;&gt;Node19 -->
<g id="edge35" class="edge">
<title>Node24&#45;&gt;Node19</title>
<path fill="none" stroke="midnightblue" d="M1067.7,-375.3C994.51,-367.81 883.31,-352 791.5,-320 722.49,-295.95 649.11,-250.85 609.99,-225.01"/>
<polygon fill="midnightblue" stroke="midnightblue" points="1067.47,-378.79 1077.77,-376.3 1068.17,-371.83 1067.47,-378.79"/>
</g>
</g>
</svg>
