<?xml version="1.0" encoding="UTF-8" standalone="no"?>
<!DOCTYPE svg PUBLIC "-//W3C//DTD SVG 1.1//EN"
 "http://www.w3.org/Graphics/SVG/1.1/DTD/svg11.dtd">
<!-- Generated by graphviz version 2.43.0 (0)
 -->
<!-- Title: Task&#45;Tracker&#45;Device/lib/application_business_rules/user_interaction/KeyIds.cpp Pages: 1 -->
<svg width="145pt" height="173pt"
 viewBox="0.00 0.00 145.00 173.00" xmlns="http://www.w3.org/2000/svg" xmlns:xlink="http://www.w3.org/1999/xlink">
<g id="graph0" class="graph" transform="scale(1 1) rotate(0) translate(4 169)">
<title>Task&#45;Tracker&#45;Device/lib/application_business_rules/user_interaction/KeyIds.cpp</title>
<polygon fill="white" stroke="transparent" points="-4,4 -4,-169 141,-169 141,4 -4,4"/>
<!-- Node1 -->
<g id="node1" class="node">
<title>Node1</title>
<g id="a_node1"><a xlink:title=" ">
<polygon fill="#bfbfbf" stroke="black" points="0,-112.5 0,-164.5 137,-164.5 137,-112.5 0,-112.5"/>
<text text-anchor="start" x="8" y="-152.5" font-family="Helvetica,sans-Serif" font-size="10.00">Task&#45;Tracker&#45;Device</text>
<text text-anchor="start" x="8" y="-141.5" font-family="Helvetica,sans-Serif" font-size="10.00">/lib/application_business</text>
<text text-anchor="start" x="8" y="-130.5" font-family="Helvetica,sans-Serif" font-size="10.00">_rules/user_interaction</text>
<text text-anchor="middle" x="68.5" y="-119.5" font-family="Helvetica,sans-Serif" font-size="10.00">/KeyIds.cpp</text>
</a>
</g>
</g>
<!-- Node2 -->
<g id="node2" class="node">
<title>Node2</title>
<g id="a_node2"><a xlink:href="KeyIds_8hpp.xhtml" target="_top" xlink:title=" ">
<polygon fill="white" stroke="black" points="33.5,-56.5 33.5,-75.5 103.5,-75.5 103.5,-56.5 33.5,-56.5"/>
<text text-anchor="middle" x="68.5" y="-63.5" font-family="Helvetica,sans-Serif" font-size="10.00">KeyIds.hpp</text>
</a>
</g>
</g>
<!-- Node1&#45;&gt;Node2 -->
<g id="edge1" class="edge">
<title>Node1&#45;&gt;Node2</title>
<path fill="none" stroke="midnightblue" d="M68.5,-112.45C68.5,-103.73 68.5,-94.1 68.5,-85.96"/>
<polygon fill="midnightblue" stroke="midnightblue" points="72,-85.7 68.5,-75.7 65,-85.7 72,-85.7"/>
</g>
<!-- Node3 -->
<g id="node3" class="node">
<title>Node3</title>
<g id="a_node3"><a xlink:title=" ">
<polygon fill="white" stroke="#bfbfbf" points="40,-0.5 40,-19.5 97,-19.5 97,-0.5 40,-0.5"/>
<text text-anchor="middle" x="68.5" y="-7.5" font-family="Helvetica,sans-Serif" font-size="10.00">ostream</text>
</a>
</g>
</g>
<!-- Node2&#45;&gt;Node3 -->
<g id="edge2" class="edge">
<title>Node2&#45;&gt;Node3</title>
<path fill="none" stroke="midnightblue" d="M68.5,-56.08C68.5,-49.01 68.5,-38.86 68.5,-29.99"/>
<polygon fill="midnightblue" stroke="midnightblue" points="72,-29.75 68.5,-19.75 65,-29.75 72,-29.75"/>
</g>
</g>
</svg>
