<?xml version="1.0" encoding="UTF-8" standalone="no"?>
<!DOCTYPE svg PUBLIC "-//W3C//DTD SVG 1.1//EN"
 "http://www.w3.org/Graphics/SVG/1.1/DTD/svg11.dtd">
<!-- Generated by graphviz version 2.43.0 (0)
 -->
<!-- Title: lib/application_business_rules/user_interaction/KeyIds.hpp Pages: 1 -->
<svg width="1611pt" height="440pt"
 viewBox="0.00 0.00 1610.50 440.00" xmlns="http://www.w3.org/2000/svg" xmlns:xlink="http://www.w3.org/1999/xlink">
<g id="graph0" class="graph" transform="scale(1 1) rotate(0) translate(4 436)">
<title>lib/application_business_rules/user_interaction/KeyIds.hpp</title>
<polygon fill="white" stroke="transparent" points="-4,4 -4,-436 1606.5,-436 1606.5,4 -4,4"/>
<!-- Node1 -->
<g id="node1" class="node">
<title>Node1</title>
<g id="a_node1"><a xlink:title=" ">
<polygon fill="#bfbfbf" stroke="black" points="1142.5,-390.5 1142.5,-431.5 1276.5,-431.5 1276.5,-390.5 1142.5,-390.5"/>
<text text-anchor="start" x="1150.5" y="-419.5" font-family="Helvetica,sans-Serif" font-size="10.00">lib/application_business</text>
<text text-anchor="start" x="1150.5" y="-408.5" font-family="Helvetica,sans-Serif" font-size="10.00">_rules/user_interaction</text>
<text text-anchor="middle" x="1209.5" y="-397.5" font-family="Helvetica,sans-Serif" font-size="10.00">/KeyIds.hpp</text>
</a>
</g>
</g>
<!-- Node2 -->
<g id="node2" class="node">
<title>Node2</title>
<g id="a_node2"><a xlink:href="board__interface_8hpp.xhtml" target="_top" xlink:title=" ">
<polygon fill="white" stroke="black" points="1237.5,-312.5 1237.5,-353.5 1371.5,-353.5 1371.5,-312.5 1237.5,-312.5"/>
<text text-anchor="start" x="1245.5" y="-341.5" font-family="Helvetica,sans-Serif" font-size="10.00">lib/application_business</text>
<text text-anchor="start" x="1245.5" y="-330.5" font-family="Helvetica,sans-Serif" font-size="10.00">_rules/user_interaction</text>
<text text-anchor="middle" x="1304.5" y="-319.5" font-family="Helvetica,sans-Serif" font-size="10.00">/board_interface.hpp</text>
</a>
</g>
</g>
<!-- Node1&#45;&gt;Node2 -->
<g id="edge1" class="edge">
<title>Node1&#45;&gt;Node2</title>
<path fill="none" stroke="midnightblue" d="M1241.92,-384.06C1254.43,-374.06 1268.49,-362.8 1280.12,-353.51"/>
<polygon fill="midnightblue" stroke="midnightblue" points="1239.59,-381.45 1233.96,-390.43 1243.96,-386.91 1239.59,-381.45"/>
</g>
<!-- Node7 -->
<g id="node7" class="node">
<title>Node7</title>
<g id="a_node7"><a xlink:href="IKeypad_8hpp.xhtml" target="_top" xlink:title=" ">
<polygon fill="white" stroke="black" points="658.5,-312.5 658.5,-353.5 792.5,-353.5 792.5,-312.5 658.5,-312.5"/>
<text text-anchor="start" x="666.5" y="-341.5" font-family="Helvetica,sans-Serif" font-size="10.00">lib/application_business</text>
<text text-anchor="start" x="666.5" y="-330.5" font-family="Helvetica,sans-Serif" font-size="10.00">_rules/user_interaction</text>
<text text-anchor="middle" x="725.5" y="-319.5" font-family="Helvetica,sans-Serif" font-size="10.00">/IKeypad.hpp</text>
</a>
</g>
</g>
<!-- Node1&#45;&gt;Node7 -->
<g id="edge6" class="edge">
<title>Node1&#45;&gt;Node7</title>
<path fill="none" stroke="midnightblue" d="M1132.46,-397.9C1038.67,-383.18 881.79,-358.54 792.69,-344.55"/>
<polygon fill="midnightblue" stroke="midnightblue" points="1132.03,-401.38 1142.46,-399.47 1133.12,-394.46 1132.03,-401.38"/>
</g>
<!-- Node23 -->
<g id="node23" class="node">
<title>Node23</title>
<g id="a_node23"><a xlink:href="KeyIds_8cpp.xhtml" target="_top" xlink:title=" ">
<polygon fill="white" stroke="black" points="1389.5,-312.5 1389.5,-353.5 1523.5,-353.5 1523.5,-312.5 1389.5,-312.5"/>
<text text-anchor="start" x="1397.5" y="-341.5" font-family="Helvetica,sans-Serif" font-size="10.00">lib/application_business</text>
<text text-anchor="start" x="1397.5" y="-330.5" font-family="Helvetica,sans-Serif" font-size="10.00">_rules/user_interaction</text>
<text text-anchor="middle" x="1456.5" y="-319.5" font-family="Helvetica,sans-Serif" font-size="10.00">/KeyIds.cpp</text>
</a>
</g>
</g>
<!-- Node1&#45;&gt;Node23 -->
<g id="edge31" class="edge">
<title>Node1&#45;&gt;Node23</title>
<path fill="none" stroke="midnightblue" d="M1282.81,-387.44C1317.87,-376.66 1359.43,-363.87 1393.11,-353.51"/>
<polygon fill="midnightblue" stroke="midnightblue" points="1281.64,-384.14 1273.11,-390.43 1283.7,-390.83 1281.64,-384.14"/>
</g>
<!-- Node24 -->
<g id="node24" class="node">
<title>Node24</title>
<g id="a_node24"><a xlink:href="ProcessHmiInputs_8hpp.xhtml" target="_top" xlink:title=" ">
<polygon fill="white" stroke="black" points="1066.5,-312.5 1066.5,-353.5 1200.5,-353.5 1200.5,-312.5 1066.5,-312.5"/>
<text text-anchor="start" x="1074.5" y="-341.5" font-family="Helvetica,sans-Serif" font-size="10.00">lib/application_business</text>
<text text-anchor="start" x="1074.5" y="-330.5" font-family="Helvetica,sans-Serif" font-size="10.00">_rules/user_interaction</text>
<text text-anchor="middle" x="1133.5" y="-319.5" font-family="Helvetica,sans-Serif" font-size="10.00">/ProcessHmiInputs.hpp</text>
</a>
</g>
</g>
<!-- Node1&#45;&gt;Node24 -->
<g id="edge32" class="edge">
<title>Node1&#45;&gt;Node24</title>
<path fill="none" stroke="midnightblue" d="M1182.7,-383.2C1172.92,-373.42 1162.04,-362.54 1153.01,-353.51"/>
<polygon fill="midnightblue" stroke="midnightblue" points="1180.38,-385.83 1189.93,-390.43 1185.33,-380.88 1180.38,-385.83"/>
</g>
<!-- Node3 -->
<g id="node3" class="node">
<title>Node3</title>
<g id="a_node3"><a xlink:href="Presenter_8cpp.xhtml" target="_top" xlink:title=" ">
<polygon fill="white" stroke="black" points="1038.5,-0.5 1038.5,-41.5 1172.5,-41.5 1172.5,-0.5 1038.5,-0.5"/>
<text text-anchor="start" x="1046.5" y="-29.5" font-family="Helvetica,sans-Serif" font-size="10.00">lib/application_business</text>
<text text-anchor="start" x="1046.5" y="-18.5" font-family="Helvetica,sans-Serif" font-size="10.00">_rules/user_interaction</text>
<text text-anchor="middle" x="1105.5" y="-7.5" font-family="Helvetica,sans-Serif" font-size="10.00">/Presenter.cpp</text>
</a>
</g>
</g>
<!-- Node2&#45;&gt;Node3 -->
<g id="edge2" class="edge">
<title>Node2&#45;&gt;Node3</title>
<path fill="none" stroke="midnightblue" d="M1304.73,-302.22C1304.17,-282.5 1302.03,-256.27 1295.5,-234 1273.52,-159.03 1269.86,-133.12 1214.5,-78 1198.97,-62.54 1178.29,-50.45 1159.12,-41.53"/>
<polygon fill="midnightblue" stroke="midnightblue" points="1301.23,-302.49 1304.9,-312.43 1308.23,-302.38 1301.23,-302.49"/>
</g>
<!-- Node4 -->
<g id="node4" class="node">
<title>Node4</title>
<g id="a_node4"><a xlink:href="ProcessHmiInputs_8cpp.xhtml" target="_top" xlink:title=" ">
<polygon fill="white" stroke="black" points="1152.5,-234.5 1152.5,-275.5 1286.5,-275.5 1286.5,-234.5 1152.5,-234.5"/>
<text text-anchor="start" x="1160.5" y="-263.5" font-family="Helvetica,sans-Serif" font-size="10.00">lib/application_business</text>
<text text-anchor="start" x="1160.5" y="-252.5" font-family="Helvetica,sans-Serif" font-size="10.00">_rules/user_interaction</text>
<text text-anchor="middle" x="1219.5" y="-241.5" font-family="Helvetica,sans-Serif" font-size="10.00">/ProcessHmiInputs.cpp</text>
</a>
</g>
</g>
<!-- Node2&#45;&gt;Node4 -->
<g id="edge3" class="edge">
<title>Node2&#45;&gt;Node4</title>
<path fill="none" stroke="midnightblue" d="M1274.85,-305.49C1263.82,-295.63 1251.52,-284.63 1241.32,-275.51"/>
<polygon fill="midnightblue" stroke="midnightblue" points="1272.82,-308.37 1282.61,-312.43 1277.49,-303.15 1272.82,-308.37"/>
</g>
<!-- Node5 -->
<g id="node5" class="node">
<title>Node5</title>
<g id="a_node5"><a xlink:href="board_8cpp.xhtml" target="_top" xlink:title=" ">
<polygon fill="white" stroke="black" points="1343,-240 1343,-270 1450,-270 1450,-240 1343,-240"/>
<text text-anchor="start" x="1351" y="-258" font-family="Helvetica,sans-Serif" font-size="10.00">lib/board_adapters</text>
<text text-anchor="middle" x="1396.5" y="-247" font-family="Helvetica,sans-Serif" font-size="10.00">/board.cpp</text>
</a>
</g>
</g>
<!-- Node2&#45;&gt;Node5 -->
<g id="edge4" class="edge">
<title>Node2&#45;&gt;Node5</title>
<path fill="none" stroke="midnightblue" d="M1335.98,-305.99C1350.48,-294.02 1367.12,-280.27 1379.28,-270.23"/>
<polygon fill="midnightblue" stroke="midnightblue" points="1333.67,-303.36 1328.19,-312.43 1338.13,-308.76 1333.67,-303.36"/>
</g>
<!-- Node6 -->
<g id="node6" class="node">
<title>Node6</title>
<g id="a_node6"><a xlink:href="sound__output_8cpp.xhtml" target="_top" xlink:title=" ">
<polygon fill="white" stroke="black" points="1468.5,-234.5 1468.5,-275.5 1602.5,-275.5 1602.5,-234.5 1468.5,-234.5"/>
<text text-anchor="start" x="1476.5" y="-263.5" font-family="Helvetica,sans-Serif" font-size="10.00">lib/board_adapters</text>
<text text-anchor="start" x="1476.5" y="-252.5" font-family="Helvetica,sans-Serif" font-size="10.00">/sound_output_interface</text>
<text text-anchor="middle" x="1535.5" y="-241.5" font-family="Helvetica,sans-Serif" font-size="10.00">/sound_output.cpp</text>
</a>
</g>
</g>
<!-- Node2&#45;&gt;Node6 -->
<g id="edge5" class="edge">
<title>Node2&#45;&gt;Node6</title>
<path fill="none" stroke="midnightblue" d="M1373.91,-309.17C1406.52,-298.44 1444.99,-285.78 1476.21,-275.51"/>
<polygon fill="midnightblue" stroke="midnightblue" points="1372.39,-305.98 1363.99,-312.43 1374.58,-312.63 1372.39,-305.98"/>
</g>
<!-- Node7&#45;&gt;Node4 -->
<g id="edge25" class="edge">
<title>Node7&#45;&gt;Node4</title>
<path fill="none" stroke="midnightblue" d="M802.57,-320.14C898.53,-305.38 1060.9,-280.4 1152.11,-266.37"/>
<polygon fill="midnightblue" stroke="midnightblue" points="801.99,-316.69 792.64,-321.67 803.05,-323.61 801.99,-316.69"/>
</g>
<!-- Node8 -->
<g id="node8" class="node">
<title>Node8</title>
<g id="a_node8"><a xlink:href="IGuiEngine_8hpp.xhtml" target="_top" xlink:title=" ">
<polygon fill="white" stroke="black" points="793.5,-234.5 793.5,-275.5 927.5,-275.5 927.5,-234.5 793.5,-234.5"/>
<text text-anchor="start" x="801.5" y="-263.5" font-family="Helvetica,sans-Serif" font-size="10.00">lib/application_business</text>
<text text-anchor="start" x="801.5" y="-252.5" font-family="Helvetica,sans-Serif" font-size="10.00">_rules/user_interaction</text>
<text text-anchor="middle" x="860.5" y="-241.5" font-family="Helvetica,sans-Serif" font-size="10.00">/IGuiEngine.hpp</text>
</a>
</g>
</g>
<!-- Node7&#45;&gt;Node8 -->
<g id="edge7" class="edge">
<title>Node7&#45;&gt;Node8</title>
<path fill="none" stroke="midnightblue" d="M769.05,-307.49C787.43,-297.13 808.55,-285.25 825.85,-275.51"/>
<polygon fill="midnightblue" stroke="midnightblue" points="767.26,-304.47 760.27,-312.43 770.7,-310.57 767.26,-304.47"/>
</g>
<!-- Node14 -->
<g id="node14" class="node">
<title>Node14</title>
<g id="a_node14"><a xlink:href="Menu_8hpp.xhtml" target="_top" xlink:title=" ">
<polygon fill="white" stroke="black" points="658.5,-156.5 658.5,-197.5 792.5,-197.5 792.5,-156.5 658.5,-156.5"/>
<text text-anchor="start" x="666.5" y="-185.5" font-family="Helvetica,sans-Serif" font-size="10.00">lib/application_business</text>
<text text-anchor="start" x="666.5" y="-174.5" font-family="Helvetica,sans-Serif" font-size="10.00">_rules/user_interaction</text>
<text text-anchor="middle" x="725.5" y="-163.5" font-family="Helvetica,sans-Serif" font-size="10.00">/Menu.hpp</text>
</a>
</g>
</g>
<!-- Node7&#45;&gt;Node14 -->
<g id="edge24" class="edge">
<title>Node7&#45;&gt;Node14</title>
<path fill="none" stroke="midnightblue" d="M725.5,-302.36C725.5,-271.61 725.5,-224.36 725.5,-197.83"/>
<polygon fill="midnightblue" stroke="midnightblue" points="722,-302.5 725.5,-312.5 729,-302.5 722,-302.5"/>
</g>
<!-- Node17 -->
<g id="node17" class="node">
<title>Node17</title>
<g id="a_node17"><a xlink:href="keypad__factory__interface_8hpp.xhtml" target="_top" xlink:title="Dependency injection for the keypad.">
<polygon fill="white" stroke="black" points="411.5,-234.5 411.5,-275.5 575.5,-275.5 575.5,-234.5 411.5,-234.5"/>
<text text-anchor="start" x="419.5" y="-263.5" font-family="Helvetica,sans-Serif" font-size="10.00">lib/application_business</text>
<text text-anchor="start" x="419.5" y="-252.5" font-family="Helvetica,sans-Serif" font-size="10.00">_rules/user_interaction</text>
<text text-anchor="middle" x="493.5" y="-241.5" font-family="Helvetica,sans-Serif" font-size="10.00">/keypad_factory_interface.hpp</text>
</a>
</g>
</g>
<!-- Node7&#45;&gt;Node17 -->
<g id="edge20" class="edge">
<title>Node7&#45;&gt;Node17</title>
<path fill="none" stroke="midnightblue" d="M656.22,-309.3C623.38,-298.55 584.54,-285.82 553.04,-275.51"/>
<polygon fill="midnightblue" stroke="midnightblue" points="655.16,-312.64 665.75,-312.43 657.34,-305.99 655.16,-312.64"/>
</g>
<!-- Node19 -->
<g id="node19" class="node">
<title>Node19</title>
<g id="a_node19"><a xlink:href="test__hmi_8cpp.xhtml" target="_top" xlink:title=" ">
<polygon fill="white" stroke="black" points="515,-162 515,-192 640,-192 640,-162 515,-162"/>
<text text-anchor="start" x="523" y="-180" font-family="Helvetica,sans-Serif" font-size="10.00">test/hmi/test_hmi/test</text>
<text text-anchor="middle" x="577.5" y="-169" font-family="Helvetica,sans-Serif" font-size="10.00">_hmi.cpp</text>
</a>
</g>
</g>
<!-- Node7&#45;&gt;Node19 -->
<g id="edge30" class="edge">
<title>Node7&#45;&gt;Node19</title>
<path fill="none" stroke="midnightblue" d="M693.01,-305.74C682.33,-296.66 670.61,-286.2 660.5,-276 632.71,-247.98 603.67,-211.86 588.4,-192.23"/>
<polygon fill="midnightblue" stroke="midnightblue" points="691.01,-308.63 700.92,-312.38 695.51,-303.27 691.01,-308.63"/>
</g>
<!-- Node20 -->
<g id="node20" class="node">
<title>Node20</title>
<g id="a_node20"><a xlink:href="Keypad_8hpp.xhtml" target="_top" xlink:title=" ">
<polygon fill="white" stroke="black" points="208,-234.5 208,-275.5 339,-275.5 339,-234.5 208,-234.5"/>
<text text-anchor="start" x="216" y="-263.5" font-family="Helvetica,sans-Serif" font-size="10.00">lib/board_adapters</text>
<text text-anchor="start" x="216" y="-252.5" font-family="Helvetica,sans-Serif" font-size="10.00">/input_device_interface</text>
<text text-anchor="middle" x="273.5" y="-241.5" font-family="Helvetica,sans-Serif" font-size="10.00">/Keypad.hpp</text>
</a>
</g>
</g>
<!-- Node7&#45;&gt;Node20 -->
<g id="edge26" class="edge">
<title>Node7&#45;&gt;Node20</title>
<path fill="none" stroke="midnightblue" d="M648.24,-319.01C561.19,-304.37 421.2,-280.83 339.21,-267.05"/>
<polygon fill="midnightblue" stroke="midnightblue" points="647.88,-322.5 658.32,-320.7 649.04,-315.59 647.88,-322.5"/>
</g>
<!-- Node9 -->
<g id="node9" class="node">
<title>Node9</title>
<g id="a_node9"><a xlink:href="GuiEngine_8hpp.xhtml" target="_top" xlink:title=" ">
<polygon fill="white" stroke="black" points="1006.5,-162 1006.5,-192 1132.5,-192 1132.5,-162 1006.5,-162"/>
<text text-anchor="start" x="1014.5" y="-180" font-family="Helvetica,sans-Serif" font-size="10.00">lib/3rd_party_adapters</text>
<text text-anchor="middle" x="1069.5" y="-169" font-family="Helvetica,sans-Serif" font-size="10.00">/LVGL/GuiEngine.hpp</text>
</a>
</g>
</g>
<!-- Node8&#45;&gt;Node9 -->
<g id="edge8" class="edge">
<title>Node8&#45;&gt;Node9</title>
<path fill="none" stroke="midnightblue" d="M923.93,-230.93C958.74,-218.28 1000.77,-202.99 1030.71,-192.11"/>
<polygon fill="midnightblue" stroke="midnightblue" points="922.52,-227.72 914.32,-234.43 924.92,-234.3 922.52,-227.72"/>
</g>
<!-- Node12 -->
<g id="node12" class="node">
<title>Node12</title>
<g id="a_node12"><a xlink:href="guiEngine__factory__interface_8hpp.xhtml" target="_top" xlink:title="Dependency injection for the guiEngine.">
<polygon fill="white" stroke="black" points="811,-156.5 811,-197.5 988,-197.5 988,-156.5 811,-156.5"/>
<text text-anchor="start" x="819" y="-185.5" font-family="Helvetica,sans-Serif" font-size="10.00">lib/application_business</text>
<text text-anchor="start" x="819" y="-174.5" font-family="Helvetica,sans-Serif" font-size="10.00">_rules/user_interaction</text>
<text text-anchor="middle" x="899.5" y="-163.5" font-family="Helvetica,sans-Serif" font-size="10.00">/guiEngine_factory_interface.hpp</text>
</a>
</g>
</g>
<!-- Node8&#45;&gt;Node12 -->
<g id="edge11" class="edge">
<title>Node8&#45;&gt;Node12</title>
<path fill="none" stroke="midnightblue" d="M875.14,-225.47C879.93,-216.14 885.13,-206.01 889.49,-197.51"/>
<polygon fill="midnightblue" stroke="midnightblue" points="872,-223.93 870.54,-234.43 878.22,-227.13 872,-223.93"/>
</g>
<!-- Node8&#45;&gt;Node14 -->
<g id="edge14" class="edge">
<title>Node8&#45;&gt;Node14</title>
<path fill="none" stroke="midnightblue" d="M816.95,-229.49C798.57,-219.13 777.45,-207.25 760.15,-197.51"/>
<polygon fill="midnightblue" stroke="midnightblue" points="815.3,-232.57 825.73,-234.43 818.74,-226.47 815.3,-232.57"/>
</g>
<!-- Node10 -->
<g id="node10" class="node">
<title>Node10</title>
<g id="a_node10"><a xlink:href="GuiEngine_8cpp.xhtml" target="_top" xlink:title="Connects LVGL callbacks to display driver and input device.">
<polygon fill="white" stroke="black" points="1046.5,-84 1046.5,-114 1172.5,-114 1172.5,-84 1046.5,-84"/>
<text text-anchor="start" x="1054.5" y="-102" font-family="Helvetica,sans-Serif" font-size="10.00">lib/3rd_party_adapters</text>
<text text-anchor="middle" x="1109.5" y="-91" font-family="Helvetica,sans-Serif" font-size="10.00">/LVGL/GuiEngine.cpp</text>
</a>
</g>
</g>
<!-- Node9&#45;&gt;Node10 -->
<g id="edge9" class="edge">
<title>Node9&#45;&gt;Node10</title>
<path fill="none" stroke="midnightblue" d="M1081.76,-152.7C1088.37,-140.14 1096.32,-125.04 1102.01,-114.23"/>
<polygon fill="midnightblue" stroke="midnightblue" points="1078.58,-151.23 1077.02,-161.7 1084.78,-154.49 1078.58,-151.23"/>
</g>
<!-- Node11 -->
<g id="node11" class="node">
<title>Node11</title>
<g id="a_node11"><a xlink:href="guiEngine__factory__interface_8cpp.xhtml" target="_top" xlink:title=" ">
<polygon fill="white" stroke="black" points="894.5,-78.5 894.5,-119.5 1028.5,-119.5 1028.5,-78.5 894.5,-78.5"/>
<text text-anchor="start" x="902.5" y="-107.5" font-family="Helvetica,sans-Serif" font-size="10.00">lib/3rd_party_adapters</text>
<text text-anchor="start" x="902.5" y="-96.5" font-family="Helvetica,sans-Serif" font-size="10.00">/LVGL/guiEngine_factory</text>
<text text-anchor="middle" x="961.5" y="-85.5" font-family="Helvetica,sans-Serif" font-size="10.00">_interface.cpp</text>
</a>
</g>
</g>
<!-- Node9&#45;&gt;Node11 -->
<g id="edge10" class="edge">
<title>Node9&#45;&gt;Node11</title>
<path fill="none" stroke="midnightblue" d="M1041.05,-155.98C1025.16,-144.8 1005.43,-130.91 989.6,-119.77"/>
<polygon fill="midnightblue" stroke="midnightblue" points="1039.25,-158.99 1049.44,-161.88 1043.28,-153.27 1039.25,-158.99"/>
</g>
<!-- Node12&#45;&gt;Node11 -->
<g id="edge12" class="edge">
<title>Node12&#45;&gt;Node11</title>
<path fill="none" stroke="midnightblue" d="M921.83,-148.63C929.69,-138.99 938.36,-128.36 945.59,-119.51"/>
<polygon fill="midnightblue" stroke="midnightblue" points="919.08,-146.47 915.47,-156.43 924.5,-150.89 919.08,-146.47"/>
</g>
<!-- Node13 -->
<g id="node13" class="node">
<title>Node13</title>
<g id="a_node13"><a xlink:href="main_8cpp.xhtml" target="_top" xlink:title=" ">
<polygon fill="white" stroke="black" points="732,-11.5 732,-30.5 811,-30.5 811,-11.5 732,-11.5"/>
<text text-anchor="middle" x="771.5" y="-18.5" font-family="Helvetica,sans-Serif" font-size="10.00">src/main.cpp</text>
</a>
</g>
</g>
<!-- Node12&#45;&gt;Node13 -->
<g id="edge13" class="edge">
<title>Node12&#45;&gt;Node13</title>
<path fill="none" stroke="midnightblue" d="M888.3,-147.14C879.33,-126.43 865.31,-98.65 847.5,-78 829.94,-57.65 803.69,-40.39 787.09,-30.61"/>
<polygon fill="midnightblue" stroke="midnightblue" points="885.08,-148.52 892.17,-156.39 891.54,-145.82 885.08,-148.52"/>
</g>
<!-- Node14&#45;&gt;Node13 -->
<g id="edge19" class="edge">
<title>Node14&#45;&gt;Node13</title>
<path fill="none" stroke="midnightblue" d="M648.51,-154.54C600.4,-140.77 546.92,-124.63 543.5,-120 532.41,-104.98 531.98,-92.69 543.5,-78 566.45,-48.73 672.55,-32.73 731.58,-25.96"/>
<polygon fill="midnightblue" stroke="midnightblue" points="647.78,-157.98 658.36,-157.35 649.7,-151.24 647.78,-157.98"/>
</g>
<!-- Node15 -->
<g id="node15" class="node">
<title>Node15</title>
<g id="a_node15"><a xlink:href="Menu_8cpp.xhtml" target="_top" xlink:title=" ">
<polygon fill="white" stroke="black" points="552.5,-78.5 552.5,-119.5 686.5,-119.5 686.5,-78.5 552.5,-78.5"/>
<text text-anchor="start" x="560.5" y="-107.5" font-family="Helvetica,sans-Serif" font-size="10.00">lib/application_business</text>
<text text-anchor="start" x="560.5" y="-96.5" font-family="Helvetica,sans-Serif" font-size="10.00">_rules/user_interaction</text>
<text text-anchor="middle" x="619.5" y="-85.5" font-family="Helvetica,sans-Serif" font-size="10.00">/Menu.cpp</text>
</a>
</g>
</g>
<!-- Node14&#45;&gt;Node15 -->
<g id="edge15" class="edge">
<title>Node14&#45;&gt;Node15</title>
<path fill="none" stroke="midnightblue" d="M689.73,-150.35C675.67,-140.27 659.8,-128.89 646.71,-119.51"/>
<polygon fill="midnightblue" stroke="midnightblue" points="688.04,-153.45 698.2,-156.43 692.11,-147.76 688.04,-153.45"/>
</g>
<!-- Node16 -->
<g id="node16" class="node">
<title>Node16</title>
<g id="a_node16"><a xlink:href="Presenter_8hpp.xhtml" target="_top" xlink:title=" ">
<polygon fill="white" stroke="black" points="704.5,-78.5 704.5,-119.5 838.5,-119.5 838.5,-78.5 704.5,-78.5"/>
<text text-anchor="start" x="712.5" y="-107.5" font-family="Helvetica,sans-Serif" font-size="10.00">lib/application_business</text>
<text text-anchor="start" x="712.5" y="-96.5" font-family="Helvetica,sans-Serif" font-size="10.00">_rules/user_interaction</text>
<text text-anchor="middle" x="771.5" y="-85.5" font-family="Helvetica,sans-Serif" font-size="10.00">/Presenter.hpp</text>
</a>
</g>
</g>
<!-- Node14&#45;&gt;Node16 -->
<g id="edge16" class="edge">
<title>Node14&#45;&gt;Node16</title>
<path fill="none" stroke="midnightblue" d="M742.59,-147.76C748.29,-138.35 754.49,-128.1 759.69,-119.51"/>
<polygon fill="midnightblue" stroke="midnightblue" points="739.53,-146.06 737.35,-156.43 745.52,-149.69 739.53,-146.06"/>
</g>
<!-- Node16&#45;&gt;Node3 -->
<g id="edge17" class="edge">
<title>Node16&#45;&gt;Node3</title>
<path fill="none" stroke="midnightblue" d="M848.44,-80.49C905.85,-67.43 983.53,-49.75 1038.42,-37.26"/>
<polygon fill="midnightblue" stroke="midnightblue" points="847.66,-77.08 838.69,-82.71 849.22,-83.91 847.66,-77.08"/>
</g>
<!-- Node16&#45;&gt;Node13 -->
<g id="edge18" class="edge">
<title>Node16&#45;&gt;Node13</title>
<path fill="none" stroke="midnightblue" d="M771.5,-68.05C771.5,-54.56 771.5,-39.65 771.5,-30.55"/>
<polygon fill="midnightblue" stroke="midnightblue" points="768,-68.43 771.5,-78.43 775,-68.43 768,-68.43"/>
</g>
<!-- Node17&#45;&gt;Node13 -->
<g id="edge22" class="edge">
<title>Node17&#45;&gt;Node13</title>
<path fill="none" stroke="midnightblue" d="M490.41,-224.26C488.12,-184.61 490.76,-115.13 531.5,-78 560.51,-51.56 671.24,-34.25 731.64,-26.57"/>
<polygon fill="midnightblue" stroke="midnightblue" points="486.93,-224.65 491.15,-234.37 493.91,-224.14 486.93,-224.65"/>
</g>
<!-- Node18 -->
<g id="node18" class="node">
<title>Node18</title>
<g id="a_node18"><a xlink:href="keypad__factory__interface_8cpp.xhtml" target="_top" xlink:title=" ">
<polygon fill="white" stroke="black" points="294.5,-156.5 294.5,-197.5 458.5,-197.5 458.5,-156.5 294.5,-156.5"/>
<text text-anchor="start" x="302.5" y="-185.5" font-family="Helvetica,sans-Serif" font-size="10.00">lib/board_adapters</text>
<text text-anchor="start" x="302.5" y="-174.5" font-family="Helvetica,sans-Serif" font-size="10.00">/input_device_interface</text>
<text text-anchor="middle" x="376.5" y="-163.5" font-family="Helvetica,sans-Serif" font-size="10.00">/keypad_factory_interface.cpp</text>
</a>
</g>
</g>
<!-- Node17&#45;&gt;Node18 -->
<g id="edge21" class="edge">
<title>Node17&#45;&gt;Node18</title>
<path fill="none" stroke="midnightblue" d="M454.89,-228.92C439.16,-218.7 421.25,-207.07 406.53,-197.51"/>
<polygon fill="midnightblue" stroke="midnightblue" points="453.08,-231.92 463.37,-234.43 456.89,-226.05 453.08,-231.92"/>
</g>
<!-- Node17&#45;&gt;Node19 -->
<g id="edge23" class="edge">
<title>Node17&#45;&gt;Node19</title>
<path fill="none" stroke="midnightblue" d="M522.61,-227.66C535.76,-215.76 550.78,-202.18 561.78,-192.23"/>
<polygon fill="midnightblue" stroke="midnightblue" points="520.2,-225.12 515.13,-234.43 524.9,-230.31 520.2,-225.12"/>
</g>
<!-- Node20&#45;&gt;Node18 -->
<g id="edge28" class="edge">
<title>Node20&#45;&gt;Node18</title>
<path fill="none" stroke="midnightblue" d="M308.26,-228.35C321.92,-218.27 337.34,-206.89 350.06,-197.51"/>
<polygon fill="midnightblue" stroke="midnightblue" points="305.99,-225.67 300.03,-234.43 310.15,-231.31 305.99,-225.67"/>
</g>
<!-- Node21 -->
<g id="node21" class="node">
<title>Node21</title>
<g id="a_node21"><a xlink:href="Keypad_8cpp.xhtml" target="_top" xlink:title=" ">
<polygon fill="white" stroke="black" points="0,-156.5 0,-197.5 131,-197.5 131,-156.5 0,-156.5"/>
<text text-anchor="start" x="8" y="-185.5" font-family="Helvetica,sans-Serif" font-size="10.00">lib/board_adapters</text>
<text text-anchor="start" x="8" y="-174.5" font-family="Helvetica,sans-Serif" font-size="10.00">/input_device_interface</text>
<text text-anchor="middle" x="65.5" y="-163.5" font-family="Helvetica,sans-Serif" font-size="10.00">/Keypad.cpp</text>
</a>
</g>
</g>
<!-- Node20&#45;&gt;Node21 -->
<g id="edge27" class="edge">
<title>Node20&#45;&gt;Node21</title>
<path fill="none" stroke="midnightblue" d="M210.24,-230.89C181.05,-220.22 146.76,-207.69 118.88,-197.51"/>
<polygon fill="midnightblue" stroke="midnightblue" points="209.34,-234.28 219.93,-234.43 211.74,-227.71 209.34,-234.28"/>
</g>
<!-- Node22 -->
<g id="node22" class="node">
<title>Node22</title>
<g id="a_node22"><a xlink:href="test__keyState_8cpp.xhtml" target="_top" xlink:title=" ">
<polygon fill="white" stroke="black" points="149,-162 149,-192 276,-192 276,-162 149,-162"/>
<text text-anchor="start" x="157" y="-180" font-family="Helvetica,sans-Serif" font-size="10.00">test/hmi/test_keyState</text>
<text text-anchor="middle" x="212.5" y="-169" font-family="Helvetica,sans-Serif" font-size="10.00">/test_keyState.cpp</text>
</a>
</g>
</g>
<!-- Node20&#45;&gt;Node22 -->
<g id="edge29" class="edge">
<title>Node20&#45;&gt;Node22</title>
<path fill="none" stroke="midnightblue" d="M251.28,-226.32C242,-214.75 231.61,-201.8 223.92,-192.23"/>
<polygon fill="midnightblue" stroke="midnightblue" points="248.8,-228.82 257.79,-234.43 254.26,-224.44 248.8,-228.82"/>
</g>
<!-- Node24&#45;&gt;Node4 -->
<g id="edge33" class="edge">
<title>Node24&#45;&gt;Node4</title>
<path fill="none" stroke="midnightblue" d="M1163.17,-305.78C1174.41,-295.84 1187.01,-284.72 1197.43,-275.51"/>
<polygon fill="midnightblue" stroke="midnightblue" points="1160.82,-303.18 1155.65,-312.43 1165.46,-308.43 1160.82,-303.18"/>
</g>
<!-- Node24&#45;&gt;Node13 -->
<g id="edge34" class="edge">
<title>Node24&#45;&gt;Node13</title>
<path fill="none" stroke="midnightblue" d="M1134.84,-302.14C1136.13,-282.59 1138.65,-256.57 1143.5,-234 1158.5,-164.23 1228.42,-131.77 1181.5,-78 1157.32,-50.29 909.55,-31.08 811.31,-24.5"/>
<polygon fill="midnightblue" stroke="midnightblue" points="1131.34,-302.09 1134.24,-312.28 1138.32,-302.5 1131.34,-302.09"/>
</g>
<!-- Node24&#45;&gt;Node19 -->
<g id="edge35" class="edge">
<title>Node24&#45;&gt;Node19</title>
<path fill="none" stroke="midnightblue" d="M1055.99,-325.9C984.3,-318.78 875.42,-304.19 784.5,-276 715,-254.45 639.09,-213.63 601.44,-192.11"/>
<polygon fill="midnightblue" stroke="midnightblue" points="1056,-329.41 1066.29,-326.89 1056.67,-322.45 1056,-329.41"/>
</g>
</g>
</svg>
