<?xml version="1.0" encoding="UTF-8" standalone="no"?>
<!DOCTYPE svg PUBLIC "-//W3C//DTD SVG 1.1//EN"
 "http://www.w3.org/Graphics/SVG/1.1/DTD/svg11.dtd">
<!-- Generated by graphviz version 2.43.0 (0)
 -->
<!-- Title: Task&#45;Tracker&#45;Device/lib/board_adapters/input_device_interface/Keypad.cpp Pages: 1 -->
<svg width="1089pt" height="285pt"
 viewBox="0.00 0.00 1088.50 285.00" xmlns="http://www.w3.org/2000/svg" xmlns:xlink="http://www.w3.org/1999/xlink">
<g id="graph0" class="graph" transform="scale(1 1) rotate(0) translate(4 281)">
<title>Task&#45;Tracker&#45;Device/lib/board_adapters/input_device_interface/Keypad.cpp</title>
<polygon fill="white" stroke="transparent" points="-4,4 -4,-281 1084.5,-281 1084.5,4 -4,4"/>
<!-- Node1 -->
<g id="node1" class="node">
<title>Node1</title>
<g id="a_node1"><a xlink:title=" ">
<polygon fill="#bfbfbf" stroke="black" points="533.5,-224.5 533.5,-276.5 664.5,-276.5 664.5,-224.5 533.5,-224.5"/>
<text text-anchor="start" x="541.5" y="-264.5" font-family="Helvetica,sans-Serif" font-size="10.00">Task&#45;Tracker&#45;Device</text>
<text text-anchor="start" x="541.5" y="-253.5" font-family="Helvetica,sans-Serif" font-size="10.00">/lib/board_adapters</text>
<text text-anchor="start" x="541.5" y="-242.5" font-family="Helvetica,sans-Serif" font-size="10.00">/input_device_interface</text>
<text text-anchor="middle" x="599" y="-231.5" font-family="Helvetica,sans-Serif" font-size="10.00">/Keypad.cpp</text>
</a>
</g>
</g>
<!-- Node2 -->
<g id="node2" class="node">
<title>Node2</title>
<g id="a_node2"><a xlink:href="Keypad_8hpp.xhtml" target="_top" xlink:title=" ">
<polygon fill="white" stroke="black" points="63,-168.5 63,-187.5 137,-187.5 137,-168.5 63,-168.5"/>
<text text-anchor="middle" x="100" y="-175.5" font-family="Helvetica,sans-Serif" font-size="10.00">Keypad.hpp</text>
</a>
</g>
</g>
<!-- Node1&#45;&gt;Node2 -->
<g id="edge1" class="edge">
<title>Node1&#45;&gt;Node2</title>
<path fill="none" stroke="midnightblue" d="M533.25,-240.21C431.17,-225.79 237,-198.36 147.43,-185.7"/>
<polygon fill="midnightblue" stroke="midnightblue" points="147.69,-182.2 137.3,-184.27 146.71,-189.13 147.69,-182.2"/>
</g>
<!-- Node6 -->
<g id="node6" class="node">
<title>Node6</title>
<g id="a_node6"><a xlink:title=" ">
<polygon fill="white" stroke="#bfbfbf" points="153.5,-56.5 153.5,-75.5 218.5,-75.5 218.5,-56.5 153.5,-56.5"/>
<text text-anchor="middle" x="186" y="-63.5" font-family="Helvetica,sans-Serif" font-size="10.00">functional</text>
</a>
</g>
</g>
<!-- Node1&#45;&gt;Node6 -->
<g id="edge19" class="edge">
<title>Node1&#45;&gt;Node6</title>
<path fill="none" stroke="midnightblue" d="M533.32,-248.31C433.39,-245.06 250,-232.96 205,-188 177.88,-160.91 179.53,-111.98 182.88,-85.4"/>
<polygon fill="midnightblue" stroke="midnightblue" points="186.35,-85.91 184.34,-75.5 179.42,-84.88 186.35,-85.91"/>
</g>
<!-- Node7 -->
<g id="node7" class="node">
<title>Node7</title>
<g id="a_node7"><a xlink:href="debouncedIsr_8hpp.xhtml" target="_top" xlink:title=" ">
<polygon fill="white" stroke="black" points="214,-168.5 214,-187.5 316,-187.5 316,-168.5 214,-168.5"/>
<text text-anchor="middle" x="265" y="-175.5" font-family="Helvetica,sans-Serif" font-size="10.00">debouncedIsr.hpp</text>
</a>
</g>
</g>
<!-- Node1&#45;&gt;Node7 -->
<g id="edge6" class="edge">
<title>Node1&#45;&gt;Node7</title>
<path fill="none" stroke="midnightblue" d="M533.41,-235.66C469.61,-222.19 374.02,-202.01 315.8,-189.72"/>
<polygon fill="midnightblue" stroke="midnightblue" points="316.24,-186.24 305.73,-187.6 314.79,-193.09 316.24,-186.24"/>
</g>
<!-- Node8 -->
<g id="node8" class="node">
<title>Node8</title>
<g id="a_node8"><a xlink:title=" ">
<polygon fill="white" stroke="#bfbfbf" points="306,-112.5 306,-131.5 356,-131.5 356,-112.5 306,-112.5"/>
<text text-anchor="middle" x="331" y="-119.5" font-family="Helvetica,sans-Serif" font-size="10.00">chrono</text>
</a>
</g>
</g>
<!-- Node1&#45;&gt;Node8 -->
<g id="edge17" class="edge">
<title>Node1&#45;&gt;Node8</title>
<path fill="none" stroke="midnightblue" d="M533.31,-246.94C481.89,-241.77 411.23,-227.34 363,-188 348.55,-176.22 340.11,-156.29 335.56,-141.6"/>
<polygon fill="midnightblue" stroke="midnightblue" points="338.83,-140.32 332.8,-131.61 332.09,-142.18 338.83,-140.32"/>
</g>
<!-- Node9 -->
<g id="node9" class="node">
<title>Node9</title>
<g id="a_node9"><a xlink:href="Arduino-wrapper_8h.xhtml" target="_top" xlink:title="Circumvents problematic processor macros defined by Arduino framework.">
<polygon fill="white" stroke="black" points="372,-168.5 372,-187.5 478,-187.5 478,-168.5 372,-168.5"/>
<text text-anchor="middle" x="425" y="-175.5" font-family="Helvetica,sans-Serif" font-size="10.00">Arduino&#45;wrapper.h</text>
</a>
</g>
</g>
<!-- Node1&#45;&gt;Node9 -->
<g id="edge9" class="edge">
<title>Node1&#45;&gt;Node9</title>
<path fill="none" stroke="midnightblue" d="M537.16,-224.45C509.43,-213.21 477.95,-200.45 455.42,-191.33"/>
<polygon fill="midnightblue" stroke="midnightblue" points="456.63,-188.04 446.05,-187.53 454,-194.53 456.63,-188.04"/>
</g>
<!-- Node11 -->
<g id="node11" class="node">
<title>Node11</title>
<g id="a_node11"><a xlink:title=" ">
<polygon fill="white" stroke="#bfbfbf" points="496,-168.5 496,-187.5 560,-187.5 560,-168.5 496,-168.5"/>
<text text-anchor="middle" x="528" y="-175.5" font-family="Helvetica,sans-Serif" font-size="10.00">algorithm</text>
</a>
</g>
</g>
<!-- Node1&#45;&gt;Node11 -->
<g id="edge11" class="edge">
<title>Node1&#45;&gt;Node11</title>
<path fill="none" stroke="midnightblue" d="M573.77,-224.45C563.88,-214.63 552.83,-203.66 544.07,-194.95"/>
<polygon fill="midnightblue" stroke="midnightblue" points="546.32,-192.26 536.76,-187.7 541.39,-197.23 546.32,-192.26"/>
</g>
<!-- Node12 -->
<g id="node12" class="node">
<title>Node12</title>
<g id="a_node12"><a xlink:title=" ">
<polygon fill="white" stroke="#bfbfbf" points="578,-168.5 578,-187.5 620,-187.5 620,-168.5 578,-168.5"/>
<text text-anchor="middle" x="599" y="-175.5" font-family="Helvetica,sans-Serif" font-size="10.00">array</text>
</a>
</g>
</g>
<!-- Node1&#45;&gt;Node12 -->
<g id="edge12" class="edge">
<title>Node1&#45;&gt;Node12</title>
<path fill="none" stroke="midnightblue" d="M599,-224.45C599,-215.73 599,-206.1 599,-197.96"/>
<polygon fill="midnightblue" stroke="midnightblue" points="602.5,-197.7 599,-187.7 595.5,-197.7 602.5,-197.7"/>
</g>
<!-- Node13 -->
<g id="node13" class="node">
<title>Node13</title>
<g id="a_node13"><a xlink:href="board__pins_8hpp.xhtml" target="_top" xlink:title="Provides named objects for the pins provided by the board.">
<polygon fill="white" stroke="black" points="638.5,-168.5 638.5,-187.5 729.5,-187.5 729.5,-168.5 638.5,-168.5"/>
<text text-anchor="middle" x="684" y="-175.5" font-family="Helvetica,sans-Serif" font-size="10.00">board_pins.hpp</text>
</a>
</g>
</g>
<!-- Node1&#45;&gt;Node13 -->
<g id="edge13" class="edge">
<title>Node1&#45;&gt;Node13</title>
<path fill="none" stroke="midnightblue" d="M629.21,-224.45C641.41,-214.33 655.08,-202.98 665.72,-194.16"/>
<polygon fill="midnightblue" stroke="midnightblue" points="668.05,-196.77 673.52,-187.7 663.58,-191.39 668.05,-196.77"/>
</g>
<!-- Node16 -->
<g id="node16" class="node">
<title>Node16</title>
<g id="a_node16"><a xlink:title=" ">
<polygon fill="white" stroke="#bfbfbf" points="748,-168.5 748,-187.5 800,-187.5 800,-168.5 748,-168.5"/>
<text text-anchor="middle" x="774" y="-175.5" font-family="Helvetica,sans-Serif" font-size="10.00">cassert</text>
</a>
</g>
</g>
<!-- Node1&#45;&gt;Node16 -->
<g id="edge16" class="edge">
<title>Node1&#45;&gt;Node16</title>
<path fill="none" stroke="midnightblue" d="M661.19,-224.45C689.09,-213.21 720.74,-200.45 743.41,-191.33"/>
<polygon fill="midnightblue" stroke="midnightblue" points="744.87,-194.51 752.83,-187.53 742.25,-188.02 744.87,-194.51"/>
</g>
<!-- Node17 -->
<g id="node17" class="node">
<title>Node17</title>
<g id="a_node17"><a xlink:title=" ">
<polygon fill="white" stroke="#bfbfbf" points="818.5,-168.5 818.5,-187.5 871.5,-187.5 871.5,-168.5 818.5,-168.5"/>
<text text-anchor="middle" x="845" y="-175.5" font-family="Helvetica,sans-Serif" font-size="10.00">cstddef</text>
</a>
</g>
</g>
<!-- Node1&#45;&gt;Node17 -->
<g id="edge18" class="edge">
<title>Node1&#45;&gt;Node17</title>
<path fill="none" stroke="midnightblue" d="M664.6,-230.7C710.66,-217.5 770.55,-200.34 808.4,-189.49"/>
<polygon fill="midnightblue" stroke="midnightblue" points="809.81,-192.73 818.46,-186.61 807.88,-186 809.81,-192.73"/>
</g>
<!-- Node18 -->
<g id="node18" class="node">
<title>Node18</title>
<g id="a_node18"><a xlink:title=" ">
<polygon fill="white" stroke="#bfbfbf" points="889.5,-168.5 889.5,-187.5 942.5,-187.5 942.5,-168.5 889.5,-168.5"/>
<text text-anchor="middle" x="916" y="-175.5" font-family="Helvetica,sans-Serif" font-size="10.00">iterator</text>
</a>
</g>
</g>
<!-- Node1&#45;&gt;Node18 -->
<g id="edge20" class="edge">
<title>Node1&#45;&gt;Node18</title>
<path fill="none" stroke="midnightblue" d="M664.7,-235.69C719.39,-224.07 799.56,-206.73 879.09,-188.16"/>
<polygon fill="midnightblue" stroke="midnightblue" points="880.35,-191.46 889.28,-185.77 878.75,-184.64 880.35,-191.46"/>
</g>
<!-- Node19 -->
<g id="node19" class="node">
<title>Node19</title>
<g id="a_node19"><a xlink:title=" ">
<polygon fill="white" stroke="#bfbfbf" points="961,-168.5 961,-187.5 1017,-187.5 1017,-168.5 961,-168.5"/>
<text text-anchor="middle" x="989" y="-175.5" font-family="Helvetica,sans-Serif" font-size="10.00">optional</text>
</a>
</g>
</g>
<!-- Node1&#45;&gt;Node19 -->
<g id="edge21" class="edge">
<title>Node1&#45;&gt;Node19</title>
<path fill="none" stroke="midnightblue" d="M664.63,-239.4C733.55,-228.49 845.26,-209.96 950.89,-188.13"/>
<polygon fill="midnightblue" stroke="midnightblue" points="951.68,-191.54 960.76,-186.07 950.26,-184.68 951.68,-191.54"/>
</g>
<!-- Node20 -->
<g id="node20" class="node">
<title>Node20</title>
<g id="a_node20"><a xlink:title=" ">
<polygon fill="white" stroke="#bfbfbf" points="1035.5,-168.5 1035.5,-187.5 1080.5,-187.5 1080.5,-168.5 1035.5,-168.5"/>
<text text-anchor="middle" x="1058" y="-175.5" font-family="Helvetica,sans-Serif" font-size="10.00">utility</text>
</a>
</g>
</g>
<!-- Node1&#45;&gt;Node20 -->
<g id="edge22" class="edge">
<title>Node1&#45;&gt;Node20</title>
<path fill="none" stroke="midnightblue" d="M664.58,-242.76C746.74,-233.71 891.93,-215.74 1025.37,-187.87"/>
<polygon fill="midnightblue" stroke="midnightblue" points="1026.3,-191.25 1035.37,-185.76 1024.86,-184.4 1026.3,-191.25"/>
</g>
<!-- Node3 -->
<g id="node3" class="node">
<title>Node3</title>
<g id="a_node3"><a xlink:href="IKeypad_8hpp.xhtml" target="_top" xlink:title=" ">
<polygon fill="white" stroke="black" points="0,-112.5 0,-131.5 158,-131.5 158,-112.5 0,-112.5"/>
<text text-anchor="middle" x="79" y="-119.5" font-family="Helvetica,sans-Serif" font-size="10.00">user_interaction/IKeypad.hpp</text>
</a>
</g>
</g>
<!-- Node2&#45;&gt;Node3 -->
<g id="edge2" class="edge">
<title>Node2&#45;&gt;Node3</title>
<path fill="none" stroke="midnightblue" d="M96.53,-168.08C93.69,-160.77 89.57,-150.18 86.04,-141.1"/>
<polygon fill="midnightblue" stroke="midnightblue" points="89.29,-139.8 82.4,-131.75 82.77,-142.34 89.29,-139.8"/>
</g>
<!-- Node4 -->
<g id="node4" class="node">
<title>Node4</title>
<g id="a_node4"><a xlink:href="KeyIds_8hpp.xhtml" target="_top" xlink:title=" ">
<polygon fill="white" stroke="black" points="44,-56.5 44,-75.5 114,-75.5 114,-56.5 44,-56.5"/>
<text text-anchor="middle" x="79" y="-63.5" font-family="Helvetica,sans-Serif" font-size="10.00">KeyIds.hpp</text>
</a>
</g>
</g>
<!-- Node3&#45;&gt;Node4 -->
<g id="edge3" class="edge">
<title>Node3&#45;&gt;Node4</title>
<path fill="none" stroke="midnightblue" d="M79,-112.08C79,-105.01 79,-94.86 79,-85.99"/>
<polygon fill="midnightblue" stroke="midnightblue" points="82.5,-85.75 79,-75.75 75.5,-85.75 82.5,-85.75"/>
</g>
<!-- Node3&#45;&gt;Node6 -->
<g id="edge5" class="edge">
<title>Node3&#45;&gt;Node6</title>
<path fill="none" stroke="midnightblue" d="M96.19,-112.32C113.35,-103.66 139.95,-90.24 159.75,-80.25"/>
<polygon fill="midnightblue" stroke="midnightblue" points="161.5,-83.28 168.85,-75.65 158.35,-77.04 161.5,-83.28"/>
</g>
<!-- Node5 -->
<g id="node5" class="node">
<title>Node5</title>
<g id="a_node5"><a xlink:title=" ">
<polygon fill="white" stroke="#bfbfbf" points="50.5,-0.5 50.5,-19.5 107.5,-19.5 107.5,-0.5 50.5,-0.5"/>
<text text-anchor="middle" x="79" y="-7.5" font-family="Helvetica,sans-Serif" font-size="10.00">ostream</text>
</a>
</g>
</g>
<!-- Node4&#45;&gt;Node5 -->
<g id="edge4" class="edge">
<title>Node4&#45;&gt;Node5</title>
<path fill="none" stroke="midnightblue" d="M79,-56.08C79,-49.01 79,-38.86 79,-29.99"/>
<polygon fill="midnightblue" stroke="midnightblue" points="82.5,-29.75 79,-19.75 75.5,-29.75 82.5,-29.75"/>
</g>
<!-- Node7&#45;&gt;Node6 -->
<g id="edge8" class="edge">
<title>Node7&#45;&gt;Node6</title>
<path fill="none" stroke="midnightblue" d="M258.8,-168.37C245.76,-150.22 215.3,-107.8 198.2,-83.99"/>
<polygon fill="midnightblue" stroke="midnightblue" points="200.85,-81.67 192.17,-75.59 195.16,-85.76 200.85,-81.67"/>
</g>
<!-- Node7&#45;&gt;Node8 -->
<g id="edge7" class="edge">
<title>Node7&#45;&gt;Node8</title>
<path fill="none" stroke="midnightblue" d="M275.6,-168.32C285.46,-160.26 300.35,-148.08 312.22,-138.37"/>
<polygon fill="midnightblue" stroke="midnightblue" points="314.68,-140.88 320.2,-131.83 310.25,-135.46 314.68,-140.88"/>
</g>
<!-- Node10 -->
<g id="node10" class="node">
<title>Node10</title>
<g id="a_node10"><a xlink:title=" ">
<polygon fill="white" stroke="#bfbfbf" points="393.5,-112.5 393.5,-131.5 456.5,-131.5 456.5,-112.5 393.5,-112.5"/>
<text text-anchor="middle" x="425" y="-119.5" font-family="Helvetica,sans-Serif" font-size="10.00">Arduino.h</text>
</a>
</g>
</g>
<!-- Node9&#45;&gt;Node10 -->
<g id="edge10" class="edge">
<title>Node9&#45;&gt;Node10</title>
<path fill="none" stroke="midnightblue" d="M425,-168.08C425,-161.01 425,-150.86 425,-141.99"/>
<polygon fill="midnightblue" stroke="midnightblue" points="428.5,-141.75 425,-131.75 421.5,-141.75 428.5,-141.75"/>
</g>
<!-- Node14 -->
<g id="node14" class="node">
<title>Node14</title>
<g id="a_node14"><a xlink:href="board__types_8hpp.xhtml" target="_top" xlink:title=" ">
<polygon fill="white" stroke="black" points="635,-112.5 635,-131.5 733,-131.5 733,-112.5 635,-112.5"/>
<text text-anchor="middle" x="684" y="-119.5" font-family="Helvetica,sans-Serif" font-size="10.00">board_types.hpp</text>
</a>
</g>
</g>
<!-- Node13&#45;&gt;Node14 -->
<g id="edge14" class="edge">
<title>Node13&#45;&gt;Node14</title>
<path fill="none" stroke="midnightblue" d="M684,-168.08C684,-161.01 684,-150.86 684,-141.99"/>
<polygon fill="midnightblue" stroke="midnightblue" points="687.5,-141.75 684,-131.75 680.5,-141.75 687.5,-141.75"/>
</g>
<!-- Node15 -->
<g id="node15" class="node">
<title>Node15</title>
<g id="a_node15"><a xlink:title=" ">
<polygon fill="white" stroke="#bfbfbf" points="659,-56.5 659,-75.5 709,-75.5 709,-56.5 659,-56.5"/>
<text text-anchor="middle" x="684" y="-63.5" font-family="Helvetica,sans-Serif" font-size="10.00">cstdint</text>
</a>
</g>
</g>
<!-- Node14&#45;&gt;Node15 -->
<g id="edge15" class="edge">
<title>Node14&#45;&gt;Node15</title>
<path fill="none" stroke="midnightblue" d="M684,-112.08C684,-105.01 684,-94.86 684,-85.99"/>
<polygon fill="midnightblue" stroke="midnightblue" points="687.5,-85.75 684,-75.75 680.5,-85.75 687.5,-85.75"/>
</g>
</g>
</svg>
