<?xml version="1.0" encoding="UTF-8" standalone="no"?>
<!DOCTYPE svg PUBLIC "-//W3C//DTD SVG 1.1//EN"
 "http://www.w3.org/Graphics/SVG/1.1/DTD/svg11.dtd">
<!-- Generated by graphviz version 2.43.0 (0)
 -->
<!-- Title: Task&#45;Tracker&#45;Device/lib/application_business_rules/user_interaction/keypad_factory_interface.hpp Pages: 1 -->
<svg width="450pt" height="150pt"
 viewBox="0.00 0.00 450.00 150.00" xmlns="http://www.w3.org/2000/svg" xmlns:xlink="http://www.w3.org/1999/xlink">
<g id="graph0" class="graph" transform="scale(1 1) rotate(0) translate(4 146)">
<title>Task&#45;Tracker&#45;Device/lib/application_business_rules/user_interaction/keypad_factory_interface.hpp</title>
<polygon fill="white" stroke="transparent" points="-4,4 -4,-146 446,-146 446,4 -4,4"/>
<!-- Node1 -->
<g id="node1" class="node">
<title>Node1</title>
<g id="a_node1"><a xlink:title="Dependency injection for the keypad.">
<polygon fill="#bfbfbf" stroke="black" points="157,-89.5 157,-141.5 321,-141.5 321,-89.5 157,-89.5"/>
<text text-anchor="start" x="165" y="-129.5" font-family="Helvetica,sans-Serif" font-size="10.00">Task&#45;Tracker&#45;Device</text>
<text text-anchor="start" x="165" y="-118.5" font-family="Helvetica,sans-Serif" font-size="10.00">/lib/application_business</text>
<text text-anchor="start" x="165" y="-107.5" font-family="Helvetica,sans-Serif" font-size="10.00">_rules/user_interaction</text>
<text text-anchor="middle" x="239" y="-96.5" font-family="Helvetica,sans-Serif" font-size="10.00">/keypad_factory_interface.hpp</text>
</a>
</g>
</g>
<!-- Node2 -->
<g id="node2" class="node">
<title>Node2</title>
<g id="a_node2"><a xlink:href="keypad__factory__interface_8cpp.xhtml" target="_top" xlink:title=" ">
<polygon fill="white" stroke="black" points="0,-0.5 0,-52.5 164,-52.5 164,-0.5 0,-0.5"/>
<text text-anchor="start" x="8" y="-40.5" font-family="Helvetica,sans-Serif" font-size="10.00">Task&#45;Tracker&#45;Device</text>
<text text-anchor="start" x="8" y="-29.5" font-family="Helvetica,sans-Serif" font-size="10.00">/lib/board_adapters</text>
<text text-anchor="start" x="8" y="-18.5" font-family="Helvetica,sans-Serif" font-size="10.00">/input_device_interface</text>
<text text-anchor="middle" x="82" y="-7.5" font-family="Helvetica,sans-Serif" font-size="10.00">/keypad_factory_interface.cpp</text>
</a>
</g>
</g>
<!-- Node1&#45;&gt;Node2 -->
<g id="edge1" class="edge">
<title>Node1&#45;&gt;Node2</title>
<path fill="none" stroke="midnightblue" d="M184.6,-84.35C165.91,-74 145.2,-62.52 127.31,-52.61"/>
<polygon fill="midnightblue" stroke="midnightblue" points="183.15,-87.55 193.59,-89.34 186.54,-81.43 183.15,-87.55"/>
</g>
<!-- Node3 -->
<g id="node3" class="node">
<title>Node3</title>
<g id="a_node3"><a xlink:href="main_8cpp.xhtml" target="_top" xlink:title=" ">
<polygon fill="white" stroke="black" points="182.5,-11.5 182.5,-41.5 295.5,-41.5 295.5,-11.5 182.5,-11.5"/>
<text text-anchor="start" x="190.5" y="-29.5" font-family="Helvetica,sans-Serif" font-size="10.00">Task&#45;Tracker&#45;Device</text>
<text text-anchor="middle" x="239" y="-18.5" font-family="Helvetica,sans-Serif" font-size="10.00">/src/main.cpp</text>
</a>
</g>
</g>
<!-- Node1&#45;&gt;Node3 -->
<g id="edge2" class="edge">
<title>Node1&#45;&gt;Node3</title>
<path fill="none" stroke="midnightblue" d="M239,-79.15C239,-66.05 239,-51.93 239,-41.77"/>
<polygon fill="midnightblue" stroke="midnightblue" points="235.5,-79.34 239,-89.34 242.5,-79.34 235.5,-79.34"/>
</g>
<!-- Node4 -->
<g id="node4" class="node">
<title>Node4</title>
<g id="a_node4"><a xlink:href="test__hmi_8cpp.xhtml" target="_top" xlink:title=" ">
<polygon fill="white" stroke="black" points="314,-6 314,-47 442,-47 442,-6 314,-6"/>
<text text-anchor="start" x="322" y="-35" font-family="Helvetica,sans-Serif" font-size="10.00">Task&#45;Tracker&#45;Device</text>
<text text-anchor="start" x="322" y="-24" font-family="Helvetica,sans-Serif" font-size="10.00">/test/hmi/test_hmi/test</text>
<text text-anchor="middle" x="378" y="-13" font-family="Helvetica,sans-Serif" font-size="10.00">_hmi.cpp</text>
</a>
</g>
</g>
<!-- Node1&#45;&gt;Node4 -->
<g id="edge3" class="edge">
<title>Node1&#45;&gt;Node4</title>
<path fill="none" stroke="midnightblue" d="M287.72,-84.01C307.31,-71.74 329.33,-57.96 346.71,-47.08"/>
<polygon fill="midnightblue" stroke="midnightblue" points="285.82,-81.06 279.2,-89.34 289.54,-87 285.82,-81.06"/>
</g>
</g>
</svg>
