<?xml version="1.0" encoding="UTF-8" standalone="no"?>
<!DOCTYPE svg PUBLIC "-//W3C//DTD SVG 1.1//EN"
 "http://www.w3.org/Graphics/SVG/1.1/DTD/svg11.dtd">
<!-- Generated by graphviz version 2.43.0 (0)
 -->
<!-- Title: lib/board_adapters/input_device_interface/keypad_factory_interface.cpp Pages: 1 -->
<svg width="234pt" height="285pt"
 viewBox="0.00 0.00 234.00 285.00" xmlns="http://www.w3.org/2000/svg" xmlns:xlink="http://www.w3.org/1999/xlink">
<g id="graph0" class="graph" transform="scale(1 1) rotate(0) translate(4 281)">
<title>lib/board_adapters/input_device_interface/keypad_factory_interface.cpp</title>
<polygon fill="white" stroke="transparent" points="-4,4 -4,-281 230,-281 230,4 -4,4"/>
<!-- Node1 -->
<g id="node1" class="node">
<title>Node1</title>
<g id="a_node1"><a xlink:title=" ">
<polygon fill="#bfbfbf" stroke="black" points="16,-235.5 16,-276.5 180,-276.5 180,-235.5 16,-235.5"/>
<text text-anchor="start" x="24" y="-264.5" font-family="Helvetica,sans-Serif" font-size="10.00">lib/board_adapters</text>
<text text-anchor="start" x="24" y="-253.5" font-family="Helvetica,sans-Serif" font-size="10.00">/input_device_interface</text>
<text text-anchor="middle" x="98" y="-242.5" font-family="Helvetica,sans-Serif" font-size="10.00">/keypad_factory_interface.cpp</text>
</a>
</g>
</g>
<!-- Node2 -->
<g id="node2" class="node">
<title>Node2</title>
<g id="a_node2"><a xlink:href="Keypad_8hpp.xhtml" target="_top" xlink:title=" ">
<polygon fill="white" stroke="black" points="0,-174 0,-193 74,-193 74,-174 0,-174"/>
<text text-anchor="middle" x="37" y="-181" font-family="Helvetica,sans-Serif" font-size="10.00">Keypad.hpp</text>
</a>
</g>
</g>
<!-- Node1&#45;&gt;Node2 -->
<g id="edge1" class="edge">
<title>Node1&#45;&gt;Node2</title>
<path fill="none" stroke="midnightblue" d="M81.01,-235.36C71.64,-224.54 60.15,-211.26 51.26,-200.98"/>
<polygon fill="midnightblue" stroke="midnightblue" points="53.69,-198.45 44.5,-193.17 48.4,-203.03 53.69,-198.45"/>
</g>
<!-- Node7 -->
<g id="node7" class="node">
<title>Node7</title>
<g id="a_node7"><a xlink:href="keypad__factory__interface_8hpp.xhtml" target="_top" xlink:title="Dependency injection for the keypad.">
<polygon fill="white" stroke="black" points="92,-168.5 92,-198.5 226,-198.5 226,-168.5 92,-168.5"/>
<text text-anchor="start" x="100" y="-186.5" font-family="Helvetica,sans-Serif" font-size="10.00">user_interaction/keypad</text>
<text text-anchor="middle" x="159" y="-175.5" font-family="Helvetica,sans-Serif" font-size="10.00">_factory_interface.hpp</text>
</a>
</g>
</g>
<!-- Node1&#45;&gt;Node7 -->
<g id="edge6" class="edge">
<title>Node1&#45;&gt;Node7</title>
<path fill="none" stroke="midnightblue" d="M114.99,-235.36C122.74,-226.41 131.93,-215.78 139.92,-206.56"/>
<polygon fill="midnightblue" stroke="midnightblue" points="142.65,-208.74 146.55,-198.89 137.36,-204.16 142.65,-208.74"/>
</g>
<!-- Node3 -->
<g id="node3" class="node">
<title>Node3</title>
<g id="a_node3"><a xlink:href="IKeypad_8hpp.xhtml" target="_top" xlink:title=" ">
<polygon fill="white" stroke="black" points="19,-112.5 19,-131.5 177,-131.5 177,-112.5 19,-112.5"/>
<text text-anchor="middle" x="98" y="-119.5" font-family="Helvetica,sans-Serif" font-size="10.00">user_interaction/IKeypad.hpp</text>
</a>
</g>
</g>
<!-- Node2&#45;&gt;Node3 -->
<g id="edge2" class="edge">
<title>Node2&#45;&gt;Node3</title>
<path fill="none" stroke="midnightblue" d="M45.74,-173.98C55.16,-164.78 70.36,-149.96 81.95,-138.66"/>
<polygon fill="midnightblue" stroke="midnightblue" points="84.56,-141 89.28,-131.51 79.67,-135.99 84.56,-141"/>
</g>
<!-- Node4 -->
<g id="node4" class="node">
<title>Node4</title>
<g id="a_node4"><a xlink:href="KeyIds_8hpp.xhtml" target="_top" xlink:title=" ">
<polygon fill="white" stroke="black" points="20,-56.5 20,-75.5 90,-75.5 90,-56.5 20,-56.5"/>
<text text-anchor="middle" x="55" y="-63.5" font-family="Helvetica,sans-Serif" font-size="10.00">KeyIds.hpp</text>
</a>
</g>
</g>
<!-- Node3&#45;&gt;Node4 -->
<g id="edge3" class="edge">
<title>Node3&#45;&gt;Node4</title>
<path fill="none" stroke="midnightblue" d="M90.9,-112.08C84.76,-104.38 75.73,-93.03 68.26,-83.65"/>
<polygon fill="midnightblue" stroke="midnightblue" points="70.94,-81.39 61.97,-75.75 65.46,-85.75 70.94,-81.39"/>
</g>
<!-- Node6 -->
<g id="node6" class="node">
<title>Node6</title>
<g id="a_node6"><a xlink:title=" ">
<polygon fill="white" stroke="#bfbfbf" points="108.5,-56.5 108.5,-75.5 173.5,-75.5 173.5,-56.5 108.5,-56.5"/>
<text text-anchor="middle" x="141" y="-63.5" font-family="Helvetica,sans-Serif" font-size="10.00">functional</text>
</a>
</g>
</g>
<!-- Node3&#45;&gt;Node6 -->
<g id="edge5" class="edge">
<title>Node3&#45;&gt;Node6</title>
<path fill="none" stroke="midnightblue" d="M105.1,-112.08C111.24,-104.38 120.27,-93.03 127.74,-83.65"/>
<polygon fill="midnightblue" stroke="midnightblue" points="130.54,-85.75 134.03,-75.75 125.06,-81.39 130.54,-85.75"/>
</g>
<!-- Node5 -->
<g id="node5" class="node">
<title>Node5</title>
<g id="a_node5"><a xlink:title=" ">
<polygon fill="white" stroke="#bfbfbf" points="26.5,-0.5 26.5,-19.5 83.5,-19.5 83.5,-0.5 26.5,-0.5"/>
<text text-anchor="middle" x="55" y="-7.5" font-family="Helvetica,sans-Serif" font-size="10.00">ostream</text>
</a>
</g>
</g>
<!-- Node4&#45;&gt;Node5 -->
<g id="edge4" class="edge">
<title>Node4&#45;&gt;Node5</title>
<path fill="none" stroke="midnightblue" d="M55,-56.08C55,-49.01 55,-38.86 55,-29.99"/>
<polygon fill="midnightblue" stroke="midnightblue" points="58.5,-29.75 55,-19.75 51.5,-29.75 58.5,-29.75"/>
</g>
<!-- Node7&#45;&gt;Node3 -->
<g id="edge7" class="edge">
<title>Node7&#45;&gt;Node3</title>
<path fill="none" stroke="midnightblue" d="M144.54,-168.4C135.41,-159.49 123.58,-147.95 114.14,-138.74"/>
<polygon fill="midnightblue" stroke="midnightblue" points="116.48,-136.13 106.88,-131.66 111.59,-141.15 116.48,-136.13"/>
</g>
</g>
</svg>
