<?xml version="1.0" encoding="UTF-8" standalone="no"?>
<!DOCTYPE svg PUBLIC "-//W3C//DTD SVG 1.1//EN"
 "http://www.w3.org/Graphics/SVG/1.1/DTD/svg11.dtd">
<!-- Generated by graphviz version 2.43.0 (0)
 -->
<!-- Title: Task&#45;Tracker&#45;Device/src/main.cpp Pages: 1 -->
<svg width="1240pt" height="419pt"
 viewBox="0.00 0.00 1240.00 419.00" xmlns="http://www.w3.org/2000/svg" xmlns:xlink="http://www.w3.org/1999/xlink">
<g id="graph0" class="graph" transform="scale(1 1) rotate(0) translate(4 415)">
<title>Task&#45;Tracker&#45;Device/src/main.cpp</title>
<polygon fill="white" stroke="transparent" points="-4,4 -4,-415 1236,-415 1236,4 -4,4"/>
<!-- Node1 -->
<g id="node1" class="node">
<title>Node1</title>
<g id="a_node1"><a xlink:title=" ">
<polygon fill="#bfbfbf" stroke="black" points="486.5,-380.5 486.5,-410.5 599.5,-410.5 599.5,-380.5 486.5,-380.5"/>
<text text-anchor="start" x="494.5" y="-398.5" font-family="Helvetica,sans-Serif" font-size="10.00">Task&#45;Tracker&#45;Device</text>
<text text-anchor="middle" x="543" y="-387.5" font-family="Helvetica,sans-Serif" font-size="10.00">/src/main.cpp</text>
</a>
</g>
</g>
<!-- Node2 -->
<g id="node2" class="node">
<title>Node2</title>
<g id="a_node2"><a xlink:title=" ">
<polygon fill="white" stroke="#bfbfbf" points="106,-252 106,-271 156,-271 156,-252 106,-252"/>
<text text-anchor="middle" x="131" y="-259" font-family="Helvetica,sans-Serif" font-size="10.00">chrono</text>
</a>
</g>
</g>
<!-- Node1&#45;&gt;Node2 -->
<g id="edge1" class="edge">
<title>Node1&#45;&gt;Node2</title>
<path fill="none" stroke="midnightblue" d="M486.44,-394.81C389.98,-394.14 199.36,-387.2 151,-344 133.46,-328.33 130.09,-300.02 129.99,-281.24"/>
<polygon fill="midnightblue" stroke="midnightblue" points="133.49,-281.3 130.24,-271.21 126.49,-281.12 133.49,-281.3"/>
</g>
<!-- Node3 -->
<g id="node3" class="node">
<title>Node3</title>
<g id="a_node3"><a xlink:href="Protocol_8hpp.xhtml" target="_top" xlink:title=" ">
<polygon fill="white" stroke="black" points="1010,-319 1010,-338 1166,-338 1166,-319 1010,-319"/>
<text text-anchor="middle" x="1088" y="-326" font-family="Helvetica,sans-Serif" font-size="10.00">serial_interface/Protocol.hpp</text>
</a>
</g>
</g>
<!-- Node1&#45;&gt;Node3 -->
<g id="edge2" class="edge">
<title>Node1&#45;&gt;Node3</title>
<path fill="none" stroke="midnightblue" d="M599.53,-389.28C686.14,-381.06 856.78,-363.95 1001,-344 1010.34,-342.71 1020.23,-341.2 1029.85,-339.65"/>
<polygon fill="midnightblue" stroke="midnightblue" points="1030.45,-343.1 1039.75,-338.03 1029.32,-336.19 1030.45,-343.1"/>
</g>
<!-- Node4 -->
<g id="node4" class="node">
<title>Node4</title>
<g id="a_node4"><a xlink:href="serial__port_8hpp.xhtml" target="_top" xlink:title=" ">
<polygon fill="white" stroke="black" points="34,-112.5 34,-142.5 156,-142.5 156,-112.5 34,-112.5"/>
<text text-anchor="start" x="42" y="-130.5" font-family="Helvetica,sans-Serif" font-size="10.00">serial_interface/serial</text>
<text text-anchor="middle" x="95" y="-119.5" font-family="Helvetica,sans-Serif" font-size="10.00">_port.hpp</text>
</a>
</g>
</g>
<!-- Node1&#45;&gt;Node4 -->
<g id="edge3" class="edge">
<title>Node1&#45;&gt;Node4</title>
<path fill="none" stroke="midnightblue" d="M486.35,-394.09C386.88,-392.32 186.03,-383.78 130,-344 69.93,-301.35 80.9,-199.24 89.66,-152.55"/>
<polygon fill="midnightblue" stroke="midnightblue" points="93.1,-153.19 91.64,-142.7 86.24,-151.81 93.1,-153.19"/>
</g>
<!-- Node10 -->
<g id="node10" class="node">
<title>Node10</title>
<g id="a_node10"><a xlink:href="Task_8hpp.xhtml" target="_top" xlink:title=" ">
<polygon fill="white" stroke="black" points="160.5,-319 160.5,-338 249.5,-338 249.5,-319 160.5,-319"/>
<text text-anchor="middle" x="205" y="-326" font-family="Helvetica,sans-Serif" font-size="10.00">tasks/Task.hpp</text>
</a>
</g>
</g>
<!-- Node1&#45;&gt;Node10 -->
<g id="edge9" class="edge">
<title>Node1&#45;&gt;Node10</title>
<path fill="none" stroke="midnightblue" d="M486.42,-385.32C429.91,-375.9 340.67,-360.34 264,-344 258.91,-342.91 253.59,-341.71 248.31,-340.47"/>
<polygon fill="midnightblue" stroke="midnightblue" points="248.84,-337 238.3,-338.07 247.21,-343.8 248.84,-337"/>
</g>
<!-- Node12 -->
<g id="node12" class="node">
<title>Node12</title>
<g id="a_node12"><a xlink:title=" ">
<polygon fill="white" stroke="#bfbfbf" points="1184,-319 1184,-338 1232,-338 1232,-319 1184,-319"/>
<text text-anchor="middle" x="1208" y="-326" font-family="Helvetica,sans-Serif" font-size="10.00">thread</text>
</a>
</g>
</g>
<!-- Node1&#45;&gt;Node12 -->
<g id="edge13" class="edge">
<title>Node1&#45;&gt;Node12</title>
<path fill="none" stroke="midnightblue" d="M599.61,-392.39C733.56,-387.02 1066.8,-371.27 1175,-344 1177.3,-343.42 1179.65,-342.69 1181.98,-341.87"/>
<polygon fill="midnightblue" stroke="midnightblue" points="1183.28,-345.12 1191.26,-338.15 1180.67,-338.63 1183.28,-345.12"/>
</g>
<!-- Node13 -->
<g id="node13" class="node">
<title>Node13</title>
<g id="a_node13"><a xlink:href="Menu_8hpp.xhtml" target="_top" xlink:title=" ">
<polygon fill="white" stroke="black" points="306,-252 306,-271 452,-271 452,-252 306,-252"/>
<text text-anchor="middle" x="379" y="-259" font-family="Helvetica,sans-Serif" font-size="10.00">user_interaction/Menu.hpp</text>
</a>
</g>
</g>
<!-- Node1&#45;&gt;Node13 -->
<g id="edge14" class="edge">
<title>Node1&#45;&gt;Node13</title>
<path fill="none" stroke="midnightblue" d="M525.45,-380.37C494.33,-355.33 429.76,-303.35 397.78,-277.62"/>
<polygon fill="midnightblue" stroke="midnightblue" points="399.67,-274.64 389.68,-271.1 395.28,-280.09 399.67,-274.64"/>
</g>
<!-- Node20 -->
<g id="node20" class="node">
<title>Node20</title>
<g id="a_node20"><a xlink:href="Presenter_8hpp.xhtml" target="_top" xlink:title=" ">
<polygon fill="white" stroke="black" points="632.5,-319 632.5,-338 797.5,-338 797.5,-319 632.5,-319"/>
<text text-anchor="middle" x="715" y="-326" font-family="Helvetica,sans-Serif" font-size="10.00">user_interaction/Presenter.hpp</text>
</a>
</g>
</g>
<!-- Node1&#45;&gt;Node20 -->
<g id="edge25" class="edge">
<title>Node1&#45;&gt;Node20</title>
<path fill="none" stroke="midnightblue" d="M580.32,-380.4C610.9,-368.84 653.73,-352.66 682.82,-341.66"/>
<polygon fill="midnightblue" stroke="midnightblue" points="684.37,-344.82 692.49,-338.01 681.9,-338.27 684.37,-344.82"/>
</g>
<!-- Node24 -->
<g id="node24" class="node">
<title>Node24</title>
<g id="a_node24"><a xlink:href="ProcessHmiInputs_8hpp.xhtml" target="_top" xlink:title=" ">
<polygon fill="white" stroke="black" points="522,-179.5 522,-209.5 658,-209.5 658,-179.5 522,-179.5"/>
<text text-anchor="start" x="530" y="-197.5" font-family="Helvetica,sans-Serif" font-size="10.00">user_interaction/Process</text>
<text text-anchor="middle" x="590" y="-186.5" font-family="Helvetica,sans-Serif" font-size="10.00">HmiInputs.hpp</text>
</a>
</g>
</g>
<!-- Node1&#45;&gt;Node24 -->
<g id="edge31" class="edge">
<title>Node1&#45;&gt;Node24</title>
<path fill="none" stroke="midnightblue" d="M557.5,-380.19C577.26,-359.55 611.72,-319.24 625,-277 629.13,-263.86 629.11,-259.15 625,-246 621.83,-235.87 615.85,-225.99 609.71,-217.7"/>
<polygon fill="midnightblue" stroke="midnightblue" points="612.31,-215.35 603.36,-209.68 606.82,-219.69 612.31,-215.35"/>
</g>
<!-- Node25 -->
<g id="node25" class="node">
<title>Node25</title>
<g id="a_node25"><a xlink:href="guiEngine__factory__interface_8hpp.xhtml" target="_top" xlink:title="Dependency injection for the guiEngine.">
<polygon fill="white" stroke="black" points="470,-246.5 470,-276.5 616,-276.5 616,-246.5 470,-246.5"/>
<text text-anchor="start" x="478" y="-264.5" font-family="Helvetica,sans-Serif" font-size="10.00">user_interaction/guiEngine</text>
<text text-anchor="middle" x="543" y="-253.5" font-family="Helvetica,sans-Serif" font-size="10.00">_factory_interface.hpp</text>
</a>
</g>
</g>
<!-- Node1&#45;&gt;Node25 -->
<g id="edge33" class="edge">
<title>Node1&#45;&gt;Node25</title>
<path fill="none" stroke="midnightblue" d="M543,-380.37C543,-358.04 543,-314.31 543,-286.85"/>
<polygon fill="midnightblue" stroke="midnightblue" points="546.5,-286.52 543,-276.52 539.5,-286.52 546.5,-286.52"/>
</g>
<!-- Node26 -->
<g id="node26" class="node">
<title>Node26</title>
<g id="a_node26"><a xlink:href="keypad__factory__interface_8hpp.xhtml" target="_top" xlink:title="Dependency injection for the keypad.">
<polygon fill="white" stroke="black" points="212,-179.5 212,-209.5 346,-209.5 346,-179.5 212,-179.5"/>
<text text-anchor="start" x="220" y="-197.5" font-family="Helvetica,sans-Serif" font-size="10.00">user_interaction/keypad</text>
<text text-anchor="middle" x="279" y="-186.5" font-family="Helvetica,sans-Serif" font-size="10.00">_factory_interface.hpp</text>
</a>
</g>
</g>
<!-- Node1&#45;&gt;Node26 -->
<g id="edge35" class="edge">
<title>Node1&#45;&gt;Node26</title>
<path fill="none" stroke="midnightblue" d="M486.36,-382.69C429.74,-367.85 344.47,-336.76 297,-277 284.16,-260.84 280.04,-237.43 278.91,-219.84"/>
<polygon fill="midnightblue" stroke="midnightblue" points="282.4,-219.63 278.54,-209.76 275.4,-219.88 282.4,-219.63"/>
</g>
<!-- Node27 -->
<g id="node27" class="node">
<title>Node27</title>
<g id="a_node27"><a xlink:href="statusindicators__factory__interface_8hpp.xhtml" target="_top" xlink:title="Dependency injection for the keypad.">
<polygon fill="white" stroke="black" points="816,-313.5 816,-343.5 992,-343.5 992,-313.5 816,-313.5"/>
<text text-anchor="start" x="824" y="-331.5" font-family="Helvetica,sans-Serif" font-size="10.00">user_interaction/statusindicators</text>
<text text-anchor="middle" x="904" y="-320.5" font-family="Helvetica,sans-Serif" font-size="10.00">_factory_interface.hpp</text>
</a>
</g>
</g>
<!-- Node1&#45;&gt;Node27 -->
<g id="edge37" class="edge">
<title>Node1&#45;&gt;Node27</title>
<path fill="none" stroke="midnightblue" d="M599.8,-384.27C657.78,-373.83 748.58,-357.48 815.89,-345.36"/>
<polygon fill="midnightblue" stroke="midnightblue" points="816.85,-348.75 826.07,-343.53 815.61,-341.86 816.85,-348.75"/>
</g>
<!-- Node5 -->
<g id="node5" class="node">
<title>Node5</title>
<g id="a_node5"><a xlink:title=" ">
<polygon fill="white" stroke="#bfbfbf" points="74,-56.5 74,-75.5 116,-75.5 116,-56.5 74,-56.5"/>
<text text-anchor="middle" x="95" y="-63.5" font-family="Helvetica,sans-Serif" font-size="10.00">array</text>
</a>
</g>
</g>
<!-- Node4&#45;&gt;Node5 -->
<g id="edge4" class="edge">
<title>Node4&#45;&gt;Node5</title>
<path fill="none" stroke="midnightblue" d="M95,-112.4C95,-104.47 95,-94.46 95,-85.86"/>
<polygon fill="midnightblue" stroke="midnightblue" points="98.5,-85.66 95,-75.66 91.5,-85.66 98.5,-85.66"/>
</g>
<!-- Node6 -->
<g id="node6" class="node">
<title>Node6</title>
<g id="a_node6"><a xlink:title=" ">
<polygon fill="white" stroke="#bfbfbf" points="172.5,-56.5 172.5,-75.5 237.5,-75.5 237.5,-56.5 172.5,-56.5"/>
<text text-anchor="middle" x="205" y="-63.5" font-family="Helvetica,sans-Serif" font-size="10.00">functional</text>
</a>
</g>
</g>
<!-- Node4&#45;&gt;Node6 -->
<g id="edge5" class="edge">
<title>Node4&#45;&gt;Node6</title>
<path fill="none" stroke="midnightblue" d="M121.07,-112.4C138.87,-102.77 162.31,-90.09 179.9,-80.58"/>
<polygon fill="midnightblue" stroke="midnightblue" points="181.86,-83.49 188.99,-75.66 178.53,-77.34 181.86,-83.49"/>
</g>
<!-- Node7 -->
<g id="node7" class="node">
<title>Node7</title>
<g id="a_node7"><a xlink:title=" ">
<polygon fill="white" stroke="#bfbfbf" points="0,-56.5 0,-75.5 56,-75.5 56,-56.5 0,-56.5"/>
<text text-anchor="middle" x="28" y="-63.5" font-family="Helvetica,sans-Serif" font-size="10.00">optional</text>
</a>
</g>
</g>
<!-- Node4&#45;&gt;Node7 -->
<g id="edge6" class="edge">
<title>Node4&#45;&gt;Node7</title>
<path fill="none" stroke="midnightblue" d="M79.12,-112.4C68.98,-103.4 55.84,-91.72 45.41,-82.47"/>
<polygon fill="midnightblue" stroke="midnightblue" points="47.55,-79.68 37.75,-75.66 42.9,-84.92 47.55,-79.68"/>
</g>
<!-- Node8 -->
<g id="node8" class="node">
<title>Node8</title>
<g id="a_node8"><a xlink:title=" ">
<polygon fill="white" stroke="#bfbfbf" points="279.5,-0.5 279.5,-19.5 336.5,-19.5 336.5,-0.5 279.5,-0.5"/>
<text text-anchor="middle" x="308" y="-7.5" font-family="Helvetica,sans-Serif" font-size="10.00">ostream</text>
</a>
</g>
</g>
<!-- Node4&#45;&gt;Node8 -->
<g id="edge7" class="edge">
<title>Node4&#45;&gt;Node8</title>
<path fill="none" stroke="midnightblue" d="M105.17,-112.26C117.25,-96.36 138.82,-70.9 163,-56 195.96,-35.69 238.84,-23.87 269.4,-17.49"/>
<polygon fill="midnightblue" stroke="midnightblue" points="270.13,-20.91 279.26,-15.53 268.77,-14.04 270.13,-20.91"/>
</g>
<!-- Node9 -->
<g id="node9" class="node">
<title>Node9</title>
<g id="a_node9"><a xlink:title=" ">
<polygon fill="white" stroke="#bfbfbf" points="256,-56.5 256,-75.5 300,-75.5 300,-56.5 256,-56.5"/>
<text text-anchor="middle" x="278" y="-63.5" font-family="Helvetica,sans-Serif" font-size="10.00">string</text>
</a>
</g>
</g>
<!-- Node4&#45;&gt;Node9 -->
<g id="edge8" class="edge">
<title>Node4&#45;&gt;Node9</title>
<path fill="none" stroke="midnightblue" d="M138.37,-112.4C171.27,-101.7 215.78,-87.23 245.62,-77.53"/>
<polygon fill="midnightblue" stroke="midnightblue" points="247.09,-80.73 255.52,-74.31 244.93,-74.07 247.09,-80.73"/>
</g>
<!-- Node10&#45;&gt;Node2 -->
<g id="edge10" class="edge">
<title>Node10&#45;&gt;Node2</title>
<path fill="none" stroke="midnightblue" d="M195.02,-318.73C183.15,-308.31 163.11,-290.71 148.62,-277.97"/>
<polygon fill="midnightblue" stroke="midnightblue" points="150.64,-275.1 140.82,-271.13 146.03,-280.36 150.64,-275.1"/>
</g>
<!-- Node10&#45;&gt;Node9 -->
<g id="edge12" class="edge">
<title>Node10&#45;&gt;Node9</title>
<path fill="none" stroke="midnightblue" d="M202.74,-318.78C195.21,-287.65 173.85,-180.31 218,-112 226.34,-99.1 239.73,-88.54 251.74,-80.89"/>
<polygon fill="midnightblue" stroke="midnightblue" points="253.77,-83.76 260.56,-75.63 250.18,-77.75 253.77,-83.76"/>
</g>
<!-- Node11 -->
<g id="node11" class="node">
<title>Node11</title>
<g id="a_node11"><a xlink:title=" ">
<polygon fill="white" stroke="#bfbfbf" points="212,-252 212,-271 250,-271 250,-252 212,-252"/>
<text text-anchor="middle" x="231" y="-259" font-family="Helvetica,sans-Serif" font-size="10.00">map</text>
</a>
</g>
</g>
<!-- Node10&#45;&gt;Node11 -->
<g id="edge11" class="edge">
<title>Node10&#45;&gt;Node11</title>
<path fill="none" stroke="midnightblue" d="M208.51,-318.73C212.4,-308.99 218.81,-292.98 223.79,-280.53"/>
<polygon fill="midnightblue" stroke="midnightblue" points="227.08,-281.71 227.55,-271.13 220.59,-279.11 227.08,-281.71"/>
</g>
<!-- Node14 -->
<g id="node14" class="node">
<title>Node14</title>
<g id="a_node14"><a xlink:href="IGuiEngine_8hpp.xhtml" target="_top" xlink:title=" ">
<polygon fill="white" stroke="black" points="402,-185 402,-204 492,-204 492,-185 402,-185"/>
<text text-anchor="middle" x="447" y="-192" font-family="Helvetica,sans-Serif" font-size="10.00">IGuiEngine.hpp</text>
</a>
</g>
</g>
<!-- Node13&#45;&gt;Node14 -->
<g id="edge15" class="edge">
<title>Node13&#45;&gt;Node14</title>
<path fill="none" stroke="midnightblue" d="M388.17,-251.73C398.98,-241.4 417.15,-224.04 430.44,-211.33"/>
<polygon fill="midnightblue" stroke="midnightblue" points="433.16,-213.57 437.97,-204.13 428.33,-208.51 433.16,-213.57"/>
</g>
<!-- Node18 -->
<g id="node18" class="node">
<title>Node18</title>
<g id="a_node18"><a xlink:href="IKeypad_8hpp.xhtml" target="_top" xlink:title=" ">
<polygon fill="white" stroke="black" points="227,-118 227,-137 385,-137 385,-118 227,-118"/>
<text text-anchor="middle" x="306" y="-125" font-family="Helvetica,sans-Serif" font-size="10.00">user_interaction/IKeypad.hpp</text>
</a>
</g>
</g>
<!-- Node13&#45;&gt;Node18 -->
<g id="edge24" class="edge">
<title>Node13&#45;&gt;Node18</title>
<path fill="none" stroke="midnightblue" d="M377.85,-251.87C375.5,-236.37 369.13,-203.2 355,-179 347.13,-165.51 334.9,-152.9 324.63,-143.66"/>
<polygon fill="midnightblue" stroke="midnightblue" points="326.79,-140.9 316.93,-137.01 322.21,-146.2 326.79,-140.9"/>
</g>
<!-- Node15 -->
<g id="node15" class="node">
<title>Node15</title>
<g id="a_node15"><a xlink:href="MenuItem_8hpp.xhtml" target="_top" xlink:title=" ">
<polygon fill="white" stroke="black" points="403.5,-118 403.5,-137 490.5,-137 490.5,-118 403.5,-118"/>
<text text-anchor="middle" x="447" y="-125" font-family="Helvetica,sans-Serif" font-size="10.00">MenuItem.hpp</text>
</a>
</g>
</g>
<!-- Node14&#45;&gt;Node15 -->
<g id="edge16" class="edge">
<title>Node14&#45;&gt;Node15</title>
<path fill="none" stroke="midnightblue" d="M447,-184.73C447,-175.18 447,-159.62 447,-147.28"/>
<polygon fill="midnightblue" stroke="midnightblue" points="450.5,-147.13 447,-137.13 443.5,-147.13 450.5,-147.13"/>
</g>
<!-- Node14&#45;&gt;Node18 -->
<g id="edge20" class="edge">
<title>Node14&#45;&gt;Node18</title>
<path fill="none" stroke="midnightblue" d="M428.28,-184.87C404.15,-173.75 362,-154.32 334.05,-141.43"/>
<polygon fill="midnightblue" stroke="midnightblue" points="335.35,-138.18 324.8,-137.17 332.42,-144.53 335.35,-138.18"/>
</g>
<!-- Node15&#45;&gt;Node9 -->
<g id="edge18" class="edge">
<title>Node15&#45;&gt;Node9</title>
<path fill="none" stroke="midnightblue" d="M422.79,-117.98C393.01,-107.49 342.39,-89.67 309.59,-78.12"/>
<polygon fill="midnightblue" stroke="midnightblue" points="310.61,-74.77 300.02,-74.75 308.29,-81.37 310.61,-74.77"/>
</g>
<!-- Node16 -->
<g id="node16" class="node">
<title>Node16</title>
<g id="a_node16"><a xlink:title=" ">
<polygon fill="white" stroke="#bfbfbf" points="370,-56.5 370,-75.5 420,-75.5 420,-56.5 370,-56.5"/>
<text text-anchor="middle" x="395" y="-63.5" font-family="Helvetica,sans-Serif" font-size="10.00">cstdint</text>
</a>
</g>
</g>
<!-- Node15&#45;&gt;Node16 -->
<g id="edge17" class="edge">
<title>Node15&#45;&gt;Node16</title>
<path fill="none" stroke="midnightblue" d="M439.55,-117.98C431.67,-108.96 419.06,-94.52 409.26,-83.31"/>
<polygon fill="midnightblue" stroke="midnightblue" points="411.65,-80.74 402.44,-75.51 406.38,-85.34 411.65,-80.74"/>
</g>
<!-- Node17 -->
<g id="node17" class="node">
<title>Node17</title>
<g id="a_node17"><a xlink:title=" ">
<polygon fill="white" stroke="#bfbfbf" points="762.5,-56.5 762.5,-75.5 809.5,-75.5 809.5,-56.5 762.5,-56.5"/>
<text text-anchor="middle" x="786" y="-63.5" font-family="Helvetica,sans-Serif" font-size="10.00">vector</text>
</a>
</g>
</g>
<!-- Node15&#45;&gt;Node17 -->
<g id="edge19" class="edge">
<title>Node15&#45;&gt;Node17</title>
<path fill="none" stroke="midnightblue" d="M490.62,-118.84C559.09,-106.83 690.32,-83.79 752.17,-72.94"/>
<polygon fill="midnightblue" stroke="midnightblue" points="752.94,-76.36 762.18,-71.18 751.73,-69.46 752.94,-76.36"/>
</g>
<!-- Node18&#45;&gt;Node6 -->
<g id="edge23" class="edge">
<title>Node18&#45;&gt;Node6</title>
<path fill="none" stroke="midnightblue" d="M291.53,-117.98C275.03,-108.25 247.82,-92.23 228.32,-80.74"/>
<polygon fill="midnightblue" stroke="midnightblue" points="229.84,-77.57 219.44,-75.51 226.28,-83.6 229.84,-77.57"/>
</g>
<!-- Node19 -->
<g id="node19" class="node">
<title>Node19</title>
<g id="a_node19"><a xlink:href="KeyIds_8hpp.xhtml" target="_top" xlink:title=" ">
<polygon fill="white" stroke="black" points="438,-56.5 438,-75.5 508,-75.5 508,-56.5 438,-56.5"/>
<text text-anchor="middle" x="473" y="-63.5" font-family="Helvetica,sans-Serif" font-size="10.00">KeyIds.hpp</text>
</a>
</g>
</g>
<!-- Node18&#45;&gt;Node19 -->
<g id="edge21" class="edge">
<title>Node18&#45;&gt;Node19</title>
<path fill="none" stroke="midnightblue" d="M329.93,-117.98C358.7,-107.72 407.16,-90.46 439.6,-78.9"/>
<polygon fill="midnightblue" stroke="midnightblue" points="440.87,-82.16 449.12,-75.51 438.52,-75.57 440.87,-82.16"/>
</g>
<!-- Node19&#45;&gt;Node8 -->
<g id="edge22" class="edge">
<title>Node19&#45;&gt;Node8</title>
<path fill="none" stroke="midnightblue" d="M446.86,-56.44C418.98,-47.32 374.65,-32.81 343.6,-22.65"/>
<polygon fill="midnightblue" stroke="midnightblue" points="344.62,-19.3 334.02,-19.52 342.44,-25.95 344.62,-19.3"/>
</g>
<!-- Node20&#45;&gt;Node13 -->
<g id="edge29" class="edge">
<title>Node20&#45;&gt;Node13</title>
<path fill="none" stroke="midnightblue" d="M670.73,-318.94C609.58,-307.11 499.36,-285.78 433.31,-273.01"/>
<polygon fill="midnightblue" stroke="midnightblue" points="433.59,-269.49 423.1,-271.03 432.26,-276.37 433.59,-269.49"/>
</g>
<!-- Node20&#45;&gt;Node17 -->
<g id="edge30" class="edge">
<title>Node20&#45;&gt;Node17</title>
<path fill="none" stroke="midnightblue" d="M728.26,-318.85C740.64,-309.98 758.44,-294.95 767,-277 797.85,-212.32 792.63,-123.77 788.47,-85.67"/>
<polygon fill="midnightblue" stroke="midnightblue" points="791.92,-85.06 787.25,-75.55 784.97,-85.9 791.92,-85.06"/>
</g>
<!-- Node21 -->
<g id="node21" class="node">
<title>Node21</title>
<g id="a_node21"><a xlink:href="IPresenter_8hpp.xhtml" target="_top" xlink:title=" ">
<polygon fill="white" stroke="black" points="672,-252 672,-271 758,-271 758,-252 672,-252"/>
<text text-anchor="middle" x="715" y="-259" font-family="Helvetica,sans-Serif" font-size="10.00">IPresenter.hpp</text>
</a>
</g>
</g>
<!-- Node20&#45;&gt;Node21 -->
<g id="edge26" class="edge">
<title>Node20&#45;&gt;Node21</title>
<path fill="none" stroke="midnightblue" d="M715,-318.73C715,-309.18 715,-293.62 715,-281.28"/>
<polygon fill="midnightblue" stroke="midnightblue" points="718.5,-281.13 715,-271.13 711.5,-281.13 718.5,-281.13"/>
</g>
<!-- Node23 -->
<g id="node23" class="node">
<title>Node23</title>
<g id="a_node23"><a xlink:href="IStatusIndicator_8hpp.xhtml" target="_top" xlink:title=" ">
<polygon fill="white" stroke="black" points="814.5,-252 814.5,-271 927.5,-271 927.5,-252 814.5,-252"/>
<text text-anchor="middle" x="871" y="-259" font-family="Helvetica,sans-Serif" font-size="10.00">IStatusIndicator.hpp</text>
</a>
</g>
</g>
<!-- Node20&#45;&gt;Node23 -->
<g id="edge28" class="edge">
<title>Node20&#45;&gt;Node23</title>
<path fill="none" stroke="midnightblue" d="M735.72,-318.87C762.64,-307.65 809.86,-287.98 840.78,-275.09"/>
<polygon fill="midnightblue" stroke="midnightblue" points="842.31,-278.24 850.2,-271.17 839.62,-271.78 842.31,-278.24"/>
</g>
<!-- Node22 -->
<g id="node22" class="node">
<title>Node22</title>
<g id="a_node22"><a xlink:title=" ">
<polygon fill="white" stroke="#bfbfbf" points="688.5,-185 688.5,-204 741.5,-204 741.5,-185 688.5,-185"/>
<text text-anchor="middle" x="715" y="-192" font-family="Helvetica,sans-Serif" font-size="10.00">cstddef</text>
</a>
</g>
</g>
<!-- Node21&#45;&gt;Node22 -->
<g id="edge27" class="edge">
<title>Node21&#45;&gt;Node22</title>
<path fill="none" stroke="midnightblue" d="M715,-251.73C715,-242.18 715,-226.62 715,-214.28"/>
<polygon fill="midnightblue" stroke="midnightblue" points="718.5,-214.13 715,-204.13 711.5,-214.13 718.5,-214.13"/>
</g>
<!-- Node24&#45;&gt;Node19 -->
<g id="edge32" class="edge">
<title>Node24&#45;&gt;Node19</title>
<path fill="none" stroke="midnightblue" d="M577.03,-179.48C555.22,-155.9 511.32,-108.43 488.13,-83.36"/>
<polygon fill="midnightblue" stroke="midnightblue" points="490.49,-80.75 481.13,-75.79 485.35,-85.51 490.49,-80.75"/>
</g>
<!-- Node25&#45;&gt;Node14 -->
<g id="edge34" class="edge">
<title>Node25&#45;&gt;Node14</title>
<path fill="none" stroke="midnightblue" d="M522.17,-246.4C506.22,-235.6 484.3,-220.76 468.25,-209.89"/>
<polygon fill="midnightblue" stroke="midnightblue" points="469.81,-206.72 459.56,-204.01 465.88,-212.51 469.81,-206.72"/>
</g>
<!-- Node26&#45;&gt;Node18 -->
<g id="edge36" class="edge">
<title>Node26&#45;&gt;Node18</title>
<path fill="none" stroke="midnightblue" d="M284.86,-179.4C288.86,-169.76 294.2,-156.91 298.51,-146.54"/>
<polygon fill="midnightblue" stroke="midnightblue" points="301.78,-147.77 302.39,-137.19 295.32,-145.09 301.78,-147.77"/>
</g>
<!-- Node27&#45;&gt;Node17 -->
<g id="edge39" class="edge">
<title>Node27&#45;&gt;Node17</title>
<path fill="none" stroke="midnightblue" d="M916.61,-313.19C924.14,-303.66 932.99,-290.45 937,-277 940.93,-263.8 941.73,-258.94 937,-246 910.5,-173.48 840.22,-110.05 805.7,-82.13"/>
<polygon fill="midnightblue" stroke="midnightblue" points="807.75,-79.29 797.74,-75.82 803.4,-84.77 807.75,-79.29"/>
</g>
<!-- Node27&#45;&gt;Node23 -->
<g id="edge38" class="edge">
<title>Node27&#45;&gt;Node23</title>
<path fill="none" stroke="midnightblue" d="M896.84,-313.4C891.9,-303.66 885.29,-290.65 879.99,-280.21"/>
<polygon fill="midnightblue" stroke="midnightblue" points="883.06,-278.53 875.41,-271.19 876.82,-281.7 883.06,-278.53"/>
</g>
</g>
</svg>
