<?xml version="1.0" encoding="UTF-8" standalone="no"?>
<!DOCTYPE svg PUBLIC "-//W3C//DTD SVG 1.1//EN"
 "http://www.w3.org/Graphics/SVG/1.1/DTD/svg11.dtd">
<!-- Generated by graphviz version 2.43.0 (0)
 -->
<!-- Title: src/main.cpp Pages: 1 -->
<svg width="1408pt" height="263pt"
 viewBox="0.00 0.00 1408.00 263.00" xmlns="http://www.w3.org/2000/svg" xmlns:xlink="http://www.w3.org/1999/xlink">
<g id="graph0" class="graph" transform="scale(1 1) rotate(0) translate(4 259)">
<title>src/main.cpp</title>
<polygon fill="white" stroke="transparent" points="-4,4 -4,-259 1404,-259 1404,4 -4,4"/>
<!-- Node1 -->
<g id="node1" class="node">
<title>Node1</title>
<g id="a_node1"><a xlink:title=" ">
<polygon fill="#bfbfbf" stroke="black" points="645.5,-235.5 645.5,-254.5 724.5,-254.5 724.5,-235.5 645.5,-235.5"/>
<text text-anchor="middle" x="685" y="-242.5" font-family="Helvetica,sans-Serif" font-size="10.00">src/main.cpp</text>
</a>
</g>
</g>
<!-- Node2 -->
<g id="node2" class="node">
<title>Node2</title>
<g id="a_node2"><a xlink:title=" ">
<polygon fill="white" stroke="#bfbfbf" points="0,-112.5 0,-131.5 50,-131.5 50,-112.5 0,-112.5"/>
<text text-anchor="middle" x="25" y="-119.5" font-family="Helvetica,sans-Serif" font-size="10.00">chrono</text>
</a>
</g>
</g>
<!-- Node1&#45;&gt;Node2 -->
<g id="edge1" class="edge">
<title>Node1&#45;&gt;Node2</title>
<path fill="none" stroke="midnightblue" d="M645.4,-243.88C512.8,-243.11 90.05,-237.62 44,-199 27.51,-185.17 24.15,-159.4 23.98,-141.73"/>
<polygon fill="midnightblue" stroke="midnightblue" points="27.48,-141.81 24.22,-131.73 20.48,-141.64 27.48,-141.81"/>
</g>
<!-- Node3 -->
<g id="node3" class="node">
<title>Node3</title>
<g id="a_node3"><a xlink:href="Protocol_8hpp.xhtml" target="_top" xlink:title=" ">
<polygon fill="white" stroke="black" points="607,-174 607,-193 763,-193 763,-174 607,-174"/>
<text text-anchor="middle" x="685" y="-181" font-family="Helvetica,sans-Serif" font-size="10.00">serial_interface/Protocol.hpp</text>
</a>
</g>
</g>
<!-- Node1&#45;&gt;Node3 -->
<g id="edge2" class="edge">
<title>Node1&#45;&gt;Node3</title>
<path fill="none" stroke="midnightblue" d="M685,-235.48C685,-227.08 685,-213.98 685,-203.16"/>
<polygon fill="midnightblue" stroke="midnightblue" points="688.5,-203.01 685,-193.01 681.5,-203.01 688.5,-203.01"/>
</g>
<!-- Node4 -->
<g id="node4" class="node">
<title>Node4</title>
<g id="a_node4"><a xlink:href="serial__port_8hpp.xhtml" target="_top" xlink:title=" ">
<polygon fill="white" stroke="black" points="161,-168.5 161,-198.5 283,-198.5 283,-168.5 161,-168.5"/>
<text text-anchor="start" x="169" y="-186.5" font-family="Helvetica,sans-Serif" font-size="10.00">serial_interface/serial</text>
<text text-anchor="middle" x="222" y="-175.5" font-family="Helvetica,sans-Serif" font-size="10.00">_port.hpp</text>
</a>
</g>
</g>
<!-- Node1&#45;&gt;Node4 -->
<g id="edge3" class="edge">
<title>Node1&#45;&gt;Node4</title>
<path fill="none" stroke="midnightblue" d="M645.23,-240.64C575.84,-234.52 427.95,-220.34 293.12,-199.09"/>
<polygon fill="midnightblue" stroke="midnightblue" points="293.45,-195.6 283.02,-197.48 292.35,-202.51 293.45,-195.6"/>
</g>
<!-- Node10 -->
<g id="node10" class="node">
<title>Node10</title>
<g id="a_node10"><a xlink:href="Task_8hpp.xhtml" target="_top" xlink:title=" ">
<polygon fill="white" stroke="black" points="53.5,-174 53.5,-193 142.5,-193 142.5,-174 53.5,-174"/>
<text text-anchor="middle" x="98" y="-181" font-family="Helvetica,sans-Serif" font-size="10.00">tasks/Task.hpp</text>
</a>
</g>
</g>
<!-- Node1&#45;&gt;Node10 -->
<g id="edge9" class="edge">
<title>Node1&#45;&gt;Node10</title>
<path fill="none" stroke="midnightblue" d="M645.24,-243.06C556.24,-240.43 334.49,-230.94 152,-199 146.81,-198.09 141.4,-196.92 136.09,-195.63"/>
<polygon fill="midnightblue" stroke="midnightblue" points="136.65,-192.16 126.09,-193.06 134.91,-198.94 136.65,-192.16"/>
</g>
<!-- Node12 -->
<g id="node12" class="node">
<title>Node12</title>
<g id="a_node12"><a xlink:title=" ">
<polygon fill="white" stroke="#bfbfbf" points="781,-174 781,-193 829,-193 829,-174 781,-174"/>
<text text-anchor="middle" x="805" y="-181" font-family="Helvetica,sans-Serif" font-size="10.00">thread</text>
</a>
</g>
</g>
<!-- Node1&#45;&gt;Node12 -->
<g id="edge13" class="edge">
<title>Node1&#45;&gt;Node12</title>
<path fill="none" stroke="midnightblue" d="M702.19,-235.48C722.24,-225.53 755.6,-208.99 778.86,-197.46"/>
<polygon fill="midnightblue" stroke="midnightblue" points="780.43,-200.59 787.84,-193.01 777.32,-194.32 780.43,-200.59"/>
</g>
<!-- Node13 -->
<g id="node13" class="node">
<title>Node13</title>
<g id="a_node13"><a xlink:href="Menu_8hpp.xhtml" target="_top" xlink:title=" ">
<polygon fill="white" stroke="black" points="934,-112.5 934,-131.5 1080,-131.5 1080,-112.5 934,-112.5"/>
<text text-anchor="middle" x="1007" y="-119.5" font-family="Helvetica,sans-Serif" font-size="10.00">user_interaction/Menu.hpp</text>
</a>
</g>
</g>
<!-- Node1&#45;&gt;Node13 -->
<g id="edge14" class="edge">
<title>Node1&#45;&gt;Node13</title>
<path fill="none" stroke="midnightblue" d="M724.73,-243.55C798.42,-241.86 952.21,-234.11 990,-199 1005.6,-184.51 1008.44,-159.08 1008.32,-141.66"/>
<polygon fill="midnightblue" stroke="midnightblue" points="1011.81,-141.41 1007.91,-131.56 1004.81,-141.69 1011.81,-141.41"/>
</g>
<!-- Node15 -->
<g id="node15" class="node">
<title>Node15</title>
<g id="a_node15"><a xlink:href="Presenter_8hpp.xhtml" target="_top" xlink:title=" ">
<polygon fill="white" stroke="black" points="1040.5,-174 1040.5,-193 1205.5,-193 1205.5,-174 1040.5,-174"/>
<text text-anchor="middle" x="1123" y="-181" font-family="Helvetica,sans-Serif" font-size="10.00">user_interaction/Presenter.hpp</text>
</a>
</g>
</g>
<!-- Node1&#45;&gt;Node15 -->
<g id="edge16" class="edge">
<title>Node1&#45;&gt;Node15</title>
<path fill="none" stroke="midnightblue" d="M724.57,-238.88C787.7,-230.69 915.11,-214 1023,-199 1033.34,-197.56 1044.27,-196.01 1054.96,-194.47"/>
<polygon fill="midnightblue" stroke="midnightblue" points="1055.72,-197.9 1065.11,-193.01 1054.72,-190.97 1055.72,-197.9"/>
</g>
<!-- Node19 -->
<g id="node19" class="node">
<title>Node19</title>
<g id="a_node19"><a xlink:href="ProcessHmiInputs_8hpp.xhtml" target="_top" xlink:title=" ">
<polygon fill="white" stroke="black" points="453,-168.5 453,-198.5 589,-198.5 589,-168.5 453,-168.5"/>
<text text-anchor="start" x="461" y="-186.5" font-family="Helvetica,sans-Serif" font-size="10.00">user_interaction/Process</text>
<text text-anchor="middle" x="521" y="-175.5" font-family="Helvetica,sans-Serif" font-size="10.00">HmiInputs.hpp</text>
</a>
</g>
</g>
<!-- Node1&#45;&gt;Node19 -->
<g id="edge21" class="edge">
<title>Node1&#45;&gt;Node19</title>
<path fill="none" stroke="midnightblue" d="M661.5,-235.48C637.53,-226.78 599.63,-213.03 569.23,-202"/>
<polygon fill="midnightblue" stroke="midnightblue" points="570.25,-198.64 559.65,-198.52 567.86,-205.22 570.25,-198.64"/>
</g>
<!-- Node21 -->
<g id="node21" class="node">
<title>Node21</title>
<g id="a_node21"><a xlink:href="display__factory__interface_8hpp.xhtml" target="_top" xlink:title="Dependency injection for the display.">
<polygon fill="white" stroke="black" points="847,-168.5 847,-198.5 981,-198.5 981,-168.5 847,-168.5"/>
<text text-anchor="start" x="855" y="-186.5" font-family="Helvetica,sans-Serif" font-size="10.00">user_interaction/display</text>
<text text-anchor="middle" x="914" y="-175.5" font-family="Helvetica,sans-Serif" font-size="10.00">_factory_interface.hpp</text>
</a>
</g>
</g>
<!-- Node1&#45;&gt;Node21 -->
<g id="edge24" class="edge">
<title>Node1&#45;&gt;Node21</title>
<path fill="none" stroke="midnightblue" d="M717.81,-235.48C752.23,-226.53 807.2,-212.25 850.21,-201.07"/>
<polygon fill="midnightblue" stroke="midnightblue" points="851.23,-204.43 860.03,-198.52 849.47,-197.65 851.23,-204.43"/>
</g>
<!-- Node22 -->
<g id="node22" class="node">
<title>Node22</title>
<g id="a_node22"><a xlink:href="keypad__factory__interface_8hpp.xhtml" target="_top" xlink:title="Dependency injection for the keypad.">
<polygon fill="white" stroke="black" points="301,-168.5 301,-198.5 435,-198.5 435,-168.5 301,-168.5"/>
<text text-anchor="start" x="309" y="-186.5" font-family="Helvetica,sans-Serif" font-size="10.00">user_interaction/keypad</text>
<text text-anchor="middle" x="368" y="-175.5" font-family="Helvetica,sans-Serif" font-size="10.00">_factory_interface.hpp</text>
</a>
</g>
</g>
<!-- Node1&#45;&gt;Node22 -->
<g id="edge26" class="edge">
<title>Node1&#45;&gt;Node22</title>
<path fill="none" stroke="midnightblue" d="M645.33,-236.64C599.61,-228.15 521.93,-213.69 445.43,-199.27"/>
<polygon fill="midnightblue" stroke="midnightblue" points="445.61,-195.74 435.13,-197.32 444.31,-202.62 445.61,-195.74"/>
</g>
<!-- Node24 -->
<g id="node24" class="node">
<title>Node24</title>
<g id="a_node24"><a xlink:href="statusindicators__factory__interface_8hpp.xhtml" target="_top" xlink:title="Dependency injection for the keypad.">
<polygon fill="white" stroke="black" points="1224,-168.5 1224,-198.5 1400,-198.5 1400,-168.5 1224,-168.5"/>
<text text-anchor="start" x="1232" y="-186.5" font-family="Helvetica,sans-Serif" font-size="10.00">user_interaction/statusindicators</text>
<text text-anchor="middle" x="1312" y="-175.5" font-family="Helvetica,sans-Serif" font-size="10.00">_factory_interface.hpp</text>
</a>
</g>
</g>
<!-- Node1&#45;&gt;Node24 -->
<g id="edge30" class="edge">
<title>Node1&#45;&gt;Node24</title>
<path fill="none" stroke="midnightblue" d="M724.65,-241.5C811.36,-235.85 1024.58,-220.93 1213.62,-199.11"/>
<polygon fill="midnightblue" stroke="midnightblue" points="1214.22,-202.57 1223.74,-197.94 1213.41,-195.62 1214.22,-202.57"/>
</g>
<!-- Node5 -->
<g id="node5" class="node">
<title>Node5</title>
<g id="a_node5"><a xlink:title=" ">
<polygon fill="white" stroke="#bfbfbf" points="298,-112.5 298,-131.5 340,-131.5 340,-112.5 298,-112.5"/>
<text text-anchor="middle" x="319" y="-119.5" font-family="Helvetica,sans-Serif" font-size="10.00">array</text>
</a>
</g>
</g>
<!-- Node4&#45;&gt;Node5 -->
<g id="edge4" class="edge">
<title>Node4&#45;&gt;Node5</title>
<path fill="none" stroke="midnightblue" d="M244.99,-168.4C260.39,-158.95 280.59,-146.56 296,-137.11"/>
<polygon fill="midnightblue" stroke="midnightblue" points="298.19,-139.87 304.89,-131.66 294.53,-133.9 298.19,-139.87"/>
</g>
<!-- Node6 -->
<g id="node6" class="node">
<title>Node6</title>
<g id="a_node6"><a xlink:title=" ">
<polygon fill="white" stroke="#bfbfbf" points="335.5,-56.5 335.5,-75.5 400.5,-75.5 400.5,-56.5 335.5,-56.5"/>
<text text-anchor="middle" x="368" y="-63.5" font-family="Helvetica,sans-Serif" font-size="10.00">functional</text>
</a>
</g>
</g>
<!-- Node4&#45;&gt;Node6 -->
<g id="edge5" class="edge">
<title>Node4&#45;&gt;Node6</title>
<path fill="none" stroke="midnightblue" d="M283.29,-170.28C306.69,-162.79 331.83,-150.86 349,-132 360.49,-119.38 365.06,-100.16 366.86,-85.9"/>
<polygon fill="midnightblue" stroke="midnightblue" points="370.36,-86.01 367.79,-75.74 363.39,-85.37 370.36,-86.01"/>
</g>
<!-- Node7 -->
<g id="node7" class="node">
<title>Node7</title>
<g id="a_node7"><a xlink:title=" ">
<polygon fill="white" stroke="#bfbfbf" points="224,-112.5 224,-131.5 280,-131.5 280,-112.5 224,-112.5"/>
<text text-anchor="middle" x="252" y="-119.5" font-family="Helvetica,sans-Serif" font-size="10.00">optional</text>
</a>
</g>
</g>
<!-- Node4&#45;&gt;Node7 -->
<g id="edge6" class="edge">
<title>Node4&#45;&gt;Node7</title>
<path fill="none" stroke="midnightblue" d="M229.11,-168.4C233.29,-160.11 238.61,-149.55 243.07,-140.71"/>
<polygon fill="midnightblue" stroke="midnightblue" points="246.26,-142.16 247.63,-131.66 240.01,-139.01 246.26,-142.16"/>
</g>
<!-- Node8 -->
<g id="node8" class="node">
<title>Node8</title>
<g id="a_node8"><a xlink:title=" ">
<polygon fill="white" stroke="#bfbfbf" points="296.5,-0.5 296.5,-19.5 353.5,-19.5 353.5,-0.5 296.5,-0.5"/>
<text text-anchor="middle" x="325" y="-7.5" font-family="Helvetica,sans-Serif" font-size="10.00">ostream</text>
</a>
</g>
</g>
<!-- Node4&#45;&gt;Node8 -->
<g id="edge7" class="edge">
<title>Node4&#45;&gt;Node8</title>
<path fill="none" stroke="midnightblue" d="M216.62,-168.34C211.92,-153.63 206.98,-130.24 215,-112 232.35,-72.51 273.62,-41.69 300.38,-24.95"/>
<polygon fill="midnightblue" stroke="midnightblue" points="302.43,-27.79 309.18,-19.62 298.81,-21.81 302.43,-27.79"/>
</g>
<!-- Node9 -->
<g id="node9" class="node">
<title>Node9</title>
<g id="a_node9"><a xlink:title=" ">
<polygon fill="white" stroke="#bfbfbf" points="124,-112.5 124,-131.5 168,-131.5 168,-112.5 124,-112.5"/>
<text text-anchor="middle" x="146" y="-119.5" font-family="Helvetica,sans-Serif" font-size="10.00">string</text>
</a>
</g>
</g>
<!-- Node4&#45;&gt;Node9 -->
<g id="edge8" class="edge">
<title>Node4&#45;&gt;Node9</title>
<path fill="none" stroke="midnightblue" d="M203.99,-168.4C192.26,-159.22 176.98,-147.26 165.06,-137.92"/>
<polygon fill="midnightblue" stroke="midnightblue" points="167.09,-135.07 157.06,-131.66 162.78,-140.58 167.09,-135.07"/>
</g>
<!-- Node10&#45;&gt;Node2 -->
<g id="edge10" class="edge">
<title>Node10&#45;&gt;Node2</title>
<path fill="none" stroke="midnightblue" d="M87.54,-173.98C76.05,-164.61 57.37,-149.38 43.41,-138.01"/>
<polygon fill="midnightblue" stroke="midnightblue" points="45.4,-135.11 35.44,-131.51 40.98,-140.54 45.4,-135.11"/>
</g>
<!-- Node10&#45;&gt;Node9 -->
<g id="edge12" class="edge">
<title>Node10&#45;&gt;Node9</title>
<path fill="none" stroke="midnightblue" d="M104.88,-173.98C112.15,-164.96 123.8,-150.52 132.84,-139.31"/>
<polygon fill="midnightblue" stroke="midnightblue" points="135.58,-141.49 139.14,-131.51 130.13,-137.09 135.58,-141.49"/>
</g>
<!-- Node11 -->
<g id="node11" class="node">
<title>Node11</title>
<g id="a_node11"><a xlink:title=" ">
<polygon fill="white" stroke="#bfbfbf" points="68,-112.5 68,-131.5 106,-131.5 106,-112.5 68,-112.5"/>
<text text-anchor="middle" x="87" y="-119.5" font-family="Helvetica,sans-Serif" font-size="10.00">map</text>
</a>
</g>
</g>
<!-- Node10&#45;&gt;Node11 -->
<g id="edge11" class="edge">
<title>Node10&#45;&gt;Node11</title>
<path fill="none" stroke="midnightblue" d="M96.42,-173.98C94.87,-165.58 92.45,-152.48 90.45,-141.66"/>
<polygon fill="midnightblue" stroke="midnightblue" points="93.83,-140.71 88.57,-131.51 86.95,-141.98 93.83,-140.71"/>
</g>
<!-- Node14 -->
<g id="node14" class="node">
<title>Node14</title>
<g id="a_node14"><a xlink:href="IDisplay_8hpp.xhtml" target="_top" xlink:title=" ">
<polygon fill="white" stroke="black" points="918,-56.5 918,-75.5 994,-75.5 994,-56.5 918,-56.5"/>
<text text-anchor="middle" x="956" y="-63.5" font-family="Helvetica,sans-Serif" font-size="10.00">IDisplay.hpp</text>
</a>
</g>
</g>
<!-- Node13&#45;&gt;Node14 -->
<g id="edge15" class="edge">
<title>Node13&#45;&gt;Node14</title>
<path fill="none" stroke="midnightblue" d="M998.58,-112.08C991.15,-104.22 980.15,-92.57 971.19,-83.08"/>
<polygon fill="midnightblue" stroke="midnightblue" points="973.68,-80.62 964.26,-75.75 968.59,-85.42 973.68,-80.62"/>
</g>
<!-- Node15&#45;&gt;Node13 -->
<g id="edge18" class="edge">
<title>Node15&#45;&gt;Node13</title>
<path fill="none" stroke="midnightblue" d="M1106.38,-173.98C1087.08,-164.08 1055.04,-147.64 1032.57,-136.12"/>
<polygon fill="midnightblue" stroke="midnightblue" points="1034.08,-132.96 1023.59,-131.51 1030.89,-139.19 1034.08,-132.96"/>
</g>
<!-- Node16 -->
<g id="node16" class="node">
<title>Node16</title>
<g id="a_node16"><a xlink:href="IStatusIndicator_8hpp.xhtml" target="_top" xlink:title=" ">
<polygon fill="white" stroke="black" points="1169.5,-112.5 1169.5,-131.5 1282.5,-131.5 1282.5,-112.5 1169.5,-112.5"/>
<text text-anchor="middle" x="1226" y="-119.5" font-family="Helvetica,sans-Serif" font-size="10.00">IStatusIndicator.hpp</text>
</a>
</g>
</g>
<!-- Node15&#45;&gt;Node16 -->
<g id="edge17" class="edge">
<title>Node15&#45;&gt;Node16</title>
<path fill="none" stroke="midnightblue" d="M1137.76,-173.98C1154.66,-164.21 1182.58,-148.08 1202.49,-136.58"/>
<polygon fill="midnightblue" stroke="midnightblue" points="1204.36,-139.54 1211.27,-131.51 1200.86,-133.48 1204.36,-139.54"/>
</g>
<!-- Node17 -->
<g id="node17" class="node">
<title>Node17</title>
<g id="a_node17"><a xlink:title=" ">
<polygon fill="white" stroke="#bfbfbf" points="1098.5,-112.5 1098.5,-131.5 1151.5,-131.5 1151.5,-112.5 1098.5,-112.5"/>
<text text-anchor="middle" x="1125" y="-119.5" font-family="Helvetica,sans-Serif" font-size="10.00">cstddef</text>
</a>
</g>
</g>
<!-- Node15&#45;&gt;Node17 -->
<g id="edge19" class="edge">
<title>Node15&#45;&gt;Node17</title>
<path fill="none" stroke="midnightblue" d="M1123.29,-173.98C1123.57,-165.58 1124.01,-152.48 1124.37,-141.66"/>
<polygon fill="midnightblue" stroke="midnightblue" points="1127.88,-141.62 1124.71,-131.51 1120.88,-141.39 1127.88,-141.62"/>
</g>
<!-- Node18 -->
<g id="node18" class="node">
<title>Node18</title>
<g id="a_node18"><a xlink:title=" ">
<polygon fill="white" stroke="#bfbfbf" points="1300.5,-112.5 1300.5,-131.5 1347.5,-131.5 1347.5,-112.5 1300.5,-112.5"/>
<text text-anchor="middle" x="1324" y="-119.5" font-family="Helvetica,sans-Serif" font-size="10.00">vector</text>
</a>
</g>
</g>
<!-- Node15&#45;&gt;Node18 -->
<g id="edge20" class="edge">
<title>Node15&#45;&gt;Node18</title>
<path fill="none" stroke="midnightblue" d="M1151.8,-173.98C1188.47,-163.12 1251.71,-144.4 1290.5,-132.92"/>
<polygon fill="midnightblue" stroke="midnightblue" points="1291.68,-136.22 1300.28,-130.02 1289.7,-129.5 1291.68,-136.22"/>
</g>
<!-- Node20 -->
<g id="node20" class="node">
<title>Node20</title>
<g id="a_node20"><a xlink:href="KeyIds_8hpp.xhtml" target="_top" xlink:title=" ">
<polygon fill="white" stroke="black" points="419,-56.5 419,-75.5 489,-75.5 489,-56.5 419,-56.5"/>
<text text-anchor="middle" x="454" y="-63.5" font-family="Helvetica,sans-Serif" font-size="10.00">KeyIds.hpp</text>
</a>
</g>
</g>
<!-- Node19&#45;&gt;Node20 -->
<g id="edge22" class="edge">
<title>Node19&#45;&gt;Node20</title>
<path fill="none" stroke="midnightblue" d="M513.44,-168.34C505.73,-154.01 493.33,-131.3 482,-112 476.52,-102.66 470.16,-92.4 464.88,-84.03"/>
<polygon fill="midnightblue" stroke="midnightblue" points="467.81,-82.12 459.5,-75.55 461.9,-85.87 467.81,-82.12"/>
</g>
<!-- Node20&#45;&gt;Node8 -->
<g id="edge23" class="edge">
<title>Node20&#45;&gt;Node8</title>
<path fill="none" stroke="midnightblue" d="M433.56,-56.44C412.33,-47.56 378.9,-33.56 354.75,-23.45"/>
<polygon fill="midnightblue" stroke="midnightblue" points="355.92,-20.15 345.34,-19.52 353.22,-26.61 355.92,-20.15"/>
</g>
<!-- Node21&#45;&gt;Node14 -->
<g id="edge25" class="edge">
<title>Node21&#45;&gt;Node14</title>
<path fill="none" stroke="midnightblue" d="M914.37,-168.23C915.17,-153.64 917.62,-130.53 925,-112 929.07,-101.77 935.82,-91.57 941.98,-83.48"/>
<polygon fill="midnightblue" stroke="midnightblue" points="944.76,-85.6 948.29,-75.61 939.3,-81.23 944.76,-85.6"/>
</g>
<!-- Node23 -->
<g id="node23" class="node">
<title>Node23</title>
<g id="a_node23"><a xlink:href="IKeypad_8hpp.xhtml" target="_top" xlink:title=" ">
<polygon fill="white" stroke="black" points="396.5,-112.5 396.5,-131.5 473.5,-131.5 473.5,-112.5 396.5,-112.5"/>
<text text-anchor="middle" x="435" y="-119.5" font-family="Helvetica,sans-Serif" font-size="10.00">IKeypad.hpp</text>
</a>
</g>
</g>
<!-- Node22&#45;&gt;Node23 -->
<g id="edge27" class="edge">
<title>Node22&#45;&gt;Node23</title>
<path fill="none" stroke="midnightblue" d="M383.88,-168.4C394.02,-159.4 407.16,-147.72 417.59,-138.47"/>
<polygon fill="midnightblue" stroke="midnightblue" points="420.1,-140.92 425.25,-131.66 415.45,-135.68 420.1,-140.92"/>
</g>
<!-- Node23&#45;&gt;Node6 -->
<g id="edge29" class="edge">
<title>Node23&#45;&gt;Node6</title>
<path fill="none" stroke="midnightblue" d="M424.24,-112.32C414.23,-104.26 399.11,-92.08 387.07,-82.37"/>
<polygon fill="midnightblue" stroke="midnightblue" points="388.94,-79.38 378.96,-75.83 384.55,-84.83 388.94,-79.38"/>
</g>
<!-- Node23&#45;&gt;Node20 -->
<g id="edge28" class="edge">
<title>Node23&#45;&gt;Node20</title>
<path fill="none" stroke="midnightblue" d="M438.14,-112.08C440.68,-104.85 444.36,-94.41 447.53,-85.4"/>
<polygon fill="midnightblue" stroke="midnightblue" points="450.9,-86.35 450.92,-75.75 444.3,-84.02 450.9,-86.35"/>
</g>
<!-- Node24&#45;&gt;Node16 -->
<g id="edge31" class="edge">
<title>Node24&#45;&gt;Node16</title>
<path fill="none" stroke="midnightblue" d="M1291.62,-168.4C1278.09,-159.04 1260.39,-146.79 1246.78,-137.38"/>
<polygon fill="midnightblue" stroke="midnightblue" points="1248.73,-134.47 1238.51,-131.66 1244.75,-140.23 1248.73,-134.47"/>
</g>
<!-- Node24&#45;&gt;Node18 -->
<g id="edge32" class="edge">
<title>Node24&#45;&gt;Node18</title>
<path fill="none" stroke="midnightblue" d="M1314.84,-168.4C1316.46,-160.38 1318.51,-150.23 1320.25,-141.57"/>
<polygon fill="midnightblue" stroke="midnightblue" points="1323.71,-142.15 1322.25,-131.66 1316.85,-140.77 1323.71,-142.15"/>
</g>
</g>
</svg>
