<?xml version="1.0" encoding="UTF-8" standalone="no"?>
<!DOCTYPE svg PUBLIC "-//W3C//DTD SVG 1.1//EN"
 "http://www.w3.org/Graphics/SVG/1.1/DTD/svg11.dtd">
<!-- Generated by graphviz version 2.43.0 (0)
 -->
<!-- Title: Task&#45;Tracker&#45;Device/lib/application_business_rules/user_interaction/MenuItem.hpp Pages: 1 -->
<svg width="921pt" height="417pt"
 viewBox="0.00 0.00 921.00 417.00" xmlns="http://www.w3.org/2000/svg" xmlns:xlink="http://www.w3.org/1999/xlink">
<g id="graph0" class="graph" transform="scale(1 1) rotate(0) translate(4 413)">
<title>Task&#45;Tracker&#45;Device/lib/application_business_rules/user_interaction/MenuItem.hpp</title>
<polygon fill="white" stroke="transparent" points="-4,4 -4,-413 917,-413 917,4 -4,4"/>
<!-- Node1 -->
<g id="node1" class="node">
<title>Node1</title>
<g id="a_node1"><a xlink:title=" ">
<polygon fill="#bfbfbf" stroke="black" points="407,-356.5 407,-408.5 544,-408.5 544,-356.5 407,-356.5"/>
<text text-anchor="start" x="415" y="-396.5" font-family="Helvetica,sans-Serif" font-size="10.00">Task&#45;Tracker&#45;Device</text>
<text text-anchor="start" x="415" y="-385.5" font-family="Helvetica,sans-Serif" font-size="10.00">/lib/application_business</text>
<text text-anchor="start" x="415" y="-374.5" font-family="Helvetica,sans-Serif" font-size="10.00">_rules/user_interaction</text>
<text text-anchor="middle" x="475.5" y="-363.5" font-family="Helvetica,sans-Serif" font-size="10.00">/MenuItem.hpp</text>
</a>
</g>
</g>
<!-- Node2 -->
<g id="node2" class="node">
<title>Node2</title>
<g id="a_node2"><a xlink:href="GuiEngine_8cpp.xhtml" target="_top" xlink:title="Connects LVGL callbacks to display driver and input device.">
<polygon fill="white" stroke="black" points="0,-95 0,-136 129,-136 129,-95 0,-95"/>
<text text-anchor="start" x="8" y="-124" font-family="Helvetica,sans-Serif" font-size="10.00">Task&#45;Tracker&#45;Device</text>
<text text-anchor="start" x="8" y="-113" font-family="Helvetica,sans-Serif" font-size="10.00">/lib/3rd_party_adapters</text>
<text text-anchor="middle" x="64.5" y="-102" font-family="Helvetica,sans-Serif" font-size="10.00">/LVGL/GuiEngine.cpp</text>
</a>
</g>
</g>
<!-- Node1&#45;&gt;Node2 -->
<g id="edge1" class="edge">
<title>Node1&#45;&gt;Node2</title>
<path fill="none" stroke="midnightblue" d="M396.64,-379.34C295.43,-374.89 127.61,-361.32 83.5,-320 32.35,-272.09 48.82,-176.98 59.01,-136.02"/>
<polygon fill="midnightblue" stroke="midnightblue" points="396.68,-382.84 406.82,-379.76 396.98,-375.85 396.68,-382.84"/>
</g>
<!-- Node3 -->
<g id="node3" class="node">
<title>Node3</title>
<g id="a_node3"><a xlink:href="Screen_8hpp.xhtml" target="_top" xlink:title="Converts menu items to LVGL.">
<polygon fill="white" stroke="black" points="93,-273 93,-314 222,-314 222,-273 93,-273"/>
<text text-anchor="start" x="101" y="-302" font-family="Helvetica,sans-Serif" font-size="10.00">Task&#45;Tracker&#45;Device</text>
<text text-anchor="start" x="101" y="-291" font-family="Helvetica,sans-Serif" font-size="10.00">/lib/3rd_party_adapters</text>
<text text-anchor="middle" x="157.5" y="-280" font-family="Helvetica,sans-Serif" font-size="10.00">/LVGL/Screen.hpp</text>
</a>
</g>
</g>
<!-- Node1&#45;&gt;Node3 -->
<g id="edge2" class="edge">
<title>Node1&#45;&gt;Node3</title>
<path fill="none" stroke="midnightblue" d="M397.05,-360.04C343.26,-345.32 272.76,-326.03 222.19,-312.2"/>
<polygon fill="midnightblue" stroke="midnightblue" points="396.32,-363.47 406.89,-362.73 398.17,-356.71 396.32,-363.47"/>
</g>
<!-- Node5 -->
<g id="node5" class="node">
<title>Node5</title>
<g id="a_node5"><a xlink:href="IGuiEngine_8hpp.xhtml" target="_top" xlink:title=" ">
<polygon fill="white" stroke="black" points="407,-267.5 407,-319.5 544,-319.5 544,-267.5 407,-267.5"/>
<text text-anchor="start" x="415" y="-307.5" font-family="Helvetica,sans-Serif" font-size="10.00">Task&#45;Tracker&#45;Device</text>
<text text-anchor="start" x="415" y="-296.5" font-family="Helvetica,sans-Serif" font-size="10.00">/lib/application_business</text>
<text text-anchor="start" x="415" y="-285.5" font-family="Helvetica,sans-Serif" font-size="10.00">_rules/user_interaction</text>
<text text-anchor="middle" x="475.5" y="-274.5" font-family="Helvetica,sans-Serif" font-size="10.00">/IGuiEngine.hpp</text>
</a>
</g>
</g>
<!-- Node1&#45;&gt;Node5 -->
<g id="edge5" class="edge">
<title>Node1&#45;&gt;Node5</title>
<path fill="none" stroke="midnightblue" d="M475.5,-346.19C475.5,-337.28 475.5,-327.9 475.5,-319.61"/>
<polygon fill="midnightblue" stroke="midnightblue" points="472,-346.34 475.5,-356.34 479,-346.34 472,-346.34"/>
</g>
<!-- Node11 -->
<g id="node11" class="node">
<title>Node11</title>
<g id="a_node11"><a xlink:href="Menu_8cpp.xhtml" target="_top" xlink:title=" ">
<polygon fill="white" stroke="black" points="697,-89.5 697,-141.5 834,-141.5 834,-89.5 697,-89.5"/>
<text text-anchor="start" x="705" y="-129.5" font-family="Helvetica,sans-Serif" font-size="10.00">Task&#45;Tracker&#45;Device</text>
<text text-anchor="start" x="705" y="-118.5" font-family="Helvetica,sans-Serif" font-size="10.00">/lib/application_business</text>
<text text-anchor="start" x="705" y="-107.5" font-family="Helvetica,sans-Serif" font-size="10.00">_rules/user_interaction</text>
<text text-anchor="middle" x="765.5" y="-96.5" font-family="Helvetica,sans-Serif" font-size="10.00">/Menu.cpp</text>
</a>
</g>
</g>
<!-- Node1&#45;&gt;Node11 -->
<g id="edge18" class="edge">
<title>Node1&#45;&gt;Node11</title>
<path fill="none" stroke="midnightblue" d="M553.81,-352.56C609.83,-328.12 683.08,-287.93 728.5,-231 749.34,-204.87 758.59,-166.68 762.59,-141.71"/>
<polygon fill="midnightblue" stroke="midnightblue" points="552.08,-349.49 544.27,-356.64 554.84,-355.92 552.08,-349.49"/>
</g>
<!-- Node14 -->
<g id="node14" class="node">
<title>Node14</title>
<g id="a_node14"><a xlink:href="MenuItem_8cpp.xhtml" target="_top" xlink:title=" ">
<polygon fill="white" stroke="black" points="776,-267.5 776,-319.5 913,-319.5 913,-267.5 776,-267.5"/>
<text text-anchor="start" x="784" y="-307.5" font-family="Helvetica,sans-Serif" font-size="10.00">Task&#45;Tracker&#45;Device</text>
<text text-anchor="start" x="784" y="-296.5" font-family="Helvetica,sans-Serif" font-size="10.00">/lib/application_business</text>
<text text-anchor="start" x="784" y="-285.5" font-family="Helvetica,sans-Serif" font-size="10.00">_rules/user_interaction</text>
<text text-anchor="middle" x="844.5" y="-274.5" font-family="Helvetica,sans-Serif" font-size="10.00">/MenuItem.cpp</text>
</a>
</g>
</g>
<!-- Node1&#45;&gt;Node14 -->
<g id="edge19" class="edge">
<title>Node1&#45;&gt;Node14</title>
<path fill="none" stroke="midnightblue" d="M554.22,-366.47C611.91,-355 691.96,-338.12 761.5,-320 766.17,-318.78 770.97,-317.47 775.79,-316.11"/>
<polygon fill="midnightblue" stroke="midnightblue" points="553.21,-363.11 544.08,-368.48 554.57,-369.97 553.21,-363.11"/>
</g>
<!-- Node3&#45;&gt;Node2 -->
<g id="edge3" class="edge">
<title>Node3&#45;&gt;Node2</title>
<path fill="none" stroke="midnightblue" d="M116.26,-266.75C103.88,-257.03 91.48,-244.91 83.5,-231 66.35,-201.11 63.63,-160.07 63.72,-136.1"/>
<polygon fill="midnightblue" stroke="midnightblue" points="114.24,-269.61 124.35,-272.79 118.43,-264 114.24,-269.61"/>
</g>
<!-- Node4 -->
<g id="node4" class="node">
<title>Node4</title>
<g id="a_node4"><a xlink:href="Screen_8cpp.xhtml" target="_top" xlink:title=" ">
<polygon fill="white" stroke="black" points="93,-184 93,-225 222,-225 222,-184 93,-184"/>
<text text-anchor="start" x="101" y="-213" font-family="Helvetica,sans-Serif" font-size="10.00">Task&#45;Tracker&#45;Device</text>
<text text-anchor="start" x="101" y="-202" font-family="Helvetica,sans-Serif" font-size="10.00">/lib/3rd_party_adapters</text>
<text text-anchor="middle" x="157.5" y="-191" font-family="Helvetica,sans-Serif" font-size="10.00">/LVGL/Screen.cpp</text>
</a>
</g>
</g>
<!-- Node3&#45;&gt;Node4 -->
<g id="edge4" class="edge">
<title>Node3&#45;&gt;Node4</title>
<path fill="none" stroke="midnightblue" d="M157.5,-262.44C157.5,-250.1 157.5,-236.16 157.5,-225.16"/>
<polygon fill="midnightblue" stroke="midnightblue" points="154,-262.76 157.5,-272.76 161,-262.76 154,-262.76"/>
</g>
<!-- Node6 -->
<g id="node6" class="node">
<title>Node6</title>
<g id="a_node6"><a xlink:href="GuiEngine_8hpp.xhtml" target="_top" xlink:title=" ">
<polygon fill="white" stroke="black" points="240,-184 240,-225 369,-225 369,-184 240,-184"/>
<text text-anchor="start" x="248" y="-213" font-family="Helvetica,sans-Serif" font-size="10.00">Task&#45;Tracker&#45;Device</text>
<text text-anchor="start" x="248" y="-202" font-family="Helvetica,sans-Serif" font-size="10.00">/lib/3rd_party_adapters</text>
<text text-anchor="middle" x="304.5" y="-191" font-family="Helvetica,sans-Serif" font-size="10.00">/LVGL/GuiEngine.hpp</text>
</a>
</g>
</g>
<!-- Node5&#45;&gt;Node6 -->
<g id="edge6" class="edge">
<title>Node5&#45;&gt;Node6</title>
<path fill="none" stroke="midnightblue" d="M416.86,-262.66C392.44,-250.24 364.76,-236.16 342.99,-225.08"/>
<polygon fill="midnightblue" stroke="midnightblue" points="415.54,-265.92 426.04,-267.34 418.71,-259.68 415.54,-265.92"/>
</g>
<!-- Node8 -->
<g id="node8" class="node">
<title>Node8</title>
<g id="a_node8"><a xlink:href="guiEngine__factory__interface_8hpp.xhtml" target="_top" xlink:title="Dependency injection for the guiEngine.">
<polygon fill="white" stroke="black" points="387,-178.5 387,-230.5 564,-230.5 564,-178.5 387,-178.5"/>
<text text-anchor="start" x="395" y="-218.5" font-family="Helvetica,sans-Serif" font-size="10.00">Task&#45;Tracker&#45;Device</text>
<text text-anchor="start" x="395" y="-207.5" font-family="Helvetica,sans-Serif" font-size="10.00">/lib/application_business</text>
<text text-anchor="start" x="395" y="-196.5" font-family="Helvetica,sans-Serif" font-size="10.00">_rules/user_interaction</text>
<text text-anchor="middle" x="475.5" y="-185.5" font-family="Helvetica,sans-Serif" font-size="10.00">/guiEngine_factory_interface.hpp</text>
</a>
</g>
</g>
<!-- Node5&#45;&gt;Node8 -->
<g id="edge9" class="edge">
<title>Node5&#45;&gt;Node8</title>
<path fill="none" stroke="midnightblue" d="M475.5,-257.19C475.5,-248.28 475.5,-238.9 475.5,-230.61"/>
<polygon fill="midnightblue" stroke="midnightblue" points="472,-257.34 475.5,-267.34 479,-257.34 472,-257.34"/>
</g>
<!-- Node10 -->
<g id="node10" class="node">
<title>Node10</title>
<g id="a_node10"><a xlink:href="Menu_8hpp.xhtml" target="_top" xlink:title=" ">
<polygon fill="white" stroke="black" points="582,-178.5 582,-230.5 719,-230.5 719,-178.5 582,-178.5"/>
<text text-anchor="start" x="590" y="-218.5" font-family="Helvetica,sans-Serif" font-size="10.00">Task&#45;Tracker&#45;Device</text>
<text text-anchor="start" x="590" y="-207.5" font-family="Helvetica,sans-Serif" font-size="10.00">/lib/application_business</text>
<text text-anchor="start" x="590" y="-196.5" font-family="Helvetica,sans-Serif" font-size="10.00">_rules/user_interaction</text>
<text text-anchor="middle" x="650.5" y="-185.5" font-family="Helvetica,sans-Serif" font-size="10.00">/Menu.hpp</text>
</a>
</g>
</g>
<!-- Node5&#45;&gt;Node10 -->
<g id="edge12" class="edge">
<title>Node5&#45;&gt;Node10</title>
<path fill="none" stroke="midnightblue" d="M535.29,-262.78C556.34,-252.31 579.78,-240.66 600,-230.61"/>
<polygon fill="midnightblue" stroke="midnightblue" points="533.51,-259.75 526.12,-267.34 536.63,-266.02 533.51,-259.75"/>
</g>
<!-- Node6&#45;&gt;Node2 -->
<g id="edge7" class="edge">
<title>Node6&#45;&gt;Node2</title>
<path fill="none" stroke="midnightblue" d="M241.17,-180.54C203.02,-166.71 154.96,-149.29 118.6,-136.11"/>
<polygon fill="midnightblue" stroke="midnightblue" points="240.05,-183.86 250.64,-183.98 242.43,-177.28 240.05,-183.86"/>
</g>
<!-- Node7 -->
<g id="node7" class="node">
<title>Node7</title>
<g id="a_node7"><a xlink:href="guiEngine__factory__interface_8cpp.xhtml" target="_top" xlink:title=" ">
<polygon fill="white" stroke="black" points="275.5,-89.5 275.5,-141.5 409.5,-141.5 409.5,-89.5 275.5,-89.5"/>
<text text-anchor="start" x="283.5" y="-129.5" font-family="Helvetica,sans-Serif" font-size="10.00">Task&#45;Tracker&#45;Device</text>
<text text-anchor="start" x="283.5" y="-118.5" font-family="Helvetica,sans-Serif" font-size="10.00">/lib/3rd_party_adapters</text>
<text text-anchor="start" x="283.5" y="-107.5" font-family="Helvetica,sans-Serif" font-size="10.00">/LVGL/guiEngine_factory</text>
<text text-anchor="middle" x="342.5" y="-96.5" font-family="Helvetica,sans-Serif" font-size="10.00">_interface.cpp</text>
</a>
</g>
</g>
<!-- Node6&#45;&gt;Node7 -->
<g id="edge8" class="edge">
<title>Node6&#45;&gt;Node7</title>
<path fill="none" stroke="midnightblue" d="M317.17,-174.48C321.8,-163.9 326.98,-152.02 331.45,-141.79"/>
<polygon fill="midnightblue" stroke="midnightblue" points="313.92,-173.19 313.12,-183.76 320.33,-176 313.92,-173.19"/>
</g>
<!-- Node8&#45;&gt;Node7 -->
<g id="edge10" class="edge">
<title>Node8&#45;&gt;Node7</title>
<path fill="none" stroke="midnightblue" d="M428.55,-172.79C412.94,-162.58 395.76,-151.34 380.88,-141.61"/>
<polygon fill="midnightblue" stroke="midnightblue" points="426.75,-175.79 437.03,-178.34 430.58,-169.93 426.75,-175.79"/>
</g>
<!-- Node9 -->
<g id="node9" class="node">
<title>Node9</title>
<g id="a_node9"><a xlink:href="main_8cpp.xhtml" target="_top" xlink:title=" ">
<polygon fill="white" stroke="black" points="438,-11.5 438,-41.5 551,-41.5 551,-11.5 438,-11.5"/>
<text text-anchor="start" x="446" y="-29.5" font-family="Helvetica,sans-Serif" font-size="10.00">Task&#45;Tracker&#45;Device</text>
<text text-anchor="middle" x="494.5" y="-18.5" font-family="Helvetica,sans-Serif" font-size="10.00">/src/main.cpp</text>
</a>
</g>
</g>
<!-- Node8&#45;&gt;Node9 -->
<g id="edge11" class="edge">
<title>Node8&#45;&gt;Node9</title>
<path fill="none" stroke="midnightblue" d="M479.34,-167.97C483.52,-129.25 490,-69.16 492.95,-41.87"/>
<polygon fill="midnightblue" stroke="midnightblue" points="475.82,-167.97 478.22,-178.28 482.78,-168.72 475.82,-167.97"/>
</g>
<!-- Node10&#45;&gt;Node9 -->
<g id="edge17" class="edge">
<title>Node10&#45;&gt;Node9</title>
<path fill="none" stroke="midnightblue" d="M572.98,-173.48C558.37,-165.05 544.31,-154.64 533.5,-142 508.11,-112.32 499.03,-65.32 495.96,-41.84"/>
<polygon fill="midnightblue" stroke="midnightblue" points="571.67,-176.75 582.12,-178.48 575.03,-170.61 571.67,-176.75"/>
</g>
<!-- Node10&#45;&gt;Node11 -->
<g id="edge13" class="edge">
<title>Node10&#45;&gt;Node11</title>
<path fill="none" stroke="midnightblue" d="M691.85,-172.22C705.14,-162.16 719.68,-151.16 732.31,-141.61"/>
<polygon fill="midnightblue" stroke="midnightblue" points="689.63,-169.51 683.76,-178.34 693.85,-175.09 689.63,-169.51"/>
</g>
<!-- Node12 -->
<g id="node12" class="node">
<title>Node12</title>
<g id="a_node12"><a xlink:href="Presenter_8hpp.xhtml" target="_top" xlink:title=" ">
<polygon fill="white" stroke="black" points="542,-89.5 542,-141.5 679,-141.5 679,-89.5 542,-89.5"/>
<text text-anchor="start" x="550" y="-129.5" font-family="Helvetica,sans-Serif" font-size="10.00">Task&#45;Tracker&#45;Device</text>
<text text-anchor="start" x="550" y="-118.5" font-family="Helvetica,sans-Serif" font-size="10.00">/lib/application_business</text>
<text text-anchor="start" x="550" y="-107.5" font-family="Helvetica,sans-Serif" font-size="10.00">_rules/user_interaction</text>
<text text-anchor="middle" x="610.5" y="-96.5" font-family="Helvetica,sans-Serif" font-size="10.00">/Presenter.hpp</text>
</a>
</g>
</g>
<!-- Node10&#45;&gt;Node12 -->
<g id="edge14" class="edge">
<title>Node10&#45;&gt;Node12</title>
<path fill="none" stroke="midnightblue" d="M634.67,-169.06C630.45,-159.9 625.98,-150.17 622.04,-141.61"/>
<polygon fill="midnightblue" stroke="midnightblue" points="631.57,-170.71 638.93,-178.34 637.93,-167.79 631.57,-170.71"/>
</g>
<!-- Node12&#45;&gt;Node9 -->
<g id="edge16" class="edge">
<title>Node12&#45;&gt;Node9</title>
<path fill="none" stroke="midnightblue" d="M568.7,-83.15C549.69,-68.89 528.14,-52.73 513.19,-41.52"/>
<polygon fill="midnightblue" stroke="midnightblue" points="566.85,-86.14 576.95,-89.34 571.05,-80.54 566.85,-86.14"/>
</g>
<!-- Node13 -->
<g id="node13" class="node">
<title>Node13</title>
<g id="a_node13"><a xlink:href="Presenter_8cpp.xhtml" target="_top" xlink:title=" ">
<polygon fill="white" stroke="black" points="569,-0.5 569,-52.5 706,-52.5 706,-0.5 569,-0.5"/>
<text text-anchor="start" x="577" y="-40.5" font-family="Helvetica,sans-Serif" font-size="10.00">Task&#45;Tracker&#45;Device</text>
<text text-anchor="start" x="577" y="-29.5" font-family="Helvetica,sans-Serif" font-size="10.00">/lib/application_business</text>
<text text-anchor="start" x="577" y="-18.5" font-family="Helvetica,sans-Serif" font-size="10.00">_rules/user_interaction</text>
<text text-anchor="middle" x="637.5" y="-7.5" font-family="Helvetica,sans-Serif" font-size="10.00">/Presenter.cpp</text>
</a>
</g>
</g>
<!-- Node12&#45;&gt;Node13 -->
<g id="edge15" class="edge">
<title>Node12&#45;&gt;Node13</title>
<path fill="none" stroke="midnightblue" d="M621.28,-79.77C624.1,-70.69 627.08,-61.08 629.71,-52.61"/>
<polygon fill="midnightblue" stroke="midnightblue" points="617.93,-78.75 618.31,-89.34 624.62,-80.82 617.93,-78.75"/>
</g>
</g>
</svg>
