<?xml version="1.0" encoding="UTF-8" standalone="no"?>
<!DOCTYPE svg PUBLIC "-//W3C//DTD SVG 1.1//EN"
 "http://www.w3.org/Graphics/SVG/1.1/DTD/svg11.dtd">
<!-- Generated by graphviz version 2.43.0 (0)
 -->
<!-- Title: Task&#45;Tracker&#45;Device/lib/application_business_rules/user_interaction/Presenter.cpp Pages: 1 -->
<svg width="645pt" height="397pt"
 viewBox="0.00 0.00 645.27 397.00" xmlns="http://www.w3.org/2000/svg" xmlns:xlink="http://www.w3.org/1999/xlink">
<g id="graph0" class="graph" transform="scale(1 1) rotate(0) translate(4 393)">
<title>Task&#45;Tracker&#45;Device/lib/application_business_rules/user_interaction/Presenter.cpp</title>
<polygon fill="white" stroke="transparent" points="-4,4 -4,-393 641.27,-393 641.27,4 -4,4"/>
<!-- Node1 -->
<g id="node1" class="node">
<title>Node1</title>
<g id="a_node1"><a xlink:title=" ">
<polygon fill="#bfbfbf" stroke="black" points="374.27,-336.5 374.27,-388.5 511.27,-388.5 511.27,-336.5 374.27,-336.5"/>
<text text-anchor="start" x="382.27" y="-376.5" font-family="Helvetica,sans-Serif" font-size="10.00">Task&#45;Tracker&#45;Device</text>
<text text-anchor="start" x="382.27" y="-365.5" font-family="Helvetica,sans-Serif" font-size="10.00">/lib/application_business</text>
<text text-anchor="start" x="382.27" y="-354.5" font-family="Helvetica,sans-Serif" font-size="10.00">_rules/user_interaction</text>
<text text-anchor="middle" x="442.77" y="-343.5" font-family="Helvetica,sans-Serif" font-size="10.00">/Presenter.cpp</text>
</a>
</g>
</g>
<!-- Node2 -->
<g id="node2" class="node">
<title>Node2</title>
<g id="a_node2"><a xlink:href="Presenter_8hpp.xhtml" target="_top" xlink:title=" ">
<polygon fill="white" stroke="black" points="163.27,-280.5 163.27,-299.5 246.27,-299.5 246.27,-280.5 163.27,-280.5"/>
<text text-anchor="middle" x="204.77" y="-287.5" font-family="Helvetica,sans-Serif" font-size="10.00">Presenter.hpp</text>
</a>
</g>
</g>
<!-- Node1&#45;&gt;Node2 -->
<g id="edge1" class="edge">
<title>Node1&#45;&gt;Node2</title>
<path fill="none" stroke="midnightblue" d="M374.25,-341.2C331.75,-328.62 278.71,-312.9 243.4,-302.44"/>
<polygon fill="midnightblue" stroke="midnightblue" points="244.07,-298.99 233.49,-299.51 242.08,-305.7 244.07,-298.99"/>
</g>
<!-- Node16 -->
<g id="node16" class="node">
<title>Node16</title>
<g id="a_node16"><a xlink:href="board__interface_8hpp.xhtml" target="_top" xlink:title=" ">
<polygon fill="white" stroke="black" points="343.77,-280.5 343.77,-299.5 457.77,-299.5 457.77,-280.5 343.77,-280.5"/>
<text text-anchor="middle" x="400.77" y="-287.5" font-family="Helvetica,sans-Serif" font-size="10.00">board_interface.hpp</text>
</a>
</g>
</g>
<!-- Node1&#45;&gt;Node16 -->
<g id="edge17" class="edge">
<title>Node1&#45;&gt;Node16</title>
<path fill="none" stroke="midnightblue" d="M427.84,-336.45C422.29,-327.13 416.12,-316.77 411.08,-308.3"/>
<polygon fill="midnightblue" stroke="midnightblue" points="414.07,-306.5 405.95,-299.7 408.06,-310.08 414.07,-306.5"/>
</g>
<!-- Node17 -->
<g id="node17" class="node">
<title>Node17</title>
<g id="a_node17"><a xlink:title=" ">
<polygon fill="white" stroke="#bfbfbf" points="463.77,-224.5 463.77,-243.5 513.77,-243.5 513.77,-224.5 463.77,-224.5"/>
<text text-anchor="middle" x="488.77" y="-231.5" font-family="Helvetica,sans-Serif" font-size="10.00">chrono</text>
</a>
</g>
</g>
<!-- Node1&#45;&gt;Node17 -->
<g id="edge22" class="edge">
<title>Node1&#45;&gt;Node17</title>
<path fill="none" stroke="midnightblue" d="M452.84,-336.46C457.23,-325.34 462.38,-312.06 466.77,-300 472.44,-284.43 478.44,-266.6 482.74,-253.55"/>
<polygon fill="midnightblue" stroke="midnightblue" points="486.12,-254.47 485.91,-243.88 479.47,-252.29 486.12,-254.47"/>
</g>
<!-- Node18 -->
<g id="node18" class="node">
<title>Node18</title>
<g id="a_node18"><a xlink:title=" ">
<polygon fill="white" stroke="#bfbfbf" points="513.77,-280.5 513.77,-299.5 565.77,-299.5 565.77,-280.5 513.77,-280.5"/>
<text text-anchor="middle" x="539.77" y="-287.5" font-family="Helvetica,sans-Serif" font-size="10.00">cassert</text>
</a>
</g>
</g>
<!-- Node1&#45;&gt;Node18 -->
<g id="edge21" class="edge">
<title>Node1&#45;&gt;Node18</title>
<path fill="none" stroke="midnightblue" d="M477.24,-336.45C491.44,-326.13 507.39,-314.53 519.63,-305.64"/>
<polygon fill="midnightblue" stroke="midnightblue" points="521.77,-308.41 527.8,-299.7 517.66,-302.74 521.77,-308.41"/>
</g>
<!-- Node19 -->
<g id="node19" class="node">
<title>Node19</title>
<g id="a_node19"><a xlink:title=" ">
<polygon fill="white" stroke="#bfbfbf" points="584.27,-280.5 584.27,-299.5 637.27,-299.5 637.27,-280.5 584.27,-280.5"/>
<text text-anchor="middle" x="610.77" y="-287.5" font-family="Helvetica,sans-Serif" font-size="10.00">iterator</text>
</a>
</g>
</g>
<!-- Node1&#45;&gt;Node19 -->
<g id="edge23" class="edge">
<title>Node1&#45;&gt;Node19</title>
<path fill="none" stroke="midnightblue" d="M502.47,-336.45C529.13,-325.26 559.37,-312.57 581.1,-303.45"/>
<polygon fill="midnightblue" stroke="midnightblue" points="582.58,-306.62 590.45,-299.53 579.87,-300.17 582.58,-306.62"/>
</g>
<!-- Node20 -->
<g id="node20" class="node">
<title>Node20</title>
<g id="a_node20"><a xlink:href="pitches_8hpp.xhtml" target="_top" xlink:title=" ">
<polygon fill="white" stroke="black" points="148.27,-168.5 148.27,-187.5 221.27,-187.5 221.27,-168.5 148.27,-168.5"/>
<text text-anchor="middle" x="184.77" y="-175.5" font-family="Helvetica,sans-Serif" font-size="10.00">pitches.hpp</text>
</a>
</g>
</g>
<!-- Node1&#45;&gt;Node20 -->
<g id="edge24" class="edge">
<title>Node1&#45;&gt;Node20</title>
<path fill="none" stroke="midnightblue" d="M392.72,-336.47C373.89,-326.17 352.7,-313.49 334.77,-300 296.09,-270.9 294.84,-253.89 256.77,-224 241.83,-212.28 223.7,-200.96 209.37,-192.61"/>
<polygon fill="midnightblue" stroke="midnightblue" points="210.99,-189.5 200.58,-187.57 207.52,-195.58 210.99,-189.5"/>
</g>
<!-- Node3 -->
<g id="node3" class="node">
<title>Node3</title>
<g id="a_node3"><a xlink:href="IPresenter_8hpp.xhtml" target="_top" xlink:title=" ">
<polygon fill="white" stroke="black" points="161.77,-224.5 161.77,-243.5 247.77,-243.5 247.77,-224.5 161.77,-224.5"/>
<text text-anchor="middle" x="204.77" y="-231.5" font-family="Helvetica,sans-Serif" font-size="10.00">IPresenter.hpp</text>
</a>
</g>
</g>
<!-- Node2&#45;&gt;Node3 -->
<g id="edge2" class="edge">
<title>Node2&#45;&gt;Node3</title>
<path fill="none" stroke="midnightblue" d="M204.77,-280.08C204.77,-273.01 204.77,-262.86 204.77,-253.99"/>
<polygon fill="midnightblue" stroke="midnightblue" points="208.27,-253.75 204.77,-243.75 201.27,-253.75 208.27,-253.75"/>
</g>
<!-- Node5 -->
<g id="node5" class="node">
<title>Node5</title>
<g id="a_node5"><a xlink:href="IStatusIndicator_8hpp.xhtml" target="_top" xlink:title=" ">
<polygon fill="white" stroke="black" points="30.27,-224.5 30.27,-243.5 143.27,-243.5 143.27,-224.5 30.27,-224.5"/>
<text text-anchor="middle" x="86.77" y="-231.5" font-family="Helvetica,sans-Serif" font-size="10.00">IStatusIndicator.hpp</text>
</a>
</g>
</g>
<!-- Node2&#45;&gt;Node5 -->
<g id="edge4" class="edge">
<title>Node2&#45;&gt;Node5</title>
<path fill="none" stroke="midnightblue" d="M186.07,-280.44C166.82,-271.64 136.62,-257.81 114.57,-247.72"/>
<polygon fill="midnightblue" stroke="midnightblue" points="115.93,-244.5 105.38,-243.52 113.01,-250.86 115.93,-244.5"/>
</g>
<!-- Node6 -->
<g id="node6" class="node">
<title>Node6</title>
<g id="a_node6"><a xlink:href="Menu_8hpp.xhtml" target="_top" xlink:title=" ">
<polygon fill="white" stroke="black" points="304.27,-224.5 304.27,-243.5 369.27,-243.5 369.27,-224.5 304.27,-224.5"/>
<text text-anchor="middle" x="336.77" y="-231.5" font-family="Helvetica,sans-Serif" font-size="10.00">Menu.hpp</text>
</a>
</g>
</g>
<!-- Node2&#45;&gt;Node6 -->
<g id="edge5" class="edge">
<title>Node2&#45;&gt;Node6</title>
<path fill="none" stroke="midnightblue" d="M225.68,-280.44C247.5,-271.52 281.92,-257.44 306.66,-247.32"/>
<polygon fill="midnightblue" stroke="midnightblue" points="308.02,-250.54 315.95,-243.52 305.37,-244.06 308.02,-250.54"/>
</g>
<!-- Node11 -->
<g id="node11" class="node">
<title>Node11</title>
<g id="a_node11"><a xlink:title=" ">
<polygon fill="white" stroke="#bfbfbf" points="1.27,-56.5 1.27,-75.5 48.27,-75.5 48.27,-56.5 1.27,-56.5"/>
<text text-anchor="middle" x="24.77" y="-63.5" font-family="Helvetica,sans-Serif" font-size="10.00">vector</text>
</a>
</g>
</g>
<!-- Node2&#45;&gt;Node11 -->
<g id="edge16" class="edge">
<title>Node2&#45;&gt;Node11</title>
<path fill="none" stroke="midnightblue" d="M163.13,-284.73C114.39,-278.77 38.13,-266.12 20.77,-244 -15.88,-197.31 5.04,-120.35 17.53,-85.35"/>
<polygon fill="midnightblue" stroke="midnightblue" points="20.97,-86.14 21.2,-75.55 14.41,-83.68 20.97,-86.14"/>
</g>
<!-- Node4 -->
<g id="node4" class="node">
<title>Node4</title>
<g id="a_node4"><a xlink:title=" ">
<polygon fill="white" stroke="#bfbfbf" points="77.27,-168.5 77.27,-187.5 130.27,-187.5 130.27,-168.5 77.27,-168.5"/>
<text text-anchor="middle" x="103.77" y="-175.5" font-family="Helvetica,sans-Serif" font-size="10.00">cstddef</text>
</a>
</g>
</g>
<!-- Node3&#45;&gt;Node4 -->
<g id="edge3" class="edge">
<title>Node3&#45;&gt;Node4</title>
<path fill="none" stroke="midnightblue" d="M188.54,-224.32C172.42,-215.7 147.47,-202.36 128.8,-192.39"/>
<polygon fill="midnightblue" stroke="midnightblue" points="130.42,-189.28 119.96,-187.65 127.12,-195.46 130.42,-189.28"/>
</g>
<!-- Node7 -->
<g id="node7" class="node">
<title>Node7</title>
<g id="a_node7"><a xlink:href="IGuiEngine_8hpp.xhtml" target="_top" xlink:title=" ">
<polygon fill="white" stroke="black" points="239.77,-168.5 239.77,-187.5 329.77,-187.5 329.77,-168.5 239.77,-168.5"/>
<text text-anchor="middle" x="284.77" y="-175.5" font-family="Helvetica,sans-Serif" font-size="10.00">IGuiEngine.hpp</text>
</a>
</g>
</g>
<!-- Node6&#45;&gt;Node7 -->
<g id="edge6" class="edge">
<title>Node6&#45;&gt;Node7</title>
<path fill="none" stroke="midnightblue" d="M328.18,-224.08C320.61,-216.22 309.39,-204.57 300.25,-195.08"/>
<polygon fill="midnightblue" stroke="midnightblue" points="302.65,-192.53 293.19,-187.75 297.61,-197.38 302.65,-192.53"/>
</g>
<!-- Node12 -->
<g id="node12" class="node">
<title>Node12</title>
<g id="a_node12"><a xlink:href="IKeypad_8hpp.xhtml" target="_top" xlink:title=" ">
<polygon fill="white" stroke="black" points="211.77,-112.5 211.77,-131.5 369.77,-131.5 369.77,-112.5 211.77,-112.5"/>
<text text-anchor="middle" x="290.77" y="-119.5" font-family="Helvetica,sans-Serif" font-size="10.00">user_interaction/IKeypad.hpp</text>
</a>
</g>
</g>
<!-- Node6&#45;&gt;Node12 -->
<g id="edge15" class="edge">
<title>Node6&#45;&gt;Node12</title>
<path fill="none" stroke="midnightblue" d="M339.33,-224.15C342.58,-211.21 346.85,-186.65 338.77,-168 333.5,-155.84 323.15,-145.46 313.4,-137.74"/>
<polygon fill="midnightblue" stroke="midnightblue" points="315.27,-134.77 305.14,-131.67 311.12,-140.41 315.27,-134.77"/>
</g>
<!-- Node8 -->
<g id="node8" class="node">
<title>Node8</title>
<g id="a_node8"><a xlink:href="MenuItem_8hpp.xhtml" target="_top" xlink:title=" ">
<polygon fill="white" stroke="black" points="68.27,-112.5 68.27,-131.5 155.27,-131.5 155.27,-112.5 68.27,-112.5"/>
<text text-anchor="middle" x="111.77" y="-119.5" font-family="Helvetica,sans-Serif" font-size="10.00">MenuItem.hpp</text>
</a>
</g>
</g>
<!-- Node7&#45;&gt;Node8 -->
<g id="edge7" class="edge">
<title>Node7&#45;&gt;Node8</title>
<path fill="none" stroke="midnightblue" d="M257.36,-168.44C228,-159.28 181.25,-144.69 148.67,-134.52"/>
<polygon fill="midnightblue" stroke="midnightblue" points="149.64,-131.16 139.05,-131.52 147.55,-137.84 149.64,-131.16"/>
</g>
<!-- Node7&#45;&gt;Node12 -->
<g id="edge11" class="edge">
<title>Node7&#45;&gt;Node12</title>
<path fill="none" stroke="midnightblue" d="M285.76,-168.08C286.55,-160.93 287.7,-150.64 288.69,-141.69"/>
<polygon fill="midnightblue" stroke="midnightblue" points="292.17,-142.08 289.8,-131.75 285.21,-141.3 292.17,-142.08"/>
</g>
<!-- Node9 -->
<g id="node9" class="node">
<title>Node9</title>
<g id="a_node9"><a xlink:title=" ">
<polygon fill="white" stroke="#bfbfbf" points="155.77,-56.5 155.77,-75.5 205.77,-75.5 205.77,-56.5 155.77,-56.5"/>
<text text-anchor="middle" x="180.77" y="-63.5" font-family="Helvetica,sans-Serif" font-size="10.00">cstdint</text>
</a>
</g>
</g>
<!-- Node8&#45;&gt;Node9 -->
<g id="edge8" class="edge">
<title>Node8&#45;&gt;Node9</title>
<path fill="none" stroke="midnightblue" d="M122.85,-112.32C133.25,-104.18 149.03,-91.84 161.49,-82.09"/>
<polygon fill="midnightblue" stroke="midnightblue" points="163.76,-84.75 169.48,-75.83 159.45,-79.24 163.76,-84.75"/>
</g>
<!-- Node10 -->
<g id="node10" class="node">
<title>Node10</title>
<g id="a_node10"><a xlink:title=" ">
<polygon fill="white" stroke="#bfbfbf" points="89.77,-56.5 89.77,-75.5 133.77,-75.5 133.77,-56.5 89.77,-56.5"/>
<text text-anchor="middle" x="111.77" y="-63.5" font-family="Helvetica,sans-Serif" font-size="10.00">string</text>
</a>
</g>
</g>
<!-- Node8&#45;&gt;Node10 -->
<g id="edge9" class="edge">
<title>Node8&#45;&gt;Node10</title>
<path fill="none" stroke="midnightblue" d="M111.77,-112.08C111.77,-105.01 111.77,-94.86 111.77,-85.99"/>
<polygon fill="midnightblue" stroke="midnightblue" points="115.27,-85.75 111.77,-75.75 108.27,-85.75 115.27,-85.75"/>
</g>
<!-- Node8&#45;&gt;Node11 -->
<g id="edge10" class="edge">
<title>Node8&#45;&gt;Node11</title>
<path fill="none" stroke="midnightblue" d="M97.79,-112.32C84.22,-103.9 63.39,-90.97 47.44,-81.07"/>
<polygon fill="midnightblue" stroke="midnightblue" points="49.05,-77.95 38.71,-75.65 45.36,-83.9 49.05,-77.95"/>
</g>
<!-- Node13 -->
<g id="node13" class="node">
<title>Node13</title>
<g id="a_node13"><a xlink:href="KeyIds_8hpp.xhtml" target="_top" xlink:title=" ">
<polygon fill="white" stroke="black" points="270.77,-56.5 270.77,-75.5 340.77,-75.5 340.77,-56.5 270.77,-56.5"/>
<text text-anchor="middle" x="305.77" y="-63.5" font-family="Helvetica,sans-Serif" font-size="10.00">KeyIds.hpp</text>
</a>
</g>
</g>
<!-- Node12&#45;&gt;Node13 -->
<g id="edge12" class="edge">
<title>Node12&#45;&gt;Node13</title>
<path fill="none" stroke="midnightblue" d="M293.24,-112.08C295.25,-104.85 298.15,-94.41 300.66,-85.4"/>
<polygon fill="midnightblue" stroke="midnightblue" points="304.03,-86.32 303.34,-75.75 297.29,-84.45 304.03,-86.32"/>
</g>
<!-- Node15 -->
<g id="node15" class="node">
<title>Node15</title>
<g id="a_node15"><a xlink:title=" ">
<polygon fill="white" stroke="#bfbfbf" points="388.27,-56.5 388.27,-75.5 453.27,-75.5 453.27,-56.5 388.27,-56.5"/>
<text text-anchor="middle" x="420.77" y="-63.5" font-family="Helvetica,sans-Serif" font-size="10.00">functional</text>
</a>
</g>
</g>
<!-- Node12&#45;&gt;Node15 -->
<g id="edge14" class="edge">
<title>Node12&#45;&gt;Node15</title>
<path fill="none" stroke="midnightblue" d="M311.37,-112.44C332.76,-103.56 366.45,-89.56 390.79,-79.45"/>
<polygon fill="midnightblue" stroke="midnightblue" points="392.37,-82.58 400.27,-75.52 389.69,-76.12 392.37,-82.58"/>
</g>
<!-- Node14 -->
<g id="node14" class="node">
<title>Node14</title>
<g id="a_node14"><a xlink:title=" ">
<polygon fill="white" stroke="#bfbfbf" points="277.27,-0.5 277.27,-19.5 334.27,-19.5 334.27,-0.5 277.27,-0.5"/>
<text text-anchor="middle" x="305.77" y="-7.5" font-family="Helvetica,sans-Serif" font-size="10.00">ostream</text>
</a>
</g>
</g>
<!-- Node13&#45;&gt;Node14 -->
<g id="edge13" class="edge">
<title>Node13&#45;&gt;Node14</title>
<path fill="none" stroke="midnightblue" d="M305.77,-56.08C305.77,-49.01 305.77,-38.86 305.77,-29.99"/>
<polygon fill="midnightblue" stroke="midnightblue" points="309.27,-29.75 305.77,-19.75 302.27,-29.75 309.27,-29.75"/>
</g>
<!-- Node16&#45;&gt;Node13 -->
<g id="edge18" class="edge">
<title>Node16&#45;&gt;Node13</title>
<path fill="none" stroke="midnightblue" d="M402.13,-280.39C405.97,-253.17 414.42,-167.49 378.77,-112 369.53,-97.61 353.89,-87.08 339.45,-79.84"/>
<polygon fill="midnightblue" stroke="midnightblue" points="340.75,-76.58 330.21,-75.54 337.8,-82.93 340.75,-76.58"/>
</g>
<!-- Node16&#45;&gt;Node15 -->
<g id="edge20" class="edge">
<title>Node16&#45;&gt;Node15</title>
<path fill="none" stroke="midnightblue" d="M403.37,-280.47C405.98,-271.49 409.88,-256.89 411.77,-244 420.14,-186.79 421.07,-118.19 420.97,-85.76"/>
<polygon fill="midnightblue" stroke="midnightblue" points="424.47,-85.51 420.9,-75.53 417.47,-85.55 424.47,-85.51"/>
</g>
<!-- Node16&#45;&gt;Node17 -->
<g id="edge19" class="edge">
<title>Node16&#45;&gt;Node17</title>
<path fill="none" stroke="midnightblue" d="M414.91,-280.32C428.63,-271.9 449.7,-258.97 465.83,-249.07"/>
<polygon fill="midnightblue" stroke="midnightblue" points="467.97,-251.87 474.66,-243.65 464.31,-245.9 467.97,-251.87"/>
</g>
<!-- Node20&#45;&gt;Node9 -->
<g id="edge25" class="edge">
<title>Node20&#45;&gt;Node9</title>
<path fill="none" stroke="midnightblue" d="M184.45,-168.37C183.81,-150.62 182.32,-109.67 181.44,-85.6"/>
<polygon fill="midnightblue" stroke="midnightblue" points="184.94,-85.46 181.08,-75.59 177.95,-85.71 184.94,-85.46"/>
</g>
</g>
</svg>
