<?xml version="1.0" encoding="UTF-8" standalone="no"?>
<!DOCTYPE svg PUBLIC "-//W3C//DTD SVG 1.1//EN"
 "http://www.w3.org/Graphics/SVG/1.1/DTD/svg11.dtd">
<!-- Generated by graphviz version 2.43.0 (0)
 -->
<!-- Title: lib/application_business_rules/user_interaction/ProcessHmiInputs.cpp Pages: 1 -->
<svg width="943pt" height="229pt"
 viewBox="0.00 0.00 942.50 229.00" xmlns="http://www.w3.org/2000/svg" xmlns:xlink="http://www.w3.org/1999/xlink">
<g id="graph0" class="graph" transform="scale(1 1) rotate(0) translate(4 225)">
<title>lib/application_business_rules/user_interaction/ProcessHmiInputs.cpp</title>
<polygon fill="white" stroke="transparent" points="-4,4 -4,-225 938.5,-225 938.5,4 -4,4"/>
<!-- Node1 -->
<g id="node1" class="node">
<title>Node1</title>
<g id="a_node1"><a xlink:title=" ">
<polygon fill="#bfbfbf" stroke="black" points="402.5,-179.5 402.5,-220.5 536.5,-220.5 536.5,-179.5 402.5,-179.5"/>
<text text-anchor="start" x="410.5" y="-208.5" font-family="Helvetica,sans-Serif" font-size="10.00">lib/application_business</text>
<text text-anchor="start" x="410.5" y="-197.5" font-family="Helvetica,sans-Serif" font-size="10.00">_rules/user_interaction</text>
<text text-anchor="middle" x="469.5" y="-186.5" font-family="Helvetica,sans-Serif" font-size="10.00">/ProcessHmiInputs.cpp</text>
</a>
</g>
</g>
<!-- Node2 -->
<g id="node2" class="node">
<title>Node2</title>
<g id="a_node2"><a xlink:href="ProcessHmiInputs_8hpp.xhtml" target="_top" xlink:title=" ">
<polygon fill="white" stroke="black" points="0,-118 0,-137 125,-137 125,-118 0,-118"/>
<text text-anchor="middle" x="62.5" y="-125" font-family="Helvetica,sans-Serif" font-size="10.00">ProcessHmiInputs.hpp</text>
</a>
</g>
</g>
<!-- Node1&#45;&gt;Node2 -->
<g id="edge1" class="edge">
<title>Node1&#45;&gt;Node2</title>
<path fill="none" stroke="midnightblue" d="M402.44,-188.56C334.53,-177.81 226.54,-160.25 133.5,-143 126.85,-141.77 119.86,-140.41 112.97,-139.04"/>
<polygon fill="midnightblue" stroke="midnightblue" points="113.49,-135.58 103,-137.04 112.11,-142.44 113.49,-135.58"/>
</g>
<!-- Node5 -->
<g id="node5" class="node">
<title>Node5</title>
<g id="a_node5"><a xlink:href="IKeypad_8hpp.xhtml" target="_top" xlink:title=" ">
<polygon fill="white" stroke="black" points="143,-118 143,-137 220,-137 220,-118 143,-118"/>
<text text-anchor="middle" x="181.5" y="-125" font-family="Helvetica,sans-Serif" font-size="10.00">IKeypad.hpp</text>
</a>
</g>
</g>
<!-- Node1&#45;&gt;Node5 -->
<g id="edge4" class="edge">
<title>Node1&#45;&gt;Node5</title>
<path fill="none" stroke="midnightblue" d="M402.25,-183.6C355.17,-172.66 290.88,-157.42 234.5,-143 230.39,-141.95 226.12,-140.83 221.85,-139.69"/>
<polygon fill="midnightblue" stroke="midnightblue" points="222.57,-136.26 212,-137.03 220.75,-143.02 222.57,-136.26"/>
</g>
<!-- Node6 -->
<g id="node6" class="node">
<title>Node6</title>
<g id="a_node6"><a xlink:title=" ">
<polygon fill="white" stroke="#bfbfbf" points="233,-56.5 233,-75.5 298,-75.5 298,-56.5 233,-56.5"/>
<text text-anchor="middle" x="265.5" y="-63.5" font-family="Helvetica,sans-Serif" font-size="10.00">functional</text>
</a>
</g>
</g>
<!-- Node1&#45;&gt;Node6 -->
<g id="edge13" class="edge">
<title>Node1&#45;&gt;Node6</title>
<path fill="none" stroke="midnightblue" d="M402.4,-189.12C350.33,-179.93 284.25,-164.43 267.5,-143 254.83,-126.79 256.85,-102.15 260.36,-85.35"/>
<polygon fill="midnightblue" stroke="midnightblue" points="263.77,-86.16 262.75,-75.61 256.97,-84.49 263.77,-86.16"/>
</g>
<!-- Node7 -->
<g id="node7" class="node">
<title>Node7</title>
<g id="a_node7"><a xlink:href="IPresenter_8hpp.xhtml" target="_top" xlink:title=" ">
<polygon fill="white" stroke="black" points="656.5,-118 656.5,-137 742.5,-137 742.5,-118 656.5,-118"/>
<text text-anchor="middle" x="699.5" y="-125" font-family="Helvetica,sans-Serif" font-size="10.00">IPresenter.hpp</text>
</a>
</g>
</g>
<!-- Node1&#45;&gt;Node7 -->
<g id="edge7" class="edge">
<title>Node1&#45;&gt;Node7</title>
<path fill="none" stroke="midnightblue" d="M533.26,-179.46C574.64,-166.77 627.15,-150.68 661.96,-140.01"/>
<polygon fill="midnightblue" stroke="midnightblue" points="663.19,-143.29 671.73,-137.01 661.14,-136.6 663.19,-143.29"/>
</g>
<!-- Node9 -->
<g id="node9" class="node">
<title>Node9</title>
<g id="a_node9"><a xlink:href="board__interface_8hpp.xhtml" target="_top" xlink:title=" ">
<polygon fill="white" stroke="black" points="276.5,-118 276.5,-137 390.5,-137 390.5,-118 276.5,-118"/>
<text text-anchor="middle" x="333.5" y="-125" font-family="Helvetica,sans-Serif" font-size="10.00">board_interface.hpp</text>
</a>
</g>
</g>
<!-- Node1&#45;&gt;Node9 -->
<g id="edge9" class="edge">
<title>Node1&#45;&gt;Node9</title>
<path fill="none" stroke="midnightblue" d="M431.62,-179.36C408.55,-167.4 379.68,-152.44 359.25,-141.85"/>
<polygon fill="midnightblue" stroke="midnightblue" points="360.72,-138.67 350.23,-137.17 357.5,-144.88 360.72,-138.67"/>
</g>
<!-- Node11 -->
<g id="node11" class="node">
<title>Node11</title>
<g id="a_node11"><a xlink:href="serial__port_8hpp.xhtml" target="_top" xlink:title=" ">
<polygon fill="white" stroke="black" points="408.5,-112.5 408.5,-142.5 530.5,-142.5 530.5,-112.5 408.5,-112.5"/>
<text text-anchor="start" x="416.5" y="-130.5" font-family="Helvetica,sans-Serif" font-size="10.00">serial_interface/serial</text>
<text text-anchor="middle" x="469.5" y="-119.5" font-family="Helvetica,sans-Serif" font-size="10.00">_port.hpp</text>
</a>
</g>
</g>
<!-- Node1&#45;&gt;Node11 -->
<g id="edge14" class="edge">
<title>Node1&#45;&gt;Node11</title>
<path fill="none" stroke="midnightblue" d="M469.5,-179.36C469.5,-171.23 469.5,-161.7 469.5,-153.11"/>
<polygon fill="midnightblue" stroke="midnightblue" points="473,-152.89 469.5,-142.89 466,-152.89 473,-152.89"/>
</g>
<!-- Node15 -->
<g id="node15" class="node">
<title>Node15</title>
<g id="a_node15"><a xlink:title=" ">
<polygon fill="white" stroke="#bfbfbf" points="761,-118 761,-137 826,-137 826,-118 761,-118"/>
<text text-anchor="middle" x="793.5" y="-125" font-family="Helvetica,sans-Serif" font-size="10.00">stdexcept</text>
</a>
</g>
</g>
<!-- Node1&#45;&gt;Node15 -->
<g id="edge20" class="edge">
<title>Node1&#45;&gt;Node15</title>
<path fill="none" stroke="midnightblue" d="M536.76,-188.3C594.27,-178.52 678.99,-162.62 751.5,-143 754.53,-142.18 757.66,-141.25 760.78,-140.28"/>
<polygon fill="midnightblue" stroke="midnightblue" points="762.17,-143.5 770.57,-137.05 759.98,-136.86 762.17,-143.5"/>
</g>
<!-- Node16 -->
<g id="node16" class="node">
<title>Node16</title>
<g id="a_node16"><a xlink:href="Task_8hpp.xhtml" target="_top" xlink:title=" ">
<polygon fill="white" stroke="black" points="549,-118 549,-137 638,-137 638,-118 549,-118"/>
<text text-anchor="middle" x="593.5" y="-125" font-family="Helvetica,sans-Serif" font-size="10.00">tasks/Task.hpp</text>
</a>
</g>
</g>
<!-- Node1&#45;&gt;Node16 -->
<g id="edge21" class="edge">
<title>Node1&#45;&gt;Node16</title>
<path fill="none" stroke="midnightblue" d="M504.04,-179.36C524.88,-167.51 550.92,-152.71 569.52,-142.14"/>
<polygon fill="midnightblue" stroke="midnightblue" points="571.28,-145.16 578.24,-137.17 567.82,-139.07 571.28,-145.16"/>
</g>
<!-- Node18 -->
<g id="node18" class="node">
<title>Node18</title>
<g id="a_node18"><a xlink:href="type__traits_8hpp.xhtml" target="_top" xlink:title=" ">
<polygon fill="white" stroke="black" points="844.5,-118 844.5,-137 934.5,-137 934.5,-118 844.5,-118"/>
<text text-anchor="middle" x="889.5" y="-125" font-family="Helvetica,sans-Serif" font-size="10.00">type_traits.hpp</text>
</a>
</g>
</g>
<!-- Node1&#45;&gt;Node18 -->
<g id="edge25" class="edge">
<title>Node1&#45;&gt;Node18</title>
<path fill="none" stroke="midnightblue" d="M536.69,-190.98C610.4,-181.66 732.02,-164.74 835.5,-143 840.24,-142 845.18,-140.85 850.07,-139.63"/>
<polygon fill="midnightblue" stroke="midnightblue" points="851.13,-142.97 859.93,-137.07 849.37,-136.19 851.13,-142.97"/>
</g>
<!-- Node3 -->
<g id="node3" class="node">
<title>Node3</title>
<g id="a_node3"><a xlink:href="KeyIds_8hpp.xhtml" target="_top" xlink:title=" ">
<polygon fill="white" stroke="black" points="144.5,-56.5 144.5,-75.5 214.5,-75.5 214.5,-56.5 144.5,-56.5"/>
<text text-anchor="middle" x="179.5" y="-63.5" font-family="Helvetica,sans-Serif" font-size="10.00">KeyIds.hpp</text>
</a>
</g>
</g>
<!-- Node2&#45;&gt;Node3 -->
<g id="edge2" class="edge">
<title>Node2&#45;&gt;Node3</title>
<path fill="none" stroke="midnightblue" d="M79.26,-117.98C98.72,-108.08 131.05,-91.64 153.71,-80.12"/>
<polygon fill="midnightblue" stroke="midnightblue" points="155.44,-83.16 162.77,-75.51 152.27,-76.92 155.44,-83.16"/>
</g>
<!-- Node4 -->
<g id="node4" class="node">
<title>Node4</title>
<g id="a_node4"><a xlink:title=" ">
<polygon fill="white" stroke="#bfbfbf" points="325,-0.5 325,-19.5 382,-19.5 382,-0.5 325,-0.5"/>
<text text-anchor="middle" x="353.5" y="-7.5" font-family="Helvetica,sans-Serif" font-size="10.00">ostream</text>
</a>
</g>
</g>
<!-- Node3&#45;&gt;Node4 -->
<g id="edge3" class="edge">
<title>Node3&#45;&gt;Node4</title>
<path fill="none" stroke="midnightblue" d="M207.07,-56.44C236.6,-47.28 283.62,-32.69 316.38,-22.52"/>
<polygon fill="midnightblue" stroke="midnightblue" points="317.54,-25.82 326.06,-19.52 315.47,-19.14 317.54,-25.82"/>
</g>
<!-- Node5&#45;&gt;Node3 -->
<g id="edge5" class="edge">
<title>Node5&#45;&gt;Node3</title>
<path fill="none" stroke="midnightblue" d="M181.21,-117.98C180.93,-109.58 180.49,-96.48 180.13,-85.66"/>
<polygon fill="midnightblue" stroke="midnightblue" points="183.62,-85.39 179.79,-75.51 176.62,-85.62 183.62,-85.39"/>
</g>
<!-- Node5&#45;&gt;Node6 -->
<g id="edge6" class="edge">
<title>Node5&#45;&gt;Node6</title>
<path fill="none" stroke="midnightblue" d="M193.54,-117.98C207.01,-108.43 229.07,-92.81 245.22,-81.37"/>
<polygon fill="midnightblue" stroke="midnightblue" points="247.35,-84.15 253.49,-75.51 243.3,-78.43 247.35,-84.15"/>
</g>
<!-- Node8 -->
<g id="node8" class="node">
<title>Node8</title>
<g id="a_node8"><a xlink:title=" ">
<polygon fill="white" stroke="#bfbfbf" points="675,-56.5 675,-75.5 728,-75.5 728,-56.5 675,-56.5"/>
<text text-anchor="middle" x="701.5" y="-63.5" font-family="Helvetica,sans-Serif" font-size="10.00">cstddef</text>
</a>
</g>
</g>
<!-- Node7&#45;&gt;Node8 -->
<g id="edge8" class="edge">
<title>Node7&#45;&gt;Node8</title>
<path fill="none" stroke="midnightblue" d="M699.79,-117.98C700.07,-109.58 700.51,-96.48 700.87,-85.66"/>
<polygon fill="midnightblue" stroke="midnightblue" points="704.38,-85.62 701.21,-75.51 697.38,-85.39 704.38,-85.62"/>
</g>
<!-- Node9&#45;&gt;Node3 -->
<g id="edge10" class="edge">
<title>Node9&#45;&gt;Node3</title>
<path fill="none" stroke="midnightblue" d="M311.44,-117.98C285.13,-107.81 240.99,-90.76 211.08,-79.2"/>
<polygon fill="midnightblue" stroke="midnightblue" points="212.11,-75.85 201.52,-75.51 209.59,-82.38 212.11,-75.85"/>
</g>
<!-- Node9&#45;&gt;Node6 -->
<g id="edge12" class="edge">
<title>Node9&#45;&gt;Node6</title>
<path fill="none" stroke="midnightblue" d="M323.76,-117.98C313.15,-108.7 295.98,-93.67 283.02,-82.33"/>
<polygon fill="midnightblue" stroke="midnightblue" points="285.06,-79.46 275.22,-75.51 280.45,-84.73 285.06,-79.46"/>
</g>
<!-- Node10 -->
<g id="node10" class="node">
<title>Node10</title>
<g id="a_node10"><a xlink:title=" ">
<polygon fill="white" stroke="#bfbfbf" points="450.5,-56.5 450.5,-75.5 500.5,-75.5 500.5,-56.5 450.5,-56.5"/>
<text text-anchor="middle" x="475.5" y="-63.5" font-family="Helvetica,sans-Serif" font-size="10.00">chrono</text>
</a>
</g>
</g>
<!-- Node9&#45;&gt;Node10 -->
<g id="edge11" class="edge">
<title>Node9&#45;&gt;Node10</title>
<path fill="none" stroke="midnightblue" d="M353.85,-117.98C377.89,-107.9 418.1,-91.05 445.66,-79.5"/>
<polygon fill="midnightblue" stroke="midnightblue" points="447.32,-82.6 455.19,-75.51 444.62,-76.15 447.32,-82.6"/>
</g>
<!-- Node11&#45;&gt;Node4 -->
<g id="edge18" class="edge">
<title>Node11&#45;&gt;Node4</title>
<path fill="none" stroke="midnightblue" d="M487.26,-112.33C503.55,-97.61 523.21,-74.22 509.5,-56 495.4,-37.26 433.72,-23.87 392.27,-16.79"/>
<polygon fill="midnightblue" stroke="midnightblue" points="392.65,-13.31 382.21,-15.13 391.51,-20.21 392.65,-13.31"/>
</g>
<!-- Node11&#45;&gt;Node6 -->
<g id="edge16" class="edge">
<title>Node11&#45;&gt;Node6</title>
<path fill="none" stroke="midnightblue" d="M421.41,-112.47C385.76,-102.08 337.77,-88.08 304.49,-78.37"/>
<polygon fill="midnightblue" stroke="midnightblue" points="305.24,-74.95 294.66,-75.51 303.28,-81.67 305.24,-74.95"/>
</g>
<!-- Node12 -->
<g id="node12" class="node">
<title>Node12</title>
<g id="a_node12"><a xlink:title=" ">
<polygon fill="white" stroke="#bfbfbf" points="316.5,-56.5 316.5,-75.5 358.5,-75.5 358.5,-56.5 316.5,-56.5"/>
<text text-anchor="middle" x="337.5" y="-63.5" font-family="Helvetica,sans-Serif" font-size="10.00">array</text>
</a>
</g>
</g>
<!-- Node11&#45;&gt;Node12 -->
<g id="edge15" class="edge">
<title>Node11&#45;&gt;Node12</title>
<path fill="none" stroke="midnightblue" d="M438.22,-112.4C416.27,-102.51 387.16,-89.38 365.88,-79.79"/>
<polygon fill="midnightblue" stroke="midnightblue" points="367.26,-76.58 356.71,-75.66 364.39,-82.96 367.26,-76.58"/>
</g>
<!-- Node13 -->
<g id="node13" class="node">
<title>Node13</title>
<g id="a_node13"><a xlink:title=" ">
<polygon fill="white" stroke="#bfbfbf" points="376.5,-56.5 376.5,-75.5 432.5,-75.5 432.5,-56.5 376.5,-56.5"/>
<text text-anchor="middle" x="404.5" y="-63.5" font-family="Helvetica,sans-Serif" font-size="10.00">optional</text>
</a>
</g>
</g>
<!-- Node11&#45;&gt;Node13 -->
<g id="edge17" class="edge">
<title>Node11&#45;&gt;Node13</title>
<path fill="none" stroke="midnightblue" d="M454.1,-112.4C444.26,-103.4 431.51,-91.72 421.39,-82.47"/>
<polygon fill="midnightblue" stroke="midnightblue" points="423.7,-79.83 413.96,-75.66 418.97,-84.99 423.7,-79.83"/>
</g>
<!-- Node14 -->
<g id="node14" class="node">
<title>Node14</title>
<g id="a_node14"><a xlink:title=" ">
<polygon fill="white" stroke="#bfbfbf" points="556.5,-56.5 556.5,-75.5 600.5,-75.5 600.5,-56.5 556.5,-56.5"/>
<text text-anchor="middle" x="578.5" y="-63.5" font-family="Helvetica,sans-Serif" font-size="10.00">string</text>
</a>
</g>
</g>
<!-- Node11&#45;&gt;Node14 -->
<g id="edge19" class="edge">
<title>Node11&#45;&gt;Node14</title>
<path fill="none" stroke="midnightblue" d="M495.33,-112.4C512.97,-102.77 536.2,-90.09 553.63,-80.58"/>
<polygon fill="midnightblue" stroke="midnightblue" points="555.54,-83.52 562.64,-75.66 552.19,-77.38 555.54,-83.52"/>
</g>
<!-- Node16&#45;&gt;Node10 -->
<g id="edge22" class="edge">
<title>Node16&#45;&gt;Node10</title>
<path fill="none" stroke="midnightblue" d="M576.59,-117.98C556.97,-108.08 524.37,-91.64 501.51,-80.12"/>
<polygon fill="midnightblue" stroke="midnightblue" points="502.88,-76.89 492.38,-75.51 499.73,-83.14 502.88,-76.89"/>
</g>
<!-- Node16&#45;&gt;Node14 -->
<g id="edge24" class="edge">
<title>Node16&#45;&gt;Node14</title>
<path fill="none" stroke="midnightblue" d="M591.35,-117.98C589.21,-109.49 585.86,-96.2 583.12,-85.32"/>
<polygon fill="midnightblue" stroke="midnightblue" points="586.48,-84.35 580.65,-75.51 579.7,-86.06 586.48,-84.35"/>
</g>
<!-- Node17 -->
<g id="node17" class="node">
<title>Node17</title>
<g id="a_node17"><a xlink:title=" ">
<polygon fill="white" stroke="#bfbfbf" points="618.5,-56.5 618.5,-75.5 656.5,-75.5 656.5,-56.5 618.5,-56.5"/>
<text text-anchor="middle" x="637.5" y="-63.5" font-family="Helvetica,sans-Serif" font-size="10.00">map</text>
</a>
</g>
</g>
<!-- Node16&#45;&gt;Node17 -->
<g id="edge23" class="edge">
<title>Node16&#45;&gt;Node17</title>
<path fill="none" stroke="midnightblue" d="M599.8,-117.98C606.4,-109.05 616.94,-94.81 625.19,-83.64"/>
<polygon fill="midnightblue" stroke="midnightblue" points="628.08,-85.63 631.21,-75.51 622.45,-81.47 628.08,-85.63"/>
</g>
<!-- Node19 -->
<g id="node19" class="node">
<title>Node19</title>
<g id="a_node19"><a xlink:title=" ">
<polygon fill="white" stroke="#bfbfbf" points="855,-56.5 855,-75.5 924,-75.5 924,-56.5 855,-56.5"/>
<text text-anchor="middle" x="889.5" y="-63.5" font-family="Helvetica,sans-Serif" font-size="10.00">type_traits</text>
</a>
</g>
</g>
<!-- Node18&#45;&gt;Node19 -->
<g id="edge26" class="edge">
<title>Node18&#45;&gt;Node19</title>
<path fill="none" stroke="midnightblue" d="M889.5,-117.98C889.5,-109.58 889.5,-96.48 889.5,-85.66"/>
<polygon fill="midnightblue" stroke="midnightblue" points="893,-85.51 889.5,-75.51 886,-85.51 893,-85.51"/>
</g>
</g>
</svg>
