<?xml version="1.0" encoding="UTF-8" standalone="no"?>
<!DOCTYPE svg PUBLIC "-//W3C//DTD SVG 1.1//EN"
 "http://www.w3.org/Graphics/SVG/1.1/DTD/svg11.dtd">
<!-- Generated by graphviz version 2.43.0 (0)
 -->
<!-- Title: lib/application_business_rules/serial_interface/Protocol.cpp Pages: 1 -->
<svg width="1221pt" height="229pt"
 viewBox="0.00 0.00 1220.50 229.00" xmlns="http://www.w3.org/2000/svg" xmlns:xlink="http://www.w3.org/1999/xlink">
<g id="graph0" class="graph" transform="scale(1 1) rotate(0) translate(4 225)">
<title>lib/application_business_rules/serial_interface/Protocol.cpp</title>
<polygon fill="white" stroke="transparent" points="-4,4 -4,-225 1216.5,-225 1216.5,4 -4,4"/>
<!-- Node1 -->
<g id="node1" class="node">
<title>Node1</title>
<g id="a_node1"><a xlink:title=" ">
<polygon fill="#bfbfbf" stroke="black" points="647,-179.5 647,-220.5 781,-220.5 781,-179.5 647,-179.5"/>
<text text-anchor="start" x="655" y="-208.5" font-family="Helvetica,sans-Serif" font-size="10.00">lib/application_business</text>
<text text-anchor="start" x="655" y="-197.5" font-family="Helvetica,sans-Serif" font-size="10.00">_rules/serial_interface</text>
<text text-anchor="middle" x="714" y="-186.5" font-family="Helvetica,sans-Serif" font-size="10.00">/Protocol.cpp</text>
</a>
</g>
</g>
<!-- Node2 -->
<g id="node2" class="node">
<title>Node2</title>
<g id="a_node2"><a xlink:href="Protocol_8hpp.xhtml" target="_top" xlink:title=" ">
<polygon fill="white" stroke="black" points="155.5,-118 155.5,-137 232.5,-137 232.5,-118 155.5,-118"/>
<text text-anchor="middle" x="194" y="-125" font-family="Helvetica,sans-Serif" font-size="10.00">Protocol.hpp</text>
</a>
</g>
</g>
<!-- Node1&#45;&gt;Node2 -->
<g id="edge1" class="edge">
<title>Node1&#45;&gt;Node2</title>
<path fill="none" stroke="midnightblue" d="M646.96,-194.76C554.92,-188.1 384.57,-172.75 242,-143 237.78,-142.12 233.4,-141.04 229.08,-139.86"/>
<polygon fill="midnightblue" stroke="midnightblue" points="229.77,-136.42 219.2,-137.02 227.83,-143.15 229.77,-136.42"/>
</g>
<!-- Node3 -->
<g id="node3" class="node">
<title>Node3</title>
<g id="a_node3"><a xlink:href="command__line__interpreter_8hpp.xhtml" target="_top" xlink:title=" ">
<polygon fill="white" stroke="black" points="251,-118 251,-137 417,-137 417,-118 251,-118"/>
<text text-anchor="middle" x="334" y="-125" font-family="Helvetica,sans-Serif" font-size="10.00">command_line_interpreter.hpp</text>
</a>
</g>
</g>
<!-- Node1&#45;&gt;Node3 -->
<g id="edge2" class="edge">
<title>Node1&#45;&gt;Node3</title>
<path fill="none" stroke="midnightblue" d="M646.94,-186.56C573.98,-173.02 458.64,-151.62 390.24,-138.93"/>
<polygon fill="midnightblue" stroke="midnightblue" points="390.56,-135.43 380.09,-137.05 389.28,-142.32 390.56,-135.43"/>
</g>
<!-- Node11 -->
<g id="node11" class="node">
<title>Node11</title>
<g id="a_node11"><a xlink:title=" ">
<polygon fill="white" stroke="#bfbfbf" points="861,-0.5 861,-19.5 905,-19.5 905,-0.5 861,-0.5"/>
<text text-anchor="middle" x="883" y="-7.5" font-family="Helvetica,sans-Serif" font-size="10.00">string</text>
</a>
</g>
</g>
<!-- Node1&#45;&gt;Node11 -->
<g id="edge32" class="edge">
<title>Node1&#45;&gt;Node11</title>
<path fill="none" stroke="midnightblue" d="M781.01,-198.84C876.61,-197.02 1044.82,-187.41 1083,-143 1137.3,-79.83 984.32,-34.73 915.08,-18.07"/>
<polygon fill="midnightblue" stroke="midnightblue" points="915.65,-14.61 905.12,-15.73 914.05,-21.43 915.65,-14.61"/>
</g>
<!-- Node15 -->
<g id="node15" class="node">
<title>Node15</title>
<g id="a_node15"><a xlink:href="serial__port_8hpp.xhtml" target="_top" xlink:title=" ">
<polygon fill="white" stroke="black" points="502.5,-118 502.5,-137 591.5,-137 591.5,-118 502.5,-118"/>
<text text-anchor="middle" x="547" y="-125" font-family="Helvetica,sans-Serif" font-size="10.00">serial_port.hpp</text>
</a>
</g>
</g>
<!-- Node1&#45;&gt;Node15 -->
<g id="edge15" class="edge">
<title>Node1&#45;&gt;Node15</title>
<path fill="none" stroke="midnightblue" d="M667.48,-179.36C638.51,-167.13 602.1,-151.76 576.93,-141.14"/>
<polygon fill="midnightblue" stroke="midnightblue" points="578.12,-137.84 567.55,-137.17 575.4,-144.29 578.12,-137.84"/>
</g>
<!-- Node16 -->
<g id="node16" class="node">
<title>Node16</title>
<g id="a_node16"><a xlink:title=" ">
<polygon fill="white" stroke="#bfbfbf" points="707,-56.5 707,-75.5 749,-75.5 749,-56.5 707,-56.5"/>
<text text-anchor="middle" x="728" y="-63.5" font-family="Helvetica,sans-Serif" font-size="10.00">array</text>
</a>
</g>
</g>
<!-- Node1&#45;&gt;Node16 -->
<g id="edge21" class="edge">
<title>Node1&#45;&gt;Node16</title>
<path fill="none" stroke="midnightblue" d="M678.2,-179.49C652.36,-162.71 624.53,-137.29 640,-112 646.58,-101.24 674.62,-88 697.3,-78.68"/>
<polygon fill="midnightblue" stroke="midnightblue" points="698.64,-81.91 706.62,-74.94 696.04,-75.41 698.64,-81.91"/>
</g>
<!-- Node19 -->
<g id="node19" class="node">
<title>Node19</title>
<g id="a_node19"><a xlink:href="JsonGenerator_8hpp.xhtml" target="_top" xlink:title="Interface to JSON serializer.">
<polygon fill="white" stroke="black" points="798,-118 798,-137 904,-137 904,-118 798,-118"/>
<text text-anchor="middle" x="851" y="-125" font-family="Helvetica,sans-Serif" font-size="10.00">JsonGenerator.hpp</text>
</a>
</g>
</g>
<!-- Node1&#45;&gt;Node19 -->
<g id="edge22" class="edge">
<title>Node1&#45;&gt;Node19</title>
<path fill="none" stroke="midnightblue" d="M752.16,-179.36C775.4,-167.4 804.48,-152.44 825.06,-141.85"/>
<polygon fill="midnightblue" stroke="midnightblue" points="826.86,-144.86 834.15,-137.17 823.65,-138.64 826.86,-144.86"/>
</g>
<!-- Node20 -->
<g id="node20" class="node">
<title>Node20</title>
<g id="a_node20"><a xlink:href="ProtocolVersionObject_8hpp.xhtml" target="_top" xlink:title=" ">
<polygon fill="white" stroke="black" points="648.5,-112.5 648.5,-142.5 779.5,-142.5 779.5,-112.5 648.5,-112.5"/>
<text text-anchor="start" x="656.5" y="-130.5" font-family="Helvetica,sans-Serif" font-size="10.00">serial_protocol/Protocol</text>
<text text-anchor="middle" x="714" y="-119.5" font-family="Helvetica,sans-Serif" font-size="10.00">VersionObject.hpp</text>
</a>
</g>
</g>
<!-- Node1&#45;&gt;Node20 -->
<g id="edge24" class="edge">
<title>Node1&#45;&gt;Node20</title>
<path fill="none" stroke="midnightblue" d="M714,-179.36C714,-171.23 714,-161.7 714,-153.11"/>
<polygon fill="midnightblue" stroke="midnightblue" points="717.5,-152.89 714,-142.89 710.5,-152.89 717.5,-152.89"/>
</g>
<!-- Node22 -->
<g id="node22" class="node">
<title>Node22</title>
<g id="a_node22"><a xlink:href="TaskList_8hpp.xhtml" target="_top" xlink:title=" ">
<polygon fill="white" stroke="black" points="922,-118 922,-137 1074,-137 1074,-118 922,-118"/>
<text text-anchor="middle" x="998" y="-125" font-family="Helvetica,sans-Serif" font-size="10.00">serial_protocol/TaskList.hpp</text>
</a>
</g>
</g>
<!-- Node1&#45;&gt;Node22 -->
<g id="edge26" class="edge">
<title>Node1&#45;&gt;Node22</title>
<path fill="none" stroke="midnightblue" d="M781.3,-182.29C834.64,-169.05 907.62,-150.94 953.79,-139.47"/>
<polygon fill="midnightblue" stroke="midnightblue" points="954.64,-142.87 963.5,-137.06 952.95,-136.08 954.64,-142.87"/>
</g>
<!-- Node23 -->
<g id="node23" class="node">
<title>Node23</title>
<g id="a_node23"><a xlink:href="TaskObject_8hpp.xhtml" target="_top" xlink:title=" ">
<polygon fill="white" stroke="black" points="1121.5,-56.5 1121.5,-75.5 1212.5,-75.5 1212.5,-56.5 1121.5,-56.5"/>
<text text-anchor="middle" x="1167" y="-63.5" font-family="Helvetica,sans-Serif" font-size="10.00">TaskObject.hpp</text>
</a>
</g>
</g>
<!-- Node1&#45;&gt;Node23 -->
<g id="edge31" class="edge">
<title>Node1&#45;&gt;Node23</title>
<path fill="none" stroke="midnightblue" d="M781.31,-196.21C880.89,-191.01 1061.57,-177.06 1116,-143 1137.62,-129.47 1152.18,-103.03 1160.03,-85.19"/>
<polygon fill="midnightblue" stroke="midnightblue" points="1163.31,-86.42 1163.88,-75.84 1156.84,-83.75 1163.31,-86.42"/>
</g>
<!-- Node4 -->
<g id="node4" class="node">
<title>Node4</title>
<g id="a_node4"><a xlink:title=" ">
<polygon fill="white" stroke="#bfbfbf" points="435.5,-56.5 435.5,-75.5 500.5,-75.5 500.5,-56.5 435.5,-56.5"/>
<text text-anchor="middle" x="468" y="-63.5" font-family="Helvetica,sans-Serif" font-size="10.00">functional</text>
</a>
</g>
</g>
<!-- Node3&#45;&gt;Node4 -->
<g id="edge3" class="edge">
<title>Node3&#45;&gt;Node4</title>
<path fill="none" stroke="midnightblue" d="M353.2,-117.98C375.79,-107.95 413.5,-91.2 439.5,-79.65"/>
<polygon fill="midnightblue" stroke="midnightblue" points="441.12,-82.77 448.84,-75.51 438.28,-76.37 441.12,-82.77"/>
</g>
<!-- Node5 -->
<g id="node5" class="node">
<title>Node5</title>
<g id="a_node5"><a xlink:title=" ">
<polygon fill="white" stroke="#bfbfbf" points="0,-56.5 0,-75.5 60,-75.5 60,-56.5 0,-56.5"/>
<text text-anchor="middle" x="30" y="-63.5" font-family="Helvetica,sans-Serif" font-size="10.00">iostream</text>
</a>
</g>
</g>
<!-- Node3&#45;&gt;Node5 -->
<g id="edge4" class="edge">
<title>Node3&#45;&gt;Node5</title>
<path fill="none" stroke="midnightblue" d="M286.02,-117.93C234.92,-108.68 151.46,-93.19 70.12,-76.17"/>
<polygon fill="midnightblue" stroke="midnightblue" points="70.71,-72.72 60.21,-74.09 69.27,-79.57 70.71,-72.72"/>
</g>
<!-- Node6 -->
<g id="node6" class="node">
<title>Node6</title>
<g id="a_node6"><a xlink:title=" ">
<polygon fill="white" stroke="#bfbfbf" points="78.5,-56.5 78.5,-75.5 131.5,-75.5 131.5,-56.5 78.5,-56.5"/>
<text text-anchor="middle" x="105" y="-63.5" font-family="Helvetica,sans-Serif" font-size="10.00">iterator</text>
</a>
</g>
</g>
<!-- Node3&#45;&gt;Node6 -->
<g id="edge5" class="edge">
<title>Node3&#45;&gt;Node6</title>
<path fill="none" stroke="midnightblue" d="M301.19,-117.98C258.85,-106.97 185.42,-87.9 141.41,-76.46"/>
<polygon fill="midnightblue" stroke="midnightblue" points="142.24,-73.06 131.68,-73.93 140.48,-79.84 142.24,-73.06"/>
</g>
<!-- Node7 -->
<g id="node7" class="node">
<title>Node7</title>
<g id="a_node7"><a xlink:title=" ">
<polygon fill="white" stroke="#bfbfbf" points="128.5,-0.5 128.5,-19.5 193.5,-19.5 193.5,-0.5 128.5,-0.5"/>
<text text-anchor="middle" x="161" y="-7.5" font-family="Helvetica,sans-Serif" font-size="10.00">stdexcept</text>
</a>
</g>
</g>
<!-- Node3&#45;&gt;Node7 -->
<g id="edge6" class="edge">
<title>Node3&#45;&gt;Node7</title>
<path fill="none" stroke="midnightblue" d="M293.81,-117.95C253.42,-108.59 194.94,-92.67 179,-76 167.25,-63.71 163.04,-44.46 161.59,-30.09"/>
<polygon fill="midnightblue" stroke="midnightblue" points="165.07,-29.59 160.94,-19.84 158.08,-30.04 165.07,-29.59"/>
</g>
<!-- Node8 -->
<g id="node8" class="node">
<title>Node8</title>
<g id="a_node8"><a xlink:href="string__helpers_8hpp.xhtml" target="_top" xlink:title=" ">
<polygon fill="white" stroke="black" points="188.5,-56.5 188.5,-75.5 295.5,-75.5 295.5,-56.5 188.5,-56.5"/>
<text text-anchor="middle" x="242" y="-63.5" font-family="Helvetica,sans-Serif" font-size="10.00">string_helpers.hpp</text>
</a>
</g>
</g>
<!-- Node3&#45;&gt;Node8 -->
<g id="edge7" class="edge">
<title>Node3&#45;&gt;Node8</title>
<path fill="none" stroke="midnightblue" d="M320.82,-117.98C305.93,-108.34 281.46,-92.52 263.73,-81.05"/>
<polygon fill="midnightblue" stroke="midnightblue" points="265.45,-78 255.16,-75.51 261.65,-83.88 265.45,-78"/>
</g>
<!-- Node13 -->
<g id="node13" class="node">
<title>Node13</title>
<g id="a_node13"><a xlink:title=" ">
<polygon fill="white" stroke="#bfbfbf" points="313.5,-56.5 313.5,-75.5 354.5,-75.5 354.5,-56.5 313.5,-56.5"/>
<text text-anchor="middle" x="334" y="-63.5" font-family="Helvetica,sans-Serif" font-size="10.00">tuple</text>
</a>
</g>
</g>
<!-- Node3&#45;&gt;Node13 -->
<g id="edge13" class="edge">
<title>Node3&#45;&gt;Node13</title>
<path fill="none" stroke="midnightblue" d="M334,-117.98C334,-109.58 334,-96.48 334,-85.66"/>
<polygon fill="midnightblue" stroke="midnightblue" points="337.5,-85.51 334,-75.51 330.5,-85.51 337.5,-85.51"/>
</g>
<!-- Node14 -->
<g id="node14" class="node">
<title>Node14</title>
<g id="a_node14"><a xlink:title=" ">
<polygon fill="white" stroke="#bfbfbf" points="372.5,-56.5 372.5,-75.5 417.5,-75.5 417.5,-56.5 372.5,-56.5"/>
<text text-anchor="middle" x="395" y="-63.5" font-family="Helvetica,sans-Serif" font-size="10.00">utility</text>
</a>
</g>
</g>
<!-- Node3&#45;&gt;Node14 -->
<g id="edge14" class="edge">
<title>Node3&#45;&gt;Node14</title>
<path fill="none" stroke="midnightblue" d="M342.74,-117.98C352.16,-108.78 367.36,-93.96 378.95,-82.66"/>
<polygon fill="midnightblue" stroke="midnightblue" points="381.56,-85 386.28,-75.51 376.67,-79.99 381.56,-85"/>
</g>
<!-- Node8&#45;&gt;Node7 -->
<g id="edge10" class="edge">
<title>Node8&#45;&gt;Node7</title>
<path fill="none" stroke="midnightblue" d="M228.99,-56.32C216.47,-47.98 197.32,-35.21 182.53,-25.35"/>
<polygon fill="midnightblue" stroke="midnightblue" points="184.24,-22.29 173.98,-19.65 180.36,-28.11 184.24,-22.29"/>
</g>
<!-- Node9 -->
<g id="node9" class="node">
<title>Node9</title>
<g id="a_node9"><a xlink:title=" ">
<polygon fill="white" stroke="#bfbfbf" points="213,-0.5 213,-19.5 269,-19.5 269,-0.5 213,-0.5"/>
<text text-anchor="middle" x="241" y="-7.5" font-family="Helvetica,sans-Serif" font-size="10.00">iomanip</text>
</a>
</g>
</g>
<!-- Node8&#45;&gt;Node9 -->
<g id="edge8" class="edge">
<title>Node8&#45;&gt;Node9</title>
<path fill="none" stroke="midnightblue" d="M241.83,-56.08C241.7,-49.01 241.52,-38.86 241.35,-29.99"/>
<polygon fill="midnightblue" stroke="midnightblue" points="244.85,-29.68 241.16,-19.75 237.85,-29.81 244.85,-29.68"/>
</g>
<!-- Node10 -->
<g id="node10" class="node">
<title>Node10</title>
<g id="a_node10"><a xlink:title=" ">
<polygon fill="white" stroke="#bfbfbf" points="287,-0.5 287,-19.5 343,-19.5 343,-0.5 287,-0.5"/>
<text text-anchor="middle" x="315" y="-7.5" font-family="Helvetica,sans-Serif" font-size="10.00">sstream</text>
</a>
</g>
</g>
<!-- Node8&#45;&gt;Node10 -->
<g id="edge9" class="edge">
<title>Node8&#45;&gt;Node10</title>
<path fill="none" stroke="midnightblue" d="M253.73,-56.32C264.84,-48.11 281.74,-35.6 294.98,-25.81"/>
<polygon fill="midnightblue" stroke="midnightblue" points="297.1,-28.59 303.06,-19.83 292.94,-22.97 297.1,-28.59"/>
</g>
<!-- Node8&#45;&gt;Node11 -->
<g id="edge11" class="edge">
<title>Node8&#45;&gt;Node11</title>
<path fill="none" stroke="midnightblue" d="M295.74,-56.98C298.53,-56.63 301.3,-56.3 304,-56 511.78,-32.87 762.82,-17.69 850.73,-12.75"/>
<polygon fill="midnightblue" stroke="midnightblue" points="851.07,-16.24 860.86,-12.19 850.68,-9.25 851.07,-16.24"/>
</g>
<!-- Node12 -->
<g id="node12" class="node">
<title>Node12</title>
<g id="a_node12"><a xlink:title=" ">
<polygon fill="white" stroke="#bfbfbf" points="578.5,-0.5 578.5,-19.5 625.5,-19.5 625.5,-0.5 578.5,-0.5"/>
<text text-anchor="middle" x="602" y="-7.5" font-family="Helvetica,sans-Serif" font-size="10.00">vector</text>
</a>
</g>
</g>
<!-- Node8&#45;&gt;Node12 -->
<g id="edge12" class="edge">
<title>Node8&#45;&gt;Node12</title>
<path fill="none" stroke="midnightblue" d="M295.51,-56.97C370.68,-45.7 505.37,-25.49 568.11,-16.08"/>
<polygon fill="midnightblue" stroke="midnightblue" points="568.88,-19.51 578.25,-14.56 567.85,-12.58 568.88,-19.51"/>
</g>
<!-- Node15&#45;&gt;Node4 -->
<g id="edge17" class="edge">
<title>Node15&#45;&gt;Node4</title>
<path fill="none" stroke="midnightblue" d="M535.68,-117.98C523.13,-108.52 502.65,-93.1 487.5,-81.69"/>
<polygon fill="midnightblue" stroke="midnightblue" points="489.39,-78.73 479.3,-75.51 485.18,-84.32 489.39,-78.73"/>
</g>
<!-- Node15&#45;&gt;Node11 -->
<g id="edge20" class="edge">
<title>Node15&#45;&gt;Node11</title>
<path fill="none" stroke="midnightblue" d="M567.18,-117.94C589.93,-108.2 627.92,-91.59 660,-76 677.17,-67.66 680.15,-62.75 698,-56 749.78,-36.42 812.98,-23.2 850.5,-16.4"/>
<polygon fill="midnightblue" stroke="midnightblue" points="851.59,-19.76 860.83,-14.57 850.37,-12.87 851.59,-19.76"/>
</g>
<!-- Node15&#45;&gt;Node16 -->
<g id="edge16" class="edge">
<title>Node15&#45;&gt;Node16</title>
<path fill="none" stroke="midnightblue" d="M572.93,-117.98C605.76,-107.18 662.24,-88.62 697.22,-77.12"/>
<polygon fill="midnightblue" stroke="midnightblue" points="698.5,-80.38 706.91,-73.93 696.32,-73.73 698.5,-80.38"/>
</g>
<!-- Node17 -->
<g id="node17" class="node">
<title>Node17</title>
<g id="a_node17"><a xlink:title=" ">
<polygon fill="white" stroke="#bfbfbf" points="519,-56.5 519,-75.5 575,-75.5 575,-56.5 519,-56.5"/>
<text text-anchor="middle" x="547" y="-63.5" font-family="Helvetica,sans-Serif" font-size="10.00">optional</text>
</a>
</g>
</g>
<!-- Node15&#45;&gt;Node17 -->
<g id="edge18" class="edge">
<title>Node15&#45;&gt;Node17</title>
<path fill="none" stroke="midnightblue" d="M547,-117.98C547,-109.58 547,-96.48 547,-85.66"/>
<polygon fill="midnightblue" stroke="midnightblue" points="550.5,-85.51 547,-75.51 543.5,-85.51 550.5,-85.51"/>
</g>
<!-- Node18 -->
<g id="node18" class="node">
<title>Node18</title>
<g id="a_node18"><a xlink:title=" ">
<polygon fill="white" stroke="#bfbfbf" points="593.5,-56.5 593.5,-75.5 650.5,-75.5 650.5,-56.5 593.5,-56.5"/>
<text text-anchor="middle" x="622" y="-63.5" font-family="Helvetica,sans-Serif" font-size="10.00">ostream</text>
</a>
</g>
</g>
<!-- Node15&#45;&gt;Node18 -->
<g id="edge19" class="edge">
<title>Node15&#45;&gt;Node18</title>
<path fill="none" stroke="midnightblue" d="M557.75,-117.98C569.55,-108.61 588.74,-93.38 603.08,-82.01"/>
<polygon fill="midnightblue" stroke="midnightblue" points="605.62,-84.47 611.27,-75.51 601.26,-78.98 605.62,-84.47"/>
</g>
<!-- Node19&#45;&gt;Node11 -->
<g id="edge23" class="edge">
<title>Node19&#45;&gt;Node11</title>
<path fill="none" stroke="midnightblue" d="M853.41,-117.82C858.57,-99.17 870.83,-54.94 877.84,-29.63"/>
<polygon fill="midnightblue" stroke="midnightblue" points="881.27,-30.35 880.57,-19.78 874.52,-28.48 881.27,-30.35"/>
</g>
<!-- Node21 -->
<g id="node21" class="node">
<title>Node21</title>
<g id="a_node21"><a xlink:title=" ">
<polygon fill="white" stroke="#bfbfbf" points="767,-56.5 767,-75.5 817,-75.5 817,-56.5 767,-56.5"/>
<text text-anchor="middle" x="792" y="-63.5" font-family="Helvetica,sans-Serif" font-size="10.00">cstdint</text>
</a>
</g>
</g>
<!-- Node20&#45;&gt;Node21 -->
<g id="edge25" class="edge">
<title>Node20&#45;&gt;Node21</title>
<path fill="none" stroke="midnightblue" d="M732.48,-112.4C744.52,-103.22 760.2,-91.26 772.44,-81.92"/>
<polygon fill="midnightblue" stroke="midnightblue" points="774.82,-84.51 780.65,-75.66 770.58,-78.94 774.82,-84.51"/>
</g>
<!-- Node22&#45;&gt;Node12 -->
<g id="edge30" class="edge">
<title>Node22&#45;&gt;Node12</title>
<path fill="none" stroke="midnightblue" d="M980.33,-117.94C949.61,-103.35 884.07,-73.56 826,-56 759.74,-35.97 679.73,-22.33 635.5,-15.69"/>
<polygon fill="midnightblue" stroke="midnightblue" points="635.98,-12.22 625.58,-14.22 634.96,-19.14 635.98,-12.22"/>
</g>
<!-- Node22&#45;&gt;Node23 -->
<g id="edge27" class="edge">
<title>Node22&#45;&gt;Node23</title>
<path fill="none" stroke="midnightblue" d="M1022.21,-117.98C1051.33,-107.72 1100.37,-90.46 1133.2,-78.9"/>
<polygon fill="midnightblue" stroke="midnightblue" points="1134.56,-82.13 1142.83,-75.51 1132.24,-75.53 1134.56,-82.13"/>
</g>
<!-- Node23&#45;&gt;Node11 -->
<g id="edge29" class="edge">
<title>Node23&#45;&gt;Node11</title>
<path fill="none" stroke="midnightblue" d="M1122,-56.44C1064.32,-45.48 965.74,-26.73 915.11,-17.1"/>
<polygon fill="midnightblue" stroke="midnightblue" points="915.54,-13.62 905.06,-15.19 914.23,-20.5 915.54,-13.62"/>
</g>
<!-- Node24 -->
<g id="node24" class="node">
<title>Node24</title>
<g id="a_node24"><a xlink:title=" ">
<polygon fill="white" stroke="#bfbfbf" points="1142,-0.5 1142,-19.5 1192,-19.5 1192,-0.5 1142,-0.5"/>
<text text-anchor="middle" x="1167" y="-7.5" font-family="Helvetica,sans-Serif" font-size="10.00">chrono</text>
</a>
</g>
</g>
<!-- Node23&#45;&gt;Node24 -->
<g id="edge28" class="edge">
<title>Node23&#45;&gt;Node24</title>
<path fill="none" stroke="midnightblue" d="M1167,-56.08C1167,-49.01 1167,-38.86 1167,-29.99"/>
<polygon fill="midnightblue" stroke="midnightblue" points="1170.5,-29.75 1167,-19.75 1163.5,-29.75 1170.5,-29.75"/>
</g>
</g>
</svg>
