<?xml version="1.0" encoding="UTF-8" standalone="no"?>
<!DOCTYPE svg PUBLIC "-//W3C//DTD SVG 1.1//EN"
 "http://www.w3.org/Graphics/SVG/1.1/DTD/svg11.dtd">
<!-- Generated by graphviz version 2.43.0 (0)
 -->
<!-- Title: lib/application_business_rules/serial_interface/Protocol.cpp Pages: 1 -->
<svg width="1279pt" height="229pt"
 viewBox="0.00 0.00 1278.77 229.00" xmlns="http://www.w3.org/2000/svg" xmlns:xlink="http://www.w3.org/1999/xlink">
<g id="graph0" class="graph" transform="scale(1 1) rotate(0) translate(4 225)">
<title>lib/application_business_rules/serial_interface/Protocol.cpp</title>
<polygon fill="white" stroke="transparent" points="-4,4 -4,-225 1274.77,-225 1274.77,4 -4,4"/>
<!-- Node1 -->
<g id="node1" class="node">
<title>Node1</title>
<g id="a_node1"><a xlink:title=" ">
<polygon fill="#bfbfbf" stroke="black" points="686.27,-179.5 686.27,-220.5 820.27,-220.5 820.27,-179.5 686.27,-179.5"/>
<text text-anchor="start" x="694.27" y="-208.5" font-family="Helvetica,sans-Serif" font-size="10.00">lib/application_business</text>
<text text-anchor="start" x="694.27" y="-197.5" font-family="Helvetica,sans-Serif" font-size="10.00">_rules/serial_interface</text>
<text text-anchor="middle" x="753.27" y="-186.5" font-family="Helvetica,sans-Serif" font-size="10.00">/Protocol.cpp</text>
</a>
</g>
</g>
<!-- Node2 -->
<g id="node2" class="node">
<title>Node2</title>
<g id="a_node2"><a xlink:href="Protocol_8hpp.xhtml" target="_top" xlink:title=" ">
<polygon fill="white" stroke="black" points="64.77,-118 64.77,-137 141.77,-137 141.77,-118 64.77,-118"/>
<text text-anchor="middle" x="103.27" y="-125" font-family="Helvetica,sans-Serif" font-size="10.00">Protocol.hpp</text>
</a>
</g>
</g>
<!-- Node1&#45;&gt;Node2 -->
<g id="edge1" class="edge">
<title>Node1&#45;&gt;Node2</title>
<path fill="none" stroke="midnightblue" d="M685.83,-197.13C573.85,-193.05 342.88,-180.46 151.27,-143 147.04,-142.17 142.65,-141.12 138.32,-139.97"/>
<polygon fill="midnightblue" stroke="midnightblue" points="139.02,-136.53 128.44,-137.14 137.09,-143.26 139.02,-136.53"/>
</g>
<!-- Node3 -->
<g id="node3" class="node">
<title>Node3</title>
<g id="a_node3"><a xlink:href="command__line__interpreter_8hpp.xhtml" target="_top" xlink:title=" ">
<polygon fill="white" stroke="black" points="160.27,-118 160.27,-137 326.27,-137 326.27,-118 160.27,-118"/>
<text text-anchor="middle" x="243.27" y="-125" font-family="Helvetica,sans-Serif" font-size="10.00">command_line_interpreter.hpp</text>
</a>
</g>
</g>
<!-- Node1&#45;&gt;Node3 -->
<g id="edge2" class="edge">
<title>Node1&#45;&gt;Node3</title>
<path fill="none" stroke="midnightblue" d="M686.07,-189.71C589.94,-176.42 413.89,-152.09 315.2,-138.44"/>
<polygon fill="midnightblue" stroke="midnightblue" points="315.41,-134.94 305.02,-137.04 314.45,-141.87 315.41,-134.94"/>
</g>
<!-- Node11 -->
<g id="node11" class="node">
<title>Node11</title>
<g id="a_node11"><a xlink:title=" ">
<polygon fill="white" stroke="#bfbfbf" points="869.27,-0.5 869.27,-19.5 913.27,-19.5 913.27,-0.5 869.27,-0.5"/>
<text text-anchor="middle" x="891.27" y="-7.5" font-family="Helvetica,sans-Serif" font-size="10.00">string</text>
</a>
</g>
</g>
<!-- Node1&#45;&gt;Node11 -->
<g id="edge33" class="edge">
<title>Node1&#45;&gt;Node11</title>
<path fill="none" stroke="midnightblue" d="M820.54,-194.59C892.29,-188.33 999.05,-173.96 1024.27,-143 1035.62,-129.06 1021.86,-63.97 1015.27,-56 992.65,-28.65 951.98,-17.92 923.4,-13.72"/>
<polygon fill="midnightblue" stroke="midnightblue" points="923.83,-10.24 913.47,-12.44 922.94,-17.19 923.83,-10.24"/>
</g>
<!-- Node15 -->
<g id="node15" class="node">
<title>Node15</title>
<g id="a_node15"><a xlink:href="serial__port_8hpp.xhtml" target="_top" xlink:title=" ">
<polygon fill="white" stroke="black" points="407.77,-118 407.77,-137 496.77,-137 496.77,-118 407.77,-118"/>
<text text-anchor="middle" x="452.27" y="-125" font-family="Helvetica,sans-Serif" font-size="10.00">serial_port.hpp</text>
</a>
</g>
</g>
<!-- Node1&#45;&gt;Node15 -->
<g id="edge15" class="edge">
<title>Node1&#45;&gt;Node15</title>
<path fill="none" stroke="midnightblue" d="M686.19,-183.73C637.58,-172.61 570.31,-157.09 511.27,-143 506.52,-141.87 501.55,-140.67 496.61,-139.47"/>
<polygon fill="midnightblue" stroke="midnightblue" points="497.11,-135.99 486.57,-137.01 495.45,-142.79 497.11,-135.99"/>
</g>
<!-- Node16 -->
<g id="node16" class="node">
<title>Node16</title>
<g id="a_node16"><a xlink:title=" ">
<polygon fill="white" stroke="#bfbfbf" points="683.27,-56.5 683.27,-75.5 725.27,-75.5 725.27,-56.5 683.27,-56.5"/>
<text text-anchor="middle" x="704.27" y="-63.5" font-family="Helvetica,sans-Serif" font-size="10.00">array</text>
</a>
</g>
</g>
<!-- Node1&#45;&gt;Node16 -->
<g id="edge21" class="edge">
<title>Node1&#45;&gt;Node16</title>
<path fill="none" stroke="midnightblue" d="M686.15,-189.95C631.84,-181.09 561.62,-165.61 544.27,-143 535.88,-132.07 535.95,-122.98 544.27,-112 546.26,-109.37 627.3,-87.47 673.26,-75.22"/>
<polygon fill="midnightblue" stroke="midnightblue" points="674.27,-78.57 683.03,-72.62 672.47,-71.81 674.27,-78.57"/>
</g>
<!-- Node19 -->
<g id="node19" class="node">
<title>Node19</title>
<g id="a_node19"><a xlink:href="JsonGenerator_8hpp.xhtml" target="_top" xlink:title="Interface to JSON serializer.">
<polygon fill="white" stroke="black" points="553.27,-118 553.27,-137 659.27,-137 659.27,-118 553.27,-118"/>
<text text-anchor="middle" x="606.27" y="-125" font-family="Helvetica,sans-Serif" font-size="10.00">JsonGenerator.hpp</text>
</a>
</g>
</g>
<!-- Node1&#45;&gt;Node19 -->
<g id="edge22" class="edge">
<title>Node1&#45;&gt;Node19</title>
<path fill="none" stroke="midnightblue" d="M712.32,-179.36C687.16,-167.29 655.62,-152.17 633.5,-141.56"/>
<polygon fill="midnightblue" stroke="midnightblue" points="634.88,-138.34 624.35,-137.17 631.86,-144.65 634.88,-138.34"/>
</g>
<!-- Node20 -->
<g id="node20" class="node">
<title>Node20</title>
<g id="a_node20"><a xlink:href="DeletedTaskObject_8hpp.xhtml" target="_top" xlink:title=" ">
<polygon fill="white" stroke="black" points="847.27,-112.5 847.27,-142.5 999.27,-142.5 999.27,-112.5 847.27,-112.5"/>
<text text-anchor="start" x="855.27" y="-130.5" font-family="Helvetica,sans-Serif" font-size="10.00">serial_protocol/DeletedTask</text>
<text text-anchor="middle" x="923.27" y="-119.5" font-family="Helvetica,sans-Serif" font-size="10.00">Object.hpp</text>
</a>
</g>
</g>
<!-- Node1&#45;&gt;Node20 -->
<g id="edge24" class="edge">
<title>Node1&#45;&gt;Node20</title>
<path fill="none" stroke="midnightblue" d="M800.62,-179.36C825.52,-169.04 855.81,-156.48 880.06,-146.42"/>
<polygon fill="midnightblue" stroke="midnightblue" points="881.47,-149.62 889.37,-142.56 878.79,-143.16 881.47,-149.62"/>
</g>
<!-- Node21 -->
<g id="node21" class="node">
<title>Node21</title>
<g id="a_node21"><a xlink:href="ProtocolVersionObject_8hpp.xhtml" target="_top" xlink:title=" ">
<polygon fill="white" stroke="black" points="1093.77,-112.5 1093.77,-142.5 1224.77,-142.5 1224.77,-112.5 1093.77,-112.5"/>
<text text-anchor="start" x="1101.77" y="-130.5" font-family="Helvetica,sans-Serif" font-size="10.00">serial_protocol/Protocol</text>
<text text-anchor="middle" x="1159.27" y="-119.5" font-family="Helvetica,sans-Serif" font-size="10.00">VersionObject.hpp</text>
</a>
</g>
</g>
<!-- Node1&#45;&gt;Node21 -->
<g id="edge25" class="edge">
<title>Node1&#45;&gt;Node21</title>
<path fill="none" stroke="midnightblue" d="M820.42,-187.65C886.35,-176.46 989.78,-158.8 1079.27,-143 1080.56,-142.77 1081.86,-142.54 1083.17,-142.31"/>
<polygon fill="midnightblue" stroke="midnightblue" points="1084.12,-145.7 1093.36,-140.5 1082.9,-138.8 1084.12,-145.7"/>
</g>
<!-- Node23 -->
<g id="node23" class="node">
<title>Node23</title>
<g id="a_node23"><a xlink:href="TaskList_8hpp.xhtml" target="_top" xlink:title=" ">
<polygon fill="white" stroke="black" points="677.27,-118 677.27,-137 829.27,-137 829.27,-118 677.27,-118"/>
<text text-anchor="middle" x="753.27" y="-125" font-family="Helvetica,sans-Serif" font-size="10.00">serial_protocol/TaskList.hpp</text>
</a>
</g>
</g>
<!-- Node1&#45;&gt;Node23 -->
<g id="edge27" class="edge">
<title>Node1&#45;&gt;Node23</title>
<path fill="none" stroke="midnightblue" d="M753.27,-179.36C753.27,-169.3 753.27,-157.1 753.27,-147.18"/>
<polygon fill="midnightblue" stroke="midnightblue" points="756.77,-147.17 753.27,-137.17 749.77,-147.17 756.77,-147.17"/>
</g>
<!-- Node24 -->
<g id="node24" class="node">
<title>Node24</title>
<g id="a_node24"><a xlink:href="TaskObject_8hpp.xhtml" target="_top" xlink:title=" ">
<polygon fill="white" stroke="black" points="914.77,-56.5 914.77,-75.5 1005.77,-75.5 1005.77,-56.5 914.77,-56.5"/>
<text text-anchor="middle" x="960.27" y="-63.5" font-family="Helvetica,sans-Serif" font-size="10.00">TaskObject.hpp</text>
</a>
</g>
</g>
<!-- Node1&#45;&gt;Node24 -->
<g id="edge32" class="edge">
<title>Node1&#45;&gt;Node24</title>
<path fill="none" stroke="midnightblue" d="M820.3,-193.63C887.77,-186.66 985.08,-171.83 1008.27,-143 1024.27,-123.1 1000.21,-97.59 980.76,-81.77"/>
<polygon fill="midnightblue" stroke="midnightblue" points="982.88,-78.99 972.84,-75.63 978.6,-84.52 982.88,-78.99"/>
</g>
<!-- Node26 -->
<g id="node26" class="node">
<title>Node26</title>
<g id="a_node26"><a xlink:href="Task_8hpp.xhtml" target="_top" xlink:title=" ">
<polygon fill="white" stroke="black" points="1181.77,-56.5 1181.77,-75.5 1270.77,-75.5 1270.77,-56.5 1181.77,-56.5"/>
<text text-anchor="middle" x="1226.27" y="-63.5" font-family="Helvetica,sans-Serif" font-size="10.00">tasks/Task.hpp</text>
</a>
</g>
</g>
<!-- Node1&#45;&gt;Node26 -->
<g id="edge34" class="edge">
<title>Node1&#45;&gt;Node26</title>
<path fill="none" stroke="midnightblue" d="M820.44,-196.05C946.26,-189.83 1207.23,-173.37 1234.27,-143 1248.15,-127.41 1241.95,-102.27 1235.1,-85.22"/>
<polygon fill="midnightblue" stroke="midnightblue" points="1238.18,-83.52 1230.93,-75.8 1231.78,-86.36 1238.18,-83.52"/>
</g>
<!-- Node4 -->
<g id="node4" class="node">
<title>Node4</title>
<g id="a_node4"><a xlink:title=" ">
<polygon fill="white" stroke="#bfbfbf" points="412.77,-56.5 412.77,-75.5 477.77,-75.5 477.77,-56.5 412.77,-56.5"/>
<text text-anchor="middle" x="445.27" y="-63.5" font-family="Helvetica,sans-Serif" font-size="10.00">functional</text>
</a>
</g>
</g>
<!-- Node3&#45;&gt;Node4 -->
<g id="edge3" class="edge">
<title>Node3&#45;&gt;Node4</title>
<path fill="none" stroke="midnightblue" d="M272.21,-117.98C307.54,-107.57 367.4,-89.94 406.63,-78.38"/>
<polygon fill="midnightblue" stroke="midnightblue" points="407.78,-81.69 416.38,-75.51 405.8,-74.98 407.78,-81.69"/>
</g>
<!-- Node5 -->
<g id="node5" class="node">
<title>Node5</title>
<g id="a_node5"><a xlink:title=" ">
<polygon fill="white" stroke="#bfbfbf" points="138.27,-56.5 138.27,-75.5 198.27,-75.5 198.27,-56.5 138.27,-56.5"/>
<text text-anchor="middle" x="168.27" y="-63.5" font-family="Helvetica,sans-Serif" font-size="10.00">iostream</text>
</a>
</g>
</g>
<!-- Node3&#45;&gt;Node5 -->
<g id="edge4" class="edge">
<title>Node3&#45;&gt;Node5</title>
<path fill="none" stroke="midnightblue" d="M232.52,-117.98C220.72,-108.61 201.53,-93.38 187.19,-82.01"/>
<polygon fill="midnightblue" stroke="midnightblue" points="189,-78.98 178.99,-75.51 184.65,-84.47 189,-78.98"/>
</g>
<!-- Node6 -->
<g id="node6" class="node">
<title>Node6</title>
<g id="a_node6"><a xlink:title=" ">
<polygon fill="white" stroke="#bfbfbf" points="216.77,-56.5 216.77,-75.5 269.77,-75.5 269.77,-56.5 216.77,-56.5"/>
<text text-anchor="middle" x="243.27" y="-63.5" font-family="Helvetica,sans-Serif" font-size="10.00">iterator</text>
</a>
</g>
</g>
<!-- Node3&#45;&gt;Node6 -->
<g id="edge5" class="edge">
<title>Node3&#45;&gt;Node6</title>
<path fill="none" stroke="midnightblue" d="M243.27,-117.98C243.27,-109.58 243.27,-96.48 243.27,-85.66"/>
<polygon fill="midnightblue" stroke="midnightblue" points="246.77,-85.51 243.27,-75.51 239.77,-85.51 246.77,-85.51"/>
</g>
<!-- Node7 -->
<g id="node7" class="node">
<title>Node7</title>
<g id="a_node7"><a xlink:title=" ">
<polygon fill="white" stroke="#bfbfbf" points="92.77,-0.5 92.77,-19.5 157.77,-19.5 157.77,-0.5 92.77,-0.5"/>
<text text-anchor="middle" x="125.27" y="-7.5" font-family="Helvetica,sans-Serif" font-size="10.00">stdexcept</text>
</a>
</g>
</g>
<!-- Node3&#45;&gt;Node7 -->
<g id="edge6" class="edge">
<title>Node3&#45;&gt;Node7</title>
<path fill="none" stroke="midnightblue" d="M195.98,-117.99C128.57,-105.64 12.27,-83.41 6.27,-76 -18.39,-45.53 39.38,-27.2 82.78,-18.1"/>
<polygon fill="midnightblue" stroke="midnightblue" points="83.49,-21.53 92.62,-16.14 82.13,-14.67 83.49,-21.53"/>
</g>
<!-- Node8 -->
<g id="node8" class="node">
<title>Node8</title>
<g id="a_node8"><a xlink:href="string__helpers_8hpp.xhtml" target="_top" xlink:title=" ">
<polygon fill="white" stroke="black" points="287.77,-56.5 287.77,-75.5 394.77,-75.5 394.77,-56.5 287.77,-56.5"/>
<text text-anchor="middle" x="341.27" y="-63.5" font-family="Helvetica,sans-Serif" font-size="10.00">string_helpers.hpp</text>
</a>
</g>
</g>
<!-- Node3&#45;&gt;Node8 -->
<g id="edge7" class="edge">
<title>Node3&#45;&gt;Node8</title>
<path fill="none" stroke="midnightblue" d="M257.31,-117.98C273.32,-108.25 299.72,-92.23 318.64,-80.74"/>
<polygon fill="midnightblue" stroke="midnightblue" points="320.52,-83.69 327.25,-75.51 316.89,-77.71 320.52,-83.69"/>
</g>
<!-- Node13 -->
<g id="node13" class="node">
<title>Node13</title>
<g id="a_node13"><a xlink:title=" ">
<polygon fill="white" stroke="#bfbfbf" points="15.77,-56.5 15.77,-75.5 56.77,-75.5 56.77,-56.5 15.77,-56.5"/>
<text text-anchor="middle" x="36.27" y="-63.5" font-family="Helvetica,sans-Serif" font-size="10.00">tuple</text>
</a>
</g>
</g>
<!-- Node3&#45;&gt;Node13 -->
<g id="edge13" class="edge">
<title>Node3&#45;&gt;Node13</title>
<path fill="none" stroke="midnightblue" d="M212.33,-117.97C178.72,-108.65 123.19,-93.09 66.66,-76.37"/>
<polygon fill="midnightblue" stroke="midnightblue" points="67.43,-72.94 56.85,-73.45 65.44,-79.65 67.43,-72.94"/>
</g>
<!-- Node14 -->
<g id="node14" class="node">
<title>Node14</title>
<g id="a_node14"><a xlink:title=" ">
<polygon fill="white" stroke="#bfbfbf" points="74.77,-56.5 74.77,-75.5 119.77,-75.5 119.77,-56.5 74.77,-56.5"/>
<text text-anchor="middle" x="97.27" y="-63.5" font-family="Helvetica,sans-Serif" font-size="10.00">utility</text>
</a>
</g>
</g>
<!-- Node3&#45;&gt;Node14 -->
<g id="edge14" class="edge">
<title>Node3&#45;&gt;Node14</title>
<path fill="none" stroke="midnightblue" d="M222.35,-117.98C197.52,-107.86 155.93,-90.9 127.57,-79.35"/>
<polygon fill="midnightblue" stroke="midnightblue" points="128.73,-76.04 118.15,-75.51 126.09,-82.52 128.73,-76.04"/>
</g>
<!-- Node8&#45;&gt;Node7 -->
<g id="edge10" class="edge">
<title>Node8&#45;&gt;Node7</title>
<path fill="none" stroke="midnightblue" d="M307.04,-56.44C269.32,-47.01 208.59,-31.83 167.83,-21.64"/>
<polygon fill="midnightblue" stroke="midnightblue" points="168.47,-18.19 157.92,-19.16 166.77,-24.98 168.47,-18.19"/>
</g>
<!-- Node9 -->
<g id="node9" class="node">
<title>Node9</title>
<g id="a_node9"><a xlink:title=" ">
<polygon fill="white" stroke="#bfbfbf" points="276.27,-0.5 276.27,-19.5 332.27,-19.5 332.27,-0.5 276.27,-0.5"/>
<text text-anchor="middle" x="304.27" y="-7.5" font-family="Helvetica,sans-Serif" font-size="10.00">iomanip</text>
</a>
</g>
</g>
<!-- Node8&#45;&gt;Node9 -->
<g id="edge8" class="edge">
<title>Node8&#45;&gt;Node9</title>
<path fill="none" stroke="midnightblue" d="M335.16,-56.08C329.99,-48.53 322.42,-37.49 316.07,-28.23"/>
<polygon fill="midnightblue" stroke="midnightblue" points="318.8,-26.02 310.27,-19.75 313.03,-29.98 318.8,-26.02"/>
</g>
<!-- Node10 -->
<g id="node10" class="node">
<title>Node10</title>
<g id="a_node10"><a xlink:title=" ">
<polygon fill="white" stroke="#bfbfbf" points="350.27,-0.5 350.27,-19.5 406.27,-19.5 406.27,-0.5 350.27,-0.5"/>
<text text-anchor="middle" x="378.27" y="-7.5" font-family="Helvetica,sans-Serif" font-size="10.00">sstream</text>
</a>
</g>
</g>
<!-- Node8&#45;&gt;Node10 -->
<g id="edge9" class="edge">
<title>Node8&#45;&gt;Node10</title>
<path fill="none" stroke="midnightblue" d="M347.38,-56.08C352.55,-48.53 360.12,-37.49 366.46,-28.23"/>
<polygon fill="midnightblue" stroke="midnightblue" points="369.51,-29.98 372.27,-19.75 363.73,-26.02 369.51,-29.98"/>
</g>
<!-- Node8&#45;&gt;Node11 -->
<g id="edge11" class="edge">
<title>Node8&#45;&gt;Node11</title>
<path fill="none" stroke="midnightblue" d="M395.01,-57.02C397.8,-56.66 400.57,-56.32 403.27,-56 574.34,-35.71 780.08,-19.37 858.63,-13.42"/>
<polygon fill="midnightblue" stroke="midnightblue" points="859.14,-16.89 868.85,-12.65 858.62,-9.91 859.14,-16.89"/>
</g>
<!-- Node12 -->
<g id="node12" class="node">
<title>Node12</title>
<g id="a_node12"><a xlink:title=" ">
<polygon fill="white" stroke="#bfbfbf" points="558.77,-0.5 558.77,-19.5 605.77,-19.5 605.77,-0.5 558.77,-0.5"/>
<text text-anchor="middle" x="582.27" y="-7.5" font-family="Helvetica,sans-Serif" font-size="10.00">vector</text>
</a>
</g>
</g>
<!-- Node8&#45;&gt;Node12 -->
<g id="edge12" class="edge">
<title>Node8&#45;&gt;Node12</title>
<path fill="none" stroke="midnightblue" d="M379.46,-56.44C426.03,-46.01 504.01,-28.53 548.49,-18.57"/>
<polygon fill="midnightblue" stroke="midnightblue" points="549.51,-21.93 558.51,-16.32 547.98,-15.1 549.51,-21.93"/>
</g>
<!-- Node15&#45;&gt;Node4 -->
<g id="edge17" class="edge">
<title>Node15&#45;&gt;Node4</title>
<path fill="none" stroke="midnightblue" d="M451.27,-117.98C450.28,-109.58 448.74,-96.48 447.46,-85.66"/>
<polygon fill="midnightblue" stroke="midnightblue" points="450.91,-85.03 446.27,-75.51 443.96,-85.85 450.91,-85.03"/>
</g>
<!-- Node15&#45;&gt;Node11 -->
<g id="edge20" class="edge">
<title>Node15&#45;&gt;Node11</title>
<path fill="none" stroke="midnightblue" d="M493.29,-117.93C531.13,-109.4 588.51,-94.86 636.27,-76 654.02,-68.99 656.3,-62.45 674.27,-56 737.7,-33.24 815.92,-20.56 858.99,-14.82"/>
<polygon fill="midnightblue" stroke="midnightblue" points="859.69,-18.26 869.16,-13.51 858.79,-11.32 859.69,-18.26"/>
</g>
<!-- Node15&#45;&gt;Node16 -->
<g id="edge16" class="edge">
<title>Node15&#45;&gt;Node16</title>
<path fill="none" stroke="midnightblue" d="M486.56,-117.97C494.66,-115.98 503.26,-113.9 511.27,-112 581.35,-95.4 599.27,-92.97 669.27,-76 670.54,-75.69 671.83,-75.38 673.14,-75.05"/>
<polygon fill="midnightblue" stroke="midnightblue" points="674.35,-78.36 683.19,-72.52 672.64,-71.57 674.35,-78.36"/>
</g>
<!-- Node17 -->
<g id="node17" class="node">
<title>Node17</title>
<g id="a_node17"><a xlink:title=" ">
<polygon fill="white" stroke="#bfbfbf" points="571.27,-56.5 571.27,-75.5 627.27,-75.5 627.27,-56.5 571.27,-56.5"/>
<text text-anchor="middle" x="599.27" y="-63.5" font-family="Helvetica,sans-Serif" font-size="10.00">optional</text>
</a>
</g>
</g>
<!-- Node15&#45;&gt;Node17 -->
<g id="edge18" class="edge">
<title>Node15&#45;&gt;Node17</title>
<path fill="none" stroke="midnightblue" d="M473.33,-117.98C498.33,-107.86 540.21,-90.9 568.76,-79.35"/>
<polygon fill="midnightblue" stroke="midnightblue" points="570.29,-82.51 578.25,-75.51 567.66,-76.02 570.29,-82.51"/>
</g>
<!-- Node18 -->
<g id="node18" class="node">
<title>Node18</title>
<g id="a_node18"><a xlink:title=" ">
<polygon fill="white" stroke="#bfbfbf" points="495.77,-56.5 495.77,-75.5 552.77,-75.5 552.77,-56.5 495.77,-56.5"/>
<text text-anchor="middle" x="524.27" y="-63.5" font-family="Helvetica,sans-Serif" font-size="10.00">ostream</text>
</a>
</g>
</g>
<!-- Node15&#45;&gt;Node18 -->
<g id="edge19" class="edge">
<title>Node15&#45;&gt;Node18</title>
<path fill="none" stroke="midnightblue" d="M462.58,-117.98C473.92,-108.61 492.34,-93.38 506.11,-82.01"/>
<polygon fill="midnightblue" stroke="midnightblue" points="508.49,-84.58 513.97,-75.51 504.03,-79.18 508.49,-84.58"/>
</g>
<!-- Node19&#45;&gt;Node11 -->
<g id="edge23" class="edge">
<title>Node19&#45;&gt;Node11</title>
<path fill="none" stroke="midnightblue" d="M628.51,-117.85C654.08,-107.89 697.28,-90.95 734.27,-76 778.69,-58.04 829.94,-36.71 861.48,-23.51"/>
<polygon fill="midnightblue" stroke="midnightblue" points="863.12,-26.62 870.99,-19.52 860.41,-20.16 863.12,-26.62"/>
</g>
<!-- Node22 -->
<g id="node22" class="node">
<title>Node22</title>
<g id="a_node22"><a xlink:title=" ">
<polygon fill="white" stroke="#bfbfbf" points="1113.27,-56.5 1113.27,-75.5 1163.27,-75.5 1163.27,-56.5 1113.27,-56.5"/>
<text text-anchor="middle" x="1138.27" y="-63.5" font-family="Helvetica,sans-Serif" font-size="10.00">cstdint</text>
</a>
</g>
</g>
<!-- Node21&#45;&gt;Node22 -->
<g id="edge26" class="edge">
<title>Node21&#45;&gt;Node22</title>
<path fill="none" stroke="midnightblue" d="M1154.29,-112.4C1151.43,-104.29 1147.8,-94.01 1144.72,-85.28"/>
<polygon fill="midnightblue" stroke="midnightblue" points="1147.95,-83.92 1141.32,-75.66 1141.35,-86.25 1147.95,-83.92"/>
</g>
<!-- Node23&#45;&gt;Node12 -->
<g id="edge31" class="edge">
<title>Node23&#45;&gt;Node12</title>
<path fill="none" stroke="midnightblue" d="M753.48,-117.83C753.36,-103.08 750.91,-73.06 734.27,-56 703.09,-24.05 650.39,-14.52 615.97,-11.83"/>
<polygon fill="midnightblue" stroke="midnightblue" points="616.11,-8.33 605.91,-11.19 615.67,-15.32 616.11,-8.33"/>
</g>
<!-- Node23&#45;&gt;Node24 -->
<g id="edge28" class="edge">
<title>Node23&#45;&gt;Node24</title>
<path fill="none" stroke="midnightblue" d="M782.93,-117.98C819.2,-107.55 880.73,-89.86 920.93,-78.31"/>
<polygon fill="midnightblue" stroke="midnightblue" points="922.02,-81.64 930.67,-75.51 920.09,-74.91 922.02,-81.64"/>
</g>
<!-- Node24&#45;&gt;Node11 -->
<g id="edge30" class="edge">
<title>Node24&#45;&gt;Node11</title>
<path fill="none" stroke="midnightblue" d="M949.18,-56.32C938.78,-48.18 923.01,-35.84 910.55,-26.09"/>
<polygon fill="midnightblue" stroke="midnightblue" points="912.59,-23.24 902.56,-19.83 908.27,-28.75 912.59,-23.24"/>
</g>
<!-- Node25 -->
<g id="node25" class="node">
<title>Node25</title>
<g id="a_node25"><a xlink:title=" ">
<polygon fill="white" stroke="#bfbfbf" points="1037.27,-0.5 1037.27,-19.5 1087.27,-19.5 1087.27,-0.5 1037.27,-0.5"/>
<text text-anchor="middle" x="1062.27" y="-7.5" font-family="Helvetica,sans-Serif" font-size="10.00">chrono</text>
</a>
</g>
</g>
<!-- Node24&#45;&gt;Node25 -->
<g id="edge29" class="edge">
<title>Node24&#45;&gt;Node25</title>
<path fill="none" stroke="midnightblue" d="M976.66,-56.32C992.94,-47.7 1018.14,-34.36 1036.99,-24.39"/>
<polygon fill="midnightblue" stroke="midnightblue" points="1038.72,-27.43 1045.92,-19.65 1035.45,-21.24 1038.72,-27.43"/>
</g>
<!-- Node26&#45;&gt;Node11 -->
<g id="edge37" class="edge">
<title>Node26&#45;&gt;Node11</title>
<path fill="none" stroke="midnightblue" d="M1181.48,-57.51C1178.37,-57 1175.27,-56.49 1172.27,-56 1082.18,-41.28 975.75,-24.37 923.5,-16.09"/>
<polygon fill="midnightblue" stroke="midnightblue" points="923.92,-12.62 913.5,-14.51 922.83,-19.53 923.92,-12.62"/>
</g>
<!-- Node26&#45;&gt;Node25 -->
<g id="edge35" class="edge">
<title>Node26&#45;&gt;Node25</title>
<path fill="none" stroke="midnightblue" d="M1200.28,-56.44C1172.33,-47.24 1127.74,-32.56 1096.84,-22.38"/>
<polygon fill="midnightblue" stroke="midnightblue" points="1097.92,-19.05 1087.33,-19.25 1095.73,-25.7 1097.92,-19.05"/>
</g>
<!-- Node27 -->
<g id="node27" class="node">
<title>Node27</title>
<g id="a_node27"><a xlink:title=" ">
<polygon fill="white" stroke="#bfbfbf" points="1207.27,-0.5 1207.27,-19.5 1245.27,-19.5 1245.27,-0.5 1207.27,-0.5"/>
<text text-anchor="middle" x="1226.27" y="-7.5" font-family="Helvetica,sans-Serif" font-size="10.00">map</text>
</a>
</g>
</g>
<!-- Node26&#45;&gt;Node27 -->
<g id="edge36" class="edge">
<title>Node26&#45;&gt;Node27</title>
<path fill="none" stroke="midnightblue" d="M1226.27,-56.08C1226.27,-49.01 1226.27,-38.86 1226.27,-29.99"/>
<polygon fill="midnightblue" stroke="midnightblue" points="1229.77,-29.75 1226.27,-19.75 1222.77,-29.75 1229.77,-29.75"/>
</g>
</g>
</svg>
