<?xml version="1.0" encoding="UTF-8" standalone="no"?>
<!DOCTYPE svg PUBLIC "-//W3C//DTD SVG 1.1//EN"
 "http://www.w3.org/Graphics/SVG/1.1/DTD/svg11.dtd">
<!-- Generated by graphviz version 2.43.0 (0)
 -->
<!-- Title: Task&#45;Tracker&#45;Device/lib/3rd_party_adapters/LVGL/Screen.hpp Pages: 1 -->
<svg width="319pt" height="162pt"
 viewBox="0.00 0.00 318.50 162.00" xmlns="http://www.w3.org/2000/svg" xmlns:xlink="http://www.w3.org/1999/xlink">
<g id="graph0" class="graph" transform="scale(1 1) rotate(0) translate(4 158)">
<title>Task&#45;Tracker&#45;Device/lib/3rd_party_adapters/LVGL/Screen.hpp</title>
<polygon fill="white" stroke="transparent" points="-4,4 -4,-158 314.5,-158 314.5,4 -4,4"/>
<!-- Node1 -->
<g id="node1" class="node">
<title>Node1</title>
<g id="a_node1"><a xlink:title="Converts menu items to LVGL.">
<polygon fill="#bfbfbf" stroke="black" points="26.5,-112.5 26.5,-153.5 155.5,-153.5 155.5,-112.5 26.5,-112.5"/>
<text text-anchor="start" x="34.5" y="-141.5" font-family="Helvetica,sans-Serif" font-size="10.00">Task&#45;Tracker&#45;Device</text>
<text text-anchor="start" x="34.5" y="-130.5" font-family="Helvetica,sans-Serif" font-size="10.00">/lib/3rd_party_adapters</text>
<text text-anchor="middle" x="91" y="-119.5" font-family="Helvetica,sans-Serif" font-size="10.00">/LVGL/Screen.hpp</text>
</a>
</g>
</g>
<!-- Node2 -->
<g id="node2" class="node">
<title>Node2</title>
<g id="a_node2"><a xlink:title=" ">
<polygon fill="white" stroke="#bfbfbf" points="0,-56.5 0,-75.5 44,-75.5 44,-56.5 0,-56.5"/>
<text text-anchor="middle" x="22" y="-63.5" font-family="Helvetica,sans-Serif" font-size="10.00">lvgl.h</text>
</a>
</g>
</g>
<!-- Node1&#45;&gt;Node2 -->
<g id="edge1" class="edge">
<title>Node1&#45;&gt;Node2</title>
<path fill="none" stroke="midnightblue" d="M70.3,-112.5C60.13,-102.92 48.04,-91.53 38.5,-82.54"/>
<polygon fill="midnightblue" stroke="midnightblue" points="40.86,-79.96 31.18,-75.65 36.06,-85.06 40.86,-79.96"/>
</g>
<!-- Node3 -->
<g id="node3" class="node">
<title>Node3</title>
<g id="a_node3"><a xlink:title=" ">
<polygon fill="white" stroke="#bfbfbf" points="62,-56.5 62,-75.5 120,-75.5 120,-56.5 62,-56.5"/>
<text text-anchor="middle" x="91" y="-63.5" font-family="Helvetica,sans-Serif" font-size="10.00">memory</text>
</a>
</g>
</g>
<!-- Node1&#45;&gt;Node3 -->
<g id="edge2" class="edge">
<title>Node1&#45;&gt;Node3</title>
<path fill="none" stroke="midnightblue" d="M91,-112.5C91,-104.07 91,-94.24 91,-85.87"/>
<polygon fill="midnightblue" stroke="midnightblue" points="94.5,-85.65 91,-75.65 87.5,-85.65 94.5,-85.65"/>
</g>
<!-- Node4 -->
<g id="node4" class="node">
<title>Node4</title>
<g id="a_node4"><a xlink:href="MenuItem_8hpp.xhtml" target="_top" xlink:title=" ">
<polygon fill="white" stroke="black" points="138.5,-56.5 138.5,-75.5 307.5,-75.5 307.5,-56.5 138.5,-56.5"/>
<text text-anchor="middle" x="223" y="-63.5" font-family="Helvetica,sans-Serif" font-size="10.00">user_interaction/MenuItem.hpp</text>
</a>
</g>
</g>
<!-- Node1&#45;&gt;Node4 -->
<g id="edge3" class="edge">
<title>Node1&#45;&gt;Node4</title>
<path fill="none" stroke="midnightblue" d="M130.6,-112.5C151.82,-102.05 177.38,-89.46 196.24,-80.18"/>
<polygon fill="midnightblue" stroke="midnightblue" points="198,-83.21 205.43,-75.65 194.91,-76.93 198,-83.21"/>
</g>
<!-- Node5 -->
<g id="node5" class="node">
<title>Node5</title>
<g id="a_node5"><a xlink:title=" ">
<polygon fill="white" stroke="#bfbfbf" points="133,-0.5 133,-19.5 183,-19.5 183,-0.5 133,-0.5"/>
<text text-anchor="middle" x="158" y="-7.5" font-family="Helvetica,sans-Serif" font-size="10.00">cstdint</text>
</a>
</g>
</g>
<!-- Node4&#45;&gt;Node5 -->
<g id="edge4" class="edge">
<title>Node4&#45;&gt;Node5</title>
<path fill="none" stroke="midnightblue" d="M212.56,-56.32C202.85,-48.26 188.18,-36.08 176.5,-26.37"/>
<polygon fill="midnightblue" stroke="midnightblue" points="178.56,-23.53 168.63,-19.83 174.09,-28.92 178.56,-23.53"/>
</g>
<!-- Node6 -->
<g id="node6" class="node">
<title>Node6</title>
<g id="a_node6"><a xlink:title=" ">
<polygon fill="white" stroke="#bfbfbf" points="201,-0.5 201,-19.5 245,-19.5 245,-0.5 201,-0.5"/>
<text text-anchor="middle" x="223" y="-7.5" font-family="Helvetica,sans-Serif" font-size="10.00">string</text>
</a>
</g>
</g>
<!-- Node4&#45;&gt;Node6 -->
<g id="edge5" class="edge">
<title>Node4&#45;&gt;Node6</title>
<path fill="none" stroke="midnightblue" d="M223,-56.08C223,-49.01 223,-38.86 223,-29.99"/>
<polygon fill="midnightblue" stroke="midnightblue" points="226.5,-29.75 223,-19.75 219.5,-29.75 226.5,-29.75"/>
</g>
<!-- Node7 -->
<g id="node7" class="node">
<title>Node7</title>
<g id="a_node7"><a xlink:title=" ">
<polygon fill="white" stroke="#bfbfbf" points="263.5,-0.5 263.5,-19.5 310.5,-19.5 310.5,-0.5 263.5,-0.5"/>
<text text-anchor="middle" x="287" y="-7.5" font-family="Helvetica,sans-Serif" font-size="10.00">vector</text>
</a>
</g>
</g>
<!-- Node4&#45;&gt;Node7 -->
<g id="edge6" class="edge">
<title>Node4&#45;&gt;Node7</title>
<path fill="none" stroke="midnightblue" d="M233.28,-56.32C242.84,-48.26 257.28,-36.08 268.78,-26.37"/>
<polygon fill="midnightblue" stroke="midnightblue" points="271.14,-28.96 276.53,-19.83 266.63,-23.61 271.14,-28.96"/>
</g>
</g>
</svg>
