<?xml version="1.0" encoding="UTF-8" standalone="no"?>
<!DOCTYPE svg PUBLIC "-//W3C//DTD SVG 1.1//EN"
 "http://www.w3.org/Graphics/SVG/1.1/DTD/svg11.dtd">
<!-- Generated by graphviz version 2.43.0 (0)
 -->
<!-- Title: Task&#45;Tracker&#45;Device/lib/3rd_party_adapters/LVGL/Screen.cpp Pages: 1 -->
<svg width="319pt" height="218pt"
 viewBox="0.00 0.00 318.50 218.00" xmlns="http://www.w3.org/2000/svg" xmlns:xlink="http://www.w3.org/1999/xlink">
<g id="graph0" class="graph" transform="scale(1 1) rotate(0) translate(4 214)">
<title>Task&#45;Tracker&#45;Device/lib/3rd_party_adapters/LVGL/Screen.cpp</title>
<polygon fill="white" stroke="transparent" points="-4,4 -4,-214 314.5,-214 314.5,4 -4,4"/>
<!-- Node1 -->
<g id="node1" class="node">
<title>Node1</title>
<g id="a_node1"><a xlink:title=" ">
<polygon fill="#bfbfbf" stroke="black" points="105.5,-168.5 105.5,-209.5 234.5,-209.5 234.5,-168.5 105.5,-168.5"/>
<text text-anchor="start" x="113.5" y="-197.5" font-family="Helvetica,sans-Serif" font-size="10.00">Task&#45;Tracker&#45;Device</text>
<text text-anchor="start" x="113.5" y="-186.5" font-family="Helvetica,sans-Serif" font-size="10.00">/lib/3rd_party_adapters</text>
<text text-anchor="middle" x="170" y="-175.5" font-family="Helvetica,sans-Serif" font-size="10.00">/LVGL/Screen.cpp</text>
</a>
</g>
</g>
<!-- Node2 -->
<g id="node2" class="node">
<title>Node2</title>
<g id="a_node2"><a xlink:href="Screen_8hpp.xhtml" target="_top" xlink:title="Converts menu items to LVGL.">
<polygon fill="white" stroke="black" points="55.5,-112.5 55.5,-131.5 126.5,-131.5 126.5,-112.5 55.5,-112.5"/>
<text text-anchor="middle" x="91" y="-119.5" font-family="Helvetica,sans-Serif" font-size="10.00">Screen.hpp</text>
</a>
</g>
</g>
<!-- Node1&#45;&gt;Node2 -->
<g id="edge1" class="edge">
<title>Node1&#45;&gt;Node2</title>
<path fill="none" stroke="midnightblue" d="M146.3,-168.5C134.42,-158.72 120.26,-147.07 109.24,-138.01"/>
<polygon fill="midnightblue" stroke="midnightblue" points="111.46,-135.3 101.52,-131.65 107.01,-140.71 111.46,-135.3"/>
</g>
<!-- Node9 -->
<g id="node9" class="node">
<title>Node9</title>
<g id="a_node9"><a xlink:title=" ">
<polygon fill="white" stroke="#bfbfbf" points="144.5,-112.5 144.5,-131.5 195.5,-131.5 195.5,-112.5 144.5,-112.5"/>
<text text-anchor="middle" x="170" y="-119.5" font-family="Helvetica,sans-Serif" font-size="10.00">math.h</text>
</a>
</g>
</g>
<!-- Node1&#45;&gt;Node9 -->
<g id="edge8" class="edge">
<title>Node1&#45;&gt;Node9</title>
<path fill="none" stroke="midnightblue" d="M170,-168.5C170,-160.07 170,-150.24 170,-141.87"/>
<polygon fill="midnightblue" stroke="midnightblue" points="173.5,-141.65 170,-131.65 166.5,-141.65 173.5,-141.65"/>
</g>
<!-- Node10 -->
<g id="node10" class="node">
<title>Node10</title>
<g id="a_node10"><a xlink:title=" ">
<polygon fill="white" stroke="#bfbfbf" points="213.5,-112.5 213.5,-131.5 256.5,-131.5 256.5,-112.5 213.5,-112.5"/>
<text text-anchor="middle" x="235" y="-119.5" font-family="Helvetica,sans-Serif" font-size="10.00">stack</text>
</a>
</g>
</g>
<!-- Node1&#45;&gt;Node10 -->
<g id="edge9" class="edge">
<title>Node1&#45;&gt;Node10</title>
<path fill="none" stroke="midnightblue" d="M189.5,-168.5C198.99,-159.01 210.24,-147.76 219.19,-138.81"/>
<polygon fill="midnightblue" stroke="midnightblue" points="221.75,-141.2 226.35,-131.65 216.8,-136.25 221.75,-141.2"/>
</g>
<!-- Node3 -->
<g id="node3" class="node">
<title>Node3</title>
<g id="a_node3"><a xlink:title=" ">
<polygon fill="white" stroke="#bfbfbf" points="0,-56.5 0,-75.5 44,-75.5 44,-56.5 0,-56.5"/>
<text text-anchor="middle" x="22" y="-63.5" font-family="Helvetica,sans-Serif" font-size="10.00">lvgl.h</text>
</a>
</g>
</g>
<!-- Node2&#45;&gt;Node3 -->
<g id="edge2" class="edge">
<title>Node2&#45;&gt;Node3</title>
<path fill="none" stroke="midnightblue" d="M79.91,-112.32C69.51,-104.18 53.74,-91.84 41.28,-82.09"/>
<polygon fill="midnightblue" stroke="midnightblue" points="43.32,-79.24 33.29,-75.83 39.01,-84.75 43.32,-79.24"/>
</g>
<!-- Node4 -->
<g id="node4" class="node">
<title>Node4</title>
<g id="a_node4"><a xlink:title=" ">
<polygon fill="white" stroke="#bfbfbf" points="62,-56.5 62,-75.5 120,-75.5 120,-56.5 62,-56.5"/>
<text text-anchor="middle" x="91" y="-63.5" font-family="Helvetica,sans-Serif" font-size="10.00">memory</text>
</a>
</g>
</g>
<!-- Node2&#45;&gt;Node4 -->
<g id="edge3" class="edge">
<title>Node2&#45;&gt;Node4</title>
<path fill="none" stroke="midnightblue" d="M91,-112.08C91,-105.01 91,-94.86 91,-85.99"/>
<polygon fill="midnightblue" stroke="midnightblue" points="94.5,-85.75 91,-75.75 87.5,-85.75 94.5,-85.75"/>
</g>
<!-- Node5 -->
<g id="node5" class="node">
<title>Node5</title>
<g id="a_node5"><a xlink:href="MenuItem_8hpp.xhtml" target="_top" xlink:title=" ">
<polygon fill="white" stroke="black" points="138.5,-56.5 138.5,-75.5 307.5,-75.5 307.5,-56.5 138.5,-56.5"/>
<text text-anchor="middle" x="223" y="-63.5" font-family="Helvetica,sans-Serif" font-size="10.00">user_interaction/MenuItem.hpp</text>
</a>
</g>
</g>
<!-- Node2&#45;&gt;Node5 -->
<g id="edge4" class="edge">
<title>Node2&#45;&gt;Node5</title>
<path fill="none" stroke="midnightblue" d="M111.92,-112.44C133.74,-103.52 168.15,-89.44 192.89,-79.32"/>
<polygon fill="midnightblue" stroke="midnightblue" points="194.25,-82.54 202.18,-75.52 191.6,-76.06 194.25,-82.54"/>
</g>
<!-- Node6 -->
<g id="node6" class="node">
<title>Node6</title>
<g id="a_node6"><a xlink:title=" ">
<polygon fill="white" stroke="#bfbfbf" points="133,-0.5 133,-19.5 183,-19.5 183,-0.5 133,-0.5"/>
<text text-anchor="middle" x="158" y="-7.5" font-family="Helvetica,sans-Serif" font-size="10.00">cstdint</text>
</a>
</g>
</g>
<!-- Node5&#45;&gt;Node6 -->
<g id="edge5" class="edge">
<title>Node5&#45;&gt;Node6</title>
<path fill="none" stroke="midnightblue" d="M212.56,-56.32C202.85,-48.26 188.18,-36.08 176.5,-26.37"/>
<polygon fill="midnightblue" stroke="midnightblue" points="178.56,-23.53 168.63,-19.83 174.09,-28.92 178.56,-23.53"/>
</g>
<!-- Node7 -->
<g id="node7" class="node">
<title>Node7</title>
<g id="a_node7"><a xlink:title=" ">
<polygon fill="white" stroke="#bfbfbf" points="201,-0.5 201,-19.5 245,-19.5 245,-0.5 201,-0.5"/>
<text text-anchor="middle" x="223" y="-7.5" font-family="Helvetica,sans-Serif" font-size="10.00">string</text>
</a>
</g>
</g>
<!-- Node5&#45;&gt;Node7 -->
<g id="edge6" class="edge">
<title>Node5&#45;&gt;Node7</title>
<path fill="none" stroke="midnightblue" d="M223,-56.08C223,-49.01 223,-38.86 223,-29.99"/>
<polygon fill="midnightblue" stroke="midnightblue" points="226.5,-29.75 223,-19.75 219.5,-29.75 226.5,-29.75"/>
</g>
<!-- Node8 -->
<g id="node8" class="node">
<title>Node8</title>
<g id="a_node8"><a xlink:title=" ">
<polygon fill="white" stroke="#bfbfbf" points="263.5,-0.5 263.5,-19.5 310.5,-19.5 310.5,-0.5 263.5,-0.5"/>
<text text-anchor="middle" x="287" y="-7.5" font-family="Helvetica,sans-Serif" font-size="10.00">vector</text>
</a>
</g>
</g>
<!-- Node5&#45;&gt;Node8 -->
<g id="edge7" class="edge">
<title>Node5&#45;&gt;Node8</title>
<path fill="none" stroke="midnightblue" d="M233.28,-56.32C242.84,-48.26 257.28,-36.08 268.78,-26.37"/>
<polygon fill="midnightblue" stroke="midnightblue" points="271.14,-28.96 276.53,-19.83 266.63,-23.61 271.14,-28.96"/>
</g>
</g>
</svg>
