<?xml version="1.0" encoding="UTF-8" standalone="no"?>
<!DOCTYPE svg PUBLIC "-//W3C//DTD SVG 1.1//EN"
 "http://www.w3.org/Graphics/SVG/1.1/DTD/svg11.dtd">
<!-- Generated by graphviz version 2.43.0 (0)
 -->
<!-- Title: Task&#45;Tracker&#45;Device/lib/3rd_party_adapters/LVGL/Screen.hpp Pages: 1 -->
<svg width="284pt" height="128pt"
 viewBox="0.00 0.00 284.00 128.00" xmlns="http://www.w3.org/2000/svg" xmlns:xlink="http://www.w3.org/1999/xlink">
<g id="graph0" class="graph" transform="scale(1 1) rotate(0) translate(4 124)">
<title>Task&#45;Tracker&#45;Device/lib/3rd_party_adapters/LVGL/Screen.hpp</title>
<polygon fill="white" stroke="transparent" points="-4,4 -4,-124 280,-124 280,4 -4,4"/>
<!-- Node1 -->
<g id="node1" class="node">
<title>Node1</title>
<g id="a_node1"><a xlink:title="Converts menu items to LVGL.">
<polygon fill="#bfbfbf" stroke="black" points="73,-78.5 73,-119.5 202,-119.5 202,-78.5 73,-78.5"/>
<text text-anchor="start" x="81" y="-107.5" font-family="Helvetica,sans-Serif" font-size="10.00">Task&#45;Tracker&#45;Device</text>
<text text-anchor="start" x="81" y="-96.5" font-family="Helvetica,sans-Serif" font-size="10.00">/lib/3rd_party_adapters</text>
<text text-anchor="middle" x="137.5" y="-85.5" font-family="Helvetica,sans-Serif" font-size="10.00">/LVGL/Screen.hpp</text>
</a>
</g>
</g>
<!-- Node2 -->
<g id="node2" class="node">
<title>Node2</title>
<g id="a_node2"><a xlink:href="GuiEngine_8cpp.xhtml" target="_top" xlink:title="Connects LVGL callbacks to display driver and input device.">
<polygon fill="white" stroke="black" points="0,-0.5 0,-41.5 129,-41.5 129,-0.5 0,-0.5"/>
<text text-anchor="start" x="8" y="-29.5" font-family="Helvetica,sans-Serif" font-size="10.00">Task&#45;Tracker&#45;Device</text>
<text text-anchor="start" x="8" y="-18.5" font-family="Helvetica,sans-Serif" font-size="10.00">/lib/3rd_party_adapters</text>
<text text-anchor="middle" x="64.5" y="-7.5" font-family="Helvetica,sans-Serif" font-size="10.00">/LVGL/GuiEngine.cpp</text>
</a>
</g>
</g>
<!-- Node1&#45;&gt;Node2 -->
<g id="edge1" class="edge">
<title>Node1&#45;&gt;Node2</title>
<path fill="none" stroke="midnightblue" d="M111.76,-71.2C102.36,-61.42 91.91,-50.54 83.24,-41.51"/>
<polygon fill="midnightblue" stroke="midnightblue" points="109.25,-73.64 118.7,-78.43 114.3,-68.79 109.25,-73.64"/>
</g>
<!-- Node3 -->
<g id="node3" class="node">
<title>Node3</title>
<g id="a_node3"><a xlink:href="Screen_8cpp.xhtml" target="_top" xlink:title=" ">
<polygon fill="white" stroke="black" points="147,-0.5 147,-41.5 276,-41.5 276,-0.5 147,-0.5"/>
<text text-anchor="start" x="155" y="-29.5" font-family="Helvetica,sans-Serif" font-size="10.00">Task&#45;Tracker&#45;Device</text>
<text text-anchor="start" x="155" y="-18.5" font-family="Helvetica,sans-Serif" font-size="10.00">/lib/3rd_party_adapters</text>
<text text-anchor="middle" x="211.5" y="-7.5" font-family="Helvetica,sans-Serif" font-size="10.00">/LVGL/Screen.cpp</text>
</a>
</g>
</g>
<!-- Node1&#45;&gt;Node3 -->
<g id="edge2" class="edge">
<title>Node1&#45;&gt;Node3</title>
<path fill="none" stroke="midnightblue" d="M163.59,-71.2C173.12,-61.42 183.71,-50.54 192.51,-41.51"/>
<polygon fill="midnightblue" stroke="midnightblue" points="161.03,-68.82 156.56,-78.43 166.04,-73.71 161.03,-68.82"/>
</g>
</g>
</svg>
