<?xml version="1.0" encoding="UTF-8" standalone="no"?>
<!DOCTYPE svg PUBLIC "-//W3C//DTD SVG 1.1//EN"
 "http://www.w3.org/Graphics/SVG/1.1/DTD/svg11.dtd">
<!-- Generated by graphviz version 2.43.0 (0)
 -->
<!-- Title: lib/3rd_party_adapters/Arduino/serial_port.cpp Pages: 1 -->
<svg width="467pt" height="162pt"
 viewBox="0.00 0.00 466.50 162.00" xmlns="http://www.w3.org/2000/svg" xmlns:xlink="http://www.w3.org/1999/xlink">
<g id="graph0" class="graph" transform="scale(1 1) rotate(0) translate(4 158)">
<title>lib/3rd_party_adapters/Arduino/serial_port.cpp</title>
<polygon fill="white" stroke="transparent" points="-4,4 -4,-158 462.5,-158 462.5,4 -4,4"/>
<!-- Node1 -->
<g id="node1" class="node">
<title>Node1</title>
<g id="a_node1"><a xlink:title=" ">
<polygon fill="#bfbfbf" stroke="black" points="120.5,-123.5 120.5,-153.5 252.5,-153.5 252.5,-123.5 120.5,-123.5"/>
<text text-anchor="start" x="128.5" y="-141.5" font-family="Helvetica,sans-Serif" font-size="10.00">lib/3rd_party_adapters</text>
<text text-anchor="middle" x="186.5" y="-130.5" font-family="Helvetica,sans-Serif" font-size="10.00">/Arduino/serial_port.cpp</text>
</a>
</g>
</g>
<!-- Node2 -->
<g id="node2" class="node">
<title>Node2</title>
<g id="a_node2"><a xlink:title=" ">
<polygon fill="white" stroke="#bfbfbf" points="0,-62 0,-81 63,-81 63,-62 0,-62"/>
<text text-anchor="middle" x="31.5" y="-69" font-family="Helvetica,sans-Serif" font-size="10.00">Arduino.h</text>
</a>
</g>
</g>
<!-- Node1&#45;&gt;Node2 -->
<g id="edge1" class="edge">
<title>Node1&#45;&gt;Node2</title>
<path fill="none" stroke="midnightblue" d="M152.87,-123.4C125.55,-111.94 87.39,-95.94 61.19,-84.95"/>
<polygon fill="midnightblue" stroke="midnightblue" points="62.36,-81.65 51.79,-81.01 59.65,-88.1 62.36,-81.65"/>
</g>
<!-- Node3 -->
<g id="node3" class="node">
<title>Node3</title>
<g id="a_node3"><a xlink:title=" ">
<polygon fill="white" stroke="#bfbfbf" points="81.5,-62 81.5,-81 141.5,-81 141.5,-62 81.5,-62"/>
<text text-anchor="middle" x="111.5" y="-69" font-family="Helvetica,sans-Serif" font-size="10.00">iostream</text>
</a>
</g>
</g>
<!-- Node1&#45;&gt;Node3 -->
<g id="edge2" class="edge">
<title>Node1&#45;&gt;Node3</title>
<path fill="none" stroke="midnightblue" d="M170.23,-123.4C158.18,-112.96 141.79,-98.75 129.38,-88"/>
<polygon fill="midnightblue" stroke="midnightblue" points="131.38,-85.1 121.53,-81.19 126.8,-90.39 131.38,-85.1"/>
</g>
<!-- Node4 -->
<g id="node4" class="node">
<title>Node4</title>
<g id="a_node4"><a xlink:title=" ">
<polygon fill="white" stroke="#bfbfbf" points="160,-62 160,-81 213,-81 213,-62 160,-62"/>
<text text-anchor="middle" x="186.5" y="-69" font-family="Helvetica,sans-Serif" font-size="10.00">iterator</text>
</a>
</g>
</g>
<!-- Node1&#45;&gt;Node4 -->
<g id="edge3" class="edge">
<title>Node1&#45;&gt;Node4</title>
<path fill="none" stroke="midnightblue" d="M186.5,-123.4C186.5,-114.06 186.5,-101.71 186.5,-91.52"/>
<polygon fill="midnightblue" stroke="midnightblue" points="190,-91.19 186.5,-81.19 183,-91.19 190,-91.19"/>
</g>
<!-- Node5 -->
<g id="node5" class="node">
<title>Node5</title>
<g id="a_node5"><a xlink:href="serial__port_8hpp.xhtml" target="_top" xlink:title=" ">
<polygon fill="white" stroke="black" points="231.5,-56.5 231.5,-86.5 353.5,-86.5 353.5,-56.5 231.5,-56.5"/>
<text text-anchor="start" x="239.5" y="-74.5" font-family="Helvetica,sans-Serif" font-size="10.00">serial_interface/serial</text>
<text text-anchor="middle" x="292.5" y="-63.5" font-family="Helvetica,sans-Serif" font-size="10.00">_port.hpp</text>
</a>
</g>
</g>
<!-- Node1&#45;&gt;Node5 -->
<g id="edge4" class="edge">
<title>Node1&#45;&gt;Node5</title>
<path fill="none" stroke="midnightblue" d="M209.5,-123.4C224.5,-114.2 244.29,-102.07 260.77,-91.95"/>
<polygon fill="midnightblue" stroke="midnightblue" points="262.85,-94.79 269.54,-86.58 259.19,-88.82 262.85,-94.79"/>
</g>
<!-- Node11 -->
<g id="node11" class="node">
<title>Node11</title>
<g id="a_node11"><a xlink:title=" ">
<polygon fill="white" stroke="#bfbfbf" points="372,-62 372,-81 441,-81 441,-62 372,-62"/>
<text text-anchor="middle" x="406.5" y="-69" font-family="Helvetica,sans-Serif" font-size="10.00">type_traits</text>
</a>
</g>
</g>
<!-- Node1&#45;&gt;Node11 -->
<g id="edge10" class="edge">
<title>Node1&#45;&gt;Node11</title>
<path fill="none" stroke="midnightblue" d="M237.49,-123.44C272.71,-113.58 320.58,-99.92 362.5,-87 365.4,-86.11 368.41,-85.16 371.42,-84.2"/>
<polygon fill="midnightblue" stroke="midnightblue" points="372.53,-87.52 380.96,-81.1 370.37,-80.86 372.53,-87.52"/>
</g>
<!-- Node6 -->
<g id="node6" class="node">
<title>Node6</title>
<g id="a_node6"><a xlink:title=" ">
<polygon fill="white" stroke="#bfbfbf" points="120.5,-0.5 120.5,-19.5 162.5,-19.5 162.5,-0.5 120.5,-0.5"/>
<text text-anchor="middle" x="141.5" y="-7.5" font-family="Helvetica,sans-Serif" font-size="10.00">array</text>
</a>
</g>
</g>
<!-- Node5&#45;&gt;Node6 -->
<g id="edge5" class="edge">
<title>Node5&#45;&gt;Node6</title>
<path fill="none" stroke="midnightblue" d="M256.72,-56.4C230.96,-46.25 196.59,-32.71 172.1,-23.06"/>
<polygon fill="midnightblue" stroke="midnightblue" points="173.18,-19.72 162.6,-19.31 170.62,-26.23 173.18,-19.72"/>
</g>
<!-- Node7 -->
<g id="node7" class="node">
<title>Node7</title>
<g id="a_node7"><a xlink:title=" ">
<polygon fill="white" stroke="#bfbfbf" points="181,-0.5 181,-19.5 246,-19.5 246,-0.5 181,-0.5"/>
<text text-anchor="middle" x="213.5" y="-7.5" font-family="Helvetica,sans-Serif" font-size="10.00">functional</text>
</a>
</g>
</g>
<!-- Node5&#45;&gt;Node7 -->
<g id="edge6" class="edge">
<title>Node5&#45;&gt;Node7</title>
<path fill="none" stroke="midnightblue" d="M273.78,-56.4C261.59,-47.22 245.71,-35.26 233.31,-25.92"/>
<polygon fill="midnightblue" stroke="midnightblue" points="235.09,-22.88 225,-19.66 230.88,-28.47 235.09,-22.88"/>
</g>
<!-- Node8 -->
<g id="node8" class="node">
<title>Node8</title>
<g id="a_node8"><a xlink:title=" ">
<polygon fill="white" stroke="#bfbfbf" points="264.5,-0.5 264.5,-19.5 320.5,-19.5 320.5,-0.5 264.5,-0.5"/>
<text text-anchor="middle" x="292.5" y="-7.5" font-family="Helvetica,sans-Serif" font-size="10.00">optional</text>
</a>
</g>
</g>
<!-- Node5&#45;&gt;Node8 -->
<g id="edge7" class="edge">
<title>Node5&#45;&gt;Node8</title>
<path fill="none" stroke="midnightblue" d="M292.5,-56.4C292.5,-48.47 292.5,-38.46 292.5,-29.86"/>
<polygon fill="midnightblue" stroke="midnightblue" points="296,-29.66 292.5,-19.66 289,-29.66 296,-29.66"/>
</g>
<!-- Node9 -->
<g id="node9" class="node">
<title>Node9</title>
<g id="a_node9"><a xlink:title=" ">
<polygon fill="white" stroke="#bfbfbf" points="339,-0.5 339,-19.5 396,-19.5 396,-0.5 339,-0.5"/>
<text text-anchor="middle" x="367.5" y="-7.5" font-family="Helvetica,sans-Serif" font-size="10.00">ostream</text>
</a>
</g>
</g>
<!-- Node5&#45;&gt;Node9 -->
<g id="edge8" class="edge">
<title>Node5&#45;&gt;Node9</title>
<path fill="none" stroke="midnightblue" d="M310.27,-56.4C321.85,-47.22 336.92,-35.26 348.7,-25.92"/>
<polygon fill="midnightblue" stroke="midnightblue" points="350.93,-28.61 356.59,-19.66 346.58,-23.13 350.93,-28.61"/>
</g>
<!-- Node10 -->
<g id="node10" class="node">
<title>Node10</title>
<g id="a_node10"><a xlink:title=" ">
<polygon fill="white" stroke="#bfbfbf" points="414.5,-0.5 414.5,-19.5 458.5,-19.5 458.5,-0.5 414.5,-0.5"/>
<text text-anchor="middle" x="436.5" y="-7.5" font-family="Helvetica,sans-Serif" font-size="10.00">string</text>
</a>
</g>
</g>
<!-- Node5&#45;&gt;Node10 -->
<g id="edge9" class="edge">
<title>Node5&#45;&gt;Node10</title>
<path fill="none" stroke="midnightblue" d="M326.63,-56.4C350.79,-46.42 382.9,-33.15 406.17,-23.53"/>
<polygon fill="midnightblue" stroke="midnightblue" points="407.64,-26.71 415.55,-19.66 404.97,-20.24 407.64,-26.71"/>
</g>
</g>
</svg>
