<?xml version="1.0" encoding="UTF-8" standalone="no"?>
<!DOCTYPE svg PUBLIC "-//W3C//DTD SVG 1.1//EN"
 "http://www.w3.org/Graphics/SVG/1.1/DTD/svg11.dtd">
<!-- Generated by graphviz version 2.43.0 (0)
 -->
<!-- Title: Task&#45;Tracker&#45;Device/lib/board_adapters/sound_output_interface/sound_output.hpp Pages: 1 -->
<svg width="274pt" height="150pt"
 viewBox="0.00 0.00 273.50 150.00" xmlns="http://www.w3.org/2000/svg" xmlns:xlink="http://www.w3.org/1999/xlink">
<g id="graph0" class="graph" transform="scale(1 1) rotate(0) translate(4 146)">
<title>Task&#45;Tracker&#45;Device/lib/board_adapters/sound_output_interface/sound_output.hpp</title>
<polygon fill="white" stroke="transparent" points="-4,4 -4,-146 269.5,-146 269.5,4 -4,4"/>
<!-- Node1 -->
<g id="node1" class="node">
<title>Node1</title>
<g id="a_node1"><a xlink:title=" ">
<polygon fill="#bfbfbf" stroke="black" points="60.5,-89.5 60.5,-141.5 194.5,-141.5 194.5,-89.5 60.5,-89.5"/>
<text text-anchor="start" x="68.5" y="-129.5" font-family="Helvetica,sans-Serif" font-size="10.00">Task&#45;Tracker&#45;Device</text>
<text text-anchor="start" x="68.5" y="-118.5" font-family="Helvetica,sans-Serif" font-size="10.00">/lib/board_adapters</text>
<text text-anchor="start" x="68.5" y="-107.5" font-family="Helvetica,sans-Serif" font-size="10.00">/sound_output_interface</text>
<text text-anchor="middle" x="127.5" y="-96.5" font-family="Helvetica,sans-Serif" font-size="10.00">/sound_output.hpp</text>
</a>
</g>
</g>
<!-- Node2 -->
<g id="node2" class="node">
<title>Node2</title>
<g id="a_node2"><a xlink:href="board_8cpp.xhtml" target="_top" xlink:title=" ">
<polygon fill="white" stroke="black" points="0,-6 0,-47 113,-47 113,-6 0,-6"/>
<text text-anchor="start" x="8" y="-35" font-family="Helvetica,sans-Serif" font-size="10.00">Task&#45;Tracker&#45;Device</text>
<text text-anchor="start" x="8" y="-24" font-family="Helvetica,sans-Serif" font-size="10.00">/lib/board_adapters</text>
<text text-anchor="middle" x="56.5" y="-13" font-family="Helvetica,sans-Serif" font-size="10.00">/board.cpp</text>
</a>
</g>
</g>
<!-- Node1&#45;&gt;Node2 -->
<g id="edge1" class="edge">
<title>Node1&#45;&gt;Node2</title>
<path fill="none" stroke="midnightblue" d="M100.58,-81.51C91.11,-69.9 80.76,-57.23 72.48,-47.08"/>
<polygon fill="midnightblue" stroke="midnightblue" points="97.93,-83.8 106.96,-89.34 103.35,-79.38 97.93,-83.8"/>
</g>
<!-- Node3 -->
<g id="node3" class="node">
<title>Node3</title>
<g id="a_node3"><a xlink:href="sound__output_8cpp.xhtml" target="_top" xlink:title=" ">
<polygon fill="white" stroke="black" points="131.5,-0.5 131.5,-52.5 265.5,-52.5 265.5,-0.5 131.5,-0.5"/>
<text text-anchor="start" x="139.5" y="-40.5" font-family="Helvetica,sans-Serif" font-size="10.00">Task&#45;Tracker&#45;Device</text>
<text text-anchor="start" x="139.5" y="-29.5" font-family="Helvetica,sans-Serif" font-size="10.00">/lib/board_adapters</text>
<text text-anchor="start" x="139.5" y="-18.5" font-family="Helvetica,sans-Serif" font-size="10.00">/sound_output_interface</text>
<text text-anchor="middle" x="198.5" y="-7.5" font-family="Helvetica,sans-Serif" font-size="10.00">/sound_output.cpp</text>
</a>
</g>
</g>
<!-- Node1&#45;&gt;Node3 -->
<g id="edge2" class="edge">
<title>Node1&#45;&gt;Node3</title>
<path fill="none" stroke="midnightblue" d="M154.43,-81.5C162.25,-71.92 170.66,-61.62 178.01,-52.61"/>
<polygon fill="midnightblue" stroke="midnightblue" points="151.65,-79.38 148.04,-89.34 157.07,-83.8 151.65,-79.38"/>
</g>
</g>
</svg>
