<?xml version="1.0" encoding="UTF-8" standalone="no"?>
<!DOCTYPE svg PUBLIC "-//W3C//DTD SVG 1.1//EN"
 "http://www.w3.org/Graphics/SVG/1.1/DTD/svg11.dtd">
<!-- Generated by graphviz version 2.43.0 (0)
 -->
<!-- Title: lib/application_business_rules/user_interaction/statusindicators_factory_interface.hpp Pages: 1 -->
<svg width="411pt" height="139pt"
 viewBox="0.00 0.00 410.50 139.00" xmlns="http://www.w3.org/2000/svg" xmlns:xlink="http://www.w3.org/1999/xlink">
<g id="graph0" class="graph" transform="scale(1 1) rotate(0) translate(4 135)">
<title>lib/application_business_rules/user_interaction/statusindicators_factory_interface.hpp</title>
<polygon fill="white" stroke="transparent" points="-4,4 -4,-135 406.5,-135 406.5,4 -4,4"/>
<!-- Node1 -->
<g id="node1" class="node">
<title>Node1</title>
<g id="a_node1"><a xlink:title="Dependency injection for the keypad.">
<polygon fill="#bfbfbf" stroke="black" points="173.5,-78.5 173.5,-130.5 310.5,-130.5 310.5,-78.5 173.5,-78.5"/>
<text text-anchor="start" x="181.5" y="-118.5" font-family="Helvetica,sans-Serif" font-size="10.00">lib/application_business</text>
<text text-anchor="start" x="181.5" y="-107.5" font-family="Helvetica,sans-Serif" font-size="10.00">_rules/user_interaction</text>
<text text-anchor="start" x="181.5" y="-96.5" font-family="Helvetica,sans-Serif" font-size="10.00">/statusindicators_factory</text>
<text text-anchor="middle" x="242" y="-85.5" font-family="Helvetica,sans-Serif" font-size="10.00">_interface.hpp</text>
</a>
</g>
</g>
<!-- Node2 -->
<g id="node2" class="node">
<title>Node2</title>
<g id="a_node2"><a xlink:href="statusindicators__factory__interface_8cpp.xhtml" target="_top" xlink:title=" ">
<polygon fill="white" stroke="black" points="0,-0.5 0,-41.5 184,-41.5 184,-0.5 0,-0.5"/>
<text text-anchor="start" x="8" y="-29.5" font-family="Helvetica,sans-Serif" font-size="10.00">lib/board_adapters</text>
<text text-anchor="start" x="8" y="-18.5" font-family="Helvetica,sans-Serif" font-size="10.00">/status_indicators/statusindicators</text>
<text text-anchor="middle" x="92" y="-7.5" font-family="Helvetica,sans-Serif" font-size="10.00">_factory_interface.cpp</text>
</a>
</g>
</g>
<!-- Node1&#45;&gt;Node2 -->
<g id="edge1" class="edge">
<title>Node1&#45;&gt;Node2</title>
<path fill="none" stroke="midnightblue" d="M186.95,-73.59C167.4,-62.97 145.91,-51.29 128.32,-41.73"/>
<polygon fill="midnightblue" stroke="midnightblue" points="185.31,-76.68 195.77,-78.38 188.66,-70.53 185.31,-76.68"/>
</g>
<!-- Node3 -->
<g id="node3" class="node">
<title>Node3</title>
<g id="a_node3"><a xlink:href="main_8cpp.xhtml" target="_top" xlink:title=" ">
<polygon fill="white" stroke="black" points="202.5,-11.5 202.5,-30.5 281.5,-30.5 281.5,-11.5 202.5,-11.5"/>
<text text-anchor="middle" x="242" y="-18.5" font-family="Helvetica,sans-Serif" font-size="10.00">src/main.cpp</text>
</a>
</g>
</g>
<!-- Node1&#45;&gt;Node3 -->
<g id="edge2" class="edge">
<title>Node1&#45;&gt;Node3</title>
<path fill="none" stroke="midnightblue" d="M242,-67.88C242,-54.1 242,-39.52 242,-30.59"/>
<polygon fill="midnightblue" stroke="midnightblue" points="238.5,-68.16 242,-78.16 245.5,-68.16 238.5,-68.16"/>
</g>
<!-- Node4 -->
<g id="node4" class="node">
<title>Node4</title>
<g id="a_node4"><a xlink:href="test__hmi_8cpp.xhtml" target="_top" xlink:title=" ">
<polygon fill="white" stroke="black" points="299.5,-6 299.5,-36 402.5,-36 402.5,-6 299.5,-6"/>
<text text-anchor="start" x="307.5" y="-24" font-family="Helvetica,sans-Serif" font-size="10.00">test/test_hmi/test</text>
<text text-anchor="middle" x="351" y="-13" font-family="Helvetica,sans-Serif" font-size="10.00">_hmi.cpp</text>
</a>
</g>
</g>
<!-- Node1&#45;&gt;Node4 -->
<g id="edge3" class="edge">
<title>Node1&#45;&gt;Node4</title>
<path fill="none" stroke="midnightblue" d="M283.66,-72.35C300.42,-59.82 318.91,-46 332.26,-36.01"/>
<polygon fill="midnightblue" stroke="midnightblue" points="281.51,-69.59 275.59,-78.38 285.7,-75.2 281.51,-69.59"/>
</g>
</g>
</svg>
