<?xml version="1.0" encoding="UTF-8" standalone="no"?>
<!DOCTYPE svg PUBLIC "-//W3C//DTD SVG 1.1//EN"
 "http://www.w3.org/Graphics/SVG/1.1/DTD/svg11.dtd">
<!-- Generated by graphviz version 2.43.0 (0)
 -->
<!-- Title: Task&#45;Tracker&#45;Device/lib/utilities/string_helpers.hpp Pages: 1 -->
<svg width="516pt" height="228pt"
 viewBox="0.00 0.00 515.50 228.00" xmlns="http://www.w3.org/2000/svg" xmlns:xlink="http://www.w3.org/1999/xlink">
<g id="graph0" class="graph" transform="scale(1 1) rotate(0) translate(4 224)">
<title>Task&#45;Tracker&#45;Device/lib/utilities/string_helpers.hpp</title>
<polygon fill="white" stroke="transparent" points="-4,4 -4,-224 511.5,-224 511.5,4 -4,4"/>
<!-- Node1 -->
<g id="node1" class="node">
<title>Node1</title>
<g id="a_node1"><a xlink:title=" ">
<polygon fill="#bfbfbf" stroke="black" points="242,-178.5 242,-219.5 355,-219.5 355,-178.5 242,-178.5"/>
<text text-anchor="start" x="250" y="-207.5" font-family="Helvetica,sans-Serif" font-size="10.00">Task&#45;Tracker&#45;Device</text>
<text text-anchor="start" x="250" y="-196.5" font-family="Helvetica,sans-Serif" font-size="10.00">/lib/utilities/string</text>
<text text-anchor="middle" x="298.5" y="-185.5" font-family="Helvetica,sans-Serif" font-size="10.00">_helpers.hpp</text>
</a>
</g>
</g>
<!-- Node2 -->
<g id="node2" class="node">
<title>Node2</title>
<g id="a_node2"><a xlink:href="command__line__interpreter_8hpp.xhtml" target="_top" xlink:title=" ">
<polygon fill="white" stroke="black" points="55,-89.5 55,-141.5 224,-141.5 224,-89.5 55,-89.5"/>
<text text-anchor="start" x="63" y="-129.5" font-family="Helvetica,sans-Serif" font-size="10.00">Task&#45;Tracker&#45;Device</text>
<text text-anchor="start" x="63" y="-118.5" font-family="Helvetica,sans-Serif" font-size="10.00">/lib/application_business</text>
<text text-anchor="start" x="63" y="-107.5" font-family="Helvetica,sans-Serif" font-size="10.00">_rules/serial_interface</text>
<text text-anchor="middle" x="139.5" y="-96.5" font-family="Helvetica,sans-Serif" font-size="10.00">/command_line_interpreter.hpp</text>
</a>
</g>
</g>
<!-- Node1&#45;&gt;Node2 -->
<g id="edge1" class="edge">
<title>Node1&#45;&gt;Node2</title>
<path fill="none" stroke="midnightblue" d="M251.27,-173.79C231.45,-163.63 208.42,-151.82 188.42,-141.58"/>
<polygon fill="midnightblue" stroke="midnightblue" points="249.92,-177.03 260.42,-178.48 253.11,-170.8 249.92,-177.03"/>
</g>
<!-- Node5 -->
<g id="node5" class="node">
<title>Node5</title>
<g id="a_node5"><a xlink:href="string__helpers_8cpp.xhtml" target="_top" xlink:title=" ">
<polygon fill="white" stroke="black" points="242,-95 242,-136 355,-136 355,-95 242,-95"/>
<text text-anchor="start" x="250" y="-124" font-family="Helvetica,sans-Serif" font-size="10.00">Task&#45;Tracker&#45;Device</text>
<text text-anchor="start" x="250" y="-113" font-family="Helvetica,sans-Serif" font-size="10.00">/lib/utilities/string</text>
<text text-anchor="middle" x="298.5" y="-102" font-family="Helvetica,sans-Serif" font-size="10.00">_helpers.cpp</text>
</a>
</g>
</g>
<!-- Node1&#45;&gt;Node5 -->
<g id="edge4" class="edge">
<title>Node1&#45;&gt;Node5</title>
<path fill="none" stroke="midnightblue" d="M298.5,-168.06C298.5,-157.38 298.5,-145.63 298.5,-136.05"/>
<polygon fill="midnightblue" stroke="midnightblue" points="295,-168.27 298.5,-178.27 302,-168.27 295,-168.27"/>
</g>
<!-- Node6 -->
<g id="node6" class="node">
<title>Node6</title>
<g id="a_node6"><a xlink:href="test__string__helpers_8cpp.xhtml" target="_top" xlink:title=" ">
<polygon fill="white" stroke="black" points="373.5,-95 373.5,-136 507.5,-136 507.5,-95 373.5,-95"/>
<text text-anchor="start" x="381.5" y="-124" font-family="Helvetica,sans-Serif" font-size="10.00">Task&#45;Tracker&#45;Device</text>
<text text-anchor="start" x="381.5" y="-113" font-family="Helvetica,sans-Serif" font-size="10.00">/test/test_string_helpers</text>
<text text-anchor="middle" x="440.5" y="-102" font-family="Helvetica,sans-Serif" font-size="10.00">/test_string_helpers.cpp</text>
</a>
</g>
</g>
<!-- Node1&#45;&gt;Node6 -->
<g id="edge5" class="edge">
<title>Node1&#45;&gt;Node6</title>
<path fill="none" stroke="midnightblue" d="M341.45,-173.35C362.22,-161.43 386.79,-147.32 406.27,-136.14"/>
<polygon fill="midnightblue" stroke="midnightblue" points="339.44,-170.47 332.51,-178.48 342.93,-176.54 339.44,-170.47"/>
</g>
<!-- Node3 -->
<g id="node3" class="node">
<title>Node3</title>
<g id="a_node3"><a xlink:href="Protocol_8cpp.xhtml" target="_top" xlink:title=" ">
<polygon fill="white" stroke="black" points="0,-0.5 0,-52.5 137,-52.5 137,-0.5 0,-0.5"/>
<text text-anchor="start" x="8" y="-40.5" font-family="Helvetica,sans-Serif" font-size="10.00">Task&#45;Tracker&#45;Device</text>
<text text-anchor="start" x="8" y="-29.5" font-family="Helvetica,sans-Serif" font-size="10.00">/lib/application_business</text>
<text text-anchor="start" x="8" y="-18.5" font-family="Helvetica,sans-Serif" font-size="10.00">_rules/serial_interface</text>
<text text-anchor="middle" x="68.5" y="-7.5" font-family="Helvetica,sans-Serif" font-size="10.00">/Protocol.cpp</text>
</a>
</g>
</g>
<!-- Node2&#45;&gt;Node3 -->
<g id="edge2" class="edge">
<title>Node2&#45;&gt;Node3</title>
<path fill="none" stroke="midnightblue" d="M112.57,-81.5C104.75,-71.92 96.34,-61.62 88.99,-52.61"/>
<polygon fill="midnightblue" stroke="midnightblue" points="109.93,-83.8 118.96,-89.34 115.35,-79.38 109.93,-83.8"/>
</g>
<!-- Node4 -->
<g id="node4" class="node">
<title>Node4</title>
<g id="a_node4"><a xlink:href="test__cli_8cpp.xhtml" target="_top" xlink:title=" ">
<polygon fill="white" stroke="black" points="155,-6 155,-47 268,-47 268,-6 155,-6"/>
<text text-anchor="start" x="163" y="-35" font-family="Helvetica,sans-Serif" font-size="10.00">Task&#45;Tracker&#45;Device</text>
<text text-anchor="start" x="163" y="-24" font-family="Helvetica,sans-Serif" font-size="10.00">/test/test_cli/test</text>
<text text-anchor="middle" x="211.5" y="-13" font-family="Helvetica,sans-Serif" font-size="10.00">_cli.cpp</text>
</a>
</g>
</g>
<!-- Node2&#45;&gt;Node4 -->
<g id="edge3" class="edge">
<title>Node2&#45;&gt;Node4</title>
<path fill="none" stroke="midnightblue" d="M166.8,-81.51C176.41,-69.9 186.89,-57.23 195.29,-47.08"/>
<polygon fill="midnightblue" stroke="midnightblue" points="164,-79.4 160.33,-89.34 169.4,-83.86 164,-79.4"/>
</g>
</g>
</svg>
