<?xml version="1.0" encoding="UTF-8" standalone="no"?>
<!DOCTYPE svg PUBLIC "-//W3C//DTD SVG 1.1//EN"
 "http://www.w3.org/Graphics/SVG/1.1/DTD/svg11.dtd">
<!-- Generated by graphviz version 2.43.0 (0)
 -->
<!-- Title: lib/utilities/string_helpers.hpp Pages: 1 -->
<svg width="350pt" height="95pt"
 viewBox="0.00 0.00 349.50 95.00" xmlns="http://www.w3.org/2000/svg" xmlns:xlink="http://www.w3.org/1999/xlink">
<g id="graph0" class="graph" transform="scale(1 1) rotate(0) translate(4 91)">
<title>lib/utilities/string_helpers.hpp</title>
<polygon fill="white" stroke="transparent" points="-4,4 -4,-91 345.5,-91 345.5,4 -4,4"/>
<!-- Node1 -->
<g id="node1" class="node">
<title>Node1</title>
<g id="a_node1"><a xlink:title=" ">
<polygon fill="#bfbfbf" stroke="black" points="131.5,-56.5 131.5,-86.5 230.5,-86.5 230.5,-56.5 131.5,-56.5"/>
<text text-anchor="start" x="139.5" y="-74.5" font-family="Helvetica,sans-Serif" font-size="10.00">lib/utilities/string</text>
<text text-anchor="middle" x="181" y="-63.5" font-family="Helvetica,sans-Serif" font-size="10.00">_helpers.hpp</text>
</a>
</g>
</g>
<!-- Node2 -->
<g id="node2" class="node">
<title>Node2</title>
<g id="a_node2"><a xlink:title=" ">
<polygon fill="white" stroke="#bfbfbf" points="0,-0.5 0,-19.5 56,-19.5 56,-0.5 0,-0.5"/>
<text text-anchor="middle" x="28" y="-7.5" font-family="Helvetica,sans-Serif" font-size="10.00">iomanip</text>
</a>
</g>
</g>
<!-- Node1&#45;&gt;Node2 -->
<g id="edge1" class="edge">
<title>Node1&#45;&gt;Node2</title>
<path fill="none" stroke="midnightblue" d="M144.74,-56.4C118.96,-46.37 84.64,-33.03 59.9,-23.4"/>
<polygon fill="midnightblue" stroke="midnightblue" points="60.85,-20.02 50.26,-19.66 58.31,-26.54 60.85,-20.02"/>
</g>
<!-- Node3 -->
<g id="node3" class="node">
<title>Node3</title>
<g id="a_node3"><a xlink:title=" ">
<polygon fill="white" stroke="#bfbfbf" points="74,-0.5 74,-19.5 130,-19.5 130,-0.5 74,-0.5"/>
<text text-anchor="middle" x="102" y="-7.5" font-family="Helvetica,sans-Serif" font-size="10.00">sstream</text>
</a>
</g>
</g>
<!-- Node1&#45;&gt;Node3 -->
<g id="edge2" class="edge">
<title>Node1&#45;&gt;Node3</title>
<path fill="none" stroke="midnightblue" d="M162.28,-56.4C150.09,-47.22 134.21,-35.26 121.81,-25.92"/>
<polygon fill="midnightblue" stroke="midnightblue" points="123.59,-22.88 113.5,-19.66 119.38,-28.47 123.59,-22.88"/>
</g>
<!-- Node4 -->
<g id="node4" class="node">
<title>Node4</title>
<g id="a_node4"><a xlink:title=" ">
<polygon fill="white" stroke="#bfbfbf" points="148.5,-0.5 148.5,-19.5 213.5,-19.5 213.5,-0.5 148.5,-0.5"/>
<text text-anchor="middle" x="181" y="-7.5" font-family="Helvetica,sans-Serif" font-size="10.00">stdexcept</text>
</a>
</g>
</g>
<!-- Node1&#45;&gt;Node4 -->
<g id="edge3" class="edge">
<title>Node1&#45;&gt;Node4</title>
<path fill="none" stroke="midnightblue" d="M181,-56.4C181,-48.47 181,-38.46 181,-29.86"/>
<polygon fill="midnightblue" stroke="midnightblue" points="184.5,-29.66 181,-19.66 177.5,-29.66 184.5,-29.66"/>
</g>
<!-- Node5 -->
<g id="node5" class="node">
<title>Node5</title>
<g id="a_node5"><a xlink:title=" ">
<polygon fill="white" stroke="#bfbfbf" points="232,-0.5 232,-19.5 276,-19.5 276,-0.5 232,-0.5"/>
<text text-anchor="middle" x="254" y="-7.5" font-family="Helvetica,sans-Serif" font-size="10.00">string</text>
</a>
</g>
</g>
<!-- Node1&#45;&gt;Node5 -->
<g id="edge4" class="edge">
<title>Node1&#45;&gt;Node5</title>
<path fill="none" stroke="midnightblue" d="M198.3,-56.4C209.45,-47.31 223.95,-35.49 235.36,-26.19"/>
<polygon fill="midnightblue" stroke="midnightblue" points="237.84,-28.69 243.38,-19.66 233.42,-23.26 237.84,-28.69"/>
</g>
<!-- Node6 -->
<g id="node6" class="node">
<title>Node6</title>
<g id="a_node6"><a xlink:title=" ">
<polygon fill="white" stroke="#bfbfbf" points="294.5,-0.5 294.5,-19.5 341.5,-19.5 341.5,-0.5 294.5,-0.5"/>
<text text-anchor="middle" x="318" y="-7.5" font-family="Helvetica,sans-Serif" font-size="10.00">vector</text>
</a>
</g>
</g>
<!-- Node1&#45;&gt;Node6 -->
<g id="edge5" class="edge">
<title>Node1&#45;&gt;Node6</title>
<path fill="none" stroke="midnightblue" d="M213.47,-56.4C236.35,-46.46 266.73,-33.26 288.84,-23.66"/>
<polygon fill="midnightblue" stroke="midnightblue" points="290.29,-26.85 298.07,-19.66 287.5,-20.43 290.29,-26.85"/>
</g>
</g>
</svg>
