<?xml version="1.0" encoding="UTF-8" standalone="no"?>
<!DOCTYPE svg PUBLIC "-//W3C//DTD SVG 1.1//EN"
 "http://www.w3.org/Graphics/SVG/1.1/DTD/svg11.dtd">
<!-- Generated by graphviz version 2.43.0 (0)
 -->
<!-- Title: GuiEngine::Configuration Pages: 1 -->
<svg width="331pt" height="193pt"
 viewBox="0.00 0.00 331.00 193.00" xmlns="http://www.w3.org/2000/svg" xmlns:xlink="http://www.w3.org/1999/xlink">
<g id="graph0" class="graph" transform="scale(1 1) rotate(0) translate(4 189)">
<title>GuiEngine::Configuration</title>
<polygon fill="white" stroke="transparent" points="-4,4 -4,-189 327,-189 327,4 -4,4"/>
<!-- Node1 -->
<g id="node1" class="node">
<title>Node1</title>
<g id="a_node1"><a xlink:title=" ">
<polygon fill="#bfbfbf" stroke="black" points="22.5,-0.5 22.5,-57.5 159.5,-57.5 159.5,-0.5 22.5,-0.5"/>
<text text-anchor="middle" x="91" y="-45.5" font-family="Helvetica,sans-Serif" font-size="10.00">GuiEngine::Configuration</text>
<polyline fill="none" stroke="black" points="22.5,-38.5 159.5,-38.5 "/>
<text text-anchor="middle" x="91" y="-26.5" font-family="Helvetica,sans-Serif" font-size="10.00"> </text>
<polyline fill="none" stroke="black" points="22.5,-19.5 159.5,-19.5 "/>
<text text-anchor="middle" x="91" y="-7.5" font-family="Helvetica,sans-Serif" font-size="10.00"> </text>
</a>
</g>
</g>
<!-- Node2 -->
<g id="node2" class="node">
<title>Node2</title>
<g id="a_node2"><a xlink:title=" ">
<polygon fill="white" stroke="#bfbfbf" points="0,-127.5 0,-184.5 50,-184.5 50,-127.5 0,-127.5"/>
<text text-anchor="middle" x="25" y="-172.5" font-family="Helvetica,sans-Serif" font-size="10.00">uint8_t</text>
<polyline fill="none" stroke="#bfbfbf" points="0,-165.5 50,-165.5 "/>
<text text-anchor="middle" x="25" y="-153.5" font-family="Helvetica,sans-Serif" font-size="10.00"> </text>
<polyline fill="none" stroke="#bfbfbf" points="0,-146.5 50,-146.5 "/>
<text text-anchor="middle" x="25" y="-134.5" font-family="Helvetica,sans-Serif" font-size="10.00"> </text>
</a>
</g>
</g>
<!-- Node2&#45;&gt;Node1 -->
<g id="edge1" class="edge">
<title>Node2&#45;&gt;Node1</title>
<path fill="none" stroke="#404040" d="M19.38,-127.16C17.58,-111.29 17.83,-91.54 26,-76 27.78,-72.62 29.92,-69.44 32.34,-66.44"/>
<polygon fill="none" stroke="#404040" points="32.58,-66.2 33.84,-59.1 40.88,-57.53 39.62,-64.63 32.58,-66.2"/>
<text text-anchor="middle" x="81" y="-101" font-family="Helvetica,sans-Serif" font-size="10.00"> +display_i2c_address</text>
<text text-anchor="middle" x="81" y="-90" font-family="Helvetica,sans-Serif" font-size="10.00">+screen_height</text>
<text text-anchor="middle" x="81" y="-79" font-family="Helvetica,sans-Serif" font-size="10.00">+screen_width</text>
</g>
<!-- Node3 -->
<g id="node3" class="node">
<title>Node3</title>
<g id="a_node3"><a xlink:title=" ">
<polygon fill="white" stroke="#bfbfbf" points="139,-127.5 139,-184.5 177,-184.5 177,-127.5 139,-127.5"/>
<text text-anchor="middle" x="158" y="-172.5" font-family="Helvetica,sans-Serif" font-size="10.00">bool</text>
<polyline fill="none" stroke="#bfbfbf" points="139,-165.5 177,-165.5 "/>
<text text-anchor="middle" x="158" y="-153.5" font-family="Helvetica,sans-Serif" font-size="10.00"> </text>
<polyline fill="none" stroke="#bfbfbf" points="139,-146.5 177,-146.5 "/>
<text text-anchor="middle" x="158" y="-134.5" font-family="Helvetica,sans-Serif" font-size="10.00"> </text>
</a>
</g>
</g>
<!-- Node3&#45;&gt;Node1 -->
<g id="edge2" class="edge">
<title>Node3&#45;&gt;Node1</title>
<path fill="none" stroke="#404040" d="M153.83,-127.34C150.6,-111.54 145.1,-91.79 136,-76 134.25,-72.96 132.25,-69.97 130.09,-67.07"/>
<polygon fill="none" stroke="#404040" points="129.9,-66.84 122.99,-64.77 122.25,-57.59 129.16,-59.67 129.9,-66.84"/>
<text text-anchor="middle" x="235.5" y="-90" font-family="Helvetica,sans-Serif" font-size="10.00"> +generateDisplayVoltageInternally</text>
</g>
</g>
</svg>
