<?xml version="1.0" encoding="UTF-8" standalone="no"?>
<!DOCTYPE svg PUBLIC "-//W3C//DTD SVG 1.1//EN"
 "http://www.w3.org/Graphics/SVG/1.1/DTD/svg11.dtd">
<!-- Generated by graphviz version 2.43.0 (0)
 -->
<!-- Title: FooData Pages: 1 -->
<svg width="107pt" height="171pt"
 viewBox="0.00 0.00 106.50 171.00" xmlns="http://www.w3.org/2000/svg" xmlns:xlink="http://www.w3.org/1999/xlink">
<g id="graph0" class="graph" transform="scale(1 1) rotate(0) translate(4 167)">
<title>FooData</title>
<polygon fill="white" stroke="transparent" points="-4,4 -4,-167 102.5,-167 102.5,4 -4,4"/>
<!-- Node1 -->
<g id="node1" class="node">
<title>Node1</title>
<g id="a_node1"><a xlink:title=" ">
<polygon fill="#bfbfbf" stroke="black" points="0,-0.5 0,-57.5 57,-57.5 57,-0.5 0,-0.5"/>
<text text-anchor="middle" x="28.5" y="-45.5" font-family="Helvetica,sans-Serif" font-size="10.00">FooData</text>
<polyline fill="none" stroke="black" points="0,-38.5 57,-38.5 "/>
<text text-anchor="middle" x="28.5" y="-26.5" font-family="Helvetica,sans-Serif" font-size="10.00"> </text>
<polyline fill="none" stroke="black" points="0,-19.5 57,-19.5 "/>
<text text-anchor="middle" x="28.5" y="-7.5" font-family="Helvetica,sans-Serif" font-size="10.00"> </text>
</a>
</g>
</g>
<!-- Node2 -->
<g id="node2" class="node">
<title>Node2</title>
<g id="a_node2"><a xlink:title=" ">
<polygon fill="white" stroke="#bfbfbf" points="6,-105.5 6,-162.5 51,-162.5 51,-105.5 6,-105.5"/>
<text text-anchor="middle" x="28.5" y="-150.5" font-family="Helvetica,sans-Serif" font-size="10.00">size_t</text>
<polyline fill="none" stroke="#bfbfbf" points="6,-143.5 51,-143.5 "/>
<text text-anchor="middle" x="28.5" y="-131.5" font-family="Helvetica,sans-Serif" font-size="10.00"> </text>
<polyline fill="none" stroke="#bfbfbf" points="6,-124.5 51,-124.5 "/>
<text text-anchor="middle" x="28.5" y="-112.5" font-family="Helvetica,sans-Serif" font-size="10.00"> </text>
</a>
</g>
</g>
<!-- Node2&#45;&gt;Node1 -->
<g id="edge1" class="edge">
<title>Node2&#45;&gt;Node1</title>
<path fill="none" stroke="#404040" d="M28.5,-105.4C28.5,-94.55 28.5,-81.87 28.5,-70.05"/>
<polygon fill="none" stroke="#404040" points="28.5,-69.68 24.5,-63.68 28.5,-57.68 32.5,-63.68 28.5,-69.68"/>
<text text-anchor="middle" x="63.5" y="-79" font-family="Helvetica,sans-Serif" font-size="10.00"> +timesCalled</text>
</g>
</g>
</svg>
