<?xml version="1.0" encoding="UTF-8" standalone="no"?>
<!DOCTYPE svg PUBLIC "-//W3C//DTD SVG 1.1//EN"
 "http://www.w3.org/Graphics/SVG/1.1/DTD/svg11.dtd">
<!-- Generated by graphviz version 2.43.0 (0)
 -->
<!-- Title: task_tracker_systems::TaskObject Pages: 1 -->
<svg width="172pt" height="182pt"
 viewBox="0.00 0.00 171.50 182.00" xmlns="http://www.w3.org/2000/svg" xmlns:xlink="http://www.w3.org/1999/xlink">
<g id="graph0" class="graph" transform="scale(1 1) rotate(0) translate(4 178)">
<title>task_tracker_systems::TaskObject</title>
<polygon fill="white" stroke="transparent" points="-4,4 -4,-178 167.5,-178 167.5,4 -4,4"/>
<!-- Node1 -->
<g id="node1" class="node">
<title>Node1</title>
<g id="a_node1"><a xlink:title="task object">
<polygon fill="#bfbfbf" stroke="black" points="8,-0.5 8,-68.5 131,-68.5 131,-0.5 8,-0.5"/>
<text text-anchor="start" x="16" y="-56.5" font-family="Helvetica,sans-Serif" font-size="10.00">task_tracker_systems</text>
<text text-anchor="middle" x="69.5" y="-45.5" font-family="Helvetica,sans-Serif" font-size="10.00">::TaskObject</text>
<polyline fill="none" stroke="black" points="8,-38.5 131,-38.5 "/>
<text text-anchor="middle" x="69.5" y="-26.5" font-family="Helvetica,sans-Serif" font-size="10.00"> </text>
<polyline fill="none" stroke="black" points="8,-19.5 131,-19.5 "/>
<text text-anchor="middle" x="69.5" y="-7.5" font-family="Helvetica,sans-Serif" font-size="10.00"> </text>
</a>
</g>
</g>
<!-- Node2 -->
<g id="node2" class="node">
<title>Node2</title>
<g id="a_node2"><a xlink:title=" ">
<polygon fill="white" stroke="#bfbfbf" points="0,-116.5 0,-173.5 29,-173.5 29,-116.5 0,-116.5"/>
<text text-anchor="middle" x="14.5" y="-161.5" font-family="Helvetica,sans-Serif" font-size="10.00">int</text>
<polyline fill="none" stroke="#bfbfbf" points="0,-154.5 29,-154.5 "/>
<text text-anchor="middle" x="14.5" y="-142.5" font-family="Helvetica,sans-Serif" font-size="10.00"> </text>
<polyline fill="none" stroke="#bfbfbf" points="0,-135.5 29,-135.5 "/>
<text text-anchor="middle" x="14.5" y="-123.5" font-family="Helvetica,sans-Serif" font-size="10.00"> </text>
</a>
</g>
</g>
<!-- Node2&#45;&gt;Node1 -->
<g id="edge1" class="edge">
<title>Node2&#45;&gt;Node1</title>
<path fill="none" stroke="#404040" d="M28.52,-116.34C34.23,-105.07 40.97,-91.78 47.32,-79.25"/>
<polygon fill="none" stroke="#404040" points="47.34,-79.22 46.48,-72.06 52.76,-68.52 53.62,-75.68 47.34,-79.22"/>
<text text-anchor="middle" x="52" y="-90" font-family="Helvetica,sans-Serif" font-size="10.00"> +id</text>
</g>
<!-- Node3 -->
<g id="node3" class="node">
<title>Node3</title>
<g id="a_node3"><a xlink:title=" ">
<polygon fill="white" stroke="#bfbfbf" points="47.5,-116.5 47.5,-173.5 91.5,-173.5 91.5,-116.5 47.5,-116.5"/>
<text text-anchor="middle" x="69.5" y="-161.5" font-family="Helvetica,sans-Serif" font-size="10.00">string</text>
<polyline fill="none" stroke="#bfbfbf" points="47.5,-154.5 91.5,-154.5 "/>
<text text-anchor="middle" x="69.5" y="-142.5" font-family="Helvetica,sans-Serif" font-size="10.00"> </text>
<polyline fill="none" stroke="#bfbfbf" points="47.5,-135.5 91.5,-135.5 "/>
<text text-anchor="middle" x="69.5" y="-123.5" font-family="Helvetica,sans-Serif" font-size="10.00"> </text>
</a>
</g>
</g>
<!-- Node3&#45;&gt;Node1 -->
<g id="edge2" class="edge">
<title>Node3&#45;&gt;Node1</title>
<path fill="none" stroke="#404040" d="M69.5,-116.34C69.5,-105.53 69.5,-92.85 69.5,-80.77"/>
<polygon fill="none" stroke="#404040" points="69.5,-80.52 65.5,-74.52 69.5,-68.52 73.5,-74.52 69.5,-80.52"/>
<text text-anchor="middle" x="87.5" y="-90" font-family="Helvetica,sans-Serif" font-size="10.00"> +label</text>
</g>
<!-- Node4 -->
<g id="node4" class="node">
<title>Node4</title>
<g id="a_node4"><a xlink:title=" ">
<polygon fill="white" stroke="#bfbfbf" points="112.5,-116.5 112.5,-173.5 144.5,-173.5 144.5,-116.5 112.5,-116.5"/>
<text text-anchor="middle" x="128.5" y="-161.5" font-family="Helvetica,sans-Serif" font-size="10.00">rep</text>
<polyline fill="none" stroke="#bfbfbf" points="112.5,-154.5 144.5,-154.5 "/>
<text text-anchor="middle" x="128.5" y="-142.5" font-family="Helvetica,sans-Serif" font-size="10.00"> </text>
<polyline fill="none" stroke="#bfbfbf" points="112.5,-135.5 144.5,-135.5 "/>
<text text-anchor="middle" x="128.5" y="-123.5" font-family="Helvetica,sans-Serif" font-size="10.00"> </text>
</a>
</g>
</g>
<!-- Node4&#45;&gt;Node1 -->
<g id="edge3" class="edge">
<title>Node4&#45;&gt;Node1</title>
<path fill="none" stroke="#404040" d="M119.46,-116.4C115.92,-106.85 111.49,-96.24 106.5,-87 105.06,-84.33 103.5,-81.64 101.86,-78.96"/>
<polygon fill="none" stroke="#404040" points="101.78,-78.84 95.16,-75.99 95.26,-68.78 101.88,-71.63 101.78,-78.84"/>
<text text-anchor="middle" x="137.5" y="-90" font-family="Helvetica,sans-Serif" font-size="10.00"> +duration</text>
</g>
</g>
</svg>
