<?xml version="1.0" encoding="UTF-8" standalone="no"?>
<!DOCTYPE svg PUBLIC "-//W3C//DTD SVG 1.1//EN"
 "http://www.w3.org/Graphics/SVG/1.1/DTD/svg11.dtd">
<!-- Generated by graphviz version 2.43.0 (0)
 -->
<!-- Title: task_tracker_systems::ProtocolVersionObject Pages: 1 -->
<svg width="138pt" height="193pt"
 viewBox="0.00 0.00 138.00 193.00" xmlns="http://www.w3.org/2000/svg" xmlns:xlink="http://www.w3.org/1999/xlink">
<g id="graph0" class="graph" transform="scale(1 1) rotate(0) translate(4 189)">
<title>task_tracker_systems::ProtocolVersionObject</title>
<polygon fill="white" stroke="transparent" points="-4,4 -4,-189 134,-189 134,4 -4,4"/>
<!-- Node1 -->
<g id="node1" class="node">
<title>Node1</title>
<g id="a_node1"><a xlink:title="Protocol Version Object.">
<polygon fill="#bfbfbf" stroke="black" points="0,-0.5 0,-68.5 130,-68.5 130,-0.5 0,-0.5"/>
<text text-anchor="start" x="8" y="-56.5" font-family="Helvetica,sans-Serif" font-size="10.00">task_tracker_systems</text>
<text text-anchor="middle" x="65" y="-45.5" font-family="Helvetica,sans-Serif" font-size="10.00">::ProtocolVersionObject</text>
<polyline fill="none" stroke="black" points="0,-38.5 130,-38.5 "/>
<text text-anchor="middle" x="65" y="-26.5" font-family="Helvetica,sans-Serif" font-size="10.00"> </text>
<polyline fill="none" stroke="black" points="0,-19.5 130,-19.5 "/>
<text text-anchor="middle" x="65" y="-7.5" font-family="Helvetica,sans-Serif" font-size="10.00"> </text>
</a>
</g>
</g>
<!-- Node2 -->
<g id="node2" class="node">
<title>Node2</title>
<g id="a_node2"><a xlink:title=" ">
<polygon fill="white" stroke="#bfbfbf" points="2,-127.5 2,-184.5 58,-184.5 58,-127.5 2,-127.5"/>
<text text-anchor="middle" x="30" y="-172.5" font-family="Helvetica,sans-Serif" font-size="10.00">uint16_t</text>
<polyline fill="none" stroke="#bfbfbf" points="2,-165.5 58,-165.5 "/>
<text text-anchor="middle" x="30" y="-153.5" font-family="Helvetica,sans-Serif" font-size="10.00"> </text>
<polyline fill="none" stroke="#bfbfbf" points="2,-146.5 58,-146.5 "/>
<text text-anchor="middle" x="30" y="-134.5" font-family="Helvetica,sans-Serif" font-size="10.00"> </text>
</a>
</g>
</g>
<!-- Node2&#45;&gt;Node1 -->
<g id="edge1" class="edge">
<title>Node2&#45;&gt;Node1</title>
<path fill="none" stroke="#404040" d="M32.12,-127.44C33.57,-114.91 35.99,-100 40,-87 40.73,-84.63 41.56,-82.22 42.46,-79.82"/>
<polygon fill="none" stroke="#404040" points="42.47,-79.78 41.08,-72.71 47.07,-68.7 48.47,-75.77 42.47,-79.78"/>
<text text-anchor="middle" x="59.5" y="-95.5" font-family="Helvetica,sans-Serif" font-size="10.00"> +patch</text>
</g>
<!-- Node3 -->
<g id="node3" class="node">
<title>Node3</title>
<g id="a_node3"><a xlink:title=" ">
<polygon fill="white" stroke="#bfbfbf" points="76,-127.5 76,-184.5 126,-184.5 126,-127.5 76,-127.5"/>
<text text-anchor="middle" x="101" y="-172.5" font-family="Helvetica,sans-Serif" font-size="10.00">uint8_t</text>
<polyline fill="none" stroke="#bfbfbf" points="76,-165.5 126,-165.5 "/>
<text text-anchor="middle" x="101" y="-153.5" font-family="Helvetica,sans-Serif" font-size="10.00"> </text>
<polyline fill="none" stroke="#bfbfbf" points="76,-146.5 126,-146.5 "/>
<text text-anchor="middle" x="101" y="-134.5" font-family="Helvetica,sans-Serif" font-size="10.00"> </text>
</a>
</g>
</g>
<!-- Node3&#45;&gt;Node1 -->
<g id="edge2" class="edge">
<title>Node3&#45;&gt;Node1</title>
<path fill="none" stroke="#404040" d="M92.65,-127.28C88.45,-113.33 83.24,-96.06 78.49,-80.28"/>
<polygon fill="none" stroke="#404040" points="78.43,-80.08 72.87,-75.49 74.97,-68.59 80.53,-73.18 78.43,-80.08"/>
<text text-anchor="middle" x="106" y="-101" font-family="Helvetica,sans-Serif" font-size="10.00"> +major</text>
<text text-anchor="middle" x="106" y="-90" font-family="Helvetica,sans-Serif" font-size="10.00">+minor</text>
</g>
</g>
</svg>
