<?xml version="1.0" encoding="UTF-8" standalone="no"?>
<!DOCTYPE svg PUBLIC "-//W3C//DTD SVG 1.1//EN"
 "http://www.w3.org/Graphics/SVG/1.1/DTD/svg11.dtd">
<!-- Generated by graphviz version 2.43.0 (0)
 -->
<!-- Title: MenuItemValue Pages: 1 -->
<svg width="408pt" height="292pt"
 viewBox="0.00 0.00 408.00 292.00" xmlns="http://www.w3.org/2000/svg" xmlns:xlink="http://www.w3.org/1999/xlink">
<g id="graph0" class="graph" transform="scale(1 1) rotate(0) translate(4 288)">
<title>MenuItemValue</title>
<polygon fill="white" stroke="transparent" points="-4,4 -4,-288 404,-288 404,4 -4,4"/>
<!-- Node1 -->
<g id="node1" class="node">
<title>Node1</title>
<g id="a_node1"><a xlink:title="menu item to show double variables and call a modification screen">
<polygon fill="#bfbfbf" stroke="black" points="146,-0.5 146,-134.5 266,-134.5 266,-0.5 146,-0.5"/>
<text text-anchor="middle" x="206" y="-122.5" font-family="Helvetica,sans-Serif" font-size="10.00">MenuItemValue</text>
<polyline fill="none" stroke="black" points="146,-115.5 266,-115.5 "/>
<text text-anchor="middle" x="206" y="-103.5" font-family="Helvetica,sans-Serif" font-size="10.00"> </text>
<polyline fill="none" stroke="black" points="146,-96.5 266,-96.5 "/>
<text text-anchor="start" x="154" y="-84.5" font-family="Helvetica,sans-Serif" font-size="10.00">+ MenuItemValue()</text>
<text text-anchor="start" x="154" y="-73.5" font-family="Helvetica,sans-Serif" font-size="10.00">+ ~MenuItemValue()</text>
<text text-anchor="start" x="154" y="-62.5" font-family="Helvetica,sans-Serif" font-size="10.00">+ getText()</text>
<text text-anchor="start" x="154" y="-51.5" font-family="Helvetica,sans-Serif" font-size="10.00">+ getType()</text>
<text text-anchor="start" x="154" y="-40.5" font-family="Helvetica,sans-Serif" font-size="10.00">+ getPtrDouble()</text>
<text text-anchor="start" x="154" y="-29.5" font-family="Helvetica,sans-Serif" font-size="10.00">+ getDecimals()</text>
<text text-anchor="start" x="154" y="-18.5" font-family="Helvetica,sans-Serif" font-size="10.00">+ getMin()</text>
<text text-anchor="start" x="154" y="-7.5" font-family="Helvetica,sans-Serif" font-size="10.00">+ getMax()</text>
</a>
</g>
</g>
<!-- Node2 -->
<g id="node2" class="node">
<title>Node2</title>
<g id="a_node2"><a xlink:href="classIMenuItem.xhtml" target="_top" xlink:title="interface for all menu items">
<polygon fill="white" stroke="black" points="0,-193.5 0,-283.5 96,-283.5 96,-193.5 0,-193.5"/>
<text text-anchor="middle" x="48" y="-271.5" font-family="Helvetica,sans-Serif" font-size="10.00">IMenuItem</text>
<polyline fill="none" stroke="black" points="0,-264.5 96,-264.5 "/>
<text text-anchor="middle" x="48" y="-252.5" font-family="Helvetica,sans-Serif" font-size="10.00"> </text>
<polyline fill="none" stroke="black" points="0,-245.5 96,-245.5 "/>
<text text-anchor="start" x="8" y="-233.5" font-family="Helvetica,sans-Serif" font-size="10.00">+ IMenuItem()</text>
<text text-anchor="start" x="8" y="-222.5" font-family="Helvetica,sans-Serif" font-size="10.00">+ ~IMenuItem()</text>
<text text-anchor="start" x="8" y="-211.5" font-family="Helvetica,sans-Serif" font-size="10.00">+ getText()</text>
<text text-anchor="start" x="8" y="-200.5" font-family="Helvetica,sans-Serif" font-size="10.00">+ getType()</text>
</a>
</g>
</g>
<!-- Node2&#45;&gt;Node1 -->
<g id="edge1" class="edge">
<title>Node2&#45;&gt;Node1</title>
<path fill="none" stroke="midnightblue" d="M96.51,-185.61C112.06,-168.98 129.47,-150.36 145.75,-132.95"/>
<polygon fill="none" stroke="midnightblue" points="93.79,-183.4 89.51,-193.1 98.9,-188.18 93.79,-183.4"/>
</g>
<!-- Node3 -->
<g id="node3" class="node">
<title>Node3</title>
<g id="a_node3"><a xlink:title=" ">
<polygon fill="white" stroke="#bfbfbf" points="114,-210 114,-267 164,-267 164,-210 114,-210"/>
<text text-anchor="middle" x="139" y="-255" font-family="Helvetica,sans-Serif" font-size="10.00">double</text>
<polyline fill="none" stroke="#bfbfbf" points="114,-248 164,-248 "/>
<text text-anchor="middle" x="139" y="-236" font-family="Helvetica,sans-Serif" font-size="10.00"> </text>
<polyline fill="none" stroke="#bfbfbf" points="114,-229 164,-229 "/>
<text text-anchor="middle" x="139" y="-217" font-family="Helvetica,sans-Serif" font-size="10.00"> </text>
</a>
</g>
</g>
<!-- Node3&#45;&gt;Node1 -->
<g id="edge2" class="edge">
<title>Node3&#45;&gt;Node1</title>
<path fill="none" stroke="#404040" d="M145.46,-209.65C149.69,-192.96 155.76,-171.46 163,-153 163.92,-150.67 164.87,-148.31 165.87,-145.94"/>
<polygon fill="none" stroke="#404040" points="165.92,-145.82 164.67,-138.72 170.74,-134.83 171.99,-141.93 165.92,-145.82"/>
<text text-anchor="middle" x="182.5" y="-167" font-family="Helvetica,sans-Serif" font-size="10.00"> #_max</text>
<text text-anchor="middle" x="182.5" y="-156" font-family="Helvetica,sans-Serif" font-size="10.00">#_min</text>
</g>
<!-- Node4 -->
<g id="node4" class="node">
<title>Node4</title>
<g id="a_node4"><a xlink:title=" ">
<polygon fill="white" stroke="#bfbfbf" points="182,-210 182,-267 240,-267 240,-210 182,-210"/>
<text text-anchor="middle" x="211" y="-255" font-family="Helvetica,sans-Serif" font-size="10.00">double *</text>
<polyline fill="none" stroke="#bfbfbf" points="182,-248 240,-248 "/>
<text text-anchor="middle" x="211" y="-236" font-family="Helvetica,sans-Serif" font-size="10.00"> </text>
<polyline fill="none" stroke="#bfbfbf" points="182,-229 240,-229 "/>
<text text-anchor="middle" x="211" y="-217" font-family="Helvetica,sans-Serif" font-size="10.00"> </text>
</a>
</g>
</g>
<!-- Node4&#45;&gt;Node1 -->
<g id="edge3" class="edge">
<title>Node4&#45;&gt;Node1</title>
<path fill="none" stroke="#404040" d="M208.9,-209.83C208.17,-198.97 207.42,-186.41 207,-175 206.66,-165.84 206.42,-156.23 206.25,-146.7"/>
<polygon fill="none" stroke="#404040" points="206.25,-146.7 202.15,-140.76 206.06,-134.7 210.15,-140.64 206.25,-146.7"/>
<text text-anchor="middle" x="239.5" y="-161.5" font-family="Helvetica,sans-Serif" font-size="10.00"> #_ptrDouble</text>
</g>
<!-- Node5 -->
<g id="node5" class="node">
<title>Node5</title>
<g id="a_node5"><a xlink:title=" ">
<polygon fill="white" stroke="#bfbfbf" points="269,-210 269,-267 319,-267 319,-210 269,-210"/>
<text text-anchor="middle" x="294" y="-255" font-family="Helvetica,sans-Serif" font-size="10.00">uint8_t</text>
<polyline fill="none" stroke="#bfbfbf" points="269,-248 319,-248 "/>
<text text-anchor="middle" x="294" y="-236" font-family="Helvetica,sans-Serif" font-size="10.00"> </text>
<polyline fill="none" stroke="#bfbfbf" points="269,-229 319,-229 "/>
<text text-anchor="middle" x="294" y="-217" font-family="Helvetica,sans-Serif" font-size="10.00"> </text>
</a>
</g>
</g>
<!-- Node5&#45;&gt;Node1 -->
<g id="edge4" class="edge">
<title>Node5&#45;&gt;Node1</title>
<path fill="none" stroke="#404040" d="M289.75,-209.86C286.44,-192.85 280.86,-170.94 272,-153 270.71,-150.39 269.34,-147.79 267.89,-145.2"/>
<polygon fill="none" stroke="#404040" points="267.74,-144.95 261.22,-141.86 261.56,-134.66 268.08,-137.75 267.74,-144.95"/>
<text text-anchor="middle" x="310.5" y="-161.5" font-family="Helvetica,sans-Serif" font-size="10.00"> #_decimals</text>
</g>
<!-- Node6 -->
<g id="node6" class="node">
<title>Node6</title>
<g id="a_node6"><a xlink:title=" ">
<polygon fill="white" stroke="#bfbfbf" points="356,-210 356,-267 400,-267 400,-210 356,-210"/>
<text text-anchor="middle" x="378" y="-255" font-family="Helvetica,sans-Serif" font-size="10.00">string</text>
<polyline fill="none" stroke="#bfbfbf" points="356,-248 400,-248 "/>
<text text-anchor="middle" x="378" y="-236" font-family="Helvetica,sans-Serif" font-size="10.00"> </text>
<polyline fill="none" stroke="#bfbfbf" points="356,-229 400,-229 "/>
<text text-anchor="middle" x="378" y="-217" font-family="Helvetica,sans-Serif" font-size="10.00"> </text>
</a>
</g>
</g>
<!-- Node6&#45;&gt;Node1 -->
<g id="edge5" class="edge">
<title>Node6&#45;&gt;Node1</title>
<path fill="none" stroke="#404040" d="M372.02,-209.63C367.1,-191.89 358.67,-169.28 345,-153 326.65,-131.15 301.13,-113.38 276.96,-99.88"/>
<polygon fill="none" stroke="#404040" points="276.91,-99.85 269.73,-100.53 266.34,-94.16 273.52,-93.49 276.91,-99.85"/>
<text text-anchor="middle" x="376.5" y="-161.5" font-family="Helvetica,sans-Serif" font-size="10.00"> #_text</text>
</g>
</g>
</svg>
