<?xml version="1.0" encoding="UTF-8" standalone="no"?>
<!DOCTYPE svg PUBLIC "-//W3C//DTD SVG 1.1//EN"
 "http://www.w3.org/Graphics/SVG/1.1/DTD/svg11.dtd">
<!-- Generated by graphviz version 2.43.0 (0)
 -->
<!-- Title: MenuItemSwitch Pages: 1 -->
<svg width="133pt" height="248pt"
 viewBox="0.00 0.00 133.00 248.00" xmlns="http://www.w3.org/2000/svg" xmlns:xlink="http://www.w3.org/1999/xlink">
<g id="graph0" class="graph" transform="scale(1 1) rotate(0) translate(4 244)">
<title>MenuItemSwitch</title>
<polygon fill="white" stroke="transparent" points="-4,4 -4,-244 129,-244 129,4 -4,4"/>
<!-- Node1 -->
<g id="node1" class="node">
<title>Node1</title>
<g id="a_node1"><a xlink:title="menu item to show and change boolean variables">
<polygon fill="#bfbfbf" stroke="black" points="0,-0.5 0,-112.5 125,-112.5 125,-0.5 0,-0.5"/>
<text text-anchor="middle" x="62.5" y="-100.5" font-family="Helvetica,sans-Serif" font-size="10.00">MenuItemSwitch</text>
<polyline fill="none" stroke="black" points="0,-93.5 125,-93.5 "/>
<text text-anchor="start" x="8" y="-81.5" font-family="Helvetica,sans-Serif" font-size="10.00"># _text</text>
<text text-anchor="start" x="8" y="-70.5" font-family="Helvetica,sans-Serif" font-size="10.00"># _ptrBool</text>
<polyline fill="none" stroke="black" points="0,-63.5 125,-63.5 "/>
<text text-anchor="start" x="8" y="-51.5" font-family="Helvetica,sans-Serif" font-size="10.00">+ MenuItemSwitch()</text>
<text text-anchor="start" x="8" y="-40.5" font-family="Helvetica,sans-Serif" font-size="10.00">+ ~MenuItemSwitch()</text>
<text text-anchor="start" x="8" y="-29.5" font-family="Helvetica,sans-Serif" font-size="10.00">+ getText()</text>
<text text-anchor="start" x="8" y="-18.5" font-family="Helvetica,sans-Serif" font-size="10.00">+ getType()</text>
<text text-anchor="start" x="8" y="-7.5" font-family="Helvetica,sans-Serif" font-size="10.00">+ getPtrBool()</text>
</a>
</g>
</g>
<!-- Node2 -->
<g id="node2" class="node">
<title>Node2</title>
<g id="a_node2"><a xlink:href="classIMenuItem.xhtml" target="_top" xlink:title="interface for all menu items">
<polygon fill="white" stroke="black" points="14.5,-149.5 14.5,-239.5 110.5,-239.5 110.5,-149.5 14.5,-149.5"/>
<text text-anchor="middle" x="62.5" y="-227.5" font-family="Helvetica,sans-Serif" font-size="10.00">IMenuItem</text>
<polyline fill="none" stroke="black" points="14.5,-220.5 110.5,-220.5 "/>
<text text-anchor="middle" x="62.5" y="-208.5" font-family="Helvetica,sans-Serif" font-size="10.00"> </text>
<polyline fill="none" stroke="black" points="14.5,-201.5 110.5,-201.5 "/>
<text text-anchor="start" x="22.5" y="-189.5" font-family="Helvetica,sans-Serif" font-size="10.00">+ IMenuItem()</text>
<text text-anchor="start" x="22.5" y="-178.5" font-family="Helvetica,sans-Serif" font-size="10.00">+ ~IMenuItem()</text>
<text text-anchor="start" x="22.5" y="-167.5" font-family="Helvetica,sans-Serif" font-size="10.00">+ getText()</text>
<text text-anchor="start" x="22.5" y="-156.5" font-family="Helvetica,sans-Serif" font-size="10.00">+ getType()</text>
</a>
</g>
</g>
<!-- Node2&#45;&gt;Node1 -->
<g id="edge1" class="edge">
<title>Node2&#45;&gt;Node1</title>
<path fill="none" stroke="midnightblue" d="M62.5,-139.31C62.5,-130.61 62.5,-121.59 62.5,-112.87"/>
<polygon fill="none" stroke="midnightblue" points="59,-139.34 62.5,-149.34 66,-139.34 59,-139.34"/>
</g>
</g>
</svg>
