<?xml version="1.0" encoding="UTF-8" standalone="no"?>
<!DOCTYPE svg PUBLIC "-//W3C//DTD SVG 1.1//EN"
 "http://www.w3.org/Graphics/SVG/1.1/DTD/svg11.dtd">
<!-- Generated by graphviz version 2.43.0 (0)
 -->
<!-- Title: Task&#45;Tracker&#45;Device/lib/application_business_rules/tasks/Task.hpp Pages: 1 -->
<svg width="1065pt" height="139pt"
 viewBox="0.00 0.00 1065.00 139.00" xmlns="http://www.w3.org/2000/svg" xmlns:xlink="http://www.w3.org/1999/xlink">
<g id="graph0" class="graph" transform="scale(1 1) rotate(0) translate(4 135)">
<title>Task&#45;Tracker&#45;Device/lib/application_business_rules/tasks/Task.hpp</title>
<polygon fill="white" stroke="transparent" points="-4,4 -4,-135 1061,-135 1061,4 -4,4"/>
<!-- Node1 -->
<g id="node1" class="node">
<title>Node1</title>
<g id="a_node1"><a xlink:title=" ">
<polygon fill="#bfbfbf" stroke="black" points="488.5,-89.5 488.5,-130.5 625.5,-130.5 625.5,-89.5 488.5,-89.5"/>
<text text-anchor="start" x="496.5" y="-118.5" font-family="Helvetica,sans-Serif" font-size="10.00">Task&#45;Tracker&#45;Device</text>
<text text-anchor="start" x="496.5" y="-107.5" font-family="Helvetica,sans-Serif" font-size="10.00">/lib/application_business</text>
<text text-anchor="middle" x="557" y="-96.5" font-family="Helvetica,sans-Serif" font-size="10.00">_rules/tasks/Task.hpp</text>
</a>
</g>
</g>
<!-- Node2 -->
<g id="node2" class="node">
<title>Node2</title>
<g id="a_node2"><a xlink:href="JsonGenerator_8cpp.xhtml" target="_top" xlink:title=" ">
<polygon fill="white" stroke="black" points="0,-6 0,-47 160,-47 160,-6 0,-6"/>
<text text-anchor="start" x="8" y="-35" font-family="Helvetica,sans-Serif" font-size="10.00">Task&#45;Tracker&#45;Device</text>
<text text-anchor="start" x="8" y="-24" font-family="Helvetica,sans-Serif" font-size="10.00">/lib/3rd_party_adapters</text>
<text text-anchor="middle" x="80" y="-13" font-family="Helvetica,sans-Serif" font-size="10.00">/nlohmann/JsonGenerator.cpp</text>
</a>
</g>
</g>
<!-- Node1&#45;&gt;Node2 -->
<g id="edge1" class="edge">
<title>Node1&#45;&gt;Node2</title>
<path fill="none" stroke="midnightblue" d="M477.83,-100.76C399.02,-91.81 274.88,-75.7 169,-53 160.98,-51.28 152.63,-49.24 144.39,-47.06"/>
<polygon fill="midnightblue" stroke="midnightblue" points="477.84,-104.28 488.16,-101.92 478.62,-97.33 477.84,-104.28"/>
</g>
<!-- Node3 -->
<g id="node3" class="node">
<title>Node3</title>
<g id="a_node3"><a xlink:href="Protocol_8cpp.xhtml" target="_top" xlink:title=" ">
<polygon fill="white" stroke="black" points="178.5,-0.5 178.5,-52.5 315.5,-52.5 315.5,-0.5 178.5,-0.5"/>
<text text-anchor="start" x="186.5" y="-40.5" font-family="Helvetica,sans-Serif" font-size="10.00">Task&#45;Tracker&#45;Device</text>
<text text-anchor="start" x="186.5" y="-29.5" font-family="Helvetica,sans-Serif" font-size="10.00">/lib/application_business</text>
<text text-anchor="start" x="186.5" y="-18.5" font-family="Helvetica,sans-Serif" font-size="10.00">_rules/serial_interface</text>
<text text-anchor="middle" x="247" y="-7.5" font-family="Helvetica,sans-Serif" font-size="10.00">/Protocol.cpp</text>
</a>
</g>
</g>
<!-- Node1&#45;&gt;Node3 -->
<g id="edge2" class="edge">
<title>Node1&#45;&gt;Node3</title>
<path fill="none" stroke="midnightblue" d="M478.52,-91.87C433.13,-81.53 375.06,-67.56 324,-53 321.29,-52.23 318.54,-51.42 315.76,-50.59"/>
<polygon fill="midnightblue" stroke="midnightblue" points="477.77,-95.28 488.3,-94.08 479.32,-88.46 477.77,-95.28"/>
</g>
<!-- Node4 -->
<g id="node4" class="node">
<title>Node4</title>
<g id="a_node4"><a xlink:href="Task_8cpp.xhtml" target="_top" xlink:title=" ">
<polygon fill="white" stroke="black" points="333.5,-6 333.5,-47 470.5,-47 470.5,-6 333.5,-6"/>
<text text-anchor="start" x="341.5" y="-35" font-family="Helvetica,sans-Serif" font-size="10.00">Task&#45;Tracker&#45;Device</text>
<text text-anchor="start" x="341.5" y="-24" font-family="Helvetica,sans-Serif" font-size="10.00">/lib/application_business</text>
<text text-anchor="middle" x="402" y="-13" font-family="Helvetica,sans-Serif" font-size="10.00">_rules/tasks/Task.cpp</text>
</a>
</g>
</g>
<!-- Node1&#45;&gt;Node4 -->
<g id="edge3" class="edge">
<title>Node1&#45;&gt;Node4</title>
<path fill="none" stroke="midnightblue" d="M511,-84.81C488.05,-72.75 460.67,-58.35 439.09,-47"/>
<polygon fill="midnightblue" stroke="midnightblue" points="509.39,-87.92 519.87,-89.48 512.65,-81.73 509.39,-87.92"/>
</g>
<!-- Node5 -->
<g id="node5" class="node">
<title>Node5</title>
<g id="a_node5"><a xlink:href="ProcessHmiInputs_8cpp.xhtml" target="_top" xlink:title=" ">
<polygon fill="white" stroke="black" points="488.5,-0.5 488.5,-52.5 625.5,-52.5 625.5,-0.5 488.5,-0.5"/>
<text text-anchor="start" x="496.5" y="-40.5" font-family="Helvetica,sans-Serif" font-size="10.00">Task&#45;Tracker&#45;Device</text>
<text text-anchor="start" x="496.5" y="-29.5" font-family="Helvetica,sans-Serif" font-size="10.00">/lib/application_business</text>
<text text-anchor="start" x="496.5" y="-18.5" font-family="Helvetica,sans-Serif" font-size="10.00">_rules/user_interaction</text>
<text text-anchor="middle" x="557" y="-7.5" font-family="Helvetica,sans-Serif" font-size="10.00">/ProcessHmiInputs.cpp</text>
</a>
</g>
</g>
<!-- Node1&#45;&gt;Node5 -->
<g id="edge4" class="edge">
<title>Node1&#45;&gt;Node5</title>
<path fill="none" stroke="midnightblue" d="M557,-79.12C557,-70.41 557,-60.99 557,-52.61"/>
<polygon fill="midnightblue" stroke="midnightblue" points="553.5,-79.27 557,-89.27 560.5,-79.27 553.5,-79.27"/>
</g>
<!-- Node6 -->
<g id="node6" class="node">
<title>Node6</title>
<g id="a_node6"><a xlink:href="main_8cpp.xhtml" target="_top" xlink:title=" ">
<polygon fill="white" stroke="black" points="643.5,-11.5 643.5,-41.5 756.5,-41.5 756.5,-11.5 643.5,-11.5"/>
<text text-anchor="start" x="651.5" y="-29.5" font-family="Helvetica,sans-Serif" font-size="10.00">Task&#45;Tracker&#45;Device</text>
<text text-anchor="middle" x="700" y="-18.5" font-family="Helvetica,sans-Serif" font-size="10.00">/src/main.cpp</text>
</a>
</g>
</g>
<!-- Node1&#45;&gt;Node6 -->
<g id="edge5" class="edge">
<title>Node1&#45;&gt;Node6</title>
<path fill="none" stroke="midnightblue" d="M600.06,-84.46C624.72,-70.41 654.76,-53.28 675.43,-41.5"/>
<polygon fill="midnightblue" stroke="midnightblue" points="598.21,-81.49 591.25,-89.48 601.67,-87.57 598.21,-81.49"/>
</g>
<!-- Node7 -->
<g id="node7" class="node">
<title>Node7</title>
<g id="a_node7"><a xlink:href="test__hmi_8cpp.xhtml" target="_top" xlink:title=" ">
<polygon fill="white" stroke="black" points="775,-6 775,-47 903,-47 903,-6 775,-6"/>
<text text-anchor="start" x="783" y="-35" font-family="Helvetica,sans-Serif" font-size="10.00">Task&#45;Tracker&#45;Device</text>
<text text-anchor="start" x="783" y="-24" font-family="Helvetica,sans-Serif" font-size="10.00">/test/hmi/test_hmi/test</text>
<text text-anchor="middle" x="839" y="-13" font-family="Helvetica,sans-Serif" font-size="10.00">_hmi.cpp</text>
</a>
</g>
</g>
<!-- Node1&#45;&gt;Node7 -->
<g id="edge6" class="edge">
<title>Node1&#45;&gt;Node7</title>
<path fill="none" stroke="midnightblue" d="M635.42,-89.46C674.81,-79.27 723.14,-66.21 766,-53 772.03,-51.14 778.31,-49.11 784.54,-47.02"/>
<polygon fill="midnightblue" stroke="midnightblue" points="634.42,-86.1 625.61,-91.99 636.17,-92.88 634.42,-86.1"/>
</g>
<!-- Node8 -->
<g id="node8" class="node">
<title>Node8</title>
<g id="a_node8"><a xlink:href="task_8cpp.xhtml" target="_top" xlink:title=" ">
<polygon fill="white" stroke="black" points="921,-11.5 921,-41.5 1057,-41.5 1057,-11.5 921,-11.5"/>
<text text-anchor="start" x="929" y="-29.5" font-family="Helvetica,sans-Serif" font-size="10.00">Task&#45;Tracker&#45;Device</text>
<text text-anchor="middle" x="989" y="-18.5" font-family="Helvetica,sans-Serif" font-size="10.00">/test/test_tasks/task.cpp</text>
</a>
</g>
</g>
<!-- Node1&#45;&gt;Node8 -->
<g id="edge7" class="edge">
<title>Node1&#45;&gt;Node8</title>
<path fill="none" stroke="midnightblue" d="M635.67,-100.33C708.1,-91.47 818.19,-75.77 912,-53 924.73,-49.91 938.37,-45.7 950.58,-41.59"/>
<polygon fill="midnightblue" stroke="midnightblue" points="635.22,-96.86 625.71,-101.54 636.06,-103.81 635.22,-96.86"/>
</g>
</g>
</svg>
