<?xml version="1.0" encoding="UTF-8" standalone="no"?>
<!DOCTYPE svg PUBLIC "-//W3C//DTD SVG 1.1//EN"
 "http://www.w3.org/Graphics/SVG/1.1/DTD/svg11.dtd">
<!-- Generated by graphviz version 2.43.0 (0)
 -->
<!-- Title: Task&#45;Tracker&#45;Device/lib/enterprise_business_rules/serial_protocol/TaskList.hpp Pages: 1 -->
<svg width="324pt" height="150pt"
 viewBox="0.00 0.00 323.50 150.00" xmlns="http://www.w3.org/2000/svg" xmlns:xlink="http://www.w3.org/1999/xlink">
<g id="graph0" class="graph" transform="scale(1 1) rotate(0) translate(4 146)">
<title>Task&#45;Tracker&#45;Device/lib/enterprise_business_rules/serial_protocol/TaskList.hpp</title>
<polygon fill="white" stroke="transparent" points="-4,4 -4,-146 319.5,-146 319.5,4 -4,4"/>
<!-- Node1 -->
<g id="node1" class="node">
<title>Node1</title>
<g id="a_node1"><a xlink:title=" ">
<polygon fill="#bfbfbf" stroke="black" points="97,-89.5 97,-141.5 229,-141.5 229,-89.5 97,-89.5"/>
<text text-anchor="start" x="105" y="-129.5" font-family="Helvetica,sans-Serif" font-size="10.00">Task&#45;Tracker&#45;Device</text>
<text text-anchor="start" x="105" y="-118.5" font-family="Helvetica,sans-Serif" font-size="10.00">/lib/enterprise_business</text>
<text text-anchor="start" x="105" y="-107.5" font-family="Helvetica,sans-Serif" font-size="10.00">_rules/serial_protocol</text>
<text text-anchor="middle" x="163" y="-96.5" font-family="Helvetica,sans-Serif" font-size="10.00">/TaskList.hpp</text>
</a>
</g>
</g>
<!-- Node2 -->
<g id="node2" class="node">
<title>Node2</title>
<g id="a_node2"><a xlink:href="JsonGenerator_8cpp.xhtml" target="_top" xlink:title=" ">
<polygon fill="white" stroke="black" points="0,-6 0,-47 160,-47 160,-6 0,-6"/>
<text text-anchor="start" x="8" y="-35" font-family="Helvetica,sans-Serif" font-size="10.00">Task&#45;Tracker&#45;Device</text>
<text text-anchor="start" x="8" y="-24" font-family="Helvetica,sans-Serif" font-size="10.00">/lib/3rd_party_adapters</text>
<text text-anchor="middle" x="80" y="-13" font-family="Helvetica,sans-Serif" font-size="10.00">/nlohmann/JsonGenerator.cpp</text>
</a>
</g>
</g>
<!-- Node1&#45;&gt;Node2 -->
<g id="edge1" class="edge">
<title>Node1&#45;&gt;Node2</title>
<path fill="none" stroke="midnightblue" d="M131.85,-81.85C120.69,-70.15 108.46,-57.33 98.68,-47.08"/>
<polygon fill="midnightblue" stroke="midnightblue" points="129.56,-84.52 138.99,-89.34 134.62,-79.68 129.56,-84.52"/>
</g>
<!-- Node3 -->
<g id="node3" class="node">
<title>Node3</title>
<g id="a_node3"><a xlink:href="Protocol_8cpp.xhtml" target="_top" xlink:title=" ">
<polygon fill="white" stroke="black" points="178.5,-0.5 178.5,-52.5 315.5,-52.5 315.5,-0.5 178.5,-0.5"/>
<text text-anchor="start" x="186.5" y="-40.5" font-family="Helvetica,sans-Serif" font-size="10.00">Task&#45;Tracker&#45;Device</text>
<text text-anchor="start" x="186.5" y="-29.5" font-family="Helvetica,sans-Serif" font-size="10.00">/lib/application_business</text>
<text text-anchor="start" x="186.5" y="-18.5" font-family="Helvetica,sans-Serif" font-size="10.00">_rules/serial_interface</text>
<text text-anchor="middle" x="247" y="-7.5" font-family="Helvetica,sans-Serif" font-size="10.00">/Protocol.cpp</text>
</a>
</g>
</g>
<!-- Node1&#45;&gt;Node3 -->
<g id="edge2" class="edge">
<title>Node1&#45;&gt;Node3</title>
<path fill="none" stroke="midnightblue" d="M194.31,-82.08C203.71,-72.34 213.88,-61.8 222.76,-52.61"/>
<polygon fill="midnightblue" stroke="midnightblue" points="191.72,-79.71 187.3,-89.34 196.76,-84.57 191.72,-79.71"/>
</g>
</g>
</svg>
