<?xml version="1.0" encoding="UTF-8" standalone="no"?>
<!DOCTYPE svg PUBLIC "-//W3C//DTD SVG 1.1//EN"
 "http://www.w3.org/Graphics/SVG/1.1/DTD/svg11.dtd">
<!-- Generated by graphviz version 2.43.0 (0)
 -->
<!-- Title: lib/enterprise_business_rules/serial_protocol/TaskObject.hpp Pages: 1 -->
<svg width="325pt" height="206pt"
 viewBox="0.00 0.00 325.00 206.00" xmlns="http://www.w3.org/2000/svg" xmlns:xlink="http://www.w3.org/1999/xlink">
<g id="graph0" class="graph" transform="scale(1 1) rotate(0) translate(4 202)">
<title>lib/enterprise_business_rules/serial_protocol/TaskObject.hpp</title>
<polygon fill="white" stroke="transparent" points="-4,4 -4,-202 321,-202 321,4 -4,4"/>
<!-- Node1 -->
<g id="node1" class="node">
<title>Node1</title>
<g id="a_node1"><a xlink:title=" ">
<polygon fill="#bfbfbf" stroke="black" points="98.5,-156.5 98.5,-197.5 227.5,-197.5 227.5,-156.5 98.5,-156.5"/>
<text text-anchor="start" x="106.5" y="-185.5" font-family="Helvetica,sans-Serif" font-size="10.00">lib/enterprise_business</text>
<text text-anchor="start" x="106.5" y="-174.5" font-family="Helvetica,sans-Serif" font-size="10.00">_rules/serial_protocol</text>
<text text-anchor="middle" x="163" y="-163.5" font-family="Helvetica,sans-Serif" font-size="10.00">/TaskObject.hpp</text>
</a>
</g>
</g>
<!-- Node2 -->
<g id="node2" class="node">
<title>Node2</title>
<g id="a_node2"><a xlink:href="JsonGenerator_8cpp.xhtml" target="_top" xlink:title=" ">
<polygon fill="white" stroke="black" points="0,-6 0,-36 160,-36 160,-6 0,-6"/>
<text text-anchor="start" x="8" y="-24" font-family="Helvetica,sans-Serif" font-size="10.00">lib/3rd_party_adapters</text>
<text text-anchor="middle" x="80" y="-13" font-family="Helvetica,sans-Serif" font-size="10.00">/nlohmann/JsonGenerator.cpp</text>
</a>
</g>
</g>
<!-- Node1&#45;&gt;Node2 -->
<g id="edge1" class="edge">
<title>Node1&#45;&gt;Node2</title>
<path fill="none" stroke="midnightblue" d="M117.06,-150.52C106.11,-142.23 95.67,-132.01 89,-120 74.14,-93.27 75.66,-56.01 77.92,-36.01"/>
<polygon fill="midnightblue" stroke="midnightblue" points="115.3,-153.56 125.49,-156.48 119.35,-147.85 115.3,-153.56"/>
</g>
<!-- Node3 -->
<g id="node3" class="node">
<title>Node3</title>
<g id="a_node3"><a xlink:href="Protocol_8cpp.xhtml" target="_top" xlink:title=" ">
<polygon fill="white" stroke="black" points="183,-0.5 183,-41.5 317,-41.5 317,-0.5 183,-0.5"/>
<text text-anchor="start" x="191" y="-29.5" font-family="Helvetica,sans-Serif" font-size="10.00">lib/application_business</text>
<text text-anchor="start" x="191" y="-18.5" font-family="Helvetica,sans-Serif" font-size="10.00">_rules/serial_interface</text>
<text text-anchor="middle" x="250" y="-7.5" font-family="Helvetica,sans-Serif" font-size="10.00">/Protocol.cpp</text>
</a>
</g>
</g>
<!-- Node1&#45;&gt;Node3 -->
<g id="edge2" class="edge">
<title>Node1&#45;&gt;Node3</title>
<path fill="none" stroke="midnightblue" d="M208.61,-150.34C219.57,-142.05 230.09,-131.87 237,-120 251.08,-95.83 252.5,-62.71 251.67,-41.83"/>
<polygon fill="midnightblue" stroke="midnightblue" points="206.33,-147.67 200.21,-156.31 210.39,-153.37 206.33,-147.67"/>
</g>
<!-- Node4 -->
<g id="node4" class="node">
<title>Node4</title>
<g id="a_node4"><a xlink:href="TaskList_8hpp.xhtml" target="_top" xlink:title=" ">
<polygon fill="white" stroke="black" points="98.5,-78.5 98.5,-119.5 227.5,-119.5 227.5,-78.5 98.5,-78.5"/>
<text text-anchor="start" x="106.5" y="-107.5" font-family="Helvetica,sans-Serif" font-size="10.00">lib/enterprise_business</text>
<text text-anchor="start" x="106.5" y="-96.5" font-family="Helvetica,sans-Serif" font-size="10.00">_rules/serial_protocol</text>
<text text-anchor="middle" x="163" y="-85.5" font-family="Helvetica,sans-Serif" font-size="10.00">/TaskList.hpp</text>
</a>
</g>
</g>
<!-- Node1&#45;&gt;Node4 -->
<g id="edge3" class="edge">
<title>Node1&#45;&gt;Node4</title>
<path fill="none" stroke="midnightblue" d="M163,-146.3C163,-137.3 163,-127.65 163,-119.51"/>
<polygon fill="midnightblue" stroke="midnightblue" points="159.5,-146.43 163,-156.43 166.5,-146.43 159.5,-146.43"/>
</g>
<!-- Node4&#45;&gt;Node2 -->
<g id="edge4" class="edge">
<title>Node4&#45;&gt;Node2</title>
<path fill="none" stroke="midnightblue" d="M134.23,-71.66C121.24,-59.76 106.4,-46.18 95.54,-36.23"/>
<polygon fill="midnightblue" stroke="midnightblue" points="131.89,-74.26 141.63,-78.43 136.61,-69.09 131.89,-74.26"/>
</g>
<!-- Node4&#45;&gt;Node3 -->
<g id="edge5" class="edge">
<title>Node4&#45;&gt;Node3</title>
<path fill="none" stroke="midnightblue" d="M193.02,-71.78C204.39,-61.84 217.13,-50.72 227.67,-41.51"/>
<polygon fill="midnightblue" stroke="midnightblue" points="190.63,-69.21 185.4,-78.43 195.24,-74.49 190.63,-69.21"/>
</g>
</g>
</svg>
