<?xml version="1.0" encoding="UTF-8" standalone="no"?>
<!DOCTYPE svg PUBLIC "-//W3C//DTD SVG 1.1//EN"
 "http://www.w3.org/Graphics/SVG/1.1/DTD/svg11.dtd">
<!-- Generated by graphviz version 2.43.0 (0)
 -->
<!-- Title: Task&#45;Tracker&#45;Device/lib/enterprise_business_rules/serial_protocol/TaskObject.hpp Pages: 1 -->
<svg width="329pt" height="239pt"
 viewBox="0.00 0.00 328.50 239.00" xmlns="http://www.w3.org/2000/svg" xmlns:xlink="http://www.w3.org/1999/xlink">
<g id="graph0" class="graph" transform="scale(1 1) rotate(0) translate(4 235)">
<title>Task&#45;Tracker&#45;Device/lib/enterprise_business_rules/serial_protocol/TaskObject.hpp</title>
<polygon fill="white" stroke="transparent" points="-4,4 -4,-235 324.5,-235 324.5,4 -4,4"/>
<!-- Node1 -->
<g id="node1" class="node">
<title>Node1</title>
<g id="a_node1"><a xlink:title=" ">
<polygon fill="#bfbfbf" stroke="black" points="98,-178.5 98,-230.5 230,-230.5 230,-178.5 98,-178.5"/>
<text text-anchor="start" x="106" y="-218.5" font-family="Helvetica,sans-Serif" font-size="10.00">Task&#45;Tracker&#45;Device</text>
<text text-anchor="start" x="106" y="-207.5" font-family="Helvetica,sans-Serif" font-size="10.00">/lib/enterprise_business</text>
<text text-anchor="start" x="106" y="-196.5" font-family="Helvetica,sans-Serif" font-size="10.00">_rules/serial_protocol</text>
<text text-anchor="middle" x="164" y="-185.5" font-family="Helvetica,sans-Serif" font-size="10.00">/TaskObject.hpp</text>
</a>
</g>
</g>
<!-- Node2 -->
<g id="node2" class="node">
<title>Node2</title>
<g id="a_node2"><a xlink:href="JsonGenerator_8cpp.xhtml" target="_top" xlink:title=" ">
<polygon fill="white" stroke="black" points="0,-6 0,-47 160,-47 160,-6 0,-6"/>
<text text-anchor="start" x="8" y="-35" font-family="Helvetica,sans-Serif" font-size="10.00">Task&#45;Tracker&#45;Device</text>
<text text-anchor="start" x="8" y="-24" font-family="Helvetica,sans-Serif" font-size="10.00">/lib/3rd_party_adapters</text>
<text text-anchor="middle" x="80" y="-13" font-family="Helvetica,sans-Serif" font-size="10.00">/nlohmann/JsonGenerator.cpp</text>
</a>
</g>
</g>
<!-- Node1&#45;&gt;Node2 -->
<g id="edge1" class="edge">
<title>Node1&#45;&gt;Node2</title>
<path fill="none" stroke="midnightblue" d="M113.59,-171.78C103.88,-163.31 94.9,-153.31 89,-142 73.31,-111.95 74.49,-71.32 77.05,-47.41"/>
<polygon fill="midnightblue" stroke="midnightblue" points="111.54,-174.63 121.5,-178.25 115.98,-169.21 111.54,-174.63"/>
</g>
<!-- Node3 -->
<g id="node3" class="node">
<title>Node3</title>
<g id="a_node3"><a xlink:href="Protocol_8cpp.xhtml" target="_top" xlink:title=" ">
<polygon fill="white" stroke="black" points="183.5,-0.5 183.5,-52.5 320.5,-52.5 320.5,-0.5 183.5,-0.5"/>
<text text-anchor="start" x="191.5" y="-40.5" font-family="Helvetica,sans-Serif" font-size="10.00">Task&#45;Tracker&#45;Device</text>
<text text-anchor="start" x="191.5" y="-29.5" font-family="Helvetica,sans-Serif" font-size="10.00">/lib/application_business</text>
<text text-anchor="start" x="191.5" y="-18.5" font-family="Helvetica,sans-Serif" font-size="10.00">_rules/serial_interface</text>
<text text-anchor="middle" x="252" y="-7.5" font-family="Helvetica,sans-Serif" font-size="10.00">/Protocol.cpp</text>
</a>
</g>
</g>
<!-- Node1&#45;&gt;Node3 -->
<g id="edge2" class="edge">
<title>Node1&#45;&gt;Node3</title>
<path fill="none" stroke="midnightblue" d="M213.81,-171.89C223.66,-163.37 232.84,-153.32 239,-142 254.11,-114.24 255.52,-77.13 254.39,-52.79"/>
<polygon fill="midnightblue" stroke="midnightblue" points="211.36,-169.37 205.82,-178.4 215.78,-174.8 211.36,-169.37"/>
</g>
<!-- Node4 -->
<g id="node4" class="node">
<title>Node4</title>
<g id="a_node4"><a xlink:href="TaskList_8hpp.xhtml" target="_top" xlink:title=" ">
<polygon fill="white" stroke="black" points="98,-89.5 98,-141.5 230,-141.5 230,-89.5 98,-89.5"/>
<text text-anchor="start" x="106" y="-129.5" font-family="Helvetica,sans-Serif" font-size="10.00">Task&#45;Tracker&#45;Device</text>
<text text-anchor="start" x="106" y="-118.5" font-family="Helvetica,sans-Serif" font-size="10.00">/lib/enterprise_business</text>
<text text-anchor="start" x="106" y="-107.5" font-family="Helvetica,sans-Serif" font-size="10.00">_rules/serial_protocol</text>
<text text-anchor="middle" x="164" y="-96.5" font-family="Helvetica,sans-Serif" font-size="10.00">/TaskList.hpp</text>
</a>
</g>
</g>
<!-- Node1&#45;&gt;Node4 -->
<g id="edge3" class="edge">
<title>Node1&#45;&gt;Node4</title>
<path fill="none" stroke="midnightblue" d="M164,-168.19C164,-159.28 164,-149.9 164,-141.61"/>
<polygon fill="midnightblue" stroke="midnightblue" points="160.5,-168.34 164,-178.34 167.5,-168.34 160.5,-168.34"/>
</g>
<!-- Node4&#45;&gt;Node2 -->
<g id="edge4" class="edge">
<title>Node4&#45;&gt;Node2</title>
<path fill="none" stroke="midnightblue" d="M132.47,-81.85C121.18,-70.15 108.8,-57.33 98.91,-47.08"/>
<polygon fill="midnightblue" stroke="midnightblue" points="130.24,-84.57 139.7,-89.34 135.28,-79.71 130.24,-84.57"/>
</g>
<!-- Node4&#45;&gt;Node3 -->
<g id="edge5" class="edge">
<title>Node4&#45;&gt;Node3</title>
<path fill="none" stroke="midnightblue" d="M196.8,-82.08C206.65,-72.34 217.31,-61.8 226.6,-52.61"/>
<polygon fill="midnightblue" stroke="midnightblue" points="194.1,-79.82 189.45,-89.34 199.03,-84.79 194.1,-79.82"/>
</g>
</g>
</svg>
