<?xml version="1.0" encoding="UTF-8" standalone="no"?>
<!DOCTYPE svg PUBLIC "-//W3C//DTD SVG 1.1//EN"
 "http://www.w3.org/Graphics/SVG/1.1/DTD/svg11.dtd">
<!-- Generated by graphviz version 2.43.0 (0)
 -->
<!-- Title: Display Pages: 1 -->
<svg width="200pt" height="182pt"
 viewBox="0.00 0.00 200.00 182.00" xmlns="http://www.w3.org/2000/svg" xmlns:xlink="http://www.w3.org/1999/xlink">
<g id="graph0" class="graph" transform="scale(1 1) rotate(0) translate(4 178)">
<title>Display</title>
<polygon fill="white" stroke="transparent" points="-4,4 -4,-178 196,-178 196,4 -4,4"/>
<!-- Node1 -->
<g id="node1" class="node">
<title>Node1</title>
<g id="a_node1"><a xlink:title=" ">
<polygon fill="#bfbfbf" stroke="black" points="51,-0.5 51,-68.5 123,-68.5 123,-0.5 51,-0.5"/>
<text text-anchor="middle" x="87" y="-56.5" font-family="Helvetica,sans-Serif" font-size="10.00">Display</text>
<polyline fill="none" stroke="black" points="51,-49.5 123,-49.5 "/>
<text text-anchor="middle" x="87" y="-37.5" font-family="Helvetica,sans-Serif" font-size="10.00"> </text>
<polyline fill="none" stroke="black" points="51,-30.5 123,-30.5 "/>
<text text-anchor="start" x="59" y="-18.5" font-family="Helvetica,sans-Serif" font-size="10.00">+ Display()</text>
<text text-anchor="start" x="59" y="-7.5" font-family="Helvetica,sans-Serif" font-size="10.00">+ refresh()</text>
</a>
</g>
</g>
<!-- Node2 -->
<g id="node2" class="node">
<title>Node2</title>
<g id="a_node2"><a xlink:href="classIDisplay.xhtml" target="_top" xlink:title="Interface to a display capable of displaying various information to a human.">
<polygon fill="white" stroke="black" points="0,-116.5 0,-173.5 70,-173.5 70,-116.5 0,-116.5"/>
<text text-anchor="middle" x="35" y="-161.5" font-family="Helvetica,sans-Serif" font-size="10.00">IDisplay</text>
<polyline fill="none" stroke="black" points="0,-154.5 70,-154.5 "/>
<text text-anchor="middle" x="35" y="-142.5" font-family="Helvetica,sans-Serif" font-size="10.00"> </text>
<polyline fill="none" stroke="black" points="0,-135.5 70,-135.5 "/>
<text text-anchor="start" x="8" y="-123.5" font-family="Helvetica,sans-Serif" font-size="10.00">+ refresh()</text>
</a>
</g>
</g>
<!-- Node2&#45;&gt;Node1 -->
<g id="edge1" class="edge">
<title>Node2&#45;&gt;Node1</title>
<path fill="none" stroke="midnightblue" d="M52.69,-107.09C58.68,-94.59 65.34,-80.7 71.18,-68.52"/>
<polygon fill="none" stroke="midnightblue" points="49.42,-105.81 48.26,-116.34 55.73,-108.83 49.42,-105.81"/>
</g>
<!-- Node3 -->
<g id="node3" class="node">
<title>Node3</title>
<g id="a_node3"><a xlink:title=" ">
<polygon fill="white" stroke="#bfbfbf" points="88,-116.5 88,-173.5 192,-173.5 192,-116.5 88,-116.5"/>
<text text-anchor="middle" x="140" y="-161.5" font-family="Helvetica,sans-Serif" font-size="10.00">Adafruit_SSD1306</text>
<polyline fill="none" stroke="#bfbfbf" points="88,-154.5 192,-154.5 "/>
<text text-anchor="middle" x="140" y="-142.5" font-family="Helvetica,sans-Serif" font-size="10.00"> </text>
<polyline fill="none" stroke="#bfbfbf" points="88,-135.5 192,-135.5 "/>
<text text-anchor="middle" x="140" y="-123.5" font-family="Helvetica,sans-Serif" font-size="10.00"> </text>
</a>
</g>
</g>
<!-- Node3&#45;&gt;Node1 -->
<g id="edge2" class="edge">
<title>Node3&#45;&gt;Node1</title>
<path fill="none" stroke="#404040" d="M126.49,-116.34C121.04,-105.19 114.62,-92.04 108.56,-79.63"/>
<polygon fill="none" stroke="#404040" points="108.4,-79.3 102.17,-75.67 103.13,-68.52 109.36,-72.15 108.4,-79.3"/>
<text text-anchor="middle" x="139.5" y="-90" font-family="Helvetica,sans-Serif" font-size="10.00"> +display</text>
</g>
</g>
</svg>
