<?xml version="1.0" encoding="UTF-8" standalone="no"?>
<!DOCTYPE svg PUBLIC "-//W3C//DTD SVG 1.1//EN"
 "http://www.w3.org/Graphics/SVG/1.1/DTD/svg11.dtd">
<!-- Generated by graphviz version 7.0.5 (20221223.1930)
 -->
<!-- Title: lib/3rd_party_adapters/FreeRTOS/debouncedIsr.cpp Pages: 1 -->
<svg width="494pt" height="159pt"
 viewBox="0.00 0.00 494.00 159.00" xmlns="http://www.w3.org/2000/svg" xmlns:xlink="http://www.w3.org/1999/xlink">
<g id="graph0" class="graph" transform="scale(1 1) rotate(0) translate(4 155)">
<title>lib/3rd_party_adapters/FreeRTOS/debouncedIsr.cpp</title>
<!-- Node1 -->
<g id="node1" class="node">
<title>Node1</title>
<g id="a_node1"><a xlink:title=" ">
<polygon fill="#999999" stroke="#666666" points="268.5,-151 122.5,-151 122.5,-121 268.5,-121 268.5,-151"/>
<text text-anchor="start" x="130.5" y="-139" font-family="Helvetica,sans-Serif" font-size="10.00">lib/3rd_party_adapters</text>
<text text-anchor="middle" x="195.5" y="-128" font-family="Helvetica,sans-Serif" font-size="10.00">/FreeRTOS/debouncedIsr.cpp</text>
</a>
</g>
</g>
<!-- Node2 -->
<g id="node2" class="node">
<title>Node2</title>
<g id="a_node2"><a xlink:title=" ">
<polygon fill="#e0e0e0" stroke="#999999" points="57,-79.5 0,-79.5 0,-60.5 57,-60.5 57,-79.5"/>
<text text-anchor="middle" x="28.5" y="-67.5" font-family="Helvetica,sans-Serif" font-size="10.00">Arduino.h</text>
</a>
</g>
</g>
<!-- Node1&#45;&gt;Node2 -->
<g id="edge1" class="edge">
<title>Node1&#45;&gt;Node2</title>
<path fill="none" stroke="#63b8ff" d="M158.02,-120.64C129.33,-109.64 90.09,-94.6 62.34,-83.97"/>
<polygon fill="#63b8ff" stroke="#63b8ff" points="63.95,-80.84 53.36,-80.53 61.45,-87.37 63.95,-80.84"/>
</g>
<!-- Node3 -->
<g id="node3" class="node">
<title>Node3</title>
<g id="a_node3"><a xlink:title=" ">
<polygon fill="#e0e0e0" stroke="#999999" points="124,-79.5 75,-79.5 75,-60.5 124,-60.5 124,-79.5"/>
<text text-anchor="middle" x="99.5" y="-67.5" font-family="Helvetica,sans-Serif" font-size="10.00">cassert</text>
</a>
</g>
</g>
<!-- Node1&#45;&gt;Node3 -->
<g id="edge2" class="edge">
<title>Node1&#45;&gt;Node3</title>
<path fill="none" stroke="#63b8ff" d="M174.19,-120.8C158.79,-110.53 138,-96.67 122.27,-86.18"/>
<polygon fill="#63b8ff" stroke="#63b8ff" points="124.29,-83.32 114.03,-80.68 120.4,-89.14 124.29,-83.32"/>
</g>
<!-- Node4 -->
<g id="node4" class="node">
<title>Node4</title>
<g id="a_node4"><a xlink:title=" ">
<polygon fill="#e0e0e0" stroke="#999999" points="249,-79.5 142,-79.5 142,-60.5 249,-60.5 249,-79.5"/>
<text text-anchor="middle" x="195.5" y="-67.5" font-family="Helvetica,sans-Serif" font-size="10.00">freertos/FreeRTOS.h</text>
</a>
</g>
</g>
<!-- Node1&#45;&gt;Node4 -->
<g id="edge3" class="edge">
<title>Node1&#45;&gt;Node4</title>
<path fill="none" stroke="#63b8ff" d="M195.5,-120.8C195.5,-112.09 195.5,-100.81 195.5,-91.18"/>
<polygon fill="#63b8ff" stroke="#63b8ff" points="199,-91.36 195.5,-81.36 192,-91.36 199,-91.36"/>
</g>
<!-- Node5 -->
<g id="node5" class="node">
<title>Node5</title>
<g id="a_node5"><a xlink:title=" ">
<polygon fill="#e0e0e0" stroke="#999999" points="346,-79.5 267,-79.5 267,-60.5 346,-60.5 346,-79.5"/>
<text text-anchor="middle" x="306.5" y="-67.5" font-family="Helvetica,sans-Serif" font-size="10.00">freertos/task.h</text>
</a>
</g>
</g>
<!-- Node1&#45;&gt;Node5 -->
<g id="edge4" class="edge">
<title>Node1&#45;&gt;Node5</title>
<path fill="none" stroke="#63b8ff" d="M220.41,-120.64C238.47,-110.22 262.82,-96.19 281.01,-85.7"/>
<polygon fill="#63b8ff" stroke="#63b8ff" points="282.69,-88.77 289.6,-80.74 279.19,-82.7 282.69,-88.77"/>
</g>
<!-- Node6 -->
<g id="node6" class="node">
<title>Node6</title>
<g id="a_node6"><a xlink:href="debouncedIsr_8hpp.xhtml" target="_top" xlink:title=" ">
<polygon fill="white" stroke="#666666" points="478.5,-85 364.5,-85 364.5,-55 478.5,-55 478.5,-85"/>
<text text-anchor="start" x="372.5" y="-73" font-family="Helvetica,sans-Serif" font-size="10.00">input_device_interface</text>
<text text-anchor="middle" x="421.5" y="-62" font-family="Helvetica,sans-Serif" font-size="10.00">/debouncedIsr.hpp</text>
</a>
</g>
</g>
<!-- Node1&#45;&gt;Node6 -->
<g id="edge5" class="edge">
<title>Node1&#45;&gt;Node6</title>
<path fill="none" stroke="#63b8ff" d="M246.5,-120.56C280.13,-111.04 324.36,-98.51 359.94,-88.43"/>
<polygon fill="#63b8ff" stroke="#63b8ff" points="360.56,-91.89 369.23,-85.8 358.65,-85.16 360.56,-91.89"/>
</g>
<!-- Node7 -->
<g id="node7" class="node">
<title>Node7</title>
<g id="a_node7"><a xlink:title=" ">
<polygon fill="#e0e0e0" stroke="#999999" points="408.5,-19 362.5,-19 362.5,0 408.5,0 408.5,-19"/>
<text text-anchor="middle" x="385.5" y="-7" font-family="Helvetica,sans-Serif" font-size="10.00">chrono</text>
</a>
</g>
</g>
<!-- Node6&#45;&gt;Node7 -->
<g id="edge6" class="edge">
<title>Node6&#45;&gt;Node7</title>
<path fill="none" stroke="#63b8ff" d="M412.6,-54.54C407.8,-46.74 401.82,-37.03 396.71,-28.71"/>
<polygon fill="#63b8ff" stroke="#63b8ff" points="399.85,-27.15 391.63,-20.46 393.89,-30.82 399.85,-27.15"/>
</g>
<!-- Node8 -->
<g id="node8" class="node">
<title>Node8</title>
<g id="a_node8"><a xlink:title=" ">
<polygon fill="#e0e0e0" stroke="#999999" points="486,-19 427,-19 427,0 486,0 486,-19"/>
<text text-anchor="middle" x="456.5" y="-7" font-family="Helvetica,sans-Serif" font-size="10.00">functional</text>
</a>
</g>
</g>
<!-- Node6&#45;&gt;Node8 -->
<g id="edge7" class="edge">
<title>Node6&#45;&gt;Node8</title>
<path fill="none" stroke="#63b8ff" d="M430.15,-54.54C434.77,-46.82 440.5,-37.24 445.44,-28.99"/>
<polygon fill="#63b8ff" stroke="#63b8ff" points="448.4,-30.85 450.53,-20.47 442.39,-27.26 448.4,-30.85"/>
</g>
</g>
</svg>
