<?xml version="1.0" encoding="UTF-8" standalone="no"?>
<!DOCTYPE svg PUBLIC "-//W3C//DTD SVG 1.1//EN"
 "http://www.w3.org/Graphics/SVG/1.1/DTD/svg11.dtd">
<!-- Generated by graphviz version 7.0.5 (20221223.1930)
 -->
<!-- Title: lib/board_adapters/input_device_interface/debouncedIsr.hpp Pages: 1 -->
<svg width="401pt" height="126pt"
 viewBox="0.00 0.00 400.50 126.00" xmlns="http://www.w3.org/2000/svg" xmlns:xlink="http://www.w3.org/1999/xlink">
<g id="graph0" class="graph" transform="scale(1 1) rotate(0) translate(4 122)">
<title>lib/board_adapters/input_device_interface/debouncedIsr.hpp</title>
<!-- Node1 -->
<g id="node1" class="node">
<title>Node1</title>
<g id="a_node1"><a xlink:title=" ">
<polygon fill="#999999" stroke="#666666" points="281.5,-118 164.5,-118 164.5,-77 281.5,-77 281.5,-118"/>
<text text-anchor="start" x="172.5" y="-106" font-family="Helvetica,sans-Serif" font-size="10.00">lib/board_adapters</text>
<text text-anchor="start" x="172.5" y="-95" font-family="Helvetica,sans-Serif" font-size="10.00">/input_device_interface</text>
<text text-anchor="middle" x="223" y="-84" font-family="Helvetica,sans-Serif" font-size="10.00">/debouncedIsr.hpp</text>
</a>
</g>
</g>
<!-- Node2 -->
<g id="node2" class="node">
<title>Node2</title>
<g id="a_node2"><a xlink:href="debouncedIsr_8cpp.xhtml" target="_top" xlink:title=" ">
<polygon fill="white" stroke="#666666" points="146,-35.5 0,-35.5 0,-5.5 146,-5.5 146,-35.5"/>
<text text-anchor="start" x="8" y="-23.5" font-family="Helvetica,sans-Serif" font-size="10.00">lib/3rd_party_adapters</text>
<text text-anchor="middle" x="73" y="-12.5" font-family="Helvetica,sans-Serif" font-size="10.00">/FreeRTOS/debouncedIsr.cpp</text>
</a>
</g>
</g>
<!-- Node1&#45;&gt;Node2 -->
<g id="edge1" class="edge">
<title>Node1&#45;&gt;Node2</title>
<path fill="none" stroke="#63b8ff" d="M172.94,-71.47C149.21,-59.6 121.71,-45.85 101.57,-35.79"/>
<polygon fill="#63b8ff" stroke="#63b8ff" points="171.33,-74.58 181.84,-75.92 174.46,-68.32 171.33,-74.58"/>
</g>
<!-- Node3 -->
<g id="node3" class="node">
<title>Node3</title>
<g id="a_node3"><a xlink:href="Keypad_8cpp.xhtml" target="_top" xlink:title=" ">
<polygon fill="white" stroke="#666666" points="281.5,-41 164.5,-41 164.5,0 281.5,0 281.5,-41"/>
<text text-anchor="start" x="172.5" y="-29" font-family="Helvetica,sans-Serif" font-size="10.00">lib/board_adapters</text>
<text text-anchor="start" x="172.5" y="-18" font-family="Helvetica,sans-Serif" font-size="10.00">/input_device_interface</text>
<text text-anchor="middle" x="223" y="-7" font-family="Helvetica,sans-Serif" font-size="10.00">/Keypad.cpp</text>
</a>
</g>
</g>
<!-- Node1&#45;&gt;Node3 -->
<g id="edge2" class="edge">
<title>Node1&#45;&gt;Node3</title>
<path fill="none" stroke="#63b8ff" d="M223,-65.36C223,-57.24 223,-48.7 223,-41.33"/>
<polygon fill="#63b8ff" stroke="#63b8ff" points="219.5,-65.28 223,-75.28 226.5,-65.28 219.5,-65.28"/>
</g>
<!-- Node4 -->
<g id="node4" class="node">
<title>Node4</title>
<g id="a_node4"><a xlink:href="test__hmi_8cpp.xhtml" target="_top" xlink:title=" ">
<polygon fill="white" stroke="#666666" points="392.5,-35.5 299.5,-35.5 299.5,-5.5 392.5,-5.5 392.5,-35.5"/>
<text text-anchor="start" x="307.5" y="-23.5" font-family="Helvetica,sans-Serif" font-size="10.00">test/test_hmi/test</text>
<text text-anchor="middle" x="346" y="-12.5" font-family="Helvetica,sans-Serif" font-size="10.00">_hmi.cpp</text>
</a>
</g>
</g>
<!-- Node1&#45;&gt;Node4 -->
<g id="edge3" class="edge">
<title>Node1&#45;&gt;Node4</title>
<path fill="none" stroke="#63b8ff" d="M265.36,-70.67C284.52,-58.99 306.43,-45.63 322.57,-35.79"/>
<polygon fill="#63b8ff" stroke="#63b8ff" points="263.65,-67.62 256.93,-75.81 267.29,-73.59 263.65,-67.62"/>
</g>
</g>
</svg>
