<?xml version="1.0" encoding="UTF-8" standalone="no"?>
<!DOCTYPE svg PUBLIC "-//W3C//DTD SVG 1.1//EN"
 "http://www.w3.org/Graphics/SVG/1.1/DTD/svg11.dtd">
<!-- Generated by graphviz version 2.43.0 (0)
 -->
<!-- Title: lib/board_adapters/input_device_interface/debouncedIsr.hpp Pages: 1 -->
<svg width="433pt" height="128pt"
 viewBox="0.00 0.00 432.50 128.00" xmlns="http://www.w3.org/2000/svg" xmlns:xlink="http://www.w3.org/1999/xlink">
<g id="graph0" class="graph" transform="scale(1 1) rotate(0) translate(4 124)">
<title>lib/board_adapters/input_device_interface/debouncedIsr.hpp</title>
<polygon fill="white" stroke="transparent" points="-4,4 -4,-124 428.5,-124 428.5,4 -4,4"/>
<!-- Node1 -->
<g id="node1" class="node">
<title>Node1</title>
<g id="a_node1"><a xlink:title=" ">
<polygon fill="#bfbfbf" stroke="black" points="172.5,-78.5 172.5,-119.5 303.5,-119.5 303.5,-78.5 172.5,-78.5"/>
<text text-anchor="start" x="180.5" y="-107.5" font-family="Helvetica,sans-Serif" font-size="10.00">lib/board_adapters</text>
<text text-anchor="start" x="180.5" y="-96.5" font-family="Helvetica,sans-Serif" font-size="10.00">/input_device_interface</text>
<text text-anchor="middle" x="238" y="-85.5" font-family="Helvetica,sans-Serif" font-size="10.00">/debouncedIsr.hpp</text>
</a>
</g>
</g>
<!-- Node2 -->
<g id="node2" class="node">
<title>Node2</title>
<g id="a_node2"><a xlink:href="debouncedIsr_8cpp.xhtml" target="_top" xlink:title=" ">
<polygon fill="white" stroke="black" points="0,-6 0,-36 154,-36 154,-6 0,-6"/>
<text text-anchor="start" x="8" y="-24" font-family="Helvetica,sans-Serif" font-size="10.00">lib/3rd_party_adapters</text>
<text text-anchor="middle" x="77" y="-13" font-family="Helvetica,sans-Serif" font-size="10.00">/FreeRTOS/debouncedIsr.cpp</text>
</a>
</g>
</g>
<!-- Node1&#45;&gt;Node2 -->
<g id="edge1" class="edge">
<title>Node1&#45;&gt;Node2</title>
<path fill="none" stroke="midnightblue" d="M187.41,-74.12C160.94,-61.63 129.45,-46.76 106.88,-36.11"/>
<polygon fill="midnightblue" stroke="midnightblue" points="186,-77.32 196.54,-78.43 188.99,-70.99 186,-77.32"/>
</g>
<!-- Node3 -->
<g id="node3" class="node">
<title>Node3</title>
<g id="a_node3"><a xlink:href="Keypad_8cpp.xhtml" target="_top" xlink:title=" ">
<polygon fill="white" stroke="black" points="172.5,-0.5 172.5,-41.5 303.5,-41.5 303.5,-0.5 172.5,-0.5"/>
<text text-anchor="start" x="180.5" y="-29.5" font-family="Helvetica,sans-Serif" font-size="10.00">lib/board_adapters</text>
<text text-anchor="start" x="180.5" y="-18.5" font-family="Helvetica,sans-Serif" font-size="10.00">/input_device_interface</text>
<text text-anchor="middle" x="238" y="-7.5" font-family="Helvetica,sans-Serif" font-size="10.00">/Keypad.cpp</text>
</a>
</g>
</g>
<!-- Node1&#45;&gt;Node3 -->
<g id="edge2" class="edge">
<title>Node1&#45;&gt;Node3</title>
<path fill="none" stroke="midnightblue" d="M238,-68.3C238,-59.3 238,-49.65 238,-41.51"/>
<polygon fill="midnightblue" stroke="midnightblue" points="234.5,-68.43 238,-78.43 241.5,-68.43 234.5,-68.43"/>
</g>
<!-- Node4 -->
<g id="node4" class="node">
<title>Node4</title>
<g id="a_node4"><a xlink:href="test__hmi_8cpp.xhtml" target="_top" xlink:title=" ">
<polygon fill="white" stroke="black" points="321.5,-6 321.5,-36 424.5,-36 424.5,-6 321.5,-6"/>
<text text-anchor="start" x="329.5" y="-24" font-family="Helvetica,sans-Serif" font-size="10.00">test/test_hmi/test</text>
<text text-anchor="middle" x="373" y="-13" font-family="Helvetica,sans-Serif" font-size="10.00">_hmi.cpp</text>
</a>
</g>
</g>
<!-- Node1&#45;&gt;Node4 -->
<g id="edge3" class="edge">
<title>Node1&#45;&gt;Node4</title>
<path fill="none" stroke="midnightblue" d="M281.56,-73.48C303.43,-61.17 329.15,-46.69 347.73,-36.23"/>
<polygon fill="midnightblue" stroke="midnightblue" points="279.76,-70.47 272.77,-78.43 283.2,-76.57 279.76,-70.47"/>
</g>
</g>
</svg>
