<?xml version="1.0" encoding="UTF-8" standalone="no"?>
<!DOCTYPE svg PUBLIC "-//W3C//DTD SVG 1.1//EN"
 "http://www.w3.org/Graphics/SVG/1.1/DTD/svg11.dtd">
<!-- Generated by graphviz version 2.43.0 (0)
 -->
<!-- Title: lib/3rd_party_adapters/FreeRTOS/debouncedIsr.cpp Pages: 1 -->
<svg width="532pt" height="162pt"
 viewBox="0.00 0.00 532.00 162.00" xmlns="http://www.w3.org/2000/svg" xmlns:xlink="http://www.w3.org/1999/xlink">
<g id="graph0" class="graph" transform="scale(1 1) rotate(0) translate(4 158)">
<title>lib/3rd_party_adapters/FreeRTOS/debouncedIsr.cpp</title>
<polygon fill="white" stroke="transparent" points="-4,4 -4,-158 528,-158 528,4 -4,4"/>
<!-- Node1 -->
<g id="node1" class="node">
<title>Node1</title>
<g id="a_node1"><a xlink:title=" ">
<polygon fill="#bfbfbf" stroke="black" points="131.5,-123.5 131.5,-153.5 285.5,-153.5 285.5,-123.5 131.5,-123.5"/>
<text text-anchor="start" x="139.5" y="-141.5" font-family="Helvetica,sans-Serif" font-size="10.00">lib/3rd_party_adapters</text>
<text text-anchor="middle" x="208.5" y="-130.5" font-family="Helvetica,sans-Serif" font-size="10.00">/FreeRTOS/debouncedIsr.cpp</text>
</a>
</g>
</g>
<!-- Node2 -->
<g id="node2" class="node">
<title>Node2</title>
<g id="a_node2"><a xlink:title=" ">
<polygon fill="white" stroke="#bfbfbf" points="0,-62 0,-81 63,-81 63,-62 0,-62"/>
<text text-anchor="middle" x="31.5" y="-69" font-family="Helvetica,sans-Serif" font-size="10.00">Arduino.h</text>
</a>
</g>
</g>
<!-- Node1&#45;&gt;Node2 -->
<g id="edge1" class="edge">
<title>Node1&#45;&gt;Node2</title>
<path fill="none" stroke="midnightblue" d="M170.09,-123.4C138.49,-111.79 94.17,-95.51 64.23,-84.52"/>
<polygon fill="midnightblue" stroke="midnightblue" points="65.26,-81.17 54.67,-81.01 62.85,-87.74 65.26,-81.17"/>
</g>
<!-- Node3 -->
<g id="node3" class="node">
<title>Node3</title>
<g id="a_node3"><a xlink:title=" ">
<polygon fill="white" stroke="#bfbfbf" points="81.5,-62 81.5,-81 133.5,-81 133.5,-62 81.5,-62"/>
<text text-anchor="middle" x="107.5" y="-69" font-family="Helvetica,sans-Serif" font-size="10.00">cassert</text>
</a>
</g>
</g>
<!-- Node1&#45;&gt;Node3 -->
<g id="edge2" class="edge">
<title>Node1&#45;&gt;Node3</title>
<path fill="none" stroke="midnightblue" d="M186.58,-123.4C169.65,-112.5 146.31,-97.48 129.38,-86.58"/>
<polygon fill="midnightblue" stroke="midnightblue" points="131.02,-83.48 120.72,-81.01 127.23,-89.36 131.02,-83.48"/>
</g>
<!-- Node4 -->
<g id="node4" class="node">
<title>Node4</title>
<g id="a_node4"><a xlink:title=" ">
<polygon fill="white" stroke="#bfbfbf" points="152,-62 152,-81 265,-81 265,-62 152,-62"/>
<text text-anchor="middle" x="208.5" y="-69" font-family="Helvetica,sans-Serif" font-size="10.00">freertos/FreeRTOS.h</text>
</a>
</g>
</g>
<!-- Node1&#45;&gt;Node4 -->
<g id="edge3" class="edge">
<title>Node1&#45;&gt;Node4</title>
<path fill="none" stroke="midnightblue" d="M208.5,-123.4C208.5,-114.06 208.5,-101.71 208.5,-91.52"/>
<polygon fill="midnightblue" stroke="midnightblue" points="212,-91.19 208.5,-81.19 205,-91.19 212,-91.19"/>
</g>
<!-- Node5 -->
<g id="node5" class="node">
<title>Node5</title>
<g id="a_node5"><a xlink:title=" ">
<polygon fill="white" stroke="#bfbfbf" points="283.5,-62 283.5,-81 371.5,-81 371.5,-62 283.5,-62"/>
<text text-anchor="middle" x="327.5" y="-69" font-family="Helvetica,sans-Serif" font-size="10.00">freertos/task.h</text>
</a>
</g>
</g>
<!-- Node1&#45;&gt;Node5 -->
<g id="edge4" class="edge">
<title>Node1&#45;&gt;Node5</title>
<path fill="none" stroke="midnightblue" d="M234.32,-123.4C254.74,-112.24 283.05,-96.78 303.09,-85.83"/>
<polygon fill="midnightblue" stroke="midnightblue" points="304.83,-88.87 311.93,-81.01 301.47,-82.73 304.83,-88.87"/>
</g>
<!-- Node6 -->
<g id="node6" class="node">
<title>Node6</title>
<g id="a_node6"><a xlink:href="debouncedIsr_8hpp.xhtml" target="_top" xlink:title=" ">
<polygon fill="white" stroke="black" points="389.5,-56.5 389.5,-86.5 517.5,-86.5 517.5,-56.5 389.5,-56.5"/>
<text text-anchor="start" x="397.5" y="-74.5" font-family="Helvetica,sans-Serif" font-size="10.00">input_device_interface</text>
<text text-anchor="middle" x="453.5" y="-63.5" font-family="Helvetica,sans-Serif" font-size="10.00">/debouncedIsr.hpp</text>
</a>
</g>
</g>
<!-- Node1&#45;&gt;Node6 -->
<g id="edge5" class="edge">
<title>Node1&#45;&gt;Node6</title>
<path fill="none" stroke="midnightblue" d="M261.36,-123.48C299.23,-113.43 350.39,-99.86 390.4,-89.24"/>
<polygon fill="midnightblue" stroke="midnightblue" points="391.54,-92.56 400.31,-86.61 389.75,-85.79 391.54,-92.56"/>
</g>
<!-- Node7 -->
<g id="node7" class="node">
<title>Node7</title>
<g id="a_node7"><a xlink:title=" ">
<polygon fill="white" stroke="#bfbfbf" points="390.5,-0.5 390.5,-19.5 440.5,-19.5 440.5,-0.5 390.5,-0.5"/>
<text text-anchor="middle" x="415.5" y="-7.5" font-family="Helvetica,sans-Serif" font-size="10.00">chrono</text>
</a>
</g>
</g>
<!-- Node6&#45;&gt;Node7 -->
<g id="edge6" class="edge">
<title>Node6&#45;&gt;Node7</title>
<path fill="none" stroke="midnightblue" d="M444.49,-56.4C439.09,-47.93 432.17,-37.1 426.45,-28.14"/>
<polygon fill="midnightblue" stroke="midnightblue" points="429.36,-26.2 421.03,-19.66 423.46,-29.97 429.36,-26.2"/>
</g>
<!-- Node8 -->
<g id="node8" class="node">
<title>Node8</title>
<g id="a_node8"><a xlink:title=" ">
<polygon fill="white" stroke="#bfbfbf" points="459,-0.5 459,-19.5 524,-19.5 524,-0.5 459,-0.5"/>
<text text-anchor="middle" x="491.5" y="-7.5" font-family="Helvetica,sans-Serif" font-size="10.00">functional</text>
</a>
</g>
</g>
<!-- Node6&#45;&gt;Node8 -->
<g id="edge7" class="edge">
<title>Node6&#45;&gt;Node8</title>
<path fill="none" stroke="midnightblue" d="M462.51,-56.4C467.91,-47.93 474.83,-37.1 480.55,-28.14"/>
<polygon fill="midnightblue" stroke="midnightblue" points="483.54,-29.97 485.97,-19.66 477.64,-26.2 483.54,-29.97"/>
</g>
</g>
</svg>
