<?xml version="1.0" encoding="UTF-8" standalone="no"?>
<!DOCTYPE svg PUBLIC "-//W3C//DTD SVG 1.1//EN"
 "http://www.w3.org/Graphics/SVG/1.1/DTD/svg11.dtd">
<!-- Generated by graphviz version 7.0.5 (20221223.1930)
 -->
<!-- Title: lib/3rd_party_adapters/FreeRTOS/debouncedIsr.cpp Pages: 1 -->
<svg width="427pt" height="159pt"
 viewBox="0.00 0.00 427.00 159.00" xmlns="http://www.w3.org/2000/svg" xmlns:xlink="http://www.w3.org/1999/xlink">
<g id="graph0" class="graph" transform="scale(1 1) rotate(0) translate(4 155)">
<title>lib/3rd_party_adapters/FreeRTOS/debouncedIsr.cpp</title>
<!-- Node1 -->
<g id="node1" class="node">
<title>Node1</title>
<g id="a_node1"><a xlink:title=" ">
<polygon fill="#999999" stroke="#666666" points="256.5,-151 110.5,-151 110.5,-121 256.5,-121 256.5,-151"/>
<text text-anchor="start" x="118.5" y="-139" font-family="Helvetica,sans-Serif" font-size="10.00">lib/3rd_party_adapters</text>
<text text-anchor="middle" x="183.5" y="-128" font-family="Helvetica,sans-Serif" font-size="10.00">/FreeRTOS/debouncedIsr.cpp</text>
</a>
</g>
</g>
<!-- Node2 -->
<g id="node2" class="node">
<title>Node2</title>
<g id="a_node2"><a xlink:title=" ">
<polygon fill="#e0e0e0" stroke="#999999" points="57,-79.5 0,-79.5 0,-60.5 57,-60.5 57,-79.5"/>
<text text-anchor="middle" x="28.5" y="-67.5" font-family="Helvetica,sans-Serif" font-size="10.00">Arduino.h</text>
</a>
</g>
</g>
<!-- Node1&#45;&gt;Node2 -->
<g id="edge1" class="edge">
<title>Node1&#45;&gt;Node2</title>
<path fill="none" stroke="#63b8ff" d="M148.71,-120.64C122.32,-109.74 86.3,-94.87 60.59,-84.25"/>
<polygon fill="#63b8ff" stroke="#63b8ff" points="62.24,-81.14 51.66,-80.56 59.57,-87.62 62.24,-81.14"/>
</g>
<!-- Node3 -->
<g id="node3" class="node">
<title>Node3</title>
<g id="a_node3"><a xlink:title=" ">
<polygon fill="#e0e0e0" stroke="#999999" points="182,-79.5 75,-79.5 75,-60.5 182,-60.5 182,-79.5"/>
<text text-anchor="middle" x="128.5" y="-67.5" font-family="Helvetica,sans-Serif" font-size="10.00">freertos/FreeRTOS.h</text>
</a>
</g>
</g>
<!-- Node1&#45;&gt;Node3 -->
<g id="edge2" class="edge">
<title>Node1&#45;&gt;Node3</title>
<path fill="none" stroke="#63b8ff" d="M171.29,-120.8C163.06,-111.21 152.13,-98.5 143.38,-88.32"/>
<polygon fill="#63b8ff" stroke="#63b8ff" points="146.26,-86.3 137.09,-80.99 140.95,-90.86 146.26,-86.3"/>
</g>
<!-- Node4 -->
<g id="node4" class="node">
<title>Node4</title>
<g id="a_node4"><a xlink:title=" ">
<polygon fill="#e0e0e0" stroke="#999999" points="279,-79.5 200,-79.5 200,-60.5 279,-60.5 279,-79.5"/>
<text text-anchor="middle" x="239.5" y="-67.5" font-family="Helvetica,sans-Serif" font-size="10.00">freertos/task.h</text>
</a>
</g>
</g>
<!-- Node1&#45;&gt;Node4 -->
<g id="edge3" class="edge">
<title>Node1&#45;&gt;Node4</title>
<path fill="none" stroke="#63b8ff" d="M195.93,-120.8C204.32,-111.21 215.44,-98.5 224.35,-88.32"/>
<polygon fill="#63b8ff" stroke="#63b8ff" points="226.81,-90.81 230.76,-80.98 221.55,-86.2 226.81,-90.81"/>
</g>
<!-- Node5 -->
<g id="node5" class="node">
<title>Node5</title>
<g id="a_node5"><a xlink:href="debouncedIsr_8hpp.xhtml" target="_top" xlink:title=" ">
<polygon fill="white" stroke="#666666" points="411.5,-85 297.5,-85 297.5,-55 411.5,-55 411.5,-85"/>
<text text-anchor="start" x="305.5" y="-73" font-family="Helvetica,sans-Serif" font-size="10.00">input_device_interface</text>
<text text-anchor="middle" x="354.5" y="-62" font-family="Helvetica,sans-Serif" font-size="10.00">/debouncedIsr.hpp</text>
</a>
</g>
</g>
<!-- Node1&#45;&gt;Node5 -->
<g id="edge4" class="edge">
<title>Node1&#45;&gt;Node5</title>
<path fill="none" stroke="#63b8ff" d="M221.88,-120.64C246.54,-111.41 278.82,-99.33 305.35,-89.39"/>
<polygon fill="#63b8ff" stroke="#63b8ff" points="306.4,-92.74 314.54,-85.96 303.95,-86.18 306.4,-92.74"/>
</g>
<!-- Node6 -->
<g id="node6" class="node">
<title>Node6</title>
<g id="a_node6"><a xlink:title=" ">
<polygon fill="#e0e0e0" stroke="#999999" points="341.5,-19 295.5,-19 295.5,0 341.5,0 341.5,-19"/>
<text text-anchor="middle" x="318.5" y="-7" font-family="Helvetica,sans-Serif" font-size="10.00">chrono</text>
</a>
</g>
</g>
<!-- Node5&#45;&gt;Node6 -->
<g id="edge5" class="edge">
<title>Node5&#45;&gt;Node6</title>
<path fill="none" stroke="#63b8ff" d="M345.6,-54.54C340.8,-46.74 334.82,-37.03 329.71,-28.71"/>
<polygon fill="#63b8ff" stroke="#63b8ff" points="332.85,-27.15 324.63,-20.46 326.89,-30.82 332.85,-27.15"/>
</g>
<!-- Node7 -->
<g id="node7" class="node">
<title>Node7</title>
<g id="a_node7"><a xlink:title=" ">
<polygon fill="#e0e0e0" stroke="#999999" points="419,-19 360,-19 360,0 419,0 419,-19"/>
<text text-anchor="middle" x="389.5" y="-7" font-family="Helvetica,sans-Serif" font-size="10.00">functional</text>
</a>
</g>
</g>
<!-- Node5&#45;&gt;Node7 -->
<g id="edge6" class="edge">
<title>Node5&#45;&gt;Node7</title>
<path fill="none" stroke="#63b8ff" d="M363.15,-54.54C367.77,-46.82 373.5,-37.24 378.44,-28.99"/>
<polygon fill="#63b8ff" stroke="#63b8ff" points="381.4,-30.85 383.53,-20.47 375.39,-27.26 381.4,-30.85"/>
</g>
</g>
</svg>
