<?xml version="1.0" encoding="UTF-8" standalone="no"?>
<!DOCTYPE svg PUBLIC "-//W3C//DTD SVG 1.1//EN"
 "http://www.w3.org/Graphics/SVG/1.1/DTD/svg11.dtd">
<!-- Generated by graphviz version 2.43.0 (0)
 -->
<!-- Title: lib/3rd_party_adapters Pages: 1 -->
<svg width="393pt" height="247pt"
 viewBox="0.00 0.00 393.00 247.00" xmlns="http://www.w3.org/2000/svg" xmlns:xlink="http://www.w3.org/1999/xlink">
<g id="graph0" class="graph" transform="scale(1 1) rotate(0) translate(4 243)">
<title>lib/3rd_party_adapters</title>
<polygon fill="white" stroke="transparent" points="-4,4 -4,-243 389,-243 389,4 -4,4"/>
<g id="clust1" class="cluster">
<title>clusterdir_97aefd0d527b934f1d99a682da8fe6a9</title>
<g id="a_clust1"><a xlink:href="dir_97aefd0d527b934f1d99a682da8fe6a9.xhtml" target="_top" xlink:title="lib">
<polygon fill="#ddddee" stroke="black" points="8,-8 8,-231 377,-231 377,-8 8,-8"/>
<text text-anchor="middle" x="192.5" y="-219" font-family="Helvetica,sans-Serif" font-size="10.00">lib</text>
</a>
</g>
</g>
<g id="clust2" class="cluster">
<title>clusterdir_e75212beacfa7863df067e044f07f232</title>
<g id="a_clust2"><a xlink:href="dir_e75212beacfa7863df067e044f07f232.xhtml" target="_top">
<polygon fill="#eeeeff" stroke="black" points="16,-152 16,-204 369,-204 369,-152 16,-152"/>
</a>
</g>
</g>
<!-- dir_b49365647f74dff1c8dd1e88d29293e4 -->
<g id="node1" class="node">
<title>dir_b49365647f74dff1c8dd1e88d29293e4</title>
<g id="a_node1"><a xlink:href="dir_b49365647f74dff1c8dd1e88d29293e4.xhtml" target="_top" xlink:title="board_adapters">
<polygon fill="white" stroke="red" points="174,-124 82,-124 82,-88 174,-88 174,-124"/>
<text text-anchor="middle" x="128" y="-103.5" font-family="Helvetica,sans-Serif" font-size="10.00">board_adapters</text>
</a>
</g>
</g>
<!-- dir_6dbb42d2342d9d7292a192bc1d024acc -->
<g id="node2" class="node">
<title>dir_6dbb42d2342d9d7292a192bc1d024acc</title>
<g id="a_node2"><a xlink:href="dir_6dbb42d2342d9d7292a192bc1d024acc.xhtml" target="_top" xlink:title="application_business_rules">
<polygon fill="white" stroke="red" points="202,-52 54,-52 54,-16 202,-16 202,-52"/>
<text text-anchor="middle" x="128" y="-31.5" font-family="Helvetica,sans-Serif" font-size="10.00">application_business_rules</text>
</a>
</g>
</g>
<!-- dir_b49365647f74dff1c8dd1e88d29293e4&#45;&gt;dir_6dbb42d2342d9d7292a192bc1d024acc -->
<g id="edge1" class="edge">
<title>dir_b49365647f74dff1c8dd1e88d29293e4&#45;&gt;dir_6dbb42d2342d9d7292a192bc1d024acc</title>
<path fill="none" stroke="black" d="M128,-87.7C128,-79.98 128,-70.71 128,-62.11"/>
<polygon fill="black" stroke="black" points="131.5,-62.1 128,-52.1 124.5,-62.1 131.5,-62.1"/>
<g id="a_edge1&#45;headlabel"><a xlink:href="dir_000006_000005.xhtml" target="_top" xlink:title="6">
<text text-anchor="middle" x="134.34" y="-63.2" font-family="Helvetica,sans-Serif" font-size="10.00">6</text>
</a>
</g>
</g>
<!-- dir_e75212beacfa7863df067e044f07f232 -->
<g id="node3" class="node">
<title>dir_e75212beacfa7863df067e044f07f232</title>
<text text-anchor="middle" x="306" y="-175.5" font-family="Helvetica,sans-Serif" font-size="10.00">3rd_party_adapters</text>
</g>
<!-- dir_e5c908e09902ac05aca8138811a01df8 -->
<g id="node4" class="node">
<title>dir_e5c908e09902ac05aca8138811a01df8</title>
<g id="a_node4"><a xlink:href="dir_e5c908e09902ac05aca8138811a01df8.xhtml" target="_top" xlink:title="Arduino">
<polygon fill="white" stroke="black" points="78,-196 24,-196 24,-160 78,-160 78,-196"/>
<text text-anchor="middle" x="51" y="-175.5" font-family="Helvetica,sans-Serif" font-size="10.00">Arduino</text>
</a>
</g>
</g>
<!-- dir_e5c908e09902ac05aca8138811a01df8&#45;&gt;dir_b49365647f74dff1c8dd1e88d29293e4 -->
<g id="edge6" class="edge">
<title>dir_e5c908e09902ac05aca8138811a01df8&#45;&gt;dir_b49365647f74dff1c8dd1e88d29293e4</title>
<path fill="none" stroke="black" d="M70.03,-159.7C79.54,-151.05 91.21,-140.45 101.57,-131.03"/>
<polygon fill="black" stroke="black" points="104.14,-133.42 109.19,-124.1 99.43,-128.24 104.14,-133.42"/>
<g id="a_edge6&#45;headlabel"><a xlink:href="dir_000009_000006.xhtml" target="_top" xlink:title="1">
<text text-anchor="middle" x="103.39" y="-135.44" font-family="Helvetica,sans-Serif" font-size="10.00">1</text>
</a>
</g>
</g>
<!-- dir_e5c908e09902ac05aca8138811a01df8&#45;&gt;dir_6dbb42d2342d9d7292a192bc1d024acc -->
<g id="edge5" class="edge">
<title>dir_e5c908e09902ac05aca8138811a01df8&#45;&gt;dir_6dbb42d2342d9d7292a192bc1d024acc</title>
<path fill="none" stroke="black" d="M52.39,-159.88C54.53,-141.15 59.88,-110.75 73,-88 79.26,-77.14 88.4,-67.07 97.43,-58.7"/>
<polygon fill="black" stroke="black" points="99.75,-61.32 104.93,-52.08 95.12,-56.07 99.75,-61.32"/>
<g id="a_edge5&#45;headlabel"><a xlink:href="dir_000009_000005.xhtml" target="_top" xlink:title="1">
<text text-anchor="middle" x="98.94" y="-63.33" font-family="Helvetica,sans-Serif" font-size="10.00">1</text>
</a>
</g>
</g>
<!-- dir_bd3335c2666e9b9774751992bb1cf5a7 -->
<g id="node5" class="node">
<title>dir_bd3335c2666e9b9774751992bb1cf5a7</title>
<g id="a_node5"><a xlink:href="dir_bd3335c2666e9b9774751992bb1cf5a7.xhtml" target="_top" xlink:title="FreeRTOS">
<polygon fill="white" stroke="black" points="159.5,-196 96.5,-196 96.5,-160 159.5,-160 159.5,-196"/>
<text text-anchor="middle" x="128" y="-175.5" font-family="Helvetica,sans-Serif" font-size="10.00">FreeRTOS</text>
</a>
</g>
</g>
<!-- dir_bd3335c2666e9b9774751992bb1cf5a7&#45;&gt;dir_b49365647f74dff1c8dd1e88d29293e4 -->
<g id="edge2" class="edge">
<title>dir_bd3335c2666e9b9774751992bb1cf5a7&#45;&gt;dir_b49365647f74dff1c8dd1e88d29293e4</title>
<path fill="none" stroke="black" d="M128,-159.7C128,-151.98 128,-142.71 128,-134.11"/>
<polygon fill="black" stroke="black" points="131.5,-134.1 128,-124.1 124.5,-134.1 131.5,-134.1"/>
<g id="a_edge2&#45;headlabel"><a xlink:href="dir_000010_000006.xhtml" target="_top" xlink:title="1">
<text text-anchor="middle" x="134.34" y="-135.2" font-family="Helvetica,sans-Serif" font-size="10.00">1</text>
</a>
</g>
</g>
<!-- dir_673789fe363c8cf83b6beac9ec7c58fa -->
<g id="node6" class="node">
<title>dir_673789fe363c8cf83b6beac9ec7c58fa</title>
<g id="a_node6"><a xlink:href="dir_673789fe363c8cf83b6beac9ec7c58fa.xhtml" target="_top" xlink:title="LVGL">
<polygon fill="white" stroke="black" points="232,-196 178,-196 178,-160 232,-160 232,-196"/>
<text text-anchor="middle" x="205" y="-175.5" font-family="Helvetica,sans-Serif" font-size="10.00">LVGL</text>
</a>
</g>
</g>
<!-- dir_673789fe363c8cf83b6beac9ec7c58fa&#45;&gt;dir_b49365647f74dff1c8dd1e88d29293e4 -->
<g id="edge4" class="edge">
<title>dir_673789fe363c8cf83b6beac9ec7c58fa&#45;&gt;dir_b49365647f74dff1c8dd1e88d29293e4</title>
<path fill="none" stroke="black" d="M185.97,-159.7C176.46,-151.05 164.79,-140.45 154.43,-131.03"/>
<polygon fill="black" stroke="black" points="156.57,-128.24 146.81,-124.1 151.86,-133.42 156.57,-128.24"/>
<g id="a_edge4&#45;headlabel"><a xlink:href="dir_000011_000006.xhtml" target="_top" xlink:title="1">
<text text-anchor="middle" x="161.14" y="-126.06" font-family="Helvetica,sans-Serif" font-size="10.00">1</text>
</a>
</g>
</g>
<!-- dir_673789fe363c8cf83b6beac9ec7c58fa&#45;&gt;dir_6dbb42d2342d9d7292a192bc1d024acc -->
<g id="edge3" class="edge">
<title>dir_673789fe363c8cf83b6beac9ec7c58fa&#45;&gt;dir_6dbb42d2342d9d7292a192bc1d024acc</title>
<path fill="none" stroke="black" d="M203.61,-159.88C201.47,-141.15 196.12,-110.75 183,-88 176.74,-77.14 167.6,-67.07 158.57,-58.7"/>
<polygon fill="black" stroke="black" points="160.88,-56.07 151.07,-52.08 156.25,-61.32 160.88,-56.07"/>
<g id="a_edge3&#45;headlabel"><a xlink:href="dir_000011_000005.xhtml" target="_top" xlink:title="2">
<text text-anchor="middle" x="165.45" y="-53.82" font-family="Helvetica,sans-Serif" font-size="10.00">2</text>
</a>
</g>
</g>
</g>
</svg>
