<?xml version="1.0" encoding="UTF-8" standalone="no"?>
<!DOCTYPE svg PUBLIC "-//W3C//DTD SVG 1.1//EN"
 "http://www.w3.org/Graphics/SVG/1.1/DTD/svg11.dtd">
<!-- Generated by graphviz version 7.0.5 (20221223.1930)
 -->
<!-- Title: lib Pages: 1 -->
<svg width="528pt" height="359pt"
 viewBox="0.00 0.00 528.00 358.50" xmlns="http://www.w3.org/2000/svg" xmlns:xlink="http://www.w3.org/1999/xlink">
<g id="graph0" class="graph" transform="scale(1 1) rotate(0) translate(4 354.5)">
<title>lib</title>
<g id="clust1" class="cluster">
<title>clusterdir_97aefd0d527b934f1d99a682da8fe6a9</title>
<g id="a_clust1"><a xlink:href="dir_97aefd0d527b934f1d99a682da8fe6a9.xhtml" target="_top">
<polygon fill="#edf0f7" stroke="#404040" stroke-width="2" points="8,-8 8,-342.5 512,-342.5 512,-8 8,-8"/>
</a>
</g>
</g>
<g id="clust4" class="cluster">
<title>clusterdir_b49365647f74dff1c8dd1e88d29293e4</title>
<g id="a_clust4"><a xlink:href="dir_b49365647f74dff1c8dd1e88d29293e4.xhtml" target="_top" xlink:title="Package Board Adapters.">
<polygon fill="#c8d2e7" stroke="#404040" points="117,-184 117,-274 458,-274 458,-184 117,-184"/>
</a>
</g>
</g>
<g id="clust3" class="cluster">
<title>clusterdir_6dbb42d2342d9d7292a192bc1d024acc</title>
<g id="a_clust3"><a xlink:href="dir_6dbb42d2342d9d7292a192bc1d024acc.xhtml" target="_top" xlink:title="Package Application Business Rules.">
<polygon fill="#c8d2e7" stroke="#404040" points="127,-63 127,-164 355,-164 355,-63 127,-63"/>
</a>
</g>
</g>
<g id="clust2" class="cluster">
<title>clusterdir_e75212beacfa7863df067e044f07f232</title>
<g id="a_clust2"><a xlink:href="dir_e75212beacfa7863df067e044f07f232.xhtml" target="_top" xlink:title="Package 3rd Party Adapters.">
<polygon fill="#c8d2e7" stroke="#404040" points="178,-299.5 178,-334.5 504,-334.5 504,-299.5 178,-299.5"/>
</a>
</g>
</g>
<!-- dir_97aefd0d527b934f1d99a682da8fe6a9 -->
<g id="node1" class="node">
<title>dir_97aefd0d527b934f1d99a682da8fe6a9</title>
<text text-anchor="middle" x="153" y="-314.5" font-family="Helvetica,sans-Serif" font-size="10.00">lib</text>
</g>
<!-- dir_e75212beacfa7863df067e044f07f232 -->
<g id="node2" class="node">
<title>dir_e75212beacfa7863df067e044f07f232</title>
<text text-anchor="middle" x="446" y="-314.5" font-family="Helvetica,sans-Serif" font-size="10.00">3rd_party_adapters</text>
</g>
<!-- dir_e5c908e09902ac05aca8138811a01df8 -->
<g id="node3" class="node">
<title>dir_e5c908e09902ac05aca8138811a01df8</title>
<g id="a_node3"><a xlink:href="dir_e5c908e09902ac05aca8138811a01df8.xhtml" target="_top" xlink:title="Arduino">
<polygon fill="#a2b4d6" stroke="#404040" points="236,-326.5 186,-326.5 186,-307.5 236,-307.5 236,-326.5"/>
<text text-anchor="middle" x="211" y="-314.5" font-family="Helvetica,sans-Serif" font-size="10.00">Arduino</text>
</a>
</g>
</g>
<!-- dir_17a6007a5c84c34f300c622be50c188b -->
<g id="node7" class="node">
<title>dir_17a6007a5c84c34f300c622be50c188b</title>
<g id="a_node7"><a xlink:href="dir_17a6007a5c84c34f300c622be50c188b.xhtml" target="_top" xlink:title="serial_interface">
<polygon fill="#a2b4d6" stroke="#404040" points="218.5,-90 135.5,-90 135.5,-71 218.5,-71 218.5,-90"/>
<text text-anchor="middle" x="177" y="-78" font-family="Helvetica,sans-Serif" font-size="10.00">serial_interface</text>
</a>
</g>
</g>
<!-- dir_e5c908e09902ac05aca8138811a01df8&#45;&gt;dir_17a6007a5c84c34f300c622be50c188b -->
<g id="edge1" class="edge">
<title>dir_e5c908e09902ac05aca8138811a01df8&#45;&gt;dir_17a6007a5c84c34f300c622be50c188b</title>
<path fill="none" stroke="#63b8ff" d="M196.88,-307.09C192.26,-304.41 187.02,-301.62 182,-299.5 144.49,-283.66 118.46,-306.55 94,-274 53.57,-220.2 84.45,-178.94 126,-126 134.47,-115.21 145.81,-105.01 155.65,-97.11"/>
<polygon fill="#63b8ff" stroke="#63b8ff" points="157.51,-100.09 163.29,-91.21 153.23,-94.55 157.51,-100.09"/>
<g id="a_edge1&#45;headlabel"><a xlink:href="dir_000002_000012.xhtml" target="_top" xlink:title="1">
<text text-anchor="middle" x="157.6" y="-101.11" font-family="Helvetica,sans-Serif" font-size="10.00" fill="#63b8ff">1</text>
</a>
</g>
</g>
<!-- dir_b49365647f74dff1c8dd1e88d29293e4 -->
<g id="node10" class="node">
<title>dir_b49365647f74dff1c8dd1e88d29293e4</title>
<text text-anchor="middle" x="276" y="-254" font-family="Helvetica,sans-Serif" font-size="10.00">board_adapters</text>
</g>
<!-- dir_e5c908e09902ac05aca8138811a01df8&#45;&gt;dir_b49365647f74dff1c8dd1e88d29293e4 -->
<g id="edge2" class="edge">
<title>dir_e5c908e09902ac05aca8138811a01df8&#45;&gt;dir_b49365647f74dff1c8dd1e88d29293e4</title>
<path fill="none" stroke="#63b8ff" d="M220.87,-307.12C230.83,-298.15 246.43,-284.12 258.49,-273.26"/>
<polygon fill="#63b8ff" stroke="#63b8ff" points="260.66,-276.01 265.75,-266.72 255.98,-270.81 260.66,-276.01"/>
<g id="a_edge2&#45;headlabel"><a xlink:href="dir_000002_000003.xhtml" target="_top" xlink:title="1">
<text text-anchor="middle" x="261.01" y="-277.02" font-family="Helvetica,sans-Serif" font-size="10.00" fill="#63b8ff">1</text>
</a>
</g>
</g>
<!-- dir_bd3335c2666e9b9774751992bb1cf5a7 -->
<g id="node4" class="node">
<title>dir_bd3335c2666e9b9774751992bb1cf5a7</title>
<g id="a_node4"><a xlink:href="dir_bd3335c2666e9b9774751992bb1cf5a7.xhtml" target="_top" xlink:title="FreeRTOS">
<polygon fill="#a2b4d6" stroke="#404040" points="378.5,-326.5 315.5,-326.5 315.5,-307.5 378.5,-307.5 378.5,-326.5"/>
<text text-anchor="middle" x="347" y="-314.5" font-family="Helvetica,sans-Serif" font-size="10.00">FreeRTOS</text>
</a>
</g>
</g>
<!-- dir_8d1ee3be5d3bd43266cde43195651fe0 -->
<g id="node11" class="node">
<title>dir_8d1ee3be5d3bd43266cde43195651fe0</title>
<g id="a_node11"><a xlink:href="dir_8d1ee3be5d3bd43266cde43195651fe0.xhtml" target="_top" xlink:title="input_device_interface">
<polygon fill="#a2b4d6" stroke="#404040" points="450,-266 336,-266 336,-247 450,-247 450,-266"/>
<text text-anchor="middle" x="393" y="-254" font-family="Helvetica,sans-Serif" font-size="10.00">input_device_interface</text>
</a>
</g>
</g>
<!-- dir_bd3335c2666e9b9774751992bb1cf5a7&#45;&gt;dir_8d1ee3be5d3bd43266cde43195651fe0 -->
<g id="edge3" class="edge">
<title>dir_bd3335c2666e9b9774751992bb1cf5a7&#45;&gt;dir_8d1ee3be5d3bd43266cde43195651fe0</title>
<path fill="none" stroke="#63b8ff" d="M353.79,-307.37C360.45,-298.9 370.79,-285.74 379.19,-275.07"/>
<polygon fill="#63b8ff" stroke="#63b8ff" points="381.82,-277.38 385.25,-267.36 376.32,-273.05 381.82,-277.38"/>
<g id="a_edge3&#45;headlabel"><a xlink:href="dir_000007_000009.xhtml" target="_top" xlink:title="1">
<text text-anchor="middle" x="382.76" y="-278.27" font-family="Helvetica,sans-Serif" font-size="10.00" fill="#63b8ff">1</text>
</a>
</g>
</g>
<!-- dir_673789fe363c8cf83b6beac9ec7c58fa -->
<g id="node5" class="node">
<title>dir_673789fe363c8cf83b6beac9ec7c58fa</title>
<g id="a_node5"><a xlink:href="dir_673789fe363c8cf83b6beac9ec7c58fa.xhtml" target="_top" xlink:title="LVGL">
<polygon fill="#a2b4d6" stroke="#404040" points="297.5,-326.5 254.5,-326.5 254.5,-307.5 297.5,-307.5 297.5,-326.5"/>
<text text-anchor="middle" x="276" y="-314.5" font-family="Helvetica,sans-Serif" font-size="10.00">LVGL</text>
</a>
</g>
</g>
<!-- dir_6c970bd3e9ed525c032ca1b33f237f5b -->
<g id="node9" class="node">
<title>dir_6c970bd3e9ed525c032ca1b33f237f5b</title>
<g id="a_node9"><a xlink:href="dir_6c970bd3e9ed525c032ca1b33f237f5b.xhtml" target="_top" xlink:title="user_interaction">
<polygon fill="#a2b4d6" stroke="#404040" points="221,-150.5 135,-150.5 135,-131.5 221,-131.5 221,-150.5"/>
<text text-anchor="middle" x="178" y="-138.5" font-family="Helvetica,sans-Serif" font-size="10.00">user_interaction</text>
</a>
</g>
</g>
<!-- dir_673789fe363c8cf83b6beac9ec7c58fa&#45;&gt;dir_6c970bd3e9ed525c032ca1b33f237f5b -->
<g id="edge4" class="edge">
<title>dir_673789fe363c8cf83b6beac9ec7c58fa&#45;&gt;dir_6c970bd3e9ed525c032ca1b33f237f5b</title>
<path fill="none" stroke="#63b8ff" d="M261.27,-307.01C256.26,-304.26 250.52,-301.45 245,-299.5 188.67,-279.58 151.03,-320.08 113,-274 87.54,-243.15 93.87,-219.13 113,-184 119.61,-171.86 131.4,-162.7 143.14,-156.08"/>
<polygon fill="#63b8ff" stroke="#63b8ff" points="144.64,-159.24 151.97,-151.59 141.47,-153 144.64,-159.24"/>
<g id="a_edge4&#45;headlabel"><a xlink:href="dir_000011_000022.xhtml" target="_top" xlink:title="2">
<text text-anchor="middle" x="144.08" y="-160.21" font-family="Helvetica,sans-Serif" font-size="10.00" fill="#63b8ff">2</text>
</a>
</g>
</g>
<!-- dir_673789fe363c8cf83b6beac9ec7c58fa&#45;&gt;dir_b49365647f74dff1c8dd1e88d29293e4 -->
<g id="edge5" class="edge">
<title>dir_673789fe363c8cf83b6beac9ec7c58fa&#45;&gt;dir_b49365647f74dff1c8dd1e88d29293e4</title>
<path fill="none" stroke="#63b8ff" d="M276,-307.37C276,-299.41 276,-287.32 276,-277.04"/>
<polygon fill="#63b8ff" stroke="#63b8ff" points="279.5,-277.3 276,-267.3 272.5,-277.3 279.5,-277.3"/>
<g id="a_edge5&#45;headlabel"><a xlink:href="dir_000011_000003.xhtml" target="_top" xlink:title="1">
<text text-anchor="middle" x="282.34" y="-276.88" font-family="Helvetica,sans-Serif" font-size="10.00" fill="#63b8ff">1</text>
</a>
</g>
</g>
<!-- dir_6dbb42d2342d9d7292a192bc1d024acc -->
<g id="node6" class="node">
<title>dir_6dbb42d2342d9d7292a192bc1d024acc</title>
<text text-anchor="start" x="247.5" y="-144" font-family="Helvetica,sans-Serif" font-size="10.00">application_business</text>
<text text-anchor="middle" x="293" y="-133" font-family="Helvetica,sans-Serif" font-size="10.00">_rules</text>
</g>
<!-- dir_3a2f33b0f26bc6229d595c2c354e6333 -->
<g id="node15" class="node">
<title>dir_3a2f33b0f26bc6229d595c2c354e6333</title>
<g id="a_node15"><a xlink:href="dir_3a2f33b0f26bc6229d595c2c354e6333.xhtml" target="_top" xlink:title="Package Utilities.">
<polygon fill="#c8d2e7" stroke="#404040" points="366.5,-35 319.5,-35 319.5,-16 366.5,-16 366.5,-35"/>
<text text-anchor="middle" x="343" y="-23" font-family="Helvetica,sans-Serif" font-size="10.00">utilities</text>
</a>
</g>
</g>
<!-- dir_17a6007a5c84c34f300c622be50c188b&#45;&gt;dir_3a2f33b0f26bc6229d595c2c354e6333 -->
<g id="edge6" class="edge">
<title>dir_17a6007a5c84c34f300c622be50c188b&#45;&gt;dir_3a2f33b0f26bc6229d595c2c354e6333</title>
<path fill="none" stroke="#63b8ff" d="M204.52,-70.57C212.12,-68.11 220.38,-65.44 228,-63 254.96,-54.36 285.51,-44.67 308.34,-37.44"/>
<polygon fill="#63b8ff" stroke="#63b8ff" points="309.28,-40.82 317.76,-34.47 307.17,-34.15 309.28,-40.82"/>
<g id="a_edge6&#45;headlabel"><a xlink:href="dir_000012_000023.xhtml" target="_top" xlink:title="1">
<text text-anchor="middle" x="308.15" y="-41.65" font-family="Helvetica,sans-Serif" font-size="10.00" fill="#63b8ff">1</text>
</a>
</g>
</g>
<!-- dir_dab382b21b73aae3d74d7668eeeacf78 -->
<g id="node8" class="node">
<title>dir_dab382b21b73aae3d74d7668eeeacf78</title>
<g id="a_node8"><a xlink:href="dir_dab382b21b73aae3d74d7668eeeacf78.xhtml" target="_top" xlink:title="tasks">
<polygon fill="#a2b4d6" stroke="#404040" points="277.5,-90 236.5,-90 236.5,-71 277.5,-71 277.5,-90"/>
<text text-anchor="middle" x="257" y="-78" font-family="Helvetica,sans-Serif" font-size="10.00">tasks</text>
</a>
</g>
</g>
<!-- dir_6c970bd3e9ed525c032ca1b33f237f5b&#45;&gt;dir_17a6007a5c84c34f300c622be50c188b -->
<g id="edge7" class="edge">
<title>dir_6c970bd3e9ed525c032ca1b33f237f5b&#45;&gt;dir_17a6007a5c84c34f300c622be50c188b</title>
<path fill="none" stroke="#63b8ff" d="M177.85,-131.37C177.72,-123.5 177.51,-111.6 177.34,-101.39"/>
<polygon fill="#63b8ff" stroke="#63b8ff" points="180.84,-101.62 177.17,-91.68 173.85,-101.74 180.84,-101.62"/>
<g id="a_edge7&#45;headlabel"><a xlink:href="dir_000022_000012.xhtml" target="_top" xlink:title="1">
<text text-anchor="middle" x="183.72" y="-101.15" font-family="Helvetica,sans-Serif" font-size="10.00" fill="#63b8ff">1</text>
</a>
</g>
</g>
<!-- dir_6c970bd3e9ed525c032ca1b33f237f5b&#45;&gt;dir_dab382b21b73aae3d74d7668eeeacf78 -->
<g id="edge9" class="edge">
<title>dir_6c970bd3e9ed525c032ca1b33f237f5b&#45;&gt;dir_dab382b21b73aae3d74d7668eeeacf78</title>
<path fill="none" stroke="#63b8ff" d="M190,-131.12C202.18,-122.1 221.29,-107.95 235.98,-97.06"/>
<polygon fill="#63b8ff" stroke="#63b8ff" points="237.72,-100.13 243.67,-91.37 233.55,-94.51 237.72,-100.13"/>
<g id="a_edge9&#45;headlabel"><a xlink:href="dir_000022_000016.xhtml" target="_top" xlink:title="1">
<text text-anchor="middle" x="237.74" y="-101.15" font-family="Helvetica,sans-Serif" font-size="10.00" fill="#63b8ff">1</text>
</a>
</g>
</g>
<!-- dir_6c970bd3e9ed525c032ca1b33f237f5b&#45;&gt;dir_3a2f33b0f26bc6229d595c2c354e6333 -->
<g id="edge8" class="edge">
<title>dir_6c970bd3e9ed525c032ca1b33f237f5b&#45;&gt;dir_3a2f33b0f26bc6229d595c2c354e6333</title>
<path fill="none" stroke="#63b8ff" d="M205.23,-131.13C228.38,-122.78 261.77,-108.75 287,-90 304.28,-77.16 320.12,-58.23 330.5,-44.38"/>
<polygon fill="#63b8ff" stroke="#63b8ff" points="333.13,-46.73 336.16,-36.58 327.46,-42.62 333.13,-46.73"/>
<g id="a_edge8&#45;headlabel"><a xlink:href="dir_000022_000023.xhtml" target="_top" xlink:title="2">
<text text-anchor="middle" x="334.2" y="-47.58" font-family="Helvetica,sans-Serif" font-size="10.00" fill="#63b8ff">2</text>
</a>
</g>
</g>
<!-- dir_b49365647f74dff1c8dd1e88d29293e4&#45;&gt;dir_6c970bd3e9ed525c032ca1b33f237f5b -->
<g id="edge11" class="edge">
<title>dir_b49365647f74dff1c8dd1e88d29293e4&#45;&gt;dir_6c970bd3e9ed525c032ca1b33f237f5b</title>
<path fill="none" stroke="#63b8ff" d="M256.11,-247.01C240.63,-239.52 219.56,-227.26 206,-211 194.1,-196.73 186.73,-176.73 182.56,-161.93"/>
<polygon fill="#63b8ff" stroke="#63b8ff" points="186.01,-161.27 180.16,-152.44 179.22,-162.99 186.01,-161.27"/>
<g id="a_edge11&#45;headlabel"><a xlink:href="dir_000003_000022.xhtml" target="_top" xlink:title="6">
<text text-anchor="middle" x="189.27" y="-160.09" font-family="Helvetica,sans-Serif" font-size="10.00" fill="#63b8ff">6</text>
</a>
</g>
</g>
<!-- dir_5d3f509552af106634de565dc9d6f33a -->
<g id="node12" class="node">
<title>dir_5d3f509552af106634de565dc9d6f33a</title>
<g id="a_node12"><a xlink:href="dir_5d3f509552af106634de565dc9d6f33a.xhtml" target="_top" xlink:title="sound_output_interface">
<polygon fill="#a2b4d6" stroke="#404040" points="348,-211 230,-211 230,-192 348,-192 348,-211"/>
<text text-anchor="middle" x="289" y="-199" font-family="Helvetica,sans-Serif" font-size="10.00">sound_output_interface</text>
</a>
</g>
</g>
<!-- dir_b49365647f74dff1c8dd1e88d29293e4&#45;&gt;dir_5d3f509552af106634de565dc9d6f33a -->
<g id="edge10" class="edge">
<title>dir_b49365647f74dff1c8dd1e88d29293e4&#45;&gt;dir_5d3f509552af106634de565dc9d6f33a</title>
<path fill="none" stroke="#63b8ff" d="M278.03,-247.22C279.66,-240.57 282.02,-230.96 284.13,-222.34"/>
<polygon fill="#63b8ff" stroke="#63b8ff" points="287.51,-223.27 286.49,-212.72 280.71,-221.6 287.51,-223.27"/>
<g id="a_edge10&#45;headlabel"><a xlink:href="dir_000003_000013.xhtml" target="_top" xlink:title="1">
<text text-anchor="middle" x="289.77" y="-223.47" font-family="Helvetica,sans-Serif" font-size="10.00" fill="#63b8ff">1</text>
</a>
</g>
</g>
<!-- dir_8d1ee3be5d3bd43266cde43195651fe0&#45;&gt;dir_6c970bd3e9ed525c032ca1b33f237f5b -->
<g id="edge13" class="edge">
<title>dir_8d1ee3be5d3bd43266cde43195651fe0&#45;&gt;dir_6c970bd3e9ed525c032ca1b33f237f5b</title>
<path fill="none" stroke="#63b8ff" d="M341.54,-246.55C298.12,-238.22 240.08,-225.01 221,-211 218.63,-209.26 201.05,-180.43 189.12,-160.59"/>
<polygon fill="#63b8ff" stroke="#63b8ff" points="192.28,-159.05 184.13,-152.28 186.27,-162.65 192.28,-159.05"/>
<g id="a_edge13&#45;headlabel"><a xlink:href="dir_000009_000022.xhtml" target="_top" xlink:title="2">
<text text-anchor="middle" x="195.78" y="-156.88" font-family="Helvetica,sans-Serif" font-size="10.00" fill="#63b8ff">2</text>
</a>
</g>
</g>
<!-- dir_8d1ee3be5d3bd43266cde43195651fe0&#45;&gt;dir_3a2f33b0f26bc6229d595c2c354e6333 -->
<g id="edge12" class="edge">
<title>dir_8d1ee3be5d3bd43266cde43195651fe0&#45;&gt;dir_3a2f33b0f26bc6229d595c2c354e6333</title>
<path fill="none" stroke="#63b8ff" d="M393.18,-246.73C393.45,-218.86 392.17,-130.28 367,-63 364.61,-56.61 360.93,-50.2 357.17,-44.57"/>
<polygon fill="#63b8ff" stroke="#63b8ff" points="360.16,-42.73 351.45,-36.7 354.49,-46.85 360.16,-42.73"/>
<g id="a_edge12&#45;headlabel"><a xlink:href="dir_000009_000023.xhtml" target="_top" xlink:title="1">
<text text-anchor="middle" x="363.68" y="-40.25" font-family="Helvetica,sans-Serif" font-size="10.00" fill="#63b8ff">1</text>
</a>
</g>
</g>
<!-- dir_5d3f509552af106634de565dc9d6f33a&#45;&gt;dir_6c970bd3e9ed525c032ca1b33f237f5b -->
<g id="edge15" class="edge">
<title>dir_5d3f509552af106634de565dc9d6f33a&#45;&gt;dir_6c970bd3e9ed525c032ca1b33f237f5b</title>
<path fill="none" stroke="#63b8ff" d="M272.14,-191.62C254.38,-182.25 226.12,-167.36 205.2,-156.33"/>
<polygon fill="#63b8ff" stroke="#63b8ff" points="206.83,-153.24 196.36,-151.67 203.57,-159.43 206.83,-153.24"/>
<g id="a_edge15&#45;headlabel"><a xlink:href="dir_000013_000022.xhtml" target="_top" xlink:title="1">
<text text-anchor="middle" x="210" y="-149.2" font-family="Helvetica,sans-Serif" font-size="10.00" fill="#63b8ff">1</text>
</a>
</g>
</g>
<!-- dir_5d3f509552af106634de565dc9d6f33a&#45;&gt;dir_3a2f33b0f26bc6229d595c2c354e6333 -->
<g id="edge14" class="edge">
<title>dir_5d3f509552af106634de565dc9d6f33a&#45;&gt;dir_3a2f33b0f26bc6229d595c2c354e6333</title>
<path fill="none" stroke="#63b8ff" d="M322.24,-191.6C336.13,-186.06 350.9,-177.36 359,-164 382.27,-125.62 368.21,-106.93 359,-63 357.77,-57.13 355.54,-51.05 353.12,-45.58"/>
<polygon fill="#63b8ff" stroke="#63b8ff" points="356.38,-44.26 348.84,-36.81 350.09,-47.33 356.38,-44.26"/>
<g id="a_edge14&#45;headlabel"><a xlink:href="dir_000013_000023.xhtml" target="_top" xlink:title="1">
<text text-anchor="middle" x="359.84" y="-42.38" font-family="Helvetica,sans-Serif" font-size="10.00" fill="#63b8ff">1</text>
</a>
</g>
</g>
<!-- dir_dd038f7b9d5ffa107a6117feec92b6ac -->
<g id="node13" class="node">
<title>dir_dd038f7b9d5ffa107a6117feec92b6ac</title>
<g id="a_node13"><a xlink:href="dir_dd038f7b9d5ffa107a6117feec92b6ac.xhtml" target="_top" xlink:title="status_indicators">
<polygon fill="#a2b4d6" stroke="#404040" points="216.5,-266 125.5,-266 125.5,-247 216.5,-247 216.5,-266"/>
<text text-anchor="middle" x="171" y="-254" font-family="Helvetica,sans-Serif" font-size="10.00">status_indicators</text>
</a>
</g>
</g>
<!-- dir_dd038f7b9d5ffa107a6117feec92b6ac&#45;&gt;dir_6c970bd3e9ed525c032ca1b33f237f5b -->
<g id="edge16" class="edge">
<title>dir_dd038f7b9d5ffa107a6117feec92b6ac&#45;&gt;dir_6c970bd3e9ed525c032ca1b33f237f5b</title>
<path fill="none" stroke="#63b8ff" d="M171.55,-246.59C172.66,-228.53 175.21,-187.17 176.75,-162.21"/>
<polygon fill="#63b8ff" stroke="#63b8ff" points="180.24,-162.57 177.36,-152.38 173.25,-162.14 180.24,-162.57"/>
<g id="a_edge16&#45;headlabel"><a xlink:href="dir_000015_000022.xhtml" target="_top" xlink:title="2">
<text text-anchor="middle" x="182.94" y="-162.32" font-family="Helvetica,sans-Serif" font-size="10.00" fill="#63b8ff">2</text>
</a>
</g>
</g>
<!-- dir_71046b38222792489c3876836d4fbdbc -->
<g id="node14" class="node">
<title>dir_71046b38222792489c3876836d4fbdbc</title>
<g id="a_node14"><a xlink:href="dir_71046b38222792489c3876836d4fbdbc.xhtml" target="_top" xlink:title="Package Enterprise Business Rules.">
<polygon fill="#c8d2e7" stroke="#404040" points="120,-332 16,-332 16,-302 120,-302 120,-332"/>
<text text-anchor="start" x="24" y="-320" font-family="Helvetica,sans-Serif" font-size="10.00">enterprise_business</text>
<text text-anchor="middle" x="68" y="-309" font-family="Helvetica,sans-Serif" font-size="10.00">_rules</text>
</a>
</g>
</g>
</g>
</svg>
