<?xml version="1.0" encoding="UTF-8" standalone="no"?>
<!DOCTYPE svg PUBLIC "-//W3C//DTD SVG 1.1//EN"
 "http://www.w3.org/Graphics/SVG/1.1/DTD/svg11.dtd">
<!-- Generated by graphviz version 2.43.0 (0)
 -->
<!-- Title: lib Pages: 1 -->
<svg width="385pt" height="292pt"
 viewBox="0.00 0.00 385.00 292.00" xmlns="http://www.w3.org/2000/svg" xmlns:xlink="http://www.w3.org/1999/xlink">
<g id="graph0" class="graph" transform="scale(1 1) rotate(0) translate(4 288)">
<title>lib</title>
<polygon fill="white" stroke="transparent" points="-4,4 -4,-288 381,-288 381,4 -4,4"/>
<g id="clust1" class="cluster">
<title>clusterdir_97aefd0d527b934f1d99a682da8fe6a9</title>
<g id="a_clust1"><a xlink:href="dir_97aefd0d527b934f1d99a682da8fe6a9.xhtml" target="_top">
<polygon fill="#eeeeff" stroke="black" points="8,-8 8,-276 369,-276 369,-8 8,-8"/>
</a>
</g>
</g>
<!-- dir_97aefd0d527b934f1d99a682da8fe6a9 -->
<g id="node1" class="node">
<title>dir_97aefd0d527b934f1d99a682da8fe6a9</title>
<text text-anchor="middle" x="334" y="-247.5" font-family="Helvetica,sans-Serif" font-size="10.00">lib</text>
</g>
<!-- dir_e75212beacfa7863df067e044f07f232 -->
<g id="node2" class="node">
<title>dir_e75212beacfa7863df067e044f07f232</title>
<g id="a_node2"><a xlink:href="dir_e75212beacfa7863df067e044f07f232.xhtml" target="_top" xlink:title="3rd_party_adapters">
<polygon fill="white" stroke="red" points="288.5,-268 177.5,-268 177.5,-232 288.5,-232 288.5,-268"/>
<text text-anchor="middle" x="233" y="-247.5" font-family="Helvetica,sans-Serif" font-size="10.00">3rd_party_adapters</text>
</a>
</g>
</g>
<!-- dir_6dbb42d2342d9d7292a192bc1d024acc -->
<g id="node3" class="node">
<title>dir_6dbb42d2342d9d7292a192bc1d024acc</title>
<g id="a_node3"><a xlink:href="dir_6dbb42d2342d9d7292a192bc1d024acc.xhtml" target="_top" xlink:title="application_business_rules">
<polygon fill="white" stroke="red" points="274,-124 126,-124 126,-88 274,-88 274,-124"/>
<text text-anchor="middle" x="200" y="-103.5" font-family="Helvetica,sans-Serif" font-size="10.00">application_business_rules</text>
</a>
</g>
</g>
<!-- dir_e75212beacfa7863df067e044f07f232&#45;&gt;dir_6dbb42d2342d9d7292a192bc1d024acc -->
<g id="edge5" class="edge">
<title>dir_e75212beacfa7863df067e044f07f232&#45;&gt;dir_6dbb42d2342d9d7292a192bc1d024acc</title>
<path fill="none" stroke="black" d="M223.98,-231.8C219.06,-221.66 213.31,-208.41 210,-196 204.57,-175.63 202.08,-151.86 200.95,-134.01"/>
<polygon fill="black" stroke="black" points="204.44,-133.81 200.41,-124.01 197.45,-134.18 204.44,-133.81"/>
<g id="a_edge5&#45;headlabel"><a xlink:href="dir_000004_000005.xhtml" target="_top" xlink:title="3">
<text text-anchor="middle" x="207.47" y="-134.74" font-family="Helvetica,sans-Serif" font-size="10.00">3</text>
</a>
</g>
</g>
<!-- dir_b49365647f74dff1c8dd1e88d29293e4 -->
<g id="node4" class="node">
<title>dir_b49365647f74dff1c8dd1e88d29293e4</title>
<g id="a_node4"><a xlink:href="dir_b49365647f74dff1c8dd1e88d29293e4.xhtml" target="_top" xlink:title="board_adapters">
<polygon fill="white" stroke="red" points="311,-196 219,-196 219,-160 311,-160 311,-196"/>
<text text-anchor="middle" x="265" y="-175.5" font-family="Helvetica,sans-Serif" font-size="10.00">board_adapters</text>
</a>
</g>
</g>
<!-- dir_e75212beacfa7863df067e044f07f232&#45;&gt;dir_b49365647f74dff1c8dd1e88d29293e4 -->
<g id="edge4" class="edge">
<title>dir_e75212beacfa7863df067e044f07f232&#45;&gt;dir_b49365647f74dff1c8dd1e88d29293e4</title>
<path fill="none" stroke="black" d="M240.91,-231.7C244.55,-223.73 248.95,-214.1 252.99,-205.26"/>
<polygon fill="black" stroke="black" points="256.21,-206.65 257.18,-196.1 249.84,-203.74 256.21,-206.65"/>
<g id="a_edge4&#45;headlabel"><a xlink:href="dir_000004_000006.xhtml" target="_top" xlink:title="3">
<text text-anchor="middle" x="257.29" y="-208.6" font-family="Helvetica,sans-Serif" font-size="10.00">3</text>
</a>
</g>
</g>
<!-- dir_3a2f33b0f26bc6229d595c2c354e6333 -->
<g id="node6" class="node">
<title>dir_3a2f33b0f26bc6229d595c2c354e6333</title>
<g id="a_node6"><a xlink:href="dir_3a2f33b0f26bc6229d595c2c354e6333.xhtml" target="_top" xlink:title="utilities">
<polygon fill="white" stroke="black" points="273,-52 219,-52 219,-16 273,-16 273,-52"/>
<text text-anchor="middle" x="246" y="-31.5" font-family="Helvetica,sans-Serif" font-size="10.00">utilities</text>
</a>
</g>
</g>
<!-- dir_6dbb42d2342d9d7292a192bc1d024acc&#45;&gt;dir_3a2f33b0f26bc6229d595c2c354e6333 -->
<g id="edge3" class="edge">
<title>dir_6dbb42d2342d9d7292a192bc1d024acc&#45;&gt;dir_3a2f33b0f26bc6229d595c2c354e6333</title>
<path fill="none" stroke="black" d="M211.37,-87.7C216.72,-79.56 223.2,-69.69 229.11,-60.7"/>
<polygon fill="black" stroke="black" points="232.19,-62.38 234.76,-52.1 226.34,-58.54 232.19,-62.38"/>
<g id="a_edge3&#45;headlabel"><a xlink:href="dir_000005_000008.xhtml" target="_top" xlink:title="3">
<text text-anchor="middle" x="232.59" y="-64.45" font-family="Helvetica,sans-Serif" font-size="10.00">3</text>
</a>
</g>
</g>
<!-- dir_b49365647f74dff1c8dd1e88d29293e4&#45;&gt;dir_6dbb42d2342d9d7292a192bc1d024acc -->
<g id="edge1" class="edge">
<title>dir_b49365647f74dff1c8dd1e88d29293e4&#45;&gt;dir_6dbb42d2342d9d7292a192bc1d024acc</title>
<path fill="none" stroke="black" d="M248.93,-159.7C241.06,-151.22 231.44,-140.86 222.83,-131.58"/>
<polygon fill="black" stroke="black" points="225.25,-129.05 215.88,-124.1 220.12,-133.81 225.25,-129.05"/>
<g id="a_edge1&#45;headlabel"><a xlink:href="dir_000006_000005.xhtml" target="_top" xlink:title="6">
<text text-anchor="middle" x="229.78" y="-127.25" font-family="Helvetica,sans-Serif" font-size="10.00">6</text>
</a>
</g>
</g>
<!-- dir_b49365647f74dff1c8dd1e88d29293e4&#45;&gt;dir_3a2f33b0f26bc6229d595c2c354e6333 -->
<g id="edge2" class="edge">
<title>dir_b49365647f74dff1c8dd1e88d29293e4&#45;&gt;dir_3a2f33b0f26bc6229d595c2c354e6333</title>
<path fill="none" stroke="black" d="M273.6,-159.67C281.42,-141.53 290.66,-112.36 283,-88 279.9,-78.15 274.25,-68.53 268.28,-60.25"/>
<polygon fill="black" stroke="black" points="270.91,-57.94 262.04,-52.15 265.37,-62.21 270.91,-57.94"/>
<g id="a_edge2&#45;headlabel"><a xlink:href="dir_000006_000008.xhtml" target="_top" xlink:title="2">
<text text-anchor="middle" x="275.36" y="-56.55" font-family="Helvetica,sans-Serif" font-size="10.00">2</text>
</a>
</g>
</g>
<!-- dir_71046b38222792489c3876836d4fbdbc -->
<g id="node5" class="node">
<title>dir_71046b38222792489c3876836d4fbdbc</title>
<g id="a_node5"><a xlink:href="dir_71046b38222792489c3876836d4fbdbc.xhtml" target="_top" xlink:title="enterprise_business_rules">
<polygon fill="white" stroke="black" points="159.5,-268 16.5,-268 16.5,-232 159.5,-232 159.5,-268"/>
<text text-anchor="middle" x="88" y="-247.5" font-family="Helvetica,sans-Serif" font-size="10.00">enterprise_business_rules</text>
</a>
</g>
</g>
</g>
</svg>
