<?xml version="1.0" encoding="UTF-8" standalone="no"?>
<!DOCTYPE svg PUBLIC "-//W3C//DTD SVG 1.1//EN"
 "http://www.w3.org/Graphics/SVG/1.1/DTD/svg11.dtd">
<!-- Generated by graphviz version 2.43.0 (0)
 -->
<!-- Title: lib/board_adapters/input_device_interface Pages: 1 -->
<svg width="213pt" height="223pt"
 viewBox="0.00 0.00 213.00 223.00" xmlns="http://www.w3.org/2000/svg" xmlns:xlink="http://www.w3.org/1999/xlink">
<g id="graph0" class="graph" transform="scale(1 1) rotate(0) translate(4 219)">
<title>lib/board_adapters/input_device_interface</title>
<polygon fill="white" stroke="transparent" points="-4,4 -4,-219 209,-219 209,4 -4,4"/>
<g id="clust1" class="cluster">
<title>clusterdir_b49365647f74dff1c8dd1e88d29293e4</title>
<g id="a_clust1"><a xlink:href="dir_b49365647f74dff1c8dd1e88d29293e4.xhtml" target="_top" xlink:title="board_adapters">
<polygon fill="#ddddee" stroke="black" points="8,-136 8,-207 152,-207 152,-136 8,-136"/>
<text text-anchor="middle" x="80" y="-195" font-family="Helvetica,sans-Serif" font-size="10.00">board_adapters</text>
</a>
</g>
</g>
<!-- dir_8d1ee3be5d3bd43266cde43195651fe0 -->
<g id="node1" class="node">
<title>dir_8d1ee3be5d3bd43266cde43195651fe0</title>
<g id="a_node1"><a xlink:href="dir_8d1ee3be5d3bd43266cde43195651fe0.xhtml" target="_top" xlink:title="input_device_interface">
<polygon fill="#eeeeff" stroke="black" points="144,-180 16,-180 16,-144 144,-144 144,-180"/>
<text text-anchor="middle" x="80" y="-159.5" font-family="Helvetica,sans-Serif" font-size="10.00">input_device_interface</text>
</a>
</g>
</g>
<!-- dir_3a2f33b0f26bc6229d595c2c354e6333 -->
<g id="node2" class="node">
<title>dir_3a2f33b0f26bc6229d595c2c354e6333</title>
<g id="a_node2"><a xlink:href="dir_3a2f33b0f26bc6229d595c2c354e6333.xhtml" target="_top" xlink:title="utilities">
<polygon fill="none" stroke="black" points="107,-36 53,-36 53,0 107,0 107,-36"/>
<text text-anchor="middle" x="80" y="-15.5" font-family="Helvetica,sans-Serif" font-size="10.00">utilities</text>
</a>
</g>
</g>
<!-- dir_8d1ee3be5d3bd43266cde43195651fe0&#45;&gt;dir_3a2f33b0f26bc6229d595c2c354e6333 -->
<g id="edge2" class="edge">
<title>dir_8d1ee3be5d3bd43266cde43195651fe0&#45;&gt;dir_3a2f33b0f26bc6229d595c2c354e6333</title>
<path fill="none" stroke="black" d="M66.44,-143.97C59.44,-134.09 51.63,-121.05 48,-108 43.71,-92.59 43.71,-87.41 48,-72 50.67,-62.42 55.59,-52.84 60.78,-44.51"/>
<polygon fill="black" stroke="black" points="63.8,-46.29 66.44,-36.03 57.98,-42.41 63.8,-46.29"/>
<g id="a_edge2&#45;headlabel"><a xlink:href="dir_000015_000008.xhtml" target="_top" xlink:title="1">
<text text-anchor="middle" x="64.17" y="-48.36" font-family="Helvetica,sans-Serif" font-size="10.00">1</text>
</a>
</g>
</g>
<!-- dir_6dbb42d2342d9d7292a192bc1d024acc -->
<g id="node3" class="node">
<title>dir_6dbb42d2342d9d7292a192bc1d024acc</title>
<g id="a_node3"><a xlink:href="dir_6dbb42d2342d9d7292a192bc1d024acc.xhtml" target="_top" xlink:title="application_business_rules">
<polygon fill="white" stroke="red" points="205,-108 57,-108 57,-72 205,-72 205,-108"/>
<text text-anchor="middle" x="131" y="-87.5" font-family="Helvetica,sans-Serif" font-size="10.00">application_business_rules</text>
</a>
</g>
</g>
<!-- dir_8d1ee3be5d3bd43266cde43195651fe0&#45;&gt;dir_6dbb42d2342d9d7292a192bc1d024acc -->
<g id="edge3" class="edge">
<title>dir_8d1ee3be5d3bd43266cde43195651fe0&#45;&gt;dir_6dbb42d2342d9d7292a192bc1d024acc</title>
<path fill="none" stroke="black" d="M92.61,-143.7C98.6,-135.47 105.88,-125.48 112.48,-116.42"/>
<polygon fill="black" stroke="black" points="115.48,-118.25 118.54,-108.1 109.82,-114.13 115.48,-118.25"/>
<g id="a_edge3&#45;headlabel"><a xlink:href="dir_000015_000005.xhtml" target="_top" xlink:title="2">
<text text-anchor="middle" x="115.66" y="-120.32" font-family="Helvetica,sans-Serif" font-size="10.00">2</text>
</a>
</g>
</g>
<!-- dir_6dbb42d2342d9d7292a192bc1d024acc&#45;&gt;dir_3a2f33b0f26bc6229d595c2c354e6333 -->
<g id="edge1" class="edge">
<title>dir_6dbb42d2342d9d7292a192bc1d024acc&#45;&gt;dir_3a2f33b0f26bc6229d595c2c354e6333</title>
<path fill="none" stroke="black" d="M118.39,-71.7C112.4,-63.47 105.12,-53.48 98.52,-44.42"/>
<polygon fill="black" stroke="black" points="101.18,-42.13 92.46,-36.1 95.52,-46.25 101.18,-42.13"/>
<g id="a_edge1&#45;headlabel"><a xlink:href="dir_000005_000008.xhtml" target="_top" xlink:title="3">
<text text-anchor="middle" x="105.59" y="-40.86" font-family="Helvetica,sans-Serif" font-size="10.00">3</text>
</a>
</g>
</g>
</g>
</svg>
