<?xml version="1.0" encoding="UTF-8" standalone="no"?>
<!DOCTYPE svg PUBLIC "-//W3C//DTD SVG 1.1//EN"
 "http://www.w3.org/Graphics/SVG/1.1/DTD/svg11.dtd">
<!-- Generated by graphviz version 2.43.0 (0)
 -->
<!-- Title: component_architecture Pages: 1 -->
<svg width="677pt" height="617pt"
 viewBox="0.00 0.00 677.00 617.29" xmlns="http://www.w3.org/2000/svg" xmlns:xlink="http://www.w3.org/1999/xlink">
<g id="graph0" class="graph" transform="scale(1 1) rotate(0) translate(4 613.29)">
<title>component_architecture</title>
<polygon fill="white" stroke="transparent" points="-4,4 -4,-613.29 673,-613.29 673,4 -4,4"/>
<g id="clust2" class="cluster">
<title>cluster_app</title>
<g id="a_clust2"><a xlink:href="application_business_rules.xhtml#application_business_rules" target="_top" xlink:title="application business rules">
<polygon fill="none" stroke="black" stroke-width="2" points="260,-302 260,-491 654,-491 654,-302 260,-302"/>
<text text-anchor="middle" x="457" y="-475.8" font-family="Times,serif" font-size="14.00">application business rules</text>
</a>
</g>
</g>
<g id="clust4" class="cluster">
<title>cluster_util</title>
<g id="a_clust4"><a xlink:href="utilities.xhtml#utilities" target="_top" xlink:title="utilities">
<polygon fill="none" stroke="black" stroke-width="2" points="8,-191 8,-322 225,-322 225,-191 8,-191"/>
<text text-anchor="middle" x="116.5" y="-306.8" font-family="Times,serif" font-size="14.00">utilities</text>
</a>
</g>
</g>
<g id="clust6" class="cluster">
<title>cluster_ebr</title>
<g id="a_clust6"><a xlink:href="enterprise_business_rules.xhtml#enterprise_business_rules" target="_top" xlink:title="enterprise business rules">
<polygon fill="none" stroke="black" stroke-width="2" points="244.5,-499 244.5,-574 442.5,-574 442.5,-499 244.5,-499"/>
<text text-anchor="middle" x="343.5" y="-558.8" font-family="Times,serif" font-size="14.00">enterprise business rules</text>
</a>
</g>
</g>
<g id="clust8" class="cluster">
<title>cluster_thirdparty</title>
<polygon fill="none" stroke="black" stroke-width="2" stroke-dasharray="5,2" points="9,-8 9,-161 401.5,-161 401.5,-8 9,-8"/>
<text text-anchor="middle" x="205.25" y="-145.8" font-family="Times,serif" font-size="14.00">frameworks and libraries</text>
</g>
<g id="clust10" class="cluster">
<title>cluster_ia</title>
<g id="a_clust10"><a xlink:href="third_party_adapters.xhtml#third_party_adapters" target="_top" xlink:title="3rd party adapters">
<polygon fill="none" stroke="black" stroke-width="2" points="485.5,-114 485.5,-189 645.5,-189 645.5,-114 485.5,-114"/>
<text text-anchor="middle" x="565.5" y="-173.8" font-family="Times,serif" font-size="14.00">3rd party adapters</text>
</a>
</g>
</g>
<g id="clust12" class="cluster">
<title>cluster_board</title>
<g id="a_clust12"><a xlink:href="board_adapters.xhtml#board_adapters" target="_top" xlink:title="board adapters">
<polygon fill="none" stroke="black" stroke-width="2" points="263.5,-197 263.5,-294 661,-294 661,-197 263.5,-197"/>
<text text-anchor="middle" x="462.25" y="-278.8" font-family="Times,serif" font-size="14.00">board adapters</text>
</a>
</g>
</g>
<!-- app -->
<!-- helpers -->
<g id="node6" class="node">
<title>helpers</title>
<polygon fill="#ffffcc" stroke="black" points="151.5,-291 81.5,-291 81.5,-287 77.5,-287 77.5,-283 81.5,-283 81.5,-263 77.5,-263 77.5,-259 81.5,-259 81.5,-255 151.5,-255 151.5,-291"/>
<polyline fill="none" stroke="black" points="81.5,-287 85.5,-287 85.5,-283 81.5,-283 "/>
<polyline fill="none" stroke="black" points="81.5,-263 85.5,-263 85.5,-259 81.5,-259 "/>
<text text-anchor="middle" x="116.5" y="-269.3" font-family="Times,serif" font-size="14.00">helpers</text>
</g>
<!-- app&#45;&gt;helpers -->
<!-- output_boundaries -->
<g id="node2" class="node">
<title>output_boundaries</title>
<polygon fill="#b3cde3" stroke="black" points="420,-404 268,-404 268,-400 264,-400 264,-396 268,-396 268,-374 264,-374 264,-370 268,-370 268,-366 420,-366 420,-404"/>
<polyline fill="none" stroke="black" points="268,-400 272,-400 272,-396 268,-396 "/>
<polyline fill="none" stroke="black" points="268,-374 272,-374 272,-370 268,-370 "/>
<text text-anchor="middle" x="344" y="-388.8" font-family="Times,serif" font-size="14.00">«interface»</text>
<text text-anchor="middle" x="344" y="-373.8" font-family="Times,serif" font-size="14.00"> output boundaries</text>
</g>
<!-- use_cases -->
<g id="node3" class="node">
<title>use_cases</title>
<polygon fill="#b3cde3" stroke="black" points="646,-420 485,-420 485,-416 481,-416 481,-412 485,-412 485,-392 481,-392 481,-388 485,-388 485,-384 646,-384 646,-420"/>
<polyline fill="none" stroke="black" points="485,-416 489,-416 489,-412 485,-412 "/>
<polyline fill="none" stroke="black" points="485,-392 489,-392 489,-388 485,-388 "/>
<text text-anchor="middle" x="565.5" y="-398.3" font-family="Times,serif" font-size="14.00">use case interactors</text>
</g>
<!-- use_cases&#45;&gt;output_boundaries -->
<g id="edge2" class="edge">
<title>use_cases&#45;&gt;output_boundaries</title>
<path fill="none" stroke="black" stroke-dasharray="5,2" d="M484.95,-395.84C467.22,-394.47 448.36,-393.01 430.41,-391.62"/>
<polygon fill="black" stroke="black" points="420.26,-390.83 430.58,-387.11 425.24,-391.21 430.23,-391.6 430.23,-391.6 430.23,-391.6 425.24,-391.21 429.88,-396.09 420.26,-390.83 420.26,-390.83"/>
</g>
<!-- input_boundaries -->
<g id="node4" class="node">
<title>input_boundaries</title>
<polygon fill="#b3cde3" stroke="black" points="415.5,-460 272.5,-460 272.5,-456 268.5,-456 268.5,-452 272.5,-452 272.5,-430 268.5,-430 268.5,-426 272.5,-426 272.5,-422 415.5,-422 415.5,-460"/>
<polyline fill="none" stroke="black" points="272.5,-456 276.5,-456 276.5,-452 272.5,-452 "/>
<polyline fill="none" stroke="black" points="272.5,-430 276.5,-430 276.5,-426 272.5,-426 "/>
<text text-anchor="middle" x="344" y="-444.8" font-family="Times,serif" font-size="14.00">«interface»</text>
<text text-anchor="middle" x="344" y="-429.8" font-family="Times,serif" font-size="14.00"> input boundaries</text>
</g>
<!-- use_cases&#45;&gt;input_boundaries -->
<g id="edge13" class="edge">
<title>use_cases&#45;&gt;input_boundaries</title>
<path fill="none" stroke="black" stroke-dasharray="5,2" d="M484.95,-416.14C465.62,-419.57 444.93,-423.24 425.56,-426.69"/>
<polygon fill="none" stroke="black" points="424.79,-423.27 415.56,-428.46 426.02,-430.16 424.79,-423.27"/>
</g>
<!-- data_interface -->
<g id="node5" class="node">
<title>data_interface</title>
<polygon fill="#b3cde3" stroke="black" points="402.5,-348 285.5,-348 285.5,-344 281.5,-344 281.5,-340 285.5,-340 285.5,-318 281.5,-318 281.5,-314 285.5,-314 285.5,-310 402.5,-310 402.5,-348"/>
<polyline fill="none" stroke="black" points="285.5,-344 289.5,-344 289.5,-340 285.5,-340 "/>
<polyline fill="none" stroke="black" points="285.5,-318 289.5,-318 289.5,-314 285.5,-314 "/>
<text text-anchor="middle" x="344" y="-332.8" font-family="Times,serif" font-size="14.00">«interface»</text>
<text text-anchor="middle" x="344" y="-317.8" font-family="Times,serif" font-size="14.00"> data gateway</text>
</g>
<!-- use_cases&#45;&gt;data_interface -->
<g id="edge5" class="edge">
<title>use_cases&#45;&gt;data_interface</title>
<path fill="none" stroke="black" stroke-dasharray="5,2" d="M518.15,-383.99C495.48,-375.41 467.71,-365.26 442.5,-357 432.8,-353.82 422.49,-350.65 412.35,-347.64"/>
<polygon fill="black" stroke="black" points="402.7,-344.81 413.56,-343.3 407.5,-346.22 412.3,-347.62 412.3,-347.62 412.3,-347.62 407.5,-346.22 411.03,-351.94 402.7,-344.81 402.7,-344.81"/>
</g>
<!-- entities -->
<g id="node8" class="node">
<title>entities</title>
<polygon fill="#fbb4ae" stroke="black" points="379.5,-543 308.5,-543 308.5,-539 304.5,-539 304.5,-535 308.5,-535 308.5,-515 304.5,-515 304.5,-511 308.5,-511 308.5,-507 379.5,-507 379.5,-543"/>
<polyline fill="none" stroke="black" points="308.5,-539 312.5,-539 312.5,-535 308.5,-535 "/>
<polyline fill="none" stroke="black" points="308.5,-515 312.5,-515 312.5,-511 308.5,-511 "/>
<text text-anchor="middle" x="344" y="-521.3" font-family="Times,serif" font-size="14.00">entities</text>
</g>
<!-- use_cases&#45;&gt;entities -->
<g id="edge1" class="edge">
<title>use_cases&#45;&gt;entities</title>
<path fill="none" stroke="black" stroke-dasharray="5,2" d="M520.3,-420.17C505.93,-427.29 490.49,-436.34 478,-447 457.82,-464.23 464.15,-479.66 442.5,-495 427.04,-505.95 407.47,-512.99 389.92,-517.47"/>
<polygon fill="black" stroke="black" points="379.88,-519.83 388.59,-513.16 384.74,-518.69 389.61,-517.55 389.61,-517.55 389.61,-517.55 384.74,-518.69 390.64,-521.93 379.88,-519.83 379.88,-519.83"/>
</g>
<!-- n2 -->
<g id="node7" class="node">
<title>n2</title>
<polygon fill="#ffffcc" stroke="black" points="211,-237 16,-237 16,-199 217,-199 217,-231 211,-237"/>
<polyline fill="none" stroke="black" points="211,-237 211,-231 "/>
<polyline fill="none" stroke="black" points="217,-231 211,-231 "/>
<text text-anchor="middle" x="116.5" y="-221.8" font-family="Times,serif" font-size="14.00">May be used by anything.</text>
<text text-anchor="middle" x="116.5" y="-206.8" font-family="Times,serif" font-size="14.00"> Has no dependencies.</text>
</g>
<!-- entities&#45;&gt;helpers -->
<!-- thirdparty -->
<!-- thirdparty&#45;&gt;helpers -->
<!-- n1 -->
<g id="node10" class="node">
<title>n1</title>
<polygon fill="#fed9a6" stroke="black" stroke-dasharray="5,2" points="387.5,-108 294.5,-108 294.5,-70 393.5,-70 393.5,-102 387.5,-108"/>
<polyline fill="none" stroke="black" stroke-dasharray="5,2" points="387.5,-108 387.5,-102 "/>
<polyline fill="none" stroke="black" stroke-dasharray="5,2" points="393.5,-102 387.5,-102 "/>
<text text-anchor="middle" x="344" y="-92.8" font-family="Times,serif" font-size="14.00">Not part of</text>
<text text-anchor="middle" x="344" y="-77.8" font-family="Times,serif" font-size="14.00">the project.</text>
</g>
<!-- sdk -->
<g id="node11" class="node">
<title>sdk</title>
<polygon fill="#fed9a6" stroke="black" stroke-dasharray="5,2" points="216,-52 17,-52 17,-48 13,-48 13,-44 17,-44 17,-24 13,-24 13,-20 17,-20 17,-16 216,-16 216,-52"/>
<polyline fill="none" stroke="black" stroke-dasharray="5,2" points="17,-48 21,-48 21,-44 17,-44 "/>
<polyline fill="none" stroke="black" stroke-dasharray="5,2" points="17,-24 21,-24 21,-20 17,-20 "/>
<text text-anchor="middle" x="116.5" y="-30.3" font-family="Times,serif" font-size="14.00">software development kit</text>
</g>
<!-- libraries -->
<g id="node12" class="node">
<title>libraries</title>
<polygon fill="#fed9a6" stroke="black" stroke-dasharray="5,2" points="382.5,-52 305.5,-52 305.5,-48 301.5,-48 301.5,-44 305.5,-44 305.5,-24 301.5,-24 301.5,-20 305.5,-20 305.5,-16 382.5,-16 382.5,-52"/>
<polyline fill="none" stroke="black" stroke-dasharray="5,2" points="305.5,-48 309.5,-48 309.5,-44 305.5,-44 "/>
<polyline fill="none" stroke="black" stroke-dasharray="5,2" points="305.5,-24 309.5,-24 309.5,-20 305.5,-20 "/>
<text text-anchor="middle" x="344" y="-30.3" font-family="Times,serif" font-size="14.00">libraries</text>
</g>
<!-- libraries&#45;&gt;sdk -->
<g id="edge6" class="edge">
<title>libraries&#45;&gt;sdk</title>
<path fill="none" stroke="black" stroke-dasharray="5,2" d="M305.26,-34C283.39,-34 254.62,-34 226.21,-34"/>
<polygon fill="black" stroke="black" points="216.18,-34 226.18,-29.5 221.18,-34 226.18,-34 226.18,-34 226.18,-34 221.18,-34 226.18,-38.5 216.18,-34 216.18,-34"/>
</g>
<!-- liberaries_adapters -->
<g id="node13" class="node">
<title>liberaries_adapters</title>
<polygon fill="#decbe4" stroke="black" points="637.5,-158 493.5,-158 493.5,-154 489.5,-154 489.5,-150 493.5,-150 493.5,-130 489.5,-130 489.5,-126 493.5,-126 493.5,-122 637.5,-122 637.5,-158"/>
<polyline fill="none" stroke="black" points="493.5,-154 497.5,-154 497.5,-150 493.5,-150 "/>
<polyline fill="none" stroke="black" points="493.5,-130 497.5,-130 497.5,-126 493.5,-126 "/>
<text text-anchor="middle" x="565.5" y="-136.3" font-family="Times,serif" font-size="14.00">libraries adapters</text>
</g>
<!-- liberaries_adapters&#45;&gt;helpers -->
<!-- liberaries_adapters&#45;&gt;libraries -->
<g id="edge7" class="edge">
<title>liberaries_adapters&#45;&gt;libraries</title>
<path fill="none" stroke="black" stroke-dasharray="5,2" d="M541.43,-121.99C517.77,-104.27 479.32,-77.55 442.5,-61 426.71,-53.9 408.63,-48.27 392.36,-44.02"/>
<polygon fill="black" stroke="black" points="382.5,-41.56 393.3,-39.62 387.35,-42.77 392.2,-43.99 392.2,-43.99 392.2,-43.99 387.35,-42.77 391.11,-48.35 382.5,-41.56 382.5,-41.56"/>
</g>
<!-- library_interfaces -->
<g id="node15" class="node">
<title>library_interfaces</title>
<polygon fill="#ccebc5" stroke="black" points="416.5,-245 271.5,-245 271.5,-241 267.5,-241 267.5,-237 271.5,-237 271.5,-215 267.5,-215 267.5,-211 271.5,-211 271.5,-207 416.5,-207 416.5,-245"/>
<polyline fill="none" stroke="black" points="271.5,-241 275.5,-241 275.5,-237 271.5,-237 "/>
<polyline fill="none" stroke="black" points="271.5,-215 275.5,-215 275.5,-211 271.5,-211 "/>
<text text-anchor="middle" x="344" y="-229.8" font-family="Times,serif" font-size="14.00">«interface»</text>
<text text-anchor="middle" x="344" y="-214.8" font-family="Times,serif" font-size="14.00"> library interfaces</text>
</g>
<!-- liberaries_adapters&#45;&gt;library_interfaces -->
<g id="edge15" class="edge">
<title>liberaries_adapters&#45;&gt;library_interfaces</title>
<path fill="none" stroke="black" stroke-dasharray="5,2" d="M525.29,-158.03C501.53,-168.7 470.51,-182.2 442.5,-193 433.18,-196.59 423.29,-200.19 413.51,-203.62"/>
<polygon fill="none" stroke="black" points="412.11,-200.4 403.8,-206.98 414.4,-207.01 412.11,-200.4"/>
</g>
<!-- board -->
<!-- board&#45;&gt;helpers -->
<!-- board_impl -->
<g id="node16" class="node">
<title>board_impl</title>
<polygon fill="#ccebc5" stroke="black" points="653,-263 478,-263 478,-259 474,-259 474,-255 478,-255 478,-235 474,-235 474,-231 478,-231 478,-227 653,-227 653,-263"/>
<polyline fill="none" stroke="black" points="478,-259 482,-259 482,-255 478,-255 "/>
<polyline fill="none" stroke="black" points="478,-235 482,-235 482,-231 478,-231 "/>
<text text-anchor="middle" x="565.5" y="-241.3" font-family="Times,serif" font-size="14.00">board implementation</text>
</g>
<!-- board_impl&#45;&gt;output_boundaries -->
<g id="edge14" class="edge">
<title>board_impl&#45;&gt;output_boundaries</title>
<path fill="none" stroke="black" stroke-dasharray="5,2" d="M526.37,-263.15C510.18,-272.1 491.89,-284 478,-298 456.45,-319.73 466.78,-338.37 442.5,-357 438.41,-360.14 433.99,-362.92 429.35,-365.39"/>
<polygon fill="none" stroke="black" points="427.72,-362.29 420.22,-369.77 430.75,-368.6 427.72,-362.29"/>
</g>
<!-- board_impl&#45;&gt;input_boundaries -->
<g id="edge3" class="edge">
<title>board_impl&#45;&gt;input_boundaries</title>
<path fill="none" stroke="black" stroke-dasharray="5,2" d="M522,-263.08C506.25,-271.63 489.45,-283.25 478,-298 445.19,-340.25 480.7,-375.55 442.5,-413 437.31,-418.09 431.27,-422.26 424.77,-425.68"/>
<polygon fill="black" stroke="black" points="415.67,-429.9 422.85,-421.61 420.21,-427.8 424.75,-425.69 424.75,-425.69 424.75,-425.69 420.21,-427.8 426.64,-429.78 415.67,-429.9 415.67,-429.9"/>
</g>
<!-- board_impl&#45;&gt;data_interface -->
<g id="edge16" class="edge">
<title>board_impl&#45;&gt;data_interface</title>
<path fill="none" stroke="black" stroke-dasharray="5,2" d="M525.63,-263.09C501.87,-273.85 470.72,-287.42 442.5,-298 432.8,-301.64 422.45,-305.23 412.26,-308.61"/>
<polygon fill="none" stroke="black" points="410.98,-305.34 402.56,-311.77 413.15,-312 410.98,-305.34"/>
</g>
<!-- board_impl&#45;&gt;library_interfaces -->
<g id="edge4" class="edge">
<title>board_impl&#45;&gt;library_interfaces</title>
<path fill="none" stroke="black" stroke-dasharray="5,2" d="M477.75,-237.49C460.98,-236.04 443.46,-234.52 426.85,-233.08"/>
<polygon fill="black" stroke="black" points="416.64,-232.2 426.99,-228.58 421.62,-232.63 426.6,-233.06 426.6,-233.06 426.6,-233.06 421.62,-232.63 426.21,-237.55 416.64,-232.2 416.64,-232.2"/>
</g>
</g>
</svg>
