<?xml version="1.0" encoding="UTF-8" standalone="no"?>
<!DOCTYPE svg PUBLIC "-//W3C//DTD SVG 1.1//EN"
 "http://www.w3.org/Graphics/SVG/1.1/DTD/svg11.dtd">
<!-- Generated by graphviz version 2.43.0 (0)
 -->
<!-- Title: %3 Pages: 1 -->
<svg width="182pt" height="206pt"
 viewBox="0.00 0.00 182.00 205.74" xmlns="http://www.w3.org/2000/svg" xmlns:xlink="http://www.w3.org/1999/xlink">
<g id="graph0" class="graph" transform="scale(1 1) rotate(0) translate(4 201.74)">
<title>%3</title>
<polygon fill="white" stroke="transparent" points="-4,4 -4,-201.74 178,-201.74 178,4 -4,4"/>
<!-- L -->
<g id="node1" class="node">
<title>L</title>
<ellipse fill="none" stroke="black" cx="82.5" cy="-170.87" rx="60.21" ry="26.74"/>
<text text-anchor="middle" x="82.5" y="-174.67" font-family="Times,serif" font-size="14.00">use cases</text>
<text text-anchor="middle" x="82.5" y="-159.67" font-family="Times,serif" font-size="14.00"> (logic)</text>
</g>
<!-- P -->
<g id="node4" class="node">
<title>P</title>
<polygon fill="none" stroke="black" points="126,-108 39,-108 39,-72 126,-72 126,-108"/>
<text text-anchor="middle" x="82.5" y="-86.3" font-family="Times,serif" font-size="14.00">Processor</text>
</g>
<!-- L&#45;&gt;P -->
<g id="edge4" class="edge">
<title>L&#45;&gt;P</title>
<path fill="none" stroke="black" d="M88.88,-144.09C89.35,-135.79 89.37,-126.57 88.95,-118.18"/>
<polygon fill="black" stroke="black" points="92.43,-117.82 88.18,-108.11 85.45,-118.35 92.43,-117.82"/>
</g>
<!-- I -->
<g id="node2" class="node">
<title>I</title>
<polygon fill="none" stroke="black" points="69,-36 0,-36 0,0 69,0 69,-36"/>
<text text-anchor="middle" x="34.5" y="-14.3" font-family="Times,serif" font-size="14.00">Keypad</text>
</g>
<!-- I&#45;&gt;P -->
<g id="edge1" class="edge">
<title>I&#45;&gt;P</title>
<path fill="none" stroke="black" d="M46.37,-36.3C52,-44.53 58.85,-54.52 65.07,-63.58"/>
<polygon fill="black" stroke="black" points="62.23,-65.63 70.77,-71.9 68,-61.67 62.23,-65.63"/>
</g>
<!-- O -->
<g id="node3" class="node">
<title>O</title>
<polygon fill="none" stroke="black" points="174,-36 87,-36 87,0 174,0 174,-36"/>
<text text-anchor="middle" x="130.5" y="-14.3" font-family="Times,serif" font-size="14.00">Presenter</text>
</g>
<!-- P&#45;&gt;L -->
<g id="edge3" class="edge">
<title>P&#45;&gt;L</title>
<path fill="none" stroke="black" d="M76.82,-108.11C76,-115.75 75.65,-125.05 75.78,-134.1"/>
<polygon fill="black" stroke="black" points="72.28,-134.22 76.12,-144.09 79.27,-133.98 72.28,-134.22"/>
</g>
<!-- P&#45;&gt;O -->
<g id="edge2" class="edge">
<title>P&#45;&gt;O</title>
<path fill="none" stroke="black" d="M94.23,-71.9C99.85,-63.7 106.69,-53.72 112.92,-44.64"/>
<polygon fill="black" stroke="black" points="115.87,-46.53 118.63,-36.3 110.09,-42.57 115.87,-46.53"/>
</g>
</g>
</svg>
