<?xml version="1.0" encoding="UTF-8" standalone="no"?>
<!DOCTYPE svg PUBLIC "-//W3C//DTD SVG 1.1//EN"
 "http://www.w3.org/Graphics/SVG/1.1/DTD/svg11.dtd">
<!-- Generated by graphviz version 2.43.0 (0)
 -->
<!-- Title: lib/application_business_rules/user_interaction/IDisplay.hpp Pages: 1 -->
<svg width="773pt" height="284pt"
 viewBox="0.00 0.00 773.00 284.00" xmlns="http://www.w3.org/2000/svg" xmlns:xlink="http://www.w3.org/1999/xlink">
<g id="graph0" class="graph" transform="scale(1 1) rotate(0) translate(4 280)">
<title>lib/application_business_rules/user_interaction/IDisplay.hpp</title>
<polygon fill="white" stroke="transparent" points="-4,4 -4,-280 769,-280 769,4 -4,4"/>
<!-- Node1 -->
<g id="node1" class="node">
<title>Node1</title>
<g id="a_node1"><a xlink:title=" ">
<polygon fill="#bfbfbf" stroke="black" points="231,-234.5 231,-275.5 365,-275.5 365,-234.5 231,-234.5"/>
<text text-anchor="start" x="239" y="-263.5" font-family="Helvetica,sans-Serif" font-size="10.00">lib/application_business</text>
<text text-anchor="start" x="239" y="-252.5" font-family="Helvetica,sans-Serif" font-size="10.00">_rules/user_interaction</text>
<text text-anchor="middle" x="298" y="-241.5" font-family="Helvetica,sans-Serif" font-size="10.00">/IDisplay.hpp</text>
</a>
</g>
</g>
<!-- Node2 -->
<g id="node2" class="node">
<title>Node2</title>
<g id="a_node2"><a xlink:href="Display_8hpp.xhtml" target="_top" xlink:title=" ">
<polygon fill="white" stroke="black" points="72,-162 72,-192 198,-192 198,-162 72,-162"/>
<text text-anchor="start" x="80" y="-180" font-family="Helvetica,sans-Serif" font-size="10.00">lib/3rd_party_adapters</text>
<text text-anchor="middle" x="135" y="-169" font-family="Helvetica,sans-Serif" font-size="10.00">/LVGL/Display.hpp</text>
</a>
</g>
</g>
<!-- Node1&#45;&gt;Node2 -->
<g id="edge1" class="edge">
<title>Node1&#45;&gt;Node2</title>
<path fill="none" stroke="midnightblue" d="M246.78,-230.12C219.99,-217.63 188.1,-202.76 165.25,-192.11"/>
<polygon fill="midnightblue" stroke="midnightblue" points="245.48,-233.37 256.02,-234.43 248.44,-227.03 245.48,-233.37"/>
</g>
<!-- Node5 -->
<g id="node5" class="node">
<title>Node5</title>
<g id="a_node5"><a xlink:href="display__factory__interface_8hpp.xhtml" target="_top" xlink:title="Dependency injection for the display.">
<polygon fill="white" stroke="black" points="216,-156.5 216,-197.5 380,-197.5 380,-156.5 216,-156.5"/>
<text text-anchor="start" x="224" y="-185.5" font-family="Helvetica,sans-Serif" font-size="10.00">lib/application_business</text>
<text text-anchor="start" x="224" y="-174.5" font-family="Helvetica,sans-Serif" font-size="10.00">_rules/user_interaction</text>
<text text-anchor="middle" x="298" y="-163.5" font-family="Helvetica,sans-Serif" font-size="10.00">/display_factory_interface.hpp</text>
</a>
</g>
</g>
<!-- Node1&#45;&gt;Node5 -->
<g id="edge4" class="edge">
<title>Node1&#45;&gt;Node5</title>
<path fill="none" stroke="midnightblue" d="M298,-224.3C298,-215.3 298,-205.65 298,-197.51"/>
<polygon fill="midnightblue" stroke="midnightblue" points="294.5,-224.43 298,-234.43 301.5,-224.43 294.5,-224.43"/>
</g>
<!-- Node8 -->
<g id="node8" class="node">
<title>Node8</title>
<g id="a_node8"><a xlink:href="Menu_8hpp.xhtml" target="_top" xlink:title=" ">
<polygon fill="white" stroke="black" points="398,-156.5 398,-197.5 532,-197.5 532,-156.5 398,-156.5"/>
<text text-anchor="start" x="406" y="-185.5" font-family="Helvetica,sans-Serif" font-size="10.00">lib/application_business</text>
<text text-anchor="start" x="406" y="-174.5" font-family="Helvetica,sans-Serif" font-size="10.00">_rules/user_interaction</text>
<text text-anchor="middle" x="465" y="-163.5" font-family="Helvetica,sans-Serif" font-size="10.00">/Menu.hpp</text>
</a>
</g>
</g>
<!-- Node1&#45;&gt;Node8 -->
<g id="edge8" class="edge">
<title>Node1&#45;&gt;Node8</title>
<path fill="none" stroke="midnightblue" d="M350.32,-230.19C373.42,-219.67 400.25,-207.47 422.14,-197.51"/>
<polygon fill="midnightblue" stroke="midnightblue" points="348.66,-227.1 341.01,-234.43 351.56,-233.47 348.66,-227.1"/>
</g>
<!-- Node3 -->
<g id="node3" class="node">
<title>Node3</title>
<g id="a_node3"><a xlink:href="Display_8cpp.xhtml" target="_top" xlink:title=" ">
<polygon fill="white" stroke="black" points="0,-84 0,-114 126,-114 126,-84 0,-84"/>
<text text-anchor="start" x="8" y="-102" font-family="Helvetica,sans-Serif" font-size="10.00">lib/3rd_party_adapters</text>
<text text-anchor="middle" x="63" y="-91" font-family="Helvetica,sans-Serif" font-size="10.00">/LVGL/Display.cpp</text>
</a>
</g>
</g>
<!-- Node2&#45;&gt;Node3 -->
<g id="edge2" class="edge">
<title>Node2&#45;&gt;Node3</title>
<path fill="none" stroke="midnightblue" d="M114.32,-154.17C102.16,-141.33 87.13,-125.47 76.48,-114.23"/>
<polygon fill="midnightblue" stroke="midnightblue" points="112.04,-156.85 121.46,-161.7 117.12,-152.04 112.04,-156.85"/>
</g>
<!-- Node4 -->
<g id="node4" class="node">
<title>Node4</title>
<g id="a_node4"><a xlink:href="display__factory__interface_8cpp.xhtml" target="_top" xlink:title=" ">
<polygon fill="white" stroke="black" points="144,-78.5 144,-119.5 270,-119.5 270,-78.5 144,-78.5"/>
<text text-anchor="start" x="152" y="-107.5" font-family="Helvetica,sans-Serif" font-size="10.00">lib/3rd_party_adapters</text>
<text text-anchor="start" x="152" y="-96.5" font-family="Helvetica,sans-Serif" font-size="10.00">/LVGL/display_factory</text>
<text text-anchor="middle" x="207" y="-85.5" font-family="Helvetica,sans-Serif" font-size="10.00">_interface.cpp</text>
</a>
</g>
</g>
<!-- Node2&#45;&gt;Node4 -->
<g id="edge3" class="edge">
<title>Node2&#45;&gt;Node4</title>
<path fill="none" stroke="midnightblue" d="M155.62,-154.23C165.94,-143.34 178.33,-130.26 188.36,-119.68"/>
<polygon fill="midnightblue" stroke="midnightblue" points="152.88,-152.04 148.54,-161.7 157.96,-156.85 152.88,-152.04"/>
</g>
<!-- Node5&#45;&gt;Node4 -->
<g id="edge5" class="edge">
<title>Node5&#45;&gt;Node4</title>
<path fill="none" stroke="midnightblue" d="M266.6,-149.78C254.71,-139.84 241.38,-128.72 230.36,-119.51"/>
<polygon fill="midnightblue" stroke="midnightblue" points="264.65,-152.7 274.57,-156.43 269.13,-147.33 264.65,-152.7"/>
</g>
<!-- Node6 -->
<g id="node6" class="node">
<title>Node6</title>
<g id="a_node6"><a xlink:href="main_8cpp.xhtml" target="_top" xlink:title=" ">
<polygon fill="white" stroke="black" points="260.5,-11.5 260.5,-30.5 339.5,-30.5 339.5,-11.5 260.5,-11.5"/>
<text text-anchor="middle" x="300" y="-18.5" font-family="Helvetica,sans-Serif" font-size="10.00">src/main.cpp</text>
</a>
</g>
</g>
<!-- Node5&#45;&gt;Node6 -->
<g id="edge6" class="edge">
<title>Node5&#45;&gt;Node6</title>
<path fill="none" stroke="midnightblue" d="M298.39,-146.14C298.85,-110.26 299.61,-52.19 299.89,-30.51"/>
<polygon fill="midnightblue" stroke="midnightblue" points="294.88,-146.45 298.25,-156.5 301.88,-146.54 294.88,-146.45"/>
</g>
<!-- Node7 -->
<g id="node7" class="node">
<title>Node7</title>
<g id="a_node7"><a xlink:href="test__hmi_8cpp.xhtml" target="_top" xlink:title=" ">
<polygon fill="white" stroke="black" points="357.5,-6 357.5,-36 460.5,-36 460.5,-6 357.5,-6"/>
<text text-anchor="start" x="365.5" y="-24" font-family="Helvetica,sans-Serif" font-size="10.00">test/test_hmi/test</text>
<text text-anchor="middle" x="409" y="-13" font-family="Helvetica,sans-Serif" font-size="10.00">_hmi.cpp</text>
</a>
</g>
</g>
<!-- Node5&#45;&gt;Node7 -->
<g id="edge7" class="edge">
<title>Node5&#45;&gt;Node7</title>
<path fill="none" stroke="midnightblue" d="M318.03,-148.2C341.75,-115.3 380.33,-61.77 398.68,-36.32"/>
<polygon fill="midnightblue" stroke="midnightblue" points="315.07,-146.34 312.06,-156.5 320.74,-150.43 315.07,-146.34"/>
</g>
<!-- Node8&#45;&gt;Node6 -->
<g id="edge15" class="edge">
<title>Node8&#45;&gt;Node6</title>
<path fill="none" stroke="midnightblue" d="M436.42,-149.32C398.35,-113.8 333.04,-52.84 309.12,-30.51"/>
<polygon fill="midnightblue" stroke="midnightblue" points="434.4,-152.23 444.1,-156.5 439.18,-147.11 434.4,-152.23"/>
</g>
<!-- Node8&#45;&gt;Node7 -->
<g id="edge16" class="edge">
<title>Node8&#45;&gt;Node7</title>
<path fill="none" stroke="midnightblue" d="M445.45,-147.82C440.14,-139.19 434.82,-129.47 431,-120 419.46,-91.37 413.36,-55.48 410.69,-36.06"/>
<polygon fill="midnightblue" stroke="midnightblue" points="442.57,-149.81 450.9,-156.35 448.47,-146.04 442.57,-149.81"/>
</g>
<!-- Node9 -->
<g id="node9" class="node">
<title>Node9</title>
<g id="a_node9"><a xlink:href="Menu_8cpp.xhtml" target="_top" xlink:title=" ">
<polygon fill="white" stroke="black" points="592,-78.5 592,-119.5 726,-119.5 726,-78.5 592,-78.5"/>
<text text-anchor="start" x="600" y="-107.5" font-family="Helvetica,sans-Serif" font-size="10.00">lib/application_business</text>
<text text-anchor="start" x="600" y="-96.5" font-family="Helvetica,sans-Serif" font-size="10.00">_rules/user_interaction</text>
<text text-anchor="middle" x="659" y="-85.5" font-family="Helvetica,sans-Serif" font-size="10.00">/Menu.cpp</text>
</a>
</g>
</g>
<!-- Node8&#45;&gt;Node9 -->
<g id="edge9" class="edge">
<title>Node8&#45;&gt;Node9</title>
<path fill="none" stroke="midnightblue" d="M524.35,-152.75C551.51,-142.11 583.33,-129.65 609.21,-119.51"/>
<polygon fill="midnightblue" stroke="midnightblue" points="522.99,-149.52 514.96,-156.43 525.55,-156.04 522.99,-149.52"/>
</g>
<!-- Node10 -->
<g id="node10" class="node">
<title>Node10</title>
<g id="a_node10"><a xlink:href="Presenter_8hpp.xhtml" target="_top" xlink:title=" ">
<polygon fill="white" stroke="black" points="440,-78.5 440,-119.5 574,-119.5 574,-78.5 440,-78.5"/>
<text text-anchor="start" x="448" y="-107.5" font-family="Helvetica,sans-Serif" font-size="10.00">lib/application_business</text>
<text text-anchor="start" x="448" y="-96.5" font-family="Helvetica,sans-Serif" font-size="10.00">_rules/user_interaction</text>
<text text-anchor="middle" x="507" y="-85.5" font-family="Helvetica,sans-Serif" font-size="10.00">/Presenter.hpp</text>
</a>
</g>
</g>
<!-- Node8&#45;&gt;Node10 -->
<g id="edge10" class="edge">
<title>Node8&#45;&gt;Node10</title>
<path fill="none" stroke="midnightblue" d="M480.77,-147.47C485.92,-138.14 491.52,-128.01 496.22,-119.51"/>
<polygon fill="midnightblue" stroke="midnightblue" points="477.59,-145.98 475.82,-156.43 483.72,-149.37 477.59,-145.98"/>
</g>
<!-- Node10&#45;&gt;Node6 -->
<g id="edge13" class="edge">
<title>Node10&#45;&gt;Node6</title>
<path fill="none" stroke="midnightblue" d="M439.14,-75.04C410.83,-65.22 377.69,-53.4 348,-42 338.73,-38.44 328.56,-34.25 319.98,-30.62"/>
<polygon fill="midnightblue" stroke="midnightblue" points="438.34,-78.47 448.94,-78.43 440.63,-71.85 438.34,-78.47"/>
</g>
<!-- Node10&#45;&gt;Node7 -->
<g id="edge14" class="edge">
<title>Node10&#45;&gt;Node7</title>
<path fill="none" stroke="midnightblue" d="M473.46,-71.99C458.02,-60.02 440.29,-46.27 427.34,-36.23"/>
<polygon fill="midnightblue" stroke="midnightblue" points="471.72,-75.07 481.76,-78.43 476.01,-69.53 471.72,-75.07"/>
</g>
<!-- Node11 -->
<g id="node11" class="node">
<title>Node11</title>
<g id="a_node11"><a xlink:href="Presenter_8cpp.xhtml" target="_top" xlink:title=" ">
<polygon fill="white" stroke="black" points="479,-0.5 479,-41.5 613,-41.5 613,-0.5 479,-0.5"/>
<text text-anchor="start" x="487" y="-29.5" font-family="Helvetica,sans-Serif" font-size="10.00">lib/application_business</text>
<text text-anchor="start" x="487" y="-18.5" font-family="Helvetica,sans-Serif" font-size="10.00">_rules/user_interaction</text>
<text text-anchor="middle" x="546" y="-7.5" font-family="Helvetica,sans-Serif" font-size="10.00">/Presenter.cpp</text>
</a>
</g>
</g>
<!-- Node10&#45;&gt;Node11 -->
<g id="edge11" class="edge">
<title>Node10&#45;&gt;Node11</title>
<path fill="none" stroke="midnightblue" d="M521.64,-69.47C526.43,-60.14 531.63,-50.01 535.99,-41.51"/>
<polygon fill="midnightblue" stroke="midnightblue" points="518.5,-67.93 517.04,-78.43 524.72,-71.13 518.5,-67.93"/>
</g>
<!-- Node12 -->
<g id="node12" class="node">
<title>Node12</title>
<g id="a_node12"><a xlink:href="ProcessHmiInputs_8cpp.xhtml" target="_top" xlink:title=" ">
<polygon fill="white" stroke="black" points="631,-0.5 631,-41.5 765,-41.5 765,-0.5 631,-0.5"/>
<text text-anchor="start" x="639" y="-29.5" font-family="Helvetica,sans-Serif" font-size="10.00">lib/application_business</text>
<text text-anchor="start" x="639" y="-18.5" font-family="Helvetica,sans-Serif" font-size="10.00">_rules/user_interaction</text>
<text text-anchor="middle" x="698" y="-7.5" font-family="Helvetica,sans-Serif" font-size="10.00">/ProcessHmiInputs.cpp</text>
</a>
</g>
</g>
<!-- Node10&#45;&gt;Node12 -->
<g id="edge12" class="edge">
<title>Node10&#45;&gt;Node12</title>
<path fill="none" stroke="midnightblue" d="M565.79,-74.61C592.45,-64 623.61,-51.6 648.98,-41.51"/>
<polygon fill="midnightblue" stroke="midnightblue" points="564.18,-71.48 556.19,-78.43 566.77,-77.98 564.18,-71.48"/>
</g>
</g>
</svg>
