<?xml version="1.0" encoding="UTF-8" standalone="no"?>
<!DOCTYPE svg PUBLIC "-//W3C//DTD SVG 1.1//EN"
 "http://www.w3.org/Graphics/SVG/1.1/DTD/svg11.dtd">
<!-- Generated by graphviz version 2.43.0 (0)
 -->
<!-- Title: lib/application_business_rules/user_interaction/IKeypad.hpp Pages: 1 -->
<svg width="552pt" height="206pt"
 viewBox="0.00 0.00 552.00 206.00" xmlns="http://www.w3.org/2000/svg" xmlns:xlink="http://www.w3.org/1999/xlink">
<g id="graph0" class="graph" transform="scale(1 1) rotate(0) translate(4 202)">
<title>lib/application_business_rules/user_interaction/IKeypad.hpp</title>
<polygon fill="white" stroke="transparent" points="-4,4 -4,-202 548,-202 548,4 -4,4"/>
<!-- Node1 -->
<g id="node1" class="node">
<title>Node1</title>
<g id="a_node1"><a xlink:title=" ">
<polygon fill="#bfbfbf" stroke="black" points="176.5,-156.5 176.5,-197.5 310.5,-197.5 310.5,-156.5 176.5,-156.5"/>
<text text-anchor="start" x="184.5" y="-185.5" font-family="Helvetica,sans-Serif" font-size="10.00">lib/application_business</text>
<text text-anchor="start" x="184.5" y="-174.5" font-family="Helvetica,sans-Serif" font-size="10.00">_rules/user_interaction</text>
<text text-anchor="middle" x="243.5" y="-163.5" font-family="Helvetica,sans-Serif" font-size="10.00">/IKeypad.hpp</text>
</a>
</g>
</g>
<!-- Node2 -->
<g id="node2" class="node">
<title>Node2</title>
<g id="a_node2"><a xlink:href="keypad__factory__interface_8hpp.xhtml" target="_top" xlink:title="Dependency injection for the keypad.">
<polygon fill="white" stroke="black" points="78.5,-78.5 78.5,-119.5 242.5,-119.5 242.5,-78.5 78.5,-78.5"/>
<text text-anchor="start" x="86.5" y="-107.5" font-family="Helvetica,sans-Serif" font-size="10.00">lib/application_business</text>
<text text-anchor="start" x="86.5" y="-96.5" font-family="Helvetica,sans-Serif" font-size="10.00">_rules/user_interaction</text>
<text text-anchor="middle" x="160.5" y="-85.5" font-family="Helvetica,sans-Serif" font-size="10.00">/keypad_factory_interface.hpp</text>
</a>
</g>
</g>
<!-- Node1&#45;&gt;Node2 -->
<g id="edge1" class="edge">
<title>Node1&#45;&gt;Node2</title>
<path fill="none" stroke="midnightblue" d="M214.55,-149.49C203.78,-139.63 191.76,-128.63 181.8,-119.51"/>
<polygon fill="midnightblue" stroke="midnightblue" points="212.39,-152.26 222.13,-156.43 217.11,-147.09 212.39,-152.26"/>
</g>
<!-- Node5 -->
<g id="node5" class="node">
<title>Node5</title>
<g id="a_node5"><a xlink:href="test__hmi_8cpp.xhtml" target="_top" xlink:title=" ">
<polygon fill="white" stroke="black" points="0,-6 0,-36 103,-36 103,-6 0,-6"/>
<text text-anchor="start" x="8" y="-24" font-family="Helvetica,sans-Serif" font-size="10.00">test/test_hmi/test</text>
<text text-anchor="middle" x="51.5" y="-13" font-family="Helvetica,sans-Serif" font-size="10.00">_hmi.cpp</text>
</a>
</g>
</g>
<!-- Node1&#45;&gt;Node5 -->
<g id="edge9" class="edge">
<title>Node1&#45;&gt;Node5</title>
<path fill="none" stroke="midnightblue" d="M166.13,-168.9C131.82,-161.76 93.8,-147.67 69.5,-120 48.84,-96.47 48.4,-57.22 49.91,-36.25"/>
<polygon fill="midnightblue" stroke="midnightblue" points="165.69,-172.38 176.17,-170.82 167,-165.5 165.69,-172.38"/>
</g>
<!-- Node6 -->
<g id="node6" class="node">
<title>Node6</title>
<g id="a_node6"><a xlink:href="ProcessHmiInputs_8cpp.xhtml" target="_top" xlink:title=" ">
<polygon fill="white" stroke="black" points="260.5,-78.5 260.5,-119.5 394.5,-119.5 394.5,-78.5 260.5,-78.5"/>
<text text-anchor="start" x="268.5" y="-107.5" font-family="Helvetica,sans-Serif" font-size="10.00">lib/application_business</text>
<text text-anchor="start" x="268.5" y="-96.5" font-family="Helvetica,sans-Serif" font-size="10.00">_rules/user_interaction</text>
<text text-anchor="middle" x="327.5" y="-85.5" font-family="Helvetica,sans-Serif" font-size="10.00">/ProcessHmiInputs.cpp</text>
</a>
</g>
</g>
<!-- Node1&#45;&gt;Node6 -->
<g id="edge5" class="edge">
<title>Node1&#45;&gt;Node6</title>
<path fill="none" stroke="midnightblue" d="M272.8,-149.49C283.7,-139.63 295.86,-128.63 305.94,-119.51"/>
<polygon fill="midnightblue" stroke="midnightblue" points="270.2,-147.12 265.13,-156.43 274.9,-152.31 270.2,-147.12"/>
</g>
<!-- Node7 -->
<g id="node7" class="node">
<title>Node7</title>
<g id="a_node7"><a xlink:href="Keypad_8hpp.xhtml" target="_top" xlink:title=" ">
<polygon fill="white" stroke="black" points="413,-78.5 413,-119.5 544,-119.5 544,-78.5 413,-78.5"/>
<text text-anchor="start" x="421" y="-107.5" font-family="Helvetica,sans-Serif" font-size="10.00">lib/board_adapters</text>
<text text-anchor="start" x="421" y="-96.5" font-family="Helvetica,sans-Serif" font-size="10.00">/input_device_interface</text>
<text text-anchor="middle" x="478.5" y="-85.5" font-family="Helvetica,sans-Serif" font-size="10.00">/Keypad.hpp</text>
</a>
</g>
</g>
<!-- Node1&#45;&gt;Node7 -->
<g id="edge6" class="edge">
<title>Node1&#45;&gt;Node7</title>
<path fill="none" stroke="midnightblue" d="M313.68,-153.3C346.94,-142.55 386.28,-129.82 418.19,-119.51"/>
<polygon fill="midnightblue" stroke="midnightblue" points="312.46,-150.02 304.02,-156.43 314.61,-156.68 312.46,-150.02"/>
</g>
<!-- Node3 -->
<g id="node3" class="node">
<title>Node3</title>
<g id="a_node3"><a xlink:href="keypad__factory__interface_8cpp.xhtml" target="_top" xlink:title=" ">
<polygon fill="white" stroke="black" points="224.5,-0.5 224.5,-41.5 388.5,-41.5 388.5,-0.5 224.5,-0.5"/>
<text text-anchor="start" x="232.5" y="-29.5" font-family="Helvetica,sans-Serif" font-size="10.00">lib/board_adapters</text>
<text text-anchor="start" x="232.5" y="-18.5" font-family="Helvetica,sans-Serif" font-size="10.00">/input_device_interface</text>
<text text-anchor="middle" x="306.5" y="-7.5" font-family="Helvetica,sans-Serif" font-size="10.00">/keypad_factory_interface.cpp</text>
</a>
</g>
</g>
<!-- Node2&#45;&gt;Node3 -->
<g id="edge2" class="edge">
<title>Node2&#45;&gt;Node3</title>
<path fill="none" stroke="midnightblue" d="M207.05,-73.77C227.06,-63.35 250.14,-51.34 269.03,-41.51"/>
<polygon fill="midnightblue" stroke="midnightblue" points="205.35,-70.71 198.1,-78.43 208.58,-76.92 205.35,-70.71"/>
</g>
<!-- Node4 -->
<g id="node4" class="node">
<title>Node4</title>
<g id="a_node4"><a xlink:href="main_8cpp.xhtml" target="_top" xlink:title=" ">
<polygon fill="white" stroke="black" points="121,-11.5 121,-30.5 200,-30.5 200,-11.5 121,-11.5"/>
<text text-anchor="middle" x="160.5" y="-18.5" font-family="Helvetica,sans-Serif" font-size="10.00">src/main.cpp</text>
</a>
</g>
</g>
<!-- Node2&#45;&gt;Node4 -->
<g id="edge3" class="edge">
<title>Node2&#45;&gt;Node4</title>
<path fill="none" stroke="midnightblue" d="M160.5,-68.05C160.5,-54.56 160.5,-39.65 160.5,-30.55"/>
<polygon fill="midnightblue" stroke="midnightblue" points="157,-68.43 160.5,-78.43 164,-68.43 157,-68.43"/>
</g>
<!-- Node2&#45;&gt;Node5 -->
<g id="edge4" class="edge">
<title>Node2&#45;&gt;Node5</title>
<path fill="none" stroke="midnightblue" d="M124.15,-72.66C106.75,-60.53 86.57,-46.45 71.9,-36.23"/>
<polygon fill="midnightblue" stroke="midnightblue" points="122.23,-75.58 132.43,-78.43 126.23,-69.84 122.23,-75.58"/>
</g>
<!-- Node7&#45;&gt;Node3 -->
<g id="edge8" class="edge">
<title>Node7&#45;&gt;Node3</title>
<path fill="none" stroke="midnightblue" d="M424.93,-74.33C401.06,-63.78 373.29,-51.51 350.64,-41.51"/>
<polygon fill="midnightblue" stroke="midnightblue" points="423.64,-77.59 434.21,-78.43 426.47,-71.19 423.64,-77.59"/>
</g>
<!-- Node8 -->
<g id="node8" class="node">
<title>Node8</title>
<g id="a_node8"><a xlink:href="Keypad_8cpp.xhtml" target="_top" xlink:title=" ">
<polygon fill="white" stroke="black" points="413,-0.5 413,-41.5 544,-41.5 544,-0.5 413,-0.5"/>
<text text-anchor="start" x="421" y="-29.5" font-family="Helvetica,sans-Serif" font-size="10.00">lib/board_adapters</text>
<text text-anchor="start" x="421" y="-18.5" font-family="Helvetica,sans-Serif" font-size="10.00">/input_device_interface</text>
<text text-anchor="middle" x="478.5" y="-7.5" font-family="Helvetica,sans-Serif" font-size="10.00">/Keypad.cpp</text>
</a>
</g>
</g>
<!-- Node7&#45;&gt;Node8 -->
<g id="edge7" class="edge">
<title>Node7&#45;&gt;Node8</title>
<path fill="none" stroke="midnightblue" d="M478.5,-68.3C478.5,-59.3 478.5,-49.65 478.5,-41.51"/>
<polygon fill="midnightblue" stroke="midnightblue" points="475,-68.43 478.5,-78.43 482,-68.43 475,-68.43"/>
</g>
</g>
</svg>
