<?xml version="1.0" encoding="us-ascii" standalone="no"?><svg xmlns="http://www.w3.org/2000/svg" xmlns:xlink="http://www.w3.org/1999/xlink" contentStyleType="text/css" height="219px" preserveAspectRatio="none" style="width:879px;height:219px;background:#FFFFFF;" version="1.1" viewBox="0 0 879 219" width="879px" zoomAndPan="magnify"><defs/><g><text fill="#000000" font-family="sans-serif" font-size="14" font-weight="bold" lengthAdjust="spacing" textLength="358" x="259" y="32.9951">debouncing by post-event filtering: too short</text><line style="stroke:#333333;stroke-width:0.5;" x1="10" x2="10" y1="47.2969" y2="175.3672"/><line style="stroke:#333333;stroke-width:0.5;" x1="867" x2="867" y1="47.2969" y2="175.3672"/><rect fill="#EEEEEE" height="128.0703" style="stroke:none;stroke-width:1.0;" width="250" x="387" y="47.2969"/><line style="stroke:#333333;stroke-width:0.5;stroke-dasharray:3.0,5.0;" x1="137" x2="137" y1="47.2969" y2="175.3672"/><line style="stroke:#333333;stroke-width:0.5;stroke-dasharray:3.0,5.0;" x1="387" x2="387" y1="47.2969" y2="175.3672"/><line style="stroke:#333333;stroke-width:0.5;stroke-dasharray:3.0,5.0;" x1="637" x2="637" y1="47.2969" y2="175.3672"/><line style="stroke:#333333;stroke-width:0.5;" x1="10" x2="867" y1="47.2969" y2="47.2969"/><text fill="#333333" font-family="sans-serif" font-size="14" font-weight="bold" lengthAdjust="spacing" textLength="92" x="15" y="76.6279">digital input</text><line style="stroke:#006400;stroke-width:2.0;" x1="137" x2="137" y1="102.2344" y2="102.2344"/><line style="stroke:#006400;stroke-width:2.0;" x1="137" x2="387" y1="102.2344" y2="102.2344"/><line style="stroke:#006400;stroke-width:2.0;" x1="387" x2="387" y1="88.2344" y2="102.2344"/><line style="stroke:#006400;stroke-width:2.0;" x1="387" x2="387" y1="88.2344" y2="102.2344"/><line style="stroke:#006400;stroke-width:2.0;" x1="392" x2="392" y1="88.2344" y2="102.2344"/><line style="stroke:#006400;stroke-width:2.0;" x1="397" x2="397" y1="88.2344" y2="102.2344"/><line style="stroke:#006400;stroke-width:2.0;" x1="402" x2="402" y1="88.2344" y2="102.2344"/><line style="stroke:#006400;stroke-width:2.0;" x1="407" x2="407" y1="88.2344" y2="102.2344"/><line style="stroke:#006400;stroke-width:2.0;" x1="412" x2="412" y1="88.2344" y2="102.2344"/><line style="stroke:#006400;stroke-width:2.0;" x1="417" x2="417" y1="88.2344" y2="102.2344"/><line style="stroke:#006400;stroke-width:2.0;" x1="422" x2="422" y1="88.2344" y2="102.2344"/><line style="stroke:#006400;stroke-width:2.0;" x1="427" x2="427" y1="88.2344" y2="102.2344"/><line style="stroke:#006400;stroke-width:2.0;" x1="432" x2="432" y1="88.2344" y2="102.2344"/><line style="stroke:#006400;stroke-width:2.0;" x1="437" x2="437" y1="88.2344" y2="102.2344"/><line style="stroke:#006400;stroke-width:2.0;" x1="442" x2="442" y1="88.2344" y2="102.2344"/><line style="stroke:#006400;stroke-width:2.0;" x1="447" x2="447" y1="88.2344" y2="102.2344"/><line style="stroke:#006400;stroke-width:2.0;" x1="452" x2="452" y1="88.2344" y2="102.2344"/><line style="stroke:#006400;stroke-width:2.0;" x1="457" x2="457" y1="88.2344" y2="102.2344"/><line style="stroke:#006400;stroke-width:2.0;" x1="462" x2="462" y1="88.2344" y2="102.2344"/><line style="stroke:#006400;stroke-width:2.0;" x1="467" x2="467" y1="88.2344" y2="102.2344"/><line style="stroke:#006400;stroke-width:2.0;" x1="472" x2="472" y1="88.2344" y2="102.2344"/><line style="stroke:#006400;stroke-width:2.0;" x1="477" x2="477" y1="88.2344" y2="102.2344"/><line style="stroke:#006400;stroke-width:2.0;" x1="482" x2="482" y1="88.2344" y2="102.2344"/><line style="stroke:#006400;stroke-width:2.0;" x1="487" x2="487" y1="88.2344" y2="102.2344"/><line style="stroke:#006400;stroke-width:2.0;" x1="492" x2="492" y1="88.2344" y2="102.2344"/><line style="stroke:#006400;stroke-width:2.0;" x1="497" x2="497" y1="88.2344" y2="102.2344"/><line style="stroke:#006400;stroke-width:2.0;" x1="502" x2="502" y1="88.2344" y2="102.2344"/><line style="stroke:#006400;stroke-width:2.0;" x1="507" x2="507" y1="88.2344" y2="102.2344"/><line style="stroke:#006400;stroke-width:2.0;" x1="512" x2="512" y1="88.2344" y2="102.2344"/><line style="stroke:#006400;stroke-width:2.0;" x1="517" x2="517" y1="88.2344" y2="102.2344"/><line style="stroke:#006400;stroke-width:2.0;" x1="522" x2="522" y1="88.2344" y2="102.2344"/><line style="stroke:#006400;stroke-width:2.0;" x1="527" x2="527" y1="88.2344" y2="102.2344"/><line style="stroke:#006400;stroke-width:2.0;" x1="532" x2="532" y1="88.2344" y2="102.2344"/><line style="stroke:#006400;stroke-width:2.0;" x1="537" x2="537" y1="88.2344" y2="102.2344"/><line style="stroke:#006400;stroke-width:2.0;" x1="542" x2="542" y1="88.2344" y2="102.2344"/><line style="stroke:#006400;stroke-width:2.0;" x1="547" x2="547" y1="88.2344" y2="102.2344"/><line style="stroke:#006400;stroke-width:2.0;" x1="552" x2="552" y1="88.2344" y2="102.2344"/><line style="stroke:#006400;stroke-width:2.0;" x1="557" x2="557" y1="88.2344" y2="102.2344"/><line style="stroke:#006400;stroke-width:2.0;" x1="562" x2="562" y1="88.2344" y2="102.2344"/><line style="stroke:#006400;stroke-width:2.0;" x1="567" x2="567" y1="88.2344" y2="102.2344"/><line style="stroke:#006400;stroke-width:2.0;" x1="572" x2="572" y1="88.2344" y2="102.2344"/><line style="stroke:#006400;stroke-width:2.0;" x1="577" x2="577" y1="88.2344" y2="102.2344"/><line style="stroke:#006400;stroke-width:2.0;" x1="582" x2="582" y1="88.2344" y2="102.2344"/><line style="stroke:#006400;stroke-width:2.0;" x1="587" x2="587" y1="88.2344" y2="102.2344"/><line style="stroke:#006400;stroke-width:2.0;" x1="592" x2="592" y1="88.2344" y2="102.2344"/><line style="stroke:#006400;stroke-width:2.0;" x1="597" x2="597" y1="88.2344" y2="102.2344"/><line style="stroke:#006400;stroke-width:2.0;" x1="602" x2="602" y1="88.2344" y2="102.2344"/><line style="stroke:#006400;stroke-width:2.0;" x1="607" x2="607" y1="88.2344" y2="102.2344"/><line style="stroke:#006400;stroke-width:2.0;" x1="612" x2="612" y1="88.2344" y2="102.2344"/><line style="stroke:#006400;stroke-width:2.0;" x1="612" x2="862" y1="102.2344" y2="102.2344"/><line style="stroke:#8B0000;stroke-width:1.5;" x1="389.5" x2="609.5" y1="80.2344" y2="80.2344"/><polygon fill="#8B0000" points="397.5,84.2344,397.5,76.2344,389.5,80.2344" style="stroke:#8B0000;stroke-width:2.0;"/><polygon fill="#8B0000" points="601.5,84.2344,601.5,76.2344,609.5,80.2344" style="stroke:#8B0000;stroke-width:2.0;"/><text fill="#8B0000" font-family="sans-serif" font-size="12" lengthAdjust="spacing" textLength="58" x="470.5" y="72.4043">bouncing</text><line style="stroke:#333333;stroke-width:0.5;" x1="10" x2="867" y1="110.2344" y2="110.2344"/><text fill="#333333" font-family="sans-serif" font-size="14" font-weight="bold" lengthAdjust="spacing" textLength="117" x="15" y="147.6475">sampled signal</text><line style="stroke:#006400;stroke-width:2.0;" x1="137" x2="137" y1="167.3672" y2="167.3672"/><line style="stroke:#006400;stroke-width:2.0;" x1="137" x2="387" y1="167.3672" y2="167.3672"/><line style="stroke:#006400;stroke-width:2.0;" x1="387" x2="387" y1="153.3672" y2="167.3672"/><line style="stroke:#006400;stroke-width:2.0;" x1="387" x2="862" y1="153.3672" y2="153.3672"/><path d="M137,118.2344 L137,143.3672 L241,143.3672 L241,128.2344 L231,118.2344 L137,118.2344 " fill="#FEFFDD" style="stroke:#333333;stroke-width:0.5;"/><path d="M231,118.2344 L231,128.2344 L241,128.2344 L231,118.2344 " fill="#FEFFDD" style="stroke:#333333;stroke-width:0.5;"/><text fill="#333333" font-family="sans-serif" font-size="13" font-weight="bold" lengthAdjust="spacing" textLength="83" x="143" y="135.3013">debounced</text><line style="stroke:#00008B;stroke-width:1.5;" x1="387" x2="387" y1="88.2344" y2="153.3672"/><polygon fill="#00008B" points="384.2638,145.8496,389.7362,145.8496,387,153.3672" style="stroke:#00008B;stroke-width:1.5;"/><text fill="#00008B" font-family="Serif" font-size="14" lengthAdjust="spacing" textLength="144" x="387" y="142.5479">rising edge detected</text><line style="stroke:#00008B;stroke-width:1.5;" x1="612" x2="612" y1="88.2344" y2="153.3672"/><polygon fill="#00008B" points="609.2638,145.8496,614.7362,145.8496,612,153.3672" style="stroke:#00008B;stroke-width:1.5;"/><text fill="#00008B" font-family="Serif" font-size="14" lengthAdjust="spacing" textLength="148" x="612" y="142.5479">state change ignored</text><line style="stroke:#333333;stroke-width:2.0;stroke-dasharray:4.0,4.0;" x1="387" x2="387" y1="47.2969" y2="175.3672"/><line style="stroke:#333333;stroke-width:2.0;stroke-dasharray:4.0,4.0;" x1="637" x2="637" y1="47.2969" y2="175.3672"/><text fill="#000000" font-family="sans-serif" font-size="12" lengthAdjust="spacing" textLength="143" x="390" y="60.4355">state changes ignored</text><text fill="#000000" font-family="sans-serif" font-size="14" lengthAdjust="spacing" textLength="250" x="313" y="202.167">too short pulse leads to wrong state</text><!--SRC=[JL3RQiCm37ttLnpwsdKaWpsiZ152ViIDrKJWsYPIUc7itwTqfDs34Juw5qdA6Wc13dbEFQS1XnjA5jtHcPBYo55fCdmFpHaovabTxujoJay4POv2YEI368hBbCr9r2kvaGD1-KGxVsLnqdlBg-45R-yL2byfYZjmyjCDcy03gu_WL6RTBAJkqHD_Af42X8VauxtPEjTKhWCBOhwubDMYSa4-eiL-tOg2QrTAiwt_-D_sUnbv67zSrsmhVEw-OFNrmtJhBOnfwE8qiIoteJ0ijrBgrKmNTRIdCBrjlQsDULyQ_UZJG08RDKzh_i9tzupdo8-4_xfLzWi0]--></g></svg>