<?xml version="1.0" encoding="us-ascii" standalone="no"?><svg xmlns="http://www.w3.org/2000/svg" xmlns:xlink="http://www.w3.org/1999/xlink" contentStyleType="text/css" height="289px" preserveAspectRatio="none" style="width:1260px;height:289px;background:#FFFFFF;" version="1.1" viewBox="0 0 1260 289" width="1260px" zoomAndPan="magnify"><defs/><g><text fill="#000000" font-family="sans-serif" font-size="14" font-weight="bold" lengthAdjust="spacing" textLength="218" x="519.5" y="32.9951">debouncing based on delay</text><line style="stroke:#333333;stroke-width:0.5;" x1="10" x2="10" y1="47.2969" y2="245.5"/><line style="stroke:#333333;stroke-width:0.5;" x1="1248" x2="1248" y1="47.2969" y2="245.5"/><line style="stroke:#333333;stroke-width:0.5;stroke-dasharray:3.0,5.0;" x1="168" x2="168" y1="47.2969" y2="245.5"/><line style="stroke:#333333;stroke-width:0.5;stroke-dasharray:3.0,5.0;" x1="418" x2="418" y1="47.2969" y2="245.5"/><line style="stroke:#333333;stroke-width:0.5;stroke-dasharray:3.0,5.0;" x1="668" x2="668" y1="47.2969" y2="245.5"/><line style="stroke:#333333;stroke-width:0.5;stroke-dasharray:3.0,5.0;" x1="918" x2="918" y1="47.2969" y2="245.5"/><line style="stroke:#333333;stroke-width:0.5;stroke-dasharray:3.0,5.0;" x1="1168" x2="1168" y1="47.2969" y2="245.5"/><line style="stroke:#333333;stroke-width:0.5;" x1="10" x2="1248" y1="47.2969" y2="47.2969"/><text fill="#333333" font-family="sans-serif" font-size="14" font-weight="bold" lengthAdjust="spacing" textLength="92" x="15" y="94.1943">digital input</text><line style="stroke:#006400;stroke-width:2.0;" x1="168" x2="168" y1="88.2656" y2="88.2656"/><line style="stroke:#006400;stroke-width:2.0;" x1="168" x2="418" y1="88.2656" y2="88.2656"/><line style="stroke:#006400;stroke-width:2.0;" x1="418" x2="418" y1="74.2656" y2="88.2656"/><line style="stroke:#006400;stroke-width:2.0;" x1="418" x2="418" y1="74.2656" y2="88.2656"/><line style="stroke:#006400;stroke-width:2.0;" x1="423" x2="423" y1="74.2656" y2="88.2656"/><line style="stroke:#006400;stroke-width:2.0;" x1="428" x2="428" y1="74.2656" y2="88.2656"/><line style="stroke:#006400;stroke-width:2.0;" x1="433" x2="433" y1="74.2656" y2="88.2656"/><line style="stroke:#006400;stroke-width:2.0;" x1="438" x2="438" y1="74.2656" y2="88.2656"/><line style="stroke:#006400;stroke-width:2.0;" x1="443" x2="443" y1="74.2656" y2="88.2656"/><line style="stroke:#006400;stroke-width:2.0;" x1="448" x2="448" y1="74.2656" y2="88.2656"/><line style="stroke:#006400;stroke-width:2.0;" x1="453" x2="453" y1="74.2656" y2="88.2656"/><line style="stroke:#006400;stroke-width:2.0;" x1="458" x2="458" y1="74.2656" y2="88.2656"/><line style="stroke:#006400;stroke-width:2.0;" x1="463" x2="463" y1="74.2656" y2="88.2656"/><line style="stroke:#006400;stroke-width:2.0;" x1="468" x2="468" y1="74.2656" y2="88.2656"/><line style="stroke:#006400;stroke-width:2.0;" x1="473" x2="473" y1="74.2656" y2="88.2656"/><line style="stroke:#006400;stroke-width:2.0;" x1="478" x2="478" y1="74.2656" y2="88.2656"/><line style="stroke:#006400;stroke-width:2.0;" x1="483" x2="483" y1="74.2656" y2="88.2656"/><line style="stroke:#006400;stroke-width:2.0;" x1="488" x2="488" y1="74.2656" y2="88.2656"/><line style="stroke:#006400;stroke-width:2.0;" x1="493" x2="493" y1="74.2656" y2="88.2656"/><line style="stroke:#006400;stroke-width:2.0;" x1="498" x2="498" y1="74.2656" y2="88.2656"/><line style="stroke:#006400;stroke-width:2.0;" x1="503" x2="503" y1="74.2656" y2="88.2656"/><line style="stroke:#006400;stroke-width:2.0;" x1="508" x2="508" y1="74.2656" y2="88.2656"/><line style="stroke:#006400;stroke-width:2.0;" x1="513" x2="513" y1="74.2656" y2="88.2656"/><line style="stroke:#006400;stroke-width:2.0;" x1="518" x2="518" y1="74.2656" y2="88.2656"/><line style="stroke:#006400;stroke-width:2.0;" x1="523" x2="523" y1="74.2656" y2="88.2656"/><line style="stroke:#006400;stroke-width:2.0;" x1="528" x2="528" y1="74.2656" y2="88.2656"/><line style="stroke:#006400;stroke-width:2.0;" x1="533" x2="533" y1="74.2656" y2="88.2656"/><line style="stroke:#006400;stroke-width:2.0;" x1="538" x2="538" y1="74.2656" y2="88.2656"/><line style="stroke:#006400;stroke-width:2.0;" x1="543" x2="543" y1="74.2656" y2="88.2656"/><line style="stroke:#006400;stroke-width:2.0;" x1="548" x2="548" y1="74.2656" y2="88.2656"/><line style="stroke:#006400;stroke-width:2.0;" x1="553" x2="553" y1="74.2656" y2="88.2656"/><line style="stroke:#006400;stroke-width:2.0;" x1="558" x2="558" y1="74.2656" y2="88.2656"/><line style="stroke:#006400;stroke-width:2.0;" x1="563" x2="563" y1="74.2656" y2="88.2656"/><line style="stroke:#006400;stroke-width:2.0;" x1="568" x2="568" y1="74.2656" y2="88.2656"/><line style="stroke:#006400;stroke-width:2.0;" x1="573" x2="573" y1="74.2656" y2="88.2656"/><line style="stroke:#006400;stroke-width:2.0;" x1="578" x2="578" y1="74.2656" y2="88.2656"/><line style="stroke:#006400;stroke-width:2.0;" x1="583" x2="583" y1="74.2656" y2="88.2656"/><line style="stroke:#006400;stroke-width:2.0;" x1="588" x2="588" y1="74.2656" y2="88.2656"/><line style="stroke:#006400;stroke-width:2.0;" x1="593" x2="593" y1="74.2656" y2="88.2656"/><line style="stroke:#006400;stroke-width:2.0;" x1="598" x2="598" y1="74.2656" y2="88.2656"/><line style="stroke:#006400;stroke-width:2.0;" x1="603" x2="603" y1="74.2656" y2="88.2656"/><line style="stroke:#006400;stroke-width:2.0;" x1="608" x2="608" y1="74.2656" y2="88.2656"/><line style="stroke:#006400;stroke-width:2.0;" x1="613" x2="613" y1="74.2656" y2="88.2656"/><line style="stroke:#006400;stroke-width:2.0;" x1="618" x2="618" y1="74.2656" y2="88.2656"/><line style="stroke:#006400;stroke-width:2.0;" x1="618" x2="768" y1="74.2656" y2="74.2656"/><line style="stroke:#006400;stroke-width:2.0;" x1="768" x2="768" y1="74.2656" y2="88.2656"/><line style="stroke:#006400;stroke-width:2.0;" x1="768" x2="768" y1="74.2656" y2="88.2656"/><line style="stroke:#006400;stroke-width:2.0;" x1="773" x2="773" y1="74.2656" y2="88.2656"/><line style="stroke:#006400;stroke-width:2.0;" x1="778" x2="778" y1="74.2656" y2="88.2656"/><line style="stroke:#006400;stroke-width:2.0;" x1="783" x2="783" y1="74.2656" y2="88.2656"/><line style="stroke:#006400;stroke-width:2.0;" x1="788" x2="788" y1="74.2656" y2="88.2656"/><line style="stroke:#006400;stroke-width:2.0;" x1="793" x2="793" y1="74.2656" y2="88.2656"/><line style="stroke:#006400;stroke-width:2.0;" x1="798" x2="798" y1="74.2656" y2="88.2656"/><line style="stroke:#006400;stroke-width:2.0;" x1="803" x2="803" y1="74.2656" y2="88.2656"/><line style="stroke:#006400;stroke-width:2.0;" x1="808" x2="808" y1="74.2656" y2="88.2656"/><line style="stroke:#006400;stroke-width:2.0;" x1="813" x2="813" y1="74.2656" y2="88.2656"/><line style="stroke:#006400;stroke-width:2.0;" x1="818" x2="818" y1="74.2656" y2="88.2656"/><line style="stroke:#006400;stroke-width:2.0;" x1="823" x2="823" y1="74.2656" y2="88.2656"/><line style="stroke:#006400;stroke-width:2.0;" x1="828" x2="828" y1="74.2656" y2="88.2656"/><line style="stroke:#006400;stroke-width:2.0;" x1="833" x2="833" y1="74.2656" y2="88.2656"/><line style="stroke:#006400;stroke-width:2.0;" x1="838" x2="838" y1="74.2656" y2="88.2656"/><line style="stroke:#006400;stroke-width:2.0;" x1="843" x2="843" y1="74.2656" y2="88.2656"/><line style="stroke:#006400;stroke-width:2.0;" x1="848" x2="848" y1="74.2656" y2="88.2656"/><line style="stroke:#006400;stroke-width:2.0;" x1="853" x2="853" y1="74.2656" y2="88.2656"/><line style="stroke:#006400;stroke-width:2.0;" x1="858" x2="858" y1="74.2656" y2="88.2656"/><line style="stroke:#006400;stroke-width:2.0;" x1="863" x2="863" y1="74.2656" y2="88.2656"/><line style="stroke:#006400;stroke-width:2.0;" x1="868" x2="868" y1="74.2656" y2="88.2656"/><line style="stroke:#006400;stroke-width:2.0;" x1="873" x2="873" y1="74.2656" y2="88.2656"/><line style="stroke:#006400;stroke-width:2.0;" x1="878" x2="878" y1="74.2656" y2="88.2656"/><line style="stroke:#006400;stroke-width:2.0;" x1="883" x2="883" y1="74.2656" y2="88.2656"/><line style="stroke:#006400;stroke-width:2.0;" x1="888" x2="888" y1="74.2656" y2="88.2656"/><line style="stroke:#006400;stroke-width:2.0;" x1="893" x2="893" y1="74.2656" y2="88.2656"/><line style="stroke:#006400;stroke-width:2.0;" x1="898" x2="898" y1="74.2656" y2="88.2656"/><line style="stroke:#006400;stroke-width:2.0;" x1="903" x2="903" y1="74.2656" y2="88.2656"/><line style="stroke:#006400;stroke-width:2.0;" x1="908" x2="908" y1="74.2656" y2="88.2656"/><line style="stroke:#006400;stroke-width:2.0;" x1="913" x2="913" y1="74.2656" y2="88.2656"/><line style="stroke:#006400;stroke-width:2.0;" x1="918" x2="918" y1="74.2656" y2="88.2656"/><line style="stroke:#006400;stroke-width:2.0;" x1="923" x2="923" y1="74.2656" y2="88.2656"/><line style="stroke:#006400;stroke-width:2.0;" x1="928" x2="928" y1="74.2656" y2="88.2656"/><line style="stroke:#006400;stroke-width:2.0;" x1="933" x2="933" y1="74.2656" y2="88.2656"/><line style="stroke:#006400;stroke-width:2.0;" x1="938" x2="938" y1="74.2656" y2="88.2656"/><line style="stroke:#006400;stroke-width:2.0;" x1="943" x2="943" y1="74.2656" y2="88.2656"/><line style="stroke:#006400;stroke-width:2.0;" x1="948" x2="948" y1="74.2656" y2="88.2656"/><line style="stroke:#006400;stroke-width:2.0;" x1="953" x2="953" y1="74.2656" y2="88.2656"/><line style="stroke:#006400;stroke-width:2.0;" x1="958" x2="958" y1="74.2656" y2="88.2656"/><line style="stroke:#006400;stroke-width:2.0;" x1="963" x2="963" y1="74.2656" y2="88.2656"/><line style="stroke:#006400;stroke-width:2.0;" x1="968" x2="968" y1="74.2656" y2="88.2656"/><line style="stroke:#006400;stroke-width:2.0;" x1="968" x2="1243" y1="88.2656" y2="88.2656"/><line style="stroke:#8B0000;stroke-width:1.5;" x1="420.5" x2="615.5" y1="66.2656" y2="66.2656"/><polygon fill="#8B0000" points="428.5,70.2656,428.5,62.2656,420.5,66.2656" style="stroke:#8B0000;stroke-width:2.0;"/><polygon fill="#8B0000" points="607.5,70.2656,607.5,62.2656,615.5,66.2656" style="stroke:#8B0000;stroke-width:2.0;"/><text fill="#8B0000" font-family="sans-serif" font-size="12" lengthAdjust="spacing" textLength="58" x="489" y="58.4355">bouncing</text><line style="stroke:#8B0000;stroke-width:1.5;" x1="770.5" x2="965.5" y1="66.2656" y2="66.2656"/><polygon fill="#8B0000" points="778.5,70.2656,778.5,62.2656,770.5,66.2656" style="stroke:#8B0000;stroke-width:2.0;"/><polygon fill="#8B0000" points="957.5,70.2656,957.5,62.2656,965.5,66.2656" style="stroke:#8B0000;stroke-width:2.0;"/><text fill="#8B0000" font-family="sans-serif" font-size="12" lengthAdjust="spacing" textLength="58" x="839" y="58.4355">bouncing</text><path d="M418,97.2656 L418,122.3984 L553,122.3984 L553,107.2656 L543,97.2656 L418,97.2656 " fill="#FEFFDD" style="stroke:#333333;stroke-width:0.5;"/><path d="M543,97.2656 L543,107.2656 L553,107.2656 L543,97.2656 " fill="#FEFFDD" style="stroke:#333333;stroke-width:0.5;"/><text fill="#333333" font-family="sans-serif" font-size="13" font-weight="bold" lengthAdjust="spacing" textLength="114" x="424" y="114.3325">button pressed</text><path d="M768,97.2656 L768,122.3984 L907,122.3984 L907,107.2656 L897,97.2656 L768,97.2656 " fill="#FEFFDD" style="stroke:#333333;stroke-width:0.5;"/><path d="M897,97.2656 L897,107.2656 L907,107.2656 L897,97.2656 " fill="#FEFFDD" style="stroke:#333333;stroke-width:0.5;"/><text fill="#333333" font-family="sans-serif" font-size="13" font-weight="bold" lengthAdjust="spacing" textLength="118" x="774" y="114.3325">button released</text><line style="stroke:#333333;stroke-width:0.5;" x1="10" x2="1248" y1="131.3984" y2="131.3984"/><text fill="#333333" font-family="sans-serif" font-size="14" font-weight="bold" lengthAdjust="spacing" textLength="148" x="15" y="160.7295">debouncer waiting</text><line style="stroke:#006400;stroke-width:2.0;" x1="168" x2="418" y1="172.3672" y2="172.3672"/><line style="stroke:#006400;stroke-width:2.0;" x1="418" x2="418" y1="158.3672" y2="172.3672"/><line style="stroke:#006400;stroke-width:2.0;" x1="418" x2="643" y1="158.3672" y2="158.3672"/><line style="stroke:#006400;stroke-width:2.0;" x1="643" x2="643" y1="158.3672" y2="172.3672"/><line style="stroke:#006400;stroke-width:2.0;" x1="643" x2="768" y1="172.3672" y2="172.3672"/><line style="stroke:#006400;stroke-width:2.0;" x1="768" x2="768" y1="158.3672" y2="172.3672"/><line style="stroke:#006400;stroke-width:2.0;" x1="768" x2="993" y1="158.3672" y2="158.3672"/><line style="stroke:#006400;stroke-width:2.0;" x1="993" x2="993" y1="158.3672" y2="172.3672"/><line style="stroke:#006400;stroke-width:2.0;" x1="993" x2="1243" y1="172.3672" y2="172.3672"/><line style="stroke:#8B0000;stroke-width:1.5;" x1="620.5" x2="640.5" y1="150.3672" y2="150.3672"/><polygon fill="#8B0000" points="628.5,154.3672,628.5,146.3672,620.5,150.3672" style="stroke:#8B0000;stroke-width:2.0;"/><polygon fill="#8B0000" points="632.5,154.3672,632.5,146.3672,640.5,150.3672" style="stroke:#8B0000;stroke-width:2.0;"/><text fill="#8B0000" font-family="sans-serif" font-size="12" lengthAdjust="spacing" textLength="33" x="614" y="142.5371">delay</text><line style="stroke:#8B0000;stroke-width:1.5;" x1="970.5" x2="990.5" y1="150.3672" y2="150.3672"/><polygon fill="#8B0000" points="978.5,154.3672,978.5,146.3672,970.5,150.3672" style="stroke:#8B0000;stroke-width:2.0;"/><polygon fill="#8B0000" points="982.5,154.3672,982.5,146.3672,990.5,150.3672" style="stroke:#8B0000;stroke-width:2.0;"/><text fill="#8B0000" font-family="sans-serif" font-size="12" lengthAdjust="spacing" textLength="33" x="964" y="142.5371">delay</text><line style="stroke:#333333;stroke-width:0.5;" x1="10" x2="1248" y1="180.3672" y2="180.3672"/><text fill="#333333" font-family="sans-serif" font-size="14" font-weight="bold" lengthAdjust="spacing" textLength="117" x="15" y="217.7803">sampled signal</text><line style="stroke:#006400;stroke-width:2.0;" x1="168" x2="168" y1="237.5" y2="237.5"/><line style="stroke:#006400;stroke-width:2.0;" x1="168" x2="643" y1="237.5" y2="237.5"/><line style="stroke:#006400;stroke-width:2.0;" x1="643" x2="643" y1="223.5" y2="237.5"/><line style="stroke:#006400;stroke-width:2.0;" x1="643" x2="993" y1="223.5" y2="223.5"/><line style="stroke:#006400;stroke-width:2.0;" x1="993" x2="993" y1="223.5" y2="237.5"/><line style="stroke:#006400;stroke-width:2.0;" x1="993" x2="1243" y1="237.5" y2="237.5"/><path d="M168,188.3672 L168,213.5 L272,213.5 L272,198.3672 L262,188.3672 L168,188.3672 " fill="#FEFFDD" style="stroke:#333333;stroke-width:0.5;"/><path d="M262,188.3672 L262,198.3672 L272,198.3672 L262,188.3672 " fill="#FEFFDD" style="stroke:#333333;stroke-width:0.5;"/><text fill="#333333" font-family="sans-serif" font-size="13" font-weight="bold" lengthAdjust="spacing" textLength="83" x="174" y="205.4341">debounced</text><line style="stroke:#00008B;stroke-width:1.5;" x1="643" x2="643" y1="158.3672" y2="223.5"/><polygon fill="#00008B" points="640.2638,215.9825,645.7362,215.9825,643,223.5" style="stroke:#00008B;stroke-width:1.5;"/><text fill="#00008B" font-family="Serif" font-size="14" lengthAdjust="spacing" textLength="144" x="643" y="212.6807">rising edge detected</text><line style="stroke:#00008B;stroke-width:1.5;" x1="993" x2="993" y1="158.3672" y2="223.5"/><polygon fill="#00008B" points="990.2638,215.9825,995.7362,215.9825,993,223.5" style="stroke:#00008B;stroke-width:1.5;"/><text fill="#00008B" font-family="Serif" font-size="14" lengthAdjust="spacing" textLength="147" x="993" y="212.6807">falling edge detected</text><text fill="#000000" font-family="sans-serif" font-size="14" lengthAdjust="spacing" textLength="176" x="540.5" y="272.2998">debouncing normal pulse</text><!--SRC=[XP71QiCm38RlUWhHQzVH3WfZZ55AtY5d9L4JWMERsA4jPUy-sLcoNRATOkd_BNt-4oKQneOhDzfQR8iL1MxGMUqPkaDDFagk5eTrGqy6_MW2GoSDOvIUTtIJ0A4c7NT02lXotAEN6vi0bLWQxhXff9MeLyNwCMwIgVZHfWKyu9KawfwibuiUgFT6oOAqbamMpm2dFHGe0OsxWdLHKPn7Ty4plit8tC1vjfosXyd_qEgfaxRxX3BLwJWDg5oChayp2frHZLfPz0C7ZGMAqtQFxxiFrE_pQzA_Gu7SWFAtViWCASHYMP7xqyh4Kw9w4-iW8KNBJPj-HkGwpjZBjUCVV0CRfWou-hZ_q9SOLzwmHduXOrRGrVS5]--></g></svg>