<?xml version="1.0" encoding="us-ascii" standalone="no"?><svg xmlns="http://www.w3.org/2000/svg" xmlns:xlink="http://www.w3.org/1999/xlink" contentStyleType="text/css" height="254px" preserveAspectRatio="none" style="width:935px;height:254px;background:#FFFFFF;" version="1.1" viewBox="0 0 935 254" width="935px" zoomAndPan="magnify"><defs/><g><text fill="#000000" font-family="sans-serif" font-size="14" font-weight="bold" lengthAdjust="spacing" textLength="302" x="315" y="32.9951">debouncing based on delay: too short</text><line style="stroke:#333333;stroke-width:0.5;" x1="10" x2="10" y1="47.2969" y2="210.3672"/><line style="stroke:#333333;stroke-width:0.5;" x1="923" x2="923" y1="47.2969" y2="210.3672"/><line style="stroke:#333333;stroke-width:0.5;stroke-dasharray:3.0,5.0;" x1="168" x2="168" y1="47.2969" y2="210.3672"/><line style="stroke:#333333;stroke-width:0.5;stroke-dasharray:3.0,5.0;" x1="418" x2="418" y1="47.2969" y2="210.3672"/><line style="stroke:#333333;stroke-width:0.5;stroke-dasharray:3.0,5.0;" x1="668" x2="668" y1="47.2969" y2="210.3672"/><line style="stroke:#333333;stroke-width:0.5;stroke-dasharray:3.0,5.0;" x1="918" x2="918" y1="47.2969" y2="210.3672"/><line style="stroke:#333333;stroke-width:0.5;" x1="10" x2="923" y1="47.2969" y2="47.2969"/><text fill="#333333" font-family="sans-serif" font-size="14" font-weight="bold" lengthAdjust="spacing" textLength="92" x="15" y="76.6279">digital input</text><line style="stroke:#006400;stroke-width:2.0;" x1="168" x2="168" y1="88.2656" y2="88.2656"/><line style="stroke:#006400;stroke-width:2.0;" x1="168" x2="418" y1="88.2656" y2="88.2656"/><line style="stroke:#006400;stroke-width:2.0;" x1="418" x2="418" y1="74.2656" y2="88.2656"/><line style="stroke:#006400;stroke-width:2.0;" x1="418" x2="418" y1="74.2656" y2="88.2656"/><line style="stroke:#006400;stroke-width:2.0;" x1="423" x2="423" y1="74.2656" y2="88.2656"/><line style="stroke:#006400;stroke-width:2.0;" x1="428" x2="428" y1="74.2656" y2="88.2656"/><line style="stroke:#006400;stroke-width:2.0;" x1="433" x2="433" y1="74.2656" y2="88.2656"/><line style="stroke:#006400;stroke-width:2.0;" x1="438" x2="438" y1="74.2656" y2="88.2656"/><line style="stroke:#006400;stroke-width:2.0;" x1="443" x2="443" y1="74.2656" y2="88.2656"/><line style="stroke:#006400;stroke-width:2.0;" x1="448" x2="448" y1="74.2656" y2="88.2656"/><line style="stroke:#006400;stroke-width:2.0;" x1="453" x2="453" y1="74.2656" y2="88.2656"/><line style="stroke:#006400;stroke-width:2.0;" x1="458" x2="458" y1="74.2656" y2="88.2656"/><line style="stroke:#006400;stroke-width:2.0;" x1="463" x2="463" y1="74.2656" y2="88.2656"/><line style="stroke:#006400;stroke-width:2.0;" x1="468" x2="468" y1="74.2656" y2="88.2656"/><line style="stroke:#006400;stroke-width:2.0;" x1="473" x2="473" y1="74.2656" y2="88.2656"/><line style="stroke:#006400;stroke-width:2.0;" x1="478" x2="478" y1="74.2656" y2="88.2656"/><line style="stroke:#006400;stroke-width:2.0;" x1="483" x2="483" y1="74.2656" y2="88.2656"/><line style="stroke:#006400;stroke-width:2.0;" x1="488" x2="488" y1="74.2656" y2="88.2656"/><line style="stroke:#006400;stroke-width:2.0;" x1="493" x2="493" y1="74.2656" y2="88.2656"/><line style="stroke:#006400;stroke-width:2.0;" x1="498" x2="498" y1="74.2656" y2="88.2656"/><line style="stroke:#006400;stroke-width:2.0;" x1="503" x2="503" y1="74.2656" y2="88.2656"/><line style="stroke:#006400;stroke-width:2.0;" x1="508" x2="508" y1="74.2656" y2="88.2656"/><line style="stroke:#006400;stroke-width:2.0;" x1="513" x2="513" y1="74.2656" y2="88.2656"/><line style="stroke:#006400;stroke-width:2.0;" x1="518" x2="518" y1="74.2656" y2="88.2656"/><line style="stroke:#006400;stroke-width:2.0;" x1="523" x2="523" y1="74.2656" y2="88.2656"/><line style="stroke:#006400;stroke-width:2.0;" x1="528" x2="528" y1="74.2656" y2="88.2656"/><line style="stroke:#006400;stroke-width:2.0;" x1="533" x2="533" y1="74.2656" y2="88.2656"/><line style="stroke:#006400;stroke-width:2.0;" x1="538" x2="538" y1="74.2656" y2="88.2656"/><line style="stroke:#006400;stroke-width:2.0;" x1="543" x2="543" y1="74.2656" y2="88.2656"/><line style="stroke:#006400;stroke-width:2.0;" x1="548" x2="548" y1="74.2656" y2="88.2656"/><line style="stroke:#006400;stroke-width:2.0;" x1="553" x2="553" y1="74.2656" y2="88.2656"/><line style="stroke:#006400;stroke-width:2.0;" x1="558" x2="558" y1="74.2656" y2="88.2656"/><line style="stroke:#006400;stroke-width:2.0;" x1="563" x2="563" y1="74.2656" y2="88.2656"/><line style="stroke:#006400;stroke-width:2.0;" x1="568" x2="568" y1="74.2656" y2="88.2656"/><line style="stroke:#006400;stroke-width:2.0;" x1="573" x2="573" y1="74.2656" y2="88.2656"/><line style="stroke:#006400;stroke-width:2.0;" x1="578" x2="578" y1="74.2656" y2="88.2656"/><line style="stroke:#006400;stroke-width:2.0;" x1="583" x2="583" y1="74.2656" y2="88.2656"/><line style="stroke:#006400;stroke-width:2.0;" x1="588" x2="588" y1="74.2656" y2="88.2656"/><line style="stroke:#006400;stroke-width:2.0;" x1="593" x2="593" y1="74.2656" y2="88.2656"/><line style="stroke:#006400;stroke-width:2.0;" x1="598" x2="598" y1="74.2656" y2="88.2656"/><line style="stroke:#006400;stroke-width:2.0;" x1="603" x2="603" y1="74.2656" y2="88.2656"/><line style="stroke:#006400;stroke-width:2.0;" x1="608" x2="608" y1="74.2656" y2="88.2656"/><line style="stroke:#006400;stroke-width:2.0;" x1="613" x2="613" y1="74.2656" y2="88.2656"/><line style="stroke:#006400;stroke-width:2.0;" x1="618" x2="618" y1="74.2656" y2="88.2656"/><line style="stroke:#006400;stroke-width:2.0;" x1="623" x2="623" y1="74.2656" y2="88.2656"/><line style="stroke:#006400;stroke-width:2.0;" x1="628" x2="628" y1="74.2656" y2="88.2656"/><line style="stroke:#006400;stroke-width:2.0;" x1="633" x2="633" y1="74.2656" y2="88.2656"/><line style="stroke:#006400;stroke-width:2.0;" x1="638" x2="638" y1="74.2656" y2="88.2656"/><line style="stroke:#006400;stroke-width:2.0;" x1="643" x2="643" y1="74.2656" y2="88.2656"/><line style="stroke:#006400;stroke-width:2.0;" x1="643" x2="918" y1="88.2656" y2="88.2656"/><line style="stroke:#8B0000;stroke-width:1.5;" x1="420.5" x2="640.5" y1="66.2656" y2="66.2656"/><polygon fill="#8B0000" points="428.5,70.2656,428.5,62.2656,420.5,66.2656" style="stroke:#8B0000;stroke-width:2.0;"/><polygon fill="#8B0000" points="632.5,70.2656,632.5,62.2656,640.5,66.2656" style="stroke:#8B0000;stroke-width:2.0;"/><text fill="#8B0000" font-family="sans-serif" font-size="12" lengthAdjust="spacing" textLength="58" x="501.5" y="58.4355">bouncing</text><line style="stroke:#333333;stroke-width:0.5;" x1="10" x2="923" y1="96.2656" y2="96.2656"/><text fill="#333333" font-family="sans-serif" font-size="14" font-weight="bold" lengthAdjust="spacing" textLength="148" x="15" y="125.5967">debouncer waiting</text><line style="stroke:#006400;stroke-width:2.0;" x1="168" x2="418" y1="137.2344" y2="137.2344"/><line style="stroke:#006400;stroke-width:2.0;" x1="418" x2="418" y1="123.2344" y2="137.2344"/><line style="stroke:#006400;stroke-width:2.0;" x1="418" x2="668" y1="123.2344" y2="123.2344"/><line style="stroke:#006400;stroke-width:2.0;" x1="668" x2="668" y1="123.2344" y2="137.2344"/><line style="stroke:#006400;stroke-width:2.0;" x1="668" x2="918" y1="137.2344" y2="137.2344"/><line style="stroke:#8B0000;stroke-width:1.5;" x1="645.5" x2="665.5" y1="115.2344" y2="115.2344"/><polygon fill="#8B0000" points="653.5,119.2344,653.5,111.2344,645.5,115.2344" style="stroke:#8B0000;stroke-width:2.0;"/><polygon fill="#8B0000" points="657.5,119.2344,657.5,111.2344,665.5,115.2344" style="stroke:#8B0000;stroke-width:2.0;"/><text fill="#8B0000" font-family="sans-serif" font-size="12" lengthAdjust="spacing" textLength="33" x="639" y="107.4043">delay</text><line style="stroke:#333333;stroke-width:0.5;" x1="10" x2="923" y1="145.2344" y2="145.2344"/><text fill="#333333" font-family="sans-serif" font-size="14" font-weight="bold" lengthAdjust="spacing" textLength="140" x="15" y="182.6475">debounced signal</text><line style="stroke:#006400;stroke-width:2.0;" x1="168" x2="168" y1="202.3672" y2="202.3672"/><line style="stroke:#006400;stroke-width:2.0;" x1="168" x2="918" y1="202.3672" y2="202.3672"/><path d="M168,153.2344 L168,178.3672 L272,178.3672 L272,163.2344 L262,153.2344 L168,153.2344 " fill="#FEFFDD" style="stroke:#333333;stroke-width:0.5;"/><path d="M262,153.2344 L262,163.2344 L272,163.2344 L262,153.2344 " fill="#FEFFDD" style="stroke:#333333;stroke-width:0.5;"/><text fill="#333333" font-family="sans-serif" font-size="13" font-weight="bold" lengthAdjust="spacing" textLength="83" x="174" y="170.3013">debounced</text><path d="M668,153.2344 L668,178.3672 L897,178.3672 L897,163.2344 L887,153.2344 L668,153.2344 " fill="#FEFFDD" style="stroke:#333333;stroke-width:0.5;"/><path d="M887,153.2344 L887,163.2344 L897,163.2344 L887,153.2344 " fill="#FEFFDD" style="stroke:#333333;stroke-width:0.5;"/><text fill="#333333" font-family="sans-serif" font-size="13" font-weight="bold" lengthAdjust="spacing" textLength="208" x="674" y="170.3013">state has not been adopted</text><line style="stroke:#00008B;stroke-width:1.5;" x1="668" x2="668" y1="123.2344" y2="74.2656"/><polygon fill="#00008B" points="670.7362,81.7832,665.2638,81.7832,668,74.2656" style="stroke:#00008B;stroke-width:1.5;"/><text fill="#00008B" font-family="Serif" font-size="14" lengthAdjust="spacing" textLength="71" x="668" y="94.7783">read state</text><text fill="#000000" font-family="sans-serif" font-size="14" lengthAdjust="spacing" textLength="287" x="322.5" y="237.167">too short pulse will be completely ignored</text><!--SRC=[RP11QyCm38Nl_XMFNhkEPh33oXYXv3_qhCHQ8d1j4okaPUo_JqrfEzXEjlGzwprBHGF3Svkcs4diqL9XZnIj5-YyWwQ4CgHHNKTPnS2zWpo5mfWb1BICBXrpOELmXlGnZUpT89wXSkGDdQIuqf6PLQ22bzSjifmu5DTAfF6CbPTUb08avabN5r7pODU0F68cKSkvyCCVxb7CcyA2zyxLMzT02aAQNKngOL96-iGUEzpVkFrDKg-hg_xBggT1-k7R7IxrvUgQUht5- -O3TZw_sOJRqjpIU3WTVWkhnSfskQWgcsUWiUR8P76LbAyU_sLSC0RxZ15RCaUGJrdP_m00]--></g></svg>