<?xml version="1.0" encoding="us-ascii" standalone="no"?><svg xmlns="http://www.w3.org/2000/svg" xmlns:xlink="http://www.w3.org/1999/xlink" contentStyleType="text/css" height="254px" preserveAspectRatio="none" style="width:1179px;height:254px;background:#FFFFFF;" version="1.1" viewBox="0 0 1179 254" width="1179px" zoomAndPan="magnify"><defs/><g><text fill="#000000" font-family="sans-serif" font-size="14" font-weight="bold" lengthAdjust="spacing" textLength="274" x="451" y="32.9951">debouncing by post-event filtering</text><line style="stroke:#333333;stroke-width:0.5;" x1="10" x2="10" y1="47.2969" y2="210.5"/><line style="stroke:#333333;stroke-width:0.5;" x1="1167" x2="1167" y1="47.2969" y2="210.5"/><rect fill="#EEEEEE" height="163.2031" style="stroke:none;stroke-width:1.0;" width="250" x="387" y="47.2969"/><rect fill="#EEEEEE" height="163.2031" style="stroke:none;stroke-width:1.0;" width="250" x="712" y="47.2969"/><line style="stroke:#333333;stroke-width:0.5;stroke-dasharray:3.0,5.0;" x1="137" x2="137" y1="47.2969" y2="210.5"/><line style="stroke:#333333;stroke-width:0.5;stroke-dasharray:3.0,5.0;" x1="387" x2="387" y1="47.2969" y2="210.5"/><line style="stroke:#333333;stroke-width:0.5;stroke-dasharray:3.0,5.0;" x1="637" x2="637" y1="47.2969" y2="210.5"/><line style="stroke:#333333;stroke-width:0.5;stroke-dasharray:3.0,5.0;" x1="887" x2="887" y1="47.2969" y2="210.5"/><line style="stroke:#333333;stroke-width:0.5;stroke-dasharray:3.0,5.0;" x1="1137" x2="1137" y1="47.2969" y2="210.5"/><line style="stroke:#333333;stroke-width:0.5;" x1="10" x2="1167" y1="47.2969" y2="47.2969"/><text fill="#333333" font-family="sans-serif" font-size="14" font-weight="bold" lengthAdjust="spacing" textLength="92" x="15" y="94.1943">digital input</text><line style="stroke:#006400;stroke-width:2.0;" x1="137" x2="137" y1="102.2344" y2="102.2344"/><line style="stroke:#006400;stroke-width:2.0;" x1="137" x2="387" y1="102.2344" y2="102.2344"/><line style="stroke:#006400;stroke-width:2.0;" x1="387" x2="387" y1="88.2344" y2="102.2344"/><line style="stroke:#006400;stroke-width:2.0;" x1="387" x2="387" y1="88.2344" y2="102.2344"/><line style="stroke:#006400;stroke-width:2.0;" x1="392" x2="392" y1="88.2344" y2="102.2344"/><line style="stroke:#006400;stroke-width:2.0;" x1="397" x2="397" y1="88.2344" y2="102.2344"/><line style="stroke:#006400;stroke-width:2.0;" x1="402" x2="402" y1="88.2344" y2="102.2344"/><line style="stroke:#006400;stroke-width:2.0;" x1="407" x2="407" y1="88.2344" y2="102.2344"/><line style="stroke:#006400;stroke-width:2.0;" x1="412" x2="412" y1="88.2344" y2="102.2344"/><line style="stroke:#006400;stroke-width:2.0;" x1="417" x2="417" y1="88.2344" y2="102.2344"/><line style="stroke:#006400;stroke-width:2.0;" x1="422" x2="422" y1="88.2344" y2="102.2344"/><line style="stroke:#006400;stroke-width:2.0;" x1="427" x2="427" y1="88.2344" y2="102.2344"/><line style="stroke:#006400;stroke-width:2.0;" x1="432" x2="432" y1="88.2344" y2="102.2344"/><line style="stroke:#006400;stroke-width:2.0;" x1="437" x2="437" y1="88.2344" y2="102.2344"/><line style="stroke:#006400;stroke-width:2.0;" x1="442" x2="442" y1="88.2344" y2="102.2344"/><line style="stroke:#006400;stroke-width:2.0;" x1="447" x2="447" y1="88.2344" y2="102.2344"/><line style="stroke:#006400;stroke-width:2.0;" x1="452" x2="452" y1="88.2344" y2="102.2344"/><line style="stroke:#006400;stroke-width:2.0;" x1="457" x2="457" y1="88.2344" y2="102.2344"/><line style="stroke:#006400;stroke-width:2.0;" x1="462" x2="462" y1="88.2344" y2="102.2344"/><line style="stroke:#006400;stroke-width:2.0;" x1="467" x2="467" y1="88.2344" y2="102.2344"/><line style="stroke:#006400;stroke-width:2.0;" x1="472" x2="472" y1="88.2344" y2="102.2344"/><line style="stroke:#006400;stroke-width:2.0;" x1="477" x2="477" y1="88.2344" y2="102.2344"/><line style="stroke:#006400;stroke-width:2.0;" x1="482" x2="482" y1="88.2344" y2="102.2344"/><line style="stroke:#006400;stroke-width:2.0;" x1="487" x2="487" y1="88.2344" y2="102.2344"/><line style="stroke:#006400;stroke-width:2.0;" x1="492" x2="492" y1="88.2344" y2="102.2344"/><line style="stroke:#006400;stroke-width:2.0;" x1="497" x2="497" y1="88.2344" y2="102.2344"/><line style="stroke:#006400;stroke-width:2.0;" x1="502" x2="502" y1="88.2344" y2="102.2344"/><line style="stroke:#006400;stroke-width:2.0;" x1="507" x2="507" y1="88.2344" y2="102.2344"/><line style="stroke:#006400;stroke-width:2.0;" x1="512" x2="512" y1="88.2344" y2="102.2344"/><line style="stroke:#006400;stroke-width:2.0;" x1="517" x2="517" y1="88.2344" y2="102.2344"/><line style="stroke:#006400;stroke-width:2.0;" x1="522" x2="522" y1="88.2344" y2="102.2344"/><line style="stroke:#006400;stroke-width:2.0;" x1="527" x2="527" y1="88.2344" y2="102.2344"/><line style="stroke:#006400;stroke-width:2.0;" x1="532" x2="532" y1="88.2344" y2="102.2344"/><line style="stroke:#006400;stroke-width:2.0;" x1="537" x2="537" y1="88.2344" y2="102.2344"/><line style="stroke:#006400;stroke-width:2.0;" x1="542" x2="542" y1="88.2344" y2="102.2344"/><line style="stroke:#006400;stroke-width:2.0;" x1="547" x2="547" y1="88.2344" y2="102.2344"/><line style="stroke:#006400;stroke-width:2.0;" x1="552" x2="552" y1="88.2344" y2="102.2344"/><line style="stroke:#006400;stroke-width:2.0;" x1="557" x2="557" y1="88.2344" y2="102.2344"/><line style="stroke:#006400;stroke-width:2.0;" x1="562" x2="562" y1="88.2344" y2="102.2344"/><line style="stroke:#006400;stroke-width:2.0;" x1="567" x2="567" y1="88.2344" y2="102.2344"/><line style="stroke:#006400;stroke-width:2.0;" x1="572" x2="572" y1="88.2344" y2="102.2344"/><line style="stroke:#006400;stroke-width:2.0;" x1="577" x2="577" y1="88.2344" y2="102.2344"/><line style="stroke:#006400;stroke-width:2.0;" x1="582" x2="582" y1="88.2344" y2="102.2344"/><line style="stroke:#006400;stroke-width:2.0;" x1="587" x2="587" y1="88.2344" y2="102.2344"/><line style="stroke:#006400;stroke-width:2.0;" x1="587" x2="712" y1="88.2344" y2="88.2344"/><line style="stroke:#006400;stroke-width:2.0;" x1="712" x2="712" y1="88.2344" y2="102.2344"/><line style="stroke:#006400;stroke-width:2.0;" x1="712" x2="712" y1="88.2344" y2="102.2344"/><line style="stroke:#006400;stroke-width:2.0;" x1="717" x2="717" y1="88.2344" y2="102.2344"/><line style="stroke:#006400;stroke-width:2.0;" x1="722" x2="722" y1="88.2344" y2="102.2344"/><line style="stroke:#006400;stroke-width:2.0;" x1="727" x2="727" y1="88.2344" y2="102.2344"/><line style="stroke:#006400;stroke-width:2.0;" x1="732" x2="732" y1="88.2344" y2="102.2344"/><line style="stroke:#006400;stroke-width:2.0;" x1="737" x2="737" y1="88.2344" y2="102.2344"/><line style="stroke:#006400;stroke-width:2.0;" x1="742" x2="742" y1="88.2344" y2="102.2344"/><line style="stroke:#006400;stroke-width:2.0;" x1="747" x2="747" y1="88.2344" y2="102.2344"/><line style="stroke:#006400;stroke-width:2.0;" x1="752" x2="752" y1="88.2344" y2="102.2344"/><line style="stroke:#006400;stroke-width:2.0;" x1="757" x2="757" y1="88.2344" y2="102.2344"/><line style="stroke:#006400;stroke-width:2.0;" x1="762" x2="762" y1="88.2344" y2="102.2344"/><line style="stroke:#006400;stroke-width:2.0;" x1="767" x2="767" y1="88.2344" y2="102.2344"/><line style="stroke:#006400;stroke-width:2.0;" x1="772" x2="772" y1="88.2344" y2="102.2344"/><line style="stroke:#006400;stroke-width:2.0;" x1="777" x2="777" y1="88.2344" y2="102.2344"/><line style="stroke:#006400;stroke-width:2.0;" x1="782" x2="782" y1="88.2344" y2="102.2344"/><line style="stroke:#006400;stroke-width:2.0;" x1="787" x2="787" y1="88.2344" y2="102.2344"/><line style="stroke:#006400;stroke-width:2.0;" x1="792" x2="792" y1="88.2344" y2="102.2344"/><line style="stroke:#006400;stroke-width:2.0;" x1="797" x2="797" y1="88.2344" y2="102.2344"/><line style="stroke:#006400;stroke-width:2.0;" x1="802" x2="802" y1="88.2344" y2="102.2344"/><line style="stroke:#006400;stroke-width:2.0;" x1="807" x2="807" y1="88.2344" y2="102.2344"/><line style="stroke:#006400;stroke-width:2.0;" x1="812" x2="812" y1="88.2344" y2="102.2344"/><line style="stroke:#006400;stroke-width:2.0;" x1="817" x2="817" y1="88.2344" y2="102.2344"/><line style="stroke:#006400;stroke-width:2.0;" x1="822" x2="822" y1="88.2344" y2="102.2344"/><line style="stroke:#006400;stroke-width:2.0;" x1="827" x2="827" y1="88.2344" y2="102.2344"/><line style="stroke:#006400;stroke-width:2.0;" x1="832" x2="832" y1="88.2344" y2="102.2344"/><line style="stroke:#006400;stroke-width:2.0;" x1="837" x2="837" y1="88.2344" y2="102.2344"/><line style="stroke:#006400;stroke-width:2.0;" x1="842" x2="842" y1="88.2344" y2="102.2344"/><line style="stroke:#006400;stroke-width:2.0;" x1="847" x2="847" y1="88.2344" y2="102.2344"/><line style="stroke:#006400;stroke-width:2.0;" x1="852" x2="852" y1="88.2344" y2="102.2344"/><line style="stroke:#006400;stroke-width:2.0;" x1="857" x2="857" y1="88.2344" y2="102.2344"/><line style="stroke:#006400;stroke-width:2.0;" x1="862" x2="862" y1="88.2344" y2="102.2344"/><line style="stroke:#006400;stroke-width:2.0;" x1="867" x2="867" y1="88.2344" y2="102.2344"/><line style="stroke:#006400;stroke-width:2.0;" x1="872" x2="872" y1="88.2344" y2="102.2344"/><line style="stroke:#006400;stroke-width:2.0;" x1="877" x2="877" y1="88.2344" y2="102.2344"/><line style="stroke:#006400;stroke-width:2.0;" x1="882" x2="882" y1="88.2344" y2="102.2344"/><line style="stroke:#006400;stroke-width:2.0;" x1="887" x2="887" y1="88.2344" y2="102.2344"/><line style="stroke:#006400;stroke-width:2.0;" x1="892" x2="892" y1="88.2344" y2="102.2344"/><line style="stroke:#006400;stroke-width:2.0;" x1="897" x2="897" y1="88.2344" y2="102.2344"/><line style="stroke:#006400;stroke-width:2.0;" x1="902" x2="902" y1="88.2344" y2="102.2344"/><line style="stroke:#006400;stroke-width:2.0;" x1="907" x2="907" y1="88.2344" y2="102.2344"/><line style="stroke:#006400;stroke-width:2.0;" x1="912" x2="912" y1="88.2344" y2="102.2344"/><line style="stroke:#006400;stroke-width:2.0;" x1="912" x2="1162" y1="102.2344" y2="102.2344"/><line style="stroke:#8B0000;stroke-width:1.5;" x1="389.5" x2="584.5" y1="80.2344" y2="80.2344"/><polygon fill="#8B0000" points="397.5,84.2344,397.5,76.2344,389.5,80.2344" style="stroke:#8B0000;stroke-width:2.0;"/><polygon fill="#8B0000" points="576.5,84.2344,576.5,76.2344,584.5,80.2344" style="stroke:#8B0000;stroke-width:2.0;"/><text fill="#8B0000" font-family="sans-serif" font-size="12" lengthAdjust="spacing" textLength="58" x="458" y="72.4043">bouncing</text><line style="stroke:#8B0000;stroke-width:1.5;" x1="714.5" x2="909.5" y1="80.2344" y2="80.2344"/><polygon fill="#8B0000" points="722.5,84.2344,722.5,76.2344,714.5,80.2344" style="stroke:#8B0000;stroke-width:2.0;"/><polygon fill="#8B0000" points="901.5,84.2344,901.5,76.2344,909.5,80.2344" style="stroke:#8B0000;stroke-width:2.0;"/><text fill="#8B0000" font-family="sans-serif" font-size="12" lengthAdjust="spacing" textLength="58" x="783" y="72.4043">bouncing</text><path d="M387,111.2344 L387,136.3672 L522,136.3672 L522,121.2344 L512,111.2344 L387,111.2344 " fill="#FEFFDD" style="stroke:#333333;stroke-width:0.5;"/><path d="M512,111.2344 L512,121.2344 L522,121.2344 L512,111.2344 " fill="#FEFFDD" style="stroke:#333333;stroke-width:0.5;"/><text fill="#333333" font-family="sans-serif" font-size="13" font-weight="bold" lengthAdjust="spacing" textLength="114" x="393" y="128.3013">button pressed</text><path d="M712,111.2344 L712,136.3672 L851,136.3672 L851,121.2344 L841,111.2344 L712,111.2344 " fill="#FEFFDD" style="stroke:#333333;stroke-width:0.5;"/><path d="M841,111.2344 L841,121.2344 L851,121.2344 L841,111.2344 " fill="#FEFFDD" style="stroke:#333333;stroke-width:0.5;"/><text fill="#333333" font-family="sans-serif" font-size="13" font-weight="bold" lengthAdjust="spacing" textLength="118" x="718" y="128.3013">button released</text><line style="stroke:#333333;stroke-width:0.5;" x1="10" x2="1167" y1="145.3672" y2="145.3672"/><text fill="#333333" font-family="sans-serif" font-size="14" font-weight="bold" lengthAdjust="spacing" textLength="117" x="15" y="182.7803">sampled signal</text><line style="stroke:#006400;stroke-width:2.0;" x1="137" x2="137" y1="202.5" y2="202.5"/><line style="stroke:#006400;stroke-width:2.0;" x1="137" x2="387" y1="202.5" y2="202.5"/><line style="stroke:#006400;stroke-width:2.0;" x1="387" x2="387" y1="188.5" y2="202.5"/><line style="stroke:#006400;stroke-width:2.0;" x1="387" x2="712" y1="188.5" y2="188.5"/><line style="stroke:#006400;stroke-width:2.0;" x1="712" x2="712" y1="188.5" y2="202.5"/><line style="stroke:#006400;stroke-width:2.0;" x1="712" x2="1162" y1="202.5" y2="202.5"/><path d="M137,153.3672 L137,178.5 L241,178.5 L241,163.3672 L231,153.3672 L137,153.3672 " fill="#FEFFDD" style="stroke:#333333;stroke-width:0.5;"/><path d="M231,153.3672 L231,163.3672 L241,163.3672 L231,153.3672 " fill="#FEFFDD" style="stroke:#333333;stroke-width:0.5;"/><text fill="#333333" font-family="sans-serif" font-size="13" font-weight="bold" lengthAdjust="spacing" textLength="83" x="143" y="170.4341">debounced</text><line style="stroke:#00008B;stroke-width:1.5;" x1="387" x2="387" y1="88.2344" y2="188.5"/><polygon fill="#00008B" points="384.2638,180.9825,389.7362,180.9825,387,188.5" style="stroke:#00008B;stroke-width:1.5;"/><text fill="#00008B" font-family="Serif" font-size="14" lengthAdjust="spacing" textLength="144" x="387" y="177.6807">rising edge detected</text><line style="stroke:#00008B;stroke-width:1.5;" x1="712" x2="712" y1="88.2344" y2="188.5"/><polygon fill="#00008B" points="709.2638,180.9825,714.7362,180.9825,712,188.5" style="stroke:#00008B;stroke-width:1.5;"/><text fill="#00008B" font-family="Serif" font-size="14" lengthAdjust="spacing" textLength="147" x="712" y="177.6807">falling edge detected</text><line style="stroke:#333333;stroke-width:2.0;stroke-dasharray:4.0,4.0;" x1="387" x2="387" y1="47.2969" y2="210.5"/><line style="stroke:#333333;stroke-width:2.0;stroke-dasharray:4.0,4.0;" x1="637" x2="637" y1="47.2969" y2="210.5"/><text fill="#000000" font-family="sans-serif" font-size="12" lengthAdjust="spacing" textLength="143" x="390" y="60.4355">state changes ignored</text><line style="stroke:#333333;stroke-width:2.0;stroke-dasharray:4.0,4.0;" x1="712" x2="712" y1="47.2969" y2="210.5"/><line style="stroke:#333333;stroke-width:2.0;stroke-dasharray:4.0,4.0;" x1="962" x2="962" y1="47.2969" y2="210.5"/><text fill="#000000" font-family="sans-serif" font-size="12" lengthAdjust="spacing" textLength="143" x="715" y="60.4355">state changes ignored</text><text fill="#000000" font-family="sans-serif" font-size="14" lengthAdjust="spacing" textLength="176" x="500" y="237.2998">debouncing normal pulse</text><!--SRC=[bP31QiCm38RlVWhHQzVH30fZZ152NiI9bKJWsCPIjfQnTv_SB6KmTkZ164d_BtsIa7W4XrrSGazXXEu2AR8Sy1s3m41UC6lUz3O9nV1R6cAUhOUqU4OpaKCGcl5WpyI6UwjzAx0CJwSZ93gZPzDHiFa2EqSZYLeff4LsHTJUQcpdvD41qnYilnORO-gZQO4OVFmm8OgEYWdY00syR4ZeJBD9wdsrwZyrUfXedBvMMnT5uboShJgxHQC0AIEpsjjwVuJNmnle__XSwZ-hQY_DbbcPkAoERYnN4-n5VQM_roUWVecmhrJ9OdLUFzam8eCk4_D6MFJcEcE5lCMdEw0pUhHNwerjiDx_XVj_gNknryFUg3Ny1W00]--></g></svg>