<?xml version="1.0" encoding="UTF-8" standalone="no"?>
<!DOCTYPE svg PUBLIC "-//W3C//DTD SVG 1.1//EN"
 "http://www.w3.org/Graphics/SVG/1.1/DTD/svg11.dtd">
<!-- Generated by graphviz version 2.43.0 (0)
 -->
<!-- Title: lib/application_business_rules/user_interaction/ProcessHmiInputs.cpp Pages: 1 -->
<svg width="1082pt" height="229pt"
 viewBox="0.00 0.00 1082.00 229.00" xmlns="http://www.w3.org/2000/svg" xmlns:xlink="http://www.w3.org/1999/xlink">
<g id="graph0" class="graph" transform="scale(1 1) rotate(0) translate(4 225)">
<title>lib/application_business_rules/user_interaction/ProcessHmiInputs.cpp</title>
<polygon fill="white" stroke="transparent" points="-4,4 -4,-225 1078,-225 1078,4 -4,4"/>
<!-- Node1 -->
<g id="node1" class="node">
<title>Node1</title>
<g id="a_node1"><a xlink:title=" ">
<polygon fill="#bfbfbf" stroke="black" points="402.5,-179.5 402.5,-220.5 536.5,-220.5 536.5,-179.5 402.5,-179.5"/>
<text text-anchor="start" x="410.5" y="-208.5" font-family="Helvetica,sans-Serif" font-size="10.00">lib/application_business</text>
<text text-anchor="start" x="410.5" y="-197.5" font-family="Helvetica,sans-Serif" font-size="10.00">_rules/user_interaction</text>
<text text-anchor="middle" x="469.5" y="-186.5" font-family="Helvetica,sans-Serif" font-size="10.00">/ProcessHmiInputs.cpp</text>
</a>
</g>
</g>
<!-- Node2 -->
<g id="node2" class="node">
<title>Node2</title>
<g id="a_node2"><a xlink:href="ProcessHmiInputs_8hpp.xhtml" target="_top" xlink:title=" ">
<polygon fill="white" stroke="black" points="0,-118 0,-137 125,-137 125,-118 0,-118"/>
<text text-anchor="middle" x="62.5" y="-125" font-family="Helvetica,sans-Serif" font-size="10.00">ProcessHmiInputs.hpp</text>
</a>
</g>
</g>
<!-- Node1&#45;&gt;Node2 -->
<g id="edge1" class="edge">
<title>Node1&#45;&gt;Node2</title>
<path fill="none" stroke="midnightblue" d="M402.44,-188.56C334.53,-177.81 226.54,-160.25 133.5,-143 126.85,-141.77 119.86,-140.41 112.97,-139.04"/>
<polygon fill="midnightblue" stroke="midnightblue" points="113.49,-135.58 103,-137.04 112.11,-142.44 113.49,-135.58"/>
</g>
<!-- Node5 -->
<g id="node5" class="node">
<title>Node5</title>
<g id="a_node5"><a xlink:href="IKeypad_8hpp.xhtml" target="_top" xlink:title=" ">
<polygon fill="white" stroke="black" points="143,-118 143,-137 220,-137 220,-118 143,-118"/>
<text text-anchor="middle" x="181.5" y="-125" font-family="Helvetica,sans-Serif" font-size="10.00">IKeypad.hpp</text>
</a>
</g>
</g>
<!-- Node1&#45;&gt;Node5 -->
<g id="edge4" class="edge">
<title>Node1&#45;&gt;Node5</title>
<path fill="none" stroke="midnightblue" d="M402.49,-184.57C354.19,-173.88 287.57,-158.53 229.5,-143 225.88,-142.03 222.12,-140.98 218.37,-139.9"/>
<polygon fill="midnightblue" stroke="midnightblue" points="219.16,-136.48 208.58,-137.01 217.18,-143.2 219.16,-136.48"/>
</g>
<!-- Node6 -->
<g id="node6" class="node">
<title>Node6</title>
<g id="a_node6"><a xlink:title=" ">
<polygon fill="white" stroke="#bfbfbf" points="213,-56.5 213,-75.5 278,-75.5 278,-56.5 213,-56.5"/>
<text text-anchor="middle" x="245.5" y="-63.5" font-family="Helvetica,sans-Serif" font-size="10.00">functional</text>
</a>
</g>
</g>
<!-- Node1&#45;&gt;Node6 -->
<g id="edge17" class="edge">
<title>Node1&#45;&gt;Node6</title>
<path fill="none" stroke="midnightblue" d="M444.83,-179.36C431.4,-168.65 414.51,-155.13 399.5,-143 382.55,-129.3 380.34,-122.97 361.5,-112 337.16,-97.83 307.53,-86.42 284.3,-78.64"/>
<polygon fill="midnightblue" stroke="midnightblue" points="285.37,-75.3 274.78,-75.53 283.2,-81.96 285.37,-75.3"/>
</g>
<!-- Node7 -->
<g id="node7" class="node">
<title>Node7</title>
<g id="a_node7"><a xlink:href="Presenter_8hpp.xhtml" target="_top" xlink:title=" ">
<polygon fill="white" stroke="black" points="696,-118 696,-137 779,-137 779,-118 696,-118"/>
<text text-anchor="middle" x="737.5" y="-125" font-family="Helvetica,sans-Serif" font-size="10.00">Presenter.hpp</text>
</a>
</g>
</g>
<!-- Node1&#45;&gt;Node7 -->
<g id="edge7" class="edge">
<title>Node1&#45;&gt;Node7</title>
<path fill="none" stroke="midnightblue" d="M536.78,-181.3C586.59,-168.2 652.91,-150.75 695.42,-139.57"/>
<polygon fill="midnightblue" stroke="midnightblue" points="696.38,-142.94 705.16,-137.01 694.6,-136.17 696.38,-142.94"/>
</g>
<!-- Node13 -->
<g id="node13" class="node">
<title>Node13</title>
<g id="a_node13"><a xlink:href="board__interface_8hpp.xhtml" target="_top" xlink:title=" ">
<polygon fill="white" stroke="black" points="238.5,-118 238.5,-137 352.5,-137 352.5,-118 238.5,-118"/>
<text text-anchor="middle" x="295.5" y="-125" font-family="Helvetica,sans-Serif" font-size="10.00">board_interface.hpp</text>
</a>
</g>
</g>
<!-- Node1&#45;&gt;Node13 -->
<g id="edge13" class="edge">
<title>Node1&#45;&gt;Node13</title>
<path fill="none" stroke="midnightblue" d="M421.03,-179.36C390.71,-167.08 352.58,-151.63 326.34,-140.99"/>
<polygon fill="midnightblue" stroke="midnightblue" points="327.49,-137.68 316.91,-137.17 324.86,-144.17 327.49,-137.68"/>
</g>
<!-- Node15 -->
<g id="node15" class="node">
<title>Node15</title>
<g id="a_node15"><a xlink:href="serial__port_8hpp.xhtml" target="_top" xlink:title=" ">
<polygon fill="white" stroke="black" points="408.5,-112.5 408.5,-142.5 530.5,-142.5 530.5,-112.5 408.5,-112.5"/>
<text text-anchor="start" x="416.5" y="-130.5" font-family="Helvetica,sans-Serif" font-size="10.00">serial_interface/serial</text>
<text text-anchor="middle" x="469.5" y="-119.5" font-family="Helvetica,sans-Serif" font-size="10.00">_port.hpp</text>
</a>
</g>
</g>
<!-- Node1&#45;&gt;Node15 -->
<g id="edge18" class="edge">
<title>Node1&#45;&gt;Node15</title>
<path fill="none" stroke="midnightblue" d="M469.5,-179.36C469.5,-171.23 469.5,-161.7 469.5,-153.11"/>
<polygon fill="midnightblue" stroke="midnightblue" points="473,-152.89 469.5,-142.89 466,-152.89 473,-152.89"/>
</g>
<!-- Node19 -->
<g id="node19" class="node">
<title>Node19</title>
<g id="a_node19"><a xlink:title=" ">
<polygon fill="white" stroke="#bfbfbf" points="797,-118 797,-137 862,-137 862,-118 797,-118"/>
<text text-anchor="middle" x="829.5" y="-125" font-family="Helvetica,sans-Serif" font-size="10.00">stdexcept</text>
</a>
</g>
</g>
<!-- Node1&#45;&gt;Node19 -->
<g id="edge24" class="edge">
<title>Node1&#45;&gt;Node19</title>
<path fill="none" stroke="midnightblue" d="M536.79,-190.5C601.84,-181.51 702.84,-165.5 788.5,-143 791.54,-142.2 794.68,-141.28 797.8,-140.29"/>
<polygon fill="midnightblue" stroke="midnightblue" points="799.22,-143.51 807.58,-137.01 796.99,-136.87 799.22,-143.51"/>
</g>
<!-- Node20 -->
<g id="node20" class="node">
<title>Node20</title>
<g id="a_node20"><a xlink:href="Task_8hpp.xhtml" target="_top" xlink:title=" ">
<polygon fill="white" stroke="black" points="549,-118 549,-137 638,-137 638,-118 549,-118"/>
<text text-anchor="middle" x="593.5" y="-125" font-family="Helvetica,sans-Serif" font-size="10.00">tasks/Task.hpp</text>
</a>
</g>
</g>
<!-- Node1&#45;&gt;Node20 -->
<g id="edge25" class="edge">
<title>Node1&#45;&gt;Node20</title>
<path fill="none" stroke="midnightblue" d="M504.04,-179.36C524.88,-167.51 550.92,-152.71 569.52,-142.14"/>
<polygon fill="midnightblue" stroke="midnightblue" points="571.28,-145.16 578.24,-137.17 567.82,-139.07 571.28,-145.16"/>
</g>
<!-- Node22 -->
<g id="node22" class="node">
<title>Node22</title>
<g id="a_node22"><a xlink:href="type__traits_8hpp.xhtml" target="_top" xlink:title=" ">
<polygon fill="white" stroke="black" points="917.5,-118 917.5,-137 1007.5,-137 1007.5,-118 917.5,-118"/>
<text text-anchor="middle" x="962.5" y="-125" font-family="Helvetica,sans-Serif" font-size="10.00">type_traits.hpp</text>
</a>
</g>
</g>
<!-- Node1&#45;&gt;Node22 -->
<g id="edge29" class="edge">
<title>Node1&#45;&gt;Node22</title>
<path fill="none" stroke="midnightblue" d="M536.77,-190.04C616.66,-179.3 753.89,-160.56 871.5,-143 883,-141.28 895.31,-139.37 907.04,-137.51"/>
<polygon fill="midnightblue" stroke="midnightblue" points="907.84,-140.93 917.17,-135.9 906.74,-134.02 907.84,-140.93"/>
</g>
<!-- Node3 -->
<g id="node3" class="node">
<title>Node3</title>
<g id="a_node3"><a xlink:href="KeyIds_8hpp.xhtml" target="_top" xlink:title=" ">
<polygon fill="white" stroke="black" points="124.5,-56.5 124.5,-75.5 194.5,-75.5 194.5,-56.5 124.5,-56.5"/>
<text text-anchor="middle" x="159.5" y="-63.5" font-family="Helvetica,sans-Serif" font-size="10.00">KeyIds.hpp</text>
</a>
</g>
</g>
<!-- Node2&#45;&gt;Node3 -->
<g id="edge2" class="edge">
<title>Node2&#45;&gt;Node3</title>
<path fill="none" stroke="midnightblue" d="M76.4,-117.98C92.17,-108.3 118.14,-92.37 136.85,-80.89"/>
<polygon fill="midnightblue" stroke="midnightblue" points="138.93,-83.72 145.63,-75.51 135.27,-77.75 138.93,-83.72"/>
</g>
<!-- Node4 -->
<g id="node4" class="node">
<title>Node4</title>
<g id="a_node4"><a xlink:title=" ">
<polygon fill="white" stroke="#bfbfbf" points="205,-0.5 205,-19.5 262,-19.5 262,-0.5 205,-0.5"/>
<text text-anchor="middle" x="233.5" y="-7.5" font-family="Helvetica,sans-Serif" font-size="10.00">ostream</text>
</a>
</g>
</g>
<!-- Node3&#45;&gt;Node4 -->
<g id="edge3" class="edge">
<title>Node3&#45;&gt;Node4</title>
<path fill="none" stroke="midnightblue" d="M171.39,-56.32C182.65,-48.11 199.79,-35.6 213.21,-25.81"/>
<polygon fill="midnightblue" stroke="midnightblue" points="215.38,-28.56 221.39,-19.83 211.25,-22.9 215.38,-28.56"/>
</g>
<!-- Node5&#45;&gt;Node3 -->
<g id="edge5" class="edge">
<title>Node5&#45;&gt;Node3</title>
<path fill="none" stroke="midnightblue" d="M178.35,-117.98C175.18,-109.4 170.2,-95.93 166.15,-84.98"/>
<polygon fill="midnightblue" stroke="midnightblue" points="169.4,-83.67 162.65,-75.51 162.83,-86.1 169.4,-83.67"/>
</g>
<!-- Node5&#45;&gt;Node6 -->
<g id="edge6" class="edge">
<title>Node5&#45;&gt;Node6</title>
<path fill="none" stroke="midnightblue" d="M190.67,-117.98C200.65,-108.7 216.81,-93.67 229.01,-82.33"/>
<polygon fill="midnightblue" stroke="midnightblue" points="231.41,-84.88 236.35,-75.51 226.64,-79.75 231.41,-84.88"/>
</g>
<!-- Node8 -->
<g id="node8" class="node">
<title>Node8</title>
<g id="a_node8"><a xlink:href="IStatusIndicator_8hpp.xhtml" target="_top" xlink:title=" ">
<polygon fill="white" stroke="black" points="720,-56.5 720,-75.5 833,-75.5 833,-56.5 720,-56.5"/>
<text text-anchor="middle" x="776.5" y="-63.5" font-family="Helvetica,sans-Serif" font-size="10.00">IStatusIndicator.hpp</text>
</a>
</g>
</g>
<!-- Node7&#45;&gt;Node8 -->
<g id="edge8" class="edge">
<title>Node7&#45;&gt;Node8</title>
<path fill="none" stroke="midnightblue" d="M743.09,-117.98C748.88,-109.14 758.09,-95.09 765.37,-83.98"/>
<polygon fill="midnightblue" stroke="midnightblue" points="768.37,-85.79 770.92,-75.51 762.51,-81.95 768.37,-85.79"/>
</g>
<!-- Node9 -->
<g id="node9" class="node">
<title>Node9</title>
<g id="a_node9"><a xlink:href="Menu_8hpp.xhtml" target="_top" xlink:title=" ">
<polygon fill="white" stroke="black" points="851,-56.5 851,-75.5 916,-75.5 916,-56.5 851,-56.5"/>
<text text-anchor="middle" x="883.5" y="-63.5" font-family="Helvetica,sans-Serif" font-size="10.00">Menu.hpp</text>
</a>
</g>
</g>
<!-- Node7&#45;&gt;Node9 -->
<g id="edge9" class="edge">
<title>Node7&#45;&gt;Node9</title>
<path fill="none" stroke="midnightblue" d="M758.42,-117.98C783.25,-107.86 824.84,-90.9 853.19,-79.35"/>
<polygon fill="midnightblue" stroke="midnightblue" points="854.68,-82.52 862.62,-75.51 852.04,-76.04 854.68,-82.52"/>
</g>
<!-- Node11 -->
<g id="node11" class="node">
<title>Node11</title>
<g id="a_node11"><a xlink:title=" ">
<polygon fill="white" stroke="#bfbfbf" points="934,-56.5 934,-75.5 987,-75.5 987,-56.5 934,-56.5"/>
<text text-anchor="middle" x="960.5" y="-63.5" font-family="Helvetica,sans-Serif" font-size="10.00">cstddef</text>
</a>
</g>
</g>
<!-- Node7&#45;&gt;Node11 -->
<g id="edge11" class="edge">
<title>Node7&#45;&gt;Node11</title>
<path fill="none" stroke="midnightblue" d="M767.14,-117.96C774.13,-115.98 781.57,-113.89 788.5,-112 813.86,-105.08 881.63,-87.44 924.14,-76.42"/>
<polygon fill="midnightblue" stroke="midnightblue" points="925.04,-79.8 933.84,-73.9 923.28,-73.02 925.04,-79.8"/>
</g>
<!-- Node12 -->
<g id="node12" class="node">
<title>Node12</title>
<g id="a_node12"><a xlink:title=" ">
<polygon fill="white" stroke="#bfbfbf" points="655,-56.5 655,-75.5 702,-75.5 702,-56.5 655,-56.5"/>
<text text-anchor="middle" x="678.5" y="-63.5" font-family="Helvetica,sans-Serif" font-size="10.00">vector</text>
</a>
</g>
</g>
<!-- Node7&#45;&gt;Node12 -->
<g id="edge12" class="edge">
<title>Node7&#45;&gt;Node12</title>
<path fill="none" stroke="midnightblue" d="M729.05,-117.98C719.93,-108.78 705.23,-93.96 694.02,-82.66"/>
<polygon fill="midnightblue" stroke="midnightblue" points="696.46,-80.15 686.94,-75.51 691.49,-85.07 696.46,-80.15"/>
</g>
<!-- Node10 -->
<g id="node10" class="node">
<title>Node10</title>
<g id="a_node10"><a xlink:href="IDisplay_8hpp.xhtml" target="_top" xlink:title=" ">
<polygon fill="white" stroke="black" points="845.5,-0.5 845.5,-19.5 921.5,-19.5 921.5,-0.5 845.5,-0.5"/>
<text text-anchor="middle" x="883.5" y="-7.5" font-family="Helvetica,sans-Serif" font-size="10.00">IDisplay.hpp</text>
</a>
</g>
</g>
<!-- Node9&#45;&gt;Node10 -->
<g id="edge10" class="edge">
<title>Node9&#45;&gt;Node10</title>
<path fill="none" stroke="midnightblue" d="M883.5,-56.08C883.5,-49.01 883.5,-38.86 883.5,-29.99"/>
<polygon fill="midnightblue" stroke="midnightblue" points="887,-29.75 883.5,-19.75 880,-29.75 887,-29.75"/>
</g>
<!-- Node13&#45;&gt;Node3 -->
<g id="edge14" class="edge">
<title>Node13&#45;&gt;Node3</title>
<path fill="none" stroke="midnightblue" d="M276.01,-117.98C253.09,-107.95 214.81,-91.2 188.42,-79.65"/>
<polygon fill="midnightblue" stroke="midnightblue" points="189.51,-76.31 178.95,-75.51 186.71,-82.72 189.51,-76.31"/>
</g>
<!-- Node13&#45;&gt;Node6 -->
<g id="edge16" class="edge">
<title>Node13&#45;&gt;Node6</title>
<path fill="none" stroke="midnightblue" d="M288.34,-117.98C280.76,-108.96 268.63,-94.52 259.21,-83.31"/>
<polygon fill="midnightblue" stroke="midnightblue" points="261.76,-80.91 252.65,-75.51 256.4,-85.42 261.76,-80.91"/>
</g>
<!-- Node14 -->
<g id="node14" class="node">
<title>Node14</title>
<g id="a_node14"><a xlink:title=" ">
<polygon fill="white" stroke="#bfbfbf" points="394.5,-56.5 394.5,-75.5 444.5,-75.5 444.5,-56.5 394.5,-56.5"/>
<text text-anchor="middle" x="419.5" y="-63.5" font-family="Helvetica,sans-Serif" font-size="10.00">chrono</text>
</a>
</g>
</g>
<!-- Node13&#45;&gt;Node14 -->
<g id="edge15" class="edge">
<title>Node13&#45;&gt;Node14</title>
<path fill="none" stroke="midnightblue" d="M313.27,-117.98C333.98,-108.03 368.45,-91.49 392.49,-79.96"/>
<polygon fill="midnightblue" stroke="midnightblue" points="394.27,-82.99 401.77,-75.51 391.24,-76.68 394.27,-82.99"/>
</g>
<!-- Node15&#45;&gt;Node4 -->
<g id="edge22" class="edge">
<title>Node15&#45;&gt;Node4</title>
<path fill="none" stroke="midnightblue" d="M418.76,-112.5C390.51,-103.77 355.17,-91.3 325.5,-76 298.02,-61.82 269.38,-40.36 251.51,-26.02"/>
<polygon fill="midnightblue" stroke="midnightblue" points="253.61,-23.22 243.65,-19.62 249.19,-28.65 253.61,-23.22"/>
</g>
<!-- Node15&#45;&gt;Node6 -->
<g id="edge20" class="edge">
<title>Node15&#45;&gt;Node6</title>
<path fill="none" stroke="midnightblue" d="M416.7,-112.47C377.21,-101.99 323.94,-87.84 287.37,-78.12"/>
<polygon fill="midnightblue" stroke="midnightblue" points="288.09,-74.69 277.52,-75.51 286.29,-81.46 288.09,-74.69"/>
</g>
<!-- Node16 -->
<g id="node16" class="node">
<title>Node16</title>
<g id="a_node16"><a xlink:title=" ">
<polygon fill="white" stroke="#bfbfbf" points="334.5,-56.5 334.5,-75.5 376.5,-75.5 376.5,-56.5 334.5,-56.5"/>
<text text-anchor="middle" x="355.5" y="-63.5" font-family="Helvetica,sans-Serif" font-size="10.00">array</text>
</a>
</g>
</g>
<!-- Node15&#45;&gt;Node16 -->
<g id="edge19" class="edge">
<title>Node15&#45;&gt;Node16</title>
<path fill="none" stroke="midnightblue" d="M442.48,-112.4C423.87,-102.68 399.29,-89.86 381.01,-80.31"/>
<polygon fill="midnightblue" stroke="midnightblue" points="382.57,-77.18 372.09,-75.66 379.33,-83.39 382.57,-77.18"/>
</g>
<!-- Node17 -->
<g id="node17" class="node">
<title>Node17</title>
<g id="a_node17"><a xlink:title=" ">
<polygon fill="white" stroke="#bfbfbf" points="462.5,-56.5 462.5,-75.5 518.5,-75.5 518.5,-56.5 462.5,-56.5"/>
<text text-anchor="middle" x="490.5" y="-63.5" font-family="Helvetica,sans-Serif" font-size="10.00">optional</text>
</a>
</g>
</g>
<!-- Node15&#45;&gt;Node17 -->
<g id="edge21" class="edge">
<title>Node15&#45;&gt;Node17</title>
<path fill="none" stroke="midnightblue" d="M474.48,-112.4C477.34,-104.29 480.97,-94.01 484.05,-85.28"/>
<polygon fill="midnightblue" stroke="midnightblue" points="487.42,-86.25 487.44,-75.66 480.82,-83.92 487.42,-86.25"/>
</g>
<!-- Node18 -->
<g id="node18" class="node">
<title>Node18</title>
<g id="a_node18"><a xlink:title=" ">
<polygon fill="white" stroke="#bfbfbf" points="536.5,-56.5 536.5,-75.5 580.5,-75.5 580.5,-56.5 536.5,-56.5"/>
<text text-anchor="middle" x="558.5" y="-63.5" font-family="Helvetica,sans-Serif" font-size="10.00">string</text>
</a>
</g>
</g>
<!-- Node15&#45;&gt;Node18 -->
<g id="edge23" class="edge">
<title>Node15&#45;&gt;Node18</title>
<path fill="none" stroke="midnightblue" d="M490.59,-112.4C504.59,-103.04 522.91,-90.79 536.99,-81.38"/>
<polygon fill="midnightblue" stroke="midnightblue" points="539.18,-84.13 545.55,-75.66 535.29,-78.31 539.18,-84.13"/>
</g>
<!-- Node20&#45;&gt;Node14 -->
<g id="edge26" class="edge">
<title>Node20&#45;&gt;Node14</title>
<path fill="none" stroke="midnightblue" d="M568.57,-117.98C538.46,-107.68 487.67,-90.31 453.86,-78.75"/>
<polygon fill="midnightblue" stroke="midnightblue" points="454.98,-75.43 444.38,-75.51 452.71,-82.06 454.98,-75.43"/>
</g>
<!-- Node20&#45;&gt;Node18 -->
<g id="edge28" class="edge">
<title>Node20&#45;&gt;Node18</title>
<path fill="none" stroke="midnightblue" d="M588.49,-117.98C583.34,-109.23 575.19,-95.37 568.68,-84.31"/>
<polygon fill="midnightblue" stroke="midnightblue" points="571.59,-82.35 563.51,-75.51 565.56,-85.9 571.59,-82.35"/>
</g>
<!-- Node21 -->
<g id="node21" class="node">
<title>Node21</title>
<g id="a_node21"><a xlink:title=" ">
<polygon fill="white" stroke="#bfbfbf" points="598.5,-56.5 598.5,-75.5 636.5,-75.5 636.5,-56.5 598.5,-56.5"/>
<text text-anchor="middle" x="617.5" y="-63.5" font-family="Helvetica,sans-Serif" font-size="10.00">map</text>
</a>
</g>
</g>
<!-- Node20&#45;&gt;Node21 -->
<g id="edge27" class="edge">
<title>Node20&#45;&gt;Node21</title>
<path fill="none" stroke="midnightblue" d="M596.94,-117.98C600.4,-109.4 605.83,-95.93 610.25,-84.98"/>
<polygon fill="midnightblue" stroke="midnightblue" points="613.57,-86.09 614.07,-75.51 607.08,-83.47 613.57,-86.09"/>
</g>
<!-- Node23 -->
<g id="node23" class="node">
<title>Node23</title>
<g id="a_node23"><a xlink:title=" ">
<polygon fill="white" stroke="#bfbfbf" points="1005,-56.5 1005,-75.5 1074,-75.5 1074,-56.5 1005,-56.5"/>
<text text-anchor="middle" x="1039.5" y="-63.5" font-family="Helvetica,sans-Serif" font-size="10.00">type_traits</text>
</a>
</g>
</g>
<!-- Node22&#45;&gt;Node23 -->
<g id="edge30" class="edge">
<title>Node22&#45;&gt;Node23</title>
<path fill="none" stroke="midnightblue" d="M973.53,-117.98C985.77,-108.52 1005.73,-93.1 1020.49,-81.69"/>
<polygon fill="midnightblue" stroke="midnightblue" points="1022.72,-84.39 1028.49,-75.51 1018.44,-78.85 1022.72,-84.39"/>
</g>
</g>
</svg>
