<?xml version="1.0" encoding="UTF-8" standalone="no"?>
<!DOCTYPE svg PUBLIC "-//W3C//DTD SVG 1.1//EN"
 "http://www.w3.org/Graphics/SVG/1.1/DTD/svg11.dtd">
<!-- Generated by graphviz version 2.43.0 (0)
 -->
<!-- Title: lib/board_adapters/sound_output_interface/sound_output.cpp Pages: 1 -->
<svg width="580pt" height="229pt"
 viewBox="0.00 0.00 579.50 229.00" xmlns="http://www.w3.org/2000/svg" xmlns:xlink="http://www.w3.org/1999/xlink">
<g id="graph0" class="graph" transform="scale(1 1) rotate(0) translate(4 225)">
<title>lib/board_adapters/sound_output_interface/sound_output.cpp</title>
<polygon fill="white" stroke="transparent" points="-4,4 -4,-225 575.5,-225 575.5,4 -4,4"/>
<!-- Node1 -->
<g id="node1" class="node">
<title>Node1</title>
<g id="a_node1"><a xlink:title=" ">
<polygon fill="#bfbfbf" stroke="black" points="166,-179.5 166,-220.5 300,-220.5 300,-179.5 166,-179.5"/>
<text text-anchor="start" x="174" y="-208.5" font-family="Helvetica,sans-Serif" font-size="10.00">lib/board_adapters</text>
<text text-anchor="start" x="174" y="-197.5" font-family="Helvetica,sans-Serif" font-size="10.00">/sound_output_interface</text>
<text text-anchor="middle" x="233" y="-186.5" font-family="Helvetica,sans-Serif" font-size="10.00">/sound_output.cpp</text>
</a>
</g>
</g>
<!-- Node2 -->
<g id="node2" class="node">
<title>Node2</title>
<g id="a_node2"><a xlink:href="sound__output_8hpp.xhtml" target="_top" xlink:title=" ">
<polygon fill="white" stroke="black" points="0,-118 0,-137 104,-137 104,-118 0,-118"/>
<text text-anchor="middle" x="52" y="-125" font-family="Helvetica,sans-Serif" font-size="10.00">sound_output.hpp</text>
</a>
</g>
</g>
<!-- Node1&#45;&gt;Node2 -->
<g id="edge1" class="edge">
<title>Node1&#45;&gt;Node2</title>
<path fill="none" stroke="midnightblue" d="M182.58,-179.36C150.91,-167.02 111.02,-151.49 83.72,-140.85"/>
<polygon fill="midnightblue" stroke="midnightblue" points="84.86,-137.54 74.27,-137.17 82.32,-144.06 84.86,-137.54"/>
</g>
<!-- Node3 -->
<g id="node3" class="node">
<title>Node3</title>
<g id="a_node3"><a xlink:href="Arduino-wrapper_8h.xhtml" target="_top" xlink:title="Circumvents problematic processor macros defined by Arduino framework.">
<polygon fill="white" stroke="black" points="122,-118 122,-137 228,-137 228,-118 122,-118"/>
<text text-anchor="middle" x="175" y="-125" font-family="Helvetica,sans-Serif" font-size="10.00">Arduino&#45;wrapper.h</text>
</a>
</g>
</g>
<!-- Node1&#45;&gt;Node3 -->
<g id="edge2" class="edge">
<title>Node1&#45;&gt;Node3</title>
<path fill="none" stroke="midnightblue" d="M216.84,-179.36C207.94,-168.54 197.01,-155.26 188.56,-144.98"/>
<polygon fill="midnightblue" stroke="midnightblue" points="191.19,-142.67 182.14,-137.17 185.79,-147.12 191.19,-142.67"/>
</g>
<!-- Node5 -->
<g id="node5" class="node">
<title>Node5</title>
<g id="a_node5"><a xlink:href="board__pins_8hpp.xhtml" target="_top" xlink:title="Provides named objects for the pins provided by the board.">
<polygon fill="white" stroke="black" points="246.5,-118 246.5,-137 337.5,-137 337.5,-118 246.5,-118"/>
<text text-anchor="middle" x="292" y="-125" font-family="Helvetica,sans-Serif" font-size="10.00">board_pins.hpp</text>
</a>
</g>
</g>
<!-- Node1&#45;&gt;Node5 -->
<g id="edge4" class="edge">
<title>Node1&#45;&gt;Node5</title>
<path fill="none" stroke="midnightblue" d="M249.43,-179.36C258.49,-168.54 269.61,-155.26 278.21,-144.98"/>
<polygon fill="midnightblue" stroke="midnightblue" points="281.01,-147.09 284.74,-137.17 275.64,-142.6 281.01,-147.09"/>
</g>
<!-- Node8 -->
<g id="node8" class="node">
<title>Node8</title>
<g id="a_node8"><a xlink:href="board__interface_8hpp.xhtml" target="_top" xlink:title=" ">
<polygon fill="white" stroke="black" points="378,-112.5 378,-142.5 504,-142.5 504,-112.5 378,-112.5"/>
<text text-anchor="start" x="386" y="-130.5" font-family="Helvetica,sans-Serif" font-size="10.00">user_interaction/board</text>
<text text-anchor="middle" x="441" y="-119.5" font-family="Helvetica,sans-Serif" font-size="10.00">_interface.hpp</text>
</a>
</g>
</g>
<!-- Node1&#45;&gt;Node8 -->
<g id="edge7" class="edge">
<title>Node1&#45;&gt;Node8</title>
<path fill="none" stroke="midnightblue" d="M290.66,-179.46C321.66,-168.95 359.57,-156.1 389.56,-145.93"/>
<polygon fill="midnightblue" stroke="midnightblue" points="391.06,-149.12 399.41,-142.6 388.82,-142.49 391.06,-149.12"/>
</g>
<!-- Node4 -->
<g id="node4" class="node">
<title>Node4</title>
<g id="a_node4"><a xlink:title=" ">
<polygon fill="white" stroke="#bfbfbf" points="143.5,-56.5 143.5,-75.5 206.5,-75.5 206.5,-56.5 143.5,-56.5"/>
<text text-anchor="middle" x="175" y="-63.5" font-family="Helvetica,sans-Serif" font-size="10.00">Arduino.h</text>
</a>
</g>
</g>
<!-- Node3&#45;&gt;Node4 -->
<g id="edge3" class="edge">
<title>Node3&#45;&gt;Node4</title>
<path fill="none" stroke="midnightblue" d="M175,-117.98C175,-109.58 175,-96.48 175,-85.66"/>
<polygon fill="midnightblue" stroke="midnightblue" points="178.5,-85.51 175,-75.51 171.5,-85.51 178.5,-85.51"/>
</g>
<!-- Node6 -->
<g id="node6" class="node">
<title>Node6</title>
<g id="a_node6"><a xlink:href="board__types_8hpp.xhtml" target="_top" xlink:title=" ">
<polygon fill="white" stroke="black" points="234,-56.5 234,-75.5 332,-75.5 332,-56.5 234,-56.5"/>
<text text-anchor="middle" x="283" y="-63.5" font-family="Helvetica,sans-Serif" font-size="10.00">board_types.hpp</text>
</a>
</g>
</g>
<!-- Node5&#45;&gt;Node6 -->
<g id="edge5" class="edge">
<title>Node5&#45;&gt;Node6</title>
<path fill="none" stroke="midnightblue" d="M290.71,-117.98C289.44,-109.58 287.46,-96.48 285.82,-85.66"/>
<polygon fill="midnightblue" stroke="midnightblue" points="289.24,-84.87 284.29,-75.51 282.32,-85.92 289.24,-84.87"/>
</g>
<!-- Node7 -->
<g id="node7" class="node">
<title>Node7</title>
<g id="a_node7"><a xlink:title=" ">
<polygon fill="white" stroke="#bfbfbf" points="258,-0.5 258,-19.5 308,-19.5 308,-0.5 258,-0.5"/>
<text text-anchor="middle" x="283" y="-7.5" font-family="Helvetica,sans-Serif" font-size="10.00">cstdint</text>
</a>
</g>
</g>
<!-- Node6&#45;&gt;Node7 -->
<g id="edge6" class="edge">
<title>Node6&#45;&gt;Node7</title>
<path fill="none" stroke="midnightblue" d="M283,-56.08C283,-49.01 283,-38.86 283,-29.99"/>
<polygon fill="midnightblue" stroke="midnightblue" points="286.5,-29.75 283,-19.75 279.5,-29.75 286.5,-29.75"/>
</g>
<!-- Node9 -->
<g id="node9" class="node">
<title>Node9</title>
<g id="a_node9"><a xlink:href="KeyIds_8hpp.xhtml" target="_top" xlink:title=" ">
<polygon fill="white" stroke="black" points="350,-56.5 350,-75.5 420,-75.5 420,-56.5 350,-56.5"/>
<text text-anchor="middle" x="385" y="-63.5" font-family="Helvetica,sans-Serif" font-size="10.00">KeyIds.hpp</text>
</a>
</g>
</g>
<!-- Node8&#45;&gt;Node9 -->
<g id="edge8" class="edge">
<title>Node8&#45;&gt;Node9</title>
<path fill="none" stroke="midnightblue" d="M427.73,-112.4C419.42,-103.58 408.7,-92.18 400.08,-83.02"/>
<polygon fill="midnightblue" stroke="midnightblue" points="402.55,-80.54 393.15,-75.66 397.45,-85.34 402.55,-80.54"/>
</g>
<!-- Node11 -->
<g id="node11" class="node">
<title>Node11</title>
<g id="a_node11"><a xlink:title=" ">
<polygon fill="white" stroke="#bfbfbf" points="438,-56.5 438,-75.5 488,-75.5 488,-56.5 438,-56.5"/>
<text text-anchor="middle" x="463" y="-63.5" font-family="Helvetica,sans-Serif" font-size="10.00">chrono</text>
</a>
</g>
</g>
<!-- Node8&#45;&gt;Node11 -->
<g id="edge10" class="edge">
<title>Node8&#45;&gt;Node11</title>
<path fill="none" stroke="midnightblue" d="M446.21,-112.4C449.21,-104.29 453.01,-94.01 456.24,-85.28"/>
<polygon fill="midnightblue" stroke="midnightblue" points="459.61,-86.25 459.8,-75.66 453.05,-83.82 459.61,-86.25"/>
</g>
<!-- Node12 -->
<g id="node12" class="node">
<title>Node12</title>
<g id="a_node12"><a xlink:title=" ">
<polygon fill="white" stroke="#bfbfbf" points="506.5,-56.5 506.5,-75.5 571.5,-75.5 571.5,-56.5 506.5,-56.5"/>
<text text-anchor="middle" x="539" y="-63.5" font-family="Helvetica,sans-Serif" font-size="10.00">functional</text>
</a>
</g>
</g>
<!-- Node8&#45;&gt;Node12 -->
<g id="edge11" class="edge">
<title>Node8&#45;&gt;Node12</title>
<path fill="none" stroke="midnightblue" d="M464.22,-112.4C479.79,-102.95 500.2,-90.56 515.76,-81.11"/>
<polygon fill="midnightblue" stroke="midnightblue" points="518.01,-83.84 524.74,-75.66 514.38,-77.86 518.01,-83.84"/>
</g>
<!-- Node10 -->
<g id="node10" class="node">
<title>Node10</title>
<g id="a_node10"><a xlink:title=" ">
<polygon fill="white" stroke="#bfbfbf" points="356.5,-0.5 356.5,-19.5 413.5,-19.5 413.5,-0.5 356.5,-0.5"/>
<text text-anchor="middle" x="385" y="-7.5" font-family="Helvetica,sans-Serif" font-size="10.00">ostream</text>
</a>
</g>
</g>
<!-- Node9&#45;&gt;Node10 -->
<g id="edge9" class="edge">
<title>Node9&#45;&gt;Node10</title>
<path fill="none" stroke="midnightblue" d="M385,-56.08C385,-49.01 385,-38.86 385,-29.99"/>
<polygon fill="midnightblue" stroke="midnightblue" points="388.5,-29.75 385,-19.75 381.5,-29.75 388.5,-29.75"/>
</g>
</g>
</svg>
