<?xml version="1.0" encoding="UTF-8" standalone="no"?>
<!DOCTYPE svg PUBLIC "-//W3C//DTD SVG 1.1//EN"
 "http://www.w3.org/Graphics/SVG/1.1/DTD/svg11.dtd">
<!-- Generated by graphviz version 2.43.0 (0)
 -->
<!-- Title: lib/board_adapters/status_indicators/status_indicators.cpp Pages: 1 -->
<svg width="265pt" height="229pt"
 viewBox="0.00 0.00 264.50 229.00" xmlns="http://www.w3.org/2000/svg" xmlns:xlink="http://www.w3.org/1999/xlink">
<g id="graph0" class="graph" transform="scale(1 1) rotate(0) translate(4 225)">
<title>lib/board_adapters/status_indicators/status_indicators.cpp</title>
<polygon fill="white" stroke="transparent" points="-4,4 -4,-225 260.5,-225 260.5,4 -4,4"/>
<!-- Node1 -->
<g id="node1" class="node">
<title>Node1</title>
<g id="a_node1"><a xlink:title=" ">
<polygon fill="#bfbfbf" stroke="black" points="102,-179.5 102,-220.5 238,-220.5 238,-179.5 102,-179.5"/>
<text text-anchor="start" x="110" y="-208.5" font-family="Helvetica,sans-Serif" font-size="10.00">lib/board_adapters</text>
<text text-anchor="start" x="110" y="-197.5" font-family="Helvetica,sans-Serif" font-size="10.00">/status_indicators/status</text>
<text text-anchor="middle" x="170" y="-186.5" font-family="Helvetica,sans-Serif" font-size="10.00">_indicators.cpp</text>
</a>
</g>
</g>
<!-- Node2 -->
<g id="node2" class="node">
<title>Node2</title>
<g id="a_node2"><a xlink:href="status__indicators_8hpp.xhtml" target="_top" xlink:title=" ">
<polygon fill="white" stroke="black" points="54.5,-123.5 54.5,-142.5 175.5,-142.5 175.5,-123.5 54.5,-123.5"/>
<text text-anchor="middle" x="115" y="-130.5" font-family="Helvetica,sans-Serif" font-size="10.00">status_indicators.hpp</text>
</a>
</g>
</g>
<!-- Node1&#45;&gt;Node2 -->
<g id="edge1" class="edge">
<title>Node1&#45;&gt;Node2</title>
<path fill="none" stroke="midnightblue" d="M153.5,-179.5C145.63,-170.2 136.33,-159.21 128.84,-150.36"/>
<polygon fill="midnightblue" stroke="midnightblue" points="131.45,-148.03 122.32,-142.65 126.11,-152.55 131.45,-148.03"/>
</g>
<!-- Node6 -->
<g id="node6" class="node">
<title>Node6</title>
<g id="a_node6"><a xlink:title=" ">
<polygon fill="white" stroke="#bfbfbf" points="193.5,-123.5 193.5,-142.5 256.5,-142.5 256.5,-123.5 193.5,-123.5"/>
<text text-anchor="middle" x="225" y="-130.5" font-family="Helvetica,sans-Serif" font-size="10.00">Arduino.h</text>
</a>
</g>
</g>
<!-- Node1&#45;&gt;Node6 -->
<g id="edge5" class="edge">
<title>Node1&#45;&gt;Node6</title>
<path fill="none" stroke="midnightblue" d="M186.5,-179.5C194.37,-170.2 203.67,-159.21 211.16,-150.36"/>
<polygon fill="midnightblue" stroke="midnightblue" points="213.89,-152.55 217.68,-142.65 208.55,-148.03 213.89,-152.55"/>
</g>
<!-- Node3 -->
<g id="node3" class="node">
<title>Node3</title>
<g id="a_node3"><a xlink:href="board__types_8hpp.xhtml" target="_top" xlink:title=" ">
<polygon fill="white" stroke="black" points="0,-62 0,-81 98,-81 98,-62 0,-62"/>
<text text-anchor="middle" x="49" y="-69" font-family="Helvetica,sans-Serif" font-size="10.00">board_types.hpp</text>
</a>
</g>
</g>
<!-- Node2&#45;&gt;Node3 -->
<g id="edge2" class="edge">
<title>Node2&#45;&gt;Node3</title>
<path fill="none" stroke="midnightblue" d="M105.54,-123.48C95.25,-114.2 78.58,-99.17 66.01,-87.83"/>
<polygon fill="midnightblue" stroke="midnightblue" points="68.21,-85.11 58.44,-81.01 63.52,-90.3 68.21,-85.11"/>
</g>
<!-- Node5 -->
<g id="node5" class="node">
<title>Node5</title>
<g id="a_node5"><a xlink:href="IStatusIndicator_8hpp.xhtml" target="_top" xlink:title=" ">
<polygon fill="white" stroke="black" points="116,-56.5 116,-86.5 248,-86.5 248,-56.5 116,-56.5"/>
<text text-anchor="start" x="124" y="-74.5" font-family="Helvetica,sans-Serif" font-size="10.00">user_interaction/IStatus</text>
<text text-anchor="middle" x="182" y="-63.5" font-family="Helvetica,sans-Serif" font-size="10.00">Indicator.hpp</text>
</a>
</g>
</g>
<!-- Node2&#45;&gt;Node5 -->
<g id="edge4" class="edge">
<title>Node2&#45;&gt;Node5</title>
<path fill="none" stroke="midnightblue" d="M124.6,-123.48C133.42,-115.64 146.85,-103.71 158.5,-93.37"/>
<polygon fill="midnightblue" stroke="midnightblue" points="161.06,-95.78 166.21,-86.52 156.41,-90.55 161.06,-95.78"/>
</g>
<!-- Node4 -->
<g id="node4" class="node">
<title>Node4</title>
<g id="a_node4"><a xlink:title=" ">
<polygon fill="white" stroke="#bfbfbf" points="24,-0.5 24,-19.5 74,-19.5 74,-0.5 24,-0.5"/>
<text text-anchor="middle" x="49" y="-7.5" font-family="Helvetica,sans-Serif" font-size="10.00">cstdint</text>
</a>
</g>
</g>
<!-- Node3&#45;&gt;Node4 -->
<g id="edge3" class="edge">
<title>Node3&#45;&gt;Node4</title>
<path fill="none" stroke="midnightblue" d="M49,-61.98C49,-53.58 49,-40.48 49,-29.66"/>
<polygon fill="midnightblue" stroke="midnightblue" points="52.5,-29.51 49,-19.51 45.5,-29.51 52.5,-29.51"/>
</g>
</g>
</svg>
