<?xml version="1.0" encoding="UTF-8" standalone="no"?>
<!DOCTYPE svg PUBLIC "-//W3C//DTD SVG 1.1//EN"
 "http://www.w3.org/Graphics/SVG/1.1/DTD/svg11.dtd">
<!-- Generated by graphviz version 2.43.0 (0)
 -->
<!-- Title: command_line_interpreter::BaseCommand&lt; CharType &gt; Pages: 1 -->
<svg width="180pt" height="215pt"
 viewBox="0.00 0.00 180.00 215.00" xmlns="http://www.w3.org/2000/svg" xmlns:xlink="http://www.w3.org/1999/xlink">
<g id="graph0" class="graph" transform="scale(1 1) rotate(0) translate(4 211)">
<title>command_line_interpreter::BaseCommand&lt; CharType &gt;</title>
<polygon fill="white" stroke="transparent" points="-4,4 -4,-211 176,-211 176,4 -4,4"/>
<!-- Node1 -->
<g id="node1" class="node">
<title>Node1</title>
<g id="a_node1"><a xlink:title="Interface for all Command.">
<polygon fill="#bfbfbf" stroke="black" points="0,-0.5 0,-101.5 164,-101.5 164,-0.5 0,-0.5"/>
<text text-anchor="start" x="8" y="-89.5" font-family="Helvetica,sans-Serif" font-size="10.00">command_line_interpreter</text>
<text text-anchor="middle" x="82" y="-78.5" font-family="Helvetica,sans-Serif" font-size="10.00">::BaseCommand&lt; CharType &gt;</text>
<polyline fill="none" stroke="black" points="0,-71.5 164,-71.5 "/>
<text text-anchor="middle" x="82" y="-59.5" font-family="Helvetica,sans-Serif" font-size="10.00"> </text>
<polyline fill="none" stroke="black" points="0,-52.5 164,-52.5 "/>
<text text-anchor="start" x="8" y="-40.5" font-family="Helvetica,sans-Serif" font-size="10.00">+ BaseCommand()</text>
<text text-anchor="start" x="8" y="-29.5" font-family="Helvetica,sans-Serif" font-size="10.00">+ execute()</text>
<text text-anchor="start" x="8" y="-18.5" font-family="Helvetica,sans-Serif" font-size="10.00">+ generateHelpMessage()</text>
<text text-anchor="start" x="8" y="-7.5" font-family="Helvetica,sans-Serif" font-size="10.00">+ ~BaseCommand()</text>
</a>
</g>
</g>
<!-- Node2 -->
<g id="node2" class="node">
<title>Node2</title>
<g id="a_node2"><a xlink:title=" ">
<polygon fill="white" stroke="#bfbfbf" points="40.5,-149.5 40.5,-206.5 123.5,-206.5 123.5,-149.5 40.5,-149.5"/>
<text text-anchor="middle" x="82" y="-194.5" font-family="Helvetica,sans-Serif" font-size="10.00">const CharT *</text>
<polyline fill="none" stroke="#bfbfbf" points="40.5,-187.5 123.5,-187.5 "/>
<text text-anchor="middle" x="82" y="-175.5" font-family="Helvetica,sans-Serif" font-size="10.00"> </text>
<polyline fill="none" stroke="#bfbfbf" points="40.5,-168.5 123.5,-168.5 "/>
<text text-anchor="middle" x="82" y="-156.5" font-family="Helvetica,sans-Serif" font-size="10.00"> </text>
</a>
</g>
</g>
<!-- Node2&#45;&gt;Node1 -->
<g id="edge1" class="edge">
<title>Node2&#45;&gt;Node1</title>
<path fill="none" stroke="#404040" d="M82,-149.26C82,-138.79 82,-126.42 82,-114.07"/>
<polygon fill="none" stroke="#404040" points="82,-113.8 78,-107.8 82,-101.8 86,-107.8 82,-113.8"/>
<text text-anchor="middle" x="127" y="-123" font-family="Helvetica,sans-Serif" font-size="10.00"> +commandName</text>
</g>
</g>
</svg>
