<?xml version="1.0" encoding="UTF-8" standalone="no"?>
<!DOCTYPE svg PUBLIC "-//W3C//DTD SVG 1.1//EN"
 "http://www.w3.org/Graphics/SVG/1.1/DTD/svg11.dtd">
<!-- Generated by graphviz version 2.43.0 (0)
 -->
<!-- Title: lib/utilities/Arduino&#45;wrapper.h Pages: 1 -->
<svg width="584pt" height="117pt"
 viewBox="0.00 0.00 584.00 117.00" xmlns="http://www.w3.org/2000/svg" xmlns:xlink="http://www.w3.org/1999/xlink">
<g id="graph0" class="graph" transform="scale(1 1) rotate(0) translate(4 113)">
<title>lib/utilities/Arduino&#45;wrapper.h</title>
<polygon fill="white" stroke="transparent" points="-4,4 -4,-113 580,-113 580,4 -4,4"/>
<!-- Node1 -->
<g id="node1" class="node">
<title>Node1</title>
<g id="a_node1"><a xlink:title="Circumvents problematic processor macros defined by Arduino framework.">
<polygon fill="#bfbfbf" stroke="black" points="237,-78.5 237,-108.5 346,-108.5 346,-78.5 237,-78.5"/>
<text text-anchor="start" x="245" y="-96.5" font-family="Helvetica,sans-Serif" font-size="10.00">lib/utilities/Arduino</text>
<text text-anchor="middle" x="291.5" y="-85.5" font-family="Helvetica,sans-Serif" font-size="10.00">&#45;wrapper.h</text>
</a>
</g>
</g>
<!-- Node2 -->
<g id="node2" class="node">
<title>Node2</title>
<g id="a_node2"><a xlink:href="Keypad_8cpp.xhtml" target="_top" xlink:title=" ">
<polygon fill="white" stroke="black" points="0,-0.5 0,-41.5 131,-41.5 131,-0.5 0,-0.5"/>
<text text-anchor="start" x="8" y="-29.5" font-family="Helvetica,sans-Serif" font-size="10.00">lib/board_adapters</text>
<text text-anchor="start" x="8" y="-18.5" font-family="Helvetica,sans-Serif" font-size="10.00">/input_device_interface</text>
<text text-anchor="middle" x="65.5" y="-7.5" font-family="Helvetica,sans-Serif" font-size="10.00">/Keypad.cpp</text>
</a>
</g>
</g>
<!-- Node1&#45;&gt;Node2 -->
<g id="edge1" class="edge">
<title>Node1&#45;&gt;Node2</title>
<path fill="none" stroke="midnightblue" d="M236.73,-75.42C204.02,-65.21 162.35,-52.21 128.31,-41.59"/>
<polygon fill="midnightblue" stroke="midnightblue" points="235.99,-78.85 246.58,-78.49 238.08,-72.17 235.99,-78.85"/>
</g>
<!-- Node3 -->
<g id="node3" class="node">
<title>Node3</title>
<g id="a_node3"><a xlink:href="sound__output_8cpp.xhtml" target="_top" xlink:title=" ">
<polygon fill="white" stroke="black" points="149.5,-0.5 149.5,-41.5 283.5,-41.5 283.5,-0.5 149.5,-0.5"/>
<text text-anchor="start" x="157.5" y="-29.5" font-family="Helvetica,sans-Serif" font-size="10.00">lib/board_adapters</text>
<text text-anchor="start" x="157.5" y="-18.5" font-family="Helvetica,sans-Serif" font-size="10.00">/sound_output_interface</text>
<text text-anchor="middle" x="216.5" y="-7.5" font-family="Helvetica,sans-Serif" font-size="10.00">/sound_output.cpp</text>
</a>
</g>
</g>
<!-- Node1&#45;&gt;Node3 -->
<g id="edge2" class="edge">
<title>Node1&#45;&gt;Node3</title>
<path fill="none" stroke="midnightblue" d="M269.03,-71.38C258.98,-61.93 247.19,-50.85 237.34,-41.59"/>
<polygon fill="midnightblue" stroke="midnightblue" points="266.64,-73.93 276.32,-78.23 271.43,-68.83 266.64,-73.93"/>
</g>
<!-- Node4 -->
<g id="node4" class="node">
<title>Node4</title>
<g id="a_node4"><a xlink:href="test__debounce_8cpp.xhtml" target="_top" xlink:title=" ">
<polygon fill="white" stroke="black" points="302,-6 302,-36 433,-36 433,-6 302,-6"/>
<text text-anchor="start" x="310" y="-24" font-family="Helvetica,sans-Serif" font-size="10.00">test/hmi/test_debounce</text>
<text text-anchor="middle" x="367.5" y="-13" font-family="Helvetica,sans-Serif" font-size="10.00">/test_debounce.cpp</text>
</a>
</g>
</g>
<!-- Node1&#45;&gt;Node4 -->
<g id="edge3" class="edge">
<title>Node1&#45;&gt;Node4</title>
<path fill="none" stroke="midnightblue" d="M314.53,-71.14C326.81,-59.74 341.58,-46.04 352.4,-36"/>
<polygon fill="midnightblue" stroke="midnightblue" points="311.83,-68.87 306.88,-78.23 316.59,-74 311.83,-68.87"/>
</g>
<!-- Node5 -->
<g id="node5" class="node">
<title>Node5</title>
<g id="a_node5"><a xlink:href="test__hmi_8cpp.xhtml" target="_top" xlink:title=" ">
<polygon fill="white" stroke="black" points="451,-6 451,-36 576,-36 576,-6 451,-6"/>
<text text-anchor="start" x="459" y="-24" font-family="Helvetica,sans-Serif" font-size="10.00">test/hmi/test_hmi/test</text>
<text text-anchor="middle" x="513.5" y="-13" font-family="Helvetica,sans-Serif" font-size="10.00">_hmi.cpp</text>
</a>
</g>
</g>
<!-- Node1&#45;&gt;Node5 -->
<g id="edge4" class="edge">
<title>Node1&#45;&gt;Node5</title>
<path fill="none" stroke="midnightblue" d="M345.48,-75.36C383.39,-63.32 433.48,-47.41 469.08,-36.11"/>
<polygon fill="midnightblue" stroke="midnightblue" points="344.1,-72.12 335.63,-78.49 346.22,-78.8 344.1,-72.12"/>
</g>
</g>
</svg>
