<?xml version="1.0" encoding="UTF-8" standalone="no"?>
<!DOCTYPE svg PUBLIC "-//W3C//DTD SVG 1.1//EN"
 "http://www.w3.org/Graphics/SVG/1.1/DTD/svg11.dtd">
<!-- Generated by graphviz version 2.43.0 (0)
 -->
<!-- Title: lib/utilities/Arduino&#45;wrapper.h Pages: 1 -->
<svg width="435pt" height="117pt"
 viewBox="0.00 0.00 435.00 117.00" xmlns="http://www.w3.org/2000/svg" xmlns:xlink="http://www.w3.org/1999/xlink">
<g id="graph0" class="graph" transform="scale(1 1) rotate(0) translate(4 113)">
<title>lib/utilities/Arduino&#45;wrapper.h</title>
<polygon fill="white" stroke="transparent" points="-4,4 -4,-113 431,-113 431,4 -4,4"/>
<!-- Node1 -->
<g id="node1" class="node">
<title>Node1</title>
<g id="a_node1"><a xlink:title="Circumvents problematic processor macros defined by Arduino framework.">
<polygon fill="#bfbfbf" stroke="black" points="162,-78.5 162,-108.5 271,-108.5 271,-78.5 162,-78.5"/>
<text text-anchor="start" x="170" y="-96.5" font-family="Helvetica,sans-Serif" font-size="10.00">lib/utilities/Arduino</text>
<text text-anchor="middle" x="216.5" y="-85.5" font-family="Helvetica,sans-Serif" font-size="10.00">&#45;wrapper.h</text>
</a>
</g>
</g>
<!-- Node2 -->
<g id="node2" class="node">
<title>Node2</title>
<g id="a_node2"><a xlink:href="Keypad_8cpp.xhtml" target="_top" xlink:title=" ">
<polygon fill="white" stroke="black" points="0,-0.5 0,-41.5 131,-41.5 131,-0.5 0,-0.5"/>
<text text-anchor="start" x="8" y="-29.5" font-family="Helvetica,sans-Serif" font-size="10.00">lib/board_adapters</text>
<text text-anchor="start" x="8" y="-18.5" font-family="Helvetica,sans-Serif" font-size="10.00">/input_device_interface</text>
<text text-anchor="middle" x="65.5" y="-7.5" font-family="Helvetica,sans-Serif" font-size="10.00">/Keypad.cpp</text>
</a>
</g>
</g>
<!-- Node1&#45;&gt;Node2 -->
<g id="edge1" class="edge">
<title>Node1&#45;&gt;Node2</title>
<path fill="none" stroke="midnightblue" d="M177.15,-74.13C155.72,-64.12 129.18,-51.73 107.37,-41.55"/>
<polygon fill="midnightblue" stroke="midnightblue" points="175.76,-77.34 186.31,-78.4 178.73,-71 175.76,-77.34"/>
</g>
<!-- Node3 -->
<g id="node3" class="node">
<title>Node3</title>
<g id="a_node3"><a xlink:href="sound__output_8cpp.xhtml" target="_top" xlink:title=" ">
<polygon fill="white" stroke="black" points="149.5,-0.5 149.5,-41.5 283.5,-41.5 283.5,-0.5 149.5,-0.5"/>
<text text-anchor="start" x="157.5" y="-29.5" font-family="Helvetica,sans-Serif" font-size="10.00">lib/board_adapters</text>
<text text-anchor="start" x="157.5" y="-18.5" font-family="Helvetica,sans-Serif" font-size="10.00">/sound_output_interface</text>
<text text-anchor="middle" x="216.5" y="-7.5" font-family="Helvetica,sans-Serif" font-size="10.00">/sound_output.cpp</text>
</a>
</g>
</g>
<!-- Node1&#45;&gt;Node3 -->
<g id="edge2" class="edge">
<title>Node1&#45;&gt;Node3</title>
<path fill="none" stroke="midnightblue" d="M216.5,-67.98C216.5,-59.35 216.5,-49.76 216.5,-41.59"/>
<polygon fill="midnightblue" stroke="midnightblue" points="213,-68.23 216.5,-78.23 220,-68.23 213,-68.23"/>
</g>
<!-- Node4 -->
<g id="node4" class="node">
<title>Node4</title>
<g id="a_node4"><a xlink:href="test__hmi_8cpp.xhtml" target="_top" xlink:title=" ">
<polygon fill="white" stroke="black" points="302,-6 302,-36 427,-36 427,-6 302,-6"/>
<text text-anchor="start" x="310" y="-24" font-family="Helvetica,sans-Serif" font-size="10.00">test/hmi/test_hmi/test</text>
<text text-anchor="middle" x="364.5" y="-13" font-family="Helvetica,sans-Serif" font-size="10.00">_hmi.cpp</text>
</a>
</g>
</g>
<!-- Node1&#45;&gt;Node4 -->
<g id="edge3" class="edge">
<title>Node1&#45;&gt;Node4</title>
<path fill="none" stroke="midnightblue" d="M255.27,-74.03C280.2,-62.16 312.08,-46.97 334.96,-36.07"/>
<polygon fill="midnightblue" stroke="midnightblue" points="253.62,-70.94 246.09,-78.4 256.63,-77.26 253.62,-70.94"/>
</g>
</g>
</svg>
