<?xml version="1.0" encoding="UTF-8" standalone="no"?>
<!DOCTYPE svg PUBLIC "-//W3C//DTD SVG 1.1//EN"
 "http://www.w3.org/Graphics/SVG/1.1/DTD/svg11.dtd">
<!-- Generated by graphviz version 2.43.0 (0)
 -->
<!-- Title: lib/utilities/Arduino&#45;wrapper.h Pages: 1 -->
<svg width="747pt" height="117pt"
 viewBox="0.00 0.00 747.00 117.00" xmlns="http://www.w3.org/2000/svg" xmlns:xlink="http://www.w3.org/1999/xlink">
<g id="graph0" class="graph" transform="scale(1 1) rotate(0) translate(4 113)">
<title>lib/utilities/Arduino&#45;wrapper.h</title>
<polygon fill="white" stroke="transparent" points="-4,4 -4,-113 743,-113 743,4 -4,4"/>
<!-- Node1 -->
<g id="node1" class="node">
<title>Node1</title>
<g id="a_node1"><a xlink:title="Circumvents problematic processor macros defined by Arduino framework.">
<polygon fill="#bfbfbf" stroke="black" points="322,-78.5 322,-108.5 431,-108.5 431,-78.5 322,-78.5"/>
<text text-anchor="start" x="330" y="-96.5" font-family="Helvetica,sans-Serif" font-size="10.00">lib/utilities/Arduino</text>
<text text-anchor="middle" x="376.5" y="-85.5" font-family="Helvetica,sans-Serif" font-size="10.00">&#45;wrapper.h</text>
</a>
</g>
</g>
<!-- Node2 -->
<g id="node2" class="node">
<title>Node2</title>
<g id="a_node2"><a xlink:href="Keypad_8cpp.xhtml" target="_top" xlink:title=" ">
<polygon fill="white" stroke="black" points="0,-0.5 0,-41.5 131,-41.5 131,-0.5 0,-0.5"/>
<text text-anchor="start" x="8" y="-29.5" font-family="Helvetica,sans-Serif" font-size="10.00">lib/board_adapters</text>
<text text-anchor="start" x="8" y="-18.5" font-family="Helvetica,sans-Serif" font-size="10.00">/input_device_interface</text>
<text text-anchor="middle" x="65.5" y="-7.5" font-family="Helvetica,sans-Serif" font-size="10.00">/Keypad.cpp</text>
</a>
</g>
</g>
<!-- Node1&#45;&gt;Node2 -->
<g id="edge1" class="edge">
<title>Node1&#45;&gt;Node2</title>
<path fill="none" stroke="midnightblue" d="M312.11,-79.62C264.55,-69.89 198.31,-55.89 140.5,-42 137.49,-41.28 134.41,-40.52 131.3,-39.75"/>
<polygon fill="midnightblue" stroke="midnightblue" points="311.46,-83.06 321.96,-81.63 312.86,-76.2 311.46,-83.06"/>
</g>
<!-- Node3 -->
<g id="node3" class="node">
<title>Node3</title>
<g id="a_node3"><a xlink:href="sound__output_8cpp.xhtml" target="_top" xlink:title=" ">
<polygon fill="white" stroke="black" points="149.5,-0.5 149.5,-41.5 283.5,-41.5 283.5,-0.5 149.5,-0.5"/>
<text text-anchor="start" x="157.5" y="-29.5" font-family="Helvetica,sans-Serif" font-size="10.00">lib/board_adapters</text>
<text text-anchor="start" x="157.5" y="-18.5" font-family="Helvetica,sans-Serif" font-size="10.00">/sound_output_interface</text>
<text text-anchor="middle" x="216.5" y="-7.5" font-family="Helvetica,sans-Serif" font-size="10.00">/sound_output.cpp</text>
</a>
</g>
</g>
<!-- Node1&#45;&gt;Node3 -->
<g id="edge2" class="edge">
<title>Node1&#45;&gt;Node3</title>
<path fill="none" stroke="midnightblue" d="M335.11,-74.26C312.34,-64.23 284.08,-51.78 260.86,-41.55"/>
<polygon fill="midnightblue" stroke="midnightblue" points="333.94,-77.57 344.51,-78.4 336.77,-71.17 333.94,-77.57"/>
</g>
<!-- Node4 -->
<g id="node4" class="node">
<title>Node4</title>
<g id="a_node4"><a xlink:href="test__dummies_8cpp.xhtml" target="_top" xlink:title=" ">
<polygon fill="white" stroke="black" points="301.5,-11.5 301.5,-30.5 451.5,-30.5 451.5,-11.5 301.5,-11.5"/>
<text text-anchor="middle" x="376.5" y="-18.5" font-family="Helvetica,sans-Serif" font-size="10.00">test/hmi/test_dummies.cpp</text>
</a>
</g>
</g>
<!-- Node1&#45;&gt;Node4 -->
<g id="edge3" class="edge">
<title>Node1&#45;&gt;Node4</title>
<path fill="none" stroke="midnightblue" d="M376.5,-68.09C376.5,-55.21 376.5,-40.2 376.5,-30.89"/>
<polygon fill="midnightblue" stroke="midnightblue" points="373,-68.23 376.5,-78.23 380,-68.23 373,-68.23"/>
</g>
<!-- Node5 -->
<g id="node5" class="node">
<title>Node5</title>
<g id="a_node5"><a xlink:href="test__hmi_8cpp.xhtml" target="_top" xlink:title=" ">
<polygon fill="white" stroke="black" points="469,-6 469,-36 594,-36 594,-6 469,-6"/>
<text text-anchor="start" x="477" y="-24" font-family="Helvetica,sans-Serif" font-size="10.00">test/hmi/test_hmi/test</text>
<text text-anchor="middle" x="531.5" y="-13" font-family="Helvetica,sans-Serif" font-size="10.00">_hmi.cpp</text>
</a>
</g>
</g>
<!-- Node1&#45;&gt;Node5 -->
<g id="edge4" class="edge">
<title>Node1&#45;&gt;Node5</title>
<path fill="none" stroke="midnightblue" d="M416.76,-74.19C442.92,-62.29 476.5,-47.02 500.56,-36.07"/>
<polygon fill="midnightblue" stroke="midnightblue" points="415.15,-71.08 407.49,-78.4 418.05,-77.45 415.15,-71.08"/>
</g>
<!-- Node6 -->
<g id="node6" class="node">
<title>Node6</title>
<g id="a_node6"><a xlink:href="test__keyState_8cpp.xhtml" target="_top" xlink:title=" ">
<polygon fill="white" stroke="black" points="612,-6 612,-36 739,-36 739,-6 612,-6"/>
<text text-anchor="start" x="620" y="-24" font-family="Helvetica,sans-Serif" font-size="10.00">test/hmi/test_keyState</text>
<text text-anchor="middle" x="675.5" y="-13" font-family="Helvetica,sans-Serif" font-size="10.00">/test_keyState.cpp</text>
</a>
</g>
</g>
<!-- Node1&#45;&gt;Node6 -->
<g id="edge5" class="edge">
<title>Node1&#45;&gt;Node6</title>
<path fill="none" stroke="midnightblue" d="M441.3,-79.02C486.82,-69.32 549.06,-55.61 603.5,-42 610.93,-40.14 618.75,-38.08 626.4,-36.01"/>
<polygon fill="midnightblue" stroke="midnightblue" points="440.32,-75.65 431.27,-81.15 441.78,-82.5 440.32,-75.65"/>
</g>
</g>
</svg>
