<?xml version="1.0" encoding="UTF-8" standalone="no"?>
<!DOCTYPE svg PUBLIC "-//W3C//DTD SVG 1.1//EN"
 "http://www.w3.org/Graphics/SVG/1.1/DTD/svg11.dtd">
<!-- Generated by graphviz version 2.43.0 (0)
 -->
<!-- Title: lib/board_adapters/board_types.hpp Pages: 1 -->
<svg width="1298pt" height="195pt"
 viewBox="0.00 0.00 1298.00 195.00" xmlns="http://www.w3.org/2000/svg" xmlns:xlink="http://www.w3.org/1999/xlink">
<g id="graph0" class="graph" transform="scale(1 1) rotate(0) translate(4 191)">
<title>lib/board_adapters/board_types.hpp</title>
<polygon fill="white" stroke="transparent" points="-4,4 -4,-191 1294,-191 1294,4 -4,4"/>
<!-- Node1 -->
<g id="node1" class="node">
<title>Node1</title>
<g id="a_node1"><a xlink:title=" ">
<polygon fill="#bfbfbf" stroke="black" points="760.5,-156.5 760.5,-186.5 867.5,-186.5 867.5,-156.5 760.5,-156.5"/>
<text text-anchor="start" x="768.5" y="-174.5" font-family="Helvetica,sans-Serif" font-size="10.00">lib/board_adapters</text>
<text text-anchor="middle" x="814" y="-163.5" font-family="Helvetica,sans-Serif" font-size="10.00">/board_types.hpp</text>
</a>
</g>
</g>
<!-- Node2 -->
<g id="node2" class="node">
<title>Node2</title>
<g id="a_node2"><a xlink:href="board__pins_8hpp.xhtml" target="_top" xlink:title="Provides named objects for the pins provided by the board.">
<polygon fill="white" stroke="black" points="501.5,-84 501.5,-114 608.5,-114 608.5,-84 501.5,-84"/>
<text text-anchor="start" x="509.5" y="-102" font-family="Helvetica,sans-Serif" font-size="10.00">lib/board_adapters</text>
<text text-anchor="middle" x="555" y="-91" font-family="Helvetica,sans-Serif" font-size="10.00">/board_pins.hpp</text>
</a>
</g>
</g>
<!-- Node1&#45;&gt;Node2 -->
<g id="edge1" class="edge">
<title>Node1&#45;&gt;Node2</title>
<path fill="none" stroke="midnightblue" d="M752.71,-153.82C708.29,-141.73 648.89,-125.56 606.83,-114.11"/>
<polygon fill="midnightblue" stroke="midnightblue" points="751.95,-157.24 762.52,-156.49 753.79,-150.48 751.95,-157.24"/>
</g>
<!-- Node9 -->
<g id="node9" class="node">
<title>Node9</title>
<g id="a_node9"><a xlink:href="status__indicators_8hpp.xhtml" target="_top" xlink:title=" ">
<polygon fill="white" stroke="black" points="746,-78.5 746,-119.5 882,-119.5 882,-78.5 746,-78.5"/>
<text text-anchor="start" x="754" y="-107.5" font-family="Helvetica,sans-Serif" font-size="10.00">lib/board_adapters</text>
<text text-anchor="start" x="754" y="-96.5" font-family="Helvetica,sans-Serif" font-size="10.00">/status_indicators/status</text>
<text text-anchor="middle" x="814" y="-85.5" font-family="Helvetica,sans-Serif" font-size="10.00">_indicators.hpp</text>
</a>
</g>
</g>
<!-- Node1&#45;&gt;Node9 -->
<g id="edge8" class="edge">
<title>Node1&#45;&gt;Node9</title>
<path fill="none" stroke="midnightblue" d="M814,-145.98C814,-137.35 814,-127.76 814,-119.59"/>
<polygon fill="midnightblue" stroke="midnightblue" points="810.5,-146.23 814,-156.23 817.5,-146.23 810.5,-146.23"/>
</g>
<!-- Node11 -->
<g id="node11" class="node">
<title>Node11</title>
<g id="a_node11"><a xlink:href="test__dummies_8hpp.xhtml" target="_top" xlink:title=" ">
<polygon fill="white" stroke="black" points="983.5,-89.5 983.5,-108.5 1134.5,-108.5 1134.5,-89.5 983.5,-89.5"/>
<text text-anchor="middle" x="1059" y="-96.5" font-family="Helvetica,sans-Serif" font-size="10.00">test/hmi/test_dummies.hpp</text>
</a>
</g>
</g>
<!-- Node1&#45;&gt;Node11 -->
<g id="edge11" class="edge">
<title>Node1&#45;&gt;Node11</title>
<path fill="none" stroke="midnightblue" d="M872.61,-153.64C921.97,-139.43 990.54,-119.7 1029.27,-108.55"/>
<polygon fill="midnightblue" stroke="midnightblue" points="871.34,-150.36 862.7,-156.49 873.27,-157.09 871.34,-150.36"/>
</g>
<!-- Node3 -->
<g id="node3" class="node">
<title>Node3</title>
<g id="a_node3"><a xlink:href="framework__adapter_8cpp.xhtml" target="_top" xlink:title=" ">
<polygon fill="white" stroke="black" points="0,-6 0,-36 176,-36 176,-6 0,-6"/>
<text text-anchor="start" x="8" y="-24" font-family="Helvetica,sans-Serif" font-size="10.00">lib/3rd_party_adapters</text>
<text text-anchor="middle" x="88" y="-13" font-family="Helvetica,sans-Serif" font-size="10.00">/Arduino/framework_adapter.cpp</text>
</a>
</g>
</g>
<!-- Node2&#45;&gt;Node3 -->
<g id="edge2" class="edge">
<title>Node2&#45;&gt;Node3</title>
<path fill="none" stroke="midnightblue" d="M491.16,-89.39C417.28,-79.18 292.05,-61.12 185,-42 174.84,-40.19 164.12,-38.12 153.65,-36.03"/>
<polygon fill="midnightblue" stroke="midnightblue" points="490.85,-92.88 501.24,-90.78 491.81,-85.94 490.85,-92.88"/>
</g>
<!-- Node4 -->
<g id="node4" class="node">
<title>Node4</title>
<g id="a_node4"><a xlink:href="display__factory__interface_8cpp.xhtml" target="_top" xlink:title=" ">
<polygon fill="white" stroke="black" points="194,-0.5 194,-41.5 320,-41.5 320,-0.5 194,-0.5"/>
<text text-anchor="start" x="202" y="-29.5" font-family="Helvetica,sans-Serif" font-size="10.00">lib/3rd_party_adapters</text>
<text text-anchor="start" x="202" y="-18.5" font-family="Helvetica,sans-Serif" font-size="10.00">/LVGL/display_factory</text>
<text text-anchor="middle" x="257" y="-7.5" font-family="Helvetica,sans-Serif" font-size="10.00">_interface.cpp</text>
</a>
</g>
</g>
<!-- Node2&#45;&gt;Node4 -->
<g id="edge3" class="edge">
<title>Node2&#45;&gt;Node4</title>
<path fill="none" stroke="midnightblue" d="M491.48,-82.76C446.12,-71.76 383.7,-56.37 329,-42 326.11,-41.24 323.17,-40.46 320.19,-39.66"/>
<polygon fill="midnightblue" stroke="midnightblue" points="490.92,-86.23 501.47,-85.18 492.57,-79.43 490.92,-86.23"/>
</g>
<!-- Node5 -->
<g id="node5" class="node">
<title>Node5</title>
<g id="a_node5"><a xlink:href="Keypad_8cpp.xhtml" target="_top" xlink:title=" ">
<polygon fill="white" stroke="black" points="338.5,-0.5 338.5,-41.5 469.5,-41.5 469.5,-0.5 338.5,-0.5"/>
<text text-anchor="start" x="346.5" y="-29.5" font-family="Helvetica,sans-Serif" font-size="10.00">lib/board_adapters</text>
<text text-anchor="start" x="346.5" y="-18.5" font-family="Helvetica,sans-Serif" font-size="10.00">/input_device_interface</text>
<text text-anchor="middle" x="404" y="-7.5" font-family="Helvetica,sans-Serif" font-size="10.00">/Keypad.cpp</text>
</a>
</g>
</g>
<!-- Node2&#45;&gt;Node5 -->
<g id="edge4" class="edge">
<title>Node2&#45;&gt;Node5</title>
<path fill="none" stroke="midnightblue" d="M517.94,-79.35C495.19,-67.9 466.09,-53.25 443,-41.63"/>
<polygon fill="midnightblue" stroke="midnightblue" points="516.45,-82.51 526.95,-83.88 519.59,-76.26 516.45,-82.51"/>
</g>
<!-- Node6 -->
<g id="node6" class="node">
<title>Node6</title>
<g id="a_node6"><a xlink:href="sound__output_8cpp.xhtml" target="_top" xlink:title=" ">
<polygon fill="white" stroke="black" points="488,-0.5 488,-41.5 622,-41.5 622,-0.5 488,-0.5"/>
<text text-anchor="start" x="496" y="-29.5" font-family="Helvetica,sans-Serif" font-size="10.00">lib/board_adapters</text>
<text text-anchor="start" x="496" y="-18.5" font-family="Helvetica,sans-Serif" font-size="10.00">/sound_output_interface</text>
<text text-anchor="middle" x="555" y="-7.5" font-family="Helvetica,sans-Serif" font-size="10.00">/sound_output.cpp</text>
</a>
</g>
</g>
<!-- Node2&#45;&gt;Node6 -->
<g id="edge5" class="edge">
<title>Node2&#45;&gt;Node6</title>
<path fill="none" stroke="midnightblue" d="M555,-73.66C555,-63.33 555,-51.44 555,-41.68"/>
<polygon fill="midnightblue" stroke="midnightblue" points="551.5,-73.7 555,-83.7 558.5,-73.71 551.5,-73.7"/>
</g>
<!-- Node7 -->
<g id="node7" class="node">
<title>Node7</title>
<g id="a_node7"><a xlink:href="statusindicators__factory__interface_8cpp.xhtml" target="_top" xlink:title=" ">
<polygon fill="white" stroke="black" points="640,-0.5 640,-41.5 824,-41.5 824,-0.5 640,-0.5"/>
<text text-anchor="start" x="648" y="-29.5" font-family="Helvetica,sans-Serif" font-size="10.00">lib/board_adapters</text>
<text text-anchor="start" x="648" y="-18.5" font-family="Helvetica,sans-Serif" font-size="10.00">/status_indicators/statusindicators</text>
<text text-anchor="middle" x="732" y="-7.5" font-family="Helvetica,sans-Serif" font-size="10.00">_factory_interface.cpp</text>
</a>
</g>
</g>
<!-- Node2&#45;&gt;Node7 -->
<g id="edge6" class="edge">
<title>Node2&#45;&gt;Node7</title>
<path fill="none" stroke="midnightblue" d="M597.37,-79.81C624.19,-68.29 658.85,-53.41 686.29,-41.63"/>
<polygon fill="midnightblue" stroke="midnightblue" points="595.69,-76.72 587.88,-83.88 598.45,-83.15 595.69,-76.72"/>
</g>
<!-- Node8 -->
<g id="node8" class="node">
<title>Node8</title>
<g id="a_node8"><a xlink:href="test__hmi_8cpp.xhtml" target="_top" xlink:title=" ">
<polygon fill="white" stroke="black" points="996.5,-6 996.5,-36 1121.5,-36 1121.5,-6 996.5,-6"/>
<text text-anchor="start" x="1004.5" y="-24" font-family="Helvetica,sans-Serif" font-size="10.00">test/hmi/test_hmi/test</text>
<text text-anchor="middle" x="1059" y="-13" font-family="Helvetica,sans-Serif" font-size="10.00">_hmi.cpp</text>
</a>
</g>
</g>
<!-- Node2&#45;&gt;Node8 -->
<g id="edge7" class="edge">
<title>Node2&#45;&gt;Node8</title>
<path fill="none" stroke="midnightblue" d="M618.99,-90.84C721.53,-79.17 918.12,-55.96 987,-42 995.14,-40.35 1003.71,-38.28 1011.98,-36.09"/>
<polygon fill="midnightblue" stroke="midnightblue" points="618.31,-87.39 608.77,-92 619.1,-94.35 618.31,-87.39"/>
</g>
<!-- Node9&#45;&gt;Node7 -->
<g id="edge10" class="edge">
<title>Node9&#45;&gt;Node7</title>
<path fill="none" stroke="midnightblue" d="M785.4,-71.49C774.76,-61.63 762.89,-50.63 753.05,-41.51"/>
<polygon fill="midnightblue" stroke="midnightblue" points="783.17,-74.2 792.88,-78.43 787.93,-69.06 783.17,-74.2"/>
</g>
<!-- Node10 -->
<g id="node10" class="node">
<title>Node10</title>
<g id="a_node10"><a xlink:href="status__indicators_8cpp.xhtml" target="_top" xlink:title=" ">
<polygon fill="white" stroke="black" points="842,-0.5 842,-41.5 978,-41.5 978,-0.5 842,-0.5"/>
<text text-anchor="start" x="850" y="-29.5" font-family="Helvetica,sans-Serif" font-size="10.00">lib/board_adapters</text>
<text text-anchor="start" x="850" y="-18.5" font-family="Helvetica,sans-Serif" font-size="10.00">/status_indicators/status</text>
<text text-anchor="middle" x="910" y="-7.5" font-family="Helvetica,sans-Serif" font-size="10.00">_indicators.cpp</text>
</a>
</g>
</g>
<!-- Node9&#45;&gt;Node10 -->
<g id="edge9" class="edge">
<title>Node9&#45;&gt;Node10</title>
<path fill="none" stroke="midnightblue" d="M846.76,-72.06C859.4,-62.06 873.62,-50.8 885.36,-41.51"/>
<polygon fill="midnightblue" stroke="midnightblue" points="844.39,-69.48 838.72,-78.43 848.74,-74.97 844.39,-69.48"/>
</g>
<!-- Node11&#45;&gt;Node8 -->
<g id="edge13" class="edge">
<title>Node11&#45;&gt;Node8</title>
<path fill="none" stroke="midnightblue" d="M1059,-79.28C1059,-65.9 1059,-48.19 1059,-36.02"/>
<polygon fill="midnightblue" stroke="midnightblue" points="1055.5,-79.28 1059,-89.28 1062.5,-79.28 1055.5,-79.28"/>
</g>
<!-- Node12 -->
<g id="node12" class="node">
<title>Node12</title>
<g id="a_node12"><a xlink:href="test__dummies_8cpp.xhtml" target="_top" xlink:title=" ">
<polygon fill="white" stroke="black" points="1140,-11.5 1140,-30.5 1290,-30.5 1290,-11.5 1140,-11.5"/>
<text text-anchor="middle" x="1215" y="-18.5" font-family="Helvetica,sans-Serif" font-size="10.00">test/hmi/test_dummies.cpp</text>
</a>
</g>
</g>
<!-- Node11&#45;&gt;Node12 -->
<g id="edge12" class="edge">
<title>Node11&#45;&gt;Node12</title>
<path fill="none" stroke="midnightblue" d="M1085.78,-84.96C1117.65,-69.43 1169.97,-43.94 1197.23,-30.66"/>
<polygon fill="midnightblue" stroke="midnightblue" points="1084.05,-81.9 1076.59,-89.43 1087.11,-88.2 1084.05,-81.9"/>
</g>
</g>
</svg>
