<?xml version="1.0" encoding="UTF-8" standalone="no"?>
<!DOCTYPE svg PUBLIC "-//W3C//DTD SVG 1.1//EN"
 "http://www.w3.org/Graphics/SVG/1.1/DTD/svg11.dtd">
<!-- Generated by graphviz version 2.43.0 (0)
 -->
<!-- Title: lib/board_adapters/board_pins.hpp Pages: 1 -->
<svg width="1143pt" height="117pt"
 viewBox="0.00 0.00 1142.50 117.00" xmlns="http://www.w3.org/2000/svg" xmlns:xlink="http://www.w3.org/1999/xlink">
<g id="graph0" class="graph" transform="scale(1 1) rotate(0) translate(4 113)">
<title>lib/board_adapters/board_pins.hpp</title>
<polygon fill="white" stroke="transparent" points="-4,4 -4,-113 1138.5,-113 1138.5,4 -4,4"/>
<!-- Node1 -->
<g id="node1" class="node">
<title>Node1</title>
<g id="a_node1"><a xlink:title="Provides named objects for the pins provided by the board.">
<polygon fill="#bfbfbf" stroke="black" points="501.5,-78.5 501.5,-108.5 608.5,-108.5 608.5,-78.5 501.5,-78.5"/>
<text text-anchor="start" x="509.5" y="-96.5" font-family="Helvetica,sans-Serif" font-size="10.00">lib/board_adapters</text>
<text text-anchor="middle" x="555" y="-85.5" font-family="Helvetica,sans-Serif" font-size="10.00">/board_pins.hpp</text>
</a>
</g>
</g>
<!-- Node2 -->
<g id="node2" class="node">
<title>Node2</title>
<g id="a_node2"><a xlink:href="framework__adapter_8cpp.xhtml" target="_top" xlink:title=" ">
<polygon fill="white" stroke="black" points="0,-6 0,-36 176,-36 176,-6 0,-6"/>
<text text-anchor="start" x="8" y="-24" font-family="Helvetica,sans-Serif" font-size="10.00">lib/3rd_party_adapters</text>
<text text-anchor="middle" x="88" y="-13" font-family="Helvetica,sans-Serif" font-size="10.00">/Arduino/framework_adapter.cpp</text>
</a>
</g>
</g>
<!-- Node1&#45;&gt;Node2 -->
<g id="edge1" class="edge">
<title>Node1&#45;&gt;Node2</title>
<path fill="none" stroke="midnightblue" d="M491.13,-85.12C417.22,-76.26 291.96,-60.3 185,-42 174.58,-40.22 163.56,-38.14 152.85,-36"/>
<polygon fill="midnightblue" stroke="midnightblue" points="490.87,-88.61 501.21,-86.32 491.7,-81.66 490.87,-88.61"/>
</g>
<!-- Node3 -->
<g id="node3" class="node">
<title>Node3</title>
<g id="a_node3"><a xlink:href="display__factory__interface_8cpp.xhtml" target="_top" xlink:title=" ">
<polygon fill="white" stroke="black" points="194,-0.5 194,-41.5 320,-41.5 320,-0.5 194,-0.5"/>
<text text-anchor="start" x="202" y="-29.5" font-family="Helvetica,sans-Serif" font-size="10.00">lib/3rd_party_adapters</text>
<text text-anchor="start" x="202" y="-18.5" font-family="Helvetica,sans-Serif" font-size="10.00">/LVGL/display_factory</text>
<text text-anchor="middle" x="257" y="-7.5" font-family="Helvetica,sans-Serif" font-size="10.00">_interface.cpp</text>
</a>
</g>
</g>
<!-- Node1&#45;&gt;Node3 -->
<g id="edge2" class="edge">
<title>Node1&#45;&gt;Node3</title>
<path fill="none" stroke="midnightblue" d="M491.4,-79.2C446,-69.48 383.57,-55.67 329,-42 326.11,-41.28 323.15,-40.52 320.17,-39.74"/>
<polygon fill="midnightblue" stroke="midnightblue" points="490.88,-82.67 501.39,-81.33 492.34,-75.82 490.88,-82.67"/>
</g>
<!-- Node4 -->
<g id="node4" class="node">
<title>Node4</title>
<g id="a_node4"><a xlink:href="Keypad_8cpp.xhtml" target="_top" xlink:title=" ">
<polygon fill="white" stroke="black" points="338.5,-0.5 338.5,-41.5 469.5,-41.5 469.5,-0.5 338.5,-0.5"/>
<text text-anchor="start" x="346.5" y="-29.5" font-family="Helvetica,sans-Serif" font-size="10.00">lib/board_adapters</text>
<text text-anchor="start" x="346.5" y="-18.5" font-family="Helvetica,sans-Serif" font-size="10.00">/input_device_interface</text>
<text text-anchor="middle" x="404" y="-7.5" font-family="Helvetica,sans-Serif" font-size="10.00">/Keypad.cpp</text>
</a>
</g>
</g>
<!-- Node1&#45;&gt;Node4 -->
<g id="edge3" class="edge">
<title>Node1&#45;&gt;Node4</title>
<path fill="none" stroke="midnightblue" d="M515.65,-74.13C494.22,-64.12 467.68,-51.73 445.87,-41.55"/>
<polygon fill="midnightblue" stroke="midnightblue" points="514.26,-77.34 524.81,-78.4 517.23,-71 514.26,-77.34"/>
</g>
<!-- Node5 -->
<g id="node5" class="node">
<title>Node5</title>
<g id="a_node5"><a xlink:href="sound__output_8cpp.xhtml" target="_top" xlink:title=" ">
<polygon fill="white" stroke="black" points="488,-0.5 488,-41.5 622,-41.5 622,-0.5 488,-0.5"/>
<text text-anchor="start" x="496" y="-29.5" font-family="Helvetica,sans-Serif" font-size="10.00">lib/board_adapters</text>
<text text-anchor="start" x="496" y="-18.5" font-family="Helvetica,sans-Serif" font-size="10.00">/sound_output_interface</text>
<text text-anchor="middle" x="555" y="-7.5" font-family="Helvetica,sans-Serif" font-size="10.00">/sound_output.cpp</text>
</a>
</g>
</g>
<!-- Node1&#45;&gt;Node5 -->
<g id="edge4" class="edge">
<title>Node1&#45;&gt;Node5</title>
<path fill="none" stroke="midnightblue" d="M555,-67.98C555,-59.35 555,-49.76 555,-41.59"/>
<polygon fill="midnightblue" stroke="midnightblue" points="551.5,-68.23 555,-78.23 558.5,-68.23 551.5,-68.23"/>
</g>
<!-- Node6 -->
<g id="node6" class="node">
<title>Node6</title>
<g id="a_node6"><a xlink:href="statusindicators__factory__interface_8cpp.xhtml" target="_top" xlink:title=" ">
<polygon fill="white" stroke="black" points="640,-0.5 640,-41.5 824,-41.5 824,-0.5 640,-0.5"/>
<text text-anchor="start" x="648" y="-29.5" font-family="Helvetica,sans-Serif" font-size="10.00">lib/board_adapters</text>
<text text-anchor="start" x="648" y="-18.5" font-family="Helvetica,sans-Serif" font-size="10.00">/status_indicators/statusindicators</text>
<text text-anchor="middle" x="732" y="-7.5" font-family="Helvetica,sans-Serif" font-size="10.00">_factory_interface.cpp</text>
</a>
</g>
</g>
<!-- Node1&#45;&gt;Node6 -->
<g id="edge5" class="edge">
<title>Node1&#45;&gt;Node6</title>
<path fill="none" stroke="midnightblue" d="M599.77,-74.67C625.13,-64.57 656.89,-51.92 682.93,-41.55"/>
<polygon fill="midnightblue" stroke="midnightblue" points="598.39,-71.45 590.39,-78.4 600.98,-77.95 598.39,-71.45"/>
</g>
<!-- Node7 -->
<g id="node7" class="node">
<title>Node7</title>
<g id="a_node7"><a xlink:href="test__dummies_8cpp.xhtml" target="_top" xlink:title=" ">
<polygon fill="white" stroke="black" points="842,-11.5 842,-30.5 992,-30.5 992,-11.5 842,-11.5"/>
<text text-anchor="middle" x="917" y="-18.5" font-family="Helvetica,sans-Serif" font-size="10.00">test/hmi/test_dummies.cpp</text>
</a>
</g>
</g>
<!-- Node1&#45;&gt;Node7 -->
<g id="edge6" class="edge">
<title>Node1&#45;&gt;Node7</title>
<path fill="none" stroke="midnightblue" d="M618.93,-81.9C675.4,-72.29 759.89,-57.33 833,-42 849.43,-38.55 867.56,-34.29 882.76,-30.59"/>
<polygon fill="midnightblue" stroke="midnightblue" points="618,-78.51 608.72,-83.63 619.17,-85.41 618,-78.51"/>
</g>
<!-- Node8 -->
<g id="node8" class="node">
<title>Node8</title>
<g id="a_node8"><a xlink:href="test__hmi_8cpp.xhtml" target="_top" xlink:title=" ">
<polygon fill="white" stroke="black" points="1009.5,-6 1009.5,-36 1134.5,-36 1134.5,-6 1009.5,-6"/>
<text text-anchor="start" x="1017.5" y="-24" font-family="Helvetica,sans-Serif" font-size="10.00">test/hmi/test_hmi/test</text>
<text text-anchor="middle" x="1072" y="-13" font-family="Helvetica,sans-Serif" font-size="10.00">_hmi.cpp</text>
</a>
</g>
</g>
<!-- Node1&#45;&gt;Node8 -->
<g id="edge7" class="edge">
<title>Node1&#45;&gt;Node8</title>
<path fill="none" stroke="midnightblue" d="M618.61,-88.55C705.59,-82.41 866.21,-68.44 1001,-42 1009.29,-40.37 1018.03,-38.26 1026.43,-36.01"/>
<polygon fill="midnightblue" stroke="midnightblue" points="618.37,-85.06 608.63,-89.24 618.85,-92.04 618.37,-85.06"/>
</g>
</g>
</svg>
