<?xml version="1.0" encoding="UTF-8" standalone="no"?>
<!DOCTYPE svg PUBLIC "-//W3C//DTD SVG 1.1//EN"
 "http://www.w3.org/Graphics/SVG/1.1/DTD/svg11.dtd">
<!-- Generated by graphviz version 2.43.0 (0)
 -->
<!-- Title: lib/board_adapters/board_types.hpp Pages: 1 -->
<svg width="1298pt" height="195pt"
 viewBox="0.00 0.00 1298.00 195.00" xmlns="http://www.w3.org/2000/svg" xmlns:xlink="http://www.w3.org/1999/xlink">
<g id="graph0" class="graph" transform="scale(1 1) rotate(0) translate(4 191)">
<title>lib/board_adapters/board_types.hpp</title>
<polygon fill="white" stroke="transparent" points="-4,4 -4,-191 1294,-191 1294,4 -4,4"/>
<!-- Node1 -->
<g id="node1" class="node">
<title>Node1</title>
<g id="a_node1"><a xlink:title=" ">
<polygon fill="#bfbfbf" stroke="black" points="722.5,-156.5 722.5,-186.5 829.5,-186.5 829.5,-156.5 722.5,-156.5"/>
<text text-anchor="start" x="730.5" y="-174.5" font-family="Helvetica,sans-Serif" font-size="10.00">lib/board_adapters</text>
<text text-anchor="middle" x="776" y="-163.5" font-family="Helvetica,sans-Serif" font-size="10.00">/board_types.hpp</text>
</a>
</g>
</g>
<!-- Node2 -->
<g id="node2" class="node">
<title>Node2</title>
<g id="a_node2"><a xlink:href="board__pins_8hpp.xhtml" target="_top" xlink:title="Provides named objects for the pins provided by the board.">
<polygon fill="white" stroke="black" points="575.5,-84 575.5,-114 682.5,-114 682.5,-84 575.5,-84"/>
<text text-anchor="start" x="583.5" y="-102" font-family="Helvetica,sans-Serif" font-size="10.00">lib/board_adapters</text>
<text text-anchor="middle" x="629" y="-91" font-family="Helvetica,sans-Serif" font-size="10.00">/board_pins.hpp</text>
</a>
</g>
</g>
<!-- Node1&#45;&gt;Node2 -->
<g id="edge1" class="edge">
<title>Node1&#45;&gt;Node2</title>
<path fill="none" stroke="midnightblue" d="M737.49,-152.03C712.73,-140.16 681.06,-124.97 658.34,-114.07"/>
<polygon fill="midnightblue" stroke="midnightblue" points="736.08,-155.23 746.61,-156.4 739.1,-148.92 736.08,-155.23"/>
</g>
<!-- Node10 -->
<g id="node10" class="node">
<title>Node10</title>
<g id="a_node10"><a xlink:href="status__indicators_8hpp.xhtml" target="_top" xlink:title=" ">
<polygon fill="white" stroke="black" points="976,-78.5 976,-119.5 1112,-119.5 1112,-78.5 976,-78.5"/>
<text text-anchor="start" x="984" y="-107.5" font-family="Helvetica,sans-Serif" font-size="10.00">lib/board_adapters</text>
<text text-anchor="start" x="984" y="-96.5" font-family="Helvetica,sans-Serif" font-size="10.00">/status_indicators/status</text>
<text text-anchor="middle" x="1044" y="-85.5" font-family="Helvetica,sans-Serif" font-size="10.00">_indicators.hpp</text>
</a>
</g>
</g>
<!-- Node1&#45;&gt;Node10 -->
<g id="edge9" class="edge">
<title>Node1&#45;&gt;Node10</title>
<path fill="none" stroke="midnightblue" d="M839.14,-153.89C880.13,-143.11 933.54,-129.06 975.55,-118.01"/>
<polygon fill="midnightblue" stroke="midnightblue" points="838.05,-150.56 829.27,-156.49 839.83,-157.33 838.05,-150.56"/>
</g>
<!-- Node12 -->
<g id="node12" class="node">
<title>Node12</title>
<g id="a_node12"><a xlink:href="test__dummies_8hpp.xhtml" target="_top" xlink:title=" ">
<polygon fill="white" stroke="black" points="700.5,-89.5 700.5,-108.5 851.5,-108.5 851.5,-89.5 700.5,-89.5"/>
<text text-anchor="middle" x="776" y="-96.5" font-family="Helvetica,sans-Serif" font-size="10.00">test/hmi/test_dummies.hpp</text>
</a>
</g>
</g>
<!-- Node1&#45;&gt;Node12 -->
<g id="edge12" class="edge">
<title>Node1&#45;&gt;Node12</title>
<path fill="none" stroke="midnightblue" d="M776,-146.09C776,-133.21 776,-118.2 776,-108.89"/>
<polygon fill="midnightblue" stroke="midnightblue" points="772.5,-146.23 776,-156.23 779.5,-146.23 772.5,-146.23"/>
</g>
<!-- Node3 -->
<g id="node3" class="node">
<title>Node3</title>
<g id="a_node3"><a xlink:href="framework__adapter_8cpp.xhtml" target="_top" xlink:title=" ">
<polygon fill="white" stroke="black" points="0,-6 0,-36 176,-36 176,-6 0,-6"/>
<text text-anchor="start" x="8" y="-24" font-family="Helvetica,sans-Serif" font-size="10.00">lib/3rd_party_adapters</text>
<text text-anchor="middle" x="88" y="-13" font-family="Helvetica,sans-Serif" font-size="10.00">/Arduino/framework_adapter.cpp</text>
</a>
</g>
</g>
<!-- Node2&#45;&gt;Node3 -->
<g id="edge2" class="edge">
<title>Node2&#45;&gt;Node3</title>
<path fill="none" stroke="midnightblue" d="M565.32,-91.55C478.9,-82.43 319.78,-64.36 185,-42 174.48,-40.26 163.37,-38.18 152.57,-36.04"/>
<polygon fill="midnightblue" stroke="midnightblue" points="565.19,-95.05 575.5,-92.61 565.92,-88.09 565.19,-95.05"/>
</g>
<!-- Node4 -->
<g id="node4" class="node">
<title>Node4</title>
<g id="a_node4"><a xlink:href="display__factory__interface_8cpp.xhtml" target="_top" xlink:title=" ">
<polygon fill="white" stroke="black" points="194,-0.5 194,-41.5 320,-41.5 320,-0.5 194,-0.5"/>
<text text-anchor="start" x="202" y="-29.5" font-family="Helvetica,sans-Serif" font-size="10.00">lib/3rd_party_adapters</text>
<text text-anchor="start" x="202" y="-18.5" font-family="Helvetica,sans-Serif" font-size="10.00">/LVGL/display_factory</text>
<text text-anchor="middle" x="257" y="-7.5" font-family="Helvetica,sans-Serif" font-size="10.00">_interface.cpp</text>
</a>
</g>
</g>
<!-- Node2&#45;&gt;Node4 -->
<g id="edge3" class="edge">
<title>Node2&#45;&gt;Node4</title>
<path fill="none" stroke="midnightblue" d="M565.09,-87.72C504.13,-77.52 409.87,-60.74 329,-42 326.09,-41.33 323.13,-40.61 320.14,-39.87"/>
<polygon fill="midnightblue" stroke="midnightblue" points="564.89,-91.23 575.33,-89.42 566.04,-84.33 564.89,-91.23"/>
</g>
<!-- Node5 -->
<g id="node5" class="node">
<title>Node5</title>
<g id="a_node5"><a xlink:href="Keypad_8cpp.xhtml" target="_top" xlink:title=" ">
<polygon fill="white" stroke="black" points="338.5,-0.5 338.5,-41.5 469.5,-41.5 469.5,-0.5 338.5,-0.5"/>
<text text-anchor="start" x="346.5" y="-29.5" font-family="Helvetica,sans-Serif" font-size="10.00">lib/board_adapters</text>
<text text-anchor="start" x="346.5" y="-18.5" font-family="Helvetica,sans-Serif" font-size="10.00">/input_device_interface</text>
<text text-anchor="middle" x="404" y="-7.5" font-family="Helvetica,sans-Serif" font-size="10.00">/Keypad.cpp</text>
</a>
</g>
</g>
<!-- Node2&#45;&gt;Node5 -->
<g id="edge4" class="edge">
<title>Node2&#45;&gt;Node5</title>
<path fill="none" stroke="midnightblue" d="M577.59,-80.64C543.09,-68.98 497.58,-53.61 461.82,-41.53"/>
<polygon fill="midnightblue" stroke="midnightblue" points="576.88,-84.09 587.47,-83.97 579.12,-77.46 576.88,-84.09"/>
</g>
<!-- Node6 -->
<g id="node6" class="node">
<title>Node6</title>
<g id="a_node6"><a xlink:href="sound__output_8cpp.xhtml" target="_top" xlink:title=" ">
<polygon fill="white" stroke="black" points="488,-0.5 488,-41.5 622,-41.5 622,-0.5 488,-0.5"/>
<text text-anchor="start" x="496" y="-29.5" font-family="Helvetica,sans-Serif" font-size="10.00">lib/board_adapters</text>
<text text-anchor="start" x="496" y="-18.5" font-family="Helvetica,sans-Serif" font-size="10.00">/sound_output_interface</text>
<text text-anchor="middle" x="555" y="-7.5" font-family="Helvetica,sans-Serif" font-size="10.00">/sound_output.cpp</text>
</a>
</g>
</g>
<!-- Node2&#45;&gt;Node6 -->
<g id="edge5" class="edge">
<title>Node2&#45;&gt;Node6</title>
<path fill="none" stroke="midnightblue" d="M607.8,-76.23C597.2,-65.34 584.47,-52.26 574.16,-41.68"/>
<polygon fill="midnightblue" stroke="midnightblue" points="605.6,-78.98 615.08,-83.7 610.61,-74.1 605.6,-78.98"/>
</g>
<!-- Node7 -->
<g id="node7" class="node">
<title>Node7</title>
<g id="a_node7"><a xlink:href="statusindicators__factory__interface_8cpp.xhtml" target="_top" xlink:title=" ">
<polygon fill="white" stroke="black" points="952,-0.5 952,-41.5 1136,-41.5 1136,-0.5 952,-0.5"/>
<text text-anchor="start" x="960" y="-29.5" font-family="Helvetica,sans-Serif" font-size="10.00">lib/board_adapters</text>
<text text-anchor="start" x="960" y="-18.5" font-family="Helvetica,sans-Serif" font-size="10.00">/status_indicators/statusindicators</text>
<text text-anchor="middle" x="1044" y="-7.5" font-family="Helvetica,sans-Serif" font-size="10.00">_factory_interface.cpp</text>
</a>
</g>
</g>
<!-- Node2&#45;&gt;Node7 -->
<g id="edge6" class="edge">
<title>Node2&#45;&gt;Node7</title>
<path fill="none" stroke="midnightblue" d="M678.69,-81.16C682.83,-80 686.97,-78.93 691,-78 801.24,-52.54 831.47,-61 943,-42 945.91,-41.5 948.86,-40.99 951.84,-40.46"/>
<polygon fill="midnightblue" stroke="midnightblue" points="677.69,-77.8 669.08,-83.98 679.66,-84.52 677.69,-77.8"/>
</g>
<!-- Node8 -->
<g id="node8" class="node">
<title>Node8</title>
<g id="a_node8"><a xlink:href="test__dummies_8cpp.xhtml" target="_top" xlink:title=" ">
<polygon fill="white" stroke="black" points="784,-11.5 784,-30.5 934,-30.5 934,-11.5 784,-11.5"/>
<text text-anchor="middle" x="859" y="-18.5" font-family="Helvetica,sans-Serif" font-size="10.00">test/hmi/test_dummies.cpp</text>
</a>
</g>
</g>
<!-- Node2&#45;&gt;Node8 -->
<g id="edge7" class="edge">
<title>Node2&#45;&gt;Node8</title>
<path fill="none" stroke="midnightblue" d="M681.24,-80.74C728.65,-65.07 796.58,-42.63 833.21,-30.52"/>
<polygon fill="midnightblue" stroke="midnightblue" points="679.85,-77.51 671.45,-83.97 682.05,-84.16 679.85,-77.51"/>
</g>
<!-- Node9 -->
<g id="node9" class="node">
<title>Node9</title>
<g id="a_node9"><a xlink:href="test__hmi_8cpp.xhtml" target="_top" xlink:title=" ">
<polygon fill="white" stroke="black" points="640.5,-6 640.5,-36 765.5,-36 765.5,-6 640.5,-6"/>
<text text-anchor="start" x="648.5" y="-24" font-family="Helvetica,sans-Serif" font-size="10.00">test/hmi/test_hmi/test</text>
<text text-anchor="middle" x="703" y="-13" font-family="Helvetica,sans-Serif" font-size="10.00">_hmi.cpp</text>
</a>
</g>
</g>
<!-- Node2&#45;&gt;Node9 -->
<g id="edge8" class="edge">
<title>Node2&#45;&gt;Node9</title>
<path fill="none" stroke="midnightblue" d="M649.9,-76.53C662.46,-63.63 678.1,-47.57 689.14,-36.23"/>
<polygon fill="midnightblue" stroke="midnightblue" points="647.39,-74.1 642.92,-83.7 652.4,-78.98 647.39,-74.1"/>
</g>
<!-- Node10&#45;&gt;Node7 -->
<g id="edge11" class="edge">
<title>Node10&#45;&gt;Node7</title>
<path fill="none" stroke="midnightblue" d="M1044,-68.3C1044,-59.3 1044,-49.65 1044,-41.51"/>
<polygon fill="midnightblue" stroke="midnightblue" points="1040.5,-68.43 1044,-78.43 1047.5,-68.43 1040.5,-68.43"/>
</g>
<!-- Node11 -->
<g id="node11" class="node">
<title>Node11</title>
<g id="a_node11"><a xlink:href="status__indicators_8cpp.xhtml" target="_top" xlink:title=" ">
<polygon fill="white" stroke="black" points="1154,-0.5 1154,-41.5 1290,-41.5 1290,-0.5 1154,-0.5"/>
<text text-anchor="start" x="1162" y="-29.5" font-family="Helvetica,sans-Serif" font-size="10.00">lib/board_adapters</text>
<text text-anchor="start" x="1162" y="-18.5" font-family="Helvetica,sans-Serif" font-size="10.00">/status_indicators/status</text>
<text text-anchor="middle" x="1222" y="-7.5" font-family="Helvetica,sans-Serif" font-size="10.00">_indicators.cpp</text>
</a>
</g>
</g>
<!-- Node10&#45;&gt;Node11 -->
<g id="edge10" class="edge">
<title>Node10&#45;&gt;Node11</title>
<path fill="none" stroke="midnightblue" d="M1099.11,-74.47C1123.88,-63.89 1152.77,-51.56 1176.32,-41.51"/>
<polygon fill="midnightblue" stroke="midnightblue" points="1097.66,-71.28 1089.84,-78.43 1100.41,-77.72 1097.66,-71.28"/>
</g>
<!-- Node12&#45;&gt;Node8 -->
<g id="edge13" class="edge">
<title>Node12&#45;&gt;Node8</title>
<path fill="none" stroke="midnightblue" d="M793.14,-82.3C810.25,-66.64 835.9,-43.16 849.59,-30.62"/>
<polygon fill="midnightblue" stroke="midnightblue" points="790.53,-79.95 785.52,-89.28 795.26,-85.11 790.53,-79.95"/>
</g>
<!-- Node12&#45;&gt;Node9 -->
<g id="edge14" class="edge">
<title>Node12&#45;&gt;Node9</title>
<path fill="none" stroke="midnightblue" d="M760.65,-82.02C747.58,-68.41 728.97,-49.04 716.47,-36.02"/>
<polygon fill="midnightblue" stroke="midnightblue" points="758.17,-84.49 767.63,-89.28 763.22,-79.65 758.17,-84.49"/>
</g>
</g>
</svg>
