<?xml version="1.0" encoding="UTF-8" standalone="no"?>
<!DOCTYPE svg PUBLIC "-//W3C//DTD SVG 1.1//EN"
 "http://www.w3.org/Graphics/SVG/1.1/DTD/svg11.dtd">
<!-- Generated by graphviz version 2.43.0 (0)
 -->
<!-- Title: lib/board_adapters/board_types.hpp Pages: 1 -->
<svg width="1442pt" height="195pt"
 viewBox="0.00 0.00 1442.00 195.00" xmlns="http://www.w3.org/2000/svg" xmlns:xlink="http://www.w3.org/1999/xlink">
<g id="graph0" class="graph" transform="scale(1 1) rotate(0) translate(4 191)">
<title>lib/board_adapters/board_types.hpp</title>
<polygon fill="white" stroke="transparent" points="-4,4 -4,-191 1438,-191 1438,4 -4,4"/>
<!-- Node1 -->
<g id="node1" class="node">
<title>Node1</title>
<g id="a_node1"><a xlink:title=" ">
<polygon fill="#bfbfbf" stroke="black" points="816.5,-156.5 816.5,-186.5 923.5,-186.5 923.5,-156.5 816.5,-156.5"/>
<text text-anchor="start" x="824.5" y="-174.5" font-family="Helvetica,sans-Serif" font-size="10.00">lib/board_adapters</text>
<text text-anchor="middle" x="870" y="-163.5" font-family="Helvetica,sans-Serif" font-size="10.00">/board_types.hpp</text>
</a>
</g>
</g>
<!-- Node2 -->
<g id="node2" class="node">
<title>Node2</title>
<g id="a_node2"><a xlink:href="board__pins_8hpp.xhtml" target="_top" xlink:title="Provides named objects for the pins provided by the board.">
<polygon fill="white" stroke="black" points="661.5,-84 661.5,-114 768.5,-114 768.5,-84 661.5,-84"/>
<text text-anchor="start" x="669.5" y="-102" font-family="Helvetica,sans-Serif" font-size="10.00">lib/board_adapters</text>
<text text-anchor="middle" x="715" y="-91" font-family="Helvetica,sans-Serif" font-size="10.00">/board_pins.hpp</text>
</a>
</g>
</g>
<!-- Node1&#45;&gt;Node2 -->
<g id="edge1" class="edge">
<title>Node1&#45;&gt;Node2</title>
<path fill="none" stroke="midnightblue" d="M829.74,-152.19C803.58,-140.29 770,-125.02 745.94,-114.07"/>
<polygon fill="midnightblue" stroke="midnightblue" points="828.45,-155.45 839.01,-156.4 831.35,-149.08 828.45,-155.45"/>
</g>
<!-- Node11 -->
<g id="node11" class="node">
<title>Node11</title>
<g id="a_node11"><a xlink:href="status__indicators_8hpp.xhtml" target="_top" xlink:title=" ">
<polygon fill="white" stroke="black" points="1120,-78.5 1120,-119.5 1256,-119.5 1256,-78.5 1120,-78.5"/>
<text text-anchor="start" x="1128" y="-107.5" font-family="Helvetica,sans-Serif" font-size="10.00">lib/board_adapters</text>
<text text-anchor="start" x="1128" y="-96.5" font-family="Helvetica,sans-Serif" font-size="10.00">/status_indicators/status</text>
<text text-anchor="middle" x="1188" y="-85.5" font-family="Helvetica,sans-Serif" font-size="10.00">_indicators.hpp</text>
</a>
</g>
</g>
<!-- Node1&#45;&gt;Node11 -->
<g id="edge10" class="edge">
<title>Node1&#45;&gt;Node11</title>
<path fill="none" stroke="midnightblue" d="M933.37,-156.45C987.27,-144.5 1064.51,-127.38 1119.76,-115.13"/>
<polygon fill="midnightblue" stroke="midnightblue" points="932.59,-153.04 923.58,-158.62 934.11,-159.87 932.59,-153.04"/>
</g>
<!-- Node13 -->
<g id="node13" class="node">
<title>Node13</title>
<g id="a_node13"><a xlink:href="test__dummies_8hpp.xhtml" target="_top" xlink:title=" ">
<polygon fill="white" stroke="black" points="794.5,-89.5 794.5,-108.5 945.5,-108.5 945.5,-89.5 794.5,-89.5"/>
<text text-anchor="middle" x="870" y="-96.5" font-family="Helvetica,sans-Serif" font-size="10.00">test/hmi/test_dummies.hpp</text>
</a>
</g>
</g>
<!-- Node1&#45;&gt;Node13 -->
<g id="edge13" class="edge">
<title>Node1&#45;&gt;Node13</title>
<path fill="none" stroke="midnightblue" d="M870,-146.09C870,-133.21 870,-118.2 870,-108.89"/>
<polygon fill="midnightblue" stroke="midnightblue" points="866.5,-146.23 870,-156.23 873.5,-146.23 866.5,-146.23"/>
</g>
<!-- Node3 -->
<g id="node3" class="node">
<title>Node3</title>
<g id="a_node3"><a xlink:href="framework__adapter_8cpp.xhtml" target="_top" xlink:title=" ">
<polygon fill="white" stroke="black" points="152,-6 152,-36 328,-36 328,-6 152,-6"/>
<text text-anchor="start" x="160" y="-24" font-family="Helvetica,sans-Serif" font-size="10.00">lib/3rd_party_adapters</text>
<text text-anchor="middle" x="240" y="-13" font-family="Helvetica,sans-Serif" font-size="10.00">/Arduino/framework_adapter.cpp</text>
</a>
</g>
</g>
<!-- Node2&#45;&gt;Node3 -->
<g id="edge2" class="edge">
<title>Node2&#45;&gt;Node3</title>
<path fill="none" stroke="midnightblue" d="M651.06,-89.64C575.75,-79.55 446.96,-61.47 337,-42 326.76,-40.19 315.94,-38.11 305.39,-36"/>
<polygon fill="midnightblue" stroke="midnightblue" points="650.95,-93.16 661.33,-91.02 651.88,-86.22 650.95,-93.16"/>
</g>
<!-- Node4 -->
<g id="node4" class="node">
<title>Node4</title>
<g id="a_node4"><a xlink:href="display__factory__interface_8cpp.xhtml" target="_top" xlink:title=" ">
<polygon fill="white" stroke="black" points="346,-0.5 346,-41.5 472,-41.5 472,-0.5 346,-0.5"/>
<text text-anchor="start" x="354" y="-29.5" font-family="Helvetica,sans-Serif" font-size="10.00">lib/3rd_party_adapters</text>
<text text-anchor="start" x="354" y="-18.5" font-family="Helvetica,sans-Serif" font-size="10.00">/LVGL/display_factory</text>
<text text-anchor="middle" x="409" y="-7.5" font-family="Helvetica,sans-Serif" font-size="10.00">_interface.cpp</text>
</a>
</g>
</g>
<!-- Node2&#45;&gt;Node4 -->
<g id="edge3" class="edge">
<title>Node2&#45;&gt;Node4</title>
<path fill="none" stroke="midnightblue" d="M651.66,-83.49C604.49,-72.53 538.58,-56.88 481,-42 478.11,-41.25 475.16,-40.48 472.18,-39.69"/>
<polygon fill="midnightblue" stroke="midnightblue" points="650.89,-86.91 661.43,-85.76 652.47,-80.09 650.89,-86.91"/>
</g>
<!-- Node5 -->
<g id="node5" class="node">
<title>Node5</title>
<g id="a_node5"><a xlink:href="Keypad_8cpp.xhtml" target="_top" xlink:title=" ">
<polygon fill="white" stroke="black" points="490.5,-0.5 490.5,-41.5 621.5,-41.5 621.5,-0.5 490.5,-0.5"/>
<text text-anchor="start" x="498.5" y="-29.5" font-family="Helvetica,sans-Serif" font-size="10.00">lib/board_adapters</text>
<text text-anchor="start" x="498.5" y="-18.5" font-family="Helvetica,sans-Serif" font-size="10.00">/input_device_interface</text>
<text text-anchor="middle" x="556" y="-7.5" font-family="Helvetica,sans-Serif" font-size="10.00">/Keypad.cpp</text>
</a>
</g>
</g>
<!-- Node2&#45;&gt;Node5 -->
<g id="edge4" class="edge">
<title>Node2&#45;&gt;Node5</title>
<path fill="none" stroke="midnightblue" d="M676.3,-79.5C652.3,-68.03 621.49,-53.3 597.06,-41.63"/>
<polygon fill="midnightblue" stroke="midnightblue" points="674.93,-82.73 685.47,-83.88 677.95,-76.41 674.93,-82.73"/>
</g>
<!-- Node6 -->
<g id="node6" class="node">
<title>Node6</title>
<g id="a_node6"><a xlink:href="sound__output_8cpp.xhtml" target="_top" xlink:title=" ">
<polygon fill="white" stroke="black" points="0,-0.5 0,-41.5 134,-41.5 134,-0.5 0,-0.5"/>
<text text-anchor="start" x="8" y="-29.5" font-family="Helvetica,sans-Serif" font-size="10.00">lib/board_adapters</text>
<text text-anchor="start" x="8" y="-18.5" font-family="Helvetica,sans-Serif" font-size="10.00">/sound_output_interface</text>
<text text-anchor="middle" x="67" y="-7.5" font-family="Helvetica,sans-Serif" font-size="10.00">/sound_output.cpp</text>
</a>
</g>
</g>
<!-- Node2&#45;&gt;Node6 -->
<g id="edge5" class="edge">
<title>Node2&#45;&gt;Node6</title>
<path fill="none" stroke="midnightblue" d="M651.15,-95.08C544.98,-89.49 325.73,-74.77 143,-42 140.05,-41.47 137.04,-40.88 134.01,-40.25"/>
<polygon fill="midnightblue" stroke="midnightblue" points="651.21,-98.59 661.38,-95.61 651.57,-91.6 651.21,-98.59"/>
</g>
<!-- Node7 -->
<g id="node7" class="node">
<title>Node7</title>
<g id="a_node7"><a xlink:href="statusindicators__factory__interface_8cpp.xhtml" target="_top" xlink:title=" ">
<polygon fill="white" stroke="black" points="1096,-0.5 1096,-41.5 1280,-41.5 1280,-0.5 1096,-0.5"/>
<text text-anchor="start" x="1104" y="-29.5" font-family="Helvetica,sans-Serif" font-size="10.00">lib/board_adapters</text>
<text text-anchor="start" x="1104" y="-18.5" font-family="Helvetica,sans-Serif" font-size="10.00">/status_indicators/statusindicators</text>
<text text-anchor="middle" x="1188" y="-7.5" font-family="Helvetica,sans-Serif" font-size="10.00">_factory_interface.cpp</text>
</a>
</g>
</g>
<!-- Node2&#45;&gt;Node7 -->
<g id="edge6" class="edge">
<title>Node2&#45;&gt;Node7</title>
<path fill="none" stroke="midnightblue" d="M770.36,-81.31C775.29,-80.09 780.22,-78.96 785,-78 917.52,-51.35 953.49,-63.14 1087,-42 1089.91,-41.54 1092.87,-41.05 1095.85,-40.55"/>
<polygon fill="midnightblue" stroke="midnightblue" points="769.1,-78.02 760.3,-83.92 770.86,-84.79 769.1,-78.02"/>
</g>
<!-- Node8 -->
<g id="node8" class="node">
<title>Node8</title>
<g id="a_node8"><a xlink:href="test__dummies_8cpp.xhtml" target="_top" xlink:title=" ">
<polygon fill="white" stroke="black" points="640,-11.5 640,-30.5 790,-30.5 790,-11.5 640,-11.5"/>
<text text-anchor="middle" x="715" y="-18.5" font-family="Helvetica,sans-Serif" font-size="10.00">test/hmi/test_dummies.cpp</text>
</a>
</g>
</g>
<!-- Node2&#45;&gt;Node8 -->
<g id="edge7" class="edge">
<title>Node2&#45;&gt;Node8</title>
<path fill="none" stroke="midnightblue" d="M715,-73.67C715,-58.9 715,-40.95 715,-30.56"/>
<polygon fill="midnightblue" stroke="midnightblue" points="711.5,-73.7 715,-83.7 718.5,-73.71 711.5,-73.7"/>
</g>
<!-- Node9 -->
<g id="node9" class="node">
<title>Node9</title>
<g id="a_node9"><a xlink:href="test__hmi_8cpp.xhtml" target="_top" xlink:title=" ">
<polygon fill="white" stroke="black" points="807.5,-6 807.5,-36 932.5,-36 932.5,-6 807.5,-6"/>
<text text-anchor="start" x="815.5" y="-24" font-family="Helvetica,sans-Serif" font-size="10.00">test/hmi/test_hmi/test</text>
<text text-anchor="middle" x="870" y="-13" font-family="Helvetica,sans-Serif" font-size="10.00">_hmi.cpp</text>
</a>
</g>
</g>
<!-- Node2&#45;&gt;Node9 -->
<g id="edge8" class="edge">
<title>Node2&#45;&gt;Node9</title>
<path fill="none" stroke="midnightblue" d="M753.04,-79.35C780.32,-65.97 816.51,-48.23 841.36,-36.04"/>
<polygon fill="midnightblue" stroke="midnightblue" points="751.23,-76.34 743.79,-83.88 754.31,-82.62 751.23,-76.34"/>
</g>
<!-- Node10 -->
<g id="node10" class="node">
<title>Node10</title>
<g id="a_node10"><a xlink:href="test__keyState_8cpp.xhtml" target="_top" xlink:title=" ">
<polygon fill="white" stroke="black" points="950.5,-6 950.5,-36 1077.5,-36 1077.5,-6 950.5,-6"/>
<text text-anchor="start" x="958.5" y="-24" font-family="Helvetica,sans-Serif" font-size="10.00">test/hmi/test_keyState</text>
<text text-anchor="middle" x="1014" y="-13" font-family="Helvetica,sans-Serif" font-size="10.00">/test_keyState.cpp</text>
</a>
</g>
</g>
<!-- Node2&#45;&gt;Node10 -->
<g id="edge9" class="edge">
<title>Node2&#45;&gt;Node10</title>
<path fill="none" stroke="midnightblue" d="M772.54,-81.3C776.75,-80.16 780.94,-79.05 785,-78 854.33,-60.16 872.6,-59.58 942,-42 949.29,-40.15 956.98,-38.11 964.5,-36.07"/>
<polygon fill="midnightblue" stroke="midnightblue" points="771.44,-77.97 762.73,-84 773.3,-84.72 771.44,-77.97"/>
</g>
<!-- Node11&#45;&gt;Node7 -->
<g id="edge12" class="edge">
<title>Node11&#45;&gt;Node7</title>
<path fill="none" stroke="midnightblue" d="M1188,-68.3C1188,-59.3 1188,-49.65 1188,-41.51"/>
<polygon fill="midnightblue" stroke="midnightblue" points="1184.5,-68.43 1188,-78.43 1191.5,-68.43 1184.5,-68.43"/>
</g>
<!-- Node12 -->
<g id="node12" class="node">
<title>Node12</title>
<g id="a_node12"><a xlink:href="status__indicators_8cpp.xhtml" target="_top" xlink:title=" ">
<polygon fill="white" stroke="black" points="1298,-0.5 1298,-41.5 1434,-41.5 1434,-0.5 1298,-0.5"/>
<text text-anchor="start" x="1306" y="-29.5" font-family="Helvetica,sans-Serif" font-size="10.00">lib/board_adapters</text>
<text text-anchor="start" x="1306" y="-18.5" font-family="Helvetica,sans-Serif" font-size="10.00">/status_indicators/status</text>
<text text-anchor="middle" x="1366" y="-7.5" font-family="Helvetica,sans-Serif" font-size="10.00">_indicators.cpp</text>
</a>
</g>
</g>
<!-- Node11&#45;&gt;Node12 -->
<g id="edge11" class="edge">
<title>Node11&#45;&gt;Node12</title>
<path fill="none" stroke="midnightblue" d="M1243.11,-74.47C1267.88,-63.89 1296.77,-51.56 1320.32,-41.51"/>
<polygon fill="midnightblue" stroke="midnightblue" points="1241.66,-71.28 1233.84,-78.43 1244.41,-77.72 1241.66,-71.28"/>
</g>
<!-- Node13&#45;&gt;Node8 -->
<g id="edge14" class="edge">
<title>Node13&#45;&gt;Node8</title>
<path fill="none" stroke="midnightblue" d="M843.4,-84.96C811.73,-69.43 759.74,-43.94 732.65,-30.66"/>
<polygon fill="midnightblue" stroke="midnightblue" points="842,-88.17 852.52,-89.43 845.08,-81.88 842,-88.17"/>
</g>
<!-- Node13&#45;&gt;Node9 -->
<g id="edge15" class="edge">
<title>Node13&#45;&gt;Node9</title>
<path fill="none" stroke="midnightblue" d="M870,-79.28C870,-65.9 870,-48.19 870,-36.02"/>
<polygon fill="midnightblue" stroke="midnightblue" points="866.5,-79.28 870,-89.28 873.5,-79.28 866.5,-79.28"/>
</g>
<!-- Node13&#45;&gt;Node10 -->
<g id="edge16" class="edge">
<title>Node13&#45;&gt;Node10</title>
<path fill="none" stroke="midnightblue" d="M895.39,-84.6C921.21,-70.97 961.05,-49.95 987.32,-36.08"/>
<polygon fill="midnightblue" stroke="midnightblue" points="893.45,-81.67 886.24,-89.43 896.72,-87.86 893.45,-81.67"/>
</g>
</g>
</svg>
