<?xml version="1.0" encoding="UTF-8" standalone="no"?>
<!DOCTYPE svg PUBLIC "-//W3C//DTD SVG 1.1//EN"
 "http://www.w3.org/Graphics/SVG/1.1/DTD/svg11.dtd">
<!-- Generated by graphviz version 2.43.0 (0)
 -->
<!-- Title: IKeypad Pages: 1 -->
<svg width="108pt" height="204pt"
 viewBox="0.00 0.00 108.00 204.00" xmlns="http://www.w3.org/2000/svg" xmlns:xlink="http://www.w3.org/1999/xlink">
<g id="graph0" class="graph" transform="scale(1 1) rotate(0) translate(4 200)">
<title>IKeypad</title>
<polygon fill="white" stroke="transparent" points="-4,4 -4,-200 104,-200 104,4 -4,4"/>
<!-- Node1 -->
<g id="node1" class="node">
<title>Node1</title>
<g id="a_node1"><a xlink:title="Interface to an human input device.">
<polygon fill="#bfbfbf" stroke="black" points="0,-116.5 0,-195.5 100,-195.5 100,-116.5 0,-116.5"/>
<text text-anchor="middle" x="50" y="-183.5" font-family="Helvetica,sans-Serif" font-size="10.00">IKeypad</text>
<polyline fill="none" stroke="black" points="0,-176.5 100,-176.5 "/>
<text text-anchor="middle" x="50" y="-164.5" font-family="Helvetica,sans-Serif" font-size="10.00"> </text>
<polyline fill="none" stroke="black" points="0,-157.5 100,-157.5 "/>
<text text-anchor="start" x="8" y="-145.5" font-family="Helvetica,sans-Serif" font-size="10.00">+ setCallback()</text>
<text text-anchor="start" x="8" y="-134.5" font-family="Helvetica,sans-Serif" font-size="10.00">+ isKeyPressed()</text>
<text text-anchor="start" x="8" y="-123.5" font-family="Helvetica,sans-Serif" font-size="10.00">+ ~IKeypad()</text>
</a>
</g>
</g>
<!-- Node2 -->
<g id="node2" class="node">
<title>Node2</title>
<g id="a_node2"><a xlink:href="classKeypad.xhtml" target="_top" xlink:title=" ">
<polygon fill="white" stroke="black" points="0,-0.5 0,-79.5 100,-79.5 100,-0.5 0,-0.5"/>
<text text-anchor="middle" x="50" y="-67.5" font-family="Helvetica,sans-Serif" font-size="10.00">Keypad</text>
<polyline fill="none" stroke="black" points="0,-60.5 100,-60.5 "/>
<text text-anchor="middle" x="50" y="-48.5" font-family="Helvetica,sans-Serif" font-size="10.00"> </text>
<polyline fill="none" stroke="black" points="0,-41.5 100,-41.5 "/>
<text text-anchor="start" x="8" y="-29.5" font-family="Helvetica,sans-Serif" font-size="10.00">+ Keypad()</text>
<text text-anchor="start" x="8" y="-18.5" font-family="Helvetica,sans-Serif" font-size="10.00">+ setCallback()</text>
<text text-anchor="start" x="8" y="-7.5" font-family="Helvetica,sans-Serif" font-size="10.00">+ isKeyPressed()</text>
</a>
</g>
</g>
<!-- Node1&#45;&gt;Node2 -->
<g id="edge1" class="edge">
<title>Node1&#45;&gt;Node2</title>
<path fill="none" stroke="midnightblue" d="M50,-106.15C50,-97.26 50,-88.1 50,-79.56"/>
<polygon fill="none" stroke="midnightblue" points="46.5,-106.4 50,-116.4 53.5,-106.4 46.5,-106.4"/>
</g>
</g>
</svg>
