<?xml version="1.0" encoding="UTF-8" standalone="no"?>
<!DOCTYPE svg PUBLIC "-//W3C//DTD SVG 1.1//EN"
 "http://www.w3.org/Graphics/SVG/1.1/DTD/svg11.dtd">
<!-- Generated by graphviz version 2.43.0 (0)
 -->
<!-- Title: lib/application_business_rules/serial_interface/command_line_interpreter.hpp Pages: 1 -->
<svg width="524pt" height="162pt"
 viewBox="0.00 0.00 524.00 162.00" xmlns="http://www.w3.org/2000/svg" xmlns:xlink="http://www.w3.org/1999/xlink">
<g id="graph0" class="graph" transform="scale(1 1) rotate(0) translate(4 158)">
<title>lib/application_business_rules/serial_interface/command_line_interpreter.hpp</title>
<polygon fill="white" stroke="transparent" points="-4,4 -4,-158 520,-158 520,4 -4,4"/>
<!-- Node1 -->
<g id="node1" class="node">
<title>Node1</title>
<g id="a_node1"><a xlink:title=" ">
<polygon fill="#bfbfbf" stroke="black" points="159,-112.5 159,-153.5 328,-153.5 328,-112.5 159,-112.5"/>
<text text-anchor="start" x="167" y="-141.5" font-family="Helvetica,sans-Serif" font-size="10.00">lib/application_business</text>
<text text-anchor="start" x="167" y="-130.5" font-family="Helvetica,sans-Serif" font-size="10.00">_rules/serial_interface</text>
<text text-anchor="middle" x="243.5" y="-119.5" font-family="Helvetica,sans-Serif" font-size="10.00">/command_line_interpreter.hpp</text>
</a>
</g>
</g>
<!-- Node2 -->
<g id="node2" class="node">
<title>Node2</title>
<g id="a_node2"><a xlink:title=" ">
<polygon fill="white" stroke="#bfbfbf" points="0,-56.5 0,-75.5 65,-75.5 65,-56.5 0,-56.5"/>
<text text-anchor="middle" x="32.5" y="-63.5" font-family="Helvetica,sans-Serif" font-size="10.00">functional</text>
</a>
</g>
</g>
<!-- Node1&#45;&gt;Node2 -->
<g id="edge1" class="edge">
<title>Node1&#45;&gt;Node2</title>
<path fill="none" stroke="midnightblue" d="M180.19,-112.5C144.31,-101.44 100.64,-87.99 70.12,-78.59"/>
<polygon fill="midnightblue" stroke="midnightblue" points="70.9,-75.17 60.31,-75.57 68.84,-81.86 70.9,-75.17"/>
</g>
<!-- Node3 -->
<g id="node3" class="node">
<title>Node3</title>
<g id="a_node3"><a xlink:title=" ">
<polygon fill="white" stroke="#bfbfbf" points="83.5,-56.5 83.5,-75.5 143.5,-75.5 143.5,-56.5 83.5,-56.5"/>
<text text-anchor="middle" x="113.5" y="-63.5" font-family="Helvetica,sans-Serif" font-size="10.00">iostream</text>
</a>
</g>
</g>
<!-- Node1&#45;&gt;Node3 -->
<g id="edge2" class="edge">
<title>Node1&#45;&gt;Node3</title>
<path fill="none" stroke="midnightblue" d="M204.5,-112.5C183.61,-102.05 158.43,-89.46 139.86,-80.18"/>
<polygon fill="midnightblue" stroke="midnightblue" points="141.31,-76.99 130.8,-75.65 138.18,-83.26 141.31,-76.99"/>
</g>
<!-- Node4 -->
<g id="node4" class="node">
<title>Node4</title>
<g id="a_node4"><a xlink:title=" ">
<polygon fill="white" stroke="#bfbfbf" points="162,-56.5 162,-75.5 215,-75.5 215,-56.5 162,-56.5"/>
<text text-anchor="middle" x="188.5" y="-63.5" font-family="Helvetica,sans-Serif" font-size="10.00">iterator</text>
</a>
</g>
</g>
<!-- Node1&#45;&gt;Node4 -->
<g id="edge3" class="edge">
<title>Node1&#45;&gt;Node4</title>
<path fill="none" stroke="midnightblue" d="M227,-112.5C219.13,-103.2 209.83,-92.21 202.34,-83.36"/>
<polygon fill="midnightblue" stroke="midnightblue" points="204.95,-81.03 195.82,-75.65 199.61,-85.55 204.95,-81.03"/>
</g>
<!-- Node5 -->
<g id="node5" class="node">
<title>Node5</title>
<g id="a_node5"><a xlink:title=" ">
<polygon fill="white" stroke="#bfbfbf" points="175,-0.5 175,-19.5 240,-19.5 240,-0.5 175,-0.5"/>
<text text-anchor="middle" x="207.5" y="-7.5" font-family="Helvetica,sans-Serif" font-size="10.00">stdexcept</text>
</a>
</g>
</g>
<!-- Node1&#45;&gt;Node5 -->
<g id="edge4" class="edge">
<title>Node1&#45;&gt;Node5</title>
<path fill="none" stroke="midnightblue" d="M238.77,-112.19C234.98,-96.77 229.34,-74.9 223.5,-56 220.74,-47.08 217.32,-37.29 214.34,-29.13"/>
<polygon fill="midnightblue" stroke="midnightblue" points="217.55,-27.71 210.78,-19.55 210.98,-30.15 217.55,-27.71"/>
</g>
<!-- Node6 -->
<g id="node6" class="node">
<title>Node6</title>
<g id="a_node6"><a xlink:href="string__helpers_8hpp.xhtml" target="_top" xlink:title=" ">
<polygon fill="white" stroke="black" points="272,-56.5 272,-75.5 379,-75.5 379,-56.5 272,-56.5"/>
<text text-anchor="middle" x="325.5" y="-63.5" font-family="Helvetica,sans-Serif" font-size="10.00">string_helpers.hpp</text>
</a>
</g>
</g>
<!-- Node1&#45;&gt;Node6 -->
<g id="edge5" class="edge">
<title>Node1&#45;&gt;Node6</title>
<path fill="none" stroke="midnightblue" d="M268.1,-112.5C280.43,-102.72 295.13,-91.07 306.57,-82.01"/>
<polygon fill="midnightblue" stroke="midnightblue" points="308.92,-84.61 314.58,-75.65 304.57,-79.12 308.92,-84.61"/>
</g>
<!-- Node11 -->
<g id="node11" class="node">
<title>Node11</title>
<g id="a_node11"><a xlink:title=" ">
<polygon fill="white" stroke="#bfbfbf" points="397,-56.5 397,-75.5 438,-75.5 438,-56.5 397,-56.5"/>
<text text-anchor="middle" x="417.5" y="-63.5" font-family="Helvetica,sans-Serif" font-size="10.00">tuple</text>
</a>
</g>
</g>
<!-- Node1&#45;&gt;Node11 -->
<g id="edge11" class="edge">
<title>Node1&#45;&gt;Node11</title>
<path fill="none" stroke="midnightblue" d="M295.71,-112.5C325.58,-101.34 362,-87.73 387.19,-78.32"/>
<polygon fill="midnightblue" stroke="midnightblue" points="388.44,-81.59 396.58,-74.81 385.99,-75.03 388.44,-81.59"/>
</g>
<!-- Node12 -->
<g id="node12" class="node">
<title>Node12</title>
<g id="a_node12"><a xlink:title=" ">
<polygon fill="white" stroke="#bfbfbf" points="456,-56.5 456,-75.5 501,-75.5 501,-56.5 456,-56.5"/>
<text text-anchor="middle" x="478.5" y="-63.5" font-family="Helvetica,sans-Serif" font-size="10.00">utility</text>
</a>
</g>
</g>
<!-- Node1&#45;&gt;Node12 -->
<g id="edge12" class="edge">
<title>Node1&#45;&gt;Node12</title>
<path fill="none" stroke="midnightblue" d="M315.8,-112.43C352.4,-102.46 397.76,-90 446.12,-76.37"/>
<polygon fill="midnightblue" stroke="midnightblue" points="447.15,-79.71 455.82,-73.62 445.25,-72.97 447.15,-79.71"/>
</g>
<!-- Node6&#45;&gt;Node5 -->
<g id="edge8" class="edge">
<title>Node6&#45;&gt;Node5</title>
<path fill="none" stroke="midnightblue" d="M306.8,-56.44C287.56,-47.64 257.35,-33.81 235.3,-23.72"/>
<polygon fill="midnightblue" stroke="midnightblue" points="236.66,-20.5 226.11,-19.52 233.75,-26.86 236.66,-20.5"/>
</g>
<!-- Node7 -->
<g id="node7" class="node">
<title>Node7</title>
<g id="a_node7"><a xlink:title=" ">
<polygon fill="white" stroke="#bfbfbf" points="258.5,-0.5 258.5,-19.5 314.5,-19.5 314.5,-0.5 258.5,-0.5"/>
<text text-anchor="middle" x="286.5" y="-7.5" font-family="Helvetica,sans-Serif" font-size="10.00">iomanip</text>
</a>
</g>
</g>
<!-- Node6&#45;&gt;Node7 -->
<g id="edge6" class="edge">
<title>Node6&#45;&gt;Node7</title>
<path fill="none" stroke="midnightblue" d="M319.06,-56.08C313.55,-48.46 305.47,-37.26 298.74,-27.94"/>
<polygon fill="midnightblue" stroke="midnightblue" points="301.51,-25.81 292.82,-19.75 295.84,-29.91 301.51,-25.81"/>
</g>
<!-- Node8 -->
<g id="node8" class="node">
<title>Node8</title>
<g id="a_node8"><a xlink:title=" ">
<polygon fill="white" stroke="#bfbfbf" points="332.5,-0.5 332.5,-19.5 388.5,-19.5 388.5,-0.5 332.5,-0.5"/>
<text text-anchor="middle" x="360.5" y="-7.5" font-family="Helvetica,sans-Serif" font-size="10.00">sstream</text>
</a>
</g>
</g>
<!-- Node6&#45;&gt;Node8 -->
<g id="edge7" class="edge">
<title>Node6&#45;&gt;Node8</title>
<path fill="none" stroke="midnightblue" d="M331.28,-56.08C336.17,-48.53 343.33,-37.49 349.33,-28.23"/>
<polygon fill="midnightblue" stroke="midnightblue" points="352.33,-30.05 354.83,-19.75 346.45,-26.24 352.33,-30.05"/>
</g>
<!-- Node9 -->
<g id="node9" class="node">
<title>Node9</title>
<g id="a_node9"><a xlink:title=" ">
<polygon fill="white" stroke="#bfbfbf" points="406.5,-0.5 406.5,-19.5 450.5,-19.5 450.5,-0.5 406.5,-0.5"/>
<text text-anchor="middle" x="428.5" y="-7.5" font-family="Helvetica,sans-Serif" font-size="10.00">string</text>
</a>
</g>
</g>
<!-- Node6&#45;&gt;Node9 -->
<g id="edge9" class="edge">
<title>Node6&#45;&gt;Node9</title>
<path fill="none" stroke="midnightblue" d="M342.05,-56.32C358.49,-47.7 383.93,-34.36 402.97,-24.39"/>
<polygon fill="midnightblue" stroke="midnightblue" points="404.76,-27.4 411.99,-19.65 401.51,-21.2 404.76,-27.4"/>
</g>
<!-- Node10 -->
<g id="node10" class="node">
<title>Node10</title>
<g id="a_node10"><a xlink:title=" ">
<polygon fill="white" stroke="#bfbfbf" points="469,-0.5 469,-19.5 516,-19.5 516,-0.5 469,-0.5"/>
<text text-anchor="middle" x="492.5" y="-7.5" font-family="Helvetica,sans-Serif" font-size="10.00">vector</text>
</a>
</g>
</g>
<!-- Node6&#45;&gt;Node10 -->
<g id="edge10" class="edge">
<title>Node6&#45;&gt;Node10</title>
<path fill="none" stroke="midnightblue" d="M351.96,-56.44C381.01,-47.05 427.69,-31.96 459.21,-21.77"/>
<polygon fill="midnightblue" stroke="midnightblue" points="460.42,-25.05 468.86,-18.64 458.27,-18.39 460.42,-25.05"/>
</g>
</g>
</svg>
