<?xml version="1.0" encoding="UTF-8" standalone="no"?>
<!DOCTYPE svg PUBLIC "-//W3C//DTD SVG 1.1//EN"
 "http://www.w3.org/Graphics/SVG/1.1/DTD/svg11.dtd">
<!-- Generated by graphviz version 2.43.0 (0)
 -->
<!-- Title: test/hmi Pages: 1 -->
<svg width="289pt" height="159pt"
 viewBox="0.00 0.00 289.00 159.00" xmlns="http://www.w3.org/2000/svg" xmlns:xlink="http://www.w3.org/1999/xlink">
<g id="graph0" class="graph" transform="scale(1 1) rotate(0) translate(4 155)">
<title>test/hmi</title>
<polygon fill="white" stroke="transparent" points="-4,4 -4,-155 285,-155 285,4 -4,4"/>
<g id="clust1" class="cluster">
<title>clusterdir_13e138d54eb8818da29c3992edef070a</title>
<g id="a_clust1"><a xlink:href="dir_13e138d54eb8818da29c3992edef070a.xhtml" target="_top" xlink:title="test">
<polygon fill="#ddddee" stroke="black" points="8,-56 8,-143 273,-143 273,-56 8,-56"/>
<text text-anchor="middle" x="140.5" y="-131" font-family="Helvetica,sans-Serif" font-size="10.00">test</text>
</a>
</g>
</g>
<g id="clust2" class="cluster">
<title>clusterdir_c1cfa12654bedbd6ee4587aa8a463538</title>
<g id="a_clust2"><a xlink:href="dir_c1cfa12654bedbd6ee4587aa8a463538.xhtml" target="_top">
<polygon fill="#eeeeff" stroke="black" points="16,-64 16,-116 265,-116 265,-64 16,-64"/>
</a>
</g>
</g>
<!-- dir_c1cfa12654bedbd6ee4587aa8a463538 -->
<g id="node1" class="node">
<title>dir_c1cfa12654bedbd6ee4587aa8a463538</title>
<text text-anchor="middle" x="230" y="-87.5" font-family="Helvetica,sans-Serif" font-size="10.00">hmi</text>
</g>
<!-- dir_97aefd0d527b934f1d99a682da8fe6a9 -->
<g id="node4" class="node">
<title>dir_97aefd0d527b934f1d99a682da8fe6a9</title>
<g id="a_node4"><a xlink:href="dir_97aefd0d527b934f1d99a682da8fe6a9.xhtml" target="_top" xlink:title="lib">
<polygon fill="white" stroke="red" points="182,-36 128,-36 128,0 182,0 182,-36"/>
<text text-anchor="middle" x="155" y="-15.5" font-family="Helvetica,sans-Serif" font-size="10.00">lib</text>
</a>
</g>
</g>
<!-- dir_c1cfa12654bedbd6ee4587aa8a463538&#45;&gt;dir_97aefd0d527b934f1d99a682da8fe6a9 -->
<g id="edge3" class="edge">
<title>dir_c1cfa12654bedbd6ee4587aa8a463538&#45;&gt;dir_97aefd0d527b934f1d99a682da8fe6a9</title>
<path fill="none" stroke="black" d="M211.46,-71.7C202.2,-63.05 190.84,-52.45 180.74,-43.03"/>
<polygon fill="black" stroke="black" points="183.02,-40.37 173.33,-36.1 178.25,-45.49 183.02,-40.37"/>
<g id="a_edge3&#45;headlabel"><a xlink:href="dir_000020_000003.xhtml" target="_top" xlink:title="19">
<text text-anchor="middle" x="187.59" y="-38.25" font-family="Helvetica,sans-Serif" font-size="10.00">19</text>
</a>
</g>
</g>
<!-- dir_de3c6f73cad814280cdb09df05607cfa -->
<g id="node2" class="node">
<title>dir_de3c6f73cad814280cdb09df05607cfa</title>
<g id="a_node2"><a xlink:href="dir_de3c6f73cad814280cdb09df05607cfa.xhtml" target="_top" xlink:title="test_hmi">
<polygon fill="white" stroke="black" points="184.5,-108 125.5,-108 125.5,-72 184.5,-72 184.5,-108"/>
<text text-anchor="middle" x="155" y="-87.5" font-family="Helvetica,sans-Serif" font-size="10.00">test_hmi</text>
</a>
</g>
</g>
<!-- dir_de3c6f73cad814280cdb09df05607cfa&#45;&gt;dir_97aefd0d527b934f1d99a682da8fe6a9 -->
<g id="edge1" class="edge">
<title>dir_de3c6f73cad814280cdb09df05607cfa&#45;&gt;dir_97aefd0d527b934f1d99a682da8fe6a9</title>
<path fill="none" stroke="black" d="M155,-71.7C155,-63.98 155,-54.71 155,-46.11"/>
<polygon fill="black" stroke="black" points="158.5,-46.1 155,-36.1 151.5,-46.1 158.5,-46.1"/>
<g id="a_edge1&#45;headlabel"><a xlink:href="dir_000021_000003.xhtml" target="_top" xlink:title="12">
<text text-anchor="middle" x="161.34" y="-47.2" font-family="Helvetica,sans-Serif" font-size="10.00">12</text>
</a>
</g>
</g>
<!-- dir_82ca70e91e3157e9fafa427add4e3439 -->
<g id="node3" class="node">
<title>dir_82ca70e91e3157e9fafa427add4e3439</title>
<g id="a_node3"><a xlink:href="dir_82ca70e91e3157e9fafa427add4e3439.xhtml" target="_top" xlink:title="test_keyState">
<polygon fill="white" stroke="black" points="107.5,-108 24.5,-108 24.5,-72 107.5,-72 107.5,-108"/>
<text text-anchor="middle" x="66" y="-87.5" font-family="Helvetica,sans-Serif" font-size="10.00">test_keyState</text>
</a>
</g>
</g>
<!-- dir_82ca70e91e3157e9fafa427add4e3439&#45;&gt;dir_97aefd0d527b934f1d99a682da8fe6a9 -->
<g id="edge2" class="edge">
<title>dir_82ca70e91e3157e9fafa427add4e3439&#45;&gt;dir_97aefd0d527b934f1d99a682da8fe6a9</title>
<path fill="none" stroke="black" d="M88,-71.7C99.21,-62.88 113,-52.03 125.15,-42.47"/>
<polygon fill="black" stroke="black" points="127.56,-45.04 133.25,-36.1 123.23,-39.54 127.56,-45.04"/>
<g id="a_edge2&#45;headlabel"><a xlink:href="dir_000022_000003.xhtml" target="_top" xlink:title="3">
<text text-anchor="middle" x="126.49" y="-46.99" font-family="Helvetica,sans-Serif" font-size="10.00">3</text>
</a>
</g>
</g>
</g>
</svg>
