<?xml version="1.0" encoding="UTF-8" standalone="no"?>
<!DOCTYPE svg PUBLIC "-//W3C//DTD SVG 1.1//EN"
 "http://www.w3.org/Graphics/SVG/1.1/DTD/svg11.dtd">
<!-- Generated by graphviz version 2.43.0 (0)
 -->
<!-- Title: test Pages: 1 -->
<svg width="452pt" height="132pt"
 viewBox="0.00 0.00 452.00 132.00" xmlns="http://www.w3.org/2000/svg" xmlns:xlink="http://www.w3.org/1999/xlink">
<g id="graph0" class="graph" transform="scale(1 1) rotate(0) translate(4 128)">
<title>test</title>
<polygon fill="white" stroke="transparent" points="-4,4 -4,-128 448,-128 448,4 -4,4"/>
<g id="clust1" class="cluster">
<title>clusterdir_13e138d54eb8818da29c3992edef070a</title>
<g id="a_clust1"><a xlink:href="dir_13e138d54eb8818da29c3992edef070a.xhtml" target="_top">
<polygon fill="#eeeeff" stroke="black" points="8,-64 8,-116 436,-116 436,-64 8,-64"/>
</a>
</g>
</g>
<!-- dir_13e138d54eb8818da29c3992edef070a -->
<g id="node1" class="node">
<title>dir_13e138d54eb8818da29c3992edef070a</title>
<text text-anchor="middle" x="401" y="-87.5" font-family="Helvetica,sans-Serif" font-size="10.00">test</text>
</g>
<!-- dir_c1cfa12654bedbd6ee4587aa8a463538 -->
<g id="node2" class="node">
<title>dir_c1cfa12654bedbd6ee4587aa8a463538</title>
<g id="a_node2"><a xlink:href="dir_c1cfa12654bedbd6ee4587aa8a463538.xhtml" target="_top" xlink:title="hmi">
<polygon fill="white" stroke="red" points="356,-108 302,-108 302,-72 356,-72 356,-108"/>
<text text-anchor="middle" x="329" y="-87.5" font-family="Helvetica,sans-Serif" font-size="10.00">hmi</text>
</a>
</g>
</g>
<!-- dir_97aefd0d527b934f1d99a682da8fe6a9 -->
<g id="node6" class="node">
<title>dir_97aefd0d527b934f1d99a682da8fe6a9</title>
<g id="a_node6"><a xlink:href="dir_97aefd0d527b934f1d99a682da8fe6a9.xhtml" target="_top" xlink:title="lib">
<polygon fill="white" stroke="red" points="234,-36 180,-36 180,0 234,0 234,-36"/>
<text text-anchor="middle" x="207" y="-15.5" font-family="Helvetica,sans-Serif" font-size="10.00">lib</text>
</a>
</g>
</g>
<!-- dir_c1cfa12654bedbd6ee4587aa8a463538&#45;&gt;dir_97aefd0d527b934f1d99a682da8fe6a9 -->
<g id="edge3" class="edge">
<title>dir_c1cfa12654bedbd6ee4587aa8a463538&#45;&gt;dir_97aefd0d527b934f1d99a682da8fe6a9</title>
<path fill="none" stroke="black" d="M305.26,-71.9C301.23,-69.17 297.04,-66.44 293,-64 277.12,-54.39 258.99,-44.71 243.48,-36.82"/>
<polygon fill="black" stroke="black" points="244.71,-33.52 234.21,-32.14 241.56,-39.77 244.71,-33.52"/>
<g id="a_edge3&#45;headlabel"><a xlink:href="dir_000020_000003.xhtml" target="_top" xlink:title="13">
<text text-anchor="middle" x="249.2" y="-30.1" font-family="Helvetica,sans-Serif" font-size="10.00">13</text>
</a>
</g>
</g>
<!-- dir_96ee98e0a3ed0ab7302e1b0ef25efdfe -->
<g id="node3" class="node">
<title>dir_96ee98e0a3ed0ab7302e1b0ef25efdfe</title>
<g id="a_node3"><a xlink:href="dir_96ee98e0a3ed0ab7302e1b0ef25efdfe.xhtml" target="_top" xlink:title="test_cli">
<polygon fill="white" stroke="black" points="284,-108 230,-108 230,-72 284,-72 284,-108"/>
<text text-anchor="middle" x="257" y="-87.5" font-family="Helvetica,sans-Serif" font-size="10.00">test_cli</text>
</a>
</g>
</g>
<!-- dir_96ee98e0a3ed0ab7302e1b0ef25efdfe&#45;&gt;dir_97aefd0d527b934f1d99a682da8fe6a9 -->
<g id="edge2" class="edge">
<title>dir_96ee98e0a3ed0ab7302e1b0ef25efdfe&#45;&gt;dir_97aefd0d527b934f1d99a682da8fe6a9</title>
<path fill="none" stroke="black" d="M244.64,-71.7C238.77,-63.47 231.63,-53.48 225.16,-44.42"/>
<polygon fill="black" stroke="black" points="227.88,-42.21 219.22,-36.1 222.18,-46.28 227.88,-42.21"/>
<g id="a_edge2&#45;headlabel"><a xlink:href="dir_000023_000003.xhtml" target="_top" xlink:title="1">
<text text-anchor="middle" x="232.28" y="-40.98" font-family="Helvetica,sans-Serif" font-size="10.00">1</text>
</a>
</g>
</g>
<!-- dir_4fd65a4ec3cd24baa43ea60e9bd570e2 -->
<g id="node4" class="node">
<title>dir_4fd65a4ec3cd24baa43ea60e9bd570e2</title>
<g id="a_node4"><a xlink:href="dir_4fd65a4ec3cd24baa43ea60e9bd570e2.xhtml" target="_top" xlink:title="test_string_helpers">
<polygon fill="white" stroke="black" points="212,-108 102,-108 102,-72 212,-72 212,-108"/>
<text text-anchor="middle" x="157" y="-87.5" font-family="Helvetica,sans-Serif" font-size="10.00">test_string_helpers</text>
</a>
</g>
</g>
<!-- dir_4fd65a4ec3cd24baa43ea60e9bd570e2&#45;&gt;dir_97aefd0d527b934f1d99a682da8fe6a9 -->
<g id="edge4" class="edge">
<title>dir_4fd65a4ec3cd24baa43ea60e9bd570e2&#45;&gt;dir_97aefd0d527b934f1d99a682da8fe6a9</title>
<path fill="none" stroke="black" d="M169.36,-71.7C175.23,-63.47 182.37,-53.48 188.84,-44.42"/>
<polygon fill="black" stroke="black" points="191.82,-46.28 194.78,-36.1 186.12,-42.21 191.82,-46.28"/>
<g id="a_edge4&#45;headlabel"><a xlink:href="dir_000024_000003.xhtml" target="_top" xlink:title="1">
<text text-anchor="middle" x="192.04" y="-48.35" font-family="Helvetica,sans-Serif" font-size="10.00">1</text>
</a>
</g>
</g>
<!-- dir_24d5ee9663ee4cc920cf8960a9137137 -->
<g id="node5" class="node">
<title>dir_24d5ee9663ee4cc920cf8960a9137137</title>
<g id="a_node5"><a xlink:href="dir_24d5ee9663ee4cc920cf8960a9137137.xhtml" target="_top" xlink:title="test_tasks">
<polygon fill="white" stroke="black" points="83.5,-108 16.5,-108 16.5,-72 83.5,-72 83.5,-108"/>
<text text-anchor="middle" x="50" y="-87.5" font-family="Helvetica,sans-Serif" font-size="10.00">test_tasks</text>
</a>
</g>
</g>
<!-- dir_24d5ee9663ee4cc920cf8960a9137137&#45;&gt;dir_97aefd0d527b934f1d99a682da8fe6a9 -->
<g id="edge1" class="edge">
<title>dir_24d5ee9663ee4cc920cf8960a9137137&#45;&gt;dir_97aefd0d527b934f1d99a682da8fe6a9</title>
<path fill="none" stroke="black" d="M77.89,-71.97C82.85,-69.18 88.03,-66.41 93,-64 118.19,-51.79 147.59,-40.25 170.22,-31.91"/>
<polygon fill="black" stroke="black" points="171.59,-35.14 179.79,-28.43 169.2,-28.56 171.59,-35.14"/>
<g id="a_edge1&#45;headlabel"><a xlink:href="dir_000025_000003.xhtml" target="_top" xlink:title="1">
<text text-anchor="middle" x="169.18" y="-36.54" font-family="Helvetica,sans-Serif" font-size="10.00">1</text>
</a>
</g>
</g>
</g>
</svg>
