<?xml version="1.0" encoding="UTF-8" standalone="no"?>
<!DOCTYPE svg PUBLIC "-//W3C//DTD SVG 1.1//EN"
 "http://www.w3.org/Graphics/SVG/1.1/DTD/svg11.dtd">
<!-- Generated by graphviz version 2.43.0 (0)
 -->
<!-- Title: test/hmi Pages: 1 -->
<svg width="294pt" height="159pt"
 viewBox="0.00 0.00 294.00 159.00" xmlns="http://www.w3.org/2000/svg" xmlns:xlink="http://www.w3.org/1999/xlink">
<g id="graph0" class="graph" transform="scale(1 1) rotate(0) translate(4 155)">
<title>test/hmi</title>
<polygon fill="white" stroke="transparent" points="-4,4 -4,-155 290,-155 290,4 -4,4"/>
<g id="clust1" class="cluster">
<title>clusterdir_13e138d54eb8818da29c3992edef070a</title>
<g id="a_clust1"><a xlink:href="dir_13e138d54eb8818da29c3992edef070a.xhtml" target="_top" xlink:title="test">
<polygon fill="#ddddee" stroke="black" points="8,-56 8,-143 278,-143 278,-56 8,-56"/>
<text text-anchor="middle" x="143" y="-131" font-family="Helvetica,sans-Serif" font-size="10.00">test</text>
</a>
</g>
</g>
<g id="clust2" class="cluster">
<title>clusterdir_c1cfa12654bedbd6ee4587aa8a463538</title>
<g id="a_clust2"><a xlink:href="dir_c1cfa12654bedbd6ee4587aa8a463538.xhtml" target="_top">
<polygon fill="#eeeeff" stroke="black" points="16,-64 16,-116 270,-116 270,-64 16,-64"/>
</a>
</g>
</g>
<!-- dir_c1cfa12654bedbd6ee4587aa8a463538 -->
<g id="node1" class="node">
<title>dir_c1cfa12654bedbd6ee4587aa8a463538</title>
<text text-anchor="middle" x="235" y="-87.5" font-family="Helvetica,sans-Serif" font-size="10.00">hmi</text>
</g>
<!-- dir_97aefd0d527b934f1d99a682da8fe6a9 -->
<g id="node4" class="node">
<title>dir_97aefd0d527b934f1d99a682da8fe6a9</title>
<g id="a_node4"><a xlink:href="dir_97aefd0d527b934f1d99a682da8fe6a9.xhtml" target="_top" xlink:title="lib">
<polygon fill="white" stroke="red" points="173,-36 119,-36 119,0 173,0 173,-36"/>
<text text-anchor="middle" x="146" y="-15.5" font-family="Helvetica,sans-Serif" font-size="10.00">lib</text>
</a>
</g>
</g>
<!-- dir_c1cfa12654bedbd6ee4587aa8a463538&#45;&gt;dir_97aefd0d527b934f1d99a682da8fe6a9 -->
<g id="edge2" class="edge">
<title>dir_c1cfa12654bedbd6ee4587aa8a463538&#45;&gt;dir_97aefd0d527b934f1d99a682da8fe6a9</title>
<path fill="none" stroke="black" d="M217.1,-71.73C211.45,-66.51 205.09,-60.88 199,-56 193.1,-51.27 186.64,-46.47 180.31,-41.96"/>
<polygon fill="black" stroke="black" points="182.04,-38.9 171.84,-36.02 178.02,-44.63 182.04,-38.9"/>
<g id="a_edge2&#45;headlabel"><a xlink:href="dir_000020_000003.xhtml" target="_top" xlink:title="16">
<text text-anchor="middle" x="186.61" y="-36.13" font-family="Helvetica,sans-Serif" font-size="10.00">16</text>
</a>
</g>
</g>
<!-- dir_4d8f59d547f7cfb88565f0f03a44bf08 -->
<g id="node2" class="node">
<title>dir_4d8f59d547f7cfb88565f0f03a44bf08</title>
<g id="a_node2"><a xlink:href="dir_4d8f59d547f7cfb88565f0f03a44bf08.xhtml" target="_top" xlink:title="test_debounce">
<polygon fill="white" stroke="black" points="190,-108 102,-108 102,-72 190,-72 190,-108"/>
<text text-anchor="middle" x="146" y="-87.5" font-family="Helvetica,sans-Serif" font-size="10.00">test_debounce</text>
</a>
</g>
</g>
<!-- dir_4d8f59d547f7cfb88565f0f03a44bf08&#45;&gt;dir_97aefd0d527b934f1d99a682da8fe6a9 -->
<g id="edge3" class="edge">
<title>dir_4d8f59d547f7cfb88565f0f03a44bf08&#45;&gt;dir_97aefd0d527b934f1d99a682da8fe6a9</title>
<path fill="none" stroke="black" d="M146,-71.7C146,-63.98 146,-54.71 146,-46.11"/>
<polygon fill="black" stroke="black" points="149.5,-46.1 146,-36.1 142.5,-46.1 149.5,-46.1"/>
<g id="a_edge3&#45;headlabel"><a xlink:href="dir_000021_000003.xhtml" target="_top" xlink:title="2">
<text text-anchor="middle" x="152.34" y="-47.2" font-family="Helvetica,sans-Serif" font-size="10.00">2</text>
</a>
</g>
</g>
<!-- dir_de3c6f73cad814280cdb09df05607cfa -->
<g id="node3" class="node">
<title>dir_de3c6f73cad814280cdb09df05607cfa</title>
<g id="a_node3"><a xlink:href="dir_de3c6f73cad814280cdb09df05607cfa.xhtml" target="_top" xlink:title="test_hmi">
<polygon fill="white" stroke="black" points="83.5,-108 24.5,-108 24.5,-72 83.5,-72 83.5,-108"/>
<text text-anchor="middle" x="54" y="-87.5" font-family="Helvetica,sans-Serif" font-size="10.00">test_hmi</text>
</a>
</g>
</g>
<!-- dir_de3c6f73cad814280cdb09df05607cfa&#45;&gt;dir_97aefd0d527b934f1d99a682da8fe6a9 -->
<g id="edge1" class="edge">
<title>dir_de3c6f73cad814280cdb09df05607cfa&#45;&gt;dir_97aefd0d527b934f1d99a682da8fe6a9</title>
<path fill="none" stroke="black" d="M73.55,-71.85C79.68,-66.64 86.53,-60.98 93,-56 99.05,-51.34 105.63,-46.55 112.03,-42.01"/>
<polygon fill="black" stroke="black" points="114.39,-44.63 120.58,-36.03 110.38,-38.9 114.39,-44.63"/>
<g id="a_edge1&#45;headlabel"><a xlink:href="dir_000022_000003.xhtml" target="_top" xlink:title="12">
<text text-anchor="middle" x="113.08" y="-46.52" font-family="Helvetica,sans-Serif" font-size="10.00">12</text>
</a>
</g>
</g>
</g>
</svg>
