<?xml version="1.0" encoding="UTF-8" standalone="no"?>
<!DOCTYPE svg PUBLIC "-//W3C//DTD SVG 1.1//EN"
 "http://www.w3.org/Graphics/SVG/1.1/DTD/svg11.dtd">
<!-- Generated by graphviz version 2.43.0 (0)
 -->
<!-- Title: test Pages: 1 -->
<svg width="458pt" height="132pt"
 viewBox="0.00 0.00 458.00 132.00" xmlns="http://www.w3.org/2000/svg" xmlns:xlink="http://www.w3.org/1999/xlink">
<g id="graph0" class="graph" transform="scale(1 1) rotate(0) translate(4 128)">
<title>test</title>
<polygon fill="white" stroke="transparent" points="-4,4 -4,-128 454,-128 454,4 -4,4"/>
<g id="clust1" class="cluster">
<title>clusterdir_13e138d54eb8818da29c3992edef070a</title>
<g id="a_clust1"><a xlink:href="dir_13e138d54eb8818da29c3992edef070a.xhtml" target="_top">
<polygon fill="#eeeeff" stroke="black" points="8,-64 8,-116 442,-116 442,-64 8,-64"/>
</a>
</g>
</g>
<!-- dir_13e138d54eb8818da29c3992edef070a -->
<g id="node1" class="node">
<title>dir_13e138d54eb8818da29c3992edef070a</title>
<text text-anchor="middle" x="407" y="-87.5" font-family="Helvetica,sans-Serif" font-size="10.00">test</text>
</g>
<!-- dir_96ee98e0a3ed0ab7302e1b0ef25efdfe -->
<g id="node2" class="node">
<title>dir_96ee98e0a3ed0ab7302e1b0ef25efdfe</title>
<g id="a_node2"><a xlink:href="dir_96ee98e0a3ed0ab7302e1b0ef25efdfe.xhtml" target="_top" xlink:title="test_cli">
<polygon fill="white" stroke="black" points="362,-108 308,-108 308,-72 362,-72 362,-108"/>
<text text-anchor="middle" x="335" y="-87.5" font-family="Helvetica,sans-Serif" font-size="10.00">test_cli</text>
</a>
</g>
</g>
<!-- dir_97aefd0d527b934f1d99a682da8fe6a9 -->
<g id="node6" class="node">
<title>dir_97aefd0d527b934f1d99a682da8fe6a9</title>
<g id="a_node6"><a xlink:href="dir_97aefd0d527b934f1d99a682da8fe6a9.xhtml" target="_top" xlink:title="lib">
<polygon fill="white" stroke="red" points="235,-36 181,-36 181,0 235,0 235,-36"/>
<text text-anchor="middle" x="208" y="-15.5" font-family="Helvetica,sans-Serif" font-size="10.00">lib</text>
</a>
</g>
</g>
<!-- dir_96ee98e0a3ed0ab7302e1b0ef25efdfe&#45;&gt;dir_97aefd0d527b934f1d99a682da8fe6a9 -->
<g id="edge3" class="edge">
<title>dir_96ee98e0a3ed0ab7302e1b0ef25efdfe&#45;&gt;dir_97aefd0d527b934f1d99a682da8fe6a9</title>
<path fill="none" stroke="black" d="M311.31,-71.82C307.27,-69.1 303.06,-66.4 299,-64 281.62,-53.74 261.57,-43.66 244.73,-35.64"/>
<polygon fill="black" stroke="black" points="245.77,-32.26 235.23,-31.18 242.79,-38.6 245.77,-32.26"/>
<g id="a_edge3&#45;headlabel"><a xlink:href="dir_000020_000003.xhtml" target="_top" xlink:title="1">
<text text-anchor="middle" x="250.23" y="-28.72" font-family="Helvetica,sans-Serif" font-size="10.00">1</text>
</a>
</g>
</g>
<!-- dir_d4007516cc9bfff50cad23dd85f3b823 -->
<g id="node3" class="node">
<title>dir_d4007516cc9bfff50cad23dd85f3b823</title>
<g id="a_node3"><a xlink:href="dir_d4007516cc9bfff50cad23dd85f3b823.xhtml" target="_top" xlink:title="test_hmi">
<polygon fill="white" stroke="black" points="289.5,-108 230.5,-108 230.5,-72 289.5,-72 289.5,-108"/>
<text text-anchor="middle" x="260" y="-87.5" font-family="Helvetica,sans-Serif" font-size="10.00">test_hmi</text>
</a>
</g>
</g>
<!-- dir_d4007516cc9bfff50cad23dd85f3b823&#45;&gt;dir_97aefd0d527b934f1d99a682da8fe6a9 -->
<g id="edge2" class="edge">
<title>dir_d4007516cc9bfff50cad23dd85f3b823&#45;&gt;dir_97aefd0d527b934f1d99a682da8fe6a9</title>
<path fill="none" stroke="black" d="M247.15,-71.7C240.97,-63.39 233.46,-53.28 226.68,-44.14"/>
<polygon fill="black" stroke="black" points="229.48,-42.04 220.71,-36.1 223.86,-46.22 229.48,-42.04"/>
<g id="a_edge2&#45;headlabel"><a xlink:href="dir_000021_000003.xhtml" target="_top" xlink:title="13">
<text text-anchor="middle" x="233.9" y="-40.74" font-family="Helvetica,sans-Serif" font-size="10.00">13</text>
</a>
</g>
</g>
<!-- dir_4fd65a4ec3cd24baa43ea60e9bd570e2 -->
<g id="node4" class="node">
<title>dir_4fd65a4ec3cd24baa43ea60e9bd570e2</title>
<g id="a_node4"><a xlink:href="dir_4fd65a4ec3cd24baa43ea60e9bd570e2.xhtml" target="_top" xlink:title="test_string_helpers">
<polygon fill="white" stroke="black" points="212,-108 102,-108 102,-72 212,-72 212,-108"/>
<text text-anchor="middle" x="157" y="-87.5" font-family="Helvetica,sans-Serif" font-size="10.00">test_string_helpers</text>
</a>
</g>
</g>
<!-- dir_4fd65a4ec3cd24baa43ea60e9bd570e2&#45;&gt;dir_97aefd0d527b934f1d99a682da8fe6a9 -->
<g id="edge4" class="edge">
<title>dir_4fd65a4ec3cd24baa43ea60e9bd570e2&#45;&gt;dir_97aefd0d527b934f1d99a682da8fe6a9</title>
<path fill="none" stroke="black" d="M169.61,-71.7C175.6,-63.47 182.88,-53.48 189.48,-44.42"/>
<polygon fill="black" stroke="black" points="192.48,-46.25 195.54,-36.1 186.82,-42.13 192.48,-46.25"/>
<g id="a_edge4&#45;headlabel"><a xlink:href="dir_000022_000003.xhtml" target="_top" xlink:title="1">
<text text-anchor="middle" x="192.66" y="-48.32" font-family="Helvetica,sans-Serif" font-size="10.00">1</text>
</a>
</g>
</g>
<!-- dir_24d5ee9663ee4cc920cf8960a9137137 -->
<g id="node5" class="node">
<title>dir_24d5ee9663ee4cc920cf8960a9137137</title>
<g id="a_node5"><a xlink:href="dir_24d5ee9663ee4cc920cf8960a9137137.xhtml" target="_top" xlink:title="test_tasks">
<polygon fill="white" stroke="black" points="83.5,-108 16.5,-108 16.5,-72 83.5,-72 83.5,-108"/>
<text text-anchor="middle" x="50" y="-87.5" font-family="Helvetica,sans-Serif" font-size="10.00">test_tasks</text>
</a>
</g>
</g>
<!-- dir_24d5ee9663ee4cc920cf8960a9137137&#45;&gt;dir_97aefd0d527b934f1d99a682da8fe6a9 -->
<g id="edge1" class="edge">
<title>dir_24d5ee9663ee4cc920cf8960a9137137&#45;&gt;dir_97aefd0d527b934f1d99a682da8fe6a9</title>
<path fill="none" stroke="black" d="M77.88,-71.96C82.85,-69.17 88.02,-66.4 93,-64 118.4,-51.74 148.05,-40.2 170.89,-31.87"/>
<polygon fill="black" stroke="black" points="172.32,-35.08 180.54,-28.4 169.95,-28.49 172.32,-35.08"/>
<g id="a_edge1&#45;headlabel"><a xlink:href="dir_000023_000003.xhtml" target="_top" xlink:title="1">
<text text-anchor="middle" x="169.9" y="-36.47" font-family="Helvetica,sans-Serif" font-size="10.00">1</text>
</a>
</g>
</g>
</g>
</svg>
