<?xml version="1.0" encoding="UTF-8" standalone="no"?>
<!DOCTYPE svg PUBLIC "-//W3C//DTD SVG 1.1//EN"
 "http://www.w3.org/Graphics/SVG/1.1/DTD/svg11.dtd">
<!-- Generated by graphviz version 2.43.0 (0)
 -->
<!-- Title: lib/application_business_rules/user_interaction/IKeypad.hpp Pages: 1 -->
<svg width="712pt" height="206pt"
 viewBox="0.00 0.00 712.00 206.00" xmlns="http://www.w3.org/2000/svg" xmlns:xlink="http://www.w3.org/1999/xlink">
<g id="graph0" class="graph" transform="scale(1 1) rotate(0) translate(4 202)">
<title>lib/application_business_rules/user_interaction/IKeypad.hpp</title>
<polygon fill="white" stroke="transparent" points="-4,4 -4,-202 708,-202 708,4 -4,4"/>
<!-- Node1 -->
<g id="node1" class="node">
<title>Node1</title>
<g id="a_node1"><a xlink:title=" ">
<polygon fill="#bfbfbf" stroke="black" points="188.5,-156.5 188.5,-197.5 322.5,-197.5 322.5,-156.5 188.5,-156.5"/>
<text text-anchor="start" x="196.5" y="-185.5" font-family="Helvetica,sans-Serif" font-size="10.00">lib/application_business</text>
<text text-anchor="start" x="196.5" y="-174.5" font-family="Helvetica,sans-Serif" font-size="10.00">_rules/user_interaction</text>
<text text-anchor="middle" x="255.5" y="-163.5" font-family="Helvetica,sans-Serif" font-size="10.00">/IKeypad.hpp</text>
</a>
</g>
</g>
<!-- Node2 -->
<g id="node2" class="node">
<title>Node2</title>
<g id="a_node2"><a xlink:href="keypad__factory__interface_8hpp.xhtml" target="_top" xlink:title="Dependency injection for the keypad.">
<polygon fill="white" stroke="black" points="90.5,-78.5 90.5,-119.5 254.5,-119.5 254.5,-78.5 90.5,-78.5"/>
<text text-anchor="start" x="98.5" y="-107.5" font-family="Helvetica,sans-Serif" font-size="10.00">lib/application_business</text>
<text text-anchor="start" x="98.5" y="-96.5" font-family="Helvetica,sans-Serif" font-size="10.00">_rules/user_interaction</text>
<text text-anchor="middle" x="172.5" y="-85.5" font-family="Helvetica,sans-Serif" font-size="10.00">/keypad_factory_interface.hpp</text>
</a>
</g>
</g>
<!-- Node1&#45;&gt;Node2 -->
<g id="edge1" class="edge">
<title>Node1&#45;&gt;Node2</title>
<path fill="none" stroke="midnightblue" d="M226.55,-149.49C215.78,-139.63 203.76,-128.63 193.8,-119.51"/>
<polygon fill="midnightblue" stroke="midnightblue" points="224.39,-152.26 234.13,-156.43 229.11,-147.09 224.39,-152.26"/>
</g>
<!-- Node5 -->
<g id="node5" class="node">
<title>Node5</title>
<g id="a_node5"><a xlink:href="test__hmi_8cpp.xhtml" target="_top" xlink:title=" ">
<polygon fill="white" stroke="black" points="0,-6 0,-36 125,-36 125,-6 0,-6"/>
<text text-anchor="start" x="8" y="-24" font-family="Helvetica,sans-Serif" font-size="10.00">test/hmi/test_hmi/test</text>
<text text-anchor="middle" x="62.5" y="-13" font-family="Helvetica,sans-Serif" font-size="10.00">_hmi.cpp</text>
</a>
</g>
</g>
<!-- Node1&#45;&gt;Node5 -->
<g id="edge10" class="edge">
<title>Node1&#45;&gt;Node5</title>
<path fill="none" stroke="midnightblue" d="M178.25,-168.79C143.97,-161.63 105.93,-147.55 81.5,-120 60.69,-96.53 59.81,-57.26 61.08,-36.26"/>
<polygon fill="midnightblue" stroke="midnightblue" points="177.8,-172.27 188.28,-170.72 179.12,-165.4 177.8,-172.27"/>
</g>
<!-- Node6 -->
<g id="node6" class="node">
<title>Node6</title>
<g id="a_node6"><a xlink:href="ProcessHmiInputs_8cpp.xhtml" target="_top" xlink:title=" ">
<polygon fill="white" stroke="black" points="272.5,-78.5 272.5,-119.5 406.5,-119.5 406.5,-78.5 272.5,-78.5"/>
<text text-anchor="start" x="280.5" y="-107.5" font-family="Helvetica,sans-Serif" font-size="10.00">lib/application_business</text>
<text text-anchor="start" x="280.5" y="-96.5" font-family="Helvetica,sans-Serif" font-size="10.00">_rules/user_interaction</text>
<text text-anchor="middle" x="339.5" y="-85.5" font-family="Helvetica,sans-Serif" font-size="10.00">/ProcessHmiInputs.cpp</text>
</a>
</g>
</g>
<!-- Node1&#45;&gt;Node6 -->
<g id="edge5" class="edge">
<title>Node1&#45;&gt;Node6</title>
<path fill="none" stroke="midnightblue" d="M284.8,-149.49C295.7,-139.63 307.86,-128.63 317.94,-119.51"/>
<polygon fill="midnightblue" stroke="midnightblue" points="282.2,-147.12 277.13,-156.43 286.9,-152.31 282.2,-147.12"/>
</g>
<!-- Node7 -->
<g id="node7" class="node">
<title>Node7</title>
<g id="a_node7"><a xlink:href="Keypad_8hpp.xhtml" target="_top" xlink:title=" ">
<polygon fill="white" stroke="black" points="425,-78.5 425,-119.5 556,-119.5 556,-78.5 425,-78.5"/>
<text text-anchor="start" x="433" y="-107.5" font-family="Helvetica,sans-Serif" font-size="10.00">lib/board_adapters</text>
<text text-anchor="start" x="433" y="-96.5" font-family="Helvetica,sans-Serif" font-size="10.00">/input_device_interface</text>
<text text-anchor="middle" x="490.5" y="-85.5" font-family="Helvetica,sans-Serif" font-size="10.00">/Keypad.hpp</text>
</a>
</g>
</g>
<!-- Node1&#45;&gt;Node7 -->
<g id="edge6" class="edge">
<title>Node1&#45;&gt;Node7</title>
<path fill="none" stroke="midnightblue" d="M325.68,-153.3C358.94,-142.55 398.28,-129.82 430.19,-119.51"/>
<polygon fill="midnightblue" stroke="midnightblue" points="324.46,-150.02 316.02,-156.43 326.61,-156.68 324.46,-150.02"/>
</g>
<!-- Node3 -->
<g id="node3" class="node">
<title>Node3</title>
<g id="a_node3"><a xlink:href="keypad__factory__interface_8cpp.xhtml" target="_top" xlink:title=" ">
<polygon fill="white" stroke="black" points="241.5,-0.5 241.5,-41.5 405.5,-41.5 405.5,-0.5 241.5,-0.5"/>
<text text-anchor="start" x="249.5" y="-29.5" font-family="Helvetica,sans-Serif" font-size="10.00">lib/board_adapters</text>
<text text-anchor="start" x="249.5" y="-18.5" font-family="Helvetica,sans-Serif" font-size="10.00">/input_device_interface</text>
<text text-anchor="middle" x="323.5" y="-7.5" font-family="Helvetica,sans-Serif" font-size="10.00">/keypad_factory_interface.cpp</text>
</a>
</g>
</g>
<!-- Node2&#45;&gt;Node3 -->
<g id="edge2" class="edge">
<title>Node2&#45;&gt;Node3</title>
<path fill="none" stroke="midnightblue" d="M220.37,-73.91C241.13,-63.46 265.13,-51.38 284.75,-41.51"/>
<polygon fill="midnightblue" stroke="midnightblue" points="218.75,-70.81 211.39,-78.43 221.89,-77.06 218.75,-70.81"/>
</g>
<!-- Node4 -->
<g id="node4" class="node">
<title>Node4</title>
<g id="a_node4"><a xlink:href="main_8cpp.xhtml" target="_top" xlink:title=" ">
<polygon fill="white" stroke="black" points="143,-11.5 143,-30.5 222,-30.5 222,-11.5 143,-11.5"/>
<text text-anchor="middle" x="182.5" y="-18.5" font-family="Helvetica,sans-Serif" font-size="10.00">src/main.cpp</text>
</a>
</g>
</g>
<!-- Node2&#45;&gt;Node4 -->
<g id="edge3" class="edge">
<title>Node2&#45;&gt;Node4</title>
<path fill="none" stroke="midnightblue" d="M176.39,-68.45C178.18,-54.86 180.17,-39.74 181.37,-30.55"/>
<polygon fill="midnightblue" stroke="midnightblue" points="172.91,-68.06 175.08,-78.43 179.85,-68.97 172.91,-68.06"/>
</g>
<!-- Node2&#45;&gt;Node5 -->
<g id="edge4" class="edge">
<title>Node2&#45;&gt;Node5</title>
<path fill="none" stroke="midnightblue" d="M135.82,-72.66C118.26,-60.53 97.89,-46.45 83.09,-36.23"/>
<polygon fill="midnightblue" stroke="midnightblue" points="133.96,-75.62 144.17,-78.43 137.93,-69.86 133.96,-75.62"/>
</g>
<!-- Node7&#45;&gt;Node3 -->
<g id="edge8" class="edge">
<title>Node7&#45;&gt;Node3</title>
<path fill="none" stroke="midnightblue" d="M438.18,-74.19C415.08,-63.67 388.25,-51.47 366.36,-41.51"/>
<polygon fill="midnightblue" stroke="midnightblue" points="436.94,-77.47 447.49,-78.43 439.84,-71.1 436.94,-77.47"/>
</g>
<!-- Node8 -->
<g id="node8" class="node">
<title>Node8</title>
<g id="a_node8"><a xlink:href="Keypad_8cpp.xhtml" target="_top" xlink:title=" ">
<polygon fill="white" stroke="black" points="573,-0.5 573,-41.5 704,-41.5 704,-0.5 573,-0.5"/>
<text text-anchor="start" x="581" y="-29.5" font-family="Helvetica,sans-Serif" font-size="10.00">lib/board_adapters</text>
<text text-anchor="start" x="581" y="-18.5" font-family="Helvetica,sans-Serif" font-size="10.00">/input_device_interface</text>
<text text-anchor="middle" x="638.5" y="-7.5" font-family="Helvetica,sans-Serif" font-size="10.00">/Keypad.cpp</text>
</a>
</g>
</g>
<!-- Node7&#45;&gt;Node8 -->
<g id="edge7" class="edge">
<title>Node7&#45;&gt;Node8</title>
<path fill="none" stroke="midnightblue" d="M537.69,-73.77C557.98,-63.35 581.37,-51.34 600.52,-41.51"/>
<polygon fill="midnightblue" stroke="midnightblue" points="535.91,-70.75 528.61,-78.43 539.11,-76.97 535.91,-70.75"/>
</g>
<!-- Node9 -->
<g id="node9" class="node">
<title>Node9</title>
<g id="a_node9"><a xlink:href="test__debounce_8cpp.xhtml" target="_top" xlink:title=" ">
<polygon fill="white" stroke="black" points="424,-6 424,-36 555,-36 555,-6 424,-6"/>
<text text-anchor="start" x="432" y="-24" font-family="Helvetica,sans-Serif" font-size="10.00">test/hmi/test_debounce</text>
<text text-anchor="middle" x="489.5" y="-13" font-family="Helvetica,sans-Serif" font-size="10.00">/test_debounce.cpp</text>
</a>
</g>
</g>
<!-- Node7&#45;&gt;Node9 -->
<g id="edge9" class="edge">
<title>Node7&#45;&gt;Node9</title>
<path fill="none" stroke="midnightblue" d="M490.11,-68.28C489.96,-57.25 489.81,-45.25 489.69,-36.23"/>
<polygon fill="midnightblue" stroke="midnightblue" points="486.61,-68.48 490.24,-78.43 493.61,-68.38 486.61,-68.48"/>
</g>
</g>
</svg>
