<?xml version="1.0" encoding="us-ascii" standalone="no"?><svg xmlns="http://www.w3.org/2000/svg" xmlns:xlink="http://www.w3.org/1999/xlink" contentStyleType="text/css" height="219px" preserveAspectRatio="none" style="width:902px;height:219px;background:#FFFFFF;" version="1.1" viewBox="0 0 902 219" width="902px" zoomAndPan="magnify"><defs/><g><text fill="#000000" font-family="sans-serif" font-size="14" font-weight="bold" lengthAdjust="spacing" textLength="358" x="270.5" y="32.9951">debouncing by post-event filtering: too short</text><line style="stroke:#333333;stroke-width:0.5;" x1="10" x2="10" y1="47.2969" y2="175.3672"/><line style="stroke:#333333;stroke-width:0.5;" x1="890" x2="890" y1="47.2969" y2="175.3672"/><rect fill="#EEEEEE" height="128.0703" style="stroke:none;stroke-width:1.0;" width="250" x="410" y="47.2969"/><line style="stroke:#333333;stroke-width:0.5;stroke-dasharray:3.0,5.0;" x1="160" x2="160" y1="47.2969" y2="175.3672"/><line style="stroke:#333333;stroke-width:0.5;stroke-dasharray:3.0,5.0;" x1="410" x2="410" y1="47.2969" y2="175.3672"/><line style="stroke:#333333;stroke-width:0.5;stroke-dasharray:3.0,5.0;" x1="660" x2="660" y1="47.2969" y2="175.3672"/><line style="stroke:#333333;stroke-width:0.5;" x1="10" x2="890" y1="47.2969" y2="47.2969"/><text fill="#333333" font-family="sans-serif" font-size="14" font-weight="bold" lengthAdjust="spacing" textLength="92" x="15" y="76.6279">digital input</text><line style="stroke:#006400;stroke-width:2.0;" x1="160" x2="160" y1="102.2344" y2="102.2344"/><line style="stroke:#006400;stroke-width:2.0;" x1="160" x2="410" y1="102.2344" y2="102.2344"/><line style="stroke:#006400;stroke-width:2.0;" x1="410" x2="410" y1="88.2344" y2="102.2344"/><line style="stroke:#006400;stroke-width:2.0;" x1="410" x2="410" y1="88.2344" y2="102.2344"/><line style="stroke:#006400;stroke-width:2.0;" x1="415" x2="415" y1="88.2344" y2="102.2344"/><line style="stroke:#006400;stroke-width:2.0;" x1="420" x2="420" y1="88.2344" y2="102.2344"/><line style="stroke:#006400;stroke-width:2.0;" x1="425" x2="425" y1="88.2344" y2="102.2344"/><line style="stroke:#006400;stroke-width:2.0;" x1="430" x2="430" y1="88.2344" y2="102.2344"/><line style="stroke:#006400;stroke-width:2.0;" x1="435" x2="435" y1="88.2344" y2="102.2344"/><line style="stroke:#006400;stroke-width:2.0;" x1="440" x2="440" y1="88.2344" y2="102.2344"/><line style="stroke:#006400;stroke-width:2.0;" x1="445" x2="445" y1="88.2344" y2="102.2344"/><line style="stroke:#006400;stroke-width:2.0;" x1="450" x2="450" y1="88.2344" y2="102.2344"/><line style="stroke:#006400;stroke-width:2.0;" x1="455" x2="455" y1="88.2344" y2="102.2344"/><line style="stroke:#006400;stroke-width:2.0;" x1="460" x2="460" y1="88.2344" y2="102.2344"/><line style="stroke:#006400;stroke-width:2.0;" x1="465" x2="465" y1="88.2344" y2="102.2344"/><line style="stroke:#006400;stroke-width:2.0;" x1="470" x2="470" y1="88.2344" y2="102.2344"/><line style="stroke:#006400;stroke-width:2.0;" x1="475" x2="475" y1="88.2344" y2="102.2344"/><line style="stroke:#006400;stroke-width:2.0;" x1="480" x2="480" y1="88.2344" y2="102.2344"/><line style="stroke:#006400;stroke-width:2.0;" x1="485" x2="485" y1="88.2344" y2="102.2344"/><line style="stroke:#006400;stroke-width:2.0;" x1="490" x2="490" y1="88.2344" y2="102.2344"/><line style="stroke:#006400;stroke-width:2.0;" x1="495" x2="495" y1="88.2344" y2="102.2344"/><line style="stroke:#006400;stroke-width:2.0;" x1="500" x2="500" y1="88.2344" y2="102.2344"/><line style="stroke:#006400;stroke-width:2.0;" x1="505" x2="505" y1="88.2344" y2="102.2344"/><line style="stroke:#006400;stroke-width:2.0;" x1="510" x2="510" y1="88.2344" y2="102.2344"/><line style="stroke:#006400;stroke-width:2.0;" x1="515" x2="515" y1="88.2344" y2="102.2344"/><line style="stroke:#006400;stroke-width:2.0;" x1="520" x2="520" y1="88.2344" y2="102.2344"/><line style="stroke:#006400;stroke-width:2.0;" x1="525" x2="525" y1="88.2344" y2="102.2344"/><line style="stroke:#006400;stroke-width:2.0;" x1="530" x2="530" y1="88.2344" y2="102.2344"/><line style="stroke:#006400;stroke-width:2.0;" x1="535" x2="535" y1="88.2344" y2="102.2344"/><line style="stroke:#006400;stroke-width:2.0;" x1="540" x2="540" y1="88.2344" y2="102.2344"/><line style="stroke:#006400;stroke-width:2.0;" x1="545" x2="545" y1="88.2344" y2="102.2344"/><line style="stroke:#006400;stroke-width:2.0;" x1="550" x2="550" y1="88.2344" y2="102.2344"/><line style="stroke:#006400;stroke-width:2.0;" x1="555" x2="555" y1="88.2344" y2="102.2344"/><line style="stroke:#006400;stroke-width:2.0;" x1="560" x2="560" y1="88.2344" y2="102.2344"/><line style="stroke:#006400;stroke-width:2.0;" x1="565" x2="565" y1="88.2344" y2="102.2344"/><line style="stroke:#006400;stroke-width:2.0;" x1="570" x2="570" y1="88.2344" y2="102.2344"/><line style="stroke:#006400;stroke-width:2.0;" x1="575" x2="575" y1="88.2344" y2="102.2344"/><line style="stroke:#006400;stroke-width:2.0;" x1="580" x2="580" y1="88.2344" y2="102.2344"/><line style="stroke:#006400;stroke-width:2.0;" x1="585" x2="585" y1="88.2344" y2="102.2344"/><line style="stroke:#006400;stroke-width:2.0;" x1="590" x2="590" y1="88.2344" y2="102.2344"/><line style="stroke:#006400;stroke-width:2.0;" x1="595" x2="595" y1="88.2344" y2="102.2344"/><line style="stroke:#006400;stroke-width:2.0;" x1="600" x2="600" y1="88.2344" y2="102.2344"/><line style="stroke:#006400;stroke-width:2.0;" x1="605" x2="605" y1="88.2344" y2="102.2344"/><line style="stroke:#006400;stroke-width:2.0;" x1="610" x2="610" y1="88.2344" y2="102.2344"/><line style="stroke:#006400;stroke-width:2.0;" x1="615" x2="615" y1="88.2344" y2="102.2344"/><line style="stroke:#006400;stroke-width:2.0;" x1="620" x2="620" y1="88.2344" y2="102.2344"/><line style="stroke:#006400;stroke-width:2.0;" x1="625" x2="625" y1="88.2344" y2="102.2344"/><line style="stroke:#006400;stroke-width:2.0;" x1="630" x2="630" y1="88.2344" y2="102.2344"/><line style="stroke:#006400;stroke-width:2.0;" x1="635" x2="635" y1="88.2344" y2="102.2344"/><line style="stroke:#006400;stroke-width:2.0;" x1="635" x2="885" y1="102.2344" y2="102.2344"/><line style="stroke:#8B0000;stroke-width:1.5;" x1="412.5" x2="632.5" y1="80.2344" y2="80.2344"/><polygon fill="#8B0000" points="420.5,84.2344,420.5,76.2344,412.5,80.2344" style="stroke:#8B0000;stroke-width:2.0;"/><polygon fill="#8B0000" points="624.5,84.2344,624.5,76.2344,632.5,80.2344" style="stroke:#8B0000;stroke-width:2.0;"/><text fill="#8B0000" font-family="sans-serif" font-size="12" lengthAdjust="spacing" textLength="58" x="493.5" y="72.4043">bouncing</text><line style="stroke:#333333;stroke-width:0.5;" x1="10" x2="890" y1="110.2344" y2="110.2344"/><text fill="#333333" font-family="sans-serif" font-size="14" font-weight="bold" lengthAdjust="spacing" textLength="140" x="15" y="147.6475">debounced signal</text><line style="stroke:#006400;stroke-width:2.0;" x1="160" x2="160" y1="167.3672" y2="167.3672"/><line style="stroke:#006400;stroke-width:2.0;" x1="160" x2="410" y1="167.3672" y2="167.3672"/><line style="stroke:#006400;stroke-width:2.0;" x1="410" x2="410" y1="153.3672" y2="167.3672"/><line style="stroke:#006400;stroke-width:2.0;" x1="410" x2="885" y1="153.3672" y2="153.3672"/><path d="M160,118.2344 L160,143.3672 L264,143.3672 L264,128.2344 L254,118.2344 L160,118.2344 " fill="#FEFFDD" style="stroke:#333333;stroke-width:0.5;"/><path d="M254,118.2344 L254,128.2344 L264,128.2344 L254,118.2344 " fill="#FEFFDD" style="stroke:#333333;stroke-width:0.5;"/><text fill="#333333" font-family="sans-serif" font-size="13" font-weight="bold" lengthAdjust="spacing" textLength="83" x="166" y="135.3013">debounced</text><line style="stroke:#00008B;stroke-width:1.5;" x1="410" x2="410" y1="88.2344" y2="153.3672"/><polygon fill="#00008B" points="407.2638,145.8496,412.7362,145.8496,410,153.3672" style="stroke:#00008B;stroke-width:1.5;"/><text fill="#00008B" font-family="Serif" font-size="14" lengthAdjust="spacing" textLength="144" x="410" y="142.5479">rising edge detected</text><line style="stroke:#00008B;stroke-width:1.5;" x1="635" x2="635" y1="88.2344" y2="153.3672"/><polygon fill="#00008B" points="632.2638,145.8496,637.7362,145.8496,635,153.3672" style="stroke:#00008B;stroke-width:1.5;"/><text fill="#00008B" font-family="Serif" font-size="14" lengthAdjust="spacing" textLength="148" x="635" y="142.5479">state change ignored</text><line style="stroke:#333333;stroke-width:2.0;stroke-dasharray:4.0,4.0;" x1="410" x2="410" y1="47.2969" y2="175.3672"/><line style="stroke:#333333;stroke-width:2.0;stroke-dasharray:4.0,4.0;" x1="660" x2="660" y1="47.2969" y2="175.3672"/><text fill="#000000" font-family="sans-serif" font-size="12" lengthAdjust="spacing" textLength="143" x="413" y="60.4355">state changes ignored</text><text fill="#000000" font-family="sans-serif" font-size="14" lengthAdjust="spacing" textLength="250" x="324.5" y="202.167">too short pulse leads to wrong state</text><!--SRC=[JL3RQeH037sVhpZigxLeeGzTIX7nHqRDQc0w8oRkXT9_RtHnjmz3c9DpIQAiWT1JcvROSHpGtZ0bqPpE51Kd3agpuKTeIf0npUewFocd-4GmBK48WNmlXk8o9tCIzKfkv9wW_4svlx8uwRpbbV22j_S24ryfY6iv-lc6Gyy3gm_WE2rwM4dDitUVaNe83z67hLqxLnMk0Gj2khYOrCBIX7H2ZICU6bVlb2ehx_mV-xsCF8o_hgco0f_v5wo-VfXkluOn3LsTPfRrEjGFwxMKEZNJLHtiAKnlUsUbCRUrqOq-3YImKTEyvwzyjsKyHtua_DVjiZy0]--></g></svg>