<?xml version="1.0" encoding="UTF-8" standalone="no"?>
<!DOCTYPE svg PUBLIC "-//W3C//DTD SVG 1.1//EN"
 "http://www.w3.org/Graphics/SVG/1.1/DTD/svg11.dtd">
<!-- Generated by graphviz version 2.43.0 (0)
 -->
<!-- Title: lib/application_business_rules/user_interaction/IStatusIndicator.hpp Pages: 1 -->
<svg width="869pt" height="217pt"
 viewBox="0.00 0.00 869.00 217.00" xmlns="http://www.w3.org/2000/svg" xmlns:xlink="http://www.w3.org/1999/xlink">
<g id="graph0" class="graph" transform="scale(1 1) rotate(0) translate(4 213)">
<title>lib/application_business_rules/user_interaction/IStatusIndicator.hpp</title>
<polygon fill="white" stroke="transparent" points="-4,4 -4,-213 865,-213 865,4 -4,4"/>
<!-- Node1 -->
<g id="node1" class="node">
<title>Node1</title>
<g id="a_node1"><a xlink:title=" ">
<polygon fill="#bfbfbf" stroke="black" points="389,-167.5 389,-208.5 523,-208.5 523,-167.5 389,-167.5"/>
<text text-anchor="start" x="397" y="-196.5" font-family="Helvetica,sans-Serif" font-size="10.00">lib/application_business</text>
<text text-anchor="start" x="397" y="-185.5" font-family="Helvetica,sans-Serif" font-size="10.00">_rules/user_interaction</text>
<text text-anchor="middle" x="456" y="-174.5" font-family="Helvetica,sans-Serif" font-size="10.00">/IStatusIndicator.hpp</text>
</a>
</g>
</g>
<!-- Node2 -->
<g id="node2" class="node">
<title>Node2</title>
<g id="a_node2"><a xlink:href="Presenter_8hpp.xhtml" target="_top" xlink:title=" ">
<polygon fill="white" stroke="black" points="235,-84 235,-125 369,-125 369,-84 235,-84"/>
<text text-anchor="start" x="243" y="-113" font-family="Helvetica,sans-Serif" font-size="10.00">lib/application_business</text>
<text text-anchor="start" x="243" y="-102" font-family="Helvetica,sans-Serif" font-size="10.00">_rules/user_interaction</text>
<text text-anchor="middle" x="302" y="-91" font-family="Helvetica,sans-Serif" font-size="10.00">/Presenter.hpp</text>
</a>
</g>
</g>
<!-- Node1&#45;&gt;Node2 -->
<g id="edge1" class="edge">
<title>Node1&#45;&gt;Node2</title>
<path fill="none" stroke="midnightblue" d="M409.99,-162.65C387.26,-150.62 360.2,-136.3 338.85,-125"/>
<polygon fill="midnightblue" stroke="midnightblue" points="408.64,-165.89 419.11,-167.48 411.91,-159.71 408.64,-165.89"/>
</g>
<!-- Node7 -->
<g id="node7" class="node">
<title>Node7</title>
<g id="a_node7"><a xlink:href="statusindicators__factory__interface_8hpp.xhtml" target="_top" xlink:title="Dependency injection for the keypad.">
<polygon fill="white" stroke="black" points="387.5,-78.5 387.5,-130.5 524.5,-130.5 524.5,-78.5 387.5,-78.5"/>
<text text-anchor="start" x="395.5" y="-118.5" font-family="Helvetica,sans-Serif" font-size="10.00">lib/application_business</text>
<text text-anchor="start" x="395.5" y="-107.5" font-family="Helvetica,sans-Serif" font-size="10.00">_rules/user_interaction</text>
<text text-anchor="start" x="395.5" y="-96.5" font-family="Helvetica,sans-Serif" font-size="10.00">/statusindicators_factory</text>
<text text-anchor="middle" x="456" y="-85.5" font-family="Helvetica,sans-Serif" font-size="10.00">_interface.hpp</text>
</a>
</g>
</g>
<!-- Node1&#45;&gt;Node7 -->
<g id="edge6" class="edge">
<title>Node1&#45;&gt;Node7</title>
<path fill="none" stroke="midnightblue" d="M456,-157.12C456,-148.41 456,-138.99 456,-130.61"/>
<polygon fill="midnightblue" stroke="midnightblue" points="452.5,-157.27 456,-167.27 459.5,-157.27 452.5,-157.27"/>
</g>
<!-- Node9 -->
<g id="node9" class="node">
<title>Node9</title>
<g id="a_node9"><a xlink:href="status__indicators_8hpp.xhtml" target="_top" xlink:title=" ">
<polygon fill="white" stroke="black" points="547,-84 547,-125 683,-125 683,-84 547,-84"/>
<text text-anchor="start" x="555" y="-113" font-family="Helvetica,sans-Serif" font-size="10.00">lib/board_adapters</text>
<text text-anchor="start" x="555" y="-102" font-family="Helvetica,sans-Serif" font-size="10.00">/status_indicators/status</text>
<text text-anchor="middle" x="615" y="-91" font-family="Helvetica,sans-Serif" font-size="10.00">_indicators.hpp</text>
</a>
</g>
</g>
<!-- Node1&#45;&gt;Node9 -->
<g id="edge10" class="edge">
<title>Node1&#45;&gt;Node9</title>
<path fill="none" stroke="midnightblue" d="M503.19,-162.81C526.73,-150.75 554.82,-136.35 576.95,-125"/>
<polygon fill="midnightblue" stroke="midnightblue" points="501.39,-159.8 494.08,-167.48 504.58,-166.03 501.39,-159.8"/>
</g>
<!-- Node3 -->
<g id="node3" class="node">
<title>Node3</title>
<g id="a_node3"><a xlink:href="Presenter_8cpp.xhtml" target="_top" xlink:title=" ">
<polygon fill="white" stroke="black" points="0,-0.5 0,-41.5 134,-41.5 134,-0.5 0,-0.5"/>
<text text-anchor="start" x="8" y="-29.5" font-family="Helvetica,sans-Serif" font-size="10.00">lib/application_business</text>
<text text-anchor="start" x="8" y="-18.5" font-family="Helvetica,sans-Serif" font-size="10.00">_rules/user_interaction</text>
<text text-anchor="middle" x="67" y="-7.5" font-family="Helvetica,sans-Serif" font-size="10.00">/Presenter.cpp</text>
</a>
</g>
</g>
<!-- Node2&#45;&gt;Node3 -->
<g id="edge2" class="edge">
<title>Node2&#45;&gt;Node3</title>
<path fill="none" stroke="midnightblue" d="M235.92,-80.58C200.42,-68.27 157.11,-53.25 123.24,-41.5"/>
<polygon fill="midnightblue" stroke="midnightblue" points="235.12,-84.01 245.71,-83.98 237.41,-77.4 235.12,-84.01"/>
</g>
<!-- Node4 -->
<g id="node4" class="node">
<title>Node4</title>
<g id="a_node4"><a xlink:href="ProcessHmiInputs_8cpp.xhtml" target="_top" xlink:title=" ">
<polygon fill="white" stroke="black" points="152,-0.5 152,-41.5 286,-41.5 286,-0.5 152,-0.5"/>
<text text-anchor="start" x="160" y="-29.5" font-family="Helvetica,sans-Serif" font-size="10.00">lib/application_business</text>
<text text-anchor="start" x="160" y="-18.5" font-family="Helvetica,sans-Serif" font-size="10.00">_rules/user_interaction</text>
<text text-anchor="middle" x="219" y="-7.5" font-family="Helvetica,sans-Serif" font-size="10.00">/ProcessHmiInputs.cpp</text>
</a>
</g>
</g>
<!-- Node2&#45;&gt;Node4 -->
<g id="edge3" class="edge">
<title>Node2&#45;&gt;Node4</title>
<path fill="none" stroke="midnightblue" d="M274.54,-76.54C262.9,-65.1 249.58,-52.03 238.91,-41.55"/>
<polygon fill="midnightblue" stroke="midnightblue" points="272.32,-79.26 281.91,-83.77 277.22,-74.27 272.32,-79.26"/>
</g>
<!-- Node5 -->
<g id="node5" class="node">
<title>Node5</title>
<g id="a_node5"><a xlink:href="main_8cpp.xhtml" target="_top" xlink:title=" ">
<polygon fill="white" stroke="black" points="304.5,-11.5 304.5,-30.5 383.5,-30.5 383.5,-11.5 304.5,-11.5"/>
<text text-anchor="middle" x="344" y="-18.5" font-family="Helvetica,sans-Serif" font-size="10.00">src/main.cpp</text>
</a>
</g>
</g>
<!-- Node2&#45;&gt;Node5 -->
<g id="edge4" class="edge">
<title>Node2&#45;&gt;Node5</title>
<path fill="none" stroke="midnightblue" d="M316.93,-74.52C324.93,-59.01 334.21,-41.01 339.56,-30.62"/>
<polygon fill="midnightblue" stroke="midnightblue" points="313.64,-73.28 312.17,-83.77 319.86,-76.49 313.64,-73.28"/>
</g>
<!-- Node6 -->
<g id="node6" class="node">
<title>Node6</title>
<g id="a_node6"><a xlink:href="test__hmi_8cpp.xhtml" target="_top" xlink:title=" ">
<polygon fill="white" stroke="black" points="401.5,-6 401.5,-36 504.5,-36 504.5,-6 401.5,-6"/>
<text text-anchor="start" x="409.5" y="-24" font-family="Helvetica,sans-Serif" font-size="10.00">test/test_hmi/test</text>
<text text-anchor="middle" x="453" y="-13" font-family="Helvetica,sans-Serif" font-size="10.00">_hmi.cpp</text>
</a>
</g>
</g>
<!-- Node2&#45;&gt;Node6 -->
<g id="edge5" class="edge">
<title>Node2&#45;&gt;Node6</title>
<path fill="none" stroke="midnightblue" d="M347.13,-79.14C373.23,-65.06 405.13,-47.84 427.05,-36"/>
<polygon fill="midnightblue" stroke="midnightblue" points="345.31,-76.15 338.17,-83.98 348.63,-82.31 345.31,-76.15"/>
</g>
<!-- Node7&#45;&gt;Node5 -->
<g id="edge8" class="edge">
<title>Node7&#45;&gt;Node5</title>
<path fill="none" stroke="midnightblue" d="M413.15,-72.32C392.57,-57.35 369.48,-40.54 355.87,-30.64"/>
<polygon fill="midnightblue" stroke="midnightblue" points="411.34,-75.33 421.48,-78.38 415.46,-69.67 411.34,-75.33"/>
</g>
<!-- Node7&#45;&gt;Node6 -->
<g id="edge9" class="edge">
<title>Node7&#45;&gt;Node6</title>
<path fill="none" stroke="midnightblue" d="M454.7,-68.08C454.28,-56.82 453.85,-45.01 453.52,-36.17"/>
<polygon fill="midnightblue" stroke="midnightblue" points="451.2,-68.3 455.07,-78.16 458.2,-68.04 451.2,-68.3"/>
</g>
<!-- Node8 -->
<g id="node8" class="node">
<title>Node8</title>
<g id="a_node8"><a xlink:href="statusindicators__factory__interface_8cpp.xhtml" target="_top" xlink:title=" ">
<polygon fill="white" stroke="black" points="523,-0.5 523,-41.5 707,-41.5 707,-0.5 523,-0.5"/>
<text text-anchor="start" x="531" y="-29.5" font-family="Helvetica,sans-Serif" font-size="10.00">lib/board_adapters</text>
<text text-anchor="start" x="531" y="-18.5" font-family="Helvetica,sans-Serif" font-size="10.00">/status_indicators/statusindicators</text>
<text text-anchor="middle" x="615" y="-7.5" font-family="Helvetica,sans-Serif" font-size="10.00">_factory_interface.cpp</text>
</a>
</g>
</g>
<!-- Node7&#45;&gt;Node8 -->
<g id="edge7" class="edge">
<title>Node7&#45;&gt;Node8</title>
<path fill="none" stroke="midnightblue" d="M514.11,-73.71C534.99,-63.01 557.99,-51.22 576.76,-41.6"/>
<polygon fill="midnightblue" stroke="midnightblue" points="512.31,-70.71 505,-78.38 515.5,-76.94 512.31,-70.71"/>
</g>
<!-- Node9&#45;&gt;Node8 -->
<g id="edge12" class="edge">
<title>Node9&#45;&gt;Node8</title>
<path fill="none" stroke="midnightblue" d="M615,-73.56C615,-62.88 615,-51.13 615,-41.55"/>
<polygon fill="midnightblue" stroke="midnightblue" points="611.5,-73.77 615,-83.77 618.5,-73.77 611.5,-73.77"/>
</g>
<!-- Node10 -->
<g id="node10" class="node">
<title>Node10</title>
<g id="a_node10"><a xlink:href="status__indicators_8cpp.xhtml" target="_top" xlink:title=" ">
<polygon fill="white" stroke="black" points="725,-0.5 725,-41.5 861,-41.5 861,-0.5 725,-0.5"/>
<text text-anchor="start" x="733" y="-29.5" font-family="Helvetica,sans-Serif" font-size="10.00">lib/board_adapters</text>
<text text-anchor="start" x="733" y="-18.5" font-family="Helvetica,sans-Serif" font-size="10.00">/status_indicators/status</text>
<text text-anchor="middle" x="793" y="-7.5" font-family="Helvetica,sans-Serif" font-size="10.00">_indicators.cpp</text>
</a>
</g>
</g>
<!-- Node9&#45;&gt;Node10 -->
<g id="edge11" class="edge">
<title>Node9&#45;&gt;Node10</title>
<path fill="none" stroke="midnightblue" d="M666.78,-79.79C693.34,-67.63 725.29,-53 750.4,-41.5"/>
<polygon fill="midnightblue" stroke="midnightblue" points="665.27,-76.63 657.64,-83.98 668.18,-83 665.27,-76.63"/>
</g>
</g>
</svg>
