<?xml version="1.0" encoding="UTF-8" standalone="no"?>
<!DOCTYPE svg PUBLIC "-//W3C//DTD SVG 1.1//EN"
 "http://www.w3.org/Graphics/SVG/1.1/DTD/svg11.dtd">
<!-- Generated by graphviz version 2.43.0 (0)
 -->
<!-- Title: lib/application_business_rules/user_interaction/IStatusIndicator.hpp Pages: 1 -->
<svg width="891pt" height="217pt"
 viewBox="0.00 0.00 891.00 217.00" xmlns="http://www.w3.org/2000/svg" xmlns:xlink="http://www.w3.org/1999/xlink">
<g id="graph0" class="graph" transform="scale(1 1) rotate(0) translate(4 213)">
<title>lib/application_business_rules/user_interaction/IStatusIndicator.hpp</title>
<polygon fill="white" stroke="transparent" points="-4,4 -4,-213 887,-213 887,4 -4,4"/>
<!-- Node1 -->
<g id="node1" class="node">
<title>Node1</title>
<g id="a_node1"><a xlink:title=" ">
<polygon fill="#bfbfbf" stroke="black" points="406,-167.5 406,-208.5 540,-208.5 540,-167.5 406,-167.5"/>
<text text-anchor="start" x="414" y="-196.5" font-family="Helvetica,sans-Serif" font-size="10.00">lib/application_business</text>
<text text-anchor="start" x="414" y="-185.5" font-family="Helvetica,sans-Serif" font-size="10.00">_rules/user_interaction</text>
<text text-anchor="middle" x="473" y="-174.5" font-family="Helvetica,sans-Serif" font-size="10.00">/IStatusIndicator.hpp</text>
</a>
</g>
</g>
<!-- Node2 -->
<g id="node2" class="node">
<title>Node2</title>
<g id="a_node2"><a xlink:href="Presenter_8hpp.xhtml" target="_top" xlink:title=" ">
<polygon fill="white" stroke="black" points="252,-84 252,-125 386,-125 386,-84 252,-84"/>
<text text-anchor="start" x="260" y="-113" font-family="Helvetica,sans-Serif" font-size="10.00">lib/application_business</text>
<text text-anchor="start" x="260" y="-102" font-family="Helvetica,sans-Serif" font-size="10.00">_rules/user_interaction</text>
<text text-anchor="middle" x="319" y="-91" font-family="Helvetica,sans-Serif" font-size="10.00">/Presenter.hpp</text>
</a>
</g>
</g>
<!-- Node1&#45;&gt;Node2 -->
<g id="edge1" class="edge">
<title>Node1&#45;&gt;Node2</title>
<path fill="none" stroke="midnightblue" d="M426.99,-162.65C404.26,-150.62 377.2,-136.3 355.85,-125"/>
<polygon fill="midnightblue" stroke="midnightblue" points="425.64,-165.89 436.11,-167.48 428.91,-159.71 425.64,-165.89"/>
</g>
<!-- Node7 -->
<g id="node7" class="node">
<title>Node7</title>
<g id="a_node7"><a xlink:href="statusindicators__factory__interface_8hpp.xhtml" target="_top" xlink:title="Dependency injection for the keypad.">
<polygon fill="white" stroke="black" points="404.5,-78.5 404.5,-130.5 541.5,-130.5 541.5,-78.5 404.5,-78.5"/>
<text text-anchor="start" x="412.5" y="-118.5" font-family="Helvetica,sans-Serif" font-size="10.00">lib/application_business</text>
<text text-anchor="start" x="412.5" y="-107.5" font-family="Helvetica,sans-Serif" font-size="10.00">_rules/user_interaction</text>
<text text-anchor="start" x="412.5" y="-96.5" font-family="Helvetica,sans-Serif" font-size="10.00">/statusindicators_factory</text>
<text text-anchor="middle" x="473" y="-85.5" font-family="Helvetica,sans-Serif" font-size="10.00">_interface.hpp</text>
</a>
</g>
</g>
<!-- Node1&#45;&gt;Node7 -->
<g id="edge6" class="edge">
<title>Node1&#45;&gt;Node7</title>
<path fill="none" stroke="midnightblue" d="M473,-157.12C473,-148.41 473,-138.99 473,-130.61"/>
<polygon fill="midnightblue" stroke="midnightblue" points="469.5,-157.27 473,-167.27 476.5,-157.27 469.5,-157.27"/>
</g>
<!-- Node9 -->
<g id="node9" class="node">
<title>Node9</title>
<g id="a_node9"><a xlink:href="status__indicators_8hpp.xhtml" target="_top" xlink:title=" ">
<polygon fill="white" stroke="black" points="569,-84 569,-125 705,-125 705,-84 569,-84"/>
<text text-anchor="start" x="577" y="-113" font-family="Helvetica,sans-Serif" font-size="10.00">lib/board_adapters</text>
<text text-anchor="start" x="577" y="-102" font-family="Helvetica,sans-Serif" font-size="10.00">/status_indicators/status</text>
<text text-anchor="middle" x="637" y="-91" font-family="Helvetica,sans-Serif" font-size="10.00">_indicators.hpp</text>
</a>
</g>
</g>
<!-- Node1&#45;&gt;Node9 -->
<g id="edge10" class="edge">
<title>Node1&#45;&gt;Node9</title>
<path fill="none" stroke="midnightblue" d="M521.35,-162.97C545.7,-150.87 574.82,-136.4 597.75,-125"/>
<polygon fill="midnightblue" stroke="midnightblue" points="519.68,-159.89 512.28,-167.48 522.79,-166.16 519.68,-159.89"/>
</g>
<!-- Node3 -->
<g id="node3" class="node">
<title>Node3</title>
<g id="a_node3"><a xlink:href="Presenter_8cpp.xhtml" target="_top" xlink:title=" ">
<polygon fill="white" stroke="black" points="0,-0.5 0,-41.5 134,-41.5 134,-0.5 0,-0.5"/>
<text text-anchor="start" x="8" y="-29.5" font-family="Helvetica,sans-Serif" font-size="10.00">lib/application_business</text>
<text text-anchor="start" x="8" y="-18.5" font-family="Helvetica,sans-Serif" font-size="10.00">_rules/user_interaction</text>
<text text-anchor="middle" x="67" y="-7.5" font-family="Helvetica,sans-Serif" font-size="10.00">/Presenter.cpp</text>
</a>
</g>
</g>
<!-- Node2&#45;&gt;Node3 -->
<g id="edge2" class="edge">
<title>Node2&#45;&gt;Node3</title>
<path fill="none" stroke="midnightblue" d="M249.11,-80.9C210.86,-68.53 163.94,-53.35 127.3,-41.5"/>
<polygon fill="midnightblue" stroke="midnightblue" points="248.05,-84.23 258.64,-83.98 250.2,-77.57 248.05,-84.23"/>
</g>
<!-- Node4 -->
<g id="node4" class="node">
<title>Node4</title>
<g id="a_node4"><a xlink:href="ProcessHmiInputs_8cpp.xhtml" target="_top" xlink:title=" ">
<polygon fill="white" stroke="black" points="152,-0.5 152,-41.5 286,-41.5 286,-0.5 152,-0.5"/>
<text text-anchor="start" x="160" y="-29.5" font-family="Helvetica,sans-Serif" font-size="10.00">lib/application_business</text>
<text text-anchor="start" x="160" y="-18.5" font-family="Helvetica,sans-Serif" font-size="10.00">_rules/user_interaction</text>
<text text-anchor="middle" x="219" y="-7.5" font-family="Helvetica,sans-Serif" font-size="10.00">/ProcessHmiInputs.cpp</text>
</a>
</g>
</g>
<!-- Node2&#45;&gt;Node4 -->
<g id="edge3" class="edge">
<title>Node2&#45;&gt;Node4</title>
<path fill="none" stroke="midnightblue" d="M286.97,-77.39C272.74,-65.8 256.27,-52.37 243.1,-41.64"/>
<polygon fill="midnightblue" stroke="midnightblue" points="285.08,-80.37 295.05,-83.98 289.51,-74.95 285.08,-80.37"/>
</g>
<!-- Node5 -->
<g id="node5" class="node">
<title>Node5</title>
<g id="a_node5"><a xlink:href="main_8cpp.xhtml" target="_top" xlink:title=" ">
<polygon fill="white" stroke="black" points="304.5,-11.5 304.5,-30.5 383.5,-30.5 383.5,-11.5 304.5,-11.5"/>
<text text-anchor="middle" x="344" y="-18.5" font-family="Helvetica,sans-Serif" font-size="10.00">src/main.cpp</text>
</a>
</g>
</g>
<!-- Node2&#45;&gt;Node5 -->
<g id="edge4" class="edge">
<title>Node2&#45;&gt;Node5</title>
<path fill="none" stroke="midnightblue" d="M328.02,-74.08C332.75,-58.67 338.2,-40.91 341.36,-30.62"/>
<polygon fill="midnightblue" stroke="midnightblue" points="324.64,-73.18 325.05,-83.77 331.33,-75.24 324.64,-73.18"/>
</g>
<!-- Node6 -->
<g id="node6" class="node">
<title>Node6</title>
<g id="a_node6"><a xlink:href="test__hmi_8cpp.xhtml" target="_top" xlink:title=" ">
<polygon fill="white" stroke="black" points="401.5,-6 401.5,-36 526.5,-36 526.5,-6 401.5,-6"/>
<text text-anchor="start" x="409.5" y="-24" font-family="Helvetica,sans-Serif" font-size="10.00">test/hmi/test_hmi/test</text>
<text text-anchor="middle" x="464" y="-13" font-family="Helvetica,sans-Serif" font-size="10.00">_hmi.cpp</text>
</a>
</g>
</g>
<!-- Node2&#45;&gt;Node6 -->
<g id="edge5" class="edge">
<title>Node2&#45;&gt;Node6</title>
<path fill="none" stroke="midnightblue" d="M362.67,-78.96C387.66,-64.91 418.13,-47.78 439.09,-36"/>
<polygon fill="midnightblue" stroke="midnightblue" points="360.73,-76.03 353.73,-83.98 364.16,-82.13 360.73,-76.03"/>
</g>
<!-- Node7&#45;&gt;Node5 -->
<g id="edge8" class="edge">
<title>Node7&#45;&gt;Node5</title>
<path fill="none" stroke="midnightblue" d="M424.59,-72.92C400.66,-57.79 373.56,-40.68 357.67,-30.64"/>
<polygon fill="midnightblue" stroke="midnightblue" points="422.92,-76 433.24,-78.38 426.66,-70.08 422.92,-76"/>
</g>
<!-- Node7&#45;&gt;Node6 -->
<g id="edge9" class="edge">
<title>Node7&#45;&gt;Node6</title>
<path fill="none" stroke="midnightblue" d="M469.09,-68.08C467.85,-56.82 466.54,-45.01 465.56,-36.17"/>
<polygon fill="midnightblue" stroke="midnightblue" points="465.63,-68.6 470.2,-78.16 472.58,-67.84 465.63,-68.6"/>
</g>
<!-- Node8 -->
<g id="node8" class="node">
<title>Node8</title>
<g id="a_node8"><a xlink:href="statusindicators__factory__interface_8cpp.xhtml" target="_top" xlink:title=" ">
<polygon fill="white" stroke="black" points="545,-0.5 545,-41.5 729,-41.5 729,-0.5 545,-0.5"/>
<text text-anchor="start" x="553" y="-29.5" font-family="Helvetica,sans-Serif" font-size="10.00">lib/board_adapters</text>
<text text-anchor="start" x="553" y="-18.5" font-family="Helvetica,sans-Serif" font-size="10.00">/status_indicators/statusindicators</text>
<text text-anchor="middle" x="637" y="-7.5" font-family="Helvetica,sans-Serif" font-size="10.00">_factory_interface.cpp</text>
</a>
</g>
</g>
<!-- Node7&#45;&gt;Node8 -->
<g id="edge7" class="edge">
<title>Node7&#45;&gt;Node8</title>
<path fill="none" stroke="midnightblue" d="M532.65,-73.86C554.26,-63.12 578.11,-51.26 597.55,-41.6"/>
<polygon fill="midnightblue" stroke="midnightblue" points="530.94,-70.8 523.54,-78.38 534.06,-77.07 530.94,-70.8"/>
</g>
<!-- Node9&#45;&gt;Node8 -->
<g id="edge12" class="edge">
<title>Node9&#45;&gt;Node8</title>
<path fill="none" stroke="midnightblue" d="M637,-73.56C637,-62.88 637,-51.13 637,-41.55"/>
<polygon fill="midnightblue" stroke="midnightblue" points="633.5,-73.77 637,-83.77 640.5,-73.77 633.5,-73.77"/>
</g>
<!-- Node10 -->
<g id="node10" class="node">
<title>Node10</title>
<g id="a_node10"><a xlink:href="status__indicators_8cpp.xhtml" target="_top" xlink:title=" ">
<polygon fill="white" stroke="black" points="747,-0.5 747,-41.5 883,-41.5 883,-0.5 747,-0.5"/>
<text text-anchor="start" x="755" y="-29.5" font-family="Helvetica,sans-Serif" font-size="10.00">lib/board_adapters</text>
<text text-anchor="start" x="755" y="-18.5" font-family="Helvetica,sans-Serif" font-size="10.00">/status_indicators/status</text>
<text text-anchor="middle" x="815" y="-7.5" font-family="Helvetica,sans-Serif" font-size="10.00">_indicators.cpp</text>
</a>
</g>
</g>
<!-- Node9&#45;&gt;Node10 -->
<g id="edge11" class="edge">
<title>Node9&#45;&gt;Node10</title>
<path fill="none" stroke="midnightblue" d="M688.78,-79.79C715.34,-67.63 747.29,-53 772.4,-41.5"/>
<polygon fill="midnightblue" stroke="midnightblue" points="687.27,-76.63 679.64,-83.98 690.18,-83 687.27,-76.63"/>
</g>
</g>
</svg>
