<?xml version="1.0" encoding="UTF-8" standalone="no"?>
<!DOCTYPE svg PUBLIC "-//W3C//DTD SVG 1.1//EN"
 "http://www.w3.org/Graphics/SVG/1.1/DTD/svg11.dtd">
<!-- Generated by graphviz version 2.43.0 (0)
 -->
<!-- Title: lib/application_business_rules/user_interaction/KeyIds.hpp Pages: 1 -->
<svg width="1044pt" height="284pt"
 viewBox="0.00 0.00 1043.50 284.00" xmlns="http://www.w3.org/2000/svg" xmlns:xlink="http://www.w3.org/1999/xlink">
<g id="graph0" class="graph" transform="scale(1 1) rotate(0) translate(4 280)">
<title>lib/application_business_rules/user_interaction/KeyIds.hpp</title>
<polygon fill="white" stroke="transparent" points="-4,4 -4,-280 1039.5,-280 1039.5,4 -4,4"/>
<!-- Node1 -->
<g id="node1" class="node">
<title>Node1</title>
<g id="a_node1"><a xlink:title=" ">
<polygon fill="#bfbfbf" stroke="black" points="556.5,-234.5 556.5,-275.5 690.5,-275.5 690.5,-234.5 556.5,-234.5"/>
<text text-anchor="start" x="564.5" y="-263.5" font-family="Helvetica,sans-Serif" font-size="10.00">lib/application_business</text>
<text text-anchor="start" x="564.5" y="-252.5" font-family="Helvetica,sans-Serif" font-size="10.00">_rules/user_interaction</text>
<text text-anchor="middle" x="623.5" y="-241.5" font-family="Helvetica,sans-Serif" font-size="10.00">/KeyIds.hpp</text>
</a>
</g>
</g>
<!-- Node2 -->
<g id="node2" class="node">
<title>Node2</title>
<g id="a_node2"><a xlink:href="board__interface_8hpp.xhtml" target="_top" xlink:title=" ">
<polygon fill="white" stroke="black" points="632.5,-156.5 632.5,-197.5 766.5,-197.5 766.5,-156.5 632.5,-156.5"/>
<text text-anchor="start" x="640.5" y="-185.5" font-family="Helvetica,sans-Serif" font-size="10.00">lib/application_business</text>
<text text-anchor="start" x="640.5" y="-174.5" font-family="Helvetica,sans-Serif" font-size="10.00">_rules/user_interaction</text>
<text text-anchor="middle" x="699.5" y="-163.5" font-family="Helvetica,sans-Serif" font-size="10.00">/board_interface.hpp</text>
</a>
</g>
</g>
<!-- Node1&#45;&gt;Node2 -->
<g id="edge1" class="edge">
<title>Node1&#45;&gt;Node2</title>
<path fill="none" stroke="midnightblue" d="M650.3,-227.2C660.08,-217.42 670.96,-206.54 679.99,-197.51"/>
<polygon fill="midnightblue" stroke="midnightblue" points="647.67,-224.88 643.07,-234.43 652.62,-229.83 647.67,-224.88"/>
</g>
<!-- Node7 -->
<g id="node7" class="node">
<title>Node7</title>
<g id="a_node7"><a xlink:href="IKeypad_8hpp.xhtml" target="_top" xlink:title=" ">
<polygon fill="white" stroke="black" points="300.5,-156.5 300.5,-197.5 434.5,-197.5 434.5,-156.5 300.5,-156.5"/>
<text text-anchor="start" x="308.5" y="-185.5" font-family="Helvetica,sans-Serif" font-size="10.00">lib/application_business</text>
<text text-anchor="start" x="308.5" y="-174.5" font-family="Helvetica,sans-Serif" font-size="10.00">_rules/user_interaction</text>
<text text-anchor="middle" x="367.5" y="-163.5" font-family="Helvetica,sans-Serif" font-size="10.00">/IKeypad.hpp</text>
</a>
</g>
</g>
<!-- Node1&#45;&gt;Node7 -->
<g id="edge6" class="edge">
<title>Node1&#45;&gt;Node7</title>
<path fill="none" stroke="midnightblue" d="M547.98,-231.58C511.55,-220.76 468.25,-207.91 433.2,-197.51"/>
<polygon fill="midnightblue" stroke="midnightblue" points="546.99,-234.94 557.57,-234.43 548.98,-228.23 546.99,-234.94"/>
</g>
<!-- Node14 -->
<g id="node14" class="node">
<title>Node14</title>
<g id="a_node14"><a xlink:href="KeyIds_8cpp.xhtml" target="_top" xlink:title=" ">
<polygon fill="white" stroke="black" points="784.5,-156.5 784.5,-197.5 918.5,-197.5 918.5,-156.5 784.5,-156.5"/>
<text text-anchor="start" x="792.5" y="-185.5" font-family="Helvetica,sans-Serif" font-size="10.00">lib/application_business</text>
<text text-anchor="start" x="792.5" y="-174.5" font-family="Helvetica,sans-Serif" font-size="10.00">_rules/user_interaction</text>
<text text-anchor="middle" x="851.5" y="-163.5" font-family="Helvetica,sans-Serif" font-size="10.00">/KeyIds.cpp</text>
</a>
</g>
</g>
<!-- Node1&#45;&gt;Node14 -->
<g id="edge16" class="edge">
<title>Node1&#45;&gt;Node14</title>
<path fill="none" stroke="midnightblue" d="M692,-231.17C724.19,-220.44 762.16,-207.78 792.98,-197.51"/>
<polygon fill="midnightblue" stroke="midnightblue" points="690.6,-227.95 682.22,-234.43 692.81,-234.59 690.6,-227.95"/>
</g>
<!-- Node15 -->
<g id="node15" class="node">
<title>Node15</title>
<g id="a_node15"><a xlink:href="ProcessHmiInputs_8hpp.xhtml" target="_top" xlink:title=" ">
<polygon fill="white" stroke="black" points="480.5,-156.5 480.5,-197.5 614.5,-197.5 614.5,-156.5 480.5,-156.5"/>
<text text-anchor="start" x="488.5" y="-185.5" font-family="Helvetica,sans-Serif" font-size="10.00">lib/application_business</text>
<text text-anchor="start" x="488.5" y="-174.5" font-family="Helvetica,sans-Serif" font-size="10.00">_rules/user_interaction</text>
<text text-anchor="middle" x="547.5" y="-163.5" font-family="Helvetica,sans-Serif" font-size="10.00">/ProcessHmiInputs.hpp</text>
</a>
</g>
</g>
<!-- Node1&#45;&gt;Node15 -->
<g id="edge17" class="edge">
<title>Node1&#45;&gt;Node15</title>
<path fill="none" stroke="midnightblue" d="M596.7,-227.2C586.92,-217.42 576.04,-206.54 567.01,-197.51"/>
<polygon fill="midnightblue" stroke="midnightblue" points="594.38,-229.83 603.93,-234.43 599.33,-224.88 594.38,-229.83"/>
</g>
<!-- Node3 -->
<g id="node3" class="node">
<title>Node3</title>
<g id="a_node3"><a xlink:href="Presenter_8cpp.xhtml" target="_top" xlink:title=" ">
<polygon fill="white" stroke="black" points="623.5,-78.5 623.5,-119.5 757.5,-119.5 757.5,-78.5 623.5,-78.5"/>
<text text-anchor="start" x="631.5" y="-107.5" font-family="Helvetica,sans-Serif" font-size="10.00">lib/application_business</text>
<text text-anchor="start" x="631.5" y="-96.5" font-family="Helvetica,sans-Serif" font-size="10.00">_rules/user_interaction</text>
<text text-anchor="middle" x="690.5" y="-85.5" font-family="Helvetica,sans-Serif" font-size="10.00">/Presenter.cpp</text>
</a>
</g>
</g>
<!-- Node2&#45;&gt;Node3 -->
<g id="edge2" class="edge">
<title>Node2&#45;&gt;Node3</title>
<path fill="none" stroke="midnightblue" d="M695.98,-146.3C694.92,-137.3 693.77,-127.65 692.81,-119.51"/>
<polygon fill="midnightblue" stroke="midnightblue" points="692.53,-146.91 697.18,-156.43 699.48,-146.09 692.53,-146.91"/>
</g>
<!-- Node4 -->
<g id="node4" class="node">
<title>Node4</title>
<g id="a_node4"><a xlink:href="ProcessHmiInputs_8cpp.xhtml" target="_top" xlink:title=" ">
<polygon fill="white" stroke="black" points="395.5,-78.5 395.5,-119.5 529.5,-119.5 529.5,-78.5 395.5,-78.5"/>
<text text-anchor="start" x="403.5" y="-107.5" font-family="Helvetica,sans-Serif" font-size="10.00">lib/application_business</text>
<text text-anchor="start" x="403.5" y="-96.5" font-family="Helvetica,sans-Serif" font-size="10.00">_rules/user_interaction</text>
<text text-anchor="middle" x="462.5" y="-85.5" font-family="Helvetica,sans-Serif" font-size="10.00">/ProcessHmiInputs.cpp</text>
</a>
</g>
</g>
<!-- Node2&#45;&gt;Node4 -->
<g id="edge3" class="edge">
<title>Node2&#45;&gt;Node4</title>
<path fill="none" stroke="midnightblue" d="M628.72,-153.3C595.18,-142.55 555.5,-129.82 523.33,-119.51"/>
<polygon fill="midnightblue" stroke="midnightblue" points="627.88,-156.71 638.47,-156.43 630.01,-150.04 627.88,-156.71"/>
</g>
<!-- Node5 -->
<g id="node5" class="node">
<title>Node5</title>
<g id="a_node5"><a xlink:href="board_8cpp.xhtml" target="_top" xlink:title=" ">
<polygon fill="white" stroke="black" points="776,-84 776,-114 883,-114 883,-84 776,-84"/>
<text text-anchor="start" x="784" y="-102" font-family="Helvetica,sans-Serif" font-size="10.00">lib/board_adapters</text>
<text text-anchor="middle" x="829.5" y="-91" font-family="Helvetica,sans-Serif" font-size="10.00">/board.cpp</text>
</a>
</g>
</g>
<!-- Node2&#45;&gt;Node5 -->
<g id="edge4" class="edge">
<title>Node2&#45;&gt;Node5</title>
<path fill="none" stroke="midnightblue" d="M741.72,-151.31C762.72,-139.04 787.35,-124.64 805.17,-114.23"/>
<polygon fill="midnightblue" stroke="midnightblue" points="739.84,-148.36 732.98,-156.43 743.38,-154.4 739.84,-148.36"/>
</g>
<!-- Node6 -->
<g id="node6" class="node">
<title>Node6</title>
<g id="a_node6"><a xlink:href="sound__output_8cpp.xhtml" target="_top" xlink:title=" ">
<polygon fill="white" stroke="black" points="901.5,-78.5 901.5,-119.5 1035.5,-119.5 1035.5,-78.5 901.5,-78.5"/>
<text text-anchor="start" x="909.5" y="-107.5" font-family="Helvetica,sans-Serif" font-size="10.00">lib/board_adapters</text>
<text text-anchor="start" x="909.5" y="-96.5" font-family="Helvetica,sans-Serif" font-size="10.00">/sound_output_interface</text>
<text text-anchor="middle" x="968.5" y="-85.5" font-family="Helvetica,sans-Serif" font-size="10.00">/sound_output.cpp</text>
</a>
</g>
</g>
<!-- Node2&#45;&gt;Node6 -->
<g id="edge5" class="edge">
<title>Node2&#45;&gt;Node6</title>
<path fill="none" stroke="midnightblue" d="M776.51,-154.24C815.88,-143.12 863.35,-129.71 901.24,-119"/>
<polygon fill="midnightblue" stroke="midnightblue" points="775.36,-150.93 766.69,-157.02 777.26,-157.67 775.36,-150.93"/>
</g>
<!-- Node7&#45;&gt;Node4 -->
<g id="edge11" class="edge">
<title>Node7&#45;&gt;Node4</title>
<path fill="none" stroke="midnightblue" d="M399.92,-150.06C412.43,-140.06 426.49,-128.8 438.12,-119.51"/>
<polygon fill="midnightblue" stroke="midnightblue" points="397.59,-147.45 391.96,-156.43 401.96,-152.91 397.59,-147.45"/>
</g>
<!-- Node8 -->
<g id="node8" class="node">
<title>Node8</title>
<g id="a_node8"><a xlink:href="keypad__factory__interface_8hpp.xhtml" target="_top" xlink:title="Dependency injection for the keypad.">
<polygon fill="white" stroke="black" points="175.5,-78.5 175.5,-119.5 339.5,-119.5 339.5,-78.5 175.5,-78.5"/>
<text text-anchor="start" x="183.5" y="-107.5" font-family="Helvetica,sans-Serif" font-size="10.00">lib/application_business</text>
<text text-anchor="start" x="183.5" y="-96.5" font-family="Helvetica,sans-Serif" font-size="10.00">_rules/user_interaction</text>
<text text-anchor="middle" x="257.5" y="-85.5" font-family="Helvetica,sans-Serif" font-size="10.00">/keypad_factory_interface.hpp</text>
</a>
</g>
</g>
<!-- Node7&#45;&gt;Node8 -->
<g id="edge7" class="edge">
<title>Node7&#45;&gt;Node8</title>
<path fill="none" stroke="midnightblue" d="M330.79,-150.64C316.1,-140.49 299.45,-128.98 285.73,-119.51"/>
<polygon fill="midnightblue" stroke="midnightblue" points="328.96,-153.62 339.17,-156.43 332.93,-147.86 328.96,-153.62"/>
</g>
<!-- Node11 -->
<g id="node11" class="node">
<title>Node11</title>
<g id="a_node11"><a xlink:href="test__hmi_8cpp.xhtml" target="_top" xlink:title=" ">
<polygon fill="white" stroke="black" points="332,-6 332,-36 457,-36 457,-6 332,-6"/>
<text text-anchor="start" x="340" y="-24" font-family="Helvetica,sans-Serif" font-size="10.00">test/hmi/test_hmi/test</text>
<text text-anchor="middle" x="394.5" y="-13" font-family="Helvetica,sans-Serif" font-size="10.00">_hmi.cpp</text>
</a>
</g>
</g>
<!-- Node7&#45;&gt;Node11 -->
<g id="edge15" class="edge">
<title>Node7&#45;&gt;Node11</title>
<path fill="none" stroke="midnightblue" d="M372.67,-146.51C378.46,-113.49 387.6,-61.34 391.99,-36.32"/>
<polygon fill="midnightblue" stroke="midnightblue" points="369.2,-146.04 370.92,-156.5 376.09,-147.25 369.2,-146.04"/>
</g>
<!-- Node12 -->
<g id="node12" class="node">
<title>Node12</title>
<g id="a_node12"><a xlink:href="Keypad_8hpp.xhtml" target="_top" xlink:title=" ">
<polygon fill="white" stroke="black" points="26,-78.5 26,-119.5 157,-119.5 157,-78.5 26,-78.5"/>
<text text-anchor="start" x="34" y="-107.5" font-family="Helvetica,sans-Serif" font-size="10.00">lib/board_adapters</text>
<text text-anchor="start" x="34" y="-96.5" font-family="Helvetica,sans-Serif" font-size="10.00">/input_device_interface</text>
<text text-anchor="middle" x="91.5" y="-85.5" font-family="Helvetica,sans-Serif" font-size="10.00">/Keypad.hpp</text>
</a>
</g>
</g>
<!-- Node7&#45;&gt;Node12 -->
<g id="edge12" class="edge">
<title>Node7&#45;&gt;Node12</title>
<path fill="none" stroke="midnightblue" d="M290.43,-154.78C248.46,-143.22 197.09,-129.07 157.06,-118.05"/>
<polygon fill="midnightblue" stroke="midnightblue" points="289.77,-158.23 300.34,-157.51 291.62,-151.48 289.77,-158.23"/>
</g>
<!-- Node9 -->
<g id="node9" class="node">
<title>Node9</title>
<g id="a_node9"><a xlink:href="keypad__factory__interface_8cpp.xhtml" target="_top" xlink:title=" ">
<polygon fill="white" stroke="black" points="149.5,-0.5 149.5,-41.5 313.5,-41.5 313.5,-0.5 149.5,-0.5"/>
<text text-anchor="start" x="157.5" y="-29.5" font-family="Helvetica,sans-Serif" font-size="10.00">lib/board_adapters</text>
<text text-anchor="start" x="157.5" y="-18.5" font-family="Helvetica,sans-Serif" font-size="10.00">/input_device_interface</text>
<text text-anchor="middle" x="231.5" y="-7.5" font-family="Helvetica,sans-Serif" font-size="10.00">/keypad_factory_interface.cpp</text>
</a>
</g>
</g>
<!-- Node8&#45;&gt;Node9 -->
<g id="edge8" class="edge">
<title>Node8&#45;&gt;Node9</title>
<path fill="none" stroke="midnightblue" d="M247.54,-68.88C244.4,-59.72 241.02,-49.83 238.17,-41.51"/>
<polygon fill="midnightblue" stroke="midnightblue" points="244.26,-70.1 250.8,-78.43 250.88,-67.83 244.26,-70.1"/>
</g>
<!-- Node10 -->
<g id="node10" class="node">
<title>Node10</title>
<g id="a_node10"><a xlink:href="main_8cpp.xhtml" target="_top" xlink:title=" ">
<polygon fill="white" stroke="black" points="502,-11.5 502,-30.5 581,-30.5 581,-11.5 502,-11.5"/>
<text text-anchor="middle" x="541.5" y="-18.5" font-family="Helvetica,sans-Serif" font-size="10.00">src/main.cpp</text>
</a>
</g>
</g>
<!-- Node8&#45;&gt;Node10 -->
<g id="edge9" class="edge">
<title>Node8&#45;&gt;Node10</title>
<path fill="none" stroke="midnightblue" d="M340.3,-75.84C396.91,-60.69 468.82,-41.45 509.54,-30.55"/>
<polygon fill="midnightblue" stroke="midnightblue" points="339.39,-72.46 330.64,-78.43 341.2,-79.22 339.39,-72.46"/>
</g>
<!-- Node8&#45;&gt;Node11 -->
<g id="edge10" class="edge">
<title>Node8&#45;&gt;Node11</title>
<path fill="none" stroke="midnightblue" d="M301.7,-73.48C323.9,-61.17 350,-46.69 368.86,-36.23"/>
<polygon fill="midnightblue" stroke="midnightblue" points="299.83,-70.52 292.78,-78.43 303.22,-76.64 299.83,-70.52"/>
</g>
<!-- Node12&#45;&gt;Node9 -->
<g id="edge14" class="edge">
<title>Node12&#45;&gt;Node9</title>
<path fill="none" stroke="midnightblue" d="M136.4,-73.63C155.53,-63.24 177.54,-51.29 195.57,-41.51"/>
<polygon fill="midnightblue" stroke="midnightblue" points="134.67,-70.58 127.55,-78.43 138.01,-76.73 134.67,-70.58"/>
</g>
<!-- Node13 -->
<g id="node13" class="node">
<title>Node13</title>
<g id="a_node13"><a xlink:href="Keypad_8cpp.xhtml" target="_top" xlink:title=" ">
<polygon fill="white" stroke="black" points="0,-0.5 0,-41.5 131,-41.5 131,-0.5 0,-0.5"/>
<text text-anchor="start" x="8" y="-29.5" font-family="Helvetica,sans-Serif" font-size="10.00">lib/board_adapters</text>
<text text-anchor="start" x="8" y="-18.5" font-family="Helvetica,sans-Serif" font-size="10.00">/input_device_interface</text>
<text text-anchor="middle" x="65.5" y="-7.5" font-family="Helvetica,sans-Serif" font-size="10.00">/Keypad.cpp</text>
</a>
</g>
</g>
<!-- Node12&#45;&gt;Node13 -->
<g id="edge13" class="edge">
<title>Node12&#45;&gt;Node13</title>
<path fill="none" stroke="midnightblue" d="M81.54,-68.88C78.4,-59.72 75.02,-49.83 72.17,-41.51"/>
<polygon fill="midnightblue" stroke="midnightblue" points="78.26,-70.1 84.8,-78.43 84.88,-67.83 78.26,-70.1"/>
</g>
<!-- Node15&#45;&gt;Node4 -->
<g id="edge18" class="edge">
<title>Node15&#45;&gt;Node4</title>
<path fill="none" stroke="midnightblue" d="M517.85,-149.49C506.82,-139.63 494.52,-128.63 484.32,-119.51"/>
<polygon fill="midnightblue" stroke="midnightblue" points="515.82,-152.37 525.61,-156.43 520.49,-147.15 515.82,-152.37"/>
</g>
<!-- Node15&#45;&gt;Node10 -->
<g id="edge19" class="edge">
<title>Node15&#45;&gt;Node10</title>
<path fill="none" stroke="midnightblue" d="M562.44,-147.27C566.16,-138.72 569.61,-129.18 571.5,-120 575.25,-101.71 576.04,-96.11 571.5,-78 566.94,-59.81 555.2,-41.09 547.84,-30.56"/>
<polygon fill="midnightblue" stroke="midnightblue" points="559.23,-145.88 558.21,-156.42 565.58,-148.82 559.23,-145.88"/>
</g>
<!-- Node15&#45;&gt;Node11 -->
<g id="edge20" class="edge">
<title>Node15&#45;&gt;Node11</title>
<path fill="none" stroke="midnightblue" d="M552.45,-146.16C554.26,-125.08 553.01,-97.26 538.5,-78 519.21,-52.4 486.55,-38.5 457.21,-30.95"/>
<polygon fill="midnightblue" stroke="midnightblue" points="548.97,-145.86 551.33,-156.19 555.92,-146.64 548.97,-145.86"/>
</g>
</g>
</svg>
