<?xml version="1.0" encoding="UTF-8" standalone="no"?>
<!DOCTYPE svg PUBLIC "-//W3C//DTD SVG 1.1//EN"
 "http://www.w3.org/Graphics/SVG/1.1/DTD/svg11.dtd">
<!-- Generated by graphviz version 2.43.0 (0)
 -->
<!-- Title: lib/application_business_rules/user_interaction/KeyIds.hpp Pages: 1 -->
<svg width="1039pt" height="284pt"
 viewBox="0.00 0.00 1038.50 284.00" xmlns="http://www.w3.org/2000/svg" xmlns:xlink="http://www.w3.org/1999/xlink">
<g id="graph0" class="graph" transform="scale(1 1) rotate(0) translate(4 280)">
<title>lib/application_business_rules/user_interaction/KeyIds.hpp</title>
<polygon fill="white" stroke="transparent" points="-4,4 -4,-280 1034.5,-280 1034.5,4 -4,4"/>
<!-- Node1 -->
<g id="node1" class="node">
<title>Node1</title>
<g id="a_node1"><a xlink:title=" ">
<polygon fill="#bfbfbf" stroke="black" points="551.5,-234.5 551.5,-275.5 685.5,-275.5 685.5,-234.5 551.5,-234.5"/>
<text text-anchor="start" x="559.5" y="-263.5" font-family="Helvetica,sans-Serif" font-size="10.00">lib/application_business</text>
<text text-anchor="start" x="559.5" y="-252.5" font-family="Helvetica,sans-Serif" font-size="10.00">_rules/user_interaction</text>
<text text-anchor="middle" x="618.5" y="-241.5" font-family="Helvetica,sans-Serif" font-size="10.00">/KeyIds.hpp</text>
</a>
</g>
</g>
<!-- Node2 -->
<g id="node2" class="node">
<title>Node2</title>
<g id="a_node2"><a xlink:href="board__interface_8hpp.xhtml" target="_top" xlink:title=" ">
<polygon fill="white" stroke="black" points="627.5,-156.5 627.5,-197.5 761.5,-197.5 761.5,-156.5 627.5,-156.5"/>
<text text-anchor="start" x="635.5" y="-185.5" font-family="Helvetica,sans-Serif" font-size="10.00">lib/application_business</text>
<text text-anchor="start" x="635.5" y="-174.5" font-family="Helvetica,sans-Serif" font-size="10.00">_rules/user_interaction</text>
<text text-anchor="middle" x="694.5" y="-163.5" font-family="Helvetica,sans-Serif" font-size="10.00">/board_interface.hpp</text>
</a>
</g>
</g>
<!-- Node1&#45;&gt;Node2 -->
<g id="edge1" class="edge">
<title>Node1&#45;&gt;Node2</title>
<path fill="none" stroke="midnightblue" d="M645.3,-227.2C655.08,-217.42 665.96,-206.54 674.99,-197.51"/>
<polygon fill="midnightblue" stroke="midnightblue" points="642.67,-224.88 638.07,-234.43 647.62,-229.83 642.67,-224.88"/>
</g>
<!-- Node7 -->
<g id="node7" class="node">
<title>Node7</title>
<g id="a_node7"><a xlink:href="IKeypad_8hpp.xhtml" target="_top" xlink:title=" ">
<polygon fill="white" stroke="black" points="295.5,-156.5 295.5,-197.5 429.5,-197.5 429.5,-156.5 295.5,-156.5"/>
<text text-anchor="start" x="303.5" y="-185.5" font-family="Helvetica,sans-Serif" font-size="10.00">lib/application_business</text>
<text text-anchor="start" x="303.5" y="-174.5" font-family="Helvetica,sans-Serif" font-size="10.00">_rules/user_interaction</text>
<text text-anchor="middle" x="362.5" y="-163.5" font-family="Helvetica,sans-Serif" font-size="10.00">/IKeypad.hpp</text>
</a>
</g>
</g>
<!-- Node1&#45;&gt;Node7 -->
<g id="edge6" class="edge">
<title>Node1&#45;&gt;Node7</title>
<path fill="none" stroke="midnightblue" d="M542.98,-231.58C506.55,-220.76 463.25,-207.91 428.2,-197.51"/>
<polygon fill="midnightblue" stroke="midnightblue" points="541.99,-234.94 552.57,-234.43 543.98,-228.23 541.99,-234.94"/>
</g>
<!-- Node14 -->
<g id="node14" class="node">
<title>Node14</title>
<g id="a_node14"><a xlink:href="KeyIds_8cpp.xhtml" target="_top" xlink:title=" ">
<polygon fill="white" stroke="black" points="779.5,-156.5 779.5,-197.5 913.5,-197.5 913.5,-156.5 779.5,-156.5"/>
<text text-anchor="start" x="787.5" y="-185.5" font-family="Helvetica,sans-Serif" font-size="10.00">lib/application_business</text>
<text text-anchor="start" x="787.5" y="-174.5" font-family="Helvetica,sans-Serif" font-size="10.00">_rules/user_interaction</text>
<text text-anchor="middle" x="846.5" y="-163.5" font-family="Helvetica,sans-Serif" font-size="10.00">/KeyIds.cpp</text>
</a>
</g>
</g>
<!-- Node1&#45;&gt;Node14 -->
<g id="edge16" class="edge">
<title>Node1&#45;&gt;Node14</title>
<path fill="none" stroke="midnightblue" d="M687,-231.17C719.19,-220.44 757.16,-207.78 787.98,-197.51"/>
<polygon fill="midnightblue" stroke="midnightblue" points="685.6,-227.95 677.22,-234.43 687.81,-234.59 685.6,-227.95"/>
</g>
<!-- Node15 -->
<g id="node15" class="node">
<title>Node15</title>
<g id="a_node15"><a xlink:href="ProcessHmiInputs_8hpp.xhtml" target="_top" xlink:title=" ">
<polygon fill="white" stroke="black" points="475.5,-156.5 475.5,-197.5 609.5,-197.5 609.5,-156.5 475.5,-156.5"/>
<text text-anchor="start" x="483.5" y="-185.5" font-family="Helvetica,sans-Serif" font-size="10.00">lib/application_business</text>
<text text-anchor="start" x="483.5" y="-174.5" font-family="Helvetica,sans-Serif" font-size="10.00">_rules/user_interaction</text>
<text text-anchor="middle" x="542.5" y="-163.5" font-family="Helvetica,sans-Serif" font-size="10.00">/ProcessHmiInputs.hpp</text>
</a>
</g>
</g>
<!-- Node1&#45;&gt;Node15 -->
<g id="edge17" class="edge">
<title>Node1&#45;&gt;Node15</title>
<path fill="none" stroke="midnightblue" d="M591.7,-227.2C581.92,-217.42 571.04,-206.54 562.01,-197.51"/>
<polygon fill="midnightblue" stroke="midnightblue" points="589.38,-229.83 598.93,-234.43 594.33,-224.88 589.38,-229.83"/>
</g>
<!-- Node3 -->
<g id="node3" class="node">
<title>Node3</title>
<g id="a_node3"><a xlink:href="Presenter_8cpp.xhtml" target="_top" xlink:title=" ">
<polygon fill="white" stroke="black" points="618.5,-78.5 618.5,-119.5 752.5,-119.5 752.5,-78.5 618.5,-78.5"/>
<text text-anchor="start" x="626.5" y="-107.5" font-family="Helvetica,sans-Serif" font-size="10.00">lib/application_business</text>
<text text-anchor="start" x="626.5" y="-96.5" font-family="Helvetica,sans-Serif" font-size="10.00">_rules/user_interaction</text>
<text text-anchor="middle" x="685.5" y="-85.5" font-family="Helvetica,sans-Serif" font-size="10.00">/Presenter.cpp</text>
</a>
</g>
</g>
<!-- Node2&#45;&gt;Node3 -->
<g id="edge2" class="edge">
<title>Node2&#45;&gt;Node3</title>
<path fill="none" stroke="midnightblue" d="M690.98,-146.3C689.92,-137.3 688.77,-127.65 687.81,-119.51"/>
<polygon fill="midnightblue" stroke="midnightblue" points="687.53,-146.91 692.18,-156.43 694.48,-146.09 687.53,-146.91"/>
</g>
<!-- Node4 -->
<g id="node4" class="node">
<title>Node4</title>
<g id="a_node4"><a xlink:href="ProcessHmiInputs_8cpp.xhtml" target="_top" xlink:title=" ">
<polygon fill="white" stroke="black" points="390.5,-78.5 390.5,-119.5 524.5,-119.5 524.5,-78.5 390.5,-78.5"/>
<text text-anchor="start" x="398.5" y="-107.5" font-family="Helvetica,sans-Serif" font-size="10.00">lib/application_business</text>
<text text-anchor="start" x="398.5" y="-96.5" font-family="Helvetica,sans-Serif" font-size="10.00">_rules/user_interaction</text>
<text text-anchor="middle" x="457.5" y="-85.5" font-family="Helvetica,sans-Serif" font-size="10.00">/ProcessHmiInputs.cpp</text>
</a>
</g>
</g>
<!-- Node2&#45;&gt;Node4 -->
<g id="edge3" class="edge">
<title>Node2&#45;&gt;Node4</title>
<path fill="none" stroke="midnightblue" d="M623.72,-153.3C590.18,-142.55 550.5,-129.82 518.33,-119.51"/>
<polygon fill="midnightblue" stroke="midnightblue" points="622.88,-156.71 633.47,-156.43 625.01,-150.04 622.88,-156.71"/>
</g>
<!-- Node5 -->
<g id="node5" class="node">
<title>Node5</title>
<g id="a_node5"><a xlink:href="board_8cpp.xhtml" target="_top" xlink:title=" ">
<polygon fill="white" stroke="black" points="771,-84 771,-114 878,-114 878,-84 771,-84"/>
<text text-anchor="start" x="779" y="-102" font-family="Helvetica,sans-Serif" font-size="10.00">lib/board_adapters</text>
<text text-anchor="middle" x="824.5" y="-91" font-family="Helvetica,sans-Serif" font-size="10.00">/board.cpp</text>
</a>
</g>
</g>
<!-- Node2&#45;&gt;Node5 -->
<g id="edge4" class="edge">
<title>Node2&#45;&gt;Node5</title>
<path fill="none" stroke="midnightblue" d="M736.72,-151.31C757.72,-139.04 782.35,-124.64 800.17,-114.23"/>
<polygon fill="midnightblue" stroke="midnightblue" points="734.84,-148.36 727.98,-156.43 738.38,-154.4 734.84,-148.36"/>
</g>
<!-- Node6 -->
<g id="node6" class="node">
<title>Node6</title>
<g id="a_node6"><a xlink:href="sound__output_8cpp.xhtml" target="_top" xlink:title=" ">
<polygon fill="white" stroke="black" points="896.5,-78.5 896.5,-119.5 1030.5,-119.5 1030.5,-78.5 896.5,-78.5"/>
<text text-anchor="start" x="904.5" y="-107.5" font-family="Helvetica,sans-Serif" font-size="10.00">lib/board_adapters</text>
<text text-anchor="start" x="904.5" y="-96.5" font-family="Helvetica,sans-Serif" font-size="10.00">/sound_output_interface</text>
<text text-anchor="middle" x="963.5" y="-85.5" font-family="Helvetica,sans-Serif" font-size="10.00">/sound_output.cpp</text>
</a>
</g>
</g>
<!-- Node2&#45;&gt;Node6 -->
<g id="edge5" class="edge">
<title>Node2&#45;&gt;Node6</title>
<path fill="none" stroke="midnightblue" d="M771.51,-154.24C810.88,-143.12 858.35,-129.71 896.24,-119"/>
<polygon fill="midnightblue" stroke="midnightblue" points="770.36,-150.93 761.69,-157.02 772.26,-157.67 770.36,-150.93"/>
</g>
<!-- Node7&#45;&gt;Node4 -->
<g id="edge11" class="edge">
<title>Node7&#45;&gt;Node4</title>
<path fill="none" stroke="midnightblue" d="M394.92,-150.06C407.43,-140.06 421.49,-128.8 433.12,-119.51"/>
<polygon fill="midnightblue" stroke="midnightblue" points="392.59,-147.45 386.96,-156.43 396.96,-152.91 392.59,-147.45"/>
</g>
<!-- Node8 -->
<g id="node8" class="node">
<title>Node8</title>
<g id="a_node8"><a xlink:href="keypad__factory__interface_8hpp.xhtml" target="_top" xlink:title="Dependency injection for the keypad.">
<polygon fill="white" stroke="black" points="170.5,-78.5 170.5,-119.5 334.5,-119.5 334.5,-78.5 170.5,-78.5"/>
<text text-anchor="start" x="178.5" y="-107.5" font-family="Helvetica,sans-Serif" font-size="10.00">lib/application_business</text>
<text text-anchor="start" x="178.5" y="-96.5" font-family="Helvetica,sans-Serif" font-size="10.00">_rules/user_interaction</text>
<text text-anchor="middle" x="252.5" y="-85.5" font-family="Helvetica,sans-Serif" font-size="10.00">/keypad_factory_interface.hpp</text>
</a>
</g>
</g>
<!-- Node7&#45;&gt;Node8 -->
<g id="edge7" class="edge">
<title>Node7&#45;&gt;Node8</title>
<path fill="none" stroke="midnightblue" d="M325.79,-150.64C311.1,-140.49 294.45,-128.98 280.73,-119.51"/>
<polygon fill="midnightblue" stroke="midnightblue" points="323.96,-153.62 334.17,-156.43 327.93,-147.86 323.96,-153.62"/>
</g>
<!-- Node11 -->
<g id="node11" class="node">
<title>Node11</title>
<g id="a_node11"><a xlink:href="test__hmi_8cpp.xhtml" target="_top" xlink:title=" ">
<polygon fill="white" stroke="black" points="332,-6 332,-36 435,-36 435,-6 332,-6"/>
<text text-anchor="start" x="340" y="-24" font-family="Helvetica,sans-Serif" font-size="10.00">test/test_hmi/test</text>
<text text-anchor="middle" x="383.5" y="-13" font-family="Helvetica,sans-Serif" font-size="10.00">_hmi.cpp</text>
</a>
</g>
</g>
<!-- Node7&#45;&gt;Node11 -->
<g id="edge15" class="edge">
<title>Node7&#45;&gt;Node11</title>
<path fill="none" stroke="midnightblue" d="M366.52,-146.51C371.02,-113.49 378.14,-61.34 381.55,-36.32"/>
<polygon fill="midnightblue" stroke="midnightblue" points="363.04,-146.11 365.16,-156.5 369.98,-147.06 363.04,-146.11"/>
</g>
<!-- Node12 -->
<g id="node12" class="node">
<title>Node12</title>
<g id="a_node12"><a xlink:href="Keypad_8hpp.xhtml" target="_top" xlink:title=" ">
<polygon fill="white" stroke="black" points="21,-78.5 21,-119.5 152,-119.5 152,-78.5 21,-78.5"/>
<text text-anchor="start" x="29" y="-107.5" font-family="Helvetica,sans-Serif" font-size="10.00">lib/board_adapters</text>
<text text-anchor="start" x="29" y="-96.5" font-family="Helvetica,sans-Serif" font-size="10.00">/input_device_interface</text>
<text text-anchor="middle" x="86.5" y="-85.5" font-family="Helvetica,sans-Serif" font-size="10.00">/Keypad.hpp</text>
</a>
</g>
</g>
<!-- Node7&#45;&gt;Node12 -->
<g id="edge12" class="edge">
<title>Node7&#45;&gt;Node12</title>
<path fill="none" stroke="midnightblue" d="M285.43,-154.78C243.46,-143.22 192.09,-129.07 152.06,-118.05"/>
<polygon fill="midnightblue" stroke="midnightblue" points="284.77,-158.23 295.34,-157.51 286.62,-151.48 284.77,-158.23"/>
</g>
<!-- Node9 -->
<g id="node9" class="node">
<title>Node9</title>
<g id="a_node9"><a xlink:href="keypad__factory__interface_8cpp.xhtml" target="_top" xlink:title=" ">
<polygon fill="white" stroke="black" points="149.5,-0.5 149.5,-41.5 313.5,-41.5 313.5,-0.5 149.5,-0.5"/>
<text text-anchor="start" x="157.5" y="-29.5" font-family="Helvetica,sans-Serif" font-size="10.00">lib/board_adapters</text>
<text text-anchor="start" x="157.5" y="-18.5" font-family="Helvetica,sans-Serif" font-size="10.00">/input_device_interface</text>
<text text-anchor="middle" x="231.5" y="-7.5" font-family="Helvetica,sans-Serif" font-size="10.00">/keypad_factory_interface.cpp</text>
</a>
</g>
</g>
<!-- Node8&#45;&gt;Node9 -->
<g id="edge8" class="edge">
<title>Node8&#45;&gt;Node9</title>
<path fill="none" stroke="midnightblue" d="M244.37,-68.59C241.86,-59.51 239.17,-49.74 236.89,-41.51"/>
<polygon fill="midnightblue" stroke="midnightblue" points="241.05,-69.72 247.09,-78.43 247.8,-67.86 241.05,-69.72"/>
</g>
<!-- Node10 -->
<g id="node10" class="node">
<title>Node10</title>
<g id="a_node10"><a xlink:href="main_8cpp.xhtml" target="_top" xlink:title=" ">
<polygon fill="white" stroke="black" points="491,-11.5 491,-30.5 570,-30.5 570,-11.5 491,-11.5"/>
<text text-anchor="middle" x="530.5" y="-18.5" font-family="Helvetica,sans-Serif" font-size="10.00">src/main.cpp</text>
</a>
</g>
</g>
<!-- Node8&#45;&gt;Node10 -->
<g id="edge9" class="edge">
<title>Node8&#45;&gt;Node10</title>
<path fill="none" stroke="midnightblue" d="M333.89,-75.75C389.26,-60.61 459.43,-41.43 499.22,-30.55"/>
<polygon fill="midnightblue" stroke="midnightblue" points="332.81,-72.41 324.09,-78.43 334.66,-79.17 332.81,-72.41"/>
</g>
<!-- Node8&#45;&gt;Node11 -->
<g id="edge10" class="edge">
<title>Node8&#45;&gt;Node11</title>
<path fill="none" stroke="midnightblue" d="M295.05,-73.31C316.21,-61.04 341.03,-46.64 358.98,-36.23"/>
<polygon fill="midnightblue" stroke="midnightblue" points="293.13,-70.38 286.24,-78.43 296.64,-76.44 293.13,-70.38"/>
</g>
<!-- Node12&#45;&gt;Node9 -->
<g id="edge14" class="edge">
<title>Node12&#45;&gt;Node9</title>
<path fill="none" stroke="midnightblue" d="M132.73,-73.77C152.61,-63.35 175.53,-51.34 194.29,-41.51"/>
<polygon fill="midnightblue" stroke="midnightblue" points="131.07,-70.69 123.84,-78.43 134.32,-76.89 131.07,-70.69"/>
</g>
<!-- Node13 -->
<g id="node13" class="node">
<title>Node13</title>
<g id="a_node13"><a xlink:href="Keypad_8cpp.xhtml" target="_top" xlink:title=" ">
<polygon fill="white" stroke="black" points="0,-0.5 0,-41.5 131,-41.5 131,-0.5 0,-0.5"/>
<text text-anchor="start" x="8" y="-29.5" font-family="Helvetica,sans-Serif" font-size="10.00">lib/board_adapters</text>
<text text-anchor="start" x="8" y="-18.5" font-family="Helvetica,sans-Serif" font-size="10.00">/input_device_interface</text>
<text text-anchor="middle" x="65.5" y="-7.5" font-family="Helvetica,sans-Serif" font-size="10.00">/Keypad.cpp</text>
</a>
</g>
</g>
<!-- Node12&#45;&gt;Node13 -->
<g id="edge13" class="edge">
<title>Node12&#45;&gt;Node13</title>
<path fill="none" stroke="midnightblue" d="M78.37,-68.59C75.86,-59.51 73.17,-49.74 70.89,-41.51"/>
<polygon fill="midnightblue" stroke="midnightblue" points="75.05,-69.72 81.09,-78.43 81.8,-67.86 75.05,-69.72"/>
</g>
<!-- Node15&#45;&gt;Node4 -->
<g id="edge18" class="edge">
<title>Node15&#45;&gt;Node4</title>
<path fill="none" stroke="midnightblue" d="M512.85,-149.49C501.82,-139.63 489.52,-128.63 479.32,-119.51"/>
<polygon fill="midnightblue" stroke="midnightblue" points="510.82,-152.37 520.61,-156.43 515.49,-147.15 510.82,-152.37"/>
</g>
<!-- Node15&#45;&gt;Node10 -->
<g id="edge19" class="edge">
<title>Node15&#45;&gt;Node10</title>
<path fill="none" stroke="midnightblue" d="M557.44,-147.27C561.16,-138.72 564.61,-129.18 566.5,-120 570.25,-101.71 571.76,-95.91 566.5,-78 561.03,-59.37 547.23,-41.07 538.4,-30.7"/>
<polygon fill="midnightblue" stroke="midnightblue" points="554.23,-145.88 553.21,-156.42 560.58,-148.82 554.23,-145.88"/>
</g>
<!-- Node15&#45;&gt;Node11 -->
<g id="edge20" class="edge">
<title>Node15&#45;&gt;Node11</title>
<path fill="none" stroke="midnightblue" d="M547.53,-146.1C549.38,-124.99 548.14,-97.16 533.5,-78 521.09,-61.77 473.48,-45.71 435.18,-34.98"/>
<polygon fill="midnightblue" stroke="midnightblue" points="544.04,-145.81 546.39,-156.15 551,-146.61 544.04,-145.81"/>
</g>
</g>
</svg>
