<?xml version="1.0" encoding="UTF-8" standalone="no"?>
<!DOCTYPE svg PUBLIC "-//W3C//DTD SVG 1.1//EN"
 "http://www.w3.org/Graphics/SVG/1.1/DTD/svg11.dtd">
<!-- Generated by graphviz version 2.43.0 (0)
 -->
<!-- Title: lib/application_business_rules/user_interaction/KeyIds.hpp Pages: 1 -->
<svg width="1048pt" height="284pt"
 viewBox="0.00 0.00 1047.50 284.00" xmlns="http://www.w3.org/2000/svg" xmlns:xlink="http://www.w3.org/1999/xlink">
<g id="graph0" class="graph" transform="scale(1 1) rotate(0) translate(4 280)">
<title>lib/application_business_rules/user_interaction/KeyIds.hpp</title>
<polygon fill="white" stroke="transparent" points="-4,4 -4,-280 1043.5,-280 1043.5,4 -4,4"/>
<!-- Node1 -->
<g id="node1" class="node">
<title>Node1</title>
<g id="a_node1"><a xlink:title=" ">
<polygon fill="#bfbfbf" stroke="black" points="401.5,-234.5 401.5,-275.5 535.5,-275.5 535.5,-234.5 401.5,-234.5"/>
<text text-anchor="start" x="409.5" y="-263.5" font-family="Helvetica,sans-Serif" font-size="10.00">lib/application_business</text>
<text text-anchor="start" x="409.5" y="-252.5" font-family="Helvetica,sans-Serif" font-size="10.00">_rules/user_interaction</text>
<text text-anchor="middle" x="468.5" y="-241.5" font-family="Helvetica,sans-Serif" font-size="10.00">/KeyIds.hpp</text>
</a>
</g>
</g>
<!-- Node2 -->
<g id="node2" class="node">
<title>Node2</title>
<g id="a_node2"><a xlink:href="board__interface_8hpp.xhtml" target="_top" xlink:title=" ">
<polygon fill="white" stroke="black" points="552.5,-156.5 552.5,-197.5 686.5,-197.5 686.5,-156.5 552.5,-156.5"/>
<text text-anchor="start" x="560.5" y="-185.5" font-family="Helvetica,sans-Serif" font-size="10.00">lib/application_business</text>
<text text-anchor="start" x="560.5" y="-174.5" font-family="Helvetica,sans-Serif" font-size="10.00">_rules/user_interaction</text>
<text text-anchor="middle" x="619.5" y="-163.5" font-family="Helvetica,sans-Serif" font-size="10.00">/board_interface.hpp</text>
</a>
</g>
</g>
<!-- Node1&#45;&gt;Node2 -->
<g id="edge1" class="edge">
<title>Node1&#45;&gt;Node2</title>
<path fill="none" stroke="midnightblue" d="M516.37,-229.91C537.13,-219.46 561.13,-207.38 580.75,-197.51"/>
<polygon fill="midnightblue" stroke="midnightblue" points="514.75,-226.81 507.39,-234.43 517.89,-233.06 514.75,-226.81"/>
</g>
<!-- Node7 -->
<g id="node7" class="node">
<title>Node7</title>
<g id="a_node7"><a xlink:href="IKeypad_8hpp.xhtml" target="_top" xlink:title=" ">
<polygon fill="white" stroke="black" points="325.5,-156.5 325.5,-197.5 459.5,-197.5 459.5,-156.5 325.5,-156.5"/>
<text text-anchor="start" x="333.5" y="-185.5" font-family="Helvetica,sans-Serif" font-size="10.00">lib/application_business</text>
<text text-anchor="start" x="333.5" y="-174.5" font-family="Helvetica,sans-Serif" font-size="10.00">_rules/user_interaction</text>
<text text-anchor="middle" x="392.5" y="-163.5" font-family="Helvetica,sans-Serif" font-size="10.00">/IKeypad.hpp</text>
</a>
</g>
</g>
<!-- Node1&#45;&gt;Node7 -->
<g id="edge6" class="edge">
<title>Node1&#45;&gt;Node7</title>
<path fill="none" stroke="midnightblue" d="M441.7,-227.2C431.92,-217.42 421.04,-206.54 412.01,-197.51"/>
<polygon fill="midnightblue" stroke="midnightblue" points="439.38,-229.83 448.93,-234.43 444.33,-224.88 439.38,-229.83"/>
</g>
<!-- Node15 -->
<g id="node15" class="node">
<title>Node15</title>
<g id="a_node15"><a xlink:href="KeyIds_8cpp.xhtml" target="_top" xlink:title=" ">
<polygon fill="white" stroke="black" points="704.5,-156.5 704.5,-197.5 838.5,-197.5 838.5,-156.5 704.5,-156.5"/>
<text text-anchor="start" x="712.5" y="-185.5" font-family="Helvetica,sans-Serif" font-size="10.00">lib/application_business</text>
<text text-anchor="start" x="712.5" y="-174.5" font-family="Helvetica,sans-Serif" font-size="10.00">_rules/user_interaction</text>
<text text-anchor="middle" x="771.5" y="-163.5" font-family="Helvetica,sans-Serif" font-size="10.00">/KeyIds.cpp</text>
</a>
</g>
</g>
<!-- Node1&#45;&gt;Node15 -->
<g id="edge17" class="edge">
<title>Node1&#45;&gt;Node15</title>
<path fill="none" stroke="midnightblue" d="M545.38,-235.35C589.38,-224.59 645.58,-210.72 695.5,-198 698.41,-197.26 701.38,-196.5 704.38,-195.72"/>
<polygon fill="midnightblue" stroke="midnightblue" points="544.5,-231.96 535.61,-237.73 546.16,-238.76 544.5,-231.96"/>
</g>
<!-- Node16 -->
<g id="node16" class="node">
<title>Node16</title>
<g id="a_node16"><a xlink:href="ProcessHmiInputs_8hpp.xhtml" target="_top" xlink:title=" ">
<polygon fill="white" stroke="black" points="92.5,-156.5 92.5,-197.5 226.5,-197.5 226.5,-156.5 92.5,-156.5"/>
<text text-anchor="start" x="100.5" y="-185.5" font-family="Helvetica,sans-Serif" font-size="10.00">lib/application_business</text>
<text text-anchor="start" x="100.5" y="-174.5" font-family="Helvetica,sans-Serif" font-size="10.00">_rules/user_interaction</text>
<text text-anchor="middle" x="159.5" y="-163.5" font-family="Helvetica,sans-Serif" font-size="10.00">/ProcessHmiInputs.hpp</text>
</a>
</g>
</g>
<!-- Node1&#45;&gt;Node16 -->
<g id="edge18" class="edge">
<title>Node1&#45;&gt;Node16</title>
<path fill="none" stroke="midnightblue" d="M391.53,-235.07C340.88,-222.61 275.22,-206.46 226.68,-194.52"/>
<polygon fill="midnightblue" stroke="midnightblue" points="390.91,-238.52 401.45,-237.51 392.58,-231.72 390.91,-238.52"/>
</g>
<!-- Node3 -->
<g id="node3" class="node">
<title>Node3</title>
<g id="a_node3"><a xlink:href="Presenter_8cpp.xhtml" target="_top" xlink:title=" ">
<polygon fill="white" stroke="black" points="627.5,-78.5 627.5,-119.5 761.5,-119.5 761.5,-78.5 627.5,-78.5"/>
<text text-anchor="start" x="635.5" y="-107.5" font-family="Helvetica,sans-Serif" font-size="10.00">lib/application_business</text>
<text text-anchor="start" x="635.5" y="-96.5" font-family="Helvetica,sans-Serif" font-size="10.00">_rules/user_interaction</text>
<text text-anchor="middle" x="694.5" y="-85.5" font-family="Helvetica,sans-Serif" font-size="10.00">/Presenter.cpp</text>
</a>
</g>
</g>
<!-- Node2&#45;&gt;Node3 -->
<g id="edge2" class="edge">
<title>Node2&#45;&gt;Node3</title>
<path fill="none" stroke="midnightblue" d="M645.94,-149.2C655.6,-139.42 666.34,-128.54 675.25,-119.51"/>
<polygon fill="midnightblue" stroke="midnightblue" points="643.35,-146.85 638.81,-156.43 648.33,-151.77 643.35,-146.85"/>
</g>
<!-- Node4 -->
<g id="node4" class="node">
<title>Node4</title>
<g id="a_node4"><a xlink:href="ProcessHmiInputs_8cpp.xhtml" target="_top" xlink:title=" ">
<polygon fill="white" stroke="black" points="325.5,-78.5 325.5,-119.5 459.5,-119.5 459.5,-78.5 325.5,-78.5"/>
<text text-anchor="start" x="333.5" y="-107.5" font-family="Helvetica,sans-Serif" font-size="10.00">lib/application_business</text>
<text text-anchor="start" x="333.5" y="-96.5" font-family="Helvetica,sans-Serif" font-size="10.00">_rules/user_interaction</text>
<text text-anchor="middle" x="392.5" y="-85.5" font-family="Helvetica,sans-Serif" font-size="10.00">/ProcessHmiInputs.cpp</text>
</a>
</g>
</g>
<!-- Node2&#45;&gt;Node4 -->
<g id="edge3" class="edge">
<title>Node2&#45;&gt;Node4</title>
<path fill="none" stroke="midnightblue" d="M551.3,-153.17C519.25,-142.44 481.44,-129.78 450.76,-119.51"/>
<polygon fill="midnightblue" stroke="midnightblue" points="550.45,-156.57 561.04,-156.43 552.67,-149.93 550.45,-156.57"/>
</g>
<!-- Node5 -->
<g id="node5" class="node">
<title>Node5</title>
<g id="a_node5"><a xlink:href="board_8cpp.xhtml" target="_top" xlink:title=" ">
<polygon fill="white" stroke="black" points="780,-84 780,-114 887,-114 887,-84 780,-84"/>
<text text-anchor="start" x="788" y="-102" font-family="Helvetica,sans-Serif" font-size="10.00">lib/board_adapters</text>
<text text-anchor="middle" x="833.5" y="-91" font-family="Helvetica,sans-Serif" font-size="10.00">/board.cpp</text>
</a>
</g>
</g>
<!-- Node2&#45;&gt;Node5 -->
<g id="edge4" class="edge">
<title>Node2&#45;&gt;Node5</title>
<path fill="none" stroke="midnightblue" d="M684.45,-152.93C720.09,-140.28 763.13,-124.99 793.78,-114.11"/>
<polygon fill="midnightblue" stroke="midnightblue" points="682.86,-149.78 674.61,-156.43 685.21,-156.38 682.86,-149.78"/>
</g>
<!-- Node6 -->
<g id="node6" class="node">
<title>Node6</title>
<g id="a_node6"><a xlink:href="sound__output_8cpp.xhtml" target="_top" xlink:title=" ">
<polygon fill="white" stroke="black" points="905.5,-78.5 905.5,-119.5 1039.5,-119.5 1039.5,-78.5 905.5,-78.5"/>
<text text-anchor="start" x="913.5" y="-107.5" font-family="Helvetica,sans-Serif" font-size="10.00">lib/board_adapters</text>
<text text-anchor="start" x="913.5" y="-96.5" font-family="Helvetica,sans-Serif" font-size="10.00">/sound_output_interface</text>
<text text-anchor="middle" x="972.5" y="-85.5" font-family="Helvetica,sans-Serif" font-size="10.00">/sound_output.cpp</text>
</a>
</g>
</g>
<!-- Node2&#45;&gt;Node6 -->
<g id="edge5" class="edge">
<title>Node2&#45;&gt;Node6</title>
<path fill="none" stroke="midnightblue" d="M696.59,-155.85C785.87,-136.63 810.99,-138.88 896.5,-120 899.43,-119.35 902.42,-118.67 905.43,-117.96"/>
<polygon fill="midnightblue" stroke="midnightblue" points="695.59,-152.49 686.57,-158.04 697.08,-159.33 695.59,-152.49"/>
</g>
<!-- Node7&#45;&gt;Node4 -->
<g id="edge11" class="edge">
<title>Node7&#45;&gt;Node4</title>
<path fill="none" stroke="midnightblue" d="M392.5,-146.3C392.5,-137.3 392.5,-127.65 392.5,-119.51"/>
<polygon fill="midnightblue" stroke="midnightblue" points="389,-146.43 392.5,-156.43 396,-146.43 389,-146.43"/>
</g>
<!-- Node8 -->
<g id="node8" class="node">
<title>Node8</title>
<g id="a_node8"><a xlink:href="keypad__factory__interface_8hpp.xhtml" target="_top" xlink:title="Dependency injection for the keypad.">
<polygon fill="white" stroke="black" points="143.5,-78.5 143.5,-119.5 307.5,-119.5 307.5,-78.5 143.5,-78.5"/>
<text text-anchor="start" x="151.5" y="-107.5" font-family="Helvetica,sans-Serif" font-size="10.00">lib/application_business</text>
<text text-anchor="start" x="151.5" y="-96.5" font-family="Helvetica,sans-Serif" font-size="10.00">_rules/user_interaction</text>
<text text-anchor="middle" x="225.5" y="-85.5" font-family="Helvetica,sans-Serif" font-size="10.00">/keypad_factory_interface.hpp</text>
</a>
</g>
</g>
<!-- Node7&#45;&gt;Node8 -->
<g id="edge7" class="edge">
<title>Node7&#45;&gt;Node8</title>
<path fill="none" stroke="midnightblue" d="M340.18,-152.19C317.08,-141.67 290.25,-129.47 268.36,-119.51"/>
<polygon fill="midnightblue" stroke="midnightblue" points="338.94,-155.47 349.49,-156.43 341.84,-149.1 338.94,-155.47"/>
</g>
<!-- Node11 -->
<g id="node11" class="node">
<title>Node11</title>
<g id="a_node11"><a xlink:href="test__hmi_8cpp.xhtml" target="_top" xlink:title=" ">
<polygon fill="white" stroke="black" points="97,-6 97,-36 222,-36 222,-6 97,-6"/>
<text text-anchor="start" x="105" y="-24" font-family="Helvetica,sans-Serif" font-size="10.00">test/hmi/test_hmi/test</text>
<text text-anchor="middle" x="159.5" y="-13" font-family="Helvetica,sans-Serif" font-size="10.00">_hmi.cpp</text>
</a>
</g>
</g>
<!-- Node7&#45;&gt;Node11 -->
<g id="edge16" class="edge">
<title>Node7&#45;&gt;Node11</title>
<path fill="none" stroke="midnightblue" d="M315.37,-164.24C243.59,-152.52 145.99,-134.25 134.5,-120 114.66,-95.39 135.08,-56.94 148.95,-36.28"/>
<polygon fill="midnightblue" stroke="midnightblue" points="314.88,-167.71 325.31,-165.85 316,-160.8 314.88,-167.71"/>
</g>
<!-- Node12 -->
<g id="node12" class="node">
<title>Node12</title>
<g id="a_node12"><a xlink:href="Keypad_8hpp.xhtml" target="_top" xlink:title=" ">
<polygon fill="white" stroke="black" points="478,-78.5 478,-119.5 609,-119.5 609,-78.5 478,-78.5"/>
<text text-anchor="start" x="486" y="-107.5" font-family="Helvetica,sans-Serif" font-size="10.00">lib/board_adapters</text>
<text text-anchor="start" x="486" y="-96.5" font-family="Helvetica,sans-Serif" font-size="10.00">/input_device_interface</text>
<text text-anchor="middle" x="543.5" y="-85.5" font-family="Helvetica,sans-Serif" font-size="10.00">/Keypad.hpp</text>
</a>
</g>
</g>
<!-- Node7&#45;&gt;Node12 -->
<g id="edge12" class="edge">
<title>Node7&#45;&gt;Node12</title>
<path fill="none" stroke="midnightblue" d="M440.37,-151.91C461.13,-141.46 485.13,-129.38 504.75,-119.51"/>
<polygon fill="midnightblue" stroke="midnightblue" points="438.75,-148.81 431.39,-156.43 441.89,-155.06 438.75,-148.81"/>
</g>
<!-- Node9 -->
<g id="node9" class="node">
<title>Node9</title>
<g id="a_node9"><a xlink:href="keypad__factory__interface_8cpp.xhtml" target="_top" xlink:title=" ">
<polygon fill="white" stroke="black" points="267.5,-0.5 267.5,-41.5 431.5,-41.5 431.5,-0.5 267.5,-0.5"/>
<text text-anchor="start" x="275.5" y="-29.5" font-family="Helvetica,sans-Serif" font-size="10.00">lib/board_adapters</text>
<text text-anchor="start" x="275.5" y="-18.5" font-family="Helvetica,sans-Serif" font-size="10.00">/input_device_interface</text>
<text text-anchor="middle" x="349.5" y="-7.5" font-family="Helvetica,sans-Serif" font-size="10.00">/keypad_factory_interface.cpp</text>
</a>
</g>
</g>
<!-- Node8&#45;&gt;Node9 -->
<g id="edge8" class="edge">
<title>Node8&#45;&gt;Node9</title>
<path fill="none" stroke="midnightblue" d="M266.42,-72.92C283.09,-62.7 302.07,-51.07 317.68,-41.51"/>
<polygon fill="midnightblue" stroke="midnightblue" points="264.13,-70.22 257.43,-78.43 267.79,-76.19 264.13,-70.22"/>
</g>
<!-- Node10 -->
<g id="node10" class="node">
<title>Node10</title>
<g id="a_node10"><a xlink:href="main_8cpp.xhtml" target="_top" xlink:title=" ">
<polygon fill="white" stroke="black" points="0,-11.5 0,-30.5 79,-30.5 79,-11.5 0,-11.5"/>
<text text-anchor="middle" x="39.5" y="-18.5" font-family="Helvetica,sans-Serif" font-size="10.00">src/main.cpp</text>
</a>
</g>
</g>
<!-- Node8&#45;&gt;Node10 -->
<g id="edge9" class="edge">
<title>Node8&#45;&gt;Node10</title>
<path fill="none" stroke="midnightblue" d="M168.03,-74.52C131.49,-59.59 86.33,-41.14 60.43,-30.55"/>
<polygon fill="midnightblue" stroke="midnightblue" points="167.02,-77.89 177.6,-78.43 169.67,-71.41 167.02,-77.89"/>
</g>
<!-- Node8&#45;&gt;Node11 -->
<g id="edge10" class="edge">
<title>Node8&#45;&gt;Node11</title>
<path fill="none" stroke="midnightblue" d="M201.75,-70.65C191.63,-59 180.25,-45.9 171.85,-36.23"/>
<polygon fill="midnightblue" stroke="midnightblue" points="199.3,-73.17 208.5,-78.43 204.59,-68.58 199.3,-73.17"/>
</g>
<!-- Node12&#45;&gt;Node9 -->
<g id="edge14" class="edge">
<title>Node12&#45;&gt;Node9</title>
<path fill="none" stroke="midnightblue" d="M484.15,-74.75C456.99,-64.11 425.17,-51.65 399.29,-41.51"/>
<polygon fill="midnightblue" stroke="midnightblue" points="482.95,-78.04 493.54,-78.43 485.51,-71.52 482.95,-78.04"/>
</g>
<!-- Node13 -->
<g id="node13" class="node">
<title>Node13</title>
<g id="a_node13"><a xlink:href="Keypad_8cpp.xhtml" target="_top" xlink:title=" ">
<polygon fill="white" stroke="black" points="464,-0.5 464,-41.5 595,-41.5 595,-0.5 464,-0.5"/>
<text text-anchor="start" x="472" y="-29.5" font-family="Helvetica,sans-Serif" font-size="10.00">lib/board_adapters</text>
<text text-anchor="start" x="472" y="-18.5" font-family="Helvetica,sans-Serif" font-size="10.00">/input_device_interface</text>
<text text-anchor="middle" x="529.5" y="-7.5" font-family="Helvetica,sans-Serif" font-size="10.00">/Keypad.cpp</text>
</a>
</g>
</g>
<!-- Node12&#45;&gt;Node13 -->
<g id="edge13" class="edge">
<title>Node12&#45;&gt;Node13</title>
<path fill="none" stroke="midnightblue" d="M538.08,-68.59C536.41,-59.51 534.61,-49.74 533.09,-41.51"/>
<polygon fill="midnightblue" stroke="midnightblue" points="534.64,-69.23 539.89,-78.43 541.53,-67.96 534.64,-69.23"/>
</g>
<!-- Node14 -->
<g id="node14" class="node">
<title>Node14</title>
<g id="a_node14"><a xlink:href="test__debounce_8cpp.xhtml" target="_top" xlink:title=" ">
<polygon fill="white" stroke="black" points="613,-6 613,-36 744,-36 744,-6 613,-6"/>
<text text-anchor="start" x="621" y="-24" font-family="Helvetica,sans-Serif" font-size="10.00">test/hmi/test_debounce</text>
<text text-anchor="middle" x="678.5" y="-13" font-family="Helvetica,sans-Serif" font-size="10.00">/test_debounce.cpp</text>
</a>
</g>
</g>
<!-- Node12&#45;&gt;Node14 -->
<g id="edge15" class="edge">
<title>Node12&#45;&gt;Node14</title>
<path fill="none" stroke="midnightblue" d="M587.06,-73.48C608.93,-61.17 634.65,-46.69 653.23,-36.23"/>
<polygon fill="midnightblue" stroke="midnightblue" points="585.26,-70.47 578.27,-78.43 588.7,-76.57 585.26,-70.47"/>
</g>
<!-- Node16&#45;&gt;Node4 -->
<g id="edge19" class="edge">
<title>Node16&#45;&gt;Node4</title>
<path fill="none" stroke="midnightblue" d="M229.08,-153.3C262.06,-142.55 301.07,-129.82 332.7,-119.51"/>
<polygon fill="midnightblue" stroke="midnightblue" points="227.92,-150 219.5,-156.43 230.1,-156.65 227.92,-150"/>
</g>
<!-- Node16&#45;&gt;Node10 -->
<g id="edge20" class="edge">
<title>Node16&#45;&gt;Node10</title>
<path fill="none" stroke="midnightblue" d="M122.65,-150.04C111.79,-141.29 100.44,-130.95 91.5,-120 67.5,-90.61 49.64,-48.42 42.69,-30.53"/>
<polygon fill="midnightblue" stroke="midnightblue" points="120.76,-153.01 130.8,-156.4 125.07,-147.49 120.76,-153.01"/>
</g>
<!-- Node16&#45;&gt;Node11 -->
<g id="edge21" class="edge">
<title>Node16&#45;&gt;Node11</title>
<path fill="none" stroke="midnightblue" d="M123.42,-149.81C114.58,-141.38 106.29,-131.27 101.5,-120 94.21,-102.82 94.21,-95.18 101.5,-78 108.88,-60.61 124.61,-45.98 137.83,-36.05"/>
<polygon fill="midnightblue" stroke="midnightblue" points="121.11,-152.44 130.91,-156.47 125.76,-147.21 121.11,-152.44"/>
</g>
</g>
</svg>
