<?xml version="1.0" encoding="UTF-8" standalone="no"?>
<!DOCTYPE svg PUBLIC "-//W3C//DTD SVG 1.1//EN"
 "http://www.w3.org/Graphics/SVG/1.1/DTD/svg11.dtd">
<!-- Generated by graphviz version 2.43.0 (0)
 -->
<!-- Title: lib/board_adapters/input_device_interface/Keypad.cpp Pages: 1 -->
<svg width="730pt" height="274pt"
 viewBox="0.00 0.00 729.50 274.00" xmlns="http://www.w3.org/2000/svg" xmlns:xlink="http://www.w3.org/1999/xlink">
<g id="graph0" class="graph" transform="scale(1 1) rotate(0) translate(4 270)">
<title>lib/board_adapters/input_device_interface/Keypad.cpp</title>
<polygon fill="white" stroke="transparent" points="-4,4 -4,-270 725.5,-270 725.5,4 -4,4"/>
<!-- Node1 -->
<g id="node1" class="node">
<title>Node1</title>
<g id="a_node1"><a xlink:title=" ">
<polygon fill="#bfbfbf" stroke="black" points="318.5,-224.5 318.5,-265.5 449.5,-265.5 449.5,-224.5 318.5,-224.5"/>
<text text-anchor="start" x="326.5" y="-253.5" font-family="Helvetica,sans-Serif" font-size="10.00">lib/board_adapters</text>
<text text-anchor="start" x="326.5" y="-242.5" font-family="Helvetica,sans-Serif" font-size="10.00">/input_device_interface</text>
<text text-anchor="middle" x="384" y="-231.5" font-family="Helvetica,sans-Serif" font-size="10.00">/Keypad.cpp</text>
</a>
</g>
</g>
<!-- Node2 -->
<g id="node2" class="node">
<title>Node2</title>
<g id="a_node2"><a xlink:href="Keypad_8hpp.xhtml" target="_top" xlink:title=" ">
<polygon fill="white" stroke="black" points="63,-168.5 63,-187.5 137,-187.5 137,-168.5 63,-168.5"/>
<text text-anchor="middle" x="100" y="-175.5" font-family="Helvetica,sans-Serif" font-size="10.00">Keypad.hpp</text>
</a>
</g>
</g>
<!-- Node1&#45;&gt;Node2 -->
<g id="edge1" class="edge">
<title>Node1&#45;&gt;Node2</title>
<path fill="none" stroke="midnightblue" d="M318.49,-229.01C266.14,-217.03 194.03,-200.52 147.21,-189.81"/>
<polygon fill="midnightblue" stroke="midnightblue" points="147.86,-186.36 137.33,-187.54 146.3,-193.19 147.86,-186.36"/>
</g>
<!-- Node6 -->
<g id="node6" class="node">
<title>Node6</title>
<g id="a_node6"><a xlink:title=" ">
<polygon fill="white" stroke="#bfbfbf" points="153.5,-56.5 153.5,-75.5 218.5,-75.5 218.5,-56.5 153.5,-56.5"/>
<text text-anchor="middle" x="186" y="-63.5" font-family="Helvetica,sans-Serif" font-size="10.00">functional</text>
</a>
</g>
</g>
<!-- Node1&#45;&gt;Node6 -->
<g id="edge16" class="edge">
<title>Node1&#45;&gt;Node6</title>
<path fill="none" stroke="midnightblue" d="M318.45,-240.22C279.78,-234.42 233.07,-220.55 205,-188 180.2,-159.24 180.75,-111.73 183.36,-85.62"/>
<polygon fill="midnightblue" stroke="midnightblue" points="186.85,-85.91 184.57,-75.56 179.9,-85.07 186.85,-85.91"/>
</g>
<!-- Node7 -->
<g id="node7" class="node">
<title>Node7</title>
<g id="a_node7"><a xlink:href="debouncedIsr_8hpp.xhtml" target="_top" xlink:title=" ">
<polygon fill="white" stroke="black" points="214,-168.5 214,-187.5 316,-187.5 316,-168.5 214,-168.5"/>
<text text-anchor="middle" x="265" y="-175.5" font-family="Helvetica,sans-Serif" font-size="10.00">debouncedIsr.hpp</text>
</a>
</g>
</g>
<!-- Node1&#45;&gt;Node7 -->
<g id="edge6" class="edge">
<title>Node1&#45;&gt;Node7</title>
<path fill="none" stroke="midnightblue" d="M348.3,-224.5C329.52,-214.24 306.97,-201.93 290.07,-192.69"/>
<polygon fill="midnightblue" stroke="midnightblue" points="291.29,-189.37 280.84,-187.65 287.94,-195.52 291.29,-189.37"/>
</g>
<!-- Node8 -->
<g id="node8" class="node">
<title>Node8</title>
<g id="a_node8"><a xlink:title=" ">
<polygon fill="white" stroke="#bfbfbf" points="306,-112.5 306,-131.5 356,-131.5 356,-112.5 306,-112.5"/>
<text text-anchor="middle" x="331" y="-119.5" font-family="Helvetica,sans-Serif" font-size="10.00">chrono</text>
</a>
</g>
</g>
<!-- Node1&#45;&gt;Node8 -->
<g id="edge14" class="edge">
<title>Node1&#45;&gt;Node8</title>
<path fill="none" stroke="midnightblue" d="M375.37,-224.29C365.24,-201.17 348.59,-163.16 338.82,-140.86"/>
<polygon fill="midnightblue" stroke="midnightblue" points="341.97,-139.33 334.76,-131.57 335.56,-142.14 341.97,-139.33"/>
</g>
<!-- Node9 -->
<g id="node9" class="node">
<title>Node9</title>
<g id="a_node9"><a xlink:href="Arduino-wrapper_8h.xhtml" target="_top" xlink:title="Circumvents problematic processor macros defined by Arduino framework.">
<polygon fill="white" stroke="black" points="372,-168.5 372,-187.5 478,-187.5 478,-168.5 372,-168.5"/>
<text text-anchor="middle" x="425" y="-175.5" font-family="Helvetica,sans-Serif" font-size="10.00">Arduino&#45;wrapper.h</text>
</a>
</g>
</g>
<!-- Node1&#45;&gt;Node9 -->
<g id="edge9" class="edge">
<title>Node1&#45;&gt;Node9</title>
<path fill="none" stroke="midnightblue" d="M396.3,-224.5C401.98,-215.49 408.67,-204.89 414.16,-196.19"/>
<polygon fill="midnightblue" stroke="midnightblue" points="417.17,-197.98 419.54,-187.65 411.25,-194.24 417.17,-197.98"/>
</g>
<!-- Node11 -->
<g id="node11" class="node">
<title>Node11</title>
<g id="a_node11"><a xlink:href="board__pins_8hpp.xhtml" target="_top" xlink:title="Provides named objects for the pins provided by the board.">
<polygon fill="white" stroke="black" points="496.5,-168.5 496.5,-187.5 587.5,-187.5 587.5,-168.5 496.5,-168.5"/>
<text text-anchor="middle" x="542" y="-175.5" font-family="Helvetica,sans-Serif" font-size="10.00">board_pins.hpp</text>
</a>
</g>
</g>
<!-- Node1&#45;&gt;Node11 -->
<g id="edge11" class="edge">
<title>Node1&#45;&gt;Node11</title>
<path fill="none" stroke="midnightblue" d="M431.41,-224.5C457.38,-213.81 488.8,-200.89 511.51,-191.54"/>
<polygon fill="midnightblue" stroke="midnightblue" points="513.05,-194.69 520.97,-187.65 510.39,-188.22 513.05,-194.69"/>
</g>
<!-- Node14 -->
<g id="node14" class="node">
<title>Node14</title>
<g id="a_node14"><a xlink:title=" ">
<polygon fill="white" stroke="#bfbfbf" points="605.5,-168.5 605.5,-187.5 658.5,-187.5 658.5,-168.5 605.5,-168.5"/>
<text text-anchor="middle" x="632" y="-175.5" font-family="Helvetica,sans-Serif" font-size="10.00">cstddef</text>
</a>
</g>
</g>
<!-- Node1&#45;&gt;Node14 -->
<g id="edge15" class="edge">
<title>Node1&#45;&gt;Node14</title>
<path fill="none" stroke="midnightblue" d="M449.81,-226.75C496.37,-214.55 557.1,-198.63 595.33,-188.61"/>
<polygon fill="midnightblue" stroke="midnightblue" points="596.7,-191.87 605.48,-185.95 594.92,-185.1 596.7,-191.87"/>
</g>
<!-- Node15 -->
<g id="node15" class="node">
<title>Node15</title>
<g id="a_node15"><a xlink:title=" ">
<polygon fill="white" stroke="#bfbfbf" points="676.5,-168.5 676.5,-187.5 721.5,-187.5 721.5,-168.5 676.5,-168.5"/>
<text text-anchor="middle" x="699" y="-175.5" font-family="Helvetica,sans-Serif" font-size="10.00">utility</text>
</a>
</g>
</g>
<!-- Node1&#45;&gt;Node15 -->
<g id="edge17" class="edge">
<title>Node1&#45;&gt;Node15</title>
<path fill="none" stroke="midnightblue" d="M449.51,-232.55C504.83,-222.54 586.29,-206.98 666.55,-187.95"/>
<polygon fill="midnightblue" stroke="midnightblue" points="667.42,-191.34 676.33,-185.61 665.79,-184.53 667.42,-191.34"/>
</g>
<!-- Node3 -->
<g id="node3" class="node">
<title>Node3</title>
<g id="a_node3"><a xlink:href="IKeypad_8hpp.xhtml" target="_top" xlink:title=" ">
<polygon fill="white" stroke="black" points="0,-112.5 0,-131.5 158,-131.5 158,-112.5 0,-112.5"/>
<text text-anchor="middle" x="79" y="-119.5" font-family="Helvetica,sans-Serif" font-size="10.00">user_interaction/IKeypad.hpp</text>
</a>
</g>
</g>
<!-- Node2&#45;&gt;Node3 -->
<g id="edge2" class="edge">
<title>Node2&#45;&gt;Node3</title>
<path fill="none" stroke="midnightblue" d="M96.53,-168.08C93.69,-160.77 89.57,-150.18 86.04,-141.1"/>
<polygon fill="midnightblue" stroke="midnightblue" points="89.29,-139.8 82.4,-131.75 82.77,-142.34 89.29,-139.8"/>
</g>
<!-- Node4 -->
<g id="node4" class="node">
<title>Node4</title>
<g id="a_node4"><a xlink:href="KeyIds_8hpp.xhtml" target="_top" xlink:title=" ">
<polygon fill="white" stroke="black" points="44,-56.5 44,-75.5 114,-75.5 114,-56.5 44,-56.5"/>
<text text-anchor="middle" x="79" y="-63.5" font-family="Helvetica,sans-Serif" font-size="10.00">KeyIds.hpp</text>
</a>
</g>
</g>
<!-- Node3&#45;&gt;Node4 -->
<g id="edge3" class="edge">
<title>Node3&#45;&gt;Node4</title>
<path fill="none" stroke="midnightblue" d="M79,-112.08C79,-105.01 79,-94.86 79,-85.99"/>
<polygon fill="midnightblue" stroke="midnightblue" points="82.5,-85.75 79,-75.75 75.5,-85.75 82.5,-85.75"/>
</g>
<!-- Node3&#45;&gt;Node6 -->
<g id="edge5" class="edge">
<title>Node3&#45;&gt;Node6</title>
<path fill="none" stroke="midnightblue" d="M96.19,-112.32C113.35,-103.66 139.95,-90.24 159.75,-80.25"/>
<polygon fill="midnightblue" stroke="midnightblue" points="161.5,-83.28 168.85,-75.65 158.35,-77.04 161.5,-83.28"/>
</g>
<!-- Node5 -->
<g id="node5" class="node">
<title>Node5</title>
<g id="a_node5"><a xlink:title=" ">
<polygon fill="white" stroke="#bfbfbf" points="50.5,-0.5 50.5,-19.5 107.5,-19.5 107.5,-0.5 50.5,-0.5"/>
<text text-anchor="middle" x="79" y="-7.5" font-family="Helvetica,sans-Serif" font-size="10.00">ostream</text>
</a>
</g>
</g>
<!-- Node4&#45;&gt;Node5 -->
<g id="edge4" class="edge">
<title>Node4&#45;&gt;Node5</title>
<path fill="none" stroke="midnightblue" d="M79,-56.08C79,-49.01 79,-38.86 79,-29.99"/>
<polygon fill="midnightblue" stroke="midnightblue" points="82.5,-29.75 79,-19.75 75.5,-29.75 82.5,-29.75"/>
</g>
<!-- Node7&#45;&gt;Node6 -->
<g id="edge8" class="edge">
<title>Node7&#45;&gt;Node6</title>
<path fill="none" stroke="midnightblue" d="M258.8,-168.37C245.76,-150.22 215.3,-107.8 198.2,-83.99"/>
<polygon fill="midnightblue" stroke="midnightblue" points="200.85,-81.67 192.17,-75.59 195.16,-85.76 200.85,-81.67"/>
</g>
<!-- Node7&#45;&gt;Node8 -->
<g id="edge7" class="edge">
<title>Node7&#45;&gt;Node8</title>
<path fill="none" stroke="midnightblue" d="M275.6,-168.32C285.46,-160.26 300.35,-148.08 312.22,-138.37"/>
<polygon fill="midnightblue" stroke="midnightblue" points="314.68,-140.88 320.2,-131.83 310.25,-135.46 314.68,-140.88"/>
</g>
<!-- Node10 -->
<g id="node10" class="node">
<title>Node10</title>
<g id="a_node10"><a xlink:title=" ">
<polygon fill="white" stroke="#bfbfbf" points="393.5,-112.5 393.5,-131.5 456.5,-131.5 456.5,-112.5 393.5,-112.5"/>
<text text-anchor="middle" x="425" y="-119.5" font-family="Helvetica,sans-Serif" font-size="10.00">Arduino.h</text>
</a>
</g>
</g>
<!-- Node9&#45;&gt;Node10 -->
<g id="edge10" class="edge">
<title>Node9&#45;&gt;Node10</title>
<path fill="none" stroke="midnightblue" d="M425,-168.08C425,-161.01 425,-150.86 425,-141.99"/>
<polygon fill="midnightblue" stroke="midnightblue" points="428.5,-141.75 425,-131.75 421.5,-141.75 428.5,-141.75"/>
</g>
<!-- Node12 -->
<g id="node12" class="node">
<title>Node12</title>
<g id="a_node12"><a xlink:href="board__types_8hpp.xhtml" target="_top" xlink:title=" ">
<polygon fill="white" stroke="black" points="493,-112.5 493,-131.5 591,-131.5 591,-112.5 493,-112.5"/>
<text text-anchor="middle" x="542" y="-119.5" font-family="Helvetica,sans-Serif" font-size="10.00">board_types.hpp</text>
</a>
</g>
</g>
<!-- Node11&#45;&gt;Node12 -->
<g id="edge12" class="edge">
<title>Node11&#45;&gt;Node12</title>
<path fill="none" stroke="midnightblue" d="M542,-168.08C542,-161.01 542,-150.86 542,-141.99"/>
<polygon fill="midnightblue" stroke="midnightblue" points="545.5,-141.75 542,-131.75 538.5,-141.75 545.5,-141.75"/>
</g>
<!-- Node13 -->
<g id="node13" class="node">
<title>Node13</title>
<g id="a_node13"><a xlink:title=" ">
<polygon fill="white" stroke="#bfbfbf" points="517,-56.5 517,-75.5 567,-75.5 567,-56.5 517,-56.5"/>
<text text-anchor="middle" x="542" y="-63.5" font-family="Helvetica,sans-Serif" font-size="10.00">cstdint</text>
</a>
</g>
</g>
<!-- Node12&#45;&gt;Node13 -->
<g id="edge13" class="edge">
<title>Node12&#45;&gt;Node13</title>
<path fill="none" stroke="midnightblue" d="M542,-112.08C542,-105.01 542,-94.86 542,-85.99"/>
<polygon fill="midnightblue" stroke="midnightblue" points="545.5,-85.75 542,-75.75 538.5,-85.75 545.5,-85.75"/>
</g>
</g>
</svg>
