<?xml version="1.0" encoding="UTF-8" standalone="no"?>
<!DOCTYPE svg PUBLIC "-//W3C//DTD SVG 1.1//EN"
 "http://www.w3.org/Graphics/SVG/1.1/DTD/svg11.dtd">
<!-- Generated by graphviz version 2.43.0 (0)
 -->
<!-- Title: lib/board_adapters/status_indicators/statusindicators_factory_interface.cpp Pages: 1 -->
<svg width="433pt" height="240pt"
 viewBox="0.00 0.00 432.50 240.00" xmlns="http://www.w3.org/2000/svg" xmlns:xlink="http://www.w3.org/1999/xlink">
<g id="graph0" class="graph" transform="scale(1 1) rotate(0) translate(4 236)">
<title>lib/board_adapters/status_indicators/statusindicators_factory_interface.cpp</title>
<polygon fill="white" stroke="transparent" points="-4,4 -4,-236 428.5,-236 428.5,4 -4,4"/>
<!-- Node1 -->
<g id="node1" class="node">
<title>Node1</title>
<g id="a_node1"><a xlink:title=" ">
<polygon fill="#bfbfbf" stroke="black" points="77.5,-190.5 77.5,-231.5 261.5,-231.5 261.5,-190.5 77.5,-190.5"/>
<text text-anchor="start" x="85.5" y="-219.5" font-family="Helvetica,sans-Serif" font-size="10.00">lib/board_adapters</text>
<text text-anchor="start" x="85.5" y="-208.5" font-family="Helvetica,sans-Serif" font-size="10.00">/status_indicators/statusindicators</text>
<text text-anchor="middle" x="169.5" y="-197.5" font-family="Helvetica,sans-Serif" font-size="10.00">_factory_interface.cpp</text>
</a>
</g>
</g>
<!-- Node2 -->
<g id="node2" class="node">
<title>Node2</title>
<g id="a_node2"><a xlink:href="status__indicators_8hpp.xhtml" target="_top" xlink:title=" ">
<polygon fill="white" stroke="black" points="109,-129 109,-148 230,-148 230,-129 109,-129"/>
<text text-anchor="middle" x="169.5" y="-136" font-family="Helvetica,sans-Serif" font-size="10.00">status_indicators.hpp</text>
</a>
</g>
</g>
<!-- Node1&#45;&gt;Node2 -->
<g id="edge1" class="edge">
<title>Node1&#45;&gt;Node2</title>
<path fill="none" stroke="midnightblue" d="M169.5,-190.36C169.5,-180.3 169.5,-168.1 169.5,-158.18"/>
<polygon fill="midnightblue" stroke="midnightblue" points="173,-158.17 169.5,-148.17 166,-158.17 173,-158.17"/>
</g>
<!-- Node6 -->
<g id="node6" class="node">
<title>Node6</title>
<g id="a_node6"><a xlink:href="board__pins_8hpp.xhtml" target="_top" xlink:title="Provides named objects for the pins provided by the board.">
<polygon fill="white" stroke="black" points="0,-129 0,-148 91,-148 91,-129 0,-129"/>
<text text-anchor="middle" x="45.5" y="-136" font-family="Helvetica,sans-Serif" font-size="10.00">board_pins.hpp</text>
</a>
</g>
</g>
<!-- Node1&#45;&gt;Node6 -->
<g id="edge5" class="edge">
<title>Node1&#45;&gt;Node6</title>
<path fill="none" stroke="midnightblue" d="M134.96,-190.36C114.12,-178.51 88.08,-163.71 69.48,-153.14"/>
<polygon fill="midnightblue" stroke="midnightblue" points="71.18,-150.07 60.76,-148.17 67.72,-156.16 71.18,-150.07"/>
</g>
<!-- Node7 -->
<g id="node7" class="node">
<title>Node7</title>
<g id="a_node7"><a xlink:href="statusindicators__factory__interface_8hpp.xhtml" target="_top" xlink:title="Dependency injection for the keypad.">
<polygon fill="white" stroke="black" points="248.5,-123.5 248.5,-153.5 424.5,-153.5 424.5,-123.5 248.5,-123.5"/>
<text text-anchor="start" x="256.5" y="-141.5" font-family="Helvetica,sans-Serif" font-size="10.00">user_interaction/statusindicators</text>
<text text-anchor="middle" x="336.5" y="-130.5" font-family="Helvetica,sans-Serif" font-size="10.00">_factory_interface.hpp</text>
</a>
</g>
</g>
<!-- Node1&#45;&gt;Node7 -->
<g id="edge7" class="edge">
<title>Node1&#45;&gt;Node7</title>
<path fill="none" stroke="midnightblue" d="M216.02,-190.36C240.36,-180.08 269.96,-167.59 293.73,-157.55"/>
<polygon fill="midnightblue" stroke="midnightblue" points="295.34,-160.67 303.2,-153.56 292.62,-154.22 295.34,-160.67"/>
</g>
<!-- Node3 -->
<g id="node3" class="node">
<title>Node3</title>
<g id="a_node3"><a xlink:href="board__types_8hpp.xhtml" target="_top" xlink:title=" ">
<polygon fill="white" stroke="black" points="9.5,-62 9.5,-81 107.5,-81 107.5,-62 9.5,-62"/>
<text text-anchor="middle" x="58.5" y="-69" font-family="Helvetica,sans-Serif" font-size="10.00">board_types.hpp</text>
</a>
</g>
</g>
<!-- Node2&#45;&gt;Node3 -->
<g id="edge2" class="edge">
<title>Node2&#45;&gt;Node3</title>
<path fill="none" stroke="midnightblue" d="M154.53,-128.73C135.89,-117.82 103.84,-99.05 81.93,-86.22"/>
<polygon fill="midnightblue" stroke="midnightblue" points="83.63,-83.16 73.23,-81.13 80.09,-89.2 83.63,-83.16"/>
</g>
<!-- Node5 -->
<g id="node5" class="node">
<title>Node5</title>
<g id="a_node5"><a xlink:href="IStatusIndicator_8hpp.xhtml" target="_top" xlink:title=" ">
<polygon fill="white" stroke="black" points="150.5,-56.5 150.5,-86.5 282.5,-86.5 282.5,-56.5 150.5,-56.5"/>
<text text-anchor="start" x="158.5" y="-74.5" font-family="Helvetica,sans-Serif" font-size="10.00">user_interaction/IStatus</text>
<text text-anchor="middle" x="216.5" y="-63.5" font-family="Helvetica,sans-Serif" font-size="10.00">Indicator.hpp</text>
</a>
</g>
</g>
<!-- Node2&#45;&gt;Node5 -->
<g id="edge4" class="edge">
<title>Node2&#45;&gt;Node5</title>
<path fill="none" stroke="midnightblue" d="M175.84,-128.73C182.07,-120.12 191.84,-106.61 200.24,-94.99"/>
<polygon fill="midnightblue" stroke="midnightblue" points="203.29,-96.74 206.31,-86.59 197.62,-92.64 203.29,-96.74"/>
</g>
<!-- Node4 -->
<g id="node4" class="node">
<title>Node4</title>
<g id="a_node4"><a xlink:title=" ">
<polygon fill="white" stroke="#bfbfbf" points="33.5,-0.5 33.5,-19.5 83.5,-19.5 83.5,-0.5 33.5,-0.5"/>
<text text-anchor="middle" x="58.5" y="-7.5" font-family="Helvetica,sans-Serif" font-size="10.00">cstdint</text>
</a>
</g>
</g>
<!-- Node3&#45;&gt;Node4 -->
<g id="edge3" class="edge">
<title>Node3&#45;&gt;Node4</title>
<path fill="none" stroke="midnightblue" d="M58.5,-61.98C58.5,-53.58 58.5,-40.48 58.5,-29.66"/>
<polygon fill="midnightblue" stroke="midnightblue" points="62,-29.51 58.5,-19.51 55,-29.51 62,-29.51"/>
</g>
<!-- Node6&#45;&gt;Node3 -->
<g id="edge6" class="edge">
<title>Node6&#45;&gt;Node3</title>
<path fill="none" stroke="midnightblue" d="M47.25,-128.73C49.16,-119.18 52.28,-103.62 54.74,-91.28"/>
<polygon fill="midnightblue" stroke="midnightblue" points="58.25,-91.62 56.77,-81.13 51.38,-90.25 58.25,-91.62"/>
</g>
<!-- Node7&#45;&gt;Node5 -->
<g id="edge8" class="edge">
<title>Node7&#45;&gt;Node5</title>
<path fill="none" stroke="midnightblue" d="M310.46,-123.4C293.16,-114.03 270.25,-101.62 251.38,-91.39"/>
<polygon fill="midnightblue" stroke="midnightblue" points="252.95,-88.26 242.49,-86.58 249.61,-94.42 252.95,-88.26"/>
</g>
<!-- Node8 -->
<g id="node8" class="node">
<title>Node8</title>
<g id="a_node8"><a xlink:title=" ">
<polygon fill="white" stroke="#bfbfbf" points="313,-62 313,-81 360,-81 360,-62 313,-62"/>
<text text-anchor="middle" x="336.5" y="-69" font-family="Helvetica,sans-Serif" font-size="10.00">vector</text>
</a>
</g>
</g>
<!-- Node7&#45;&gt;Node8 -->
<g id="edge9" class="edge">
<title>Node7&#45;&gt;Node8</title>
<path fill="none" stroke="midnightblue" d="M336.5,-123.4C336.5,-114.06 336.5,-101.71 336.5,-91.52"/>
<polygon fill="midnightblue" stroke="midnightblue" points="340,-91.19 336.5,-81.19 333,-91.19 340,-91.19"/>
</g>
</g>
</svg>
