<?xml version="1.0" encoding="UTF-8" standalone="no"?>
<!DOCTYPE svg PUBLIC "-//W3C//DTD SVG 1.1//EN"
 "http://www.w3.org/Graphics/SVG/1.1/DTD/svg11.dtd">
<!-- Generated by graphviz version 2.43.0 (0)
 -->
<!-- Title: lib/board_adapters/board_pins.hpp Pages: 1 -->
<svg width="1288pt" height="117pt"
 viewBox="0.00 0.00 1287.50 117.00" xmlns="http://www.w3.org/2000/svg" xmlns:xlink="http://www.w3.org/1999/xlink">
<g id="graph0" class="graph" transform="scale(1 1) rotate(0) translate(4 113)">
<title>lib/board_adapters/board_pins.hpp</title>
<polygon fill="white" stroke="transparent" points="-4,4 -4,-113 1283.5,-113 1283.5,4 -4,4"/>
<!-- Node1 -->
<g id="node1" class="node">
<title>Node1</title>
<g id="a_node1"><a xlink:title="Provides named objects for the pins provided by the board.">
<polygon fill="#bfbfbf" stroke="black" points="589.5,-78.5 589.5,-108.5 696.5,-108.5 696.5,-78.5 589.5,-78.5"/>
<text text-anchor="start" x="597.5" y="-96.5" font-family="Helvetica,sans-Serif" font-size="10.00">lib/board_adapters</text>
<text text-anchor="middle" x="643" y="-85.5" font-family="Helvetica,sans-Serif" font-size="10.00">/board_pins.hpp</text>
</a>
</g>
</g>
<!-- Node2 -->
<g id="node2" class="node">
<title>Node2</title>
<g id="a_node2"><a xlink:href="framework__adapter_8cpp.xhtml" target="_top" xlink:title=" ">
<polygon fill="white" stroke="black" points="0,-6 0,-36 176,-36 176,-6 0,-6"/>
<text text-anchor="start" x="8" y="-24" font-family="Helvetica,sans-Serif" font-size="10.00">lib/3rd_party_adapters</text>
<text text-anchor="middle" x="88" y="-13" font-family="Helvetica,sans-Serif" font-size="10.00">/Arduino/framework_adapter.cpp</text>
</a>
</g>
</g>
<!-- Node1&#45;&gt;Node2 -->
<g id="edge1" class="edge">
<title>Node1&#45;&gt;Node2</title>
<path fill="none" stroke="midnightblue" d="M579.02,-87.35C490.25,-79.77 324.85,-64.08 185,-42 174.22,-40.3 162.81,-38.21 151.76,-36.03"/>
<polygon fill="midnightblue" stroke="midnightblue" points="578.94,-90.85 589.2,-88.21 579.53,-83.88 578.94,-90.85"/>
</g>
<!-- Node3 -->
<g id="node3" class="node">
<title>Node3</title>
<g id="a_node3"><a xlink:href="display__factory__interface_8cpp.xhtml" target="_top" xlink:title=" ">
<polygon fill="white" stroke="black" points="194,-0.5 194,-41.5 320,-41.5 320,-0.5 194,-0.5"/>
<text text-anchor="start" x="202" y="-29.5" font-family="Helvetica,sans-Serif" font-size="10.00">lib/3rd_party_adapters</text>
<text text-anchor="start" x="202" y="-18.5" font-family="Helvetica,sans-Serif" font-size="10.00">/LVGL/display_factory</text>
<text text-anchor="middle" x="257" y="-7.5" font-family="Helvetica,sans-Serif" font-size="10.00">_interface.cpp</text>
</a>
</g>
</g>
<!-- Node1&#45;&gt;Node3 -->
<g id="edge2" class="edge">
<title>Node1&#45;&gt;Node3</title>
<path fill="none" stroke="midnightblue" d="M579.03,-84.34C515.3,-75.71 414.84,-60.76 329,-42 326.08,-41.36 323.11,-40.68 320.12,-39.96"/>
<polygon fill="midnightblue" stroke="midnightblue" points="578.95,-87.86 589.32,-85.72 579.88,-80.92 578.95,-87.86"/>
</g>
<!-- Node4 -->
<g id="node4" class="node">
<title>Node4</title>
<g id="a_node4"><a xlink:href="Keypad_8cpp.xhtml" target="_top" xlink:title=" ">
<polygon fill="white" stroke="black" points="338.5,-0.5 338.5,-41.5 469.5,-41.5 469.5,-0.5 338.5,-0.5"/>
<text text-anchor="start" x="346.5" y="-29.5" font-family="Helvetica,sans-Serif" font-size="10.00">lib/board_adapters</text>
<text text-anchor="start" x="346.5" y="-18.5" font-family="Helvetica,sans-Serif" font-size="10.00">/input_device_interface</text>
<text text-anchor="middle" x="404" y="-7.5" font-family="Helvetica,sans-Serif" font-size="10.00">/Keypad.cpp</text>
</a>
</g>
</g>
<!-- Node1&#45;&gt;Node4 -->
<g id="edge3" class="edge">
<title>Node1&#45;&gt;Node4</title>
<path fill="none" stroke="midnightblue" d="M585.9,-75.66C550.9,-65.33 505.96,-52.08 469.51,-41.33"/>
<polygon fill="midnightblue" stroke="midnightblue" points="584.91,-79.01 595.5,-78.49 586.89,-72.3 584.91,-79.01"/>
</g>
<!-- Node5 -->
<g id="node5" class="node">
<title>Node5</title>
<g id="a_node5"><a xlink:href="sound__output_8cpp.xhtml" target="_top" xlink:title=" ">
<polygon fill="white" stroke="black" points="488,-0.5 488,-41.5 622,-41.5 622,-0.5 488,-0.5"/>
<text text-anchor="start" x="496" y="-29.5" font-family="Helvetica,sans-Serif" font-size="10.00">lib/board_adapters</text>
<text text-anchor="start" x="496" y="-18.5" font-family="Helvetica,sans-Serif" font-size="10.00">/sound_output_interface</text>
<text text-anchor="middle" x="555" y="-7.5" font-family="Helvetica,sans-Serif" font-size="10.00">/sound_output.cpp</text>
</a>
</g>
</g>
<!-- Node1&#45;&gt;Node5 -->
<g id="edge4" class="edge">
<title>Node1&#45;&gt;Node5</title>
<path fill="none" stroke="midnightblue" d="M617.33,-71.93C605.38,-62.36 591.24,-51.03 579.45,-41.59"/>
<polygon fill="midnightblue" stroke="midnightblue" points="615.2,-74.71 625.19,-78.23 619.58,-69.25 615.2,-74.71"/>
</g>
<!-- Node6 -->
<g id="node6" class="node">
<title>Node6</title>
<g id="a_node6"><a xlink:href="statusindicators__factory__interface_8cpp.xhtml" target="_top" xlink:title=" ">
<polygon fill="white" stroke="black" points="640,-0.5 640,-41.5 824,-41.5 824,-0.5 640,-0.5"/>
<text text-anchor="start" x="648" y="-29.5" font-family="Helvetica,sans-Serif" font-size="10.00">lib/board_adapters</text>
<text text-anchor="start" x="648" y="-18.5" font-family="Helvetica,sans-Serif" font-size="10.00">/status_indicators/statusindicators</text>
<text text-anchor="middle" x="732" y="-7.5" font-family="Helvetica,sans-Serif" font-size="10.00">_factory_interface.cpp</text>
</a>
</g>
</g>
<!-- Node1&#45;&gt;Node6 -->
<g id="edge5" class="edge">
<title>Node1&#45;&gt;Node6</title>
<path fill="none" stroke="midnightblue" d="M668.96,-71.93C681.05,-62.36 695.35,-51.03 707.27,-41.59"/>
<polygon fill="midnightblue" stroke="midnightblue" points="666.68,-69.28 661.01,-78.23 671.02,-74.77 666.68,-69.28"/>
</g>
<!-- Node7 -->
<g id="node7" class="node">
<title>Node7</title>
<g id="a_node7"><a xlink:href="test__dummies_8cpp.xhtml" target="_top" xlink:title=" ">
<polygon fill="white" stroke="black" points="842,-11.5 842,-30.5 992,-30.5 992,-11.5 842,-11.5"/>
<text text-anchor="middle" x="917" y="-18.5" font-family="Helvetica,sans-Serif" font-size="10.00">test/hmi/test_dummies.cpp</text>
</a>
</g>
</g>
<!-- Node1&#45;&gt;Node7 -->
<g id="edge6" class="edge">
<title>Node1&#45;&gt;Node7</title>
<path fill="none" stroke="midnightblue" d="M706.5,-76.16C761.77,-61.94 839.71,-41.89 883.58,-30.6"/>
<polygon fill="midnightblue" stroke="midnightblue" points="705.62,-72.77 696.81,-78.66 707.36,-79.55 705.62,-72.77"/>
</g>
<!-- Node8 -->
<g id="node8" class="node">
<title>Node8</title>
<g id="a_node8"><a xlink:href="test__hmi_8cpp.xhtml" target="_top" xlink:title=" ">
<polygon fill="white" stroke="black" points="1009.5,-6 1009.5,-36 1134.5,-36 1134.5,-6 1009.5,-6"/>
<text text-anchor="start" x="1017.5" y="-24" font-family="Helvetica,sans-Serif" font-size="10.00">test/hmi/test_hmi/test</text>
<text text-anchor="middle" x="1072" y="-13" font-family="Helvetica,sans-Serif" font-size="10.00">_hmi.cpp</text>
</a>
</g>
</g>
<!-- Node1&#45;&gt;Node8 -->
<g id="edge7" class="edge">
<title>Node1&#45;&gt;Node8</title>
<path fill="none" stroke="midnightblue" d="M707.03,-86.1C779,-78.29 899.13,-63.43 1001,-42 1009.02,-40.31 1017.47,-38.22 1025.63,-36.03"/>
<polygon fill="midnightblue" stroke="midnightblue" points="706.33,-82.65 696.77,-87.2 707.08,-89.61 706.33,-82.65"/>
</g>
<!-- Node9 -->
<g id="node9" class="node">
<title>Node9</title>
<g id="a_node9"><a xlink:href="test__keyState_8cpp.xhtml" target="_top" xlink:title=" ">
<polygon fill="white" stroke="black" points="1152.5,-6 1152.5,-36 1279.5,-36 1279.5,-6 1152.5,-6"/>
<text text-anchor="start" x="1160.5" y="-24" font-family="Helvetica,sans-Serif" font-size="10.00">test/hmi/test_keyState</text>
<text text-anchor="middle" x="1216" y="-13" font-family="Helvetica,sans-Serif" font-size="10.00">/test_keyState.cpp</text>
</a>
</g>
</g>
<!-- Node1&#45;&gt;Node9 -->
<g id="edge8" class="edge">
<title>Node1&#45;&gt;Node9</title>
<path fill="none" stroke="midnightblue" d="M706.91,-89.55C802.62,-84.35 988.57,-71.2 1144,-42 1152.42,-40.42 1161.28,-38.32 1169.8,-36.08"/>
<polygon fill="midnightblue" stroke="midnightblue" points="706.61,-86.06 696.81,-90.09 706.99,-93.05 706.61,-86.06"/>
</g>
</g>
</svg>
