<?xml version="1.0" encoding="UTF-8" standalone="no"?>
<!DOCTYPE svg PUBLIC "-//W3C//DTD SVG 1.1//EN"
 "http://www.w3.org/Graphics/SVG/1.1/DTD/svg11.dtd">
<!-- Generated by graphviz version 2.43.0 (0)
 -->
<!-- Title: ScreenValueModifier Pages: 1 -->
<svg width="651pt" height="419pt"
 viewBox="0.00 0.00 651.00 419.00" xmlns="http://www.w3.org/2000/svg" xmlns:xlink="http://www.w3.org/1999/xlink">
<g id="graph0" class="graph" transform="scale(1 1) rotate(0) translate(4 415)">
<title>ScreenValueModifier</title>
<polygon fill="white" stroke="transparent" points="-4,4 -4,-415 647,-415 647,4 -4,4"/>
<!-- Node1 -->
<g id="node1" class="node">
<title>Node1</title>
<g id="a_node1"><a xlink:title="Screen for value modification.">
<polygon fill="#bfbfbf" stroke="black" points="194.5,-0.5 194.5,-79.5 337.5,-79.5 337.5,-0.5 194.5,-0.5"/>
<text text-anchor="middle" x="266" y="-67.5" font-family="Helvetica,sans-Serif" font-size="10.00">ScreenValueModifier</text>
<polyline fill="none" stroke="black" points="194.5,-60.5 337.5,-60.5 "/>
<text text-anchor="middle" x="266" y="-48.5" font-family="Helvetica,sans-Serif" font-size="10.00"> </text>
<polyline fill="none" stroke="black" points="194.5,-41.5 337.5,-41.5 "/>
<text text-anchor="start" x="202.5" y="-29.5" font-family="Helvetica,sans-Serif" font-size="10.00">+ ScreenValueModifier()</text>
<text text-anchor="start" x="202.5" y="-18.5" font-family="Helvetica,sans-Serif" font-size="10.00">+ ~ScreenValueModifier()</text>
<text text-anchor="start" x="202.5" y="-7.5" font-family="Helvetica,sans-Serif" font-size="10.00">+ draw()</text>
</a>
</g>
</g>
<!-- Node2 -->
<g id="node2" class="node">
<title>Node2</title>
<g id="a_node2"><a xlink:href="classIScreen.xhtml" target="_top" xlink:title="Interface class for Screen objects.">
<polygon fill="white" stroke="black" points="0,-155 0,-234 80,-234 80,-155 0,-155"/>
<text text-anchor="middle" x="40" y="-222" font-family="Helvetica,sans-Serif" font-size="10.00">IScreen</text>
<polyline fill="none" stroke="black" points="0,-215 80,-215 "/>
<text text-anchor="middle" x="40" y="-203" font-family="Helvetica,sans-Serif" font-size="10.00"> </text>
<polyline fill="none" stroke="black" points="0,-196 80,-196 "/>
<text text-anchor="start" x="8" y="-184" font-family="Helvetica,sans-Serif" font-size="10.00">+ IScreen()</text>
<text text-anchor="start" x="8" y="-173" font-family="Helvetica,sans-Serif" font-size="10.00">+ ~IScreen()</text>
<text text-anchor="start" x="8" y="-162" font-family="Helvetica,sans-Serif" font-size="10.00">+ draw()</text>
</a>
</g>
</g>
<!-- Node2&#45;&gt;Node1 -->
<g id="edge1" class="edge">
<title>Node2&#45;&gt;Node1</title>
<path fill="none" stroke="midnightblue" d="M70.05,-146.55C75.81,-139.48 82.19,-132.67 89,-127 119.99,-101.21 160.02,-80.93 194.16,-66.55"/>
<polygon fill="none" stroke="midnightblue" points="66.93,-144.86 63.58,-154.91 72.47,-149.14 66.93,-144.86"/>
</g>
<!-- Node3 -->
<g id="node3" class="node">
<title>Node3</title>
<g id="a_node3"><a xlink:title=" ">
<polygon fill="white" stroke="#bfbfbf" points="98.5,-160.5 98.5,-228.5 289.5,-228.5 289.5,-160.5 98.5,-160.5"/>
<text text-anchor="start" x="106.5" y="-216.5" font-family="Helvetica,sans-Serif" font-size="10.00">std::enable_shared</text>
<text text-anchor="middle" x="194" y="-205.5" font-family="Helvetica,sans-Serif" font-size="10.00">_from_this&lt; ScreenValueModifier &gt;</text>
<polyline fill="none" stroke="#bfbfbf" points="98.5,-198.5 289.5,-198.5 "/>
<text text-anchor="middle" x="194" y="-186.5" font-family="Helvetica,sans-Serif" font-size="10.00"> </text>
<polyline fill="none" stroke="#bfbfbf" points="98.5,-179.5 289.5,-179.5 "/>
<text text-anchor="middle" x="194" y="-167.5" font-family="Helvetica,sans-Serif" font-size="10.00"> </text>
</a>
</g>
</g>
<!-- Node3&#45;&gt;Node1 -->
<g id="edge2" class="edge">
<title>Node3&#45;&gt;Node1</title>
<path fill="none" stroke="#8b1a1a" d="M214,-151.15C224.56,-128.77 237.44,-101.49 247.74,-79.68"/>
<polygon fill="none" stroke="#8b1a1a" points="210.73,-149.87 209.62,-160.41 217.06,-152.86 210.73,-149.87"/>
</g>
<!-- Node4 -->
<g id="node4" class="node">
<title>Node4</title>
<g id="a_node4"><a xlink:title=" ">
<polygon fill="white" stroke="#bfbfbf" points="307.5,-166 307.5,-223 370.5,-223 370.5,-166 307.5,-166"/>
<text text-anchor="middle" x="339" y="-211" font-family="Helvetica,sans-Serif" font-size="10.00">lv_obj_t *</text>
<polyline fill="none" stroke="#bfbfbf" points="307.5,-204 370.5,-204 "/>
<text text-anchor="middle" x="339" y="-192" font-family="Helvetica,sans-Serif" font-size="10.00"> </text>
<polyline fill="none" stroke="#bfbfbf" points="307.5,-185 370.5,-185 "/>
<text text-anchor="middle" x="339" y="-173" font-family="Helvetica,sans-Serif" font-size="10.00"> </text>
</a>
</g>
</g>
<!-- Node4&#45;&gt;Node1 -->
<g id="edge3" class="edge">
<title>Node4&#45;&gt;Node1</title>
<path fill="none" stroke="#404040" d="M325.78,-165.88C315.77,-144.97 301.75,-115.67 289.8,-90.71"/>
<polygon fill="none" stroke="#404040" points="289.66,-90.42 283.46,-86.73 284.48,-79.6 290.67,-83.28 289.66,-90.42"/>
<text text-anchor="middle" x="326.5" y="-101" font-family="Helvetica,sans-Serif" font-size="10.00"> +_spinbox</text>
</g>
<!-- Node5 -->
<g id="node5" class="node">
<title>Node5</title>
<g id="a_node5"><a xlink:href="structMenuItemValue.xhtml" target="_top" xlink:title="menu item to show double variables and call a modification screen">
<polygon fill="white" stroke="black" points="389,-127.5 389,-261.5 509,-261.5 509,-127.5 389,-127.5"/>
<text text-anchor="middle" x="449" y="-249.5" font-family="Helvetica,sans-Serif" font-size="10.00">MenuItemValue</text>
<polyline fill="none" stroke="black" points="389,-242.5 509,-242.5 "/>
<text text-anchor="middle" x="449" y="-230.5" font-family="Helvetica,sans-Serif" font-size="10.00"> </text>
<polyline fill="none" stroke="black" points="389,-223.5 509,-223.5 "/>
<text text-anchor="start" x="397" y="-211.5" font-family="Helvetica,sans-Serif" font-size="10.00">+ MenuItemValue()</text>
<text text-anchor="start" x="397" y="-200.5" font-family="Helvetica,sans-Serif" font-size="10.00">+ ~MenuItemValue()</text>
<text text-anchor="start" x="397" y="-189.5" font-family="Helvetica,sans-Serif" font-size="10.00">+ getText()</text>
<text text-anchor="start" x="397" y="-178.5" font-family="Helvetica,sans-Serif" font-size="10.00">+ getType()</text>
<text text-anchor="start" x="397" y="-167.5" font-family="Helvetica,sans-Serif" font-size="10.00">+ getPtrDouble()</text>
<text text-anchor="start" x="397" y="-156.5" font-family="Helvetica,sans-Serif" font-size="10.00">+ getDecimals()</text>
<text text-anchor="start" x="397" y="-145.5" font-family="Helvetica,sans-Serif" font-size="10.00">+ getMin()</text>
<text text-anchor="start" x="397" y="-134.5" font-family="Helvetica,sans-Serif" font-size="10.00">+ getMax()</text>
</a>
</g>
</g>
<!-- Node5&#45;&gt;Node1 -->
<g id="edge4" class="edge">
<title>Node5&#45;&gt;Node1</title>
<path fill="none" stroke="#404040" d="M390.17,-127.26C379.87,-117 368.93,-106.88 358,-98 353.2,-94.1 348.11,-90.26 342.9,-86.54"/>
<polygon fill="none" stroke="#404040" points="342.61,-86.34 335.4,-86.22 332.74,-79.51 339.95,-79.63 342.61,-86.34"/>
<text text-anchor="middle" x="401.5" y="-101" font-family="Helvetica,sans-Serif" font-size="10.00"> +_menuItem</text>
</g>
<!-- Node6 -->
<g id="node6" class="node">
<title>Node6</title>
<g id="a_node6"><a xlink:href="classIMenuItem.xhtml" target="_top" xlink:title="interface for all menu items">
<polygon fill="white" stroke="black" points="243,-320.5 243,-410.5 339,-410.5 339,-320.5 243,-320.5"/>
<text text-anchor="middle" x="291" y="-398.5" font-family="Helvetica,sans-Serif" font-size="10.00">IMenuItem</text>
<polyline fill="none" stroke="black" points="243,-391.5 339,-391.5 "/>
<text text-anchor="middle" x="291" y="-379.5" font-family="Helvetica,sans-Serif" font-size="10.00"> </text>
<polyline fill="none" stroke="black" points="243,-372.5 339,-372.5 "/>
<text text-anchor="start" x="251" y="-360.5" font-family="Helvetica,sans-Serif" font-size="10.00">+ IMenuItem()</text>
<text text-anchor="start" x="251" y="-349.5" font-family="Helvetica,sans-Serif" font-size="10.00">+ ~IMenuItem()</text>
<text text-anchor="start" x="251" y="-338.5" font-family="Helvetica,sans-Serif" font-size="10.00">+ getText()</text>
<text text-anchor="start" x="251" y="-327.5" font-family="Helvetica,sans-Serif" font-size="10.00">+ getType()</text>
</a>
</g>
</g>
<!-- Node6&#45;&gt;Node5 -->
<g id="edge5" class="edge">
<title>Node6&#45;&gt;Node5</title>
<path fill="none" stroke="midnightblue" d="M339.51,-312.61C355.06,-295.98 372.47,-277.36 388.75,-259.95"/>
<polygon fill="none" stroke="midnightblue" points="336.79,-310.4 332.51,-320.1 341.9,-315.18 336.79,-310.4"/>
</g>
<!-- Node7 -->
<g id="node7" class="node">
<title>Node7</title>
<g id="a_node7"><a xlink:title=" ">
<polygon fill="white" stroke="#bfbfbf" points="357,-337 357,-394 407,-394 407,-337 357,-337"/>
<text text-anchor="middle" x="382" y="-382" font-family="Helvetica,sans-Serif" font-size="10.00">double</text>
<polyline fill="none" stroke="#bfbfbf" points="357,-375 407,-375 "/>
<text text-anchor="middle" x="382" y="-363" font-family="Helvetica,sans-Serif" font-size="10.00"> </text>
<polyline fill="none" stroke="#bfbfbf" points="357,-356 407,-356 "/>
<text text-anchor="middle" x="382" y="-344" font-family="Helvetica,sans-Serif" font-size="10.00"> </text>
</a>
</g>
</g>
<!-- Node7&#45;&gt;Node5 -->
<g id="edge6" class="edge">
<title>Node7&#45;&gt;Node5</title>
<path fill="none" stroke="#404040" d="M388.46,-336.65C392.69,-319.96 398.76,-298.46 406,-280 406.92,-277.67 407.87,-275.31 408.87,-272.94"/>
<polygon fill="none" stroke="#404040" points="408.92,-272.82 407.67,-265.72 413.74,-261.83 414.99,-268.93 408.92,-272.82"/>
<text text-anchor="middle" x="425.5" y="-294" font-family="Helvetica,sans-Serif" font-size="10.00"> #_max</text>
<text text-anchor="middle" x="425.5" y="-283" font-family="Helvetica,sans-Serif" font-size="10.00">#_min</text>
</g>
<!-- Node8 -->
<g id="node8" class="node">
<title>Node8</title>
<g id="a_node8"><a xlink:title=" ">
<polygon fill="white" stroke="#bfbfbf" points="425,-337 425,-394 483,-394 483,-337 425,-337"/>
<text text-anchor="middle" x="454" y="-382" font-family="Helvetica,sans-Serif" font-size="10.00">double *</text>
<polyline fill="none" stroke="#bfbfbf" points="425,-375 483,-375 "/>
<text text-anchor="middle" x="454" y="-363" font-family="Helvetica,sans-Serif" font-size="10.00"> </text>
<polyline fill="none" stroke="#bfbfbf" points="425,-356 483,-356 "/>
<text text-anchor="middle" x="454" y="-344" font-family="Helvetica,sans-Serif" font-size="10.00"> </text>
</a>
</g>
</g>
<!-- Node8&#45;&gt;Node5 -->
<g id="edge7" class="edge">
<title>Node8&#45;&gt;Node5</title>
<path fill="none" stroke="#404040" d="M451.9,-336.83C451.17,-325.97 450.42,-313.41 450,-302 449.66,-292.84 449.42,-283.23 449.25,-273.7"/>
<polygon fill="none" stroke="#404040" points="449.25,-273.7 445.15,-267.76 449.06,-261.7 453.15,-267.64 449.25,-273.7"/>
<text text-anchor="middle" x="482.5" y="-288.5" font-family="Helvetica,sans-Serif" font-size="10.00"> #_ptrDouble</text>
</g>
<!-- Node9 -->
<g id="node9" class="node">
<title>Node9</title>
<g id="a_node9"><a xlink:title=" ">
<polygon fill="white" stroke="#bfbfbf" points="512,-337 512,-394 562,-394 562,-337 512,-337"/>
<text text-anchor="middle" x="537" y="-382" font-family="Helvetica,sans-Serif" font-size="10.00">uint8_t</text>
<polyline fill="none" stroke="#bfbfbf" points="512,-375 562,-375 "/>
<text text-anchor="middle" x="537" y="-363" font-family="Helvetica,sans-Serif" font-size="10.00"> </text>
<polyline fill="none" stroke="#bfbfbf" points="512,-356 562,-356 "/>
<text text-anchor="middle" x="537" y="-344" font-family="Helvetica,sans-Serif" font-size="10.00"> </text>
</a>
</g>
</g>
<!-- Node9&#45;&gt;Node5 -->
<g id="edge8" class="edge">
<title>Node9&#45;&gt;Node5</title>
<path fill="none" stroke="#404040" d="M532.75,-336.86C529.44,-319.85 523.86,-297.94 515,-280 513.71,-277.39 512.34,-274.79 510.89,-272.2"/>
<polygon fill="none" stroke="#404040" points="510.74,-271.95 504.22,-268.86 504.56,-261.66 511.08,-264.75 510.74,-271.95"/>
<text text-anchor="middle" x="553.5" y="-288.5" font-family="Helvetica,sans-Serif" font-size="10.00"> #_decimals</text>
</g>
<!-- Node10 -->
<g id="node10" class="node">
<title>Node10</title>
<g id="a_node10"><a xlink:title=" ">
<polygon fill="white" stroke="#bfbfbf" points="599,-337 599,-394 643,-394 643,-337 599,-337"/>
<text text-anchor="middle" x="621" y="-382" font-family="Helvetica,sans-Serif" font-size="10.00">string</text>
<polyline fill="none" stroke="#bfbfbf" points="599,-375 643,-375 "/>
<text text-anchor="middle" x="621" y="-363" font-family="Helvetica,sans-Serif" font-size="10.00"> </text>
<polyline fill="none" stroke="#bfbfbf" points="599,-356 643,-356 "/>
<text text-anchor="middle" x="621" y="-344" font-family="Helvetica,sans-Serif" font-size="10.00"> </text>
</a>
</g>
</g>
<!-- Node10&#45;&gt;Node5 -->
<g id="edge9" class="edge">
<title>Node10&#45;&gt;Node5</title>
<path fill="none" stroke="#404040" d="M615.02,-336.63C610.1,-318.89 601.67,-296.28 588,-280 569.65,-258.15 544.13,-240.38 519.96,-226.88"/>
<polygon fill="none" stroke="#404040" points="519.91,-226.85 512.73,-227.53 509.34,-221.16 516.52,-220.49 519.91,-226.85"/>
<text text-anchor="middle" x="619.5" y="-288.5" font-family="Helvetica,sans-Serif" font-size="10.00"> #_text</text>
</g>
</g>
</svg>
