<?xml version="1.0" encoding="UTF-8" standalone="no"?>
<!DOCTYPE svg PUBLIC "-//W3C//DTD SVG 1.1//EN"
 "http://www.w3.org/Graphics/SVG/1.1/DTD/svg11.dtd">
<!-- Generated by graphviz version 2.43.0 (0)
 -->
<!-- Title: MenuItemSubmenu Pages: 1 -->
<svg width="307pt" height="248pt"
 viewBox="0.00 0.00 307.00 248.00" xmlns="http://www.w3.org/2000/svg" xmlns:xlink="http://www.w3.org/1999/xlink">
<g id="graph0" class="graph" transform="scale(1 1) rotate(0) translate(4 244)">
<title>MenuItemSubmenu</title>
<polygon fill="white" stroke="transparent" points="-4,4 -4,-244 303,-244 303,4 -4,4"/>
<!-- Node1 -->
<g id="node1" class="node">
<title>Node1</title>
<g id="a_node1"><a xlink:title="menu item to call a submenu">
<polygon fill="#bfbfbf" stroke="black" points="105.5,-0.5 105.5,-101.5 244.5,-101.5 244.5,-0.5 105.5,-0.5"/>
<text text-anchor="middle" x="175" y="-89.5" font-family="Helvetica,sans-Serif" font-size="10.00">MenuItemSubmenu</text>
<polyline fill="none" stroke="black" points="105.5,-82.5 244.5,-82.5 "/>
<text text-anchor="middle" x="175" y="-70.5" font-family="Helvetica,sans-Serif" font-size="10.00"> </text>
<polyline fill="none" stroke="black" points="105.5,-63.5 244.5,-63.5 "/>
<text text-anchor="start" x="113.5" y="-51.5" font-family="Helvetica,sans-Serif" font-size="10.00">+ MenuItemSubmenu()</text>
<text text-anchor="start" x="113.5" y="-40.5" font-family="Helvetica,sans-Serif" font-size="10.00">+ ~MenuItemSubmenu()</text>
<text text-anchor="start" x="113.5" y="-29.5" font-family="Helvetica,sans-Serif" font-size="10.00">+ getText()</text>
<text text-anchor="start" x="113.5" y="-18.5" font-family="Helvetica,sans-Serif" font-size="10.00">+ getType()</text>
<text text-anchor="start" x="113.5" y="-7.5" font-family="Helvetica,sans-Serif" font-size="10.00">+ getSubMenuList()</text>
</a>
</g>
</g>
<!-- Node2 -->
<g id="node2" class="node">
<title>Node2</title>
<g id="a_node2"><a xlink:href="classIMenuItem.xhtml" target="_top" xlink:title="interface for all menu items">
<polygon fill="white" stroke="black" points="0,-149.5 0,-239.5 96,-239.5 96,-149.5 0,-149.5"/>
<text text-anchor="middle" x="48" y="-227.5" font-family="Helvetica,sans-Serif" font-size="10.00">IMenuItem</text>
<polyline fill="none" stroke="black" points="0,-220.5 96,-220.5 "/>
<text text-anchor="middle" x="48" y="-208.5" font-family="Helvetica,sans-Serif" font-size="10.00"> </text>
<polyline fill="none" stroke="black" points="0,-201.5 96,-201.5 "/>
<text text-anchor="start" x="8" y="-189.5" font-family="Helvetica,sans-Serif" font-size="10.00">+ IMenuItem()</text>
<text text-anchor="start" x="8" y="-178.5" font-family="Helvetica,sans-Serif" font-size="10.00">+ ~IMenuItem()</text>
<text text-anchor="start" x="8" y="-167.5" font-family="Helvetica,sans-Serif" font-size="10.00">+ getText()</text>
<text text-anchor="start" x="8" y="-156.5" font-family="Helvetica,sans-Serif" font-size="10.00">+ getType()</text>
</a>
</g>
</g>
<!-- Node2&#45;&gt;Node1 -->
<g id="edge1" class="edge">
<title>Node2&#45;&gt;Node1</title>
<path fill="none" stroke="midnightblue" d="M94.62,-141.56C106.32,-128.52 118.85,-114.57 130.44,-101.64"/>
<polygon fill="none" stroke="midnightblue" points="91.91,-139.34 87.84,-149.12 97.12,-144.01 91.91,-139.34"/>
</g>
<!-- Node3 -->
<g id="node3" class="node">
<title>Node3</title>
<g id="a_node3"><a xlink:title=" ">
<polygon fill="white" stroke="#bfbfbf" points="114.5,-166 114.5,-223 235.5,-223 235.5,-166 114.5,-166"/>
<text text-anchor="middle" x="175" y="-211" font-family="Helvetica,sans-Serif" font-size="10.00">const MenuItemList *</text>
<polyline fill="none" stroke="#bfbfbf" points="114.5,-204 235.5,-204 "/>
<text text-anchor="middle" x="175" y="-192" font-family="Helvetica,sans-Serif" font-size="10.00"> </text>
<polyline fill="none" stroke="#bfbfbf" points="114.5,-185 235.5,-185 "/>
<text text-anchor="middle" x="175" y="-173" font-family="Helvetica,sans-Serif" font-size="10.00"> </text>
</a>
</g>
</g>
<!-- Node3&#45;&gt;Node1 -->
<g id="edge2" class="edge">
<title>Node3&#45;&gt;Node1</title>
<path fill="none" stroke="#404040" d="M175,-165.88C175,-150.98 175,-131.94 175,-113.72"/>
<polygon fill="none" stroke="#404040" points="175,-113.6 171,-107.6 175,-101.6 179,-107.6 175,-113.6"/>
<text text-anchor="middle" x="214.5" y="-123" font-family="Helvetica,sans-Serif" font-size="10.00"> #_subMenuList</text>
</g>
<!-- Node4 -->
<g id="node4" class="node">
<title>Node4</title>
<g id="a_node4"><a xlink:title=" ">
<polygon fill="white" stroke="#bfbfbf" points="255,-166 255,-223 299,-223 299,-166 255,-166"/>
<text text-anchor="middle" x="277" y="-211" font-family="Helvetica,sans-Serif" font-size="10.00">string</text>
<polyline fill="none" stroke="#bfbfbf" points="255,-204 299,-204 "/>
<text text-anchor="middle" x="277" y="-192" font-family="Helvetica,sans-Serif" font-size="10.00"> </text>
<polyline fill="none" stroke="#bfbfbf" points="255,-185 299,-185 "/>
<text text-anchor="middle" x="277" y="-173" font-family="Helvetica,sans-Serif" font-size="10.00"> </text>
</a>
</g>
</g>
<!-- Node4&#45;&gt;Node1 -->
<g id="edge3" class="edge">
<title>Node4&#45;&gt;Node1</title>
<path fill="none" stroke="#404040" d="M272.61,-165.7C269.39,-151.22 263.96,-133.72 255,-120 252.97,-116.9 250.76,-113.85 248.41,-110.89"/>
<polygon fill="none" stroke="#404040" points="248.3,-110.76 241.36,-108.83 240.47,-101.67 247.42,-103.61 248.3,-110.76"/>
<text text-anchor="middle" x="279.5" y="-123" font-family="Helvetica,sans-Serif" font-size="10.00"> #_text</text>
</g>
</g>
</svg>
