<?xml version="1.0" encoding="UTF-8" standalone="no"?>
<!DOCTYPE svg PUBLIC "-//W3C//DTD SVG 1.1//EN"
 "http://www.w3.org/Graphics/SVG/1.1/DTD/svg11.dtd">
<!-- Generated by graphviz version 2.43.0 (0)
 -->
<!-- Title: IMenuItem Pages: 1 -->
<svg width="429pt" height="314pt"
 viewBox="0.00 0.00 428.50 314.00" xmlns="http://www.w3.org/2000/svg" xmlns:xlink="http://www.w3.org/1999/xlink">
<g id="graph0" class="graph" transform="scale(1 1) rotate(0) translate(4 310)">
<title>IMenuItem</title>
<polygon fill="white" stroke="transparent" points="-4,4 -4,-310 424.5,-310 424.5,4 -4,4"/>
<!-- Node1 -->
<g id="node1" class="node">
<title>Node1</title>
<g id="a_node1"><a xlink:title=" ">
<polygon fill="#bfbfbf" stroke="black" points="171.5,-215.5 171.5,-305.5 267.5,-305.5 267.5,-215.5 171.5,-215.5"/>
<text text-anchor="middle" x="219.5" y="-293.5" font-family="Helvetica,sans-Serif" font-size="10.00">IMenuItem</text>
<polyline fill="none" stroke="black" points="171.5,-286.5 267.5,-286.5 "/>
<text text-anchor="middle" x="219.5" y="-274.5" font-family="Helvetica,sans-Serif" font-size="10.00"> </text>
<polyline fill="none" stroke="black" points="171.5,-267.5 267.5,-267.5 "/>
<text text-anchor="start" x="179.5" y="-255.5" font-family="Helvetica,sans-Serif" font-size="10.00">+ IMenuItem()</text>
<text text-anchor="start" x="179.5" y="-244.5" font-family="Helvetica,sans-Serif" font-size="10.00">+ ~IMenuItem()</text>
<text text-anchor="start" x="179.5" y="-233.5" font-family="Helvetica,sans-Serif" font-size="10.00">+ getText()</text>
<text text-anchor="start" x="179.5" y="-222.5" font-family="Helvetica,sans-Serif" font-size="10.00">+ getType()</text>
</a>
</g>
</g>
<!-- Node2 -->
<g id="node2" class="node">
<title>Node2</title>
<g id="a_node2"><a xlink:href="classMenuItemSubmenu.xhtml" target="_top" xlink:title=" ">
<polygon fill="white" stroke="black" points="0,-33.5 0,-145.5 139,-145.5 139,-33.5 0,-33.5"/>
<text text-anchor="middle" x="69.5" y="-133.5" font-family="Helvetica,sans-Serif" font-size="10.00">MenuItemSubmenu</text>
<polyline fill="none" stroke="black" points="0,-126.5 139,-126.5 "/>
<text text-anchor="start" x="8" y="-114.5" font-family="Helvetica,sans-Serif" font-size="10.00"># _text</text>
<text text-anchor="start" x="8" y="-103.5" font-family="Helvetica,sans-Serif" font-size="10.00"># _subMenuList</text>
<polyline fill="none" stroke="black" points="0,-96.5 139,-96.5 "/>
<text text-anchor="start" x="8" y="-84.5" font-family="Helvetica,sans-Serif" font-size="10.00">+ MenuItemSubmenu()</text>
<text text-anchor="start" x="8" y="-73.5" font-family="Helvetica,sans-Serif" font-size="10.00">+ ~MenuItemSubmenu()</text>
<text text-anchor="start" x="8" y="-62.5" font-family="Helvetica,sans-Serif" font-size="10.00">+ getText()</text>
<text text-anchor="start" x="8" y="-51.5" font-family="Helvetica,sans-Serif" font-size="10.00">+ getType()</text>
<text text-anchor="start" x="8" y="-40.5" font-family="Helvetica,sans-Serif" font-size="10.00">+ getSubMenuList()</text>
</a>
</g>
</g>
<!-- Node1&#45;&gt;Node2 -->
<g id="edge1" class="edge">
<title>Node1&#45;&gt;Node2</title>
<path fill="none" stroke="midnightblue" d="M173.08,-207.71C164.56,-198.17 155.75,-188.29 147.5,-179 137.98,-168.28 127.84,-156.8 118.12,-145.79"/>
<polygon fill="none" stroke="midnightblue" points="170.56,-210.14 179.83,-215.26 175.78,-205.48 170.56,-210.14"/>
</g>
<!-- Node3 -->
<g id="node3" class="node">
<title>Node3</title>
<g id="a_node3"><a xlink:href="structMenuItemSwitch.xhtml" target="_top" xlink:title=" ">
<polygon fill="white" stroke="black" points="157,-33.5 157,-145.5 282,-145.5 282,-33.5 157,-33.5"/>
<text text-anchor="middle" x="219.5" y="-133.5" font-family="Helvetica,sans-Serif" font-size="10.00">MenuItemSwitch</text>
<polyline fill="none" stroke="black" points="157,-126.5 282,-126.5 "/>
<text text-anchor="start" x="165" y="-114.5" font-family="Helvetica,sans-Serif" font-size="10.00"># _text</text>
<text text-anchor="start" x="165" y="-103.5" font-family="Helvetica,sans-Serif" font-size="10.00"># _ptrBool</text>
<polyline fill="none" stroke="black" points="157,-96.5 282,-96.5 "/>
<text text-anchor="start" x="165" y="-84.5" font-family="Helvetica,sans-Serif" font-size="10.00">+ MenuItemSwitch()</text>
<text text-anchor="start" x="165" y="-73.5" font-family="Helvetica,sans-Serif" font-size="10.00">+ ~MenuItemSwitch()</text>
<text text-anchor="start" x="165" y="-62.5" font-family="Helvetica,sans-Serif" font-size="10.00">+ getText()</text>
<text text-anchor="start" x="165" y="-51.5" font-family="Helvetica,sans-Serif" font-size="10.00">+ getType()</text>
<text text-anchor="start" x="165" y="-40.5" font-family="Helvetica,sans-Serif" font-size="10.00">+ getPtrBool()</text>
</a>
</g>
</g>
<!-- Node1&#45;&gt;Node3 -->
<g id="edge2" class="edge">
<title>Node1&#45;&gt;Node3</title>
<path fill="none" stroke="midnightblue" d="M219.5,-204.86C219.5,-185.95 219.5,-164.75 219.5,-145.79"/>
<polygon fill="none" stroke="midnightblue" points="216,-205.1 219.5,-215.1 223,-205.1 216,-205.1"/>
</g>
<!-- Node4 -->
<g id="node4" class="node">
<title>Node4</title>
<g id="a_node4"><a xlink:href="structMenuItemValue.xhtml" target="_top" xlink:title=" ">
<polygon fill="white" stroke="black" points="300.5,-0.5 300.5,-178.5 420.5,-178.5 420.5,-0.5 300.5,-0.5"/>
<text text-anchor="middle" x="360.5" y="-166.5" font-family="Helvetica,sans-Serif" font-size="10.00">MenuItemValue</text>
<polyline fill="none" stroke="black" points="300.5,-159.5 420.5,-159.5 "/>
<text text-anchor="start" x="308.5" y="-147.5" font-family="Helvetica,sans-Serif" font-size="10.00"># _text</text>
<text text-anchor="start" x="308.5" y="-136.5" font-family="Helvetica,sans-Serif" font-size="10.00"># _ptrDouble</text>
<text text-anchor="start" x="308.5" y="-125.5" font-family="Helvetica,sans-Serif" font-size="10.00"># _decimals</text>
<text text-anchor="start" x="308.5" y="-114.5" font-family="Helvetica,sans-Serif" font-size="10.00"># _min</text>
<text text-anchor="start" x="308.5" y="-103.5" font-family="Helvetica,sans-Serif" font-size="10.00"># _max</text>
<polyline fill="none" stroke="black" points="300.5,-96.5 420.5,-96.5 "/>
<text text-anchor="start" x="308.5" y="-84.5" font-family="Helvetica,sans-Serif" font-size="10.00">+ MenuItemValue()</text>
<text text-anchor="start" x="308.5" y="-73.5" font-family="Helvetica,sans-Serif" font-size="10.00">+ ~MenuItemValue()</text>
<text text-anchor="start" x="308.5" y="-62.5" font-family="Helvetica,sans-Serif" font-size="10.00">+ getText()</text>
<text text-anchor="start" x="308.5" y="-51.5" font-family="Helvetica,sans-Serif" font-size="10.00">+ getType()</text>
<text text-anchor="start" x="308.5" y="-40.5" font-family="Helvetica,sans-Serif" font-size="10.00">+ getPtrDouble()</text>
<text text-anchor="start" x="308.5" y="-29.5" font-family="Helvetica,sans-Serif" font-size="10.00">+ getDecimals()</text>
<text text-anchor="start" x="308.5" y="-18.5" font-family="Helvetica,sans-Serif" font-size="10.00">+ getMin()</text>
<text text-anchor="start" x="308.5" y="-7.5" font-family="Helvetica,sans-Serif" font-size="10.00">+ getMax()</text>
</a>
</g>
</g>
<!-- Node1&#45;&gt;Node4 -->
<g id="edge3" class="edge">
<title>Node1&#45;&gt;Node4</title>
<path fill="none" stroke="midnightblue" d="M266.69,-207.77C275.07,-198.29 283.63,-188.42 291.5,-179 294.37,-175.56 297.29,-172.03 300.21,-168.44"/>
<polygon fill="none" stroke="midnightblue" points="264.06,-205.46 260.03,-215.26 269.29,-210.11 264.06,-205.46"/>
</g>
</g>
</svg>
