<?xml version="1.0" encoding="UTF-8" standalone="no"?>
<!DOCTYPE svg PUBLIC "-//W3C//DTD SVG 1.1//EN"
 "http://www.w3.org/Graphics/SVG/1.1/DTD/svg11.dtd">
<!-- Generated by graphviz version 2.43.0 (0)
 -->
<!-- Title: MenuItemSubmenu Pages: 1 -->
<svg width="147pt" height="248pt"
 viewBox="0.00 0.00 147.00 248.00" xmlns="http://www.w3.org/2000/svg" xmlns:xlink="http://www.w3.org/1999/xlink">
<g id="graph0" class="graph" transform="scale(1 1) rotate(0) translate(4 244)">
<title>MenuItemSubmenu</title>
<polygon fill="white" stroke="transparent" points="-4,4 -4,-244 143,-244 143,4 -4,4"/>
<!-- Node1 -->
<g id="node1" class="node">
<title>Node1</title>
<g id="a_node1"><a xlink:title=" ">
<polygon fill="#bfbfbf" stroke="black" points="0,-0.5 0,-112.5 139,-112.5 139,-0.5 0,-0.5"/>
<text text-anchor="middle" x="69.5" y="-100.5" font-family="Helvetica,sans-Serif" font-size="10.00">MenuItemSubmenu</text>
<polyline fill="none" stroke="black" points="0,-93.5 139,-93.5 "/>
<text text-anchor="start" x="8" y="-81.5" font-family="Helvetica,sans-Serif" font-size="10.00"># _text</text>
<text text-anchor="start" x="8" y="-70.5" font-family="Helvetica,sans-Serif" font-size="10.00"># _subMenuList</text>
<polyline fill="none" stroke="black" points="0,-63.5 139,-63.5 "/>
<text text-anchor="start" x="8" y="-51.5" font-family="Helvetica,sans-Serif" font-size="10.00">+ MenuItemSubmenu()</text>
<text text-anchor="start" x="8" y="-40.5" font-family="Helvetica,sans-Serif" font-size="10.00">+ ~MenuItemSubmenu()</text>
<text text-anchor="start" x="8" y="-29.5" font-family="Helvetica,sans-Serif" font-size="10.00">+ getText()</text>
<text text-anchor="start" x="8" y="-18.5" font-family="Helvetica,sans-Serif" font-size="10.00">+ getType()</text>
<text text-anchor="start" x="8" y="-7.5" font-family="Helvetica,sans-Serif" font-size="10.00">+ getSubMenuList()</text>
</a>
</g>
</g>
<!-- Node2 -->
<g id="node2" class="node">
<title>Node2</title>
<g id="a_node2"><a xlink:href="classIMenuItem.xhtml" target="_top" xlink:title=" ">
<polygon fill="white" stroke="black" points="21.5,-149.5 21.5,-239.5 117.5,-239.5 117.5,-149.5 21.5,-149.5"/>
<text text-anchor="middle" x="69.5" y="-227.5" font-family="Helvetica,sans-Serif" font-size="10.00">IMenuItem</text>
<polyline fill="none" stroke="black" points="21.5,-220.5 117.5,-220.5 "/>
<text text-anchor="middle" x="69.5" y="-208.5" font-family="Helvetica,sans-Serif" font-size="10.00"> </text>
<polyline fill="none" stroke="black" points="21.5,-201.5 117.5,-201.5 "/>
<text text-anchor="start" x="29.5" y="-189.5" font-family="Helvetica,sans-Serif" font-size="10.00">+ IMenuItem()</text>
<text text-anchor="start" x="29.5" y="-178.5" font-family="Helvetica,sans-Serif" font-size="10.00">+ ~IMenuItem()</text>
<text text-anchor="start" x="29.5" y="-167.5" font-family="Helvetica,sans-Serif" font-size="10.00">+ getText()</text>
<text text-anchor="start" x="29.5" y="-156.5" font-family="Helvetica,sans-Serif" font-size="10.00">+ getType()</text>
</a>
</g>
</g>
<!-- Node2&#45;&gt;Node1 -->
<g id="edge1" class="edge">
<title>Node2&#45;&gt;Node1</title>
<path fill="none" stroke="midnightblue" d="M69.5,-139.31C69.5,-130.61 69.5,-121.59 69.5,-112.87"/>
<polygon fill="none" stroke="midnightblue" points="66,-139.34 69.5,-149.34 73,-139.34 66,-139.34"/>
</g>
</g>
</svg>
