<?xml version="1.0" encoding="UTF-8" standalone="no"?>
<!DOCTYPE svg PUBLIC "-//W3C//DTD SVG 1.1//EN"
 "http://www.w3.org/Graphics/SVG/1.1/DTD/svg11.dtd">
<!-- Generated by graphviz version 2.43.0 (0)
 -->
<!-- Title: ScreenMenu Pages: 1 -->
<svg width="112pt" height="204pt"
 viewBox="0.00 0.00 112.00 204.00" xmlns="http://www.w3.org/2000/svg" xmlns:xlink="http://www.w3.org/1999/xlink">
<g id="graph0" class="graph" transform="scale(1 1) rotate(0) translate(4 200)">
<title>ScreenMenu</title>
<polygon fill="white" stroke="transparent" points="-4,4 -4,-200 108,-200 108,4 -4,4"/>
<!-- Node1 -->
<g id="node1" class="node">
<title>Node1</title>
<g id="a_node1"><a xlink:title=" ">
<polygon fill="#bfbfbf" stroke="black" points="0,-0.5 0,-79.5 104,-79.5 104,-0.5 0,-0.5"/>
<text text-anchor="middle" x="52" y="-67.5" font-family="Helvetica,sans-Serif" font-size="10.00">ScreenMenu</text>
<polyline fill="none" stroke="black" points="0,-60.5 104,-60.5 "/>
<text text-anchor="middle" x="52" y="-48.5" font-family="Helvetica,sans-Serif" font-size="10.00"> </text>
<polyline fill="none" stroke="black" points="0,-41.5 104,-41.5 "/>
<text text-anchor="start" x="8" y="-29.5" font-family="Helvetica,sans-Serif" font-size="10.00">+ ScreenMenu()</text>
<text text-anchor="start" x="8" y="-18.5" font-family="Helvetica,sans-Serif" font-size="10.00">+ ~ScreenMenu()</text>
<text text-anchor="start" x="8" y="-7.5" font-family="Helvetica,sans-Serif" font-size="10.00">+ draw()</text>
</a>
</g>
</g>
<!-- Node2 -->
<g id="node2" class="node">
<title>Node2</title>
<g id="a_node2"><a xlink:href="classIScreen.xhtml" target="_top" xlink:title=" ">
<polygon fill="white" stroke="black" points="12,-116.5 12,-195.5 92,-195.5 92,-116.5 12,-116.5"/>
<text text-anchor="middle" x="52" y="-183.5" font-family="Helvetica,sans-Serif" font-size="10.00">IScreen</text>
<polyline fill="none" stroke="black" points="12,-176.5 92,-176.5 "/>
<text text-anchor="middle" x="52" y="-164.5" font-family="Helvetica,sans-Serif" font-size="10.00"> </text>
<polyline fill="none" stroke="black" points="12,-157.5 92,-157.5 "/>
<text text-anchor="start" x="20" y="-145.5" font-family="Helvetica,sans-Serif" font-size="10.00">+ IScreen()</text>
<text text-anchor="start" x="20" y="-134.5" font-family="Helvetica,sans-Serif" font-size="10.00">+ ~IScreen()</text>
<text text-anchor="start" x="20" y="-123.5" font-family="Helvetica,sans-Serif" font-size="10.00">+ draw()</text>
</a>
</g>
</g>
<!-- Node2&#45;&gt;Node1 -->
<g id="edge1" class="edge">
<title>Node2&#45;&gt;Node1</title>
<path fill="none" stroke="midnightblue" d="M52,-106.15C52,-97.26 52,-88.1 52,-79.56"/>
<polygon fill="none" stroke="midnightblue" points="48.5,-106.4 52,-116.4 55.5,-106.4 48.5,-106.4"/>
</g>
</g>
</svg>
