<?xml version="1.0" encoding="UTF-8" standalone="no"?>
<!DOCTYPE svg PUBLIC "-//W3C//DTD SVG 1.1//EN"
 "http://www.w3.org/Graphics/SVG/1.1/DTD/svg11.dtd">
<!-- Generated by graphviz version 2.43.0 (0)
 -->
<!-- Title: ScreenValueModifier Pages: 1 -->
<svg width="442pt" height="419pt"
 viewBox="0.00 0.00 442.00 419.00" xmlns="http://www.w3.org/2000/svg" xmlns:xlink="http://www.w3.org/1999/xlink">
<g id="graph0" class="graph" transform="scale(1 1) rotate(0) translate(4 415)">
<title>ScreenValueModifier</title>
<polygon fill="white" stroke="transparent" points="-4,4 -4,-415 438,-415 438,4 -4,4"/>
<!-- Node1 -->
<g id="node1" class="node">
<title>Node1</title>
<g id="a_node1"><a xlink:title="Screen for value modification.">
<polygon fill="#bfbfbf" stroke="black" points="58.5,-0.5 58.5,-79.5 201.5,-79.5 201.5,-0.5 58.5,-0.5"/>
<text text-anchor="middle" x="130" y="-67.5" font-family="Helvetica,sans-Serif" font-size="10.00">ScreenValueModifier</text>
<polyline fill="none" stroke="black" points="58.5,-60.5 201.5,-60.5 "/>
<text text-anchor="middle" x="130" y="-48.5" font-family="Helvetica,sans-Serif" font-size="10.00"> </text>
<polyline fill="none" stroke="black" points="58.5,-41.5 201.5,-41.5 "/>
<text text-anchor="start" x="66.5" y="-29.5" font-family="Helvetica,sans-Serif" font-size="10.00">+ ScreenValueModifier()</text>
<text text-anchor="start" x="66.5" y="-18.5" font-family="Helvetica,sans-Serif" font-size="10.00">+ ~ScreenValueModifier()</text>
<text text-anchor="start" x="66.5" y="-7.5" font-family="Helvetica,sans-Serif" font-size="10.00">+ draw()</text>
</a>
</g>
</g>
<!-- Node2 -->
<g id="node2" class="node">
<title>Node2</title>
<g id="a_node2"><a xlink:href="classIScreen.xhtml" target="_top" xlink:title="Interface class for Screen objects.">
<polygon fill="white" stroke="black" points="0,-155 0,-234 80,-234 80,-155 0,-155"/>
<text text-anchor="middle" x="40" y="-222" font-family="Helvetica,sans-Serif" font-size="10.00">IScreen</text>
<polyline fill="none" stroke="black" points="0,-215 80,-215 "/>
<text text-anchor="middle" x="40" y="-203" font-family="Helvetica,sans-Serif" font-size="10.00"> </text>
<polyline fill="none" stroke="black" points="0,-196 80,-196 "/>
<text text-anchor="start" x="8" y="-184" font-family="Helvetica,sans-Serif" font-size="10.00">+ IScreen()</text>
<text text-anchor="start" x="8" y="-173" font-family="Helvetica,sans-Serif" font-size="10.00">+ ~IScreen()</text>
<text text-anchor="start" x="8" y="-162" font-family="Helvetica,sans-Serif" font-size="10.00">+ draw()</text>
</a>
</g>
</g>
<!-- Node2&#45;&gt;Node1 -->
<g id="edge1" class="edge">
<title>Node2&#45;&gt;Node1</title>
<path fill="none" stroke="midnightblue" d="M68.19,-145.73C80.77,-124.42 95.39,-99.64 107.25,-79.54"/>
<polygon fill="none" stroke="midnightblue" points="65.01,-144.23 62.94,-154.62 71.04,-147.79 65.01,-144.23"/>
</g>
<!-- Node3 -->
<g id="node3" class="node">
<title>Node3</title>
<g id="a_node3"><a xlink:title=" ">
<polygon fill="white" stroke="#bfbfbf" points="98.5,-166 98.5,-223 161.5,-223 161.5,-166 98.5,-166"/>
<text text-anchor="middle" x="130" y="-211" font-family="Helvetica,sans-Serif" font-size="10.00">lv_obj_t *</text>
<polyline fill="none" stroke="#bfbfbf" points="98.5,-204 161.5,-204 "/>
<text text-anchor="middle" x="130" y="-192" font-family="Helvetica,sans-Serif" font-size="10.00"> </text>
<polyline fill="none" stroke="#bfbfbf" points="98.5,-185 161.5,-185 "/>
<text text-anchor="middle" x="130" y="-173" font-family="Helvetica,sans-Serif" font-size="10.00"> </text>
</a>
</g>
</g>
<!-- Node3&#45;&gt;Node1 -->
<g id="edge2" class="edge">
<title>Node3&#45;&gt;Node1</title>
<path fill="none" stroke="#404040" d="M130,-165.88C130,-145.25 130,-116.46 130,-91.73"/>
<polygon fill="none" stroke="#404040" points="130,-91.6 126,-85.6 130,-79.6 134,-85.6 130,-91.6"/>
<text text-anchor="middle" x="157.5" y="-101" font-family="Helvetica,sans-Serif" font-size="10.00"> +_spinbox</text>
</g>
<!-- Node4 -->
<g id="node4" class="node">
<title>Node4</title>
<g id="a_node4"><a xlink:href="structMenuItemValue.xhtml" target="_top" xlink:title="menu item to show double variables and call a modification screen">
<polygon fill="white" stroke="black" points="180,-127.5 180,-261.5 300,-261.5 300,-127.5 180,-127.5"/>
<text text-anchor="middle" x="240" y="-249.5" font-family="Helvetica,sans-Serif" font-size="10.00">MenuItemValue</text>
<polyline fill="none" stroke="black" points="180,-242.5 300,-242.5 "/>
<text text-anchor="middle" x="240" y="-230.5" font-family="Helvetica,sans-Serif" font-size="10.00"> </text>
<polyline fill="none" stroke="black" points="180,-223.5 300,-223.5 "/>
<text text-anchor="start" x="188" y="-211.5" font-family="Helvetica,sans-Serif" font-size="10.00">+ MenuItemValue()</text>
<text text-anchor="start" x="188" y="-200.5" font-family="Helvetica,sans-Serif" font-size="10.00">+ ~MenuItemValue()</text>
<text text-anchor="start" x="188" y="-189.5" font-family="Helvetica,sans-Serif" font-size="10.00">+ getText()</text>
<text text-anchor="start" x="188" y="-178.5" font-family="Helvetica,sans-Serif" font-size="10.00">+ getType()</text>
<text text-anchor="start" x="188" y="-167.5" font-family="Helvetica,sans-Serif" font-size="10.00">+ getPtrDouble()</text>
<text text-anchor="start" x="188" y="-156.5" font-family="Helvetica,sans-Serif" font-size="10.00">+ getDecimals()</text>
<text text-anchor="start" x="188" y="-145.5" font-family="Helvetica,sans-Serif" font-size="10.00">+ getMin()</text>
<text text-anchor="start" x="188" y="-134.5" font-family="Helvetica,sans-Serif" font-size="10.00">+ getMax()</text>
</a>
</g>
</g>
<!-- Node4&#45;&gt;Node1 -->
<g id="edge3" class="edge">
<title>Node4&#45;&gt;Node1</title>
<path fill="none" stroke="#404040" d="M208.18,-127.36C202.31,-117.2 195.85,-107.08 189,-98 186.64,-94.87 184.11,-91.76 181.46,-88.7"/>
<polygon fill="none" stroke="#404040" points="181.34,-88.56 174.34,-86.81 173.27,-79.67 180.27,-81.43 181.34,-88.56"/>
<text text-anchor="middle" x="228.5" y="-101" font-family="Helvetica,sans-Serif" font-size="10.00"> +_menuItem</text>
</g>
<!-- Node5 -->
<g id="node5" class="node">
<title>Node5</title>
<g id="a_node5"><a xlink:href="classIMenuItem.xhtml" target="_top" xlink:title="interface for all menu items">
<polygon fill="white" stroke="black" points="34,-320.5 34,-410.5 130,-410.5 130,-320.5 34,-320.5"/>
<text text-anchor="middle" x="82" y="-398.5" font-family="Helvetica,sans-Serif" font-size="10.00">IMenuItem</text>
<polyline fill="none" stroke="black" points="34,-391.5 130,-391.5 "/>
<text text-anchor="middle" x="82" y="-379.5" font-family="Helvetica,sans-Serif" font-size="10.00"> </text>
<polyline fill="none" stroke="black" points="34,-372.5 130,-372.5 "/>
<text text-anchor="start" x="42" y="-360.5" font-family="Helvetica,sans-Serif" font-size="10.00">+ IMenuItem()</text>
<text text-anchor="start" x="42" y="-349.5" font-family="Helvetica,sans-Serif" font-size="10.00">+ ~IMenuItem()</text>
<text text-anchor="start" x="42" y="-338.5" font-family="Helvetica,sans-Serif" font-size="10.00">+ getText()</text>
<text text-anchor="start" x="42" y="-327.5" font-family="Helvetica,sans-Serif" font-size="10.00">+ getType()</text>
</a>
</g>
</g>
<!-- Node5&#45;&gt;Node4 -->
<g id="edge4" class="edge">
<title>Node5&#45;&gt;Node4</title>
<path fill="none" stroke="midnightblue" d="M130.51,-312.61C146.06,-295.98 163.47,-277.36 179.75,-259.95"/>
<polygon fill="none" stroke="midnightblue" points="127.79,-310.4 123.51,-320.1 132.9,-315.18 127.79,-310.4"/>
</g>
<!-- Node6 -->
<g id="node6" class="node">
<title>Node6</title>
<g id="a_node6"><a xlink:title=" ">
<polygon fill="white" stroke="#bfbfbf" points="148,-337 148,-394 198,-394 198,-337 148,-337"/>
<text text-anchor="middle" x="173" y="-382" font-family="Helvetica,sans-Serif" font-size="10.00">double</text>
<polyline fill="none" stroke="#bfbfbf" points="148,-375 198,-375 "/>
<text text-anchor="middle" x="173" y="-363" font-family="Helvetica,sans-Serif" font-size="10.00"> </text>
<polyline fill="none" stroke="#bfbfbf" points="148,-356 198,-356 "/>
<text text-anchor="middle" x="173" y="-344" font-family="Helvetica,sans-Serif" font-size="10.00"> </text>
</a>
</g>
</g>
<!-- Node6&#45;&gt;Node4 -->
<g id="edge5" class="edge">
<title>Node6&#45;&gt;Node4</title>
<path fill="none" stroke="#404040" d="M179.46,-336.65C183.69,-319.96 189.76,-298.46 197,-280 197.92,-277.67 198.87,-275.31 199.87,-272.94"/>
<polygon fill="none" stroke="#404040" points="199.92,-272.82 198.67,-265.72 204.74,-261.83 205.99,-268.93 199.92,-272.82"/>
<text text-anchor="middle" x="216.5" y="-294" font-family="Helvetica,sans-Serif" font-size="10.00"> #_max</text>
<text text-anchor="middle" x="216.5" y="-283" font-family="Helvetica,sans-Serif" font-size="10.00">#_min</text>
</g>
<!-- Node7 -->
<g id="node7" class="node">
<title>Node7</title>
<g id="a_node7"><a xlink:title=" ">
<polygon fill="white" stroke="#bfbfbf" points="216,-337 216,-394 274,-394 274,-337 216,-337"/>
<text text-anchor="middle" x="245" y="-382" font-family="Helvetica,sans-Serif" font-size="10.00">double *</text>
<polyline fill="none" stroke="#bfbfbf" points="216,-375 274,-375 "/>
<text text-anchor="middle" x="245" y="-363" font-family="Helvetica,sans-Serif" font-size="10.00"> </text>
<polyline fill="none" stroke="#bfbfbf" points="216,-356 274,-356 "/>
<text text-anchor="middle" x="245" y="-344" font-family="Helvetica,sans-Serif" font-size="10.00"> </text>
</a>
</g>
</g>
<!-- Node7&#45;&gt;Node4 -->
<g id="edge6" class="edge">
<title>Node7&#45;&gt;Node4</title>
<path fill="none" stroke="#404040" d="M242.9,-336.83C242.17,-325.97 241.42,-313.41 241,-302 240.66,-292.84 240.42,-283.23 240.25,-273.7"/>
<polygon fill="none" stroke="#404040" points="240.25,-273.7 236.15,-267.76 240.06,-261.7 244.15,-267.64 240.25,-273.7"/>
<text text-anchor="middle" x="273.5" y="-288.5" font-family="Helvetica,sans-Serif" font-size="10.00"> #_ptrDouble</text>
</g>
<!-- Node8 -->
<g id="node8" class="node">
<title>Node8</title>
<g id="a_node8"><a xlink:title=" ">
<polygon fill="white" stroke="#bfbfbf" points="303,-337 303,-394 353,-394 353,-337 303,-337"/>
<text text-anchor="middle" x="328" y="-382" font-family="Helvetica,sans-Serif" font-size="10.00">uint8_t</text>
<polyline fill="none" stroke="#bfbfbf" points="303,-375 353,-375 "/>
<text text-anchor="middle" x="328" y="-363" font-family="Helvetica,sans-Serif" font-size="10.00"> </text>
<polyline fill="none" stroke="#bfbfbf" points="303,-356 353,-356 "/>
<text text-anchor="middle" x="328" y="-344" font-family="Helvetica,sans-Serif" font-size="10.00"> </text>
</a>
</g>
</g>
<!-- Node8&#45;&gt;Node4 -->
<g id="edge7" class="edge">
<title>Node8&#45;&gt;Node4</title>
<path fill="none" stroke="#404040" d="M323.75,-336.86C320.44,-319.85 314.86,-297.94 306,-280 304.71,-277.39 303.34,-274.79 301.89,-272.2"/>
<polygon fill="none" stroke="#404040" points="301.74,-271.95 295.22,-268.86 295.56,-261.66 302.08,-264.75 301.74,-271.95"/>
<text text-anchor="middle" x="344.5" y="-288.5" font-family="Helvetica,sans-Serif" font-size="10.00"> #_decimals</text>
</g>
<!-- Node9 -->
<g id="node9" class="node">
<title>Node9</title>
<g id="a_node9"><a xlink:title=" ">
<polygon fill="white" stroke="#bfbfbf" points="390,-337 390,-394 434,-394 434,-337 390,-337"/>
<text text-anchor="middle" x="412" y="-382" font-family="Helvetica,sans-Serif" font-size="10.00">string</text>
<polyline fill="none" stroke="#bfbfbf" points="390,-375 434,-375 "/>
<text text-anchor="middle" x="412" y="-363" font-family="Helvetica,sans-Serif" font-size="10.00"> </text>
<polyline fill="none" stroke="#bfbfbf" points="390,-356 434,-356 "/>
<text text-anchor="middle" x="412" y="-344" font-family="Helvetica,sans-Serif" font-size="10.00"> </text>
</a>
</g>
</g>
<!-- Node9&#45;&gt;Node4 -->
<g id="edge8" class="edge">
<title>Node9&#45;&gt;Node4</title>
<path fill="none" stroke="#404040" d="M406.02,-336.63C401.1,-318.89 392.67,-296.28 379,-280 360.65,-258.15 335.13,-240.38 310.96,-226.88"/>
<polygon fill="none" stroke="#404040" points="310.91,-226.85 303.73,-227.53 300.34,-221.16 307.52,-220.49 310.91,-226.85"/>
<text text-anchor="middle" x="410.5" y="-288.5" font-family="Helvetica,sans-Serif" font-size="10.00"> #_text</text>
</g>
</g>
</svg>
