<?xml version="1.0" encoding="UTF-8" standalone="no"?>
<!DOCTYPE svg PUBLIC "-//W3C//DTD SVG 1.1//EN"
 "http://www.w3.org/Graphics/SVG/1.1/DTD/svg11.dtd">
<!-- Generated by graphviz version 2.43.0 (0)
 -->
<!-- Title: IScreen Pages: 1 -->
<svg width="274pt" height="215pt"
 viewBox="0.00 0.00 273.50 215.00" xmlns="http://www.w3.org/2000/svg" xmlns:xlink="http://www.w3.org/1999/xlink">
<g id="graph0" class="graph" transform="scale(1 1) rotate(0) translate(4 211)">
<title>IScreen</title>
<polygon fill="white" stroke="transparent" points="-4,4 -4,-211 269.5,-211 269.5,4 -4,4"/>
<!-- Node1 -->
<g id="node1" class="node">
<title>Node1</title>
<g id="a_node1"><a xlink:title="Interface class for Screen objects.">
<polygon fill="#bfbfbf" stroke="black" points="83,-127.5 83,-206.5 163,-206.5 163,-127.5 83,-127.5"/>
<text text-anchor="middle" x="123" y="-194.5" font-family="Helvetica,sans-Serif" font-size="10.00">IScreen</text>
<polyline fill="none" stroke="black" points="83,-187.5 163,-187.5 "/>
<text text-anchor="middle" x="123" y="-175.5" font-family="Helvetica,sans-Serif" font-size="10.00"> </text>
<polyline fill="none" stroke="black" points="83,-168.5 163,-168.5 "/>
<text text-anchor="start" x="91" y="-156.5" font-family="Helvetica,sans-Serif" font-size="10.00">+ IScreen()</text>
<text text-anchor="start" x="91" y="-145.5" font-family="Helvetica,sans-Serif" font-size="10.00">+ ~IScreen()</text>
<text text-anchor="start" x="91" y="-134.5" font-family="Helvetica,sans-Serif" font-size="10.00">+ draw()</text>
</a>
</g>
</g>
<!-- Node2 -->
<g id="node2" class="node">
<title>Node2</title>
<g id="a_node2"><a xlink:href="classScreenMenu.xhtml" target="_top" xlink:title="Screen for menu navigation it receives a list of menu items for it&#39;s topology.">
<polygon fill="white" stroke="black" points="0,-6 0,-85 104,-85 104,-6 0,-6"/>
<text text-anchor="middle" x="52" y="-73" font-family="Helvetica,sans-Serif" font-size="10.00">ScreenMenu</text>
<polyline fill="none" stroke="black" points="0,-66 104,-66 "/>
<text text-anchor="middle" x="52" y="-54" font-family="Helvetica,sans-Serif" font-size="10.00"> </text>
<polyline fill="none" stroke="black" points="0,-47 104,-47 "/>
<text text-anchor="start" x="8" y="-35" font-family="Helvetica,sans-Serif" font-size="10.00">+ ScreenMenu()</text>
<text text-anchor="start" x="8" y="-24" font-family="Helvetica,sans-Serif" font-size="10.00">+ ~ScreenMenu()</text>
<text text-anchor="start" x="8" y="-13" font-family="Helvetica,sans-Serif" font-size="10.00">+ draw()</text>
</a>
</g>
</g>
<!-- Node1&#45;&gt;Node2 -->
<g id="edge1" class="edge">
<title>Node1&#45;&gt;Node2</title>
<path fill="none" stroke="midnightblue" d="M94.76,-118.48C88.18,-107.4 81.25,-95.74 74.94,-85.1"/>
<polygon fill="none" stroke="midnightblue" points="91.83,-120.39 99.95,-127.2 97.85,-116.82 91.83,-120.39"/>
</g>
<!-- Node3 -->
<g id="node3" class="node">
<title>Node3</title>
<g id="a_node3"><a xlink:href="classScreenValueModifier.xhtml" target="_top" xlink:title="Screen for value modification.">
<polygon fill="white" stroke="black" points="122.5,-0.5 122.5,-90.5 265.5,-90.5 265.5,-0.5 122.5,-0.5"/>
<text text-anchor="middle" x="194" y="-78.5" font-family="Helvetica,sans-Serif" font-size="10.00">ScreenValueModifier</text>
<polyline fill="none" stroke="black" points="122.5,-71.5 265.5,-71.5 "/>
<text text-anchor="start" x="130.5" y="-59.5" font-family="Helvetica,sans-Serif" font-size="10.00">+ _menuItem</text>
<text text-anchor="start" x="130.5" y="-48.5" font-family="Helvetica,sans-Serif" font-size="10.00">+ _spinbox</text>
<polyline fill="none" stroke="black" points="122.5,-41.5 265.5,-41.5 "/>
<text text-anchor="start" x="130.5" y="-29.5" font-family="Helvetica,sans-Serif" font-size="10.00">+ ScreenValueModifier()</text>
<text text-anchor="start" x="130.5" y="-18.5" font-family="Helvetica,sans-Serif" font-size="10.00">+ ~ScreenValueModifier()</text>
<text text-anchor="start" x="130.5" y="-7.5" font-family="Helvetica,sans-Serif" font-size="10.00">+ draw()</text>
</a>
</g>
</g>
<!-- Node1&#45;&gt;Node3 -->
<g id="edge2" class="edge">
<title>Node1&#45;&gt;Node3</title>
<path fill="none" stroke="midnightblue" d="M151.16,-118.6C156.59,-109.47 162.25,-99.94 167.61,-90.91"/>
<polygon fill="none" stroke="midnightblue" points="148.15,-116.82 146.05,-127.2 154.17,-120.39 148.15,-116.82"/>
</g>
</g>
</svg>
