<?xml version="1.0" encoding="UTF-8" standalone="no"?>
<!DOCTYPE svg PUBLIC "-//W3C//DTD SVG 1.1//EN"
 "http://www.w3.org/Graphics/SVG/1.1/DTD/svg11.dtd">
<!-- Generated by graphviz version 2.43.0 (0)
 -->
<!-- Title: ScreenMenu Pages: 1 -->
<svg width="258pt" height="204pt"
 viewBox="0.00 0.00 257.50 204.00" xmlns="http://www.w3.org/2000/svg" xmlns:xlink="http://www.w3.org/1999/xlink">
<g id="graph0" class="graph" transform="scale(1 1) rotate(0) translate(4 200)">
<title>ScreenMenu</title>
<polygon fill="white" stroke="transparent" points="-4,4 -4,-200 253.5,-200 253.5,4 -4,4"/>
<!-- Node1 -->
<g id="node1" class="node">
<title>Node1</title>
<g id="a_node1"><a xlink:title="Screen for menu navigation it receives a list of menu items for it&#39;s topology.">
<polygon fill="#bfbfbf" stroke="black" points="55,-0.5 55,-79.5 159,-79.5 159,-0.5 55,-0.5"/>
<text text-anchor="middle" x="107" y="-67.5" font-family="Helvetica,sans-Serif" font-size="10.00">ScreenMenu</text>
<polyline fill="none" stroke="black" points="55,-60.5 159,-60.5 "/>
<text text-anchor="middle" x="107" y="-48.5" font-family="Helvetica,sans-Serif" font-size="10.00"> </text>
<polyline fill="none" stroke="black" points="55,-41.5 159,-41.5 "/>
<text text-anchor="start" x="63" y="-29.5" font-family="Helvetica,sans-Serif" font-size="10.00">+ ScreenMenu()</text>
<text text-anchor="start" x="63" y="-18.5" font-family="Helvetica,sans-Serif" font-size="10.00">+ ~ScreenMenu()</text>
<text text-anchor="start" x="63" y="-7.5" font-family="Helvetica,sans-Serif" font-size="10.00">+ draw()</text>
</a>
</g>
</g>
<!-- Node2 -->
<g id="node2" class="node">
<title>Node2</title>
<g id="a_node2"><a xlink:href="classIScreen.xhtml" target="_top" xlink:title="Interface class for Screen objects.">
<polygon fill="white" stroke="black" points="0,-116.5 0,-195.5 80,-195.5 80,-116.5 0,-116.5"/>
<text text-anchor="middle" x="40" y="-183.5" font-family="Helvetica,sans-Serif" font-size="10.00">IScreen</text>
<polyline fill="none" stroke="black" points="0,-176.5 80,-176.5 "/>
<text text-anchor="middle" x="40" y="-164.5" font-family="Helvetica,sans-Serif" font-size="10.00"> </text>
<polyline fill="none" stroke="black" points="0,-157.5 80,-157.5 "/>
<text text-anchor="start" x="8" y="-145.5" font-family="Helvetica,sans-Serif" font-size="10.00">+ IScreen()</text>
<text text-anchor="start" x="8" y="-134.5" font-family="Helvetica,sans-Serif" font-size="10.00">+ ~IScreen()</text>
<text text-anchor="start" x="8" y="-123.5" font-family="Helvetica,sans-Serif" font-size="10.00">+ draw()</text>
</a>
</g>
</g>
<!-- Node2&#45;&gt;Node1 -->
<g id="edge1" class="edge">
<title>Node2&#45;&gt;Node1</title>
<path fill="none" stroke="midnightblue" d="M67.86,-107.59C73.35,-98.25 79.05,-88.56 84.34,-79.56"/>
<polygon fill="none" stroke="midnightblue" points="64.73,-106.01 62.68,-116.4 70.77,-109.56 64.73,-106.01"/>
</g>
<!-- Node3 -->
<g id="node3" class="node">
<title>Node3</title>
<g id="a_node3"><a xlink:title=" ">
<polygon fill="white" stroke="#bfbfbf" points="98.5,-122 98.5,-190 249.5,-190 249.5,-122 98.5,-122"/>
<text text-anchor="start" x="106.5" y="-178" font-family="Helvetica,sans-Serif" font-size="10.00">std::enable_shared</text>
<text text-anchor="middle" x="174" y="-167" font-family="Helvetica,sans-Serif" font-size="10.00">_from_this&lt; ScreenMenu &gt;</text>
<polyline fill="none" stroke="#bfbfbf" points="98.5,-160 249.5,-160 "/>
<text text-anchor="middle" x="174" y="-148" font-family="Helvetica,sans-Serif" font-size="10.00"> </text>
<polyline fill="none" stroke="#bfbfbf" points="98.5,-141 249.5,-141 "/>
<text text-anchor="middle" x="174" y="-129" font-family="Helvetica,sans-Serif" font-size="10.00"> </text>
</a>
</g>
</g>
<!-- Node3&#45;&gt;Node1 -->
<g id="edge2" class="edge">
<title>Node3&#45;&gt;Node1</title>
<path fill="none" stroke="#8b1a1a" d="M149.22,-112.84C142.85,-102 136.03,-90.4 129.77,-79.75"/>
<polygon fill="none" stroke="#8b1a1a" points="146.36,-114.87 154.44,-121.72 152.39,-111.33 146.36,-114.87"/>
</g>
</g>
</svg>
