<?xml version="1.0" encoding="UTF-8" standalone="no"?>
<!DOCTYPE svg PUBLIC "-//W3C//DTD SVG 1.1//EN"
 "http://www.w3.org/Graphics/SVG/1.1/DTD/svg11.dtd">
<!-- Generated by graphviz version 2.43.0 (0)
 -->
<!-- Title: lib/3rd_party_adapters/LVGL/Display.hpp Pages: 1 -->
<svg width="505pt" height="263pt"
 viewBox="0.00 0.00 505.00 263.00" xmlns="http://www.w3.org/2000/svg" xmlns:xlink="http://www.w3.org/1999/xlink">
<g id="graph0" class="graph" transform="scale(1 1) rotate(0) translate(4 259)">
<title>lib/3rd_party_adapters/LVGL/Display.hpp</title>
<polygon fill="white" stroke="transparent" points="-4,4 -4,-259 501,-259 501,4 -4,4"/>
<!-- Node1 -->
<g id="node1" class="node">
<title>Node1</title>
<g id="a_node1"><a xlink:title=" ">
<polygon fill="#bfbfbf" stroke="black" points="128.5,-224.5 128.5,-254.5 254.5,-254.5 254.5,-224.5 128.5,-224.5"/>
<text text-anchor="start" x="136.5" y="-242.5" font-family="Helvetica,sans-Serif" font-size="10.00">lib/3rd_party_adapters</text>
<text text-anchor="middle" x="191.5" y="-231.5" font-family="Helvetica,sans-Serif" font-size="10.00">/LVGL/Display.hpp</text>
</a>
</g>
</g>
<!-- Node2 -->
<g id="node2" class="node">
<title>Node2</title>
<g id="a_node2"><a xlink:title=" ">
<polygon fill="white" stroke="#bfbfbf" points="0,-168.5 0,-187.5 113,-187.5 113,-168.5 0,-168.5"/>
<text text-anchor="middle" x="56.5" y="-175.5" font-family="Helvetica,sans-Serif" font-size="10.00">Adafruit_SSD1306.h</text>
</a>
</g>
</g>
<!-- Node1&#45;&gt;Node2 -->
<g id="edge1" class="edge">
<title>Node1&#45;&gt;Node2</title>
<path fill="none" stroke="midnightblue" d="M159.51,-224.4C137.06,-214.51 107.29,-201.38 85.52,-191.79"/>
<polygon fill="midnightblue" stroke="midnightblue" points="86.71,-188.49 76.14,-187.66 83.88,-194.89 86.71,-188.49"/>
</g>
<!-- Node3 -->
<g id="node3" class="node">
<title>Node3</title>
<g id="a_node3"><a xlink:title=" ">
<polygon fill="white" stroke="#bfbfbf" points="135.5,-56.5 135.5,-75.5 185.5,-75.5 185.5,-56.5 135.5,-56.5"/>
<text text-anchor="middle" x="160.5" y="-63.5" font-family="Helvetica,sans-Serif" font-size="10.00">cstdint</text>
</a>
</g>
</g>
<!-- Node1&#45;&gt;Node3 -->
<g id="edge2" class="edge">
<title>Node1&#45;&gt;Node3</title>
<path fill="none" stroke="midnightblue" d="M179.96,-224.49C172.81,-214.88 164.3,-201.46 160.5,-188 150.59,-152.92 154.12,-109.81 157.41,-85.66"/>
<polygon fill="midnightblue" stroke="midnightblue" points="160.88,-86.14 158.91,-75.73 153.96,-85.1 160.88,-86.14"/>
</g>
<!-- Node4 -->
<g id="node4" class="node">
<title>Node4</title>
<g id="a_node4"><a xlink:title=" ">
<polygon fill="white" stroke="#bfbfbf" points="169.5,-168.5 169.5,-187.5 213.5,-187.5 213.5,-168.5 169.5,-168.5"/>
<text text-anchor="middle" x="191.5" y="-175.5" font-family="Helvetica,sans-Serif" font-size="10.00">lvgl.h</text>
</a>
</g>
</g>
<!-- Node1&#45;&gt;Node4 -->
<g id="edge3" class="edge">
<title>Node1&#45;&gt;Node4</title>
<path fill="none" stroke="midnightblue" d="M191.5,-224.4C191.5,-216.47 191.5,-206.46 191.5,-197.86"/>
<polygon fill="midnightblue" stroke="midnightblue" points="195,-197.66 191.5,-187.66 188,-197.66 195,-197.66"/>
</g>
<!-- Node5 -->
<g id="node5" class="node">
<title>Node5</title>
<g id="a_node5"><a xlink:title=" ">
<polygon fill="white" stroke="#bfbfbf" points="231.5,-168.5 231.5,-187.5 289.5,-187.5 289.5,-168.5 231.5,-168.5"/>
<text text-anchor="middle" x="260.5" y="-175.5" font-family="Helvetica,sans-Serif" font-size="10.00">memory</text>
</a>
</g>
</g>
<!-- Node1&#45;&gt;Node5 -->
<g id="edge4" class="edge">
<title>Node1&#45;&gt;Node5</title>
<path fill="none" stroke="midnightblue" d="M207.85,-224.4C218.4,-215.31 232.1,-203.49 242.88,-194.19"/>
<polygon fill="midnightblue" stroke="midnightblue" points="245.17,-196.84 250.46,-187.66 240.6,-191.54 245.17,-196.84"/>
</g>
<!-- Node6 -->
<g id="node6" class="node">
<title>Node6</title>
<g id="a_node6"><a xlink:href="IDisplay_8hpp.xhtml" target="_top" xlink:title=" ">
<polygon fill="white" stroke="black" points="307.5,-168.5 307.5,-187.5 465.5,-187.5 465.5,-168.5 307.5,-168.5"/>
<text text-anchor="middle" x="386.5" y="-175.5" font-family="Helvetica,sans-Serif" font-size="10.00">user_interaction/IDisplay.hpp</text>
</a>
</g>
</g>
<!-- Node1&#45;&gt;Node6 -->
<g id="edge5" class="edge">
<title>Node1&#45;&gt;Node6</title>
<path fill="none" stroke="midnightblue" d="M237.71,-224.4C271.55,-214.07 316.92,-200.23 348.63,-190.56"/>
<polygon fill="midnightblue" stroke="midnightblue" points="349.87,-193.84 358.41,-187.57 347.82,-187.14 349.87,-193.84"/>
</g>
<!-- Node7 -->
<g id="node7" class="node">
<title>Node7</title>
<g id="a_node7"><a xlink:href="MenuItem_8hpp.xhtml" target="_top" xlink:title=" ">
<polygon fill="white" stroke="black" points="192,-112.5 192,-131.5 279,-131.5 279,-112.5 192,-112.5"/>
<text text-anchor="middle" x="235.5" y="-119.5" font-family="Helvetica,sans-Serif" font-size="10.00">MenuItem.hpp</text>
</a>
</g>
</g>
<!-- Node6&#45;&gt;Node7 -->
<g id="edge6" class="edge">
<title>Node6&#45;&gt;Node7</title>
<path fill="none" stroke="midnightblue" d="M362.57,-168.44C337.28,-159.4 297.2,-145.06 268.82,-134.92"/>
<polygon fill="midnightblue" stroke="midnightblue" points="269.91,-131.59 259.31,-131.52 267.55,-138.18 269.91,-131.59"/>
</g>
<!-- Node10 -->
<g id="node10" class="node">
<title>Node10</title>
<g id="a_node10"><a xlink:href="IKeypad_8hpp.xhtml" target="_top" xlink:title=" ">
<polygon fill="white" stroke="black" points="307.5,-112.5 307.5,-131.5 465.5,-131.5 465.5,-112.5 307.5,-112.5"/>
<text text-anchor="middle" x="386.5" y="-119.5" font-family="Helvetica,sans-Serif" font-size="10.00">user_interaction/IKeypad.hpp</text>
</a>
</g>
</g>
<!-- Node6&#45;&gt;Node10 -->
<g id="edge10" class="edge">
<title>Node6&#45;&gt;Node10</title>
<path fill="none" stroke="midnightblue" d="M386.5,-168.08C386.5,-161.01 386.5,-150.86 386.5,-141.99"/>
<polygon fill="midnightblue" stroke="midnightblue" points="390,-141.75 386.5,-131.75 383,-141.75 390,-141.75"/>
</g>
<!-- Node7&#45;&gt;Node3 -->
<g id="edge7" class="edge">
<title>Node7&#45;&gt;Node3</title>
<path fill="none" stroke="midnightblue" d="M223.45,-112.32C212.04,-104.11 194.67,-91.6 181.07,-81.81"/>
<polygon fill="midnightblue" stroke="midnightblue" points="182.93,-78.84 172.77,-75.83 178.84,-84.52 182.93,-78.84"/>
</g>
<!-- Node8 -->
<g id="node8" class="node">
<title>Node8</title>
<g id="a_node8"><a xlink:title=" ">
<polygon fill="white" stroke="#bfbfbf" points="208.5,-56.5 208.5,-75.5 252.5,-75.5 252.5,-56.5 208.5,-56.5"/>
<text text-anchor="middle" x="230.5" y="-63.5" font-family="Helvetica,sans-Serif" font-size="10.00">string</text>
</a>
</g>
</g>
<!-- Node7&#45;&gt;Node8 -->
<g id="edge8" class="edge">
<title>Node7&#45;&gt;Node8</title>
<path fill="none" stroke="midnightblue" d="M234.67,-112.08C234.02,-105.01 233.08,-94.86 232.26,-85.99"/>
<polygon fill="midnightblue" stroke="midnightblue" points="235.72,-85.39 231.31,-75.75 228.75,-86.03 235.72,-85.39"/>
</g>
<!-- Node9 -->
<g id="node9" class="node">
<title>Node9</title>
<g id="a_node9"><a xlink:title=" ">
<polygon fill="white" stroke="#bfbfbf" points="271,-56.5 271,-75.5 318,-75.5 318,-56.5 271,-56.5"/>
<text text-anchor="middle" x="294.5" y="-63.5" font-family="Helvetica,sans-Serif" font-size="10.00">vector</text>
</a>
</g>
</g>
<!-- Node7&#45;&gt;Node9 -->
<g id="edge9" class="edge">
<title>Node7&#45;&gt;Node9</title>
<path fill="none" stroke="midnightblue" d="M244.98,-112.32C253.7,-104.34 266.84,-92.31 277.4,-82.65"/>
<polygon fill="midnightblue" stroke="midnightblue" points="279.83,-85.17 284.85,-75.83 275.11,-80 279.83,-85.17"/>
</g>
<!-- Node11 -->
<g id="node11" class="node">
<title>Node11</title>
<g id="a_node11"><a xlink:href="KeyIds_8hpp.xhtml" target="_top" xlink:title=" ">
<polygon fill="white" stroke="black" points="343.5,-56.5 343.5,-75.5 413.5,-75.5 413.5,-56.5 343.5,-56.5"/>
<text text-anchor="middle" x="378.5" y="-63.5" font-family="Helvetica,sans-Serif" font-size="10.00">KeyIds.hpp</text>
</a>
</g>
</g>
<!-- Node10&#45;&gt;Node11 -->
<g id="edge11" class="edge">
<title>Node10&#45;&gt;Node11</title>
<path fill="none" stroke="midnightblue" d="M385.18,-112.08C384.12,-104.93 382.59,-94.64 381.27,-85.69"/>
<polygon fill="midnightblue" stroke="midnightblue" points="384.72,-85.13 379.8,-75.75 377.8,-86.16 384.72,-85.13"/>
</g>
<!-- Node13 -->
<g id="node13" class="node">
<title>Node13</title>
<g id="a_node13"><a xlink:title=" ">
<polygon fill="white" stroke="#bfbfbf" points="432,-56.5 432,-75.5 497,-75.5 497,-56.5 432,-56.5"/>
<text text-anchor="middle" x="464.5" y="-63.5" font-family="Helvetica,sans-Serif" font-size="10.00">functional</text>
</a>
</g>
</g>
<!-- Node10&#45;&gt;Node13 -->
<g id="edge13" class="edge">
<title>Node10&#45;&gt;Node13</title>
<path fill="none" stroke="midnightblue" d="M399.03,-112.32C411.09,-103.98 429.53,-91.21 443.77,-81.35"/>
<polygon fill="midnightblue" stroke="midnightblue" points="445.77,-84.22 452,-75.65 441.78,-78.47 445.77,-84.22"/>
</g>
<!-- Node12 -->
<g id="node12" class="node">
<title>Node12</title>
<g id="a_node12"><a xlink:title=" ">
<polygon fill="white" stroke="#bfbfbf" points="350,-0.5 350,-19.5 407,-19.5 407,-0.5 350,-0.5"/>
<text text-anchor="middle" x="378.5" y="-7.5" font-family="Helvetica,sans-Serif" font-size="10.00">ostream</text>
</a>
</g>
</g>
<!-- Node11&#45;&gt;Node12 -->
<g id="edge12" class="edge">
<title>Node11&#45;&gt;Node12</title>
<path fill="none" stroke="midnightblue" d="M378.5,-56.08C378.5,-49.01 378.5,-38.86 378.5,-29.99"/>
<polygon fill="midnightblue" stroke="midnightblue" points="382,-29.75 378.5,-19.75 375,-29.75 382,-29.75"/>
</g>
</g>
</svg>
