<?xml version="1.0" encoding="UTF-8" standalone="no"?>
<!DOCTYPE svg PUBLIC "-//W3C//DTD SVG 1.1//EN"
 "http://www.w3.org/Graphics/SVG/1.1/DTD/svg11.dtd">
<!-- Generated by graphviz version 2.43.0 (0)
 -->
<!-- Title: lib/3rd_party_adapters/LVGL/Display.hpp Pages: 1 -->
<svg width="598pt" height="263pt"
 viewBox="0.00 0.00 598.00 263.00" xmlns="http://www.w3.org/2000/svg" xmlns:xlink="http://www.w3.org/1999/xlink">
<g id="graph0" class="graph" transform="scale(1 1) rotate(0) translate(4 259)">
<title>lib/3rd_party_adapters/LVGL/Display.hpp</title>
<polygon fill="white" stroke="transparent" points="-4,4 -4,-259 594,-259 594,4 -4,4"/>
<!-- Node1 -->
<g id="node1" class="node">
<title>Node1</title>
<g id="a_node1"><a xlink:title=" ">
<polygon fill="#bfbfbf" stroke="black" points="158.5,-224.5 158.5,-254.5 284.5,-254.5 284.5,-224.5 158.5,-224.5"/>
<text text-anchor="start" x="166.5" y="-242.5" font-family="Helvetica,sans-Serif" font-size="10.00">lib/3rd_party_adapters</text>
<text text-anchor="middle" x="221.5" y="-231.5" font-family="Helvetica,sans-Serif" font-size="10.00">/LVGL/Display.hpp</text>
</a>
</g>
</g>
<!-- Node2 -->
<g id="node2" class="node">
<title>Node2</title>
<g id="a_node2"><a xlink:title=" ">
<polygon fill="white" stroke="#bfbfbf" points="0,-168.5 0,-187.5 113,-187.5 113,-168.5 0,-168.5"/>
<text text-anchor="middle" x="56.5" y="-175.5" font-family="Helvetica,sans-Serif" font-size="10.00">Adafruit_SSD1306.h</text>
</a>
</g>
</g>
<!-- Node1&#45;&gt;Node2 -->
<g id="edge1" class="edge">
<title>Node1&#45;&gt;Node2</title>
<path fill="none" stroke="midnightblue" d="M182.4,-224.4C154.34,-214.28 116.93,-200.79 90.19,-191.15"/>
<polygon fill="midnightblue" stroke="midnightblue" points="91.1,-187.76 80.51,-187.66 88.73,-194.34 91.1,-187.76"/>
</g>
<!-- Node3 -->
<g id="node3" class="node">
<title>Node3</title>
<g id="a_node3"><a xlink:title=" ">
<polygon fill="white" stroke="#bfbfbf" points="131.5,-168.5 131.5,-187.5 181.5,-187.5 181.5,-168.5 131.5,-168.5"/>
<text text-anchor="middle" x="156.5" y="-175.5" font-family="Helvetica,sans-Serif" font-size="10.00">cstdint</text>
</a>
</g>
</g>
<!-- Node1&#45;&gt;Node3 -->
<g id="edge2" class="edge">
<title>Node1&#45;&gt;Node3</title>
<path fill="none" stroke="midnightblue" d="M206.1,-224.4C196.26,-215.4 183.51,-203.72 173.39,-194.47"/>
<polygon fill="midnightblue" stroke="midnightblue" points="175.7,-191.83 165.96,-187.66 170.97,-196.99 175.7,-191.83"/>
</g>
<!-- Node4 -->
<g id="node4" class="node">
<title>Node4</title>
<g id="a_node4"><a xlink:title=" ">
<polygon fill="white" stroke="#bfbfbf" points="199.5,-168.5 199.5,-187.5 243.5,-187.5 243.5,-168.5 199.5,-168.5"/>
<text text-anchor="middle" x="221.5" y="-175.5" font-family="Helvetica,sans-Serif" font-size="10.00">lvgl.h</text>
</a>
</g>
</g>
<!-- Node1&#45;&gt;Node4 -->
<g id="edge3" class="edge">
<title>Node1&#45;&gt;Node4</title>
<path fill="none" stroke="midnightblue" d="M221.5,-224.4C221.5,-216.47 221.5,-206.46 221.5,-197.86"/>
<polygon fill="midnightblue" stroke="midnightblue" points="225,-197.66 221.5,-187.66 218,-197.66 225,-197.66"/>
</g>
<!-- Node5 -->
<g id="node5" class="node">
<title>Node5</title>
<g id="a_node5"><a xlink:title=" ">
<polygon fill="white" stroke="#bfbfbf" points="261.5,-168.5 261.5,-187.5 319.5,-187.5 319.5,-168.5 261.5,-168.5"/>
<text text-anchor="middle" x="290.5" y="-175.5" font-family="Helvetica,sans-Serif" font-size="10.00">memory</text>
</a>
</g>
</g>
<!-- Node1&#45;&gt;Node5 -->
<g id="edge4" class="edge">
<title>Node1&#45;&gt;Node5</title>
<path fill="none" stroke="midnightblue" d="M237.85,-224.4C248.4,-215.31 262.1,-203.49 272.88,-194.19"/>
<polygon fill="midnightblue" stroke="midnightblue" points="275.17,-196.84 280.46,-187.66 270.6,-191.54 275.17,-196.84"/>
</g>
<!-- Node6 -->
<g id="node6" class="node">
<title>Node6</title>
<g id="a_node6"><a xlink:href="IDisplay_8hpp.xhtml" target="_top" xlink:title=" ">
<polygon fill="white" stroke="black" points="337.5,-168.5 337.5,-187.5 495.5,-187.5 495.5,-168.5 337.5,-168.5"/>
<text text-anchor="middle" x="416.5" y="-175.5" font-family="Helvetica,sans-Serif" font-size="10.00">user_interaction/IDisplay.hpp</text>
</a>
</g>
</g>
<!-- Node1&#45;&gt;Node6 -->
<g id="edge5" class="edge">
<title>Node1&#45;&gt;Node6</title>
<path fill="none" stroke="midnightblue" d="M267.71,-224.4C301.55,-214.07 346.92,-200.23 378.63,-190.56"/>
<polygon fill="midnightblue" stroke="midnightblue" points="379.87,-193.84 388.41,-187.57 377.82,-187.14 379.87,-193.84"/>
</g>
<!-- Node7 -->
<g id="node7" class="node">
<title>Node7</title>
<g id="a_node7"><a xlink:href="MenuItem_8hpp.xhtml" target="_top" xlink:title=" ">
<polygon fill="white" stroke="black" points="303,-112.5 303,-131.5 390,-131.5 390,-112.5 303,-112.5"/>
<text text-anchor="middle" x="346.5" y="-119.5" font-family="Helvetica,sans-Serif" font-size="10.00">MenuItem.hpp</text>
</a>
</g>
</g>
<!-- Node6&#45;&gt;Node7 -->
<g id="edge6" class="edge">
<title>Node6&#45;&gt;Node7</title>
<path fill="none" stroke="midnightblue" d="M405.25,-168.32C394.7,-160.18 378.7,-147.84 366.06,-138.09"/>
<polygon fill="midnightblue" stroke="midnightblue" points="368.01,-135.17 357.95,-131.83 363.73,-140.71 368.01,-135.17"/>
</g>
<!-- Node10 -->
<g id="node10" class="node">
<title>Node10</title>
<g id="a_node10"><a xlink:href="IKeypad_8hpp.xhtml" target="_top" xlink:title=" ">
<polygon fill="white" stroke="black" points="408.5,-112.5 408.5,-131.5 566.5,-131.5 566.5,-112.5 408.5,-112.5"/>
<text text-anchor="middle" x="487.5" y="-119.5" font-family="Helvetica,sans-Serif" font-size="10.00">user_interaction/IKeypad.hpp</text>
</a>
</g>
</g>
<!-- Node6&#45;&gt;Node10 -->
<g id="edge9" class="edge">
<title>Node6&#45;&gt;Node10</title>
<path fill="none" stroke="midnightblue" d="M427.91,-168.32C438.61,-160.18 454.84,-147.84 467.66,-138.09"/>
<polygon fill="midnightblue" stroke="midnightblue" points="470.04,-140.67 475.89,-131.83 465.81,-135.1 470.04,-140.67"/>
</g>
<!-- Node8 -->
<g id="node8" class="node">
<title>Node8</title>
<g id="a_node8"><a xlink:title=" ">
<polygon fill="white" stroke="#bfbfbf" points="276.5,-56.5 276.5,-75.5 320.5,-75.5 320.5,-56.5 276.5,-56.5"/>
<text text-anchor="middle" x="298.5" y="-63.5" font-family="Helvetica,sans-Serif" font-size="10.00">string</text>
</a>
</g>
</g>
<!-- Node7&#45;&gt;Node8 -->
<g id="edge7" class="edge">
<title>Node7&#45;&gt;Node8</title>
<path fill="none" stroke="midnightblue" d="M338.57,-112.08C331.65,-104.3 321.43,-92.8 313.05,-83.37"/>
<polygon fill="midnightblue" stroke="midnightblue" points="315.54,-80.9 306.28,-75.75 310.31,-85.55 315.54,-80.9"/>
</g>
<!-- Node9 -->
<g id="node9" class="node">
<title>Node9</title>
<g id="a_node9"><a xlink:title=" ">
<polygon fill="white" stroke="#bfbfbf" points="339,-56.5 339,-75.5 386,-75.5 386,-56.5 339,-56.5"/>
<text text-anchor="middle" x="362.5" y="-63.5" font-family="Helvetica,sans-Serif" font-size="10.00">vector</text>
</a>
</g>
</g>
<!-- Node7&#45;&gt;Node9 -->
<g id="edge8" class="edge">
<title>Node7&#45;&gt;Node9</title>
<path fill="none" stroke="midnightblue" d="M349.14,-112.08C351.29,-104.85 354.38,-94.41 357.05,-85.4"/>
<polygon fill="midnightblue" stroke="midnightblue" points="360.42,-86.33 359.91,-75.75 353.71,-84.34 360.42,-86.33"/>
</g>
<!-- Node11 -->
<g id="node11" class="node">
<title>Node11</title>
<g id="a_node11"><a xlink:href="KeyIds_8hpp.xhtml" target="_top" xlink:title=" ">
<polygon fill="white" stroke="black" points="436.5,-56.5 436.5,-75.5 506.5,-75.5 506.5,-56.5 436.5,-56.5"/>
<text text-anchor="middle" x="471.5" y="-63.5" font-family="Helvetica,sans-Serif" font-size="10.00">KeyIds.hpp</text>
</a>
</g>
</g>
<!-- Node10&#45;&gt;Node11 -->
<g id="edge10" class="edge">
<title>Node10&#45;&gt;Node11</title>
<path fill="none" stroke="midnightblue" d="M484.86,-112.08C482.71,-104.85 479.62,-94.41 476.95,-85.4"/>
<polygon fill="midnightblue" stroke="midnightblue" points="480.29,-84.34 474.09,-75.75 473.58,-86.33 480.29,-84.34"/>
</g>
<!-- Node13 -->
<g id="node13" class="node">
<title>Node13</title>
<g id="a_node13"><a xlink:title=" ">
<polygon fill="white" stroke="#bfbfbf" points="525,-56.5 525,-75.5 590,-75.5 590,-56.5 525,-56.5"/>
<text text-anchor="middle" x="557.5" y="-63.5" font-family="Helvetica,sans-Serif" font-size="10.00">functional</text>
</a>
</g>
</g>
<!-- Node10&#45;&gt;Node13 -->
<g id="edge12" class="edge">
<title>Node10&#45;&gt;Node13</title>
<path fill="none" stroke="midnightblue" d="M498.75,-112.32C509.3,-104.18 525.3,-91.84 537.94,-82.09"/>
<polygon fill="midnightblue" stroke="midnightblue" points="540.27,-84.71 546.05,-75.83 535.99,-79.17 540.27,-84.71"/>
</g>
<!-- Node12 -->
<g id="node12" class="node">
<title>Node12</title>
<g id="a_node12"><a xlink:title=" ">
<polygon fill="white" stroke="#bfbfbf" points="443,-0.5 443,-19.5 500,-19.5 500,-0.5 443,-0.5"/>
<text text-anchor="middle" x="471.5" y="-7.5" font-family="Helvetica,sans-Serif" font-size="10.00">ostream</text>
</a>
</g>
</g>
<!-- Node11&#45;&gt;Node12 -->
<g id="edge11" class="edge">
<title>Node11&#45;&gt;Node12</title>
<path fill="none" stroke="midnightblue" d="M471.5,-56.08C471.5,-49.01 471.5,-38.86 471.5,-29.99"/>
<polygon fill="midnightblue" stroke="midnightblue" points="475,-29.75 471.5,-19.75 468,-29.75 475,-29.75"/>
</g>
</g>
</svg>
