<?xml version="1.0" encoding="UTF-8" standalone="no"?>
<!DOCTYPE svg PUBLIC "-//W3C//DTD SVG 1.1//EN"
 "http://www.w3.org/Graphics/SVG/1.1/DTD/svg11.dtd">
<!-- Generated by graphviz version 2.43.0 (0)
 -->
<!-- Title: lib/3rd_party_adapters/LVGL/display_factory_interface.cpp Pages: 1 -->
<svg width="586pt" height="341pt"
 viewBox="0.00 0.00 586.14 341.00" xmlns="http://www.w3.org/2000/svg" xmlns:xlink="http://www.w3.org/1999/xlink">
<g id="graph0" class="graph" transform="scale(1 1) rotate(0) translate(4 337)">
<title>lib/3rd_party_adapters/LVGL/display_factory_interface.cpp</title>
<polygon fill="white" stroke="transparent" points="-4,4 -4,-337 582.14,-337 582.14,4 -4,4"/>
<!-- Node1 -->
<g id="node1" class="node">
<title>Node1</title>
<g id="a_node1"><a xlink:title=" ">
<polygon fill="#bfbfbf" stroke="black" points="272.64,-291.5 272.64,-332.5 398.64,-332.5 398.64,-291.5 272.64,-291.5"/>
<text text-anchor="start" x="280.64" y="-320.5" font-family="Helvetica,sans-Serif" font-size="10.00">lib/3rd_party_adapters</text>
<text text-anchor="start" x="280.64" y="-309.5" font-family="Helvetica,sans-Serif" font-size="10.00">/LVGL/display_factory</text>
<text text-anchor="middle" x="335.64" y="-298.5" font-family="Helvetica,sans-Serif" font-size="10.00">_interface.cpp</text>
</a>
</g>
</g>
<!-- Node2 -->
<g id="node2" class="node">
<title>Node2</title>
<g id="a_node2"><a xlink:href="Display_8hpp.xhtml" target="_top" xlink:title=" ">
<polygon fill="white" stroke="black" points="123.14,-230 123.14,-249 196.14,-249 196.14,-230 123.14,-230"/>
<text text-anchor="middle" x="159.64" y="-237" font-family="Helvetica,sans-Serif" font-size="10.00">Display.hpp</text>
</a>
</g>
</g>
<!-- Node1&#45;&gt;Node2 -->
<g id="edge1" class="edge">
<title>Node1&#45;&gt;Node2</title>
<path fill="none" stroke="midnightblue" d="M286.61,-291.36C255.95,-279.08 217.37,-263.63 190.83,-252.99"/>
<polygon fill="midnightblue" stroke="midnightblue" points="191.87,-249.64 181.29,-249.17 189.27,-256.14 191.87,-249.64"/>
</g>
<!-- Node15 -->
<g id="node15" class="node">
<title>Node15</title>
<g id="a_node15"><a xlink:title=" ">
<polygon fill="white" stroke="#bfbfbf" points="487.14,-230 487.14,-249 550.14,-249 550.14,-230 487.14,-230"/>
<text text-anchor="middle" x="518.64" y="-237" font-family="Helvetica,sans-Serif" font-size="10.00">Arduino.h</text>
</a>
</g>
</g>
<!-- Node1&#45;&gt;Node15 -->
<g id="edge15" class="edge">
<title>Node1&#45;&gt;Node15</title>
<path fill="none" stroke="midnightblue" d="M386.61,-291.36C418.64,-279.02 458.96,-263.49 486.57,-252.85"/>
<polygon fill="midnightblue" stroke="midnightblue" points="488.05,-256.03 496.12,-249.17 485.53,-249.5 488.05,-256.03"/>
</g>
<!-- Node16 -->
<g id="node16" class="node">
<title>Node16</title>
<g id="a_node16"><a xlink:href="board__pins_8hpp.xhtml" target="_top" xlink:title="Provides named objects for the pins provided by the board.">
<polygon fill="white" stroke="black" points="225.14,-230 225.14,-249 316.14,-249 316.14,-230 225.14,-230"/>
<text text-anchor="middle" x="270.64" y="-237" font-family="Helvetica,sans-Serif" font-size="10.00">board_pins.hpp</text>
</a>
</g>
</g>
<!-- Node1&#45;&gt;Node16 -->
<g id="edge16" class="edge">
<title>Node1&#45;&gt;Node16</title>
<path fill="none" stroke="midnightblue" d="M317.53,-291.36C307.45,-280.43 295.06,-266.99 285.55,-256.67"/>
<polygon fill="midnightblue" stroke="midnightblue" points="287.98,-254.15 278.63,-249.17 282.84,-258.9 287.98,-254.15"/>
</g>
<!-- Node18 -->
<g id="node18" class="node">
<title>Node18</title>
<g id="a_node18"><a xlink:href="display__factory__interface_8hpp.xhtml" target="_top" xlink:title="Dependency injection for the display.">
<polygon fill="white" stroke="black" points="334.64,-224.5 334.64,-254.5 468.64,-254.5 468.64,-224.5 334.64,-224.5"/>
<text text-anchor="start" x="342.64" y="-242.5" font-family="Helvetica,sans-Serif" font-size="10.00">user_interaction/display</text>
<text text-anchor="middle" x="401.64" y="-231.5" font-family="Helvetica,sans-Serif" font-size="10.00">_factory_interface.hpp</text>
</a>
</g>
</g>
<!-- Node1&#45;&gt;Node18 -->
<g id="edge19" class="edge">
<title>Node1&#45;&gt;Node18</title>
<path fill="none" stroke="midnightblue" d="M354.02,-291.36C362.48,-282.32 372.55,-271.57 381.25,-262.28"/>
<polygon fill="midnightblue" stroke="midnightblue" points="383.88,-264.58 388.16,-254.89 378.77,-259.8 383.88,-264.58"/>
</g>
<!-- Node3 -->
<g id="node3" class="node">
<title>Node3</title>
<g id="a_node3"><a xlink:title=" ">
<polygon fill="white" stroke="#bfbfbf" points="91.14,-168.5 91.14,-187.5 204.14,-187.5 204.14,-168.5 91.14,-168.5"/>
<text text-anchor="middle" x="147.64" y="-175.5" font-family="Helvetica,sans-Serif" font-size="10.00">Adafruit_SSD1306.h</text>
</a>
</g>
</g>
<!-- Node2&#45;&gt;Node3 -->
<g id="edge2" class="edge">
<title>Node2&#45;&gt;Node3</title>
<path fill="none" stroke="midnightblue" d="M157.92,-229.98C156.21,-221.49 153.53,-208.2 151.33,-197.32"/>
<polygon fill="midnightblue" stroke="midnightblue" points="154.76,-196.62 149.35,-187.51 147.9,-198 154.76,-196.62"/>
</g>
<!-- Node4 -->
<g id="node4" class="node">
<title>Node4</title>
<g id="a_node4"><a xlink:title=" ">
<polygon fill="white" stroke="#bfbfbf" points="194.64,-56.5 194.64,-75.5 244.64,-75.5 244.64,-56.5 194.64,-56.5"/>
<text text-anchor="middle" x="219.64" y="-63.5" font-family="Helvetica,sans-Serif" font-size="10.00">cstdint</text>
</a>
</g>
</g>
<!-- Node2&#45;&gt;Node4 -->
<g id="edge3" class="edge">
<title>Node2&#45;&gt;Node4</title>
<path fill="none" stroke="midnightblue" d="M123.07,-235.75C68.9,-230.13 -23.33,-213.7 5.64,-168 45.16,-105.64 134.66,-81.06 184.48,-71.95"/>
<polygon fill="midnightblue" stroke="midnightblue" points="185.22,-75.37 194.48,-70.23 184.03,-68.47 185.22,-75.37"/>
</g>
<!-- Node5 -->
<g id="node5" class="node">
<title>Node5</title>
<g id="a_node5"><a xlink:title=" ">
<polygon fill="white" stroke="#bfbfbf" points="222.64,-168.5 222.64,-187.5 266.64,-187.5 266.64,-168.5 222.64,-168.5"/>
<text text-anchor="middle" x="244.64" y="-175.5" font-family="Helvetica,sans-Serif" font-size="10.00">lvgl.h</text>
</a>
</g>
</g>
<!-- Node2&#45;&gt;Node5 -->
<g id="edge4" class="edge">
<title>Node2&#45;&gt;Node5</title>
<path fill="none" stroke="midnightblue" d="M171.81,-229.98C185.45,-220.43 207.77,-204.81 224.11,-193.37"/>
<polygon fill="midnightblue" stroke="midnightblue" points="226.3,-196.11 232.48,-187.51 222.28,-190.38 226.3,-196.11"/>
</g>
<!-- Node6 -->
<g id="node6" class="node">
<title>Node6</title>
<g id="a_node6"><a xlink:title=" ">
<polygon fill="white" stroke="#bfbfbf" points="14.64,-168.5 14.64,-187.5 72.64,-187.5 72.64,-168.5 14.64,-168.5"/>
<text text-anchor="middle" x="43.64" y="-175.5" font-family="Helvetica,sans-Serif" font-size="10.00">memory</text>
</a>
</g>
</g>
<!-- Node2&#45;&gt;Node6 -->
<g id="edge5" class="edge">
<title>Node2&#45;&gt;Node6</title>
<path fill="none" stroke="midnightblue" d="M143.02,-229.98C123.72,-220.08 91.68,-203.64 69.2,-192.12"/>
<polygon fill="midnightblue" stroke="midnightblue" points="70.72,-188.96 60.23,-187.51 67.53,-195.19 70.72,-188.96"/>
</g>
<!-- Node7 -->
<g id="node7" class="node">
<title>Node7</title>
<g id="a_node7"><a xlink:href="IDisplay_8hpp.xhtml" target="_top" xlink:title=" ">
<polygon fill="white" stroke="black" points="322.64,-168.5 322.64,-187.5 480.64,-187.5 480.64,-168.5 322.64,-168.5"/>
<text text-anchor="middle" x="401.64" y="-175.5" font-family="Helvetica,sans-Serif" font-size="10.00">user_interaction/IDisplay.hpp</text>
</a>
</g>
</g>
<!-- Node2&#45;&gt;Node7 -->
<g id="edge6" class="edge">
<title>Node2&#45;&gt;Node7</title>
<path fill="none" stroke="midnightblue" d="M192.19,-229.98C199.87,-227.99 208.04,-225.9 215.64,-224 263.21,-212.09 317.77,-198.95 355.43,-189.96"/>
<polygon fill="midnightblue" stroke="midnightblue" points="356.67,-193.26 365.59,-187.54 355.05,-186.45 356.67,-193.26"/>
</g>
<!-- Node8 -->
<g id="node8" class="node">
<title>Node8</title>
<g id="a_node8"><a xlink:href="MenuItem_8hpp.xhtml" target="_top" xlink:title=" ">
<polygon fill="white" stroke="black" points="287.14,-112.5 287.14,-131.5 374.14,-131.5 374.14,-112.5 287.14,-112.5"/>
<text text-anchor="middle" x="330.64" y="-119.5" font-family="Helvetica,sans-Serif" font-size="10.00">MenuItem.hpp</text>
</a>
</g>
</g>
<!-- Node7&#45;&gt;Node8 -->
<g id="edge7" class="edge">
<title>Node7&#45;&gt;Node8</title>
<path fill="none" stroke="midnightblue" d="M390.23,-168.32C379.53,-160.18 363.3,-147.84 350.47,-138.09"/>
<polygon fill="midnightblue" stroke="midnightblue" points="352.33,-135.1 342.25,-131.83 348.09,-140.67 352.33,-135.1"/>
</g>
<!-- Node11 -->
<g id="node11" class="node">
<title>Node11</title>
<g id="a_node11"><a xlink:href="IKeypad_8hpp.xhtml" target="_top" xlink:title=" ">
<polygon fill="white" stroke="black" points="392.64,-112.5 392.64,-131.5 550.64,-131.5 550.64,-112.5 392.64,-112.5"/>
<text text-anchor="middle" x="471.64" y="-119.5" font-family="Helvetica,sans-Serif" font-size="10.00">user_interaction/IKeypad.hpp</text>
</a>
</g>
</g>
<!-- Node7&#45;&gt;Node11 -->
<g id="edge11" class="edge">
<title>Node7&#45;&gt;Node11</title>
<path fill="none" stroke="midnightblue" d="M412.88,-168.32C423.43,-160.18 439.44,-147.84 452.08,-138.09"/>
<polygon fill="midnightblue" stroke="midnightblue" points="454.4,-140.71 460.18,-131.83 450.13,-135.17 454.4,-140.71"/>
</g>
<!-- Node8&#45;&gt;Node4 -->
<g id="edge8" class="edge">
<title>Node8&#45;&gt;Node4</title>
<path fill="none" stroke="midnightblue" d="M312.8,-112.32C294.92,-103.62 267.16,-90.12 246.59,-80.11"/>
<polygon fill="midnightblue" stroke="midnightblue" points="247.95,-76.88 237.43,-75.65 244.89,-83.18 247.95,-76.88"/>
</g>
<!-- Node9 -->
<g id="node9" class="node">
<title>Node9</title>
<g id="a_node9"><a xlink:title=" ">
<polygon fill="white" stroke="#bfbfbf" points="350.64,-56.5 350.64,-75.5 394.64,-75.5 394.64,-56.5 350.64,-56.5"/>
<text text-anchor="middle" x="372.64" y="-63.5" font-family="Helvetica,sans-Serif" font-size="10.00">string</text>
</a>
</g>
</g>
<!-- Node8&#45;&gt;Node9 -->
<g id="edge9" class="edge">
<title>Node8&#45;&gt;Node9</title>
<path fill="none" stroke="midnightblue" d="M337.57,-112.08C343.57,-104.38 352.39,-93.03 359.68,-83.65"/>
<polygon fill="midnightblue" stroke="midnightblue" points="362.45,-85.79 365.83,-75.75 356.93,-81.5 362.45,-85.79"/>
</g>
<!-- Node10 -->
<g id="node10" class="node">
<title>Node10</title>
<g id="a_node10"><a xlink:title=" ">
<polygon fill="white" stroke="#bfbfbf" points="285.14,-56.5 285.14,-75.5 332.14,-75.5 332.14,-56.5 285.14,-56.5"/>
<text text-anchor="middle" x="308.64" y="-63.5" font-family="Helvetica,sans-Serif" font-size="10.00">vector</text>
</a>
</g>
</g>
<!-- Node8&#45;&gt;Node10 -->
<g id="edge10" class="edge">
<title>Node8&#45;&gt;Node10</title>
<path fill="none" stroke="midnightblue" d="M327,-112.08C324.02,-104.77 319.71,-94.18 316.01,-85.1"/>
<polygon fill="midnightblue" stroke="midnightblue" points="319.22,-83.69 312.2,-75.75 312.73,-86.33 319.22,-83.69"/>
</g>
<!-- Node12 -->
<g id="node12" class="node">
<title>Node12</title>
<g id="a_node12"><a xlink:href="KeyIds_8hpp.xhtml" target="_top" xlink:title=" ">
<polygon fill="white" stroke="black" points="424.64,-56.5 424.64,-75.5 494.64,-75.5 494.64,-56.5 424.64,-56.5"/>
<text text-anchor="middle" x="459.64" y="-63.5" font-family="Helvetica,sans-Serif" font-size="10.00">KeyIds.hpp</text>
</a>
</g>
</g>
<!-- Node11&#45;&gt;Node12 -->
<g id="edge12" class="edge">
<title>Node11&#45;&gt;Node12</title>
<path fill="none" stroke="midnightblue" d="M469.65,-112.08C468.06,-104.93 465.78,-94.64 463.79,-85.69"/>
<polygon fill="midnightblue" stroke="midnightblue" points="467.17,-84.75 461.58,-75.75 460.33,-86.27 467.17,-84.75"/>
</g>
<!-- Node14 -->
<g id="node14" class="node">
<title>Node14</title>
<g id="a_node14"><a xlink:title=" ">
<polygon fill="white" stroke="#bfbfbf" points="513.14,-56.5 513.14,-75.5 578.14,-75.5 578.14,-56.5 513.14,-56.5"/>
<text text-anchor="middle" x="545.64" y="-63.5" font-family="Helvetica,sans-Serif" font-size="10.00">functional</text>
</a>
</g>
</g>
<!-- Node11&#45;&gt;Node14 -->
<g id="edge14" class="edge">
<title>Node11&#45;&gt;Node14</title>
<path fill="none" stroke="midnightblue" d="M483.53,-112.32C494.79,-104.11 511.92,-91.6 525.35,-81.81"/>
<polygon fill="midnightblue" stroke="midnightblue" points="527.52,-84.56 533.53,-75.83 523.39,-78.9 527.52,-84.56"/>
</g>
<!-- Node13 -->
<g id="node13" class="node">
<title>Node13</title>
<g id="a_node13"><a xlink:title=" ">
<polygon fill="white" stroke="#bfbfbf" points="431.14,-0.5 431.14,-19.5 488.14,-19.5 488.14,-0.5 431.14,-0.5"/>
<text text-anchor="middle" x="459.64" y="-7.5" font-family="Helvetica,sans-Serif" font-size="10.00">ostream</text>
</a>
</g>
</g>
<!-- Node12&#45;&gt;Node13 -->
<g id="edge13" class="edge">
<title>Node12&#45;&gt;Node13</title>
<path fill="none" stroke="midnightblue" d="M459.64,-56.08C459.64,-49.01 459.64,-38.86 459.64,-29.99"/>
<polygon fill="midnightblue" stroke="midnightblue" points="463.14,-29.75 459.64,-19.75 456.14,-29.75 463.14,-29.75"/>
</g>
<!-- Node17 -->
<g id="node17" class="node">
<title>Node17</title>
<g id="a_node17"><a xlink:href="board__types_8hpp.xhtml" target="_top" xlink:title=" ">
<polygon fill="white" stroke="black" points="170.64,-112.5 170.64,-131.5 268.64,-131.5 268.64,-112.5 170.64,-112.5"/>
<text text-anchor="middle" x="219.64" y="-119.5" font-family="Helvetica,sans-Serif" font-size="10.00">board_types.hpp</text>
</a>
</g>
</g>
<!-- Node16&#45;&gt;Node17 -->
<g id="edge17" class="edge">
<title>Node16&#45;&gt;Node17</title>
<path fill="none" stroke="midnightblue" d="M273.92,-229.74C278.54,-215.87 285.39,-188.36 275.64,-168 269.38,-154.95 257.3,-144.49 245.95,-136.95"/>
<polygon fill="midnightblue" stroke="midnightblue" points="247.49,-133.79 237.14,-131.54 243.83,-139.75 247.49,-133.79"/>
</g>
<!-- Node17&#45;&gt;Node4 -->
<g id="edge18" class="edge">
<title>Node17&#45;&gt;Node4</title>
<path fill="none" stroke="midnightblue" d="M219.64,-112.08C219.64,-105.01 219.64,-94.86 219.64,-85.99"/>
<polygon fill="midnightblue" stroke="midnightblue" points="223.14,-85.75 219.64,-75.75 216.14,-85.75 223.14,-85.75"/>
</g>
<!-- Node18&#45;&gt;Node7 -->
<g id="edge20" class="edge">
<title>Node18&#45;&gt;Node7</title>
<path fill="none" stroke="midnightblue" d="M401.64,-224.4C401.64,-216.47 401.64,-206.46 401.64,-197.86"/>
<polygon fill="midnightblue" stroke="midnightblue" points="405.14,-197.66 401.64,-187.66 398.14,-197.66 405.14,-197.66"/>
</g>
</g>
</svg>
