<?xml version="1.0" encoding="UTF-8" standalone="no"?>
<!DOCTYPE svg PUBLIC "-//W3C//DTD SVG 1.1//EN"
 "http://www.w3.org/Graphics/SVG/1.1/DTD/svg11.dtd">
<!-- Generated by graphviz version 2.43.0 (0)
 -->
<!-- Title: lib/3rd_party_adapters/LVGL/Display.cpp Pages: 1 -->
<svg width="545pt" height="319pt"
 viewBox="0.00 0.00 545.07 319.00" xmlns="http://www.w3.org/2000/svg" xmlns:xlink="http://www.w3.org/1999/xlink">
<g id="graph0" class="graph" transform="scale(1 1) rotate(0) translate(4 315)">
<title>lib/3rd_party_adapters/LVGL/Display.cpp</title>
<polygon fill="white" stroke="transparent" points="-4,4 -4,-315 541.07,-315 541.07,4 -4,4"/>
<!-- Node1 -->
<g id="node1" class="node">
<title>Node1</title>
<g id="a_node1"><a xlink:title=" ">
<polygon fill="#bfbfbf" stroke="black" points="345,-280.5 345,-310.5 471,-310.5 471,-280.5 345,-280.5"/>
<text text-anchor="start" x="353" y="-298.5" font-family="Helvetica,sans-Serif" font-size="10.00">lib/3rd_party_adapters</text>
<text text-anchor="middle" x="408" y="-287.5" font-family="Helvetica,sans-Serif" font-size="10.00">/LVGL/Display.cpp</text>
</a>
</g>
</g>
<!-- Node2 -->
<g id="node2" class="node">
<title>Node2</title>
<g id="a_node2"><a xlink:href="Display_8hpp.xhtml" target="_top" xlink:title=" ">
<polygon fill="white" stroke="black" points="233.5,-224.5 233.5,-243.5 306.5,-243.5 306.5,-224.5 233.5,-224.5"/>
<text text-anchor="middle" x="270" y="-231.5" font-family="Helvetica,sans-Serif" font-size="10.00">Display.hpp</text>
</a>
</g>
</g>
<!-- Node1&#45;&gt;Node2 -->
<g id="edge1" class="edge">
<title>Node1&#45;&gt;Node2</title>
<path fill="none" stroke="midnightblue" d="M375.3,-280.4C352.25,-270.46 321.64,-257.26 299.37,-247.66"/>
<polygon fill="midnightblue" stroke="midnightblue" points="300.65,-244.4 290.08,-243.66 297.88,-250.83 300.65,-244.4"/>
</g>
<!-- Node3 -->
<g id="node3" class="node">
<title>Node3</title>
<g id="a_node3"><a xlink:title=" ">
<polygon fill="white" stroke="#bfbfbf" points="44.5,-168.5 44.5,-187.5 157.5,-187.5 157.5,-168.5 44.5,-168.5"/>
<text text-anchor="middle" x="101" y="-175.5" font-family="Helvetica,sans-Serif" font-size="10.00">Adafruit_SSD1306.h</text>
</a>
</g>
</g>
<!-- Node1&#45;&gt;Node3 -->
<g id="edge17" class="edge">
<title>Node1&#45;&gt;Node3</title>
<path fill="none" stroke="midnightblue" d="M344.72,-280.75C308.7,-272.04 263.12,-259.49 224,-244 187.52,-229.56 147.81,-207.27 123.66,-192.91"/>
<polygon fill="midnightblue" stroke="midnightblue" points="125.28,-189.8 114.91,-187.65 121.68,-195.8 125.28,-189.8"/>
</g>
<!-- Node8 -->
<g id="node8" class="node">
<title>Node8</title>
<g id="a_node8"><a xlink:href="MenuItem_8hpp.xhtml" target="_top" xlink:title=" ">
<polygon fill="white" stroke="black" points="402.5,-112.5 402.5,-131.5 489.5,-131.5 489.5,-112.5 402.5,-112.5"/>
<text text-anchor="middle" x="446" y="-119.5" font-family="Helvetica,sans-Serif" font-size="10.00">MenuItem.hpp</text>
</a>
</g>
</g>
<!-- Node1&#45;&gt;Node8 -->
<g id="edge18" class="edge">
<title>Node1&#45;&gt;Node8</title>
<path fill="none" stroke="midnightblue" d="M438.7,-280.41C470.62,-263.68 518.12,-232.36 534,-188 537,-179.63 538.64,-175.58 534,-168 524.49,-152.46 507.74,-142.07 491.38,-135.23"/>
<polygon fill="midnightblue" stroke="midnightblue" points="492.44,-131.89 481.85,-131.6 489.95,-138.43 492.44,-131.89"/>
</g>
<!-- Node15 -->
<g id="node15" class="node">
<title>Node15</title>
<g id="a_node15"><a xlink:href="Screen_8hpp.xhtml" target="_top" xlink:title=" ">
<polygon fill="white" stroke="black" points="407.5,-224.5 407.5,-243.5 478.5,-243.5 478.5,-224.5 407.5,-224.5"/>
<text text-anchor="middle" x="443" y="-231.5" font-family="Helvetica,sans-Serif" font-size="10.00">Screen.hpp</text>
</a>
</g>
</g>
<!-- Node1&#45;&gt;Node15 -->
<g id="edge15" class="edge">
<title>Node1&#45;&gt;Node15</title>
<path fill="none" stroke="midnightblue" d="M416.29,-280.4C421.22,-272.02 427.51,-261.33 432.75,-252.42"/>
<polygon fill="midnightblue" stroke="midnightblue" points="435.85,-254.05 437.91,-243.66 429.82,-250.5 435.85,-254.05"/>
</g>
<!-- Node2&#45;&gt;Node3 -->
<g id="edge2" class="edge">
<title>Node2&#45;&gt;Node3</title>
<path fill="none" stroke="midnightblue" d="M243.22,-224.44C214.67,-215.32 169.27,-200.81 137.46,-190.65"/>
<polygon fill="midnightblue" stroke="midnightblue" points="138.24,-187.23 127.65,-187.52 136.11,-193.89 138.24,-187.23"/>
</g>
<!-- Node4 -->
<g id="node4" class="node">
<title>Node4</title>
<g id="a_node4"><a xlink:title=" ">
<polygon fill="white" stroke="#bfbfbf" points="288,-56.5 288,-75.5 338,-75.5 338,-56.5 288,-56.5"/>
<text text-anchor="middle" x="313" y="-63.5" font-family="Helvetica,sans-Serif" font-size="10.00">cstdint</text>
</a>
</g>
</g>
<!-- Node2&#45;&gt;Node4 -->
<g id="edge3" class="edge">
<title>Node2&#45;&gt;Node4</title>
<path fill="none" stroke="midnightblue" d="M249.27,-224.35C226.41,-213.39 194.2,-192.89 205,-168 222,-128.82 262.53,-97.9 288.81,-81.06"/>
<polygon fill="midnightblue" stroke="midnightblue" points="290.8,-83.95 297.45,-75.7 287.11,-78 290.8,-83.95"/>
</g>
<!-- Node5 -->
<g id="node5" class="node">
<title>Node5</title>
<g id="a_node5"><a xlink:title=" ">
<polygon fill="white" stroke="#bfbfbf" points="214,-168.5 214,-187.5 258,-187.5 258,-168.5 214,-168.5"/>
<text text-anchor="middle" x="236" y="-175.5" font-family="Helvetica,sans-Serif" font-size="10.00">lvgl.h</text>
</a>
</g>
</g>
<!-- Node2&#45;&gt;Node5 -->
<g id="edge4" class="edge">
<title>Node2&#45;&gt;Node5</title>
<path fill="none" stroke="midnightblue" d="M264.39,-224.08C259.63,-216.53 252.68,-205.49 246.85,-196.23"/>
<polygon fill="midnightblue" stroke="midnightblue" points="249.8,-194.35 241.51,-187.75 243.88,-198.08 249.8,-194.35"/>
</g>
<!-- Node6 -->
<g id="node6" class="node">
<title>Node6</title>
<g id="a_node6"><a xlink:title=" ">
<polygon fill="white" stroke="#bfbfbf" points="452,-168.5 452,-187.5 510,-187.5 510,-168.5 452,-168.5"/>
<text text-anchor="middle" x="481" y="-175.5" font-family="Helvetica,sans-Serif" font-size="10.00">memory</text>
</a>
</g>
</g>
<!-- Node2&#45;&gt;Node6 -->
<g id="edge5" class="edge">
<title>Node2&#45;&gt;Node6</title>
<path fill="none" stroke="midnightblue" d="M303.43,-224.44C341.06,-214.81 402.12,-199.19 441.92,-189"/>
<polygon fill="midnightblue" stroke="midnightblue" points="442.98,-192.34 451.8,-186.47 441.24,-185.56 442.98,-192.34"/>
</g>
<!-- Node7 -->
<g id="node7" class="node">
<title>Node7</title>
<g id="a_node7"><a xlink:href="IDisplay_8hpp.xhtml" target="_top" xlink:title=" ">
<polygon fill="white" stroke="black" points="276,-168.5 276,-187.5 434,-187.5 434,-168.5 276,-168.5"/>
<text text-anchor="middle" x="355" y="-175.5" font-family="Helvetica,sans-Serif" font-size="10.00">user_interaction/IDisplay.hpp</text>
</a>
</g>
</g>
<!-- Node2&#45;&gt;Node7 -->
<g id="edge6" class="edge">
<title>Node2&#45;&gt;Node7</title>
<path fill="none" stroke="midnightblue" d="M283.66,-224.32C296.92,-215.9 317.27,-202.97 332.85,-193.07"/>
<polygon fill="midnightblue" stroke="midnightblue" points="334.81,-195.97 341.38,-187.65 331.06,-190.06 334.81,-195.97"/>
</g>
<!-- Node7&#45;&gt;Node8 -->
<g id="edge7" class="edge">
<title>Node7&#45;&gt;Node8</title>
<path fill="none" stroke="midnightblue" d="M369.62,-168.32C383.95,-159.82 406.01,-146.73 422.75,-136.8"/>
<polygon fill="midnightblue" stroke="midnightblue" points="424.6,-139.77 431.42,-131.65 421.03,-133.75 424.6,-139.77"/>
</g>
<!-- Node11 -->
<g id="node11" class="node">
<title>Node11</title>
<g id="a_node11"><a xlink:href="IKeypad_8hpp.xhtml" target="_top" xlink:title=" ">
<polygon fill="white" stroke="black" points="0,-112.5 0,-131.5 158,-131.5 158,-112.5 0,-112.5"/>
<text text-anchor="middle" x="79" y="-119.5" font-family="Helvetica,sans-Serif" font-size="10.00">user_interaction/IKeypad.hpp</text>
</a>
</g>
</g>
<!-- Node7&#45;&gt;Node11 -->
<g id="edge11" class="edge">
<title>Node7&#45;&gt;Node11</title>
<path fill="none" stroke="midnightblue" d="M311.27,-168.44C262.82,-158.96 184.67,-143.67 132.58,-133.48"/>
<polygon fill="midnightblue" stroke="midnightblue" points="133.01,-130 122.53,-131.52 131.67,-136.87 133.01,-130"/>
</g>
<!-- Node8&#45;&gt;Node4 -->
<g id="edge8" class="edge">
<title>Node8&#45;&gt;Node4</title>
<path fill="none" stroke="midnightblue" d="M424.93,-112.44C402.94,-103.52 368.27,-89.44 343.34,-79.32"/>
<polygon fill="midnightblue" stroke="midnightblue" points="344.56,-76.04 333.98,-75.52 341.92,-82.52 344.56,-76.04"/>
</g>
<!-- Node9 -->
<g id="node9" class="node">
<title>Node9</title>
<g id="a_node9"><a xlink:title=" ">
<polygon fill="white" stroke="#bfbfbf" points="466,-56.5 466,-75.5 510,-75.5 510,-56.5 466,-56.5"/>
<text text-anchor="middle" x="488" y="-63.5" font-family="Helvetica,sans-Serif" font-size="10.00">string</text>
</a>
</g>
</g>
<!-- Node8&#45;&gt;Node9 -->
<g id="edge9" class="edge">
<title>Node8&#45;&gt;Node9</title>
<path fill="none" stroke="midnightblue" d="M452.94,-112.08C458.93,-104.38 467.75,-93.03 475.05,-83.65"/>
<polygon fill="midnightblue" stroke="midnightblue" points="477.82,-85.79 481.19,-75.75 472.29,-81.5 477.82,-85.79"/>
</g>
<!-- Node10 -->
<g id="node10" class="node">
<title>Node10</title>
<g id="a_node10"><a xlink:title=" ">
<polygon fill="white" stroke="#bfbfbf" points="400.5,-56.5 400.5,-75.5 447.5,-75.5 447.5,-56.5 400.5,-56.5"/>
<text text-anchor="middle" x="424" y="-63.5" font-family="Helvetica,sans-Serif" font-size="10.00">vector</text>
</a>
</g>
</g>
<!-- Node8&#45;&gt;Node10 -->
<g id="edge10" class="edge">
<title>Node8&#45;&gt;Node10</title>
<path fill="none" stroke="midnightblue" d="M442.37,-112.08C439.39,-104.77 435.07,-94.18 431.38,-85.1"/>
<polygon fill="midnightblue" stroke="midnightblue" points="434.58,-83.69 427.57,-75.75 428.1,-86.33 434.58,-83.69"/>
</g>
<!-- Node12 -->
<g id="node12" class="node">
<title>Node12</title>
<g id="a_node12"><a xlink:href="KeyIds_8hpp.xhtml" target="_top" xlink:title=" ">
<polygon fill="white" stroke="black" points="87,-56.5 87,-75.5 157,-75.5 157,-56.5 87,-56.5"/>
<text text-anchor="middle" x="122" y="-63.5" font-family="Helvetica,sans-Serif" font-size="10.00">KeyIds.hpp</text>
</a>
</g>
</g>
<!-- Node11&#45;&gt;Node12 -->
<g id="edge12" class="edge">
<title>Node11&#45;&gt;Node12</title>
<path fill="none" stroke="midnightblue" d="M86.1,-112.08C92.24,-104.38 101.27,-93.03 108.74,-83.65"/>
<polygon fill="midnightblue" stroke="midnightblue" points="111.54,-85.75 115.03,-75.75 106.06,-81.39 111.54,-85.75"/>
</g>
<!-- Node14 -->
<g id="node14" class="node">
<title>Node14</title>
<g id="a_node14"><a xlink:title=" ">
<polygon fill="white" stroke="#bfbfbf" points="3.5,-56.5 3.5,-75.5 68.5,-75.5 68.5,-56.5 3.5,-56.5"/>
<text text-anchor="middle" x="36" y="-63.5" font-family="Helvetica,sans-Serif" font-size="10.00">functional</text>
</a>
</g>
</g>
<!-- Node11&#45;&gt;Node14 -->
<g id="edge14" class="edge">
<title>Node11&#45;&gt;Node14</title>
<path fill="none" stroke="midnightblue" d="M71.9,-112.08C65.76,-104.38 56.73,-93.03 49.26,-83.65"/>
<polygon fill="midnightblue" stroke="midnightblue" points="51.94,-81.39 42.97,-75.75 46.46,-85.75 51.94,-81.39"/>
</g>
<!-- Node13 -->
<g id="node13" class="node">
<title>Node13</title>
<g id="a_node13"><a xlink:title=" ">
<polygon fill="white" stroke="#bfbfbf" points="93.5,-0.5 93.5,-19.5 150.5,-19.5 150.5,-0.5 93.5,-0.5"/>
<text text-anchor="middle" x="122" y="-7.5" font-family="Helvetica,sans-Serif" font-size="10.00">ostream</text>
</a>
</g>
</g>
<!-- Node12&#45;&gt;Node13 -->
<g id="edge13" class="edge">
<title>Node12&#45;&gt;Node13</title>
<path fill="none" stroke="midnightblue" d="M122,-56.08C122,-49.01 122,-38.86 122,-29.99"/>
<polygon fill="midnightblue" stroke="midnightblue" points="125.5,-29.75 122,-19.75 118.5,-29.75 125.5,-29.75"/>
</g>
<!-- Node15&#45;&gt;Node8 -->
<g id="edge16" class="edge">
<title>Node15&#45;&gt;Node8</title>
<path fill="none" stroke="midnightblue" d="M471.02,-224.4C488.17,-217.51 508.75,-205.98 519,-188 531.67,-165.78 504.11,-147.19 479.3,-135.66"/>
<polygon fill="midnightblue" stroke="midnightblue" points="480.58,-132.4 470.02,-131.59 477.77,-138.81 480.58,-132.4"/>
</g>
</g>
</svg>
