<?xml version="1.0" encoding="UTF-8" standalone="no"?>
<!DOCTYPE svg PUBLIC "-//W3C//DTD SVG 1.1//EN"
 "http://www.w3.org/Graphics/SVG/1.1/DTD/svg11.dtd">
<!-- Generated by graphviz version 2.43.0 (0)
 -->
<!-- Title: lib/3rd_party_adapters/LVGL/Display.cpp Pages: 1 -->
<svg width="631pt" height="319pt"
 viewBox="0.00 0.00 631.00 319.00" xmlns="http://www.w3.org/2000/svg" xmlns:xlink="http://www.w3.org/1999/xlink">
<g id="graph0" class="graph" transform="scale(1 1) rotate(0) translate(4 315)">
<title>lib/3rd_party_adapters/LVGL/Display.cpp</title>
<polygon fill="white" stroke="transparent" points="-4,4 -4,-315 627,-315 627,4 -4,4"/>
<!-- Node1 -->
<g id="node1" class="node">
<title>Node1</title>
<g id="a_node1"><a xlink:title=" ">
<polygon fill="#bfbfbf" stroke="black" points="396.5,-280.5 396.5,-310.5 522.5,-310.5 522.5,-280.5 396.5,-280.5"/>
<text text-anchor="start" x="404.5" y="-298.5" font-family="Helvetica,sans-Serif" font-size="10.00">lib/3rd_party_adapters</text>
<text text-anchor="middle" x="459.5" y="-287.5" font-family="Helvetica,sans-Serif" font-size="10.00">/LVGL/Display.cpp</text>
</a>
</g>
</g>
<!-- Node2 -->
<g id="node2" class="node">
<title>Node2</title>
<g id="a_node2"><a xlink:href="Display_8hpp.xhtml" target="_top" xlink:title=" ">
<polygon fill="white" stroke="black" points="328,-224.5 328,-243.5 401,-243.5 401,-224.5 328,-224.5"/>
<text text-anchor="middle" x="364.5" y="-231.5" font-family="Helvetica,sans-Serif" font-size="10.00">Display.hpp</text>
</a>
</g>
</g>
<!-- Node1&#45;&gt;Node2 -->
<g id="edge1" class="edge">
<title>Node1&#45;&gt;Node2</title>
<path fill="none" stroke="midnightblue" d="M436.99,-280.4C421.9,-270.95 402.11,-258.56 387.03,-249.11"/>
<polygon fill="midnightblue" stroke="midnightblue" points="388.66,-246 378.32,-243.66 384.94,-251.93 388.66,-246"/>
</g>
<!-- Node3 -->
<g id="node3" class="node">
<title>Node3</title>
<g id="a_node3"><a xlink:title=" ">
<polygon fill="white" stroke="#bfbfbf" points="0,-168.5 0,-187.5 113,-187.5 113,-168.5 0,-168.5"/>
<text text-anchor="middle" x="56.5" y="-175.5" font-family="Helvetica,sans-Serif" font-size="10.00">Adafruit_SSD1306.h</text>
</a>
</g>
</g>
<!-- Node1&#45;&gt;Node3 -->
<g id="edge16" class="edge">
<title>Node1&#45;&gt;Node3</title>
<path fill="none" stroke="midnightblue" d="M410.49,-280.45C329.75,-257.31 170.35,-211.63 96.19,-190.37"/>
<polygon fill="midnightblue" stroke="midnightblue" points="96.88,-186.93 86.31,-187.54 94.95,-193.66 96.88,-186.93"/>
</g>
<!-- Node8 -->
<g id="node8" class="node">
<title>Node8</title>
<g id="a_node8"><a xlink:href="MenuItem_8hpp.xhtml" target="_top" xlink:title=" ">
<polygon fill="white" stroke="black" points="480,-112.5 480,-131.5 567,-131.5 567,-112.5 480,-112.5"/>
<text text-anchor="middle" x="523.5" y="-119.5" font-family="Helvetica,sans-Serif" font-size="10.00">MenuItem.hpp</text>
</a>
</g>
</g>
<!-- Node1&#45;&gt;Node8 -->
<g id="edge17" class="edge">
<title>Node1&#45;&gt;Node8</title>
<path fill="none" stroke="midnightblue" d="M466.15,-280.24C475.44,-260 492.51,-221.66 504.5,-188 510.05,-172.42 515.23,-154.35 518.78,-141.22"/>
<polygon fill="midnightblue" stroke="midnightblue" points="522.17,-142.08 521.35,-131.51 515.41,-140.29 522.17,-142.08"/>
</g>
<!-- Node15 -->
<g id="node15" class="node">
<title>Node15</title>
<g id="a_node15"><a xlink:href="Screen_8hpp.xhtml" target="_top" xlink:title=" ">
<polygon fill="white" stroke="black" points="552,-224.5 552,-243.5 623,-243.5 623,-224.5 552,-224.5"/>
<text text-anchor="middle" x="587.5" y="-231.5" font-family="Helvetica,sans-Serif" font-size="10.00">Screen.hpp</text>
</a>
</g>
</g>
<!-- Node1&#45;&gt;Node15 -->
<g id="edge14" class="edge">
<title>Node1&#45;&gt;Node15</title>
<path fill="none" stroke="midnightblue" d="M489.83,-280.4C511.02,-270.55 539.09,-257.5 559.7,-247.92"/>
<polygon fill="midnightblue" stroke="midnightblue" points="561.28,-251.05 568.87,-243.66 558.33,-244.7 561.28,-251.05"/>
</g>
<!-- Node2&#45;&gt;Node3 -->
<g id="edge2" class="edge">
<title>Node2&#45;&gt;Node3</title>
<path fill="none" stroke="midnightblue" d="M327.96,-226.59C275.43,-217.38 178.01,-200.3 115.28,-189.31"/>
<polygon fill="midnightblue" stroke="midnightblue" points="115.6,-185.81 105.14,-187.53 114.39,-192.7 115.6,-185.81"/>
</g>
<!-- Node4 -->
<g id="node4" class="node">
<title>Node4</title>
<g id="a_node4"><a xlink:title=" ">
<polygon fill="white" stroke="#bfbfbf" points="307.5,-168.5 307.5,-187.5 357.5,-187.5 357.5,-168.5 307.5,-168.5"/>
<text text-anchor="middle" x="332.5" y="-175.5" font-family="Helvetica,sans-Serif" font-size="10.00">cstdint</text>
</a>
</g>
</g>
<!-- Node2&#45;&gt;Node4 -->
<g id="edge3" class="edge">
<title>Node2&#45;&gt;Node4</title>
<path fill="none" stroke="midnightblue" d="M359.22,-224.08C354.79,-216.61 348.34,-205.72 342.88,-196.52"/>
<polygon fill="midnightblue" stroke="midnightblue" points="345.79,-194.57 337.69,-187.75 339.77,-198.14 345.79,-194.57"/>
</g>
<!-- Node5 -->
<g id="node5" class="node">
<title>Node5</title>
<g id="a_node5"><a xlink:title=" ">
<polygon fill="white" stroke="#bfbfbf" points="375.5,-168.5 375.5,-187.5 419.5,-187.5 419.5,-168.5 375.5,-168.5"/>
<text text-anchor="middle" x="397.5" y="-175.5" font-family="Helvetica,sans-Serif" font-size="10.00">lvgl.h</text>
</a>
</g>
</g>
<!-- Node2&#45;&gt;Node5 -->
<g id="edge4" class="edge">
<title>Node2&#45;&gt;Node5</title>
<path fill="none" stroke="midnightblue" d="M369.95,-224.08C374.51,-216.61 381.17,-205.72 386.79,-196.52"/>
<polygon fill="midnightblue" stroke="midnightblue" points="389.92,-198.11 392.15,-187.75 383.95,-194.46 389.92,-198.11"/>
</g>
<!-- Node6 -->
<g id="node6" class="node">
<title>Node6</title>
<g id="a_node6"><a xlink:title=" ">
<polygon fill="white" stroke="#bfbfbf" points="437.5,-168.5 437.5,-187.5 495.5,-187.5 495.5,-168.5 437.5,-168.5"/>
<text text-anchor="middle" x="466.5" y="-175.5" font-family="Helvetica,sans-Serif" font-size="10.00">memory</text>
</a>
</g>
</g>
<!-- Node2&#45;&gt;Node6 -->
<g id="edge5" class="edge">
<title>Node2&#45;&gt;Node6</title>
<path fill="none" stroke="midnightblue" d="M380.89,-224.32C397.17,-215.7 422.37,-202.36 441.22,-192.39"/>
<polygon fill="midnightblue" stroke="midnightblue" points="442.95,-195.43 450.15,-187.65 439.68,-189.24 442.95,-195.43"/>
</g>
<!-- Node7 -->
<g id="node7" class="node">
<title>Node7</title>
<g id="a_node7"><a xlink:href="IDisplay_8hpp.xhtml" target="_top" xlink:title=" ">
<polygon fill="white" stroke="black" points="131.5,-168.5 131.5,-187.5 289.5,-187.5 289.5,-168.5 131.5,-168.5"/>
<text text-anchor="middle" x="210.5" y="-175.5" font-family="Helvetica,sans-Serif" font-size="10.00">user_interaction/IDisplay.hpp</text>
</a>
</g>
</g>
<!-- Node2&#45;&gt;Node7 -->
<g id="edge6" class="edge">
<title>Node2&#45;&gt;Node7</title>
<path fill="none" stroke="midnightblue" d="M340.1,-224.44C314.3,-215.4 273.42,-201.06 244.48,-190.92"/>
<polygon fill="midnightblue" stroke="midnightblue" points="245.38,-187.52 234.79,-187.52 243.07,-194.13 245.38,-187.52"/>
</g>
<!-- Node7&#45;&gt;Node8 -->
<g id="edge7" class="edge">
<title>Node7&#45;&gt;Node8</title>
<path fill="none" stroke="midnightblue" d="M260.1,-168.44C317.17,-158.6 410.59,-142.48 469.47,-132.32"/>
<polygon fill="midnightblue" stroke="midnightblue" points="470.43,-135.71 479.69,-130.56 469.24,-128.81 470.43,-135.71"/>
</g>
<!-- Node11 -->
<g id="node11" class="node">
<title>Node11</title>
<g id="a_node11"><a xlink:href="IKeypad_8hpp.xhtml" target="_top" xlink:title=" ">
<polygon fill="white" stroke="black" points="131.5,-112.5 131.5,-131.5 289.5,-131.5 289.5,-112.5 131.5,-112.5"/>
<text text-anchor="middle" x="210.5" y="-119.5" font-family="Helvetica,sans-Serif" font-size="10.00">user_interaction/IKeypad.hpp</text>
</a>
</g>
</g>
<!-- Node7&#45;&gt;Node11 -->
<g id="edge10" class="edge">
<title>Node7&#45;&gt;Node11</title>
<path fill="none" stroke="midnightblue" d="M210.5,-168.08C210.5,-161.01 210.5,-150.86 210.5,-141.99"/>
<polygon fill="midnightblue" stroke="midnightblue" points="214,-141.75 210.5,-131.75 207,-141.75 214,-141.75"/>
</g>
<!-- Node9 -->
<g id="node9" class="node">
<title>Node9</title>
<g id="a_node9"><a xlink:title=" ">
<polygon fill="white" stroke="#bfbfbf" points="469.5,-56.5 469.5,-75.5 513.5,-75.5 513.5,-56.5 469.5,-56.5"/>
<text text-anchor="middle" x="491.5" y="-63.5" font-family="Helvetica,sans-Serif" font-size="10.00">string</text>
</a>
</g>
</g>
<!-- Node8&#45;&gt;Node9 -->
<g id="edge8" class="edge">
<title>Node8&#45;&gt;Node9</title>
<path fill="none" stroke="midnightblue" d="M518.22,-112.08C513.79,-104.61 507.34,-93.72 501.88,-84.52"/>
<polygon fill="midnightblue" stroke="midnightblue" points="504.79,-82.57 496.69,-75.75 498.77,-86.14 504.79,-82.57"/>
</g>
<!-- Node10 -->
<g id="node10" class="node">
<title>Node10</title>
<g id="a_node10"><a xlink:title=" ">
<polygon fill="white" stroke="#bfbfbf" points="532,-56.5 532,-75.5 579,-75.5 579,-56.5 532,-56.5"/>
<text text-anchor="middle" x="555.5" y="-63.5" font-family="Helvetica,sans-Serif" font-size="10.00">vector</text>
</a>
</g>
</g>
<!-- Node8&#45;&gt;Node10 -->
<g id="edge9" class="edge">
<title>Node8&#45;&gt;Node10</title>
<path fill="none" stroke="midnightblue" d="M528.78,-112.08C533.21,-104.61 539.66,-93.72 545.12,-84.52"/>
<polygon fill="midnightblue" stroke="midnightblue" points="548.23,-86.14 550.31,-75.75 542.21,-82.57 548.23,-86.14"/>
</g>
<!-- Node12 -->
<g id="node12" class="node">
<title>Node12</title>
<g id="a_node12"><a xlink:href="KeyIds_8hpp.xhtml" target="_top" xlink:title=" ">
<polygon fill="white" stroke="black" points="132.5,-56.5 132.5,-75.5 202.5,-75.5 202.5,-56.5 132.5,-56.5"/>
<text text-anchor="middle" x="167.5" y="-63.5" font-family="Helvetica,sans-Serif" font-size="10.00">KeyIds.hpp</text>
</a>
</g>
</g>
<!-- Node11&#45;&gt;Node12 -->
<g id="edge11" class="edge">
<title>Node11&#45;&gt;Node12</title>
<path fill="none" stroke="midnightblue" d="M203.4,-112.08C197.26,-104.38 188.23,-93.03 180.76,-83.65"/>
<polygon fill="midnightblue" stroke="midnightblue" points="183.44,-81.39 174.47,-75.75 177.96,-85.75 183.44,-81.39"/>
</g>
<!-- Node14 -->
<g id="node14" class="node">
<title>Node14</title>
<g id="a_node14"><a xlink:title=" ">
<polygon fill="white" stroke="#bfbfbf" points="221,-56.5 221,-75.5 286,-75.5 286,-56.5 221,-56.5"/>
<text text-anchor="middle" x="253.5" y="-63.5" font-family="Helvetica,sans-Serif" font-size="10.00">functional</text>
</a>
</g>
</g>
<!-- Node11&#45;&gt;Node14 -->
<g id="edge13" class="edge">
<title>Node11&#45;&gt;Node14</title>
<path fill="none" stroke="midnightblue" d="M217.6,-112.08C223.74,-104.38 232.77,-93.03 240.24,-83.65"/>
<polygon fill="midnightblue" stroke="midnightblue" points="243.04,-85.75 246.53,-75.75 237.56,-81.39 243.04,-85.75"/>
</g>
<!-- Node13 -->
<g id="node13" class="node">
<title>Node13</title>
<g id="a_node13"><a xlink:title=" ">
<polygon fill="white" stroke="#bfbfbf" points="139,-0.5 139,-19.5 196,-19.5 196,-0.5 139,-0.5"/>
<text text-anchor="middle" x="167.5" y="-7.5" font-family="Helvetica,sans-Serif" font-size="10.00">ostream</text>
</a>
</g>
</g>
<!-- Node12&#45;&gt;Node13 -->
<g id="edge12" class="edge">
<title>Node12&#45;&gt;Node13</title>
<path fill="none" stroke="midnightblue" d="M167.5,-56.08C167.5,-49.01 167.5,-38.86 167.5,-29.99"/>
<polygon fill="midnightblue" stroke="midnightblue" points="171,-29.75 167.5,-19.75 164,-29.75 171,-29.75"/>
</g>
<!-- Node15&#45;&gt;Node8 -->
<g id="edge15" class="edge">
<title>Node15&#45;&gt;Node8</title>
<path fill="none" stroke="midnightblue" d="M582.48,-224.37C571.96,-206.3 547.46,-164.18 533.57,-140.31"/>
<polygon fill="midnightblue" stroke="midnightblue" points="536.55,-138.47 528.5,-131.59 530.5,-142 536.55,-138.47"/>
</g>
</g>
</svg>
