<?xml version="1.0" encoding="UTF-8" standalone="no"?>
<!DOCTYPE svg PUBLIC "-//W3C//DTD SVG 1.1//EN"
 "http://www.w3.org/Graphics/SVG/1.1/DTD/svg11.dtd">
<!-- Generated by graphviz version 2.43.0 (0)
 -->
<!-- Title: lib/3rd_party_adapters/LVGL/display_factory_interface.cpp Pages: 1 -->
<svg width="684pt" height="341pt"
 viewBox="0.00 0.00 683.50 341.00" xmlns="http://www.w3.org/2000/svg" xmlns:xlink="http://www.w3.org/1999/xlink">
<g id="graph0" class="graph" transform="scale(1 1) rotate(0) translate(4 337)">
<title>lib/3rd_party_adapters/LVGL/display_factory_interface.cpp</title>
<polygon fill="white" stroke="transparent" points="-4,4 -4,-337 679.5,-337 679.5,4 -4,4"/>
<!-- Node1 -->
<g id="node1" class="node">
<title>Node1</title>
<g id="a_node1"><a xlink:title=" ">
<polygon fill="#bfbfbf" stroke="black" points="306,-291.5 306,-332.5 432,-332.5 432,-291.5 306,-291.5"/>
<text text-anchor="start" x="314" y="-320.5" font-family="Helvetica,sans-Serif" font-size="10.00">lib/3rd_party_adapters</text>
<text text-anchor="start" x="314" y="-309.5" font-family="Helvetica,sans-Serif" font-size="10.00">/LVGL/display_factory</text>
<text text-anchor="middle" x="369" y="-298.5" font-family="Helvetica,sans-Serif" font-size="10.00">_interface.cpp</text>
</a>
</g>
</g>
<!-- Node2 -->
<g id="node2" class="node">
<title>Node2</title>
<g id="a_node2"><a xlink:href="Display_8hpp.xhtml" target="_top" xlink:title=" ">
<polygon fill="white" stroke="black" points="271.5,-230 271.5,-249 344.5,-249 344.5,-230 271.5,-230"/>
<text text-anchor="middle" x="308" y="-237" font-family="Helvetica,sans-Serif" font-size="10.00">Display.hpp</text>
</a>
</g>
</g>
<!-- Node1&#45;&gt;Node2 -->
<g id="edge1" class="edge">
<title>Node1&#45;&gt;Node2</title>
<path fill="none" stroke="midnightblue" d="M352.01,-291.36C342.64,-280.54 331.15,-267.26 322.26,-256.98"/>
<polygon fill="midnightblue" stroke="midnightblue" points="324.69,-254.45 315.5,-249.17 319.4,-259.03 324.69,-254.45"/>
</g>
<!-- Node15 -->
<g id="node15" class="node">
<title>Node15</title>
<g id="a_node15"><a xlink:title=" ">
<polygon fill="white" stroke="#bfbfbf" points="515.5,-230 515.5,-249 578.5,-249 578.5,-230 515.5,-230"/>
<text text-anchor="middle" x="547" y="-237" font-family="Helvetica,sans-Serif" font-size="10.00">Arduino.h</text>
</a>
</g>
</g>
<!-- Node1&#45;&gt;Node15 -->
<g id="edge14" class="edge">
<title>Node1&#45;&gt;Node15</title>
<path fill="none" stroke="midnightblue" d="M418.58,-291.36C449.6,-279.08 488.61,-263.63 515.45,-252.99"/>
<polygon fill="midnightblue" stroke="midnightblue" points="517.09,-256.11 525.1,-249.17 514.52,-249.6 517.09,-256.11"/>
</g>
<!-- Node16 -->
<g id="node16" class="node">
<title>Node16</title>
<g id="a_node16"><a xlink:href="board__pins_8hpp.xhtml" target="_top" xlink:title="Provides named objects for the pins provided by the board.">
<polygon fill="white" stroke="black" points="83.5,-230 83.5,-249 174.5,-249 174.5,-230 83.5,-230"/>
<text text-anchor="middle" x="129" y="-237" font-family="Helvetica,sans-Serif" font-size="10.00">board_pins.hpp</text>
</a>
</g>
</g>
<!-- Node1&#45;&gt;Node16 -->
<g id="edge15" class="edge">
<title>Node1&#45;&gt;Node16</title>
<path fill="none" stroke="midnightblue" d="M305.94,-292.48C262.27,-279.65 205.51,-262.97 168.2,-252.01"/>
<polygon fill="midnightblue" stroke="midnightblue" points="168.8,-248.54 158.22,-249.08 166.83,-255.26 168.8,-248.54"/>
</g>
<!-- Node18 -->
<g id="node18" class="node">
<title>Node18</title>
<g id="a_node18"><a xlink:href="display__factory__interface_8hpp.xhtml" target="_top" xlink:title="Dependency injection for the display.">
<polygon fill="white" stroke="black" points="363,-224.5 363,-254.5 497,-254.5 497,-224.5 363,-224.5"/>
<text text-anchor="start" x="371" y="-242.5" font-family="Helvetica,sans-Serif" font-size="10.00">user_interaction/display</text>
<text text-anchor="middle" x="430" y="-231.5" font-family="Helvetica,sans-Serif" font-size="10.00">_factory_interface.hpp</text>
</a>
</g>
</g>
<!-- Node1&#45;&gt;Node18 -->
<g id="edge18" class="edge">
<title>Node1&#45;&gt;Node18</title>
<path fill="none" stroke="midnightblue" d="M385.99,-291.36C393.74,-282.41 402.93,-271.78 410.92,-262.56"/>
<polygon fill="midnightblue" stroke="midnightblue" points="413.65,-264.74 417.55,-254.89 408.36,-260.16 413.65,-264.74"/>
</g>
<!-- Node3 -->
<g id="node3" class="node">
<title>Node3</title>
<g id="a_node3"><a xlink:title=" ">
<polygon fill="white" stroke="#bfbfbf" points="116.5,-168.5 116.5,-187.5 229.5,-187.5 229.5,-168.5 116.5,-168.5"/>
<text text-anchor="middle" x="173" y="-175.5" font-family="Helvetica,sans-Serif" font-size="10.00">Adafruit_SSD1306.h</text>
</a>
</g>
</g>
<!-- Node2&#45;&gt;Node3 -->
<g id="edge2" class="edge">
<title>Node2&#45;&gt;Node3</title>
<path fill="none" stroke="midnightblue" d="M288.66,-229.98C265.9,-219.95 227.91,-203.2 201.71,-191.65"/>
<polygon fill="midnightblue" stroke="midnightblue" points="202.87,-188.34 192.31,-187.51 200.05,-194.74 202.87,-188.34"/>
</g>
<!-- Node4 -->
<g id="node4" class="node">
<title>Node4</title>
<g id="a_node4"><a xlink:title=" ">
<polygon fill="white" stroke="#bfbfbf" points="129,-112.5 129,-131.5 179,-131.5 179,-112.5 129,-112.5"/>
<text text-anchor="middle" x="154" y="-119.5" font-family="Helvetica,sans-Serif" font-size="10.00">cstdint</text>
</a>
</g>
</g>
<!-- Node2&#45;&gt;Node4 -->
<g id="edge3" class="edge">
<title>Node2&#45;&gt;Node4</title>
<path fill="none" stroke="midnightblue" d="M300.93,-229.87C289.02,-215.7 263.73,-187.17 238,-168 221.03,-155.36 200.05,-144.11 183.3,-136.03"/>
<polygon fill="midnightblue" stroke="midnightblue" points="184.53,-132.74 173.99,-131.65 181.55,-139.07 184.53,-132.74"/>
</g>
<!-- Node5 -->
<g id="node5" class="node">
<title>Node5</title>
<g id="a_node5"><a xlink:title=" ">
<polygon fill="white" stroke="#bfbfbf" points="286,-168.5 286,-187.5 330,-187.5 330,-168.5 286,-168.5"/>
<text text-anchor="middle" x="308" y="-175.5" font-family="Helvetica,sans-Serif" font-size="10.00">lvgl.h</text>
</a>
</g>
</g>
<!-- Node2&#45;&gt;Node5 -->
<g id="edge4" class="edge">
<title>Node2&#45;&gt;Node5</title>
<path fill="none" stroke="midnightblue" d="M308,-229.98C308,-221.58 308,-208.48 308,-197.66"/>
<polygon fill="midnightblue" stroke="midnightblue" points="311.5,-197.51 308,-187.51 304.5,-197.51 311.5,-197.51"/>
</g>
<!-- Node6 -->
<g id="node6" class="node">
<title>Node6</title>
<g id="a_node6"><a xlink:title=" ">
<polygon fill="white" stroke="#bfbfbf" points="348,-168.5 348,-187.5 406,-187.5 406,-168.5 348,-168.5"/>
<text text-anchor="middle" x="377" y="-175.5" font-family="Helvetica,sans-Serif" font-size="10.00">memory</text>
</a>
</g>
</g>
<!-- Node2&#45;&gt;Node6 -->
<g id="edge5" class="edge">
<title>Node2&#45;&gt;Node6</title>
<path fill="none" stroke="midnightblue" d="M317.89,-229.98C328.65,-220.7 346.07,-205.67 359.22,-194.33"/>
<polygon fill="midnightblue" stroke="midnightblue" points="361.84,-196.69 367.13,-187.51 357.27,-191.39 361.84,-196.69"/>
</g>
<!-- Node7 -->
<g id="node7" class="node">
<title>Node7</title>
<g id="a_node7"><a xlink:href="IDisplay_8hpp.xhtml" target="_top" xlink:title=" ">
<polygon fill="white" stroke="black" points="424,-168.5 424,-187.5 582,-187.5 582,-168.5 424,-168.5"/>
<text text-anchor="middle" x="503" y="-175.5" font-family="Helvetica,sans-Serif" font-size="10.00">user_interaction/IDisplay.hpp</text>
</a>
</g>
</g>
<!-- Node2&#45;&gt;Node7 -->
<g id="edge6" class="edge">
<title>Node2&#45;&gt;Node7</title>
<path fill="none" stroke="midnightblue" d="M335.23,-229.86C341.39,-227.92 347.92,-225.88 354,-224 391.58,-212.4 434.59,-199.45 464.71,-190.43"/>
<polygon fill="midnightblue" stroke="midnightblue" points="465.83,-193.74 474.4,-187.52 463.82,-187.04 465.83,-193.74"/>
</g>
<!-- Node8 -->
<g id="node8" class="node">
<title>Node8</title>
<g id="a_node8"><a xlink:href="MenuItem_8hpp.xhtml" target="_top" xlink:title=" ">
<polygon fill="white" stroke="black" points="388.5,-112.5 388.5,-131.5 475.5,-131.5 475.5,-112.5 388.5,-112.5"/>
<text text-anchor="middle" x="432" y="-119.5" font-family="Helvetica,sans-Serif" font-size="10.00">MenuItem.hpp</text>
</a>
</g>
</g>
<!-- Node7&#45;&gt;Node8 -->
<g id="edge7" class="edge">
<title>Node7&#45;&gt;Node8</title>
<path fill="none" stroke="midnightblue" d="M491.59,-168.32C480.89,-160.18 464.66,-147.84 451.84,-138.09"/>
<polygon fill="midnightblue" stroke="midnightblue" points="453.69,-135.1 443.61,-131.83 449.46,-140.67 453.69,-135.1"/>
</g>
<!-- Node11 -->
<g id="node11" class="node">
<title>Node11</title>
<g id="a_node11"><a xlink:href="IKeypad_8hpp.xhtml" target="_top" xlink:title=" ">
<polygon fill="white" stroke="black" points="494,-112.5 494,-131.5 652,-131.5 652,-112.5 494,-112.5"/>
<text text-anchor="middle" x="573" y="-119.5" font-family="Helvetica,sans-Serif" font-size="10.00">user_interaction/IKeypad.hpp</text>
</a>
</g>
</g>
<!-- Node7&#45;&gt;Node11 -->
<g id="edge10" class="edge">
<title>Node7&#45;&gt;Node11</title>
<path fill="none" stroke="midnightblue" d="M514.25,-168.32C524.8,-160.18 540.8,-147.84 553.44,-138.09"/>
<polygon fill="midnightblue" stroke="midnightblue" points="555.77,-140.71 561.55,-131.83 551.49,-135.17 555.77,-140.71"/>
</g>
<!-- Node9 -->
<g id="node9" class="node">
<title>Node9</title>
<g id="a_node9"><a xlink:title=" ">
<polygon fill="white" stroke="#bfbfbf" points="362,-56.5 362,-75.5 406,-75.5 406,-56.5 362,-56.5"/>
<text text-anchor="middle" x="384" y="-63.5" font-family="Helvetica,sans-Serif" font-size="10.00">string</text>
</a>
</g>
</g>
<!-- Node8&#45;&gt;Node9 -->
<g id="edge8" class="edge">
<title>Node8&#45;&gt;Node9</title>
<path fill="none" stroke="midnightblue" d="M424.07,-112.08C417.15,-104.3 406.93,-92.8 398.55,-83.37"/>
<polygon fill="midnightblue" stroke="midnightblue" points="401.04,-80.9 391.78,-75.75 395.81,-85.55 401.04,-80.9"/>
</g>
<!-- Node10 -->
<g id="node10" class="node">
<title>Node10</title>
<g id="a_node10"><a xlink:title=" ">
<polygon fill="white" stroke="#bfbfbf" points="424.5,-56.5 424.5,-75.5 471.5,-75.5 471.5,-56.5 424.5,-56.5"/>
<text text-anchor="middle" x="448" y="-63.5" font-family="Helvetica,sans-Serif" font-size="10.00">vector</text>
</a>
</g>
</g>
<!-- Node8&#45;&gt;Node10 -->
<g id="edge9" class="edge">
<title>Node8&#45;&gt;Node10</title>
<path fill="none" stroke="midnightblue" d="M434.64,-112.08C436.79,-104.85 439.88,-94.41 442.55,-85.4"/>
<polygon fill="midnightblue" stroke="midnightblue" points="445.92,-86.33 445.41,-75.75 439.21,-84.34 445.92,-86.33"/>
</g>
<!-- Node12 -->
<g id="node12" class="node">
<title>Node12</title>
<g id="a_node12"><a xlink:href="KeyIds_8hpp.xhtml" target="_top" xlink:title=" ">
<polygon fill="white" stroke="black" points="522,-56.5 522,-75.5 592,-75.5 592,-56.5 522,-56.5"/>
<text text-anchor="middle" x="557" y="-63.5" font-family="Helvetica,sans-Serif" font-size="10.00">KeyIds.hpp</text>
</a>
</g>
</g>
<!-- Node11&#45;&gt;Node12 -->
<g id="edge11" class="edge">
<title>Node11&#45;&gt;Node12</title>
<path fill="none" stroke="midnightblue" d="M570.36,-112.08C568.21,-104.85 565.12,-94.41 562.45,-85.4"/>
<polygon fill="midnightblue" stroke="midnightblue" points="565.79,-84.34 559.59,-75.75 559.08,-86.33 565.79,-84.34"/>
</g>
<!-- Node14 -->
<g id="node14" class="node">
<title>Node14</title>
<g id="a_node14"><a xlink:title=" ">
<polygon fill="white" stroke="#bfbfbf" points="610.5,-56.5 610.5,-75.5 675.5,-75.5 675.5,-56.5 610.5,-56.5"/>
<text text-anchor="middle" x="643" y="-63.5" font-family="Helvetica,sans-Serif" font-size="10.00">functional</text>
</a>
</g>
</g>
<!-- Node11&#45;&gt;Node14 -->
<g id="edge13" class="edge">
<title>Node11&#45;&gt;Node14</title>
<path fill="none" stroke="midnightblue" d="M584.25,-112.32C594.8,-104.18 610.8,-91.84 623.44,-82.09"/>
<polygon fill="midnightblue" stroke="midnightblue" points="625.77,-84.71 631.55,-75.83 621.49,-79.17 625.77,-84.71"/>
</g>
<!-- Node13 -->
<g id="node13" class="node">
<title>Node13</title>
<g id="a_node13"><a xlink:title=" ">
<polygon fill="white" stroke="#bfbfbf" points="528.5,-0.5 528.5,-19.5 585.5,-19.5 585.5,-0.5 528.5,-0.5"/>
<text text-anchor="middle" x="557" y="-7.5" font-family="Helvetica,sans-Serif" font-size="10.00">ostream</text>
</a>
</g>
</g>
<!-- Node12&#45;&gt;Node13 -->
<g id="edge12" class="edge">
<title>Node12&#45;&gt;Node13</title>
<path fill="none" stroke="midnightblue" d="M557,-56.08C557,-49.01 557,-38.86 557,-29.99"/>
<polygon fill="midnightblue" stroke="midnightblue" points="560.5,-29.75 557,-19.75 553.5,-29.75 560.5,-29.75"/>
</g>
<!-- Node17 -->
<g id="node17" class="node">
<title>Node17</title>
<g id="a_node17"><a xlink:href="board__types_8hpp.xhtml" target="_top" xlink:title=" ">
<polygon fill="white" stroke="black" points="0,-168.5 0,-187.5 98,-187.5 98,-168.5 0,-168.5"/>
<text text-anchor="middle" x="49" y="-175.5" font-family="Helvetica,sans-Serif" font-size="10.00">board_types.hpp</text>
</a>
</g>
</g>
<!-- Node16&#45;&gt;Node17 -->
<g id="edge16" class="edge">
<title>Node16&#45;&gt;Node17</title>
<path fill="none" stroke="midnightblue" d="M117.54,-229.98C104.83,-220.52 84.09,-205.1 68.75,-193.69"/>
<polygon fill="midnightblue" stroke="midnightblue" points="70.55,-190.67 60.44,-187.51 66.38,-196.29 70.55,-190.67"/>
</g>
<!-- Node17&#45;&gt;Node4 -->
<g id="edge17" class="edge">
<title>Node17&#45;&gt;Node4</title>
<path fill="none" stroke="midnightblue" d="M65.87,-168.32C82.71,-159.66 108.81,-146.24 128.24,-136.25"/>
<polygon fill="midnightblue" stroke="midnightblue" points="129.88,-139.34 137.17,-131.65 126.68,-133.12 129.88,-139.34"/>
</g>
<!-- Node18&#45;&gt;Node7 -->
<g id="edge19" class="edge">
<title>Node18&#45;&gt;Node7</title>
<path fill="none" stroke="midnightblue" d="M447.3,-224.4C458.45,-215.31 472.95,-203.49 484.36,-194.19"/>
<polygon fill="midnightblue" stroke="midnightblue" points="486.84,-196.69 492.38,-187.66 482.42,-191.26 486.84,-196.69"/>
</g>
</g>
</svg>
