<?xml version="1.0" encoding="UTF-8" standalone="no"?>
<!DOCTYPE svg PUBLIC "-//W3C//DTD SVG 1.1//EN"
 "http://www.w3.org/Graphics/SVG/1.1/DTD/svg11.dtd">
<!-- Generated by graphviz version 2.43.0 (0)
 -->
<!-- Title: lib/3rd_party_adapters/LVGL/GuiEngine.cpp Pages: 1 -->
<svg width="567pt" height="319pt"
 viewBox="0.00 0.00 567.32 319.00" xmlns="http://www.w3.org/2000/svg" xmlns:xlink="http://www.w3.org/1999/xlink">
<g id="graph0" class="graph" transform="scale(1 1) rotate(0) translate(4 315)">
<title>lib/3rd_party_adapters/LVGL/GuiEngine.cpp</title>
<polygon fill="white" stroke="transparent" points="-4,4 -4,-315 563.32,-315 563.32,4 -4,4"/>
<!-- Node1 -->
<g id="node1" class="node">
<title>Node1</title>
<g id="a_node1"><a xlink:title="Connects LVGL callbacks to display driver and input device.">
<polygon fill="#bfbfbf" stroke="black" points="374,-280.5 374,-310.5 500,-310.5 500,-280.5 374,-280.5"/>
<text text-anchor="start" x="382" y="-298.5" font-family="Helvetica,sans-Serif" font-size="10.00">lib/3rd_party_adapters</text>
<text text-anchor="middle" x="437" y="-287.5" font-family="Helvetica,sans-Serif" font-size="10.00">/LVGL/GuiEngine.cpp</text>
</a>
</g>
</g>
<!-- Node2 -->
<g id="node2" class="node">
<title>Node2</title>
<g id="a_node2"><a xlink:href="GuiEngine_8hpp.xhtml" target="_top" xlink:title=" ">
<polygon fill="white" stroke="black" points="264.5,-224.5 264.5,-243.5 351.5,-243.5 351.5,-224.5 264.5,-224.5"/>
<text text-anchor="middle" x="308" y="-231.5" font-family="Helvetica,sans-Serif" font-size="10.00">GuiEngine.hpp</text>
</a>
</g>
</g>
<!-- Node1&#45;&gt;Node2 -->
<g id="edge1" class="edge">
<title>Node1&#45;&gt;Node2</title>
<path fill="none" stroke="midnightblue" d="M406.43,-280.4C385.07,-270.55 356.78,-257.5 336.02,-247.92"/>
<polygon fill="midnightblue" stroke="midnightblue" points="337.32,-244.67 326.77,-243.66 334.39,-251.02 337.32,-244.67"/>
</g>
<!-- Node3 -->
<g id="node3" class="node">
<title>Node3</title>
<g id="a_node3"><a xlink:title=" ">
<polygon fill="white" stroke="#bfbfbf" points="44.5,-168.5 44.5,-187.5 157.5,-187.5 157.5,-168.5 44.5,-168.5"/>
<text text-anchor="middle" x="101" y="-175.5" font-family="Helvetica,sans-Serif" font-size="10.00">Adafruit_SSD1306.h</text>
</a>
</g>
</g>
<!-- Node1&#45;&gt;Node3 -->
<g id="edge18" class="edge">
<title>Node1&#45;&gt;Node3</title>
<path fill="none" stroke="midnightblue" d="M379.04,-280.45C342.99,-271.21 295.88,-258.23 255,-244 209.74,-228.24 158.8,-205.77 128.33,-191.8"/>
<polygon fill="midnightblue" stroke="midnightblue" points="129.74,-188.59 119.19,-187.58 126.8,-194.95 129.74,-188.59"/>
</g>
<!-- Node8 -->
<g id="node8" class="node">
<title>Node8</title>
<g id="a_node8"><a xlink:href="MenuItem_8hpp.xhtml" target="_top" xlink:title=" ">
<polygon fill="white" stroke="black" points="452.5,-112.5 452.5,-131.5 539.5,-131.5 539.5,-112.5 452.5,-112.5"/>
<text text-anchor="middle" x="496" y="-119.5" font-family="Helvetica,sans-Serif" font-size="10.00">MenuItem.hpp</text>
</a>
</g>
</g>
<!-- Node1&#45;&gt;Node8 -->
<g id="edge19" class="edge">
<title>Node1&#45;&gt;Node8</title>
<path fill="none" stroke="midnightblue" d="M496.24,-280.45C515.3,-272.88 534.46,-261.37 546,-244 564.7,-215.85 562.05,-198.73 548,-168 542.22,-155.36 530.95,-144.91 520.37,-137.27"/>
<polygon fill="midnightblue" stroke="midnightblue" points="522.04,-134.18 511.78,-131.53 518.15,-140 522.04,-134.18"/>
</g>
<!-- Node15 -->
<g id="node15" class="node">
<title>Node15</title>
<g id="a_node15"><a xlink:href="Screen_8hpp.xhtml" target="_top" xlink:title="Converts menu items to LVGL.">
<polygon fill="white" stroke="black" points="466.5,-224.5 466.5,-243.5 537.5,-243.5 537.5,-224.5 466.5,-224.5"/>
<text text-anchor="middle" x="502" y="-231.5" font-family="Helvetica,sans-Serif" font-size="10.00">Screen.hpp</text>
</a>
</g>
</g>
<!-- Node1&#45;&gt;Node15 -->
<g id="edge15" class="edge">
<title>Node1&#45;&gt;Node15</title>
<path fill="none" stroke="midnightblue" d="M452.4,-280.4C462.24,-271.4 474.99,-259.72 485.11,-250.47"/>
<polygon fill="midnightblue" stroke="midnightblue" points="487.53,-252.99 492.54,-243.66 482.8,-247.83 487.53,-252.99"/>
</g>
<!-- Node2&#45;&gt;Node3 -->
<g id="edge2" class="edge">
<title>Node2&#45;&gt;Node3</title>
<path fill="none" stroke="midnightblue" d="M275.2,-224.44C239.62,-215.16 182.69,-200.31 143.65,-190.13"/>
<polygon fill="midnightblue" stroke="midnightblue" points="144.21,-186.65 133.65,-187.52 142.44,-193.43 144.21,-186.65"/>
</g>
<!-- Node4 -->
<g id="node4" class="node">
<title>Node4</title>
<g id="a_node4"><a xlink:title=" ">
<polygon fill="white" stroke="#bfbfbf" points="229,-56.5 229,-75.5 279,-75.5 279,-56.5 229,-56.5"/>
<text text-anchor="middle" x="254" y="-63.5" font-family="Helvetica,sans-Serif" font-size="10.00">cstdint</text>
</a>
</g>
</g>
<!-- Node2&#45;&gt;Node4 -->
<g id="edge3" class="edge">
<title>Node2&#45;&gt;Node4</title>
<path fill="none" stroke="midnightblue" d="M264.39,-225.52C242.63,-219.35 218.2,-208.17 205,-188 182.58,-153.73 216.22,-107.56 237.95,-83.35"/>
<polygon fill="midnightblue" stroke="midnightblue" points="240.77,-85.47 245.03,-75.77 235.65,-80.69 240.77,-85.47"/>
</g>
<!-- Node5 -->
<g id="node5" class="node">
<title>Node5</title>
<g id="a_node5"><a xlink:title=" ">
<polygon fill="white" stroke="#bfbfbf" points="480,-168.5 480,-187.5 524,-187.5 524,-168.5 480,-168.5"/>
<text text-anchor="middle" x="502" y="-175.5" font-family="Helvetica,sans-Serif" font-size="10.00">lvgl.h</text>
</a>
</g>
</g>
<!-- Node2&#45;&gt;Node5 -->
<g id="edge4" class="edge">
<title>Node2&#45;&gt;Node5</title>
<path fill="none" stroke="midnightblue" d="M339.28,-224.5C370.13,-216.08 418.88,-202.7 470.07,-188.24"/>
<polygon fill="midnightblue" stroke="midnightblue" points="471.33,-191.52 479.99,-185.43 469.42,-184.78 471.33,-191.52"/>
</g>
<!-- Node6 -->
<g id="node6" class="node">
<title>Node6</title>
<g id="a_node6"><a xlink:title=" ">
<polygon fill="white" stroke="#bfbfbf" points="214,-168.5 214,-187.5 272,-187.5 272,-168.5 214,-168.5"/>
<text text-anchor="middle" x="243" y="-175.5" font-family="Helvetica,sans-Serif" font-size="10.00">memory</text>
</a>
</g>
</g>
<!-- Node2&#45;&gt;Node6 -->
<g id="edge5" class="edge">
<title>Node2&#45;&gt;Node6</title>
<path fill="none" stroke="midnightblue" d="M297.56,-224.32C287.85,-216.26 273.18,-204.08 261.5,-194.37"/>
<polygon fill="midnightblue" stroke="midnightblue" points="263.56,-191.53 253.63,-187.83 259.09,-196.92 263.56,-191.53"/>
</g>
<!-- Node7 -->
<g id="node7" class="node">
<title>Node7</title>
<g id="a_node7"><a xlink:href="IGuiEngine_8hpp.xhtml" target="_top" xlink:title=" ">
<polygon fill="white" stroke="black" points="290,-168.5 290,-187.5 462,-187.5 462,-168.5 290,-168.5"/>
<text text-anchor="middle" x="376" y="-175.5" font-family="Helvetica,sans-Serif" font-size="10.00">user_interaction/IGuiEngine.hpp</text>
</a>
</g>
</g>
<!-- Node2&#45;&gt;Node7 -->
<g id="edge6" class="edge">
<title>Node2&#45;&gt;Node7</title>
<path fill="none" stroke="midnightblue" d="M318.93,-224.32C329.17,-216.18 344.72,-203.84 357,-194.09"/>
<polygon fill="midnightblue" stroke="midnightblue" points="359.22,-196.79 364.88,-187.83 354.87,-191.31 359.22,-196.79"/>
</g>
<!-- Node7&#45;&gt;Node8 -->
<g id="edge7" class="edge">
<title>Node7&#45;&gt;Node8</title>
<path fill="none" stroke="midnightblue" d="M395.01,-168.44C414.59,-159.64 445.31,-145.81 467.73,-135.72"/>
<polygon fill="midnightblue" stroke="midnightblue" points="469.39,-138.81 477.07,-131.52 466.52,-132.43 469.39,-138.81"/>
</g>
<!-- Node11 -->
<g id="node11" class="node">
<title>Node11</title>
<g id="a_node11"><a xlink:href="IKeypad_8hpp.xhtml" target="_top" xlink:title=" ">
<polygon fill="white" stroke="black" points="0,-112.5 0,-131.5 158,-131.5 158,-112.5 0,-112.5"/>
<text text-anchor="middle" x="79" y="-119.5" font-family="Helvetica,sans-Serif" font-size="10.00">user_interaction/IKeypad.hpp</text>
</a>
</g>
</g>
<!-- Node7&#45;&gt;Node11 -->
<g id="edge11" class="edge">
<title>Node7&#45;&gt;Node11</title>
<path fill="none" stroke="midnightblue" d="M328.94,-168.44C276.59,-158.92 192.01,-143.55 135.96,-133.36"/>
<polygon fill="midnightblue" stroke="midnightblue" points="136.31,-129.86 125.84,-131.52 135.05,-136.75 136.31,-129.86"/>
</g>
<!-- Node8&#45;&gt;Node4 -->
<g id="edge8" class="edge">
<title>Node8&#45;&gt;Node4</title>
<path fill="none" stroke="midnightblue" d="M457.65,-112.44C411.29,-102.1 333.9,-84.83 289.06,-74.82"/>
<polygon fill="midnightblue" stroke="midnightblue" points="289.73,-71.39 279.21,-72.62 288.2,-78.22 289.73,-71.39"/>
</g>
<!-- Node9 -->
<g id="node9" class="node">
<title>Node9</title>
<g id="a_node9"><a xlink:title=" ">
<polygon fill="white" stroke="#bfbfbf" points="506,-56.5 506,-75.5 550,-75.5 550,-56.5 506,-56.5"/>
<text text-anchor="middle" x="528" y="-63.5" font-family="Helvetica,sans-Serif" font-size="10.00">string</text>
</a>
</g>
</g>
<!-- Node8&#45;&gt;Node9 -->
<g id="edge9" class="edge">
<title>Node8&#45;&gt;Node9</title>
<path fill="none" stroke="midnightblue" d="M501.28,-112.08C505.71,-104.61 512.16,-93.72 517.62,-84.52"/>
<polygon fill="midnightblue" stroke="midnightblue" points="520.73,-86.14 522.81,-75.75 514.71,-82.57 520.73,-86.14"/>
</g>
<!-- Node10 -->
<g id="node10" class="node">
<title>Node10</title>
<g id="a_node10"><a xlink:title=" ">
<polygon fill="white" stroke="#bfbfbf" points="440.5,-56.5 440.5,-75.5 487.5,-75.5 487.5,-56.5 440.5,-56.5"/>
<text text-anchor="middle" x="464" y="-63.5" font-family="Helvetica,sans-Serif" font-size="10.00">vector</text>
</a>
</g>
</g>
<!-- Node8&#45;&gt;Node10 -->
<g id="edge10" class="edge">
<title>Node8&#45;&gt;Node10</title>
<path fill="none" stroke="midnightblue" d="M490.72,-112.08C486.29,-104.61 479.84,-93.72 474.38,-84.52"/>
<polygon fill="midnightblue" stroke="midnightblue" points="477.29,-82.57 469.19,-75.75 471.27,-86.14 477.29,-82.57"/>
</g>
<!-- Node12 -->
<g id="node12" class="node">
<title>Node12</title>
<g id="a_node12"><a xlink:href="KeyIds_8hpp.xhtml" target="_top" xlink:title=" ">
<polygon fill="white" stroke="black" points="1,-56.5 1,-75.5 71,-75.5 71,-56.5 1,-56.5"/>
<text text-anchor="middle" x="36" y="-63.5" font-family="Helvetica,sans-Serif" font-size="10.00">KeyIds.hpp</text>
</a>
</g>
</g>
<!-- Node11&#45;&gt;Node12 -->
<g id="edge12" class="edge">
<title>Node11&#45;&gt;Node12</title>
<path fill="none" stroke="midnightblue" d="M71.9,-112.08C65.76,-104.38 56.73,-93.03 49.26,-83.65"/>
<polygon fill="midnightblue" stroke="midnightblue" points="51.94,-81.39 42.97,-75.75 46.46,-85.75 51.94,-81.39"/>
</g>
<!-- Node14 -->
<g id="node14" class="node">
<title>Node14</title>
<g id="a_node14"><a xlink:title=" ">
<polygon fill="white" stroke="#bfbfbf" points="89.5,-56.5 89.5,-75.5 154.5,-75.5 154.5,-56.5 89.5,-56.5"/>
<text text-anchor="middle" x="122" y="-63.5" font-family="Helvetica,sans-Serif" font-size="10.00">functional</text>
</a>
</g>
</g>
<!-- Node11&#45;&gt;Node14 -->
<g id="edge14" class="edge">
<title>Node11&#45;&gt;Node14</title>
<path fill="none" stroke="midnightblue" d="M86.1,-112.08C92.24,-104.38 101.27,-93.03 108.74,-83.65"/>
<polygon fill="midnightblue" stroke="midnightblue" points="111.54,-85.75 115.03,-75.75 106.06,-81.39 111.54,-85.75"/>
</g>
<!-- Node13 -->
<g id="node13" class="node">
<title>Node13</title>
<g id="a_node13"><a xlink:title=" ">
<polygon fill="white" stroke="#bfbfbf" points="7.5,-0.5 7.5,-19.5 64.5,-19.5 64.5,-0.5 7.5,-0.5"/>
<text text-anchor="middle" x="36" y="-7.5" font-family="Helvetica,sans-Serif" font-size="10.00">ostream</text>
</a>
</g>
</g>
<!-- Node12&#45;&gt;Node13 -->
<g id="edge13" class="edge">
<title>Node12&#45;&gt;Node13</title>
<path fill="none" stroke="midnightblue" d="M36,-56.08C36,-49.01 36,-38.86 36,-29.99"/>
<polygon fill="midnightblue" stroke="midnightblue" points="39.5,-29.75 36,-19.75 32.5,-29.75 39.5,-29.75"/>
</g>
<!-- Node15&#45;&gt;Node5 -->
<g id="edge16" class="edge">
<title>Node15&#45;&gt;Node5</title>
<path fill="none" stroke="midnightblue" d="M502,-224.08C502,-217.01 502,-206.86 502,-197.99"/>
<polygon fill="midnightblue" stroke="midnightblue" points="505.5,-197.75 502,-187.75 498.5,-197.75 505.5,-197.75"/>
</g>
<!-- Node15&#45;&gt;Node8 -->
<g id="edge17" class="edge">
<title>Node15&#45;&gt;Node8</title>
<path fill="none" stroke="midnightblue" d="M510.97,-224.41C522.59,-212.19 540.51,-188.95 533,-168 529.06,-157 521.14,-146.77 513.64,-138.85"/>
<polygon fill="midnightblue" stroke="midnightblue" points="516.02,-136.28 506.44,-131.76 511.11,-141.27 516.02,-136.28"/>
</g>
</g>
</svg>
