<?xml version="1.0" encoding="UTF-8" standalone="no"?>
<!DOCTYPE svg PUBLIC "-//W3C//DTD SVG 1.1//EN"
 "http://www.w3.org/Graphics/SVG/1.1/DTD/svg11.dtd">
<!-- Generated by graphviz version 2.43.0 (0)
 -->
<!-- Title: lib/3rd_party_adapters/LVGL/GuiEngine.cpp Pages: 1 -->
<svg width="567pt" height="319pt"
 viewBox="0.00 0.00 567.43 319.00" xmlns="http://www.w3.org/2000/svg" xmlns:xlink="http://www.w3.org/1999/xlink">
<g id="graph0" class="graph" transform="scale(1 1) rotate(0) translate(4 315)">
<title>lib/3rd_party_adapters/LVGL/GuiEngine.cpp</title>
<polygon fill="white" stroke="transparent" points="-4,4 -4,-315 563.43,-315 563.43,4 -4,4"/>
<!-- Node1 -->
<g id="node1" class="node">
<title>Node1</title>
<g id="a_node1"><a xlink:title="Connects LVGL callbacks to display driver and input device.">
<polygon fill="#bfbfbf" stroke="black" points="314,-280.5 314,-310.5 440,-310.5 440,-280.5 314,-280.5"/>
<text text-anchor="start" x="322" y="-298.5" font-family="Helvetica,sans-Serif" font-size="10.00">lib/3rd_party_adapters</text>
<text text-anchor="middle" x="377" y="-287.5" font-family="Helvetica,sans-Serif" font-size="10.00">/LVGL/GuiEngine.cpp</text>
</a>
</g>
</g>
<!-- Node2 -->
<g id="node2" class="node">
<title>Node2</title>
<g id="a_node2"><a xlink:href="GuiEngine_8hpp.xhtml" target="_top" xlink:title=" ">
<polygon fill="white" stroke="black" points="270.5,-224.5 270.5,-243.5 357.5,-243.5 357.5,-224.5 270.5,-224.5"/>
<text text-anchor="middle" x="314" y="-231.5" font-family="Helvetica,sans-Serif" font-size="10.00">GuiEngine.hpp</text>
</a>
</g>
</g>
<!-- Node1&#45;&gt;Node2 -->
<g id="edge1" class="edge">
<title>Node1&#45;&gt;Node2</title>
<path fill="none" stroke="midnightblue" d="M362.07,-280.4C352.63,-271.49 340.42,-259.95 330.67,-250.74"/>
<polygon fill="midnightblue" stroke="midnightblue" points="332.84,-247.98 323.17,-243.66 328.03,-253.07 332.84,-247.98"/>
</g>
<!-- Node3 -->
<g id="node3" class="node">
<title>Node3</title>
<g id="a_node3"><a xlink:title=" ">
<polygon fill="white" stroke="#bfbfbf" points="44.5,-168.5 44.5,-187.5 157.5,-187.5 157.5,-168.5 44.5,-168.5"/>
<text text-anchor="middle" x="101" y="-175.5" font-family="Helvetica,sans-Serif" font-size="10.00">Adafruit_SSD1306.h</text>
</a>
</g>
</g>
<!-- Node1&#45;&gt;Node3 -->
<g id="edge19" class="edge">
<title>Node1&#45;&gt;Node3</title>
<path fill="none" stroke="midnightblue" d="M343.43,-280.45C289.04,-257.69 182.53,-213.12 130.72,-191.44"/>
<polygon fill="midnightblue" stroke="midnightblue" points="131.99,-188.17 121.41,-187.54 129.29,-194.63 131.99,-188.17"/>
</g>
<!-- Node8 -->
<g id="node8" class="node">
<title>Node8</title>
<g id="a_node8"><a xlink:href="MenuItem_8hpp.xhtml" target="_top" xlink:title=" ">
<polygon fill="white" stroke="black" points="294.5,-112.5 294.5,-131.5 381.5,-131.5 381.5,-112.5 294.5,-112.5"/>
<text text-anchor="middle" x="338" y="-119.5" font-family="Helvetica,sans-Serif" font-size="10.00">MenuItem.hpp</text>
</a>
</g>
</g>
<!-- Node1&#45;&gt;Node8 -->
<g id="edge20" class="edge">
<title>Node1&#45;&gt;Node8</title>
<path fill="none" stroke="midnightblue" d="M427.55,-280.45C491.97,-260.07 590.33,-219.07 549,-168 529.59,-144.02 447.78,-132.26 391.92,-126.93"/>
<polygon fill="midnightblue" stroke="midnightblue" points="392.09,-123.44 381.81,-126.01 391.45,-130.41 392.09,-123.44"/>
</g>
<!-- Node15 -->
<g id="node15" class="node">
<title>Node15</title>
<g id="a_node15"><a xlink:href="Screen_8hpp.xhtml" target="_top" xlink:title="Converts menu items to LVGL.">
<polygon fill="white" stroke="black" points="424.5,-224.5 424.5,-243.5 495.5,-243.5 495.5,-224.5 424.5,-224.5"/>
<text text-anchor="middle" x="460" y="-231.5" font-family="Helvetica,sans-Serif" font-size="10.00">Screen.hpp</text>
</a>
</g>
</g>
<!-- Node1&#45;&gt;Node15 -->
<g id="edge15" class="edge">
<title>Node1&#45;&gt;Node15</title>
<path fill="none" stroke="midnightblue" d="M396.67,-280.4C409.6,-271.13 426.49,-259.03 439.57,-249.65"/>
<polygon fill="midnightblue" stroke="midnightblue" points="441.83,-252.33 447.92,-243.66 437.76,-246.64 441.83,-252.33"/>
</g>
<!-- Node2&#45;&gt;Node3 -->
<g id="edge2" class="edge">
<title>Node2&#45;&gt;Node3</title>
<path fill="none" stroke="midnightblue" d="M280.25,-224.44C243.48,-215.12 184.55,-200.18 144.38,-190"/>
<polygon fill="midnightblue" stroke="midnightblue" points="145.15,-186.58 134.59,-187.52 143.43,-193.37 145.15,-186.58"/>
</g>
<!-- Node4 -->
<g id="node4" class="node">
<title>Node4</title>
<g id="a_node4"><a xlink:title=" ">
<polygon fill="white" stroke="#bfbfbf" points="217,-56.5 217,-75.5 267,-75.5 267,-56.5 217,-56.5"/>
<text text-anchor="middle" x="242" y="-63.5" font-family="Helvetica,sans-Serif" font-size="10.00">cstdint</text>
</a>
</g>
</g>
<!-- Node2&#45;&gt;Node4 -->
<g id="edge3" class="edge">
<title>Node2&#45;&gt;Node4</title>
<path fill="none" stroke="midnightblue" d="M270.43,-226.84C246.82,-221.03 219.57,-209.78 205,-188 182.92,-154.99 210.48,-108.25 228.58,-83.64"/>
<polygon fill="midnightblue" stroke="midnightblue" points="231.41,-85.71 234.71,-75.65 225.85,-81.45 231.41,-85.71"/>
</g>
<!-- Node5 -->
<g id="node5" class="node">
<title>Node5</title>
<g id="a_node5"><a xlink:title=" ">
<polygon fill="white" stroke="#bfbfbf" points="404,-168.5 404,-187.5 448,-187.5 448,-168.5 404,-168.5"/>
<text text-anchor="middle" x="426" y="-175.5" font-family="Helvetica,sans-Serif" font-size="10.00">lvgl.h</text>
</a>
</g>
</g>
<!-- Node2&#45;&gt;Node5 -->
<g id="edge4" class="edge">
<title>Node2&#45;&gt;Node5</title>
<path fill="none" stroke="midnightblue" d="M331.99,-224.32C350.04,-215.62 378.05,-202.12 398.8,-192.11"/>
<polygon fill="midnightblue" stroke="midnightblue" points="400.56,-195.15 408.05,-187.65 397.52,-188.84 400.56,-195.15"/>
</g>
<!-- Node6 -->
<g id="node6" class="node">
<title>Node6</title>
<g id="a_node6"><a xlink:title=" ">
<polygon fill="white" stroke="#bfbfbf" points="466,-168.5 466,-187.5 524,-187.5 524,-168.5 466,-168.5"/>
<text text-anchor="middle" x="495" y="-175.5" font-family="Helvetica,sans-Serif" font-size="10.00">memory</text>
</a>
</g>
</g>
<!-- Node2&#45;&gt;Node6 -->
<g id="edge5" class="edge">
<title>Node2&#45;&gt;Node6</title>
<path fill="none" stroke="midnightblue" d="M342.68,-224.44C373.53,-215.24 422.73,-200.56 456.83,-190.39"/>
<polygon fill="midnightblue" stroke="midnightblue" points="457.87,-193.73 466.45,-187.52 455.87,-187.02 457.87,-193.73"/>
</g>
<!-- Node7 -->
<g id="node7" class="node">
<title>Node7</title>
<g id="a_node7"><a xlink:href="IGuiEngine_8hpp.xhtml" target="_top" xlink:title=" ">
<polygon fill="white" stroke="black" points="214,-168.5 214,-187.5 386,-187.5 386,-168.5 214,-168.5"/>
<text text-anchor="middle" x="300" y="-175.5" font-family="Helvetica,sans-Serif" font-size="10.00">user_interaction/IGuiEngine.hpp</text>
</a>
</g>
</g>
<!-- Node2&#45;&gt;Node7 -->
<g id="edge6" class="edge">
<title>Node2&#45;&gt;Node7</title>
<path fill="none" stroke="midnightblue" d="M311.69,-224.08C309.83,-216.93 307.16,-206.64 304.85,-197.69"/>
<polygon fill="midnightblue" stroke="midnightblue" points="308.17,-196.55 302.27,-187.75 301.39,-198.31 308.17,-196.55"/>
</g>
<!-- Node7&#45;&gt;Node8 -->
<g id="edge7" class="edge">
<title>Node7&#45;&gt;Node8</title>
<path fill="none" stroke="midnightblue" d="M306.27,-168.08C311.64,-160.46 319.52,-149.26 326.08,-139.94"/>
<polygon fill="midnightblue" stroke="midnightblue" points="328.95,-141.94 331.84,-131.75 323.22,-137.91 328.95,-141.94"/>
</g>
<!-- Node11 -->
<g id="node11" class="node">
<title>Node11</title>
<g id="a_node11"><a xlink:href="IKeypad_8hpp.xhtml" target="_top" xlink:title=" ">
<polygon fill="white" stroke="black" points="0,-112.5 0,-131.5 158,-131.5 158,-112.5 0,-112.5"/>
<text text-anchor="middle" x="79" y="-119.5" font-family="Helvetica,sans-Serif" font-size="10.00">user_interaction/IKeypad.hpp</text>
</a>
</g>
</g>
<!-- Node7&#45;&gt;Node11 -->
<g id="edge11" class="edge">
<title>Node7&#45;&gt;Node11</title>
<path fill="none" stroke="midnightblue" d="M264.98,-168.44C226.75,-159.1 165.43,-144.12 123.74,-133.93"/>
<polygon fill="midnightblue" stroke="midnightblue" points="124.4,-130.49 113.85,-131.52 122.74,-137.29 124.4,-130.49"/>
</g>
<!-- Node8&#45;&gt;Node4 -->
<g id="edge8" class="edge">
<title>Node8&#45;&gt;Node4</title>
<path fill="none" stroke="midnightblue" d="M322.58,-112.32C307.46,-103.82 284.18,-90.73 266.53,-80.8"/>
<polygon fill="midnightblue" stroke="midnightblue" points="267.82,-77.51 257.39,-75.65 264.39,-83.61 267.82,-77.51"/>
</g>
<!-- Node9 -->
<g id="node9" class="node">
<title>Node9</title>
<g id="a_node9"><a xlink:title=" ">
<polygon fill="white" stroke="#bfbfbf" points="370,-56.5 370,-75.5 414,-75.5 414,-56.5 370,-56.5"/>
<text text-anchor="middle" x="392" y="-63.5" font-family="Helvetica,sans-Serif" font-size="10.00">string</text>
</a>
</g>
</g>
<!-- Node8&#45;&gt;Node9 -->
<g id="edge9" class="edge">
<title>Node8&#45;&gt;Node9</title>
<path fill="none" stroke="midnightblue" d="M346.92,-112.08C354.78,-104.22 366.43,-92.57 375.92,-83.08"/>
<polygon fill="midnightblue" stroke="midnightblue" points="378.65,-85.3 383.25,-75.75 373.7,-80.35 378.65,-85.3"/>
</g>
<!-- Node10 -->
<g id="node10" class="node">
<title>Node10</title>
<g id="a_node10"><a xlink:title=" ">
<polygon fill="white" stroke="#bfbfbf" points="304.5,-56.5 304.5,-75.5 351.5,-75.5 351.5,-56.5 304.5,-56.5"/>
<text text-anchor="middle" x="328" y="-63.5" font-family="Helvetica,sans-Serif" font-size="10.00">vector</text>
</a>
</g>
</g>
<!-- Node8&#45;&gt;Node10 -->
<g id="edge10" class="edge">
<title>Node8&#45;&gt;Node10</title>
<path fill="none" stroke="midnightblue" d="M336.35,-112.08C335.02,-104.93 333.12,-94.64 331.46,-85.69"/>
<polygon fill="midnightblue" stroke="midnightblue" points="334.88,-84.95 329.62,-75.75 328,-86.22 334.88,-84.95"/>
</g>
<!-- Node12 -->
<g id="node12" class="node">
<title>Node12</title>
<g id="a_node12"><a xlink:href="KeyIds_8hpp.xhtml" target="_top" xlink:title=" ">
<polygon fill="white" stroke="black" points="6,-56.5 6,-75.5 76,-75.5 76,-56.5 6,-56.5"/>
<text text-anchor="middle" x="41" y="-63.5" font-family="Helvetica,sans-Serif" font-size="10.00">KeyIds.hpp</text>
</a>
</g>
</g>
<!-- Node11&#45;&gt;Node12 -->
<g id="edge12" class="edge">
<title>Node11&#45;&gt;Node12</title>
<path fill="none" stroke="midnightblue" d="M72.73,-112.08C67.36,-104.46 59.48,-93.26 52.92,-83.94"/>
<polygon fill="midnightblue" stroke="midnightblue" points="55.78,-81.91 47.16,-75.75 50.05,-85.94 55.78,-81.91"/>
</g>
<!-- Node14 -->
<g id="node14" class="node">
<title>Node14</title>
<g id="a_node14"><a xlink:title=" ">
<polygon fill="white" stroke="#bfbfbf" points="94.5,-56.5 94.5,-75.5 159.5,-75.5 159.5,-56.5 94.5,-56.5"/>
<text text-anchor="middle" x="127" y="-63.5" font-family="Helvetica,sans-Serif" font-size="10.00">functional</text>
</a>
</g>
</g>
<!-- Node11&#45;&gt;Node14 -->
<g id="edge14" class="edge">
<title>Node11&#45;&gt;Node14</title>
<path fill="none" stroke="midnightblue" d="M86.93,-112.08C93.85,-104.3 104.07,-92.8 112.45,-83.37"/>
<polygon fill="midnightblue" stroke="midnightblue" points="115.19,-85.55 119.22,-75.75 109.96,-80.9 115.19,-85.55"/>
</g>
<!-- Node13 -->
<g id="node13" class="node">
<title>Node13</title>
<g id="a_node13"><a xlink:title=" ">
<polygon fill="white" stroke="#bfbfbf" points="12.5,-0.5 12.5,-19.5 69.5,-19.5 69.5,-0.5 12.5,-0.5"/>
<text text-anchor="middle" x="41" y="-7.5" font-family="Helvetica,sans-Serif" font-size="10.00">ostream</text>
</a>
</g>
</g>
<!-- Node12&#45;&gt;Node13 -->
<g id="edge13" class="edge">
<title>Node12&#45;&gt;Node13</title>
<path fill="none" stroke="midnightblue" d="M41,-56.08C41,-49.01 41,-38.86 41,-29.99"/>
<polygon fill="midnightblue" stroke="midnightblue" points="44.5,-29.75 41,-19.75 37.5,-29.75 44.5,-29.75"/>
</g>
<!-- Node15&#45;&gt;Node5 -->
<g id="edge16" class="edge">
<title>Node15&#45;&gt;Node5</title>
<path fill="none" stroke="midnightblue" d="M454.39,-224.08C449.63,-216.53 442.68,-205.49 436.85,-196.23"/>
<polygon fill="midnightblue" stroke="midnightblue" points="439.8,-194.35 431.51,-187.75 433.88,-198.08 439.8,-194.35"/>
</g>
<!-- Node15&#45;&gt;Node6 -->
<g id="edge17" class="edge">
<title>Node15&#45;&gt;Node6</title>
<path fill="none" stroke="midnightblue" d="M465.78,-224.08C470.67,-216.53 477.83,-205.49 483.83,-196.23"/>
<polygon fill="midnightblue" stroke="midnightblue" points="486.83,-198.05 489.33,-187.75 480.95,-194.24 486.83,-198.05"/>
</g>
<!-- Node15&#45;&gt;Node8 -->
<g id="edge18" class="edge">
<title>Node15&#45;&gt;Node8</title>
<path fill="none" stroke="midnightblue" d="M483.33,-224.38C511.05,-212.83 551.38,-191.11 533,-168 515.61,-146.14 443.15,-133.99 391.65,-127.97"/>
<polygon fill="midnightblue" stroke="midnightblue" points="391.98,-124.49 381.65,-126.85 391.2,-131.45 391.98,-124.49"/>
</g>
</g>
</svg>
