<?xml version="1.0" encoding="UTF-8" standalone="no"?>
<!DOCTYPE svg PUBLIC "-//W3C//DTD SVG 1.1//EN"
 "http://www.w3.org/Graphics/SVG/1.1/DTD/svg11.dtd">
<!-- Generated by graphviz version 2.43.0 (0)
 -->
<!-- Title: lib/application_business_rules/user_interaction/IGuiEngine.hpp Pages: 1 -->
<svg width="798pt" height="284pt"
 viewBox="0.00 0.00 798.00 284.00" xmlns="http://www.w3.org/2000/svg" xmlns:xlink="http://www.w3.org/1999/xlink">
<g id="graph0" class="graph" transform="scale(1 1) rotate(0) translate(4 280)">
<title>lib/application_business_rules/user_interaction/IGuiEngine.hpp</title>
<polygon fill="white" stroke="transparent" points="-4,4 -4,-280 794,-280 794,4 -4,4"/>
<!-- Node1 -->
<g id="node1" class="node">
<title>Node1</title>
<g id="a_node1"><a xlink:title=" ">
<polygon fill="#bfbfbf" stroke="black" points="239,-234.5 239,-275.5 373,-275.5 373,-234.5 239,-234.5"/>
<text text-anchor="start" x="247" y="-263.5" font-family="Helvetica,sans-Serif" font-size="10.00">lib/application_business</text>
<text text-anchor="start" x="247" y="-252.5" font-family="Helvetica,sans-Serif" font-size="10.00">_rules/user_interaction</text>
<text text-anchor="middle" x="306" y="-241.5" font-family="Helvetica,sans-Serif" font-size="10.00">/IGuiEngine.hpp</text>
</a>
</g>
</g>
<!-- Node2 -->
<g id="node2" class="node">
<title>Node2</title>
<g id="a_node2"><a xlink:href="GuiEngine_8hpp.xhtml" target="_top" xlink:title=" ">
<polygon fill="white" stroke="black" points="73,-162 73,-192 199,-192 199,-162 73,-162"/>
<text text-anchor="start" x="81" y="-180" font-family="Helvetica,sans-Serif" font-size="10.00">lib/3rd_party_adapters</text>
<text text-anchor="middle" x="136" y="-169" font-family="Helvetica,sans-Serif" font-size="10.00">/LVGL/GuiEngine.hpp</text>
</a>
</g>
</g>
<!-- Node1&#45;&gt;Node2 -->
<g id="edge1" class="edge">
<title>Node1&#45;&gt;Node2</title>
<path fill="none" stroke="midnightblue" d="M252.95,-230.28C224.93,-217.76 191.48,-202.81 167.55,-192.11"/>
<polygon fill="midnightblue" stroke="midnightblue" points="251.66,-233.54 262.22,-234.43 254.52,-227.15 251.66,-233.54"/>
</g>
<!-- Node5 -->
<g id="node5" class="node">
<title>Node5</title>
<g id="a_node5"><a xlink:href="guiEngine__factory__interface_8hpp.xhtml" target="_top" xlink:title="Dependency injection for the guiEngine.">
<polygon fill="white" stroke="black" points="217.5,-156.5 217.5,-197.5 394.5,-197.5 394.5,-156.5 217.5,-156.5"/>
<text text-anchor="start" x="225.5" y="-185.5" font-family="Helvetica,sans-Serif" font-size="10.00">lib/application_business</text>
<text text-anchor="start" x="225.5" y="-174.5" font-family="Helvetica,sans-Serif" font-size="10.00">_rules/user_interaction</text>
<text text-anchor="middle" x="306" y="-163.5" font-family="Helvetica,sans-Serif" font-size="10.00">/guiEngine_factory_interface.hpp</text>
</a>
</g>
</g>
<!-- Node1&#45;&gt;Node5 -->
<g id="edge4" class="edge">
<title>Node1&#45;&gt;Node5</title>
<path fill="none" stroke="midnightblue" d="M306,-224.3C306,-215.3 306,-205.65 306,-197.51"/>
<polygon fill="midnightblue" stroke="midnightblue" points="302.5,-224.43 306,-234.43 309.5,-224.43 302.5,-224.43"/>
</g>
<!-- Node8 -->
<g id="node8" class="node">
<title>Node8</title>
<g id="a_node8"><a xlink:href="Menu_8hpp.xhtml" target="_top" xlink:title=" ">
<polygon fill="white" stroke="black" points="413,-156.5 413,-197.5 547,-197.5 547,-156.5 413,-156.5"/>
<text text-anchor="start" x="421" y="-185.5" font-family="Helvetica,sans-Serif" font-size="10.00">lib/application_business</text>
<text text-anchor="start" x="421" y="-174.5" font-family="Helvetica,sans-Serif" font-size="10.00">_rules/user_interaction</text>
<text text-anchor="middle" x="480" y="-163.5" font-family="Helvetica,sans-Serif" font-size="10.00">/Menu.hpp</text>
</a>
</g>
</g>
<!-- Node1&#45;&gt;Node8 -->
<g id="edge8" class="edge">
<title>Node1&#45;&gt;Node8</title>
<path fill="none" stroke="midnightblue" d="M360.19,-230.33C384.34,-219.78 412.43,-207.51 435.34,-197.51"/>
<polygon fill="midnightblue" stroke="midnightblue" points="358.57,-227.22 350.81,-234.43 361.37,-233.63 358.57,-227.22"/>
</g>
<!-- Node3 -->
<g id="node3" class="node">
<title>Node3</title>
<g id="a_node3"><a xlink:href="GuiEngine_8cpp.xhtml" target="_top" xlink:title=" ">
<polygon fill="white" stroke="black" points="0,-84 0,-114 126,-114 126,-84 0,-84"/>
<text text-anchor="start" x="8" y="-102" font-family="Helvetica,sans-Serif" font-size="10.00">lib/3rd_party_adapters</text>
<text text-anchor="middle" x="63" y="-91" font-family="Helvetica,sans-Serif" font-size="10.00">/LVGL/GuiEngine.cpp</text>
</a>
</g>
</g>
<!-- Node2&#45;&gt;Node3 -->
<g id="edge2" class="edge">
<title>Node2&#45;&gt;Node3</title>
<path fill="none" stroke="midnightblue" d="M115.03,-154.17C102.7,-141.33 87.46,-125.47 76.67,-114.23"/>
<polygon fill="midnightblue" stroke="midnightblue" points="112.82,-156.92 122.27,-161.7 117.87,-152.07 112.82,-156.92"/>
</g>
<!-- Node4 -->
<g id="node4" class="node">
<title>Node4</title>
<g id="a_node4"><a xlink:href="guiEngine__factory__interface_8cpp.xhtml" target="_top" xlink:title=" ">
<polygon fill="white" stroke="black" points="144,-78.5 144,-119.5 278,-119.5 278,-78.5 144,-78.5"/>
<text text-anchor="start" x="152" y="-107.5" font-family="Helvetica,sans-Serif" font-size="10.00">lib/3rd_party_adapters</text>
<text text-anchor="start" x="152" y="-96.5" font-family="Helvetica,sans-Serif" font-size="10.00">/LVGL/guiEngine_factory</text>
<text text-anchor="middle" x="211" y="-85.5" font-family="Helvetica,sans-Serif" font-size="10.00">_interface.cpp</text>
</a>
</g>
</g>
<!-- Node2&#45;&gt;Node4 -->
<g id="edge3" class="edge">
<title>Node2&#45;&gt;Node4</title>
<path fill="none" stroke="midnightblue" d="M157.17,-154.55C167.98,-143.6 181.03,-130.37 191.58,-119.68"/>
<polygon fill="midnightblue" stroke="midnightblue" points="154.64,-152.13 150.11,-161.7 159.62,-157.05 154.64,-152.13"/>
</g>
<!-- Node5&#45;&gt;Node4 -->
<g id="edge5" class="edge">
<title>Node5&#45;&gt;Node4</title>
<path fill="none" stroke="midnightblue" d="M273.58,-150.06C261.07,-140.06 247.01,-128.8 235.38,-119.51"/>
<polygon fill="midnightblue" stroke="midnightblue" points="271.54,-152.91 281.54,-156.43 275.91,-147.45 271.54,-152.91"/>
</g>
<!-- Node6 -->
<g id="node6" class="node">
<title>Node6</title>
<g id="a_node6"><a xlink:href="main_8cpp.xhtml" target="_top" xlink:title=" ">
<polygon fill="white" stroke="black" points="263.5,-11.5 263.5,-30.5 342.5,-30.5 342.5,-11.5 263.5,-11.5"/>
<text text-anchor="middle" x="303" y="-18.5" font-family="Helvetica,sans-Serif" font-size="10.00">src/main.cpp</text>
</a>
</g>
</g>
<!-- Node5&#45;&gt;Node6 -->
<g id="edge6" class="edge">
<title>Node5&#45;&gt;Node6</title>
<path fill="none" stroke="midnightblue" d="M305.42,-146.14C304.72,-110.26 303.59,-52.19 303.17,-30.51"/>
<polygon fill="midnightblue" stroke="midnightblue" points="301.93,-146.57 305.62,-156.5 308.92,-146.43 301.93,-146.57"/>
</g>
<!-- Node7 -->
<g id="node7" class="node">
<title>Node7</title>
<g id="a_node7"><a xlink:href="test__hmi_8cpp.xhtml" target="_top" xlink:title=" ">
<polygon fill="white" stroke="black" points="360.5,-6 360.5,-36 485.5,-36 485.5,-6 360.5,-6"/>
<text text-anchor="start" x="368.5" y="-24" font-family="Helvetica,sans-Serif" font-size="10.00">test/hmi/test_hmi/test</text>
<text text-anchor="middle" x="423" y="-13" font-family="Helvetica,sans-Serif" font-size="10.00">_hmi.cpp</text>
</a>
</g>
</g>
<!-- Node5&#45;&gt;Node7 -->
<g id="edge7" class="edge">
<title>Node5&#45;&gt;Node7</title>
<path fill="none" stroke="midnightblue" d="M327.12,-148.2C352.12,-115.3 392.78,-61.77 412.12,-36.32"/>
<polygon fill="midnightblue" stroke="midnightblue" points="324.08,-146.42 320.82,-156.5 329.65,-150.65 324.08,-146.42"/>
</g>
<!-- Node8&#45;&gt;Node6 -->
<g id="edge15" class="edge">
<title>Node8&#45;&gt;Node6</title>
<path fill="none" stroke="midnightblue" d="M449.85,-149.77C409.09,-114.31 338.55,-52.93 312.79,-30.51"/>
<polygon fill="midnightblue" stroke="midnightblue" points="447.74,-152.57 457.58,-156.5 452.34,-147.29 447.74,-152.57"/>
</g>
<!-- Node8&#45;&gt;Node7 -->
<g id="edge16" class="edge">
<title>Node8&#45;&gt;Node7</title>
<path fill="none" stroke="midnightblue" d="M457.91,-148.21C451.96,-139.59 446.06,-129.76 442,-120 430.23,-91.67 425.65,-55.67 423.95,-36.15"/>
<polygon fill="midnightblue" stroke="midnightblue" points="455.12,-150.33 463.8,-156.4 460.8,-146.24 455.12,-150.33"/>
</g>
<!-- Node9 -->
<g id="node9" class="node">
<title>Node9</title>
<g id="a_node9"><a xlink:href="Menu_8cpp.xhtml" target="_top" xlink:title=" ">
<polygon fill="white" stroke="black" points="603,-78.5 603,-119.5 737,-119.5 737,-78.5 603,-78.5"/>
<text text-anchor="start" x="611" y="-107.5" font-family="Helvetica,sans-Serif" font-size="10.00">lib/application_business</text>
<text text-anchor="start" x="611" y="-96.5" font-family="Helvetica,sans-Serif" font-size="10.00">_rules/user_interaction</text>
<text text-anchor="middle" x="670" y="-85.5" font-family="Helvetica,sans-Serif" font-size="10.00">/Menu.cpp</text>
</a>
</g>
</g>
<!-- Node8&#45;&gt;Node9 -->
<g id="edge9" class="edge">
<title>Node8&#45;&gt;Node9</title>
<path fill="none" stroke="midnightblue" d="M538.48,-152.61C565,-142 596,-129.6 621.24,-119.51"/>
<polygon fill="midnightblue" stroke="midnightblue" points="536.91,-149.46 528.93,-156.43 539.51,-155.96 536.91,-149.46"/>
</g>
<!-- Node10 -->
<g id="node10" class="node">
<title>Node10</title>
<g id="a_node10"><a xlink:href="Presenter_8hpp.xhtml" target="_top" xlink:title=" ">
<polygon fill="white" stroke="black" points="451,-78.5 451,-119.5 585,-119.5 585,-78.5 451,-78.5"/>
<text text-anchor="start" x="459" y="-107.5" font-family="Helvetica,sans-Serif" font-size="10.00">lib/application_business</text>
<text text-anchor="start" x="459" y="-96.5" font-family="Helvetica,sans-Serif" font-size="10.00">_rules/user_interaction</text>
<text text-anchor="middle" x="518" y="-85.5" font-family="Helvetica,sans-Serif" font-size="10.00">/Presenter.hpp</text>
</a>
</g>
</g>
<!-- Node8&#45;&gt;Node10 -->
<g id="edge10" class="edge">
<title>Node8&#45;&gt;Node10</title>
<path fill="none" stroke="midnightblue" d="M494.27,-147.47C498.93,-138.14 504,-128.01 508.25,-119.51"/>
<polygon fill="midnightblue" stroke="midnightblue" points="491.13,-145.92 489.79,-156.43 497.39,-149.05 491.13,-145.92"/>
</g>
<!-- Node10&#45;&gt;Node6 -->
<g id="edge13" class="edge">
<title>Node10&#45;&gt;Node6</title>
<path fill="none" stroke="midnightblue" d="M447.15,-75.18C417.59,-65.37 382.99,-53.54 352,-42 342.53,-38.47 332.15,-34.28 323.39,-30.65"/>
<polygon fill="midnightblue" stroke="midnightblue" points="446.38,-78.61 456.97,-78.42 448.57,-71.96 446.38,-78.61"/>
</g>
<!-- Node10&#45;&gt;Node7 -->
<g id="edge14" class="edge">
<title>Node10&#45;&gt;Node7</title>
<path fill="none" stroke="midnightblue" d="M485.49,-71.99C470.52,-60.02 453.34,-46.27 440.78,-36.23"/>
<polygon fill="midnightblue" stroke="midnightblue" points="483.54,-74.91 493.54,-78.43 487.91,-69.45 483.54,-74.91"/>
</g>
<!-- Node11 -->
<g id="node11" class="node">
<title>Node11</title>
<g id="a_node11"><a xlink:href="Presenter_8cpp.xhtml" target="_top" xlink:title=" ">
<polygon fill="white" stroke="black" points="504,-0.5 504,-41.5 638,-41.5 638,-0.5 504,-0.5"/>
<text text-anchor="start" x="512" y="-29.5" font-family="Helvetica,sans-Serif" font-size="10.00">lib/application_business</text>
<text text-anchor="start" x="512" y="-18.5" font-family="Helvetica,sans-Serif" font-size="10.00">_rules/user_interaction</text>
<text text-anchor="middle" x="571" y="-7.5" font-family="Helvetica,sans-Serif" font-size="10.00">/Presenter.cpp</text>
</a>
</g>
</g>
<!-- Node10&#45;&gt;Node11 -->
<g id="edge11" class="edge">
<title>Node10&#45;&gt;Node11</title>
<path fill="none" stroke="midnightblue" d="M537.49,-70.05C544.11,-60.57 551.34,-50.18 557.4,-41.51"/>
<polygon fill="midnightblue" stroke="midnightblue" points="534.5,-68.22 531.65,-78.43 540.24,-72.23 534.5,-68.22"/>
</g>
<!-- Node12 -->
<g id="node12" class="node">
<title>Node12</title>
<g id="a_node12"><a xlink:href="ProcessHmiInputs_8cpp.xhtml" target="_top" xlink:title=" ">
<polygon fill="white" stroke="black" points="656,-0.5 656,-41.5 790,-41.5 790,-0.5 656,-0.5"/>
<text text-anchor="start" x="664" y="-29.5" font-family="Helvetica,sans-Serif" font-size="10.00">lib/application_business</text>
<text text-anchor="start" x="664" y="-18.5" font-family="Helvetica,sans-Serif" font-size="10.00">_rules/user_interaction</text>
<text text-anchor="middle" x="723" y="-7.5" font-family="Helvetica,sans-Serif" font-size="10.00">/ProcessHmiInputs.cpp</text>
</a>
</g>
</g>
<!-- Node10&#45;&gt;Node12 -->
<g id="edge12" class="edge">
<title>Node10&#45;&gt;Node12</title>
<path fill="none" stroke="midnightblue" d="M580.34,-74.89C609.12,-64.22 642.91,-51.69 670.39,-41.51"/>
<polygon fill="midnightblue" stroke="midnightblue" points="578.95,-71.67 570.79,-78.43 581.39,-78.23 578.95,-71.67"/>
</g>
</g>
</svg>
