<?xml version="1.0" encoding="UTF-8" standalone="no"?>
<!DOCTYPE svg PUBLIC "-//W3C//DTD SVG 1.1//EN"
 "http://www.w3.org/Graphics/SVG/1.1/DTD/svg11.dtd">
<!-- Generated by graphviz version 2.43.0 (0)
 -->
<!-- Title: lib/application_business_rules/user_interaction/IGuiEngine.hpp Pages: 1 -->
<svg width="810pt" height="284pt"
 viewBox="0.00 0.00 809.50 284.00" xmlns="http://www.w3.org/2000/svg" xmlns:xlink="http://www.w3.org/1999/xlink">
<g id="graph0" class="graph" transform="scale(1 1) rotate(0) translate(4 280)">
<title>lib/application_business_rules/user_interaction/IGuiEngine.hpp</title>
<polygon fill="white" stroke="transparent" points="-4,4 -4,-280 805.5,-280 805.5,4 -4,4"/>
<!-- Node1 -->
<g id="node1" class="node">
<title>Node1</title>
<g id="a_node1"><a xlink:title=" ">
<polygon fill="#bfbfbf" stroke="black" points="218,-234.5 218,-275.5 352,-275.5 352,-234.5 218,-234.5"/>
<text text-anchor="start" x="226" y="-263.5" font-family="Helvetica,sans-Serif" font-size="10.00">lib/application_business</text>
<text text-anchor="start" x="226" y="-252.5" font-family="Helvetica,sans-Serif" font-size="10.00">_rules/user_interaction</text>
<text text-anchor="middle" x="285" y="-241.5" font-family="Helvetica,sans-Serif" font-size="10.00">/IGuiEngine.hpp</text>
</a>
</g>
</g>
<!-- Node2 -->
<g id="node2" class="node">
<title>Node2</title>
<g id="a_node2"><a xlink:href="GuiEngine_8hpp.xhtml" target="_top" xlink:title=" ">
<polygon fill="white" stroke="black" points="52,-162 52,-192 178,-192 178,-162 52,-162"/>
<text text-anchor="start" x="60" y="-180" font-family="Helvetica,sans-Serif" font-size="10.00">lib/3rd_party_adapters</text>
<text text-anchor="middle" x="115" y="-169" font-family="Helvetica,sans-Serif" font-size="10.00">/LVGL/GuiEngine.hpp</text>
</a>
</g>
</g>
<!-- Node1&#45;&gt;Node2 -->
<g id="edge1" class="edge">
<title>Node1&#45;&gt;Node2</title>
<path fill="none" stroke="midnightblue" d="M231.95,-230.28C203.93,-217.76 170.48,-202.81 146.55,-192.11"/>
<polygon fill="midnightblue" stroke="midnightblue" points="230.66,-233.54 241.22,-234.43 233.52,-227.15 230.66,-233.54"/>
</g>
<!-- Node5 -->
<g id="node5" class="node">
<title>Node5</title>
<g id="a_node5"><a xlink:href="guiEngine__factory__interface_8hpp.xhtml" target="_top" xlink:title="Dependency injection for the guiEngine.">
<polygon fill="white" stroke="black" points="196.5,-156.5 196.5,-197.5 373.5,-197.5 373.5,-156.5 196.5,-156.5"/>
<text text-anchor="start" x="204.5" y="-185.5" font-family="Helvetica,sans-Serif" font-size="10.00">lib/application_business</text>
<text text-anchor="start" x="204.5" y="-174.5" font-family="Helvetica,sans-Serif" font-size="10.00">_rules/user_interaction</text>
<text text-anchor="middle" x="285" y="-163.5" font-family="Helvetica,sans-Serif" font-size="10.00">/guiEngine_factory_interface.hpp</text>
</a>
</g>
</g>
<!-- Node1&#45;&gt;Node5 -->
<g id="edge4" class="edge">
<title>Node1&#45;&gt;Node5</title>
<path fill="none" stroke="midnightblue" d="M285,-224.3C285,-215.3 285,-205.65 285,-197.51"/>
<polygon fill="midnightblue" stroke="midnightblue" points="281.5,-224.43 285,-234.43 288.5,-224.43 281.5,-224.43"/>
</g>
<!-- Node7 -->
<g id="node7" class="node">
<title>Node7</title>
<g id="a_node7"><a xlink:href="Menu_8hpp.xhtml" target="_top" xlink:title=" ">
<polygon fill="white" stroke="black" points="392,-156.5 392,-197.5 526,-197.5 526,-156.5 392,-156.5"/>
<text text-anchor="start" x="400" y="-185.5" font-family="Helvetica,sans-Serif" font-size="10.00">lib/application_business</text>
<text text-anchor="start" x="400" y="-174.5" font-family="Helvetica,sans-Serif" font-size="10.00">_rules/user_interaction</text>
<text text-anchor="middle" x="459" y="-163.5" font-family="Helvetica,sans-Serif" font-size="10.00">/Menu.hpp</text>
</a>
</g>
</g>
<!-- Node1&#45;&gt;Node7 -->
<g id="edge7" class="edge">
<title>Node1&#45;&gt;Node7</title>
<path fill="none" stroke="midnightblue" d="M339.19,-230.33C363.34,-219.78 391.43,-207.51 414.34,-197.51"/>
<polygon fill="midnightblue" stroke="midnightblue" points="337.57,-227.22 329.81,-234.43 340.37,-233.63 337.57,-227.22"/>
</g>
<!-- Node3 -->
<g id="node3" class="node">
<title>Node3</title>
<g id="a_node3"><a xlink:href="GuiEngine_8cpp.xhtml" target="_top" xlink:title=" ">
<polygon fill="white" stroke="black" points="0,-84 0,-114 126,-114 126,-84 0,-84"/>
<text text-anchor="start" x="8" y="-102" font-family="Helvetica,sans-Serif" font-size="10.00">lib/3rd_party_adapters</text>
<text text-anchor="middle" x="63" y="-91" font-family="Helvetica,sans-Serif" font-size="10.00">/LVGL/GuiEngine.cpp</text>
</a>
</g>
</g>
<!-- Node2&#45;&gt;Node3 -->
<g id="edge2" class="edge">
<title>Node2&#45;&gt;Node3</title>
<path fill="none" stroke="midnightblue" d="M99.56,-153.44C90.87,-140.73 80.28,-125.25 72.74,-114.23"/>
<polygon fill="midnightblue" stroke="midnightblue" points="96.68,-155.43 105.22,-161.7 102.46,-151.48 96.68,-155.43"/>
</g>
<!-- Node4 -->
<g id="node4" class="node">
<title>Node4</title>
<g id="a_node4"><a xlink:href="guiEngine__factory__interface_8cpp.xhtml" target="_top" xlink:title=" ">
<polygon fill="white" stroke="black" points="144,-78.5 144,-119.5 278,-119.5 278,-78.5 144,-78.5"/>
<text text-anchor="start" x="152" y="-107.5" font-family="Helvetica,sans-Serif" font-size="10.00">lib/3rd_party_adapters</text>
<text text-anchor="start" x="152" y="-96.5" font-family="Helvetica,sans-Serif" font-size="10.00">/LVGL/guiEngine_factory</text>
<text text-anchor="middle" x="211" y="-85.5" font-family="Helvetica,sans-Serif" font-size="10.00">_interface.cpp</text>
</a>
</g>
</g>
<!-- Node2&#45;&gt;Node4 -->
<g id="edge3" class="edge">
<title>Node2&#45;&gt;Node4</title>
<path fill="none" stroke="midnightblue" d="M140.91,-155.49C154.96,-144.36 172.25,-130.68 186.14,-119.68"/>
<polygon fill="midnightblue" stroke="midnightblue" points="138.72,-152.75 133.06,-161.7 143.07,-158.24 138.72,-152.75"/>
</g>
<!-- Node5&#45;&gt;Node4 -->
<g id="edge5" class="edge">
<title>Node5&#45;&gt;Node4</title>
<path fill="none" stroke="midnightblue" d="M258.91,-149.2C249.38,-139.42 238.79,-128.54 229.99,-119.51"/>
<polygon fill="midnightblue" stroke="midnightblue" points="256.46,-151.71 265.94,-156.43 261.47,-146.82 256.46,-151.71"/>
</g>
<!-- Node6 -->
<g id="node6" class="node">
<title>Node6</title>
<g id="a_node6"><a xlink:href="main_8cpp.xhtml" target="_top" xlink:title=" ">
<polygon fill="white" stroke="black" points="274.5,-11.5 274.5,-30.5 353.5,-30.5 353.5,-11.5 274.5,-11.5"/>
<text text-anchor="middle" x="314" y="-18.5" font-family="Helvetica,sans-Serif" font-size="10.00">src/main.cpp</text>
</a>
</g>
</g>
<!-- Node5&#45;&gt;Node6 -->
<g id="edge6" class="edge">
<title>Node5&#45;&gt;Node6</title>
<path fill="none" stroke="midnightblue" d="M290.54,-146.6C297.29,-110.76 308.3,-52.28 312.4,-30.51"/>
<polygon fill="midnightblue" stroke="midnightblue" points="287.08,-146.02 288.67,-156.5 293.96,-147.32 287.08,-146.02"/>
</g>
<!-- Node7&#45;&gt;Node6 -->
<g id="edge14" class="edge">
<title>Node7&#45;&gt;Node6</title>
<path fill="none" stroke="midnightblue" d="M404.54,-151.48C389.79,-143.02 374.69,-132.47 363,-120 337.24,-92.52 322.02,-48.93 316.44,-30.58"/>
<polygon fill="midnightblue" stroke="midnightblue" points="403.19,-154.73 413.64,-156.48 406.56,-148.6 403.19,-154.73"/>
</g>
<!-- Node8 -->
<g id="node8" class="node">
<title>Node8</title>
<g id="a_node8"><a xlink:href="Menu_8cpp.xhtml" target="_top" xlink:title=" ">
<polygon fill="white" stroke="black" points="372,-78.5 372,-119.5 506,-119.5 506,-78.5 372,-78.5"/>
<text text-anchor="start" x="380" y="-107.5" font-family="Helvetica,sans-Serif" font-size="10.00">lib/application_business</text>
<text text-anchor="start" x="380" y="-96.5" font-family="Helvetica,sans-Serif" font-size="10.00">_rules/user_interaction</text>
<text text-anchor="middle" x="439" y="-85.5" font-family="Helvetica,sans-Serif" font-size="10.00">/Menu.cpp</text>
</a>
</g>
</g>
<!-- Node7&#45;&gt;Node8 -->
<g id="edge8" class="edge">
<title>Node7&#45;&gt;Node8</title>
<path fill="none" stroke="midnightblue" d="M451.26,-146.59C448.87,-137.51 446.3,-127.74 444.13,-119.51"/>
<polygon fill="midnightblue" stroke="midnightblue" points="447.92,-147.65 453.85,-156.43 454.69,-145.87 447.92,-147.65"/>
</g>
<!-- Node9 -->
<g id="node9" class="node">
<title>Node9</title>
<g id="a_node9"><a xlink:href="Presenter_8hpp.xhtml" target="_top" xlink:title=" ">
<polygon fill="white" stroke="black" points="524,-78.5 524,-119.5 658,-119.5 658,-78.5 524,-78.5"/>
<text text-anchor="start" x="532" y="-107.5" font-family="Helvetica,sans-Serif" font-size="10.00">lib/application_business</text>
<text text-anchor="start" x="532" y="-96.5" font-family="Helvetica,sans-Serif" font-size="10.00">_rules/user_interaction</text>
<text text-anchor="middle" x="591" y="-85.5" font-family="Helvetica,sans-Serif" font-size="10.00">/Presenter.hpp</text>
</a>
</g>
</g>
<!-- Node7&#45;&gt;Node9 -->
<g id="edge9" class="edge">
<title>Node7&#45;&gt;Node9</title>
<path fill="none" stroke="midnightblue" d="M502.07,-151.2C519.93,-140.92 540.36,-129.16 557.12,-119.51"/>
<polygon fill="midnightblue" stroke="midnightblue" points="499.91,-148.41 492.99,-156.43 503.41,-154.47 499.91,-148.41"/>
</g>
<!-- Node12 -->
<g id="node12" class="node">
<title>Node12</title>
<g id="a_node12"><a xlink:href="test__hmi_8cpp.xhtml" target="_top" xlink:title=" ">
<polygon fill="white" stroke="black" points="676.5,-6 676.5,-36 801.5,-36 801.5,-6 676.5,-6"/>
<text text-anchor="start" x="684.5" y="-24" font-family="Helvetica,sans-Serif" font-size="10.00">test/hmi/test_hmi/test</text>
<text text-anchor="middle" x="739" y="-13" font-family="Helvetica,sans-Serif" font-size="10.00">_hmi.cpp</text>
</a>
</g>
</g>
<!-- Node7&#45;&gt;Node12 -->
<g id="edge15" class="edge">
<title>Node7&#45;&gt;Node12</title>
<path fill="none" stroke="midnightblue" d="M536.17,-167.78C577.78,-160.41 628.37,-146.44 667,-120 698.89,-98.18 721.98,-57.48 732.55,-36.04"/>
<polygon fill="midnightblue" stroke="midnightblue" points="535.36,-164.37 526.07,-169.48 536.51,-171.28 535.36,-164.37"/>
</g>
<!-- Node9&#45;&gt;Node6 -->
<g id="edge12" class="edge">
<title>Node9&#45;&gt;Node6</title>
<path fill="none" stroke="midnightblue" d="M513.95,-77.79C445.89,-61.3 426.14,-62.23 363,-42 353.02,-38.8 342.22,-34.49 333.3,-30.68"/>
<polygon fill="midnightblue" stroke="midnightblue" points="513.34,-81.25 523.89,-80.24 515.01,-74.45 513.34,-81.25"/>
</g>
<!-- Node10 -->
<g id="node10" class="node">
<title>Node10</title>
<g id="a_node10"><a xlink:href="Presenter_8cpp.xhtml" target="_top" xlink:title=" ">
<polygon fill="white" stroke="black" points="372,-0.5 372,-41.5 506,-41.5 506,-0.5 372,-0.5"/>
<text text-anchor="start" x="380" y="-29.5" font-family="Helvetica,sans-Serif" font-size="10.00">lib/application_business</text>
<text text-anchor="start" x="380" y="-18.5" font-family="Helvetica,sans-Serif" font-size="10.00">_rules/user_interaction</text>
<text text-anchor="middle" x="439" y="-7.5" font-family="Helvetica,sans-Serif" font-size="10.00">/Presenter.cpp</text>
</a>
</g>
</g>
<!-- Node9&#45;&gt;Node10 -->
<g id="edge10" class="edge">
<title>Node9&#45;&gt;Node10</title>
<path fill="none" stroke="midnightblue" d="M542.82,-73.91C521.92,-63.46 497.76,-51.38 478.01,-41.51"/>
<polygon fill="midnightblue" stroke="midnightblue" points="541.35,-77.09 551.86,-78.43 544.48,-70.83 541.35,-77.09"/>
</g>
<!-- Node11 -->
<g id="node11" class="node">
<title>Node11</title>
<g id="a_node11"><a xlink:href="ProcessHmiInputs_8cpp.xhtml" target="_top" xlink:title=" ">
<polygon fill="white" stroke="black" points="524,-0.5 524,-41.5 658,-41.5 658,-0.5 524,-0.5"/>
<text text-anchor="start" x="532" y="-29.5" font-family="Helvetica,sans-Serif" font-size="10.00">lib/application_business</text>
<text text-anchor="start" x="532" y="-18.5" font-family="Helvetica,sans-Serif" font-size="10.00">_rules/user_interaction</text>
<text text-anchor="middle" x="591" y="-7.5" font-family="Helvetica,sans-Serif" font-size="10.00">/ProcessHmiInputs.cpp</text>
</a>
</g>
</g>
<!-- Node9&#45;&gt;Node11 -->
<g id="edge11" class="edge">
<title>Node9&#45;&gt;Node11</title>
<path fill="none" stroke="midnightblue" d="M591,-68.3C591,-59.3 591,-49.65 591,-41.51"/>
<polygon fill="midnightblue" stroke="midnightblue" points="587.5,-68.43 591,-78.43 594.5,-68.43 587.5,-68.43"/>
</g>
<!-- Node9&#45;&gt;Node12 -->
<g id="edge13" class="edge">
<title>Node9&#45;&gt;Node12</title>
<path fill="none" stroke="midnightblue" d="M638.11,-73.81C662.22,-61.43 690.74,-46.78 711.3,-36.23"/>
<polygon fill="midnightblue" stroke="midnightblue" points="636.41,-70.75 629.11,-78.43 639.61,-76.97 636.41,-70.75"/>
</g>
</g>
</svg>
