<?xml version="1.0" encoding="UTF-8" standalone="no"?>
<!DOCTYPE svg PUBLIC "-//W3C//DTD SVG 1.1//EN"
 "http://www.w3.org/Graphics/SVG/1.1/DTD/svg11.dtd">
<!-- Generated by graphviz version 2.43.0 (0)
 -->
<!-- Title: lib/application_business_rules/user_interaction/IKeypad.hpp Pages: 1 -->
<svg width="1197pt" height="362pt"
 viewBox="0.00 0.00 1196.50 362.00" xmlns="http://www.w3.org/2000/svg" xmlns:xlink="http://www.w3.org/1999/xlink">
<g id="graph0" class="graph" transform="scale(1 1) rotate(0) translate(4 358)">
<title>lib/application_business_rules/user_interaction/IKeypad.hpp</title>
<polygon fill="white" stroke="transparent" points="-4,4 -4,-358 1192.5,-358 1192.5,4 -4,4"/>
<!-- Node1 -->
<g id="node1" class="node">
<title>Node1</title>
<g id="a_node1"><a xlink:title=" ">
<polygon fill="#bfbfbf" stroke="black" points="580,-312.5 580,-353.5 714,-353.5 714,-312.5 580,-312.5"/>
<text text-anchor="start" x="588" y="-341.5" font-family="Helvetica,sans-Serif" font-size="10.00">lib/application_business</text>
<text text-anchor="start" x="588" y="-330.5" font-family="Helvetica,sans-Serif" font-size="10.00">_rules/user_interaction</text>
<text text-anchor="middle" x="647" y="-319.5" font-family="Helvetica,sans-Serif" font-size="10.00">/IKeypad.hpp</text>
</a>
</g>
</g>
<!-- Node2 -->
<g id="node2" class="node">
<title>Node2</title>
<g id="a_node2"><a xlink:href="IGuiEngine_8hpp.xhtml" target="_top" xlink:title=" ">
<polygon fill="white" stroke="black" points="265,-234.5 265,-275.5 399,-275.5 399,-234.5 265,-234.5"/>
<text text-anchor="start" x="273" y="-263.5" font-family="Helvetica,sans-Serif" font-size="10.00">lib/application_business</text>
<text text-anchor="start" x="273" y="-252.5" font-family="Helvetica,sans-Serif" font-size="10.00">_rules/user_interaction</text>
<text text-anchor="middle" x="332" y="-241.5" font-family="Helvetica,sans-Serif" font-size="10.00">/IGuiEngine.hpp</text>
</a>
</g>
</g>
<!-- Node1&#45;&gt;Node2 -->
<g id="edge1" class="edge">
<title>Node1&#45;&gt;Node2</title>
<path fill="none" stroke="midnightblue" d="M569.91,-313.4C517.61,-300.78 449.14,-284.26 399.09,-272.19"/>
<polygon fill="midnightblue" stroke="midnightblue" points="569.27,-316.85 579.81,-315.79 570.91,-310.04 569.27,-316.85"/>
</g>
<!-- Node8 -->
<g id="node8" class="node">
<title>Node8</title>
<g id="a_node8"><a xlink:href="Menu_8hpp.xhtml" target="_top" xlink:title=" ">
<polygon fill="white" stroke="black" points="396,-156.5 396,-197.5 530,-197.5 530,-156.5 396,-156.5"/>
<text text-anchor="start" x="404" y="-185.5" font-family="Helvetica,sans-Serif" font-size="10.00">lib/application_business</text>
<text text-anchor="start" x="404" y="-174.5" font-family="Helvetica,sans-Serif" font-size="10.00">_rules/user_interaction</text>
<text text-anchor="middle" x="463" y="-163.5" font-family="Helvetica,sans-Serif" font-size="10.00">/Menu.hpp</text>
</a>
</g>
</g>
<!-- Node1&#45;&gt;Node8 -->
<g id="edge18" class="edge">
<title>Node1&#45;&gt;Node8</title>
<path fill="none" stroke="midnightblue" d="M615.81,-305.89C579.18,-275.24 519.27,-225.1 486.4,-197.59"/>
<polygon fill="midnightblue" stroke="midnightblue" points="613.78,-308.76 623.7,-312.5 618.27,-303.39 613.78,-308.76"/>
</g>
<!-- Node12 -->
<g id="node12" class="node">
<title>Node12</title>
<g id="a_node12"><a xlink:href="keypad__factory__interface_8hpp.xhtml" target="_top" xlink:title="Dependency injection for the keypad.">
<polygon fill="white" stroke="black" points="620,-234.5 620,-275.5 784,-275.5 784,-234.5 620,-234.5"/>
<text text-anchor="start" x="628" y="-263.5" font-family="Helvetica,sans-Serif" font-size="10.00">lib/application_business</text>
<text text-anchor="start" x="628" y="-252.5" font-family="Helvetica,sans-Serif" font-size="10.00">_rules/user_interaction</text>
<text text-anchor="middle" x="702" y="-241.5" font-family="Helvetica,sans-Serif" font-size="10.00">/keypad_factory_interface.hpp</text>
</a>
</g>
</g>
<!-- Node1&#45;&gt;Node12 -->
<g id="edge14" class="edge">
<title>Node1&#45;&gt;Node12</title>
<path fill="none" stroke="midnightblue" d="M667.23,-304.05C674.09,-294.57 681.6,-284.18 687.88,-275.51"/>
<polygon fill="midnightblue" stroke="midnightblue" points="664.19,-302.27 661.16,-312.43 669.86,-306.38 664.19,-302.27"/>
</g>
<!-- Node14 -->
<g id="node14" class="node">
<title>Node14</title>
<g id="a_node14"><a xlink:href="test__hmi_8cpp.xhtml" target="_top" xlink:title=" ">
<polygon fill="white" stroke="black" points="548.5,-162 548.5,-192 673.5,-192 673.5,-162 548.5,-162"/>
<text text-anchor="start" x="556.5" y="-180" font-family="Helvetica,sans-Serif" font-size="10.00">test/hmi/test_hmi/test</text>
<text text-anchor="middle" x="611" y="-169" font-family="Helvetica,sans-Serif" font-size="10.00">_hmi.cpp</text>
</a>
</g>
</g>
<!-- Node1&#45;&gt;Node14 -->
<g id="edge24" class="edge">
<title>Node1&#45;&gt;Node14</title>
<path fill="none" stroke="midnightblue" d="M624.6,-304C619.05,-295.5 613.88,-285.79 611,-276 602.56,-247.27 605.73,-211.72 608.53,-192.31"/>
<polygon fill="midnightblue" stroke="midnightblue" points="621.85,-306.18 630.43,-312.39 627.6,-302.18 621.85,-306.18"/>
</g>
<!-- Node15 -->
<g id="node15" class="node">
<title>Node15</title>
<g id="a_node15"><a xlink:href="ProcessHmiInputs_8cpp.xhtml" target="_top" xlink:title=" ">
<polygon fill="white" stroke="black" points="952,-234.5 952,-275.5 1086,-275.5 1086,-234.5 952,-234.5"/>
<text text-anchor="start" x="960" y="-263.5" font-family="Helvetica,sans-Serif" font-size="10.00">lib/application_business</text>
<text text-anchor="start" x="960" y="-252.5" font-family="Helvetica,sans-Serif" font-size="10.00">_rules/user_interaction</text>
<text text-anchor="middle" x="1019" y="-241.5" font-family="Helvetica,sans-Serif" font-size="10.00">/ProcessHmiInputs.cpp</text>
</a>
</g>
</g>
<!-- Node1&#45;&gt;Node15 -->
<g id="edge19" class="edge">
<title>Node1&#45;&gt;Node15</title>
<path fill="none" stroke="midnightblue" d="M724.42,-318.89C784.32,-308.38 869.22,-292.67 943,-276 945.93,-275.34 948.91,-274.64 951.93,-273.92"/>
<polygon fill="midnightblue" stroke="midnightblue" points="723.53,-315.49 714.29,-320.66 724.74,-322.39 723.53,-315.49"/>
</g>
<!-- Node16 -->
<g id="node16" class="node">
<title>Node16</title>
<g id="a_node16"><a xlink:href="Keypad_8hpp.xhtml" target="_top" xlink:title=" ">
<polygon fill="white" stroke="black" points="802.5,-234.5 802.5,-275.5 933.5,-275.5 933.5,-234.5 802.5,-234.5"/>
<text text-anchor="start" x="810.5" y="-263.5" font-family="Helvetica,sans-Serif" font-size="10.00">lib/board_adapters</text>
<text text-anchor="start" x="810.5" y="-252.5" font-family="Helvetica,sans-Serif" font-size="10.00">/input_device_interface</text>
<text text-anchor="middle" x="868" y="-241.5" font-family="Helvetica,sans-Serif" font-size="10.00">/Keypad.hpp</text>
</a>
</g>
</g>
<!-- Node1&#45;&gt;Node16 -->
<g id="edge20" class="edge">
<title>Node1&#45;&gt;Node16</title>
<path fill="none" stroke="midnightblue" d="M713.4,-309.17C744.6,-298.44 781.41,-285.78 811.28,-275.51"/>
<polygon fill="midnightblue" stroke="midnightblue" points="712.23,-305.87 703.91,-312.43 714.51,-312.49 712.23,-305.87"/>
</g>
<!-- Node3 -->
<g id="node3" class="node">
<title>Node3</title>
<g id="a_node3"><a xlink:href="GuiEngine_8hpp.xhtml" target="_top" xlink:title=" ">
<polygon fill="white" stroke="black" points="56,-162 56,-192 182,-192 182,-162 56,-162"/>
<text text-anchor="start" x="64" y="-180" font-family="Helvetica,sans-Serif" font-size="10.00">lib/3rd_party_adapters</text>
<text text-anchor="middle" x="119" y="-169" font-family="Helvetica,sans-Serif" font-size="10.00">/LVGL/GuiEngine.hpp</text>
</a>
</g>
</g>
<!-- Node2&#45;&gt;Node3 -->
<g id="edge2" class="edge">
<title>Node2&#45;&gt;Node3</title>
<path fill="none" stroke="midnightblue" d="M267.35,-230.93C231.88,-218.28 189.04,-202.99 158.54,-192.11"/>
<polygon fill="midnightblue" stroke="midnightblue" points="266.55,-234.36 277.15,-234.43 268.91,-227.77 266.55,-234.36"/>
</g>
<!-- Node6 -->
<g id="node6" class="node">
<title>Node6</title>
<g id="a_node6"><a xlink:href="guiEngine__factory__interface_8hpp.xhtml" target="_top" xlink:title="Dependency injection for the guiEngine.">
<polygon fill="white" stroke="black" points="200.5,-156.5 200.5,-197.5 377.5,-197.5 377.5,-156.5 200.5,-156.5"/>
<text text-anchor="start" x="208.5" y="-185.5" font-family="Helvetica,sans-Serif" font-size="10.00">lib/application_business</text>
<text text-anchor="start" x="208.5" y="-174.5" font-family="Helvetica,sans-Serif" font-size="10.00">_rules/user_interaction</text>
<text text-anchor="middle" x="289" y="-163.5" font-family="Helvetica,sans-Serif" font-size="10.00">/guiEngine_factory_interface.hpp</text>
</a>
</g>
</g>
<!-- Node2&#45;&gt;Node6 -->
<g id="edge5" class="edge">
<title>Node2&#45;&gt;Node6</title>
<path fill="none" stroke="midnightblue" d="M315.86,-225.47C310.58,-216.14 304.85,-206.01 300.04,-197.51"/>
<polygon fill="midnightblue" stroke="midnightblue" points="312.96,-227.45 320.93,-234.43 319.05,-224 312.96,-227.45"/>
</g>
<!-- Node2&#45;&gt;Node8 -->
<g id="edge8" class="edge">
<title>Node2&#45;&gt;Node8</title>
<path fill="none" stroke="midnightblue" d="M374.74,-229.2C392.47,-218.92 412.74,-207.16 429.38,-197.51"/>
<polygon fill="midnightblue" stroke="midnightblue" points="372.63,-226.38 365.74,-234.43 376.14,-232.44 372.63,-226.38"/>
</g>
<!-- Node4 -->
<g id="node4" class="node">
<title>Node4</title>
<g id="a_node4"><a xlink:href="GuiEngine_8cpp.xhtml" target="_top" xlink:title="Connects LVGL callbacks to display driver and input device.">
<polygon fill="white" stroke="black" points="0,-84 0,-114 126,-114 126,-84 0,-84"/>
<text text-anchor="start" x="8" y="-102" font-family="Helvetica,sans-Serif" font-size="10.00">lib/3rd_party_adapters</text>
<text text-anchor="middle" x="63" y="-91" font-family="Helvetica,sans-Serif" font-size="10.00">/LVGL/GuiEngine.cpp</text>
</a>
</g>
</g>
<!-- Node3&#45;&gt;Node4 -->
<g id="edge3" class="edge">
<title>Node3&#45;&gt;Node4</title>
<path fill="none" stroke="midnightblue" d="M102.38,-153.44C93.02,-140.73 81.61,-125.25 73.49,-114.23"/>
<polygon fill="midnightblue" stroke="midnightblue" points="99.72,-155.73 108.47,-161.7 105.35,-151.58 99.72,-155.73"/>
</g>
<!-- Node5 -->
<g id="node5" class="node">
<title>Node5</title>
<g id="a_node5"><a xlink:href="guiEngine__factory__interface_8cpp.xhtml" target="_top" xlink:title=" ">
<polygon fill="white" stroke="black" points="144,-78.5 144,-119.5 278,-119.5 278,-78.5 144,-78.5"/>
<text text-anchor="start" x="152" y="-107.5" font-family="Helvetica,sans-Serif" font-size="10.00">lib/3rd_party_adapters</text>
<text text-anchor="start" x="152" y="-96.5" font-family="Helvetica,sans-Serif" font-size="10.00">/LVGL/guiEngine_factory</text>
<text text-anchor="middle" x="211" y="-85.5" font-family="Helvetica,sans-Serif" font-size="10.00">_interface.cpp</text>
</a>
</g>
</g>
<!-- Node3&#45;&gt;Node5 -->
<g id="edge4" class="edge">
<title>Node3&#45;&gt;Node5</title>
<path fill="none" stroke="midnightblue" d="M144.21,-155.18C157.61,-144.11 173.99,-130.57 187.18,-119.68"/>
<polygon fill="midnightblue" stroke="midnightblue" points="141.79,-152.64 136.3,-161.7 146.24,-158.03 141.79,-152.64"/>
</g>
<!-- Node6&#45;&gt;Node5 -->
<g id="edge6" class="edge">
<title>Node6&#45;&gt;Node5</title>
<path fill="none" stroke="midnightblue" d="M261.5,-149.2C251.45,-139.42 240.29,-128.54 231.02,-119.51"/>
<polygon fill="midnightblue" stroke="midnightblue" points="259.31,-151.96 268.91,-156.43 264.19,-146.94 259.31,-151.96"/>
</g>
<!-- Node7 -->
<g id="node7" class="node">
<title>Node7</title>
<g id="a_node7"><a xlink:href="main_8cpp.xhtml" target="_top" xlink:title=" ">
<polygon fill="white" stroke="black" points="547.5,-11.5 547.5,-30.5 626.5,-30.5 626.5,-11.5 547.5,-11.5"/>
<text text-anchor="middle" x="587" y="-18.5" font-family="Helvetica,sans-Serif" font-size="10.00">src/main.cpp</text>
</a>
</g>
</g>
<!-- Node6&#45;&gt;Node7 -->
<g id="edge7" class="edge">
<title>Node6&#45;&gt;Node7</title>
<path fill="none" stroke="midnightblue" d="M292.29,-146.13C296.31,-124.13 305.23,-95.15 325,-78 333.42,-70.69 476.22,-42.91 547.37,-29.43"/>
<polygon fill="midnightblue" stroke="midnightblue" points="288.79,-145.87 290.68,-156.3 295.7,-146.96 288.79,-145.87"/>
</g>
<!-- Node8&#45;&gt;Node7 -->
<g id="edge13" class="edge">
<title>Node8&#45;&gt;Node7</title>
<path fill="none" stroke="midnightblue" d="M539.8,-154.51C580.47,-142.36 623.23,-128.03 629,-120 650.16,-90.53 614.3,-48.74 596.33,-30.77"/>
<polygon fill="midnightblue" stroke="midnightblue" points="538.67,-151.19 530.08,-157.39 540.66,-157.91 538.67,-151.19"/>
</g>
<!-- Node9 -->
<g id="node9" class="node">
<title>Node9</title>
<g id="a_node9"><a xlink:href="Menu_8cpp.xhtml" target="_top" xlink:title=" ">
<polygon fill="white" stroke="black" points="486,-78.5 486,-119.5 620,-119.5 620,-78.5 486,-78.5"/>
<text text-anchor="start" x="494" y="-107.5" font-family="Helvetica,sans-Serif" font-size="10.00">lib/application_business</text>
<text text-anchor="start" x="494" y="-96.5" font-family="Helvetica,sans-Serif" font-size="10.00">_rules/user_interaction</text>
<text text-anchor="middle" x="553" y="-85.5" font-family="Helvetica,sans-Serif" font-size="10.00">/Menu.cpp</text>
</a>
</g>
</g>
<!-- Node8&#45;&gt;Node9 -->
<g id="edge9" class="edge">
<title>Node8&#45;&gt;Node9</title>
<path fill="none" stroke="midnightblue" d="M494.05,-149.78C505.82,-139.84 518.99,-128.72 529.9,-119.51"/>
<polygon fill="midnightblue" stroke="midnightblue" points="491.56,-147.3 486.18,-156.43 496.08,-152.65 491.56,-147.3"/>
</g>
<!-- Node10 -->
<g id="node10" class="node">
<title>Node10</title>
<g id="a_node10"><a xlink:href="Presenter_8hpp.xhtml" target="_top" xlink:title=" ">
<polygon fill="white" stroke="black" points="334,-78.5 334,-119.5 468,-119.5 468,-78.5 334,-78.5"/>
<text text-anchor="start" x="342" y="-107.5" font-family="Helvetica,sans-Serif" font-size="10.00">lib/application_business</text>
<text text-anchor="start" x="342" y="-96.5" font-family="Helvetica,sans-Serif" font-size="10.00">_rules/user_interaction</text>
<text text-anchor="middle" x="401" y="-85.5" font-family="Helvetica,sans-Serif" font-size="10.00">/Presenter.hpp</text>
</a>
</g>
</g>
<!-- Node8&#45;&gt;Node10 -->
<g id="edge10" class="edge">
<title>Node8&#45;&gt;Node10</title>
<path fill="none" stroke="midnightblue" d="M440.67,-148.63C432.81,-138.99 424.14,-128.36 416.91,-119.51"/>
<polygon fill="midnightblue" stroke="midnightblue" points="438,-150.89 447.03,-156.43 443.42,-146.47 438,-150.89"/>
</g>
<!-- Node10&#45;&gt;Node7 -->
<g id="edge12" class="edge">
<title>Node10&#45;&gt;Node7</title>
<path fill="none" stroke="midnightblue" d="M458.47,-74.52C495.01,-59.59 540.17,-41.14 566.07,-30.55"/>
<polygon fill="midnightblue" stroke="midnightblue" points="456.83,-71.41 448.9,-78.43 459.48,-77.89 456.83,-71.41"/>
</g>
<!-- Node11 -->
<g id="node11" class="node">
<title>Node11</title>
<g id="a_node11"><a xlink:href="Presenter_8cpp.xhtml" target="_top" xlink:title=" ">
<polygon fill="white" stroke="black" points="334,-0.5 334,-41.5 468,-41.5 468,-0.5 334,-0.5"/>
<text text-anchor="start" x="342" y="-29.5" font-family="Helvetica,sans-Serif" font-size="10.00">lib/application_business</text>
<text text-anchor="start" x="342" y="-18.5" font-family="Helvetica,sans-Serif" font-size="10.00">_rules/user_interaction</text>
<text text-anchor="middle" x="401" y="-7.5" font-family="Helvetica,sans-Serif" font-size="10.00">/Presenter.cpp</text>
</a>
</g>
</g>
<!-- Node10&#45;&gt;Node11 -->
<g id="edge11" class="edge">
<title>Node10&#45;&gt;Node11</title>
<path fill="none" stroke="midnightblue" d="M401,-68.3C401,-59.3 401,-49.65 401,-41.51"/>
<polygon fill="midnightblue" stroke="midnightblue" points="397.5,-68.43 401,-78.43 404.5,-68.43 397.5,-68.43"/>
</g>
<!-- Node12&#45;&gt;Node7 -->
<g id="edge16" class="edge">
<title>Node12&#45;&gt;Node7</title>
<path fill="none" stroke="midnightblue" d="M698.47,-224.07C692.85,-186.86 679.03,-122.79 647,-78 633.24,-58.76 612.1,-40.93 598.93,-30.76"/>
<polygon fill="midnightblue" stroke="midnightblue" points="695.04,-224.84 699.9,-234.26 701.98,-223.87 695.04,-224.84"/>
</g>
<!-- Node13 -->
<g id="node13" class="node">
<title>Node13</title>
<g id="a_node13"><a xlink:href="keypad__factory__interface_8cpp.xhtml" target="_top" xlink:title=" ">
<polygon fill="white" stroke="black" points="730,-156.5 730,-197.5 894,-197.5 894,-156.5 730,-156.5"/>
<text text-anchor="start" x="738" y="-185.5" font-family="Helvetica,sans-Serif" font-size="10.00">lib/board_adapters</text>
<text text-anchor="start" x="738" y="-174.5" font-family="Helvetica,sans-Serif" font-size="10.00">/input_device_interface</text>
<text text-anchor="middle" x="812" y="-163.5" font-family="Helvetica,sans-Serif" font-size="10.00">/keypad_factory_interface.cpp</text>
</a>
</g>
</g>
<!-- Node12&#45;&gt;Node13 -->
<g id="edge15" class="edge">
<title>Node12&#45;&gt;Node13</title>
<path fill="none" stroke="midnightblue" d="M738.71,-228.64C753.4,-218.49 770.05,-206.98 783.77,-197.51"/>
<polygon fill="midnightblue" stroke="midnightblue" points="736.57,-225.86 730.33,-234.43 740.54,-231.62 736.57,-225.86"/>
</g>
<!-- Node12&#45;&gt;Node14 -->
<g id="edge17" class="edge">
<title>Node12&#45;&gt;Node14</title>
<path fill="none" stroke="midnightblue" d="M670.86,-227.99C656.52,-216.02 640.06,-202.27 628.03,-192.23"/>
<polygon fill="midnightblue" stroke="midnightblue" points="668.65,-230.7 678.57,-234.43 673.13,-225.33 668.65,-230.7"/>
</g>
<!-- Node16&#45;&gt;Node13 -->
<g id="edge22" class="edge">
<title>Node16&#45;&gt;Node13</title>
<path fill="none" stroke="midnightblue" d="M847.62,-226.34C840.57,-216.78 832.83,-206.27 826.37,-197.51"/>
<polygon fill="midnightblue" stroke="midnightblue" points="844.83,-228.45 853.58,-234.43 850.46,-224.3 844.83,-228.45"/>
</g>
<!-- Node17 -->
<g id="node17" class="node">
<title>Node17</title>
<g id="a_node17"><a xlink:href="Keypad_8cpp.xhtml" target="_top" xlink:title=" ">
<polygon fill="white" stroke="black" points="912.5,-156.5 912.5,-197.5 1043.5,-197.5 1043.5,-156.5 912.5,-156.5"/>
<text text-anchor="start" x="920.5" y="-185.5" font-family="Helvetica,sans-Serif" font-size="10.00">lib/board_adapters</text>
<text text-anchor="start" x="920.5" y="-174.5" font-family="Helvetica,sans-Serif" font-size="10.00">/input_device_interface</text>
<text text-anchor="middle" x="978" y="-163.5" font-family="Helvetica,sans-Serif" font-size="10.00">/Keypad.cpp</text>
</a>
</g>
</g>
<!-- Node16&#45;&gt;Node17 -->
<g id="edge21" class="edge">
<title>Node16&#45;&gt;Node17</title>
<path fill="none" stroke="midnightblue" d="M904.71,-228.64C919.4,-218.49 936.05,-206.98 949.77,-197.51"/>
<polygon fill="midnightblue" stroke="midnightblue" points="902.57,-225.86 896.33,-234.43 906.54,-231.62 902.57,-225.86"/>
</g>
<!-- Node18 -->
<g id="node18" class="node">
<title>Node18</title>
<g id="a_node18"><a xlink:href="test__keyState_8cpp.xhtml" target="_top" xlink:title=" ">
<polygon fill="white" stroke="black" points="1061.5,-162 1061.5,-192 1188.5,-192 1188.5,-162 1061.5,-162"/>
<text text-anchor="start" x="1069.5" y="-180" font-family="Helvetica,sans-Serif" font-size="10.00">test/hmi/test_keyState</text>
<text text-anchor="middle" x="1125" y="-169" font-family="Helvetica,sans-Serif" font-size="10.00">/test_keyState.cpp</text>
</a>
</g>
</g>
<!-- Node16&#45;&gt;Node18 -->
<g id="edge23" class="edge">
<title>Node16&#45;&gt;Node18</title>
<path fill="none" stroke="midnightblue" d="M943.18,-231.77C986.57,-218.94 1039.82,-203.19 1077.45,-192.06"/>
<polygon fill="midnightblue" stroke="midnightblue" points="942.11,-228.43 933.52,-234.63 944.1,-235.15 942.11,-228.43"/>
</g>
</g>
</svg>
