<?xml version="1.0" encoding="UTF-8" standalone="no"?>
<!DOCTYPE svg PUBLIC "-//W3C//DTD SVG 1.1//EN"
 "http://www.w3.org/Graphics/SVG/1.1/DTD/svg11.dtd">
<!-- Generated by graphviz version 2.43.0 (0)
 -->
<!-- Title: lib/application_business_rules/user_interaction/IKeypad.hpp Pages: 1 -->
<svg width="1363pt" height="362pt"
 viewBox="0.00 0.00 1362.50 362.00" xmlns="http://www.w3.org/2000/svg" xmlns:xlink="http://www.w3.org/1999/xlink">
<g id="graph0" class="graph" transform="scale(1 1) rotate(0) translate(4 358)">
<title>lib/application_business_rules/user_interaction/IKeypad.hpp</title>
<polygon fill="white" stroke="transparent" points="-4,4 -4,-358 1358.5,-358 1358.5,4 -4,4"/>
<!-- Node1 -->
<g id="node1" class="node">
<title>Node1</title>
<g id="a_node1"><a xlink:title=" ">
<polygon fill="#bfbfbf" stroke="black" points="780,-312.5 780,-353.5 914,-353.5 914,-312.5 780,-312.5"/>
<text text-anchor="start" x="788" y="-341.5" font-family="Helvetica,sans-Serif" font-size="10.00">lib/application_business</text>
<text text-anchor="start" x="788" y="-330.5" font-family="Helvetica,sans-Serif" font-size="10.00">_rules/user_interaction</text>
<text text-anchor="middle" x="847" y="-319.5" font-family="Helvetica,sans-Serif" font-size="10.00">/IKeypad.hpp</text>
</a>
</g>
</g>
<!-- Node2 -->
<g id="node2" class="node">
<title>Node2</title>
<g id="a_node2"><a xlink:href="IDisplay_8hpp.xhtml" target="_top" xlink:title=" ">
<polygon fill="white" stroke="black" points="319,-234.5 319,-275.5 453,-275.5 453,-234.5 319,-234.5"/>
<text text-anchor="start" x="327" y="-263.5" font-family="Helvetica,sans-Serif" font-size="10.00">lib/application_business</text>
<text text-anchor="start" x="327" y="-252.5" font-family="Helvetica,sans-Serif" font-size="10.00">_rules/user_interaction</text>
<text text-anchor="middle" x="386" y="-241.5" font-family="Helvetica,sans-Serif" font-size="10.00">/IDisplay.hpp</text>
</a>
</g>
</g>
<!-- Node1&#45;&gt;Node2 -->
<g id="edge1" class="edge">
<title>Node1&#45;&gt;Node2</title>
<path fill="none" stroke="midnightblue" d="M769.98,-319.3C681.37,-304.69 537.31,-280.95 453.11,-267.06"/>
<polygon fill="midnightblue" stroke="midnightblue" points="769.53,-322.78 779.97,-320.95 770.67,-315.87 769.53,-322.78"/>
</g>
<!-- Node8 -->
<g id="node8" class="node">
<title>Node8</title>
<g id="a_node8"><a xlink:href="test__hmi_8cpp.xhtml" target="_top" xlink:title=" ">
<polygon fill="white" stroke="black" points="710.5,-6 710.5,-36 835.5,-36 835.5,-6 710.5,-6"/>
<text text-anchor="start" x="718.5" y="-24" font-family="Helvetica,sans-Serif" font-size="10.00">test/hmi/test_hmi/test</text>
<text text-anchor="middle" x="773" y="-13" font-family="Helvetica,sans-Serif" font-size="10.00">_hmi.cpp</text>
</a>
</g>
</g>
<!-- Node1&#45;&gt;Node8 -->
<g id="edge28" class="edge">
<title>Node1&#45;&gt;Node8</title>
<path fill="none" stroke="midnightblue" d="M825.66,-303.91C820.09,-295.34 814.63,-285.63 811,-276 778.26,-188.99 773.64,-75.22 773.06,-36"/>
<polygon fill="midnightblue" stroke="midnightblue" points="822.92,-306.09 831.45,-312.37 828.7,-302.14 822.92,-306.09"/>
</g>
<!-- Node9 -->
<g id="node9" class="node">
<title>Node9</title>
<g id="a_node9"><a xlink:href="Menu_8hpp.xhtml" target="_top" xlink:title=" ">
<polygon fill="white" stroke="black" points="402,-156.5 402,-197.5 536,-197.5 536,-156.5 402,-156.5"/>
<text text-anchor="start" x="410" y="-185.5" font-family="Helvetica,sans-Serif" font-size="10.00">lib/application_business</text>
<text text-anchor="start" x="410" y="-174.5" font-family="Helvetica,sans-Serif" font-size="10.00">_rules/user_interaction</text>
<text text-anchor="middle" x="469" y="-163.5" font-family="Helvetica,sans-Serif" font-size="10.00">/Menu.hpp</text>
</a>
</g>
</g>
<!-- Node1&#45;&gt;Node9 -->
<g id="edge22" class="edge">
<title>Node1&#45;&gt;Node9</title>
<path fill="none" stroke="midnightblue" d="M789.43,-308.55C714.97,-278.21 586.59,-225.91 517.08,-197.59"/>
<polygon fill="midnightblue" stroke="midnightblue" points="788.54,-311.96 799.13,-312.5 791.19,-305.48 788.54,-311.96"/>
</g>
<!-- Node13 -->
<g id="node13" class="node">
<title>Node13</title>
<g id="a_node13"><a xlink:href="ProcessHmiInputs_8cpp.xhtml" target="_top" xlink:title=" ">
<polygon fill="white" stroke="black" points="928,-0.5 928,-41.5 1062,-41.5 1062,-0.5 928,-0.5"/>
<text text-anchor="start" x="936" y="-29.5" font-family="Helvetica,sans-Serif" font-size="10.00">lib/application_business</text>
<text text-anchor="start" x="936" y="-18.5" font-family="Helvetica,sans-Serif" font-size="10.00">_rules/user_interaction</text>
<text text-anchor="middle" x="995" y="-7.5" font-family="Helvetica,sans-Serif" font-size="10.00">/ProcessHmiInputs.cpp</text>
</a>
</g>
</g>
<!-- Node1&#45;&gt;Node13 -->
<g id="edge23" class="edge">
<title>Node1&#45;&gt;Node13</title>
<path fill="none" stroke="midnightblue" d="M923.78,-314.53C948.1,-306.06 973.65,-293.73 993,-276 1021.43,-249.95 1022.33,-235.58 1031,-198 1044.04,-141.47 1019.13,-74.18 1004.53,-41.6"/>
<polygon fill="midnightblue" stroke="midnightblue" points="922.58,-311.24 914.19,-317.7 924.78,-317.89 922.58,-311.24"/>
</g>
<!-- Node14 -->
<g id="node14" class="node">
<title>Node14</title>
<g id="a_node14"><a xlink:href="keypad__factory__interface_8hpp.xhtml" target="_top" xlink:title="Dependency injection for the keypad.">
<polygon fill="white" stroke="black" points="820,-234.5 820,-275.5 984,-275.5 984,-234.5 820,-234.5"/>
<text text-anchor="start" x="828" y="-263.5" font-family="Helvetica,sans-Serif" font-size="10.00">lib/application_business</text>
<text text-anchor="start" x="828" y="-252.5" font-family="Helvetica,sans-Serif" font-size="10.00">_rules/user_interaction</text>
<text text-anchor="middle" x="902" y="-241.5" font-family="Helvetica,sans-Serif" font-size="10.00">/keypad_factory_interface.hpp</text>
</a>
</g>
</g>
<!-- Node1&#45;&gt;Node14 -->
<g id="edge18" class="edge">
<title>Node1&#45;&gt;Node14</title>
<path fill="none" stroke="midnightblue" d="M867.23,-304.05C874.09,-294.57 881.6,-284.18 887.88,-275.51"/>
<polygon fill="midnightblue" stroke="midnightblue" points="864.19,-302.27 861.16,-312.43 869.86,-306.38 864.19,-302.27"/>
</g>
<!-- Node16 -->
<g id="node16" class="node">
<title>Node16</title>
<g id="a_node16"><a xlink:href="Keypad_8hpp.xhtml" target="_top" xlink:title=" ">
<polygon fill="white" stroke="black" points="1078.5,-234.5 1078.5,-275.5 1209.5,-275.5 1209.5,-234.5 1078.5,-234.5"/>
<text text-anchor="start" x="1086.5" y="-263.5" font-family="Helvetica,sans-Serif" font-size="10.00">lib/board_adapters</text>
<text text-anchor="start" x="1086.5" y="-252.5" font-family="Helvetica,sans-Serif" font-size="10.00">/input_device_interface</text>
<text text-anchor="middle" x="1144" y="-241.5" font-family="Helvetica,sans-Serif" font-size="10.00">/Keypad.hpp</text>
</a>
</g>
</g>
<!-- Node1&#45;&gt;Node16 -->
<g id="edge24" class="edge">
<title>Node1&#45;&gt;Node16</title>
<path fill="none" stroke="midnightblue" d="M923.74,-312.36C971.7,-300.09 1032.82,-284.45 1078.5,-272.76"/>
<polygon fill="midnightblue" stroke="midnightblue" points="922.84,-308.98 914.02,-314.85 924.58,-315.76 922.84,-308.98"/>
</g>
<!-- Node3 -->
<g id="node3" class="node">
<title>Node3</title>
<g id="a_node3"><a xlink:href="Display_8hpp.xhtml" target="_top" xlink:title=" ">
<polygon fill="white" stroke="black" points="76,-162 76,-192 202,-192 202,-162 76,-162"/>
<text text-anchor="start" x="84" y="-180" font-family="Helvetica,sans-Serif" font-size="10.00">lib/3rd_party_adapters</text>
<text text-anchor="middle" x="139" y="-169" font-family="Helvetica,sans-Serif" font-size="10.00">/LVGL/Display.hpp</text>
</a>
</g>
</g>
<!-- Node2&#45;&gt;Node3 -->
<g id="edge2" class="edge">
<title>Node2&#45;&gt;Node3</title>
<path fill="none" stroke="midnightblue" d="M312.61,-231.42C271.18,-218.67 220.67,-203.13 184.85,-192.11"/>
<polygon fill="midnightblue" stroke="midnightblue" points="311.8,-234.83 322.39,-234.43 313.86,-228.14 311.8,-234.83"/>
</g>
<!-- Node6 -->
<g id="node6" class="node">
<title>Node6</title>
<g id="a_node6"><a xlink:href="display__factory__interface_8hpp.xhtml" target="_top" xlink:title="Dependency injection for the display.">
<polygon fill="white" stroke="black" points="220,-156.5 220,-197.5 384,-197.5 384,-156.5 220,-156.5"/>
<text text-anchor="start" x="228" y="-185.5" font-family="Helvetica,sans-Serif" font-size="10.00">lib/application_business</text>
<text text-anchor="start" x="228" y="-174.5" font-family="Helvetica,sans-Serif" font-size="10.00">_rules/user_interaction</text>
<text text-anchor="middle" x="302" y="-163.5" font-family="Helvetica,sans-Serif" font-size="10.00">/display_factory_interface.hpp</text>
</a>
</g>
</g>
<!-- Node2&#45;&gt;Node6 -->
<g id="edge5" class="edge">
<title>Node2&#45;&gt;Node6</title>
<path fill="none" stroke="midnightblue" d="M356.7,-227.49C345.8,-217.63 333.64,-206.63 323.56,-197.51"/>
<polygon fill="midnightblue" stroke="midnightblue" points="354.6,-230.31 364.37,-234.43 359.3,-225.12 354.6,-230.31"/>
</g>
<!-- Node2&#45;&gt;Node9 -->
<g id="edge9" class="edge">
<title>Node2&#45;&gt;Node9</title>
<path fill="none" stroke="midnightblue" d="M414.95,-227.49C425.72,-217.63 437.74,-206.63 447.7,-197.51"/>
<polygon fill="midnightblue" stroke="midnightblue" points="412.39,-225.09 407.37,-234.43 417.11,-230.26 412.39,-225.09"/>
</g>
<!-- Node4 -->
<g id="node4" class="node">
<title>Node4</title>
<g id="a_node4"><a xlink:href="Display_8cpp.xhtml" target="_top" xlink:title=" ">
<polygon fill="white" stroke="black" points="0,-84 0,-114 126,-114 126,-84 0,-84"/>
<text text-anchor="start" x="8" y="-102" font-family="Helvetica,sans-Serif" font-size="10.00">lib/3rd_party_adapters</text>
<text text-anchor="middle" x="63" y="-91" font-family="Helvetica,sans-Serif" font-size="10.00">/LVGL/Display.cpp</text>
</a>
</g>
</g>
<!-- Node3&#45;&gt;Node4 -->
<g id="edge3" class="edge">
<title>Node3&#45;&gt;Node4</title>
<path fill="none" stroke="midnightblue" d="M117.53,-154.53C104.63,-141.63 88.57,-125.57 77.23,-114.23"/>
<polygon fill="midnightblue" stroke="midnightblue" points="115.16,-157.11 124.7,-161.7 120.11,-152.16 115.16,-157.11"/>
</g>
<!-- Node5 -->
<g id="node5" class="node">
<title>Node5</title>
<g id="a_node5"><a xlink:href="display__factory__interface_8cpp.xhtml" target="_top" xlink:title=" ">
<polygon fill="white" stroke="black" points="144,-78.5 144,-119.5 270,-119.5 270,-78.5 144,-78.5"/>
<text text-anchor="start" x="152" y="-107.5" font-family="Helvetica,sans-Serif" font-size="10.00">lib/3rd_party_adapters</text>
<text text-anchor="start" x="152" y="-96.5" font-family="Helvetica,sans-Serif" font-size="10.00">/LVGL/display_factory</text>
<text text-anchor="middle" x="207" y="-85.5" font-family="Helvetica,sans-Serif" font-size="10.00">_interface.cpp</text>
</a>
</g>
</g>
<!-- Node3&#45;&gt;Node5 -->
<g id="edge4" class="edge">
<title>Node3&#45;&gt;Node5</title>
<path fill="none" stroke="midnightblue" d="M158.48,-154.23C168.22,-143.34 179.92,-130.26 189.39,-119.68"/>
<polygon fill="midnightblue" stroke="midnightblue" points="155.85,-151.92 151.79,-161.7 161.07,-156.59 155.85,-151.92"/>
</g>
<!-- Node6&#45;&gt;Node5 -->
<g id="edge6" class="edge">
<title>Node6&#45;&gt;Node5</title>
<path fill="none" stroke="midnightblue" d="M269.58,-150.06C257.07,-140.06 243.01,-128.8 231.38,-119.51"/>
<polygon fill="midnightblue" stroke="midnightblue" points="267.54,-152.91 277.54,-156.43 271.91,-147.45 267.54,-152.91"/>
</g>
<!-- Node7 -->
<g id="node7" class="node">
<title>Node7</title>
<g id="a_node7"><a xlink:href="main_8cpp.xhtml" target="_top" xlink:title=" ">
<polygon fill="white" stroke="black" points="388.5,-11.5 388.5,-30.5 467.5,-30.5 467.5,-11.5 388.5,-11.5"/>
<text text-anchor="middle" x="428" y="-18.5" font-family="Helvetica,sans-Serif" font-size="10.00">src/main.cpp</text>
</a>
</g>
</g>
<!-- Node6&#45;&gt;Node7 -->
<g id="edge7" class="edge">
<title>Node6&#45;&gt;Node7</title>
<path fill="none" stroke="midnightblue" d="M324.56,-148.43C353.73,-112.78 402.92,-52.65 421.03,-30.51"/>
<polygon fill="midnightblue" stroke="midnightblue" points="321.58,-146.54 317.96,-156.5 327,-150.97 321.58,-146.54"/>
</g>
<!-- Node6&#45;&gt;Node8 -->
<g id="edge8" class="edge">
<title>Node6&#45;&gt;Node8</title>
<path fill="none" stroke="midnightblue" d="M331.02,-149.48C340.53,-140.4 350.97,-130 360,-120 375.91,-102.38 372.29,-89.6 393,-78 513.24,-10.65 565.76,-68.52 701,-42 709.28,-40.38 717.99,-38.29 726.39,-36.08"/>
<polygon fill="midnightblue" stroke="midnightblue" points="328.5,-147.04 323.63,-156.45 333.31,-152.13 328.5,-147.04"/>
</g>
<!-- Node9&#45;&gt;Node7 -->
<g id="edge16" class="edge">
<title>Node9&#45;&gt;Node7</title>
<path fill="none" stroke="midnightblue" d="M420.14,-150.44C409.25,-142.27 399.13,-132.12 393,-120 377.11,-88.56 405.74,-48.15 420.28,-30.69"/>
<polygon fill="midnightblue" stroke="midnightblue" points="418.36,-153.46 428.57,-156.31 422.36,-147.72 418.36,-153.46"/>
</g>
<!-- Node9&#45;&gt;Node8 -->
<g id="edge17" class="edge">
<title>Node9&#45;&gt;Node8</title>
<path fill="none" stroke="midnightblue" d="M546.53,-167.91C614.6,-159.36 706.99,-143.79 735,-120 760.45,-98.38 768.93,-57.59 771.7,-36.09"/>
<polygon fill="midnightblue" stroke="midnightblue" points="545.76,-164.48 536.26,-169.17 546.61,-171.43 545.76,-164.48"/>
</g>
<!-- Node10 -->
<g id="node10" class="node">
<title>Node10</title>
<g id="a_node10"><a xlink:href="Menu_8cpp.xhtml" target="_top" xlink:title=" ">
<polygon fill="white" stroke="black" points="402,-78.5 402,-119.5 536,-119.5 536,-78.5 402,-78.5"/>
<text text-anchor="start" x="410" y="-107.5" font-family="Helvetica,sans-Serif" font-size="10.00">lib/application_business</text>
<text text-anchor="start" x="410" y="-96.5" font-family="Helvetica,sans-Serif" font-size="10.00">_rules/user_interaction</text>
<text text-anchor="middle" x="469" y="-85.5" font-family="Helvetica,sans-Serif" font-size="10.00">/Menu.cpp</text>
</a>
</g>
</g>
<!-- Node9&#45;&gt;Node10 -->
<g id="edge10" class="edge">
<title>Node9&#45;&gt;Node10</title>
<path fill="none" stroke="midnightblue" d="M469,-146.3C469,-137.3 469,-127.65 469,-119.51"/>
<polygon fill="midnightblue" stroke="midnightblue" points="465.5,-146.43 469,-156.43 472.5,-146.43 465.5,-146.43"/>
</g>
<!-- Node11 -->
<g id="node11" class="node">
<title>Node11</title>
<g id="a_node11"><a xlink:href="Presenter_8hpp.xhtml" target="_top" xlink:title=" ">
<polygon fill="white" stroke="black" points="592,-78.5 592,-119.5 726,-119.5 726,-78.5 592,-78.5"/>
<text text-anchor="start" x="600" y="-107.5" font-family="Helvetica,sans-Serif" font-size="10.00">lib/application_business</text>
<text text-anchor="start" x="600" y="-96.5" font-family="Helvetica,sans-Serif" font-size="10.00">_rules/user_interaction</text>
<text text-anchor="middle" x="659" y="-85.5" font-family="Helvetica,sans-Serif" font-size="10.00">/Presenter.hpp</text>
</a>
</g>
</g>
<!-- Node9&#45;&gt;Node11 -->
<g id="edge11" class="edge">
<title>Node9&#45;&gt;Node11</title>
<path fill="none" stroke="midnightblue" d="M527.48,-152.61C554,-142 585,-129.6 610.24,-119.51"/>
<polygon fill="midnightblue" stroke="midnightblue" points="525.91,-149.46 517.93,-156.43 528.51,-155.96 525.91,-149.46"/>
</g>
<!-- Node11&#45;&gt;Node7 -->
<g id="edge14" class="edge">
<title>Node11&#45;&gt;Node7</title>
<path fill="none" stroke="midnightblue" d="M589.93,-75.28C544.16,-60.22 486.71,-41.32 453.99,-30.55"/>
<polygon fill="midnightblue" stroke="midnightblue" points="588.92,-78.63 599.51,-78.43 591.11,-71.98 588.92,-78.63"/>
</g>
<!-- Node11&#45;&gt;Node8 -->
<g id="edge15" class="edge">
<title>Node11&#45;&gt;Node8</title>
<path fill="none" stroke="midnightblue" d="M697.02,-72.66C715.21,-60.53 736.32,-46.45 751.66,-36.23"/>
<polygon fill="midnightblue" stroke="midnightblue" points="694.74,-69.97 688.36,-78.43 698.62,-75.79 694.74,-69.97"/>
</g>
<!-- Node12 -->
<g id="node12" class="node">
<title>Node12</title>
<g id="a_node12"><a xlink:href="Presenter_8cpp.xhtml" target="_top" xlink:title=" ">
<polygon fill="white" stroke="black" points="558,-0.5 558,-41.5 692,-41.5 692,-0.5 558,-0.5"/>
<text text-anchor="start" x="566" y="-29.5" font-family="Helvetica,sans-Serif" font-size="10.00">lib/application_business</text>
<text text-anchor="start" x="566" y="-18.5" font-family="Helvetica,sans-Serif" font-size="10.00">_rules/user_interaction</text>
<text text-anchor="middle" x="625" y="-7.5" font-family="Helvetica,sans-Serif" font-size="10.00">/Presenter.cpp</text>
</a>
</g>
</g>
<!-- Node11&#45;&gt;Node12 -->
<g id="edge12" class="edge">
<title>Node11&#45;&gt;Node12</title>
<path fill="none" stroke="midnightblue" d="M646.1,-69.17C641.97,-59.93 637.49,-49.92 633.73,-41.51"/>
<polygon fill="midnightblue" stroke="midnightblue" points="642.97,-70.73 650.24,-78.43 649.36,-67.87 642.97,-70.73"/>
</g>
<!-- Node11&#45;&gt;Node13 -->
<g id="edge13" class="edge">
<title>Node11&#45;&gt;Node13</title>
<path fill="none" stroke="midnightblue" d="M736.03,-80.58C793.96,-67.47 872.56,-49.69 927.93,-37.17"/>
<polygon fill="midnightblue" stroke="midnightblue" points="735.17,-77.18 726.19,-82.8 736.71,-84.01 735.17,-77.18"/>
</g>
<!-- Node14&#45;&gt;Node7 -->
<g id="edge20" class="edge">
<title>Node14&#45;&gt;Node7</title>
<path fill="none" stroke="midnightblue" d="M822.47,-231.36C754.78,-209.68 657.04,-172.47 583,-120 562.46,-105.45 565.18,-93.05 545,-78 516.12,-56.46 477.64,-39.97 452.84,-30.63"/>
<polygon fill="midnightblue" stroke="midnightblue" points="821.64,-234.77 832.23,-234.45 823.75,-228.1 821.64,-234.77"/>
</g>
<!-- Node14&#45;&gt;Node8 -->
<g id="edge21" class="edge">
<title>Node14&#45;&gt;Node8</title>
<path fill="none" stroke="midnightblue" d="M872.35,-227.21C863.97,-218.51 855.4,-208.41 849,-198 819.34,-149.73 830.04,-129.3 806,-78 799.1,-63.29 789.52,-47.41 782.46,-36.33"/>
<polygon fill="midnightblue" stroke="midnightblue" points="870.06,-229.87 879.61,-234.46 875.01,-224.91 870.06,-229.87"/>
</g>
<!-- Node15 -->
<g id="node15" class="node">
<title>Node15</title>
<g id="a_node15"><a xlink:href="keypad__factory__interface_8cpp.xhtml" target="_top" xlink:title=" ">
<polygon fill="white" stroke="black" points="858,-156.5 858,-197.5 1022,-197.5 1022,-156.5 858,-156.5"/>
<text text-anchor="start" x="866" y="-185.5" font-family="Helvetica,sans-Serif" font-size="10.00">lib/board_adapters</text>
<text text-anchor="start" x="866" y="-174.5" font-family="Helvetica,sans-Serif" font-size="10.00">/input_device_interface</text>
<text text-anchor="middle" x="940" y="-163.5" font-family="Helvetica,sans-Serif" font-size="10.00">/keypad_factory_interface.cpp</text>
</a>
</g>
</g>
<!-- Node14&#45;&gt;Node15 -->
<g id="edge19" class="edge">
<title>Node14&#45;&gt;Node15</title>
<path fill="none" stroke="midnightblue" d="M916.27,-225.47C920.93,-216.14 926,-206.01 930.25,-197.51"/>
<polygon fill="midnightblue" stroke="midnightblue" points="913.13,-223.92 911.79,-234.43 919.39,-227.05 913.13,-223.92"/>
</g>
<!-- Node16&#45;&gt;Node15 -->
<g id="edge26" class="edge">
<title>Node16&#45;&gt;Node15</title>
<path fill="none" stroke="midnightblue" d="M1081.96,-230.89C1053.32,-220.22 1019.69,-207.69 992.36,-197.51"/>
<polygon fill="midnightblue" stroke="midnightblue" points="1080.87,-234.22 1091.46,-234.43 1083.32,-227.66 1080.87,-234.22"/>
</g>
<!-- Node17 -->
<g id="node17" class="node">
<title>Node17</title>
<g id="a_node17"><a xlink:href="Keypad_8cpp.xhtml" target="_top" xlink:title=" ">
<polygon fill="white" stroke="black" points="1078.5,-156.5 1078.5,-197.5 1209.5,-197.5 1209.5,-156.5 1078.5,-156.5"/>
<text text-anchor="start" x="1086.5" y="-185.5" font-family="Helvetica,sans-Serif" font-size="10.00">lib/board_adapters</text>
<text text-anchor="start" x="1086.5" y="-174.5" font-family="Helvetica,sans-Serif" font-size="10.00">/input_device_interface</text>
<text text-anchor="middle" x="1144" y="-163.5" font-family="Helvetica,sans-Serif" font-size="10.00">/Keypad.cpp</text>
</a>
</g>
</g>
<!-- Node16&#45;&gt;Node17 -->
<g id="edge25" class="edge">
<title>Node16&#45;&gt;Node17</title>
<path fill="none" stroke="midnightblue" d="M1144,-224.3C1144,-215.3 1144,-205.65 1144,-197.51"/>
<polygon fill="midnightblue" stroke="midnightblue" points="1140.5,-224.43 1144,-234.43 1147.5,-224.43 1140.5,-224.43"/>
</g>
<!-- Node18 -->
<g id="node18" class="node">
<title>Node18</title>
<g id="a_node18"><a xlink:href="test__keyState_8cpp.xhtml" target="_top" xlink:title=" ">
<polygon fill="white" stroke="black" points="1227.5,-162 1227.5,-192 1354.5,-192 1354.5,-162 1227.5,-162"/>
<text text-anchor="start" x="1235.5" y="-180" font-family="Helvetica,sans-Serif" font-size="10.00">test/hmi/test_keyState</text>
<text text-anchor="middle" x="1291" y="-169" font-family="Helvetica,sans-Serif" font-size="10.00">/test_keyState.cpp</text>
</a>
</g>
</g>
<!-- Node16&#45;&gt;Node18 -->
<g id="edge27" class="edge">
<title>Node16&#45;&gt;Node18</title>
<path fill="none" stroke="midnightblue" d="M1190.79,-229.81C1214.74,-217.43 1243.07,-202.78 1263.49,-192.23"/>
<polygon fill="midnightblue" stroke="midnightblue" points="1189.13,-226.73 1181.86,-234.43 1192.35,-232.94 1189.13,-226.73"/>
</g>
</g>
</svg>
