<?xml version="1.0" encoding="UTF-8" standalone="no"?>
<!DOCTYPE svg PUBLIC "-//W3C//DTD SVG 1.1//EN"
 "http://www.w3.org/Graphics/SVG/1.1/DTD/svg11.dtd">
<!-- Generated by graphviz version 2.43.0 (0)
 -->
<!-- Title: lib/application_business_rules/user_interaction/IKeypad.hpp Pages: 1 -->
<svg width="1333pt" height="362pt"
 viewBox="0.00 0.00 1332.50 362.00" xmlns="http://www.w3.org/2000/svg" xmlns:xlink="http://www.w3.org/1999/xlink">
<g id="graph0" class="graph" transform="scale(1 1) rotate(0) translate(4 358)">
<title>lib/application_business_rules/user_interaction/IKeypad.hpp</title>
<polygon fill="white" stroke="transparent" points="-4,4 -4,-358 1328.5,-358 1328.5,4 -4,4"/>
<!-- Node1 -->
<g id="node1" class="node">
<title>Node1</title>
<g id="a_node1"><a xlink:title=" ">
<polygon fill="#bfbfbf" stroke="black" points="606,-312.5 606,-353.5 740,-353.5 740,-312.5 606,-312.5"/>
<text text-anchor="start" x="614" y="-341.5" font-family="Helvetica,sans-Serif" font-size="10.00">lib/application_business</text>
<text text-anchor="start" x="614" y="-330.5" font-family="Helvetica,sans-Serif" font-size="10.00">_rules/user_interaction</text>
<text text-anchor="middle" x="673" y="-319.5" font-family="Helvetica,sans-Serif" font-size="10.00">/IKeypad.hpp</text>
</a>
</g>
</g>
<!-- Node2 -->
<g id="node2" class="node">
<title>Node2</title>
<g id="a_node2"><a xlink:href="IGuiEngine_8hpp.xhtml" target="_top" xlink:title=" ">
<polygon fill="white" stroke="black" points="301,-234.5 301,-275.5 435,-275.5 435,-234.5 301,-234.5"/>
<text text-anchor="start" x="309" y="-263.5" font-family="Helvetica,sans-Serif" font-size="10.00">lib/application_business</text>
<text text-anchor="start" x="309" y="-252.5" font-family="Helvetica,sans-Serif" font-size="10.00">_rules/user_interaction</text>
<text text-anchor="middle" x="368" y="-241.5" font-family="Helvetica,sans-Serif" font-size="10.00">/IGuiEngine.hpp</text>
</a>
</g>
</g>
<!-- Node1&#45;&gt;Node2 -->
<g id="edge1" class="edge">
<title>Node1&#45;&gt;Node2</title>
<path fill="none" stroke="midnightblue" d="M595.98,-312.81C546.41,-300.46 482.63,-284.56 435.14,-272.73"/>
<polygon fill="midnightblue" stroke="midnightblue" points="595.14,-316.21 605.69,-315.23 596.83,-309.41 595.14,-316.21"/>
</g>
<!-- Node8 -->
<g id="node8" class="node">
<title>Node8</title>
<g id="a_node8"><a xlink:href="Menu_8hpp.xhtml" target="_top" xlink:title=" ">
<polygon fill="white" stroke="black" points="435,-156.5 435,-197.5 569,-197.5 569,-156.5 435,-156.5"/>
<text text-anchor="start" x="443" y="-185.5" font-family="Helvetica,sans-Serif" font-size="10.00">lib/application_business</text>
<text text-anchor="start" x="443" y="-174.5" font-family="Helvetica,sans-Serif" font-size="10.00">_rules/user_interaction</text>
<text text-anchor="middle" x="502" y="-163.5" font-family="Helvetica,sans-Serif" font-size="10.00">/Menu.hpp</text>
</a>
</g>
</g>
<!-- Node1&#45;&gt;Node8 -->
<g id="edge21" class="edge">
<title>Node1&#45;&gt;Node8</title>
<path fill="none" stroke="midnightblue" d="M639.6,-305.82C628.14,-296.6 615.35,-286.03 604,-276 574.37,-249.82 541.67,-217.81 521.47,-197.66"/>
<polygon fill="midnightblue" stroke="midnightblue" points="637.67,-308.76 647.67,-312.28 642.05,-303.3 637.67,-308.76"/>
</g>
<!-- Node12 -->
<g id="node12" class="node">
<title>Node12</title>
<g id="a_node12"><a xlink:href="ProcessHmiInputs_8cpp.xhtml" target="_top" xlink:title=" ">
<polygon fill="white" stroke="black" points="585,-0.5 585,-41.5 719,-41.5 719,-0.5 585,-0.5"/>
<text text-anchor="start" x="593" y="-29.5" font-family="Helvetica,sans-Serif" font-size="10.00">lib/application_business</text>
<text text-anchor="start" x="593" y="-18.5" font-family="Helvetica,sans-Serif" font-size="10.00">_rules/user_interaction</text>
<text text-anchor="middle" x="652" y="-7.5" font-family="Helvetica,sans-Serif" font-size="10.00">/ProcessHmiInputs.cpp</text>
</a>
</g>
</g>
<!-- Node1&#45;&gt;Node12 -->
<g id="edge22" class="edge">
<title>Node1&#45;&gt;Node12</title>
<path fill="none" stroke="midnightblue" d="M650.6,-304C645.05,-295.5 639.88,-285.79 637,-276 631.74,-258.09 632.04,-252 637,-234 657.1,-161.08 732.98,-148.27 705,-78 699.4,-63.95 688.42,-51.39 677.9,-41.74"/>
<polygon fill="midnightblue" stroke="midnightblue" points="647.85,-306.18 656.43,-312.39 653.6,-302.18 647.85,-306.18"/>
</g>
<!-- Node13 -->
<g id="node13" class="node">
<title>Node13</title>
<g id="a_node13"><a xlink:href="test__hmi_8cpp.xhtml" target="_top" xlink:title=" ">
<polygon fill="white" stroke="black" points="737.5,-6 737.5,-36 862.5,-36 862.5,-6 737.5,-6"/>
<text text-anchor="start" x="745.5" y="-24" font-family="Helvetica,sans-Serif" font-size="10.00">test/hmi/test_hmi/test</text>
<text text-anchor="middle" x="800" y="-13" font-family="Helvetica,sans-Serif" font-size="10.00">_hmi.cpp</text>
</a>
</g>
</g>
<!-- Node1&#45;&gt;Node13 -->
<g id="edge27" class="edge">
<title>Node1&#45;&gt;Node13</title>
<path fill="none" stroke="midnightblue" d="M749.9,-320.67C776.27,-312.69 803.11,-299.11 819,-276 871.61,-199.48 825.12,-77.58 806.72,-36.24"/>
<polygon fill="midnightblue" stroke="midnightblue" points="748.92,-317.3 740.23,-323.36 750.8,-324.05 748.92,-317.3"/>
</g>
<!-- Node14 -->
<g id="node14" class="node">
<title>Node14</title>
<g id="a_node14"><a xlink:href="keypad__factory__interface_8hpp.xhtml" target="_top" xlink:title="Dependency injection for the keypad.">
<polygon fill="white" stroke="black" points="646,-234.5 646,-275.5 810,-275.5 810,-234.5 646,-234.5"/>
<text text-anchor="start" x="654" y="-263.5" font-family="Helvetica,sans-Serif" font-size="10.00">lib/application_business</text>
<text text-anchor="start" x="654" y="-252.5" font-family="Helvetica,sans-Serif" font-size="10.00">_rules/user_interaction</text>
<text text-anchor="middle" x="728" y="-241.5" font-family="Helvetica,sans-Serif" font-size="10.00">/keypad_factory_interface.hpp</text>
</a>
</g>
</g>
<!-- Node1&#45;&gt;Node14 -->
<g id="edge17" class="edge">
<title>Node1&#45;&gt;Node14</title>
<path fill="none" stroke="midnightblue" d="M693.23,-304.05C700.09,-294.57 707.6,-284.18 713.88,-275.51"/>
<polygon fill="midnightblue" stroke="midnightblue" points="690.19,-302.27 687.16,-312.43 695.86,-306.38 690.19,-302.27"/>
</g>
<!-- Node16 -->
<g id="node16" class="node">
<title>Node16</title>
<g id="a_node16"><a xlink:href="Keypad_8hpp.xhtml" target="_top" xlink:title=" ">
<polygon fill="white" stroke="black" points="965.5,-234.5 965.5,-275.5 1096.5,-275.5 1096.5,-234.5 965.5,-234.5"/>
<text text-anchor="start" x="973.5" y="-263.5" font-family="Helvetica,sans-Serif" font-size="10.00">lib/board_adapters</text>
<text text-anchor="start" x="973.5" y="-252.5" font-family="Helvetica,sans-Serif" font-size="10.00">/input_device_interface</text>
<text text-anchor="middle" x="1031" y="-241.5" font-family="Helvetica,sans-Serif" font-size="10.00">/Keypad.hpp</text>
</a>
</g>
</g>
<!-- Node1&#45;&gt;Node16 -->
<g id="edge23" class="edge">
<title>Node1&#45;&gt;Node16</title>
<path fill="none" stroke="midnightblue" d="M750.41,-315.57C814.59,-301.94 904.82,-282.79 965.48,-269.91"/>
<polygon fill="midnightblue" stroke="midnightblue" points="749.39,-312.2 740.34,-317.7 750.85,-319.05 749.39,-312.2"/>
</g>
<!-- Node3 -->
<g id="node3" class="node">
<title>Node3</title>
<g id="a_node3"><a xlink:href="GuiEngine_8hpp.xhtml" target="_top" xlink:title=" ">
<polygon fill="white" stroke="black" points="84,-162 84,-192 210,-192 210,-162 84,-162"/>
<text text-anchor="start" x="92" y="-180" font-family="Helvetica,sans-Serif" font-size="10.00">lib/3rd_party_adapters</text>
<text text-anchor="middle" x="147" y="-169" font-family="Helvetica,sans-Serif" font-size="10.00">/LVGL/GuiEngine.hpp</text>
</a>
</g>
</g>
<!-- Node2&#45;&gt;Node3 -->
<g id="edge2" class="edge">
<title>Node2&#45;&gt;Node3</title>
<path fill="none" stroke="midnightblue" d="M301.4,-231.1C264.5,-218.41 219.81,-203.04 188.02,-192.11"/>
<polygon fill="midnightblue" stroke="midnightblue" points="300.49,-234.49 311.09,-234.43 302.77,-227.87 300.49,-234.49"/>
</g>
<!-- Node6 -->
<g id="node6" class="node">
<title>Node6</title>
<g id="a_node6"><a xlink:href="guiEngine__factory__interface_8hpp.xhtml" target="_top" xlink:title="Dependency injection for the guiEngine.">
<polygon fill="white" stroke="black" points="228.5,-156.5 228.5,-197.5 405.5,-197.5 405.5,-156.5 228.5,-156.5"/>
<text text-anchor="start" x="236.5" y="-185.5" font-family="Helvetica,sans-Serif" font-size="10.00">lib/application_business</text>
<text text-anchor="start" x="236.5" y="-174.5" font-family="Helvetica,sans-Serif" font-size="10.00">_rules/user_interaction</text>
<text text-anchor="middle" x="317" y="-163.5" font-family="Helvetica,sans-Serif" font-size="10.00">/guiEngine_factory_interface.hpp</text>
</a>
</g>
</g>
<!-- Node2&#45;&gt;Node6 -->
<g id="edge5" class="edge">
<title>Node2&#45;&gt;Node6</title>
<path fill="none" stroke="midnightblue" d="M349.24,-226.05C342.88,-216.57 335.91,-206.18 330.09,-197.51"/>
<polygon fill="midnightblue" stroke="midnightblue" points="346.39,-228.07 354.87,-234.43 352.2,-224.17 346.39,-228.07"/>
</g>
<!-- Node2&#45;&gt;Node8 -->
<g id="edge8" class="edge">
<title>Node2&#45;&gt;Node8</title>
<path fill="none" stroke="midnightblue" d="M411.22,-229.49C429.48,-219.13 450.43,-207.25 467.61,-197.51"/>
<polygon fill="midnightblue" stroke="midnightblue" points="409.48,-226.45 402.51,-234.43 412.93,-232.54 409.48,-226.45"/>
</g>
<!-- Node4 -->
<g id="node4" class="node">
<title>Node4</title>
<g id="a_node4"><a xlink:href="GuiEngine_8cpp.xhtml" target="_top" xlink:title=" ">
<polygon fill="white" stroke="black" points="0,-84 0,-114 126,-114 126,-84 0,-84"/>
<text text-anchor="start" x="8" y="-102" font-family="Helvetica,sans-Serif" font-size="10.00">lib/3rd_party_adapters</text>
<text text-anchor="middle" x="63" y="-91" font-family="Helvetica,sans-Serif" font-size="10.00">/LVGL/GuiEngine.cpp</text>
</a>
</g>
</g>
<!-- Node3&#45;&gt;Node4 -->
<g id="edge3" class="edge">
<title>Node3&#45;&gt;Node4</title>
<path fill="none" stroke="midnightblue" d="M123.67,-154.89C109.35,-141.93 91.38,-125.68 78.73,-114.23"/>
<polygon fill="midnightblue" stroke="midnightblue" points="121.44,-157.59 131.2,-161.7 126.13,-152.4 121.44,-157.59"/>
</g>
<!-- Node5 -->
<g id="node5" class="node">
<title>Node5</title>
<g id="a_node5"><a xlink:href="guiEngine__factory__interface_8cpp.xhtml" target="_top" xlink:title=" ">
<polygon fill="white" stroke="black" points="144,-78.5 144,-119.5 278,-119.5 278,-78.5 144,-78.5"/>
<text text-anchor="start" x="152" y="-107.5" font-family="Helvetica,sans-Serif" font-size="10.00">lib/3rd_party_adapters</text>
<text text-anchor="start" x="152" y="-96.5" font-family="Helvetica,sans-Serif" font-size="10.00">/LVGL/guiEngine_factory</text>
<text text-anchor="middle" x="211" y="-85.5" font-family="Helvetica,sans-Serif" font-size="10.00">_interface.cpp</text>
</a>
</g>
</g>
<!-- Node3&#45;&gt;Node5 -->
<g id="edge4" class="edge">
<title>Node3&#45;&gt;Node5</title>
<path fill="none" stroke="midnightblue" d="M165.6,-153.91C174.71,-143.09 185.6,-130.16 194.43,-119.68"/>
<polygon fill="midnightblue" stroke="midnightblue" points="162.8,-151.8 159.04,-161.7 168.16,-156.31 162.8,-151.8"/>
</g>
<!-- Node6&#45;&gt;Node5 -->
<g id="edge6" class="edge">
<title>Node6&#45;&gt;Node5</title>
<path fill="none" stroke="midnightblue" d="M281.23,-150.35C267.17,-140.27 251.3,-128.89 238.21,-119.51"/>
<polygon fill="midnightblue" stroke="midnightblue" points="279.54,-153.45 289.7,-156.43 283.61,-147.76 279.54,-153.45"/>
</g>
<!-- Node7 -->
<g id="node7" class="node">
<title>Node7</title>
<g id="a_node7"><a xlink:href="main_8cpp.xhtml" target="_top" xlink:title=" ">
<polygon fill="white" stroke="black" points="320.5,-11.5 320.5,-30.5 399.5,-30.5 399.5,-11.5 320.5,-11.5"/>
<text text-anchor="middle" x="360" y="-18.5" font-family="Helvetica,sans-Serif" font-size="10.00">src/main.cpp</text>
</a>
</g>
</g>
<!-- Node6&#45;&gt;Node7 -->
<g id="edge7" class="edge">
<title>Node6&#45;&gt;Node7</title>
<path fill="none" stroke="midnightblue" d="M318.18,-146.16C319.62,-126.43 322.85,-100.19 330,-78 335.75,-60.15 347.09,-41.32 354.07,-30.67"/>
<polygon fill="midnightblue" stroke="midnightblue" points="314.67,-146.2 317.54,-156.39 321.65,-146.63 314.67,-146.2"/>
</g>
<!-- Node8&#45;&gt;Node7 -->
<g id="edge15" class="edge">
<title>Node8&#45;&gt;Node7</title>
<path fill="none" stroke="midnightblue" d="M424.93,-153.23C397.36,-143.44 371.09,-131.59 363,-120 343.71,-92.36 352.47,-48.85 357.42,-30.56"/>
<polygon fill="midnightblue" stroke="midnightblue" points="424.11,-156.65 434.7,-156.6 426.39,-150.03 424.11,-156.65"/>
</g>
<!-- Node9 -->
<g id="node9" class="node">
<title>Node9</title>
<g id="a_node9"><a xlink:href="Menu_8cpp.xhtml" target="_top" xlink:title=" ">
<polygon fill="white" stroke="black" points="372,-78.5 372,-119.5 506,-119.5 506,-78.5 372,-78.5"/>
<text text-anchor="start" x="380" y="-107.5" font-family="Helvetica,sans-Serif" font-size="10.00">lib/application_business</text>
<text text-anchor="start" x="380" y="-96.5" font-family="Helvetica,sans-Serif" font-size="10.00">_rules/user_interaction</text>
<text text-anchor="middle" x="439" y="-85.5" font-family="Helvetica,sans-Serif" font-size="10.00">/Menu.cpp</text>
</a>
</g>
</g>
<!-- Node8&#45;&gt;Node9 -->
<g id="edge9" class="edge">
<title>Node8&#45;&gt;Node9</title>
<path fill="none" stroke="midnightblue" d="M479.31,-148.63C471.32,-138.99 462.51,-128.36 455.17,-119.51"/>
<polygon fill="midnightblue" stroke="midnightblue" points="476.7,-150.96 485.78,-156.43 482.09,-146.5 476.7,-150.96"/>
</g>
<!-- Node10 -->
<g id="node10" class="node">
<title>Node10</title>
<g id="a_node10"><a xlink:href="Presenter_8hpp.xhtml" target="_top" xlink:title=" ">
<polygon fill="white" stroke="black" points="562,-78.5 562,-119.5 696,-119.5 696,-78.5 562,-78.5"/>
<text text-anchor="start" x="570" y="-107.5" font-family="Helvetica,sans-Serif" font-size="10.00">lib/application_business</text>
<text text-anchor="start" x="570" y="-96.5" font-family="Helvetica,sans-Serif" font-size="10.00">_rules/user_interaction</text>
<text text-anchor="middle" x="629" y="-85.5" font-family="Helvetica,sans-Serif" font-size="10.00">/Presenter.hpp</text>
</a>
</g>
</g>
<!-- Node8&#45;&gt;Node10 -->
<g id="edge10" class="edge">
<title>Node8&#45;&gt;Node10</title>
<path fill="none" stroke="midnightblue" d="M543.44,-151.2C560.62,-140.92 580.27,-129.16 596.41,-119.51"/>
<polygon fill="midnightblue" stroke="midnightblue" points="541.49,-148.29 534.71,-156.43 545.08,-154.3 541.49,-148.29"/>
</g>
<!-- Node8&#45;&gt;Node13 -->
<g id="edge16" class="edge">
<title>Node8&#45;&gt;Node13</title>
<path fill="none" stroke="midnightblue" d="M578.95,-164.76C618.61,-156.56 666.58,-142.77 705,-120 742.1,-98.01 774.46,-57.75 790.08,-36.32"/>
<polygon fill="midnightblue" stroke="midnightblue" points="578.18,-161.34 569.06,-166.72 579.55,-168.21 578.18,-161.34"/>
</g>
<!-- Node10&#45;&gt;Node7 -->
<g id="edge13" class="edge">
<title>Node10&#45;&gt;Node7</title>
<path fill="none" stroke="midnightblue" d="M551.79,-77.62C513.3,-67.28 466.09,-54.32 424,-42 411.71,-38.4 398.17,-34.2 386.71,-30.59"/>
<polygon fill="midnightblue" stroke="midnightblue" points="551.33,-81.12 561.89,-80.32 553.14,-74.35 551.33,-81.12"/>
</g>
<!-- Node11 -->
<g id="node11" class="node">
<title>Node11</title>
<g id="a_node11"><a xlink:href="Presenter_8cpp.xhtml" target="_top" xlink:title=" ">
<polygon fill="white" stroke="black" points="433,-0.5 433,-41.5 567,-41.5 567,-0.5 433,-0.5"/>
<text text-anchor="start" x="441" y="-29.5" font-family="Helvetica,sans-Serif" font-size="10.00">lib/application_business</text>
<text text-anchor="start" x="441" y="-18.5" font-family="Helvetica,sans-Serif" font-size="10.00">_rules/user_interaction</text>
<text text-anchor="middle" x="500" y="-7.5" font-family="Helvetica,sans-Serif" font-size="10.00">/Presenter.cpp</text>
</a>
</g>
</g>
<!-- Node10&#45;&gt;Node11 -->
<g id="edge11" class="edge">
<title>Node10&#45;&gt;Node11</title>
<path fill="none" stroke="midnightblue" d="M586.91,-73.2C569.45,-62.92 549.49,-51.16 533.11,-41.51"/>
<polygon fill="midnightblue" stroke="midnightblue" points="585.39,-76.37 595.78,-78.43 588.94,-70.34 585.39,-76.37"/>
</g>
<!-- Node10&#45;&gt;Node12 -->
<g id="edge12" class="edge">
<title>Node10&#45;&gt;Node12</title>
<path fill="none" stroke="midnightblue" d="M637.9,-68.59C640.65,-59.51 643.6,-49.74 646.1,-41.51"/>
<polygon fill="midnightblue" stroke="midnightblue" points="634.47,-67.84 634.92,-78.43 641.17,-69.87 634.47,-67.84"/>
</g>
<!-- Node10&#45;&gt;Node13 -->
<g id="edge14" class="edge">
<title>Node10&#45;&gt;Node13</title>
<path fill="none" stroke="midnightblue" d="M682.36,-74.28C710.55,-61.76 744.19,-46.81 768.26,-36.11"/>
<polygon fill="midnightblue" stroke="midnightblue" points="680.75,-71.17 673.04,-78.43 683.6,-77.57 680.75,-71.17"/>
</g>
<!-- Node14&#45;&gt;Node7 -->
<g id="edge19" class="edge">
<title>Node14&#45;&gt;Node7</title>
<path fill="none" stroke="midnightblue" d="M690.78,-228.51C654.26,-202.81 597.68,-161.16 553,-120 534.49,-102.94 535.9,-92.03 515,-78 503.95,-70.59 427.13,-44.38 385.95,-30.61"/>
<polygon fill="midnightblue" stroke="midnightblue" points="688.96,-231.51 699.16,-234.37 692.98,-225.77 688.96,-231.51"/>
</g>
<!-- Node14&#45;&gt;Node13 -->
<g id="edge20" class="edge">
<title>Node14&#45;&gt;Node13</title>
<path fill="none" stroke="midnightblue" d="M739.51,-224.64C749.84,-197.69 765.02,-156.51 776,-120 784.88,-90.48 792.89,-55.23 797.03,-36.08"/>
<polygon fill="midnightblue" stroke="midnightblue" points="736.14,-223.65 735.81,-234.24 742.67,-226.17 736.14,-223.65"/>
</g>
<!-- Node15 -->
<g id="node15" class="node">
<title>Node15</title>
<g id="a_node15"><a xlink:href="keypad__factory__interface_8cpp.xhtml" target="_top" xlink:title=" ">
<polygon fill="white" stroke="black" points="866,-156.5 866,-197.5 1030,-197.5 1030,-156.5 866,-156.5"/>
<text text-anchor="start" x="874" y="-185.5" font-family="Helvetica,sans-Serif" font-size="10.00">lib/board_adapters</text>
<text text-anchor="start" x="874" y="-174.5" font-family="Helvetica,sans-Serif" font-size="10.00">/input_device_interface</text>
<text text-anchor="middle" x="948" y="-163.5" font-family="Helvetica,sans-Serif" font-size="10.00">/keypad_factory_interface.cpp</text>
</a>
</g>
</g>
<!-- Node14&#45;&gt;Node15 -->
<g id="edge18" class="edge">
<title>Node14&#45;&gt;Node15</title>
<path fill="none" stroke="midnightblue" d="M794.5,-231.03C825.47,-220.33 861.93,-207.73 891.54,-197.51"/>
<polygon fill="midnightblue" stroke="midnightblue" points="792.96,-227.85 784.66,-234.43 795.25,-234.47 792.96,-227.85"/>
</g>
<!-- Node16&#45;&gt;Node15 -->
<g id="edge25" class="edge">
<title>Node16&#45;&gt;Node15</title>
<path fill="none" stroke="midnightblue" d="M1002.05,-227.49C991.28,-217.63 979.26,-206.63 969.3,-197.51"/>
<polygon fill="midnightblue" stroke="midnightblue" points="999.89,-230.26 1009.63,-234.43 1004.61,-225.09 999.89,-230.26"/>
</g>
<!-- Node17 -->
<g id="node17" class="node">
<title>Node17</title>
<g id="a_node17"><a xlink:href="Keypad_8cpp.xhtml" target="_top" xlink:title=" ">
<polygon fill="white" stroke="black" points="1048.5,-156.5 1048.5,-197.5 1179.5,-197.5 1179.5,-156.5 1048.5,-156.5"/>
<text text-anchor="start" x="1056.5" y="-185.5" font-family="Helvetica,sans-Serif" font-size="10.00">lib/board_adapters</text>
<text text-anchor="start" x="1056.5" y="-174.5" font-family="Helvetica,sans-Serif" font-size="10.00">/input_device_interface</text>
<text text-anchor="middle" x="1114" y="-163.5" font-family="Helvetica,sans-Serif" font-size="10.00">/Keypad.cpp</text>
</a>
</g>
</g>
<!-- Node16&#45;&gt;Node17 -->
<g id="edge24" class="edge">
<title>Node16&#45;&gt;Node17</title>
<path fill="none" stroke="midnightblue" d="M1059.95,-227.49C1070.72,-217.63 1082.74,-206.63 1092.7,-197.51"/>
<polygon fill="midnightblue" stroke="midnightblue" points="1057.39,-225.09 1052.37,-234.43 1062.11,-230.26 1057.39,-225.09"/>
</g>
<!-- Node18 -->
<g id="node18" class="node">
<title>Node18</title>
<g id="a_node18"><a xlink:href="test__keyState_8cpp.xhtml" target="_top" xlink:title=" ">
<polygon fill="white" stroke="black" points="1197.5,-162 1197.5,-192 1324.5,-192 1324.5,-162 1197.5,-162"/>
<text text-anchor="start" x="1205.5" y="-180" font-family="Helvetica,sans-Serif" font-size="10.00">test/hmi/test_keyState</text>
<text text-anchor="middle" x="1261" y="-169" font-family="Helvetica,sans-Serif" font-size="10.00">/test_keyState.cpp</text>
</a>
</g>
</g>
<!-- Node16&#45;&gt;Node18 -->
<g id="edge26" class="edge">
<title>Node16&#45;&gt;Node18</title>
<path fill="none" stroke="midnightblue" d="M1099.83,-231.26C1138.32,-218.54 1185.09,-203.08 1218.31,-192.11"/>
<polygon fill="midnightblue" stroke="midnightblue" points="1098.63,-227.97 1090.23,-234.43 1100.82,-234.61 1098.63,-227.97"/>
</g>
</g>
</svg>
