<?xml version="1.0" encoding="UTF-8" standalone="no"?>
<!DOCTYPE svg PUBLIC "-//W3C//DTD SVG 1.1//EN"
 "http://www.w3.org/Graphics/SVG/1.1/DTD/svg11.dtd">
<!-- Generated by graphviz version 2.43.0 (0)
 -->
<!-- Title: lib/application_business_rules/user_interaction/IKeypad.hpp Pages: 1 -->
<svg width="1234pt" height="362pt"
 viewBox="0.00 0.00 1234.00 362.00" xmlns="http://www.w3.org/2000/svg" xmlns:xlink="http://www.w3.org/1999/xlink">
<g id="graph0" class="graph" transform="scale(1 1) rotate(0) translate(4 358)">
<title>lib/application_business_rules/user_interaction/IKeypad.hpp</title>
<polygon fill="white" stroke="transparent" points="-4,4 -4,-358 1230,-358 1230,4 -4,4"/>
<!-- Node1 -->
<g id="node1" class="node">
<title>Node1</title>
<g id="a_node1"><a xlink:title=" ">
<polygon fill="#bfbfbf" stroke="black" points="789,-312.5 789,-353.5 923,-353.5 923,-312.5 789,-312.5"/>
<text text-anchor="start" x="797" y="-341.5" font-family="Helvetica,sans-Serif" font-size="10.00">lib/application_business</text>
<text text-anchor="start" x="797" y="-330.5" font-family="Helvetica,sans-Serif" font-size="10.00">_rules/user_interaction</text>
<text text-anchor="middle" x="856" y="-319.5" font-family="Helvetica,sans-Serif" font-size="10.00">/IKeypad.hpp</text>
</a>
</g>
</g>
<!-- Node2 -->
<g id="node2" class="node">
<title>Node2</title>
<g id="a_node2"><a xlink:href="IGuiEngine_8hpp.xhtml" target="_top" xlink:title=" ">
<polygon fill="white" stroke="black" points="386,-234.5 386,-275.5 520,-275.5 520,-234.5 386,-234.5"/>
<text text-anchor="start" x="394" y="-263.5" font-family="Helvetica,sans-Serif" font-size="10.00">lib/application_business</text>
<text text-anchor="start" x="394" y="-252.5" font-family="Helvetica,sans-Serif" font-size="10.00">_rules/user_interaction</text>
<text text-anchor="middle" x="453" y="-241.5" font-family="Helvetica,sans-Serif" font-size="10.00">/IGuiEngine.hpp</text>
</a>
</g>
</g>
<!-- Node1&#45;&gt;Node2 -->
<g id="edge1" class="edge">
<title>Node1&#45;&gt;Node2</title>
<path fill="none" stroke="midnightblue" d="M778.69,-317.42C703.75,-303.29 591.24,-282.07 520,-268.64"/>
<polygon fill="midnightblue" stroke="midnightblue" points="778.07,-320.87 788.55,-319.28 779.37,-313.99 778.07,-320.87"/>
</g>
<!-- Node8 -->
<g id="node8" class="node">
<title>Node8</title>
<g id="a_node8"><a xlink:href="test__hmi_8cpp.xhtml" target="_top" xlink:title=" ">
<polygon fill="white" stroke="black" points="699.5,-6 699.5,-36 824.5,-36 824.5,-6 699.5,-6"/>
<text text-anchor="start" x="707.5" y="-24" font-family="Helvetica,sans-Serif" font-size="10.00">test/hmi/test_hmi/test</text>
<text text-anchor="middle" x="762" y="-13" font-family="Helvetica,sans-Serif" font-size="10.00">_hmi.cpp</text>
</a>
</g>
</g>
<!-- Node1&#45;&gt;Node8 -->
<g id="edge27" class="edge">
<title>Node1&#45;&gt;Node8</title>
<path fill="none" stroke="midnightblue" d="M872.57,-303.45C890.95,-267.87 915.47,-205.67 895,-156 872.59,-101.6 816.22,-57.61 784.53,-36.17"/>
<polygon fill="midnightblue" stroke="midnightblue" points="869.46,-301.86 867.83,-312.33 875.63,-305.16 869.46,-301.86"/>
</g>
<!-- Node9 -->
<g id="node9" class="node">
<title>Node9</title>
<g id="a_node9"><a xlink:href="Menu_8hpp.xhtml" target="_top" xlink:title=" ">
<polygon fill="white" stroke="black" points="438,-156.5 438,-197.5 572,-197.5 572,-156.5 438,-156.5"/>
<text text-anchor="start" x="446" y="-185.5" font-family="Helvetica,sans-Serif" font-size="10.00">lib/application_business</text>
<text text-anchor="start" x="446" y="-174.5" font-family="Helvetica,sans-Serif" font-size="10.00">_rules/user_interaction</text>
<text text-anchor="middle" x="505" y="-163.5" font-family="Helvetica,sans-Serif" font-size="10.00">/Menu.hpp</text>
</a>
</g>
</g>
<!-- Node1&#45;&gt;Node9 -->
<g id="edge21" class="edge">
<title>Node1&#45;&gt;Node9</title>
<path fill="none" stroke="midnightblue" d="M778.54,-316.3C740.37,-307.11 694.23,-293.76 655,-276 607.68,-254.57 558.26,-219.4 529.62,-197.53"/>
<polygon fill="midnightblue" stroke="midnightblue" points="778.03,-319.78 788.57,-318.67 779.64,-312.97 778.03,-319.78"/>
</g>
<!-- Node13 -->
<g id="node13" class="node">
<title>Node13</title>
<g id="a_node13"><a xlink:href="keypad__factory__interface_8hpp.xhtml" target="_top" xlink:title="Dependency injection for the keypad.">
<polygon fill="white" stroke="black" points="664,-234.5 664,-275.5 828,-275.5 828,-234.5 664,-234.5"/>
<text text-anchor="start" x="672" y="-263.5" font-family="Helvetica,sans-Serif" font-size="10.00">lib/application_business</text>
<text text-anchor="start" x="672" y="-252.5" font-family="Helvetica,sans-Serif" font-size="10.00">_rules/user_interaction</text>
<text text-anchor="middle" x="746" y="-241.5" font-family="Helvetica,sans-Serif" font-size="10.00">/keypad_factory_interface.hpp</text>
</a>
</g>
</g>
<!-- Node1&#45;&gt;Node13 -->
<g id="edge17" class="edge">
<title>Node1&#45;&gt;Node13</title>
<path fill="none" stroke="midnightblue" d="M819.29,-306.64C804.6,-296.49 787.95,-284.98 774.23,-275.51"/>
<polygon fill="midnightblue" stroke="midnightblue" points="817.46,-309.62 827.67,-312.43 821.43,-303.86 817.46,-309.62"/>
</g>
<!-- Node15 -->
<g id="node15" class="node">
<title>Node15</title>
<g id="a_node15"><a xlink:href="ProcessHmiInputs_8cpp.xhtml" target="_top" xlink:title=" ">
<polygon fill="white" stroke="black" points="1092,-234.5 1092,-275.5 1226,-275.5 1226,-234.5 1092,-234.5"/>
<text text-anchor="start" x="1100" y="-263.5" font-family="Helvetica,sans-Serif" font-size="10.00">lib/application_business</text>
<text text-anchor="start" x="1100" y="-252.5" font-family="Helvetica,sans-Serif" font-size="10.00">_rules/user_interaction</text>
<text text-anchor="middle" x="1159" y="-241.5" font-family="Helvetica,sans-Serif" font-size="10.00">/ProcessHmiInputs.cpp</text>
</a>
</g>
</g>
<!-- Node1&#45;&gt;Node15 -->
<g id="edge22" class="edge">
<title>Node1&#45;&gt;Node15</title>
<path fill="none" stroke="midnightblue" d="M932.88,-313.35C976.88,-302.59 1033.08,-288.72 1083,-276 1085.91,-275.26 1088.88,-274.5 1091.88,-273.72"/>
<polygon fill="midnightblue" stroke="midnightblue" points="932,-309.96 923.11,-315.73 933.66,-316.76 932,-309.96"/>
</g>
<!-- Node16 -->
<g id="node16" class="node">
<title>Node16</title>
<g id="a_node16"><a xlink:href="Keypad_8hpp.xhtml" target="_top" xlink:title=" ">
<polygon fill="white" stroke="black" points="942.5,-234.5 942.5,-275.5 1073.5,-275.5 1073.5,-234.5 942.5,-234.5"/>
<text text-anchor="start" x="950.5" y="-263.5" font-family="Helvetica,sans-Serif" font-size="10.00">lib/board_adapters</text>
<text text-anchor="start" x="950.5" y="-252.5" font-family="Helvetica,sans-Serif" font-size="10.00">/input_device_interface</text>
<text text-anchor="middle" x="1008" y="-241.5" font-family="Helvetica,sans-Serif" font-size="10.00">/Keypad.hpp</text>
</a>
</g>
</g>
<!-- Node1&#45;&gt;Node16 -->
<g id="edge23" class="edge">
<title>Node1&#45;&gt;Node16</title>
<path fill="none" stroke="midnightblue" d="M904.18,-307.91C925.08,-297.46 949.24,-285.38 968.99,-275.51"/>
<polygon fill="midnightblue" stroke="midnightblue" points="902.52,-304.83 895.14,-312.43 905.65,-311.09 902.52,-304.83"/>
</g>
<!-- Node3 -->
<g id="node3" class="node">
<title>Node3</title>
<g id="a_node3"><a xlink:href="GuiEngine_8hpp.xhtml" target="_top" xlink:title=" ">
<polygon fill="white" stroke="black" points="45,-162 45,-192 171,-192 171,-162 45,-162"/>
<text text-anchor="start" x="53" y="-180" font-family="Helvetica,sans-Serif" font-size="10.00">lib/3rd_party_adapters</text>
<text text-anchor="middle" x="108" y="-169" font-family="Helvetica,sans-Serif" font-size="10.00">/LVGL/GuiEngine.hpp</text>
</a>
</g>
</g>
<!-- Node2&#45;&gt;Node3 -->
<g id="edge2" class="edge">
<title>Node2&#45;&gt;Node3</title>
<path fill="none" stroke="midnightblue" d="M375.96,-239.66C321.1,-229.09 245.75,-213.86 180,-198 172.43,-196.18 164.46,-194.11 156.68,-192.01"/>
<polygon fill="midnightblue" stroke="midnightblue" points="375.48,-243.13 385.96,-241.58 376.8,-236.26 375.48,-243.13"/>
</g>
<!-- Node6 -->
<g id="node6" class="node">
<title>Node6</title>
<g id="a_node6"><a xlink:href="guiEngine__factory__interface_8hpp.xhtml" target="_top" xlink:title="Dependency injection for the guiEngine.">
<polygon fill="white" stroke="black" points="189.5,-156.5 189.5,-197.5 366.5,-197.5 366.5,-156.5 189.5,-156.5"/>
<text text-anchor="start" x="197.5" y="-185.5" font-family="Helvetica,sans-Serif" font-size="10.00">lib/application_business</text>
<text text-anchor="start" x="197.5" y="-174.5" font-family="Helvetica,sans-Serif" font-size="10.00">_rules/user_interaction</text>
<text text-anchor="middle" x="278" y="-163.5" font-family="Helvetica,sans-Serif" font-size="10.00">/guiEngine_factory_interface.hpp</text>
</a>
</g>
</g>
<!-- Node2&#45;&gt;Node6 -->
<g id="edge5" class="edge">
<title>Node2&#45;&gt;Node6</title>
<path fill="none" stroke="midnightblue" d="M398.49,-230.33C374.21,-219.78 345.96,-207.51 322.91,-197.51"/>
<polygon fill="midnightblue" stroke="midnightblue" points="397.37,-233.65 407.93,-234.43 400.15,-227.23 397.37,-233.65"/>
</g>
<!-- Node2&#45;&gt;Node9 -->
<g id="edge9" class="edge">
<title>Node2&#45;&gt;Node9</title>
<path fill="none" stroke="midnightblue" d="M472.13,-226.05C478.61,-216.57 485.72,-206.18 491.65,-197.51"/>
<polygon fill="midnightblue" stroke="midnightblue" points="469.15,-224.2 466.39,-234.43 474.93,-228.15 469.15,-224.2"/>
</g>
<!-- Node4 -->
<g id="node4" class="node">
<title>Node4</title>
<g id="a_node4"><a xlink:href="GuiEngine_8cpp.xhtml" target="_top" xlink:title=" ">
<polygon fill="white" stroke="black" points="0,-84 0,-114 126,-114 126,-84 0,-84"/>
<text text-anchor="start" x="8" y="-102" font-family="Helvetica,sans-Serif" font-size="10.00">lib/3rd_party_adapters</text>
<text text-anchor="middle" x="63" y="-91" font-family="Helvetica,sans-Serif" font-size="10.00">/LVGL/GuiEngine.cpp</text>
</a>
</g>
</g>
<!-- Node3&#45;&gt;Node4 -->
<g id="edge3" class="edge">
<title>Node3&#45;&gt;Node4</title>
<path fill="none" stroke="midnightblue" d="M94.43,-153.07C86.94,-140.44 77.89,-125.15 71.43,-114.23"/>
<polygon fill="midnightblue" stroke="midnightblue" points="91.43,-154.88 99.54,-161.7 97.45,-151.32 91.43,-154.88"/>
</g>
<!-- Node5 -->
<g id="node5" class="node">
<title>Node5</title>
<g id="a_node5"><a xlink:href="guiEngine__factory__interface_8cpp.xhtml" target="_top" xlink:title=" ">
<polygon fill="white" stroke="black" points="144,-78.5 144,-119.5 278,-119.5 278,-78.5 144,-78.5"/>
<text text-anchor="start" x="152" y="-107.5" font-family="Helvetica,sans-Serif" font-size="10.00">lib/3rd_party_adapters</text>
<text text-anchor="start" x="152" y="-96.5" font-family="Helvetica,sans-Serif" font-size="10.00">/LVGL/guiEngine_factory</text>
<text text-anchor="middle" x="211" y="-85.5" font-family="Helvetica,sans-Serif" font-size="10.00">_interface.cpp</text>
</a>
</g>
</g>
<!-- Node3&#45;&gt;Node5 -->
<g id="edge4" class="edge">
<title>Node3&#45;&gt;Node5</title>
<path fill="none" stroke="midnightblue" d="M135.8,-155.49C150.88,-144.36 169.43,-130.68 184.33,-119.68"/>
<polygon fill="midnightblue" stroke="midnightblue" points="133.34,-152.95 127.37,-161.7 137.5,-158.58 133.34,-152.95"/>
</g>
<!-- Node6&#45;&gt;Node5 -->
<g id="edge6" class="edge">
<title>Node6&#45;&gt;Node5</title>
<path fill="none" stroke="midnightblue" d="M254.12,-148.92C245.56,-139.2 236.08,-128.45 228.2,-119.51"/>
<polygon fill="midnightblue" stroke="midnightblue" points="251.51,-151.24 260.75,-156.43 256.76,-146.61 251.51,-151.24"/>
</g>
<!-- Node7 -->
<g id="node7" class="node">
<title>Node7</title>
<g id="a_node7"><a xlink:href="main_8cpp.xhtml" target="_top" xlink:title=" ">
<polygon fill="white" stroke="black" points="308.5,-11.5 308.5,-30.5 387.5,-30.5 387.5,-11.5 308.5,-11.5"/>
<text text-anchor="middle" x="348" y="-18.5" font-family="Helvetica,sans-Serif" font-size="10.00">src/main.cpp</text>
</a>
</g>
</g>
<!-- Node6&#45;&gt;Node7 -->
<g id="edge7" class="edge">
<title>Node6&#45;&gt;Node7</title>
<path fill="none" stroke="midnightblue" d="M291.15,-147.06C307.43,-111.26 334.19,-52.37 344.13,-30.51"/>
<polygon fill="midnightblue" stroke="midnightblue" points="287.82,-145.94 286.87,-156.5 294.19,-148.84 287.82,-145.94"/>
</g>
<!-- Node6&#45;&gt;Node8 -->
<g id="edge8" class="edge">
<title>Node6&#45;&gt;Node8</title>
<path fill="none" stroke="midnightblue" d="M376.88,-162.5C443.02,-152.22 523.21,-136.98 553,-120 574.87,-107.53 569.89,-91.71 591,-78 623.75,-56.73 665.29,-42.88 699.22,-34.28"/>
<polygon fill="midnightblue" stroke="midnightblue" points="376.17,-159.07 366.81,-164.04 377.23,-165.99 376.17,-159.07"/>
</g>
<!-- Node9&#45;&gt;Node7 -->
<g id="edge15" class="edge">
<title>Node9&#45;&gt;Node7</title>
<path fill="none" stroke="midnightblue" d="M445.8,-151.71C429.97,-143.3 413.74,-132.72 401,-120 373.89,-92.94 357.01,-49.12 350.75,-30.65"/>
<polygon fill="midnightblue" stroke="midnightblue" points="444.54,-155 455.04,-156.41 447.72,-148.76 444.54,-155"/>
</g>
<!-- Node9&#45;&gt;Node8 -->
<g id="edge16" class="edge">
<title>Node9&#45;&gt;Node8</title>
<path fill="none" stroke="midnightblue" d="M582.1,-166.98C642.87,-158.26 720.92,-142.97 743,-120 764.86,-97.26 765.24,-57.32 763.63,-36.13"/>
<polygon fill="midnightblue" stroke="midnightblue" points="581.55,-163.52 572.13,-168.37 582.52,-170.45 581.55,-163.52"/>
</g>
<!-- Node10 -->
<g id="node10" class="node">
<title>Node10</title>
<g id="a_node10"><a xlink:href="Menu_8cpp.xhtml" target="_top" xlink:title=" ">
<polygon fill="white" stroke="black" points="600,-78.5 600,-119.5 734,-119.5 734,-78.5 600,-78.5"/>
<text text-anchor="start" x="608" y="-107.5" font-family="Helvetica,sans-Serif" font-size="10.00">lib/application_business</text>
<text text-anchor="start" x="608" y="-96.5" font-family="Helvetica,sans-Serif" font-size="10.00">_rules/user_interaction</text>
<text text-anchor="middle" x="667" y="-85.5" font-family="Helvetica,sans-Serif" font-size="10.00">/Menu.cpp</text>
</a>
</g>
</g>
<!-- Node9&#45;&gt;Node10 -->
<g id="edge10" class="edge">
<title>Node9&#45;&gt;Node10</title>
<path fill="none" stroke="midnightblue" d="M556.05,-152.05C578.4,-141.57 604.28,-129.42 625.42,-119.51"/>
<polygon fill="midnightblue" stroke="midnightblue" points="554.29,-149.01 546.72,-156.43 557.26,-155.35 554.29,-149.01"/>
</g>
<!-- Node11 -->
<g id="node11" class="node">
<title>Node11</title>
<g id="a_node11"><a xlink:href="Presenter_8hpp.xhtml" target="_top" xlink:title=" ">
<polygon fill="white" stroke="black" points="410,-78.5 410,-119.5 544,-119.5 544,-78.5 410,-78.5"/>
<text text-anchor="start" x="418" y="-107.5" font-family="Helvetica,sans-Serif" font-size="10.00">lib/application_business</text>
<text text-anchor="start" x="418" y="-96.5" font-family="Helvetica,sans-Serif" font-size="10.00">_rules/user_interaction</text>
<text text-anchor="middle" x="477" y="-85.5" font-family="Helvetica,sans-Serif" font-size="10.00">/Presenter.hpp</text>
</a>
</g>
</g>
<!-- Node9&#45;&gt;Node11 -->
<g id="edge11" class="edge">
<title>Node9&#45;&gt;Node11</title>
<path fill="none" stroke="midnightblue" d="M494.27,-146.88C490.9,-137.72 487.25,-127.83 484.19,-119.51"/>
<polygon fill="midnightblue" stroke="midnightblue" points="491.05,-148.25 497.79,-156.43 497.62,-145.83 491.05,-148.25"/>
</g>
<!-- Node11&#45;&gt;Node7 -->
<g id="edge13" class="edge">
<title>Node11&#45;&gt;Node7</title>
<path fill="none" stroke="midnightblue" d="M434.86,-73.17C409.94,-58.49 379.94,-40.82 362.52,-30.55"/>
<polygon fill="midnightblue" stroke="midnightblue" points="433.39,-76.37 443.78,-78.43 436.94,-70.34 433.39,-76.37"/>
</g>
<!-- Node11&#45;&gt;Node8 -->
<g id="edge14" class="edge">
<title>Node11&#45;&gt;Node8</title>
<path fill="none" stroke="midnightblue" d="M554.13,-77.43C603.21,-64.34 665.51,-47.73 709.05,-36.12"/>
<polygon fill="midnightblue" stroke="midnightblue" points="552.94,-74.13 544.18,-80.09 554.74,-80.89 552.94,-74.13"/>
</g>
<!-- Node12 -->
<g id="node12" class="node">
<title>Node12</title>
<g id="a_node12"><a xlink:href="Presenter_8cpp.xhtml" target="_top" xlink:title=" ">
<polygon fill="white" stroke="black" points="410,-0.5 410,-41.5 544,-41.5 544,-0.5 410,-0.5"/>
<text text-anchor="start" x="418" y="-29.5" font-family="Helvetica,sans-Serif" font-size="10.00">lib/application_business</text>
<text text-anchor="start" x="418" y="-18.5" font-family="Helvetica,sans-Serif" font-size="10.00">_rules/user_interaction</text>
<text text-anchor="middle" x="477" y="-7.5" font-family="Helvetica,sans-Serif" font-size="10.00">/Presenter.cpp</text>
</a>
</g>
</g>
<!-- Node11&#45;&gt;Node12 -->
<g id="edge12" class="edge">
<title>Node11&#45;&gt;Node12</title>
<path fill="none" stroke="midnightblue" d="M477,-68.3C477,-59.3 477,-49.65 477,-41.51"/>
<polygon fill="midnightblue" stroke="midnightblue" points="473.5,-68.43 477,-78.43 480.5,-68.43 473.5,-68.43"/>
</g>
<!-- Node13&#45;&gt;Node7 -->
<g id="edge19" class="edge">
<title>Node13&#45;&gt;Node7</title>
<path fill="none" stroke="midnightblue" d="M653.68,-245.08C574,-236.05 466.04,-220.25 429,-198 391.28,-175.34 386.45,-159.96 368,-120 353.73,-89.1 349.59,-48.07 348.43,-30.53"/>
<polygon fill="midnightblue" stroke="midnightblue" points="653.42,-248.57 663.74,-246.2 654.19,-241.61 653.42,-248.57"/>
</g>
<!-- Node13&#45;&gt;Node8 -->
<g id="edge20" class="edge">
<title>Node13&#45;&gt;Node8</title>
<path fill="none" stroke="midnightblue" d="M724.81,-226C712.3,-205.83 701.05,-178.34 713,-156 726.61,-130.57 753.39,-145.43 767,-120 781.31,-93.26 773.3,-56.33 767.09,-36.3"/>
<polygon fill="midnightblue" stroke="midnightblue" points="721.94,-228.02 730.37,-234.44 727.78,-224.16 721.94,-228.02"/>
</g>
<!-- Node14 -->
<g id="node14" class="node">
<title>Node14</title>
<g id="a_node14"><a xlink:href="keypad__factory__interface_8cpp.xhtml" target="_top" xlink:title=" ">
<polygon fill="white" stroke="black" points="722,-156.5 722,-197.5 886,-197.5 886,-156.5 722,-156.5"/>
<text text-anchor="start" x="730" y="-185.5" font-family="Helvetica,sans-Serif" font-size="10.00">lib/board_adapters</text>
<text text-anchor="start" x="730" y="-174.5" font-family="Helvetica,sans-Serif" font-size="10.00">/input_device_interface</text>
<text text-anchor="middle" x="804" y="-163.5" font-family="Helvetica,sans-Serif" font-size="10.00">/keypad_factory_interface.cpp</text>
</a>
</g>
</g>
<!-- Node13&#45;&gt;Node14 -->
<g id="edge18" class="edge">
<title>Node13&#45;&gt;Node14</title>
<path fill="none" stroke="midnightblue" d="M767.11,-226.34C774.41,-216.78 782.42,-206.27 789.11,-197.51"/>
<polygon fill="midnightblue" stroke="midnightblue" points="764.22,-224.36 760.94,-234.43 769.79,-228.6 764.22,-224.36"/>
</g>
<!-- Node16&#45;&gt;Node14 -->
<g id="edge25" class="edge">
<title>Node16&#45;&gt;Node14</title>
<path fill="none" stroke="midnightblue" d="M945.96,-230.89C917.32,-220.22 883.69,-207.69 856.36,-197.51"/>
<polygon fill="midnightblue" stroke="midnightblue" points="944.87,-234.22 955.46,-234.43 947.32,-227.66 944.87,-234.22"/>
</g>
<!-- Node17 -->
<g id="node17" class="node">
<title>Node17</title>
<g id="a_node17"><a xlink:href="Keypad_8cpp.xhtml" target="_top" xlink:title=" ">
<polygon fill="white" stroke="black" points="942.5,-156.5 942.5,-197.5 1073.5,-197.5 1073.5,-156.5 942.5,-156.5"/>
<text text-anchor="start" x="950.5" y="-185.5" font-family="Helvetica,sans-Serif" font-size="10.00">lib/board_adapters</text>
<text text-anchor="start" x="950.5" y="-174.5" font-family="Helvetica,sans-Serif" font-size="10.00">/input_device_interface</text>
<text text-anchor="middle" x="1008" y="-163.5" font-family="Helvetica,sans-Serif" font-size="10.00">/Keypad.cpp</text>
</a>
</g>
</g>
<!-- Node16&#45;&gt;Node17 -->
<g id="edge24" class="edge">
<title>Node16&#45;&gt;Node17</title>
<path fill="none" stroke="midnightblue" d="M1008,-224.3C1008,-215.3 1008,-205.65 1008,-197.51"/>
<polygon fill="midnightblue" stroke="midnightblue" points="1004.5,-224.43 1008,-234.43 1011.5,-224.43 1004.5,-224.43"/>
</g>
<!-- Node18 -->
<g id="node18" class="node">
<title>Node18</title>
<g id="a_node18"><a xlink:href="test__keyState_8cpp.xhtml" target="_top" xlink:title=" ">
<polygon fill="white" stroke="black" points="1091.5,-162 1091.5,-192 1218.5,-192 1218.5,-162 1091.5,-162"/>
<text text-anchor="start" x="1099.5" y="-180" font-family="Helvetica,sans-Serif" font-size="10.00">test/hmi/test_keyState</text>
<text text-anchor="middle" x="1155" y="-169" font-family="Helvetica,sans-Serif" font-size="10.00">/test_keyState.cpp</text>
</a>
</g>
</g>
<!-- Node16&#45;&gt;Node18 -->
<g id="edge26" class="edge">
<title>Node16&#45;&gt;Node18</title>
<path fill="none" stroke="midnightblue" d="M1054.79,-229.81C1078.74,-217.43 1107.07,-202.78 1127.49,-192.23"/>
<polygon fill="midnightblue" stroke="midnightblue" points="1053.13,-226.73 1045.86,-234.43 1056.35,-232.94 1053.13,-226.73"/>
</g>
</g>
</svg>
