<?xml version="1.0" encoding="UTF-8" standalone="no"?>
<!DOCTYPE svg PUBLIC "-//W3C//DTD SVG 1.1//EN"
 "http://www.w3.org/Graphics/SVG/1.1/DTD/svg11.dtd">
<!-- Generated by graphviz version 2.43.0 (0)
 -->
<!-- Title: lib/application_business_rules/user_interaction/IKeypad.hpp Pages: 1 -->
<svg width="1371pt" height="362pt"
 viewBox="0.00 0.00 1370.50 362.00" xmlns="http://www.w3.org/2000/svg" xmlns:xlink="http://www.w3.org/1999/xlink">
<g id="graph0" class="graph" transform="scale(1 1) rotate(0) translate(4 358)">
<title>lib/application_business_rules/user_interaction/IKeypad.hpp</title>
<polygon fill="white" stroke="transparent" points="-4,4 -4,-358 1366.5,-358 1366.5,4 -4,4"/>
<!-- Node1 -->
<g id="node1" class="node">
<title>Node1</title>
<g id="a_node1"><a xlink:title=" ">
<polygon fill="#bfbfbf" stroke="black" points="788,-312.5 788,-353.5 922,-353.5 922,-312.5 788,-312.5"/>
<text text-anchor="start" x="796" y="-341.5" font-family="Helvetica,sans-Serif" font-size="10.00">lib/application_business</text>
<text text-anchor="start" x="796" y="-330.5" font-family="Helvetica,sans-Serif" font-size="10.00">_rules/user_interaction</text>
<text text-anchor="middle" x="855" y="-319.5" font-family="Helvetica,sans-Serif" font-size="10.00">/IKeypad.hpp</text>
</a>
</g>
</g>
<!-- Node2 -->
<g id="node2" class="node">
<title>Node2</title>
<g id="a_node2"><a xlink:href="IGuiEngine_8hpp.xhtml" target="_top" xlink:title=" ">
<polygon fill="white" stroke="black" points="325,-234.5 325,-275.5 459,-275.5 459,-234.5 325,-234.5"/>
<text text-anchor="start" x="333" y="-263.5" font-family="Helvetica,sans-Serif" font-size="10.00">lib/application_business</text>
<text text-anchor="start" x="333" y="-252.5" font-family="Helvetica,sans-Serif" font-size="10.00">_rules/user_interaction</text>
<text text-anchor="middle" x="392" y="-241.5" font-family="Helvetica,sans-Serif" font-size="10.00">/IGuiEngine.hpp</text>
</a>
</g>
</g>
<!-- Node1&#45;&gt;Node2 -->
<g id="edge1" class="edge">
<title>Node1&#45;&gt;Node2</title>
<path fill="none" stroke="midnightblue" d="M777.63,-319.3C688.5,-304.67 543.53,-280.87 459.03,-267"/>
<polygon fill="midnightblue" stroke="midnightblue" points="777.24,-322.78 787.68,-320.95 778.37,-315.88 777.24,-322.78"/>
</g>
<!-- Node8 -->
<g id="node8" class="node">
<title>Node8</title>
<g id="a_node8"><a xlink:href="test__hmi_8cpp.xhtml" target="_top" xlink:title=" ">
<polygon fill="white" stroke="black" points="718.5,-6 718.5,-36 843.5,-36 843.5,-6 718.5,-6"/>
<text text-anchor="start" x="726.5" y="-24" font-family="Helvetica,sans-Serif" font-size="10.00">test/hmi/test_hmi/test</text>
<text text-anchor="middle" x="781" y="-13" font-family="Helvetica,sans-Serif" font-size="10.00">_hmi.cpp</text>
</a>
</g>
</g>
<!-- Node1&#45;&gt;Node8 -->
<g id="edge28" class="edge">
<title>Node1&#45;&gt;Node8</title>
<path fill="none" stroke="midnightblue" d="M833.66,-303.91C828.09,-295.34 822.63,-285.63 819,-276 786.26,-188.99 781.64,-75.22 781.06,-36"/>
<polygon fill="midnightblue" stroke="midnightblue" points="830.92,-306.09 839.45,-312.37 836.7,-302.14 830.92,-306.09"/>
</g>
<!-- Node9 -->
<g id="node9" class="node">
<title>Node9</title>
<g id="a_node9"><a xlink:href="Menu_8hpp.xhtml" target="_top" xlink:title=" ">
<polygon fill="white" stroke="black" points="412,-156.5 412,-197.5 546,-197.5 546,-156.5 412,-156.5"/>
<text text-anchor="start" x="420" y="-185.5" font-family="Helvetica,sans-Serif" font-size="10.00">lib/application_business</text>
<text text-anchor="start" x="420" y="-174.5" font-family="Helvetica,sans-Serif" font-size="10.00">_rules/user_interaction</text>
<text text-anchor="middle" x="479" y="-163.5" font-family="Helvetica,sans-Serif" font-size="10.00">/Menu.hpp</text>
</a>
</g>
</g>
<!-- Node1&#45;&gt;Node9 -->
<g id="edge22" class="edge">
<title>Node1&#45;&gt;Node9</title>
<path fill="none" stroke="midnightblue" d="M797.74,-308.55C723.67,-278.21 595.97,-225.91 526.83,-197.59"/>
<polygon fill="midnightblue" stroke="midnightblue" points="796.8,-311.94 807.38,-312.5 799.45,-305.47 796.8,-311.94"/>
</g>
<!-- Node13 -->
<g id="node13" class="node">
<title>Node13</title>
<g id="a_node13"><a xlink:href="ProcessHmiInputs_8cpp.xhtml" target="_top" xlink:title=" ">
<polygon fill="white" stroke="black" points="936,-0.5 936,-41.5 1070,-41.5 1070,-0.5 936,-0.5"/>
<text text-anchor="start" x="944" y="-29.5" font-family="Helvetica,sans-Serif" font-size="10.00">lib/application_business</text>
<text text-anchor="start" x="944" y="-18.5" font-family="Helvetica,sans-Serif" font-size="10.00">_rules/user_interaction</text>
<text text-anchor="middle" x="1003" y="-7.5" font-family="Helvetica,sans-Serif" font-size="10.00">/ProcessHmiInputs.cpp</text>
</a>
</g>
</g>
<!-- Node1&#45;&gt;Node13 -->
<g id="edge23" class="edge">
<title>Node1&#45;&gt;Node13</title>
<path fill="none" stroke="midnightblue" d="M931.78,-314.53C956.1,-306.06 981.65,-293.73 1001,-276 1029.43,-249.95 1030.33,-235.58 1039,-198 1052.04,-141.47 1027.13,-74.18 1012.53,-41.6"/>
<polygon fill="midnightblue" stroke="midnightblue" points="930.58,-311.24 922.19,-317.7 932.78,-317.89 930.58,-311.24"/>
</g>
<!-- Node14 -->
<g id="node14" class="node">
<title>Node14</title>
<g id="a_node14"><a xlink:href="keypad__factory__interface_8hpp.xhtml" target="_top" xlink:title="Dependency injection for the keypad.">
<polygon fill="white" stroke="black" points="828,-234.5 828,-275.5 992,-275.5 992,-234.5 828,-234.5"/>
<text text-anchor="start" x="836" y="-263.5" font-family="Helvetica,sans-Serif" font-size="10.00">lib/application_business</text>
<text text-anchor="start" x="836" y="-252.5" font-family="Helvetica,sans-Serif" font-size="10.00">_rules/user_interaction</text>
<text text-anchor="middle" x="910" y="-241.5" font-family="Helvetica,sans-Serif" font-size="10.00">/keypad_factory_interface.hpp</text>
</a>
</g>
</g>
<!-- Node1&#45;&gt;Node14 -->
<g id="edge18" class="edge">
<title>Node1&#45;&gt;Node14</title>
<path fill="none" stroke="midnightblue" d="M875.23,-304.05C882.09,-294.57 889.6,-284.18 895.88,-275.51"/>
<polygon fill="midnightblue" stroke="midnightblue" points="872.19,-302.27 869.16,-312.43 877.86,-306.38 872.19,-302.27"/>
</g>
<!-- Node16 -->
<g id="node16" class="node">
<title>Node16</title>
<g id="a_node16"><a xlink:href="Keypad_8hpp.xhtml" target="_top" xlink:title=" ">
<polygon fill="white" stroke="black" points="1086.5,-234.5 1086.5,-275.5 1217.5,-275.5 1217.5,-234.5 1086.5,-234.5"/>
<text text-anchor="start" x="1094.5" y="-263.5" font-family="Helvetica,sans-Serif" font-size="10.00">lib/board_adapters</text>
<text text-anchor="start" x="1094.5" y="-252.5" font-family="Helvetica,sans-Serif" font-size="10.00">/input_device_interface</text>
<text text-anchor="middle" x="1152" y="-241.5" font-family="Helvetica,sans-Serif" font-size="10.00">/Keypad.hpp</text>
</a>
</g>
</g>
<!-- Node1&#45;&gt;Node16 -->
<g id="edge24" class="edge">
<title>Node1&#45;&gt;Node16</title>
<path fill="none" stroke="midnightblue" d="M931.74,-312.36C979.7,-300.09 1040.82,-284.45 1086.5,-272.76"/>
<polygon fill="midnightblue" stroke="midnightblue" points="930.84,-308.98 922.02,-314.85 932.58,-315.76 930.84,-308.98"/>
</g>
<!-- Node3 -->
<g id="node3" class="node">
<title>Node3</title>
<g id="a_node3"><a xlink:href="GuiEngine_8hpp.xhtml" target="_top" xlink:title=" ">
<polygon fill="white" stroke="black" points="72,-162 72,-192 198,-192 198,-162 72,-162"/>
<text text-anchor="start" x="80" y="-180" font-family="Helvetica,sans-Serif" font-size="10.00">lib/3rd_party_adapters</text>
<text text-anchor="middle" x="135" y="-169" font-family="Helvetica,sans-Serif" font-size="10.00">/LVGL/GuiEngine.hpp</text>
</a>
</g>
</g>
<!-- Node2&#45;&gt;Node3 -->
<g id="edge2" class="edge">
<title>Node2&#45;&gt;Node3</title>
<path fill="none" stroke="midnightblue" d="M316.19,-231.58C272.97,-218.8 220.14,-203.18 182.7,-192.11"/>
<polygon fill="midnightblue" stroke="midnightblue" points="315.23,-234.95 325.82,-234.43 317.22,-228.24 315.23,-234.95"/>
</g>
<!-- Node6 -->
<g id="node6" class="node">
<title>Node6</title>
<g id="a_node6"><a xlink:href="guiEngine__factory__interface_8hpp.xhtml" target="_top" xlink:title="Dependency injection for the guiEngine.">
<polygon fill="white" stroke="black" points="216.5,-156.5 216.5,-197.5 393.5,-197.5 393.5,-156.5 216.5,-156.5"/>
<text text-anchor="start" x="224.5" y="-185.5" font-family="Helvetica,sans-Serif" font-size="10.00">lib/application_business</text>
<text text-anchor="start" x="224.5" y="-174.5" font-family="Helvetica,sans-Serif" font-size="10.00">_rules/user_interaction</text>
<text text-anchor="middle" x="305" y="-163.5" font-family="Helvetica,sans-Serif" font-size="10.00">/guiEngine_factory_interface.hpp</text>
</a>
</g>
</g>
<!-- Node2&#45;&gt;Node6 -->
<g id="edge5" class="edge">
<title>Node2&#45;&gt;Node6</title>
<path fill="none" stroke="midnightblue" d="M361.98,-227.78C350.61,-217.84 337.87,-206.72 327.33,-197.51"/>
<polygon fill="midnightblue" stroke="midnightblue" points="359.76,-230.49 369.6,-234.43 364.37,-225.21 359.76,-230.49"/>
</g>
<!-- Node2&#45;&gt;Node9 -->
<g id="edge9" class="edge">
<title>Node2&#45;&gt;Node9</title>
<path fill="none" stroke="midnightblue" d="M422.02,-227.78C433.39,-217.84 446.13,-206.72 456.67,-197.51"/>
<polygon fill="midnightblue" stroke="midnightblue" points="419.63,-225.21 414.4,-234.43 424.24,-230.49 419.63,-225.21"/>
</g>
<!-- Node4 -->
<g id="node4" class="node">
<title>Node4</title>
<g id="a_node4"><a xlink:href="GuiEngine_8cpp.xhtml" target="_top" xlink:title=" ">
<polygon fill="white" stroke="black" points="0,-84 0,-114 126,-114 126,-84 0,-84"/>
<text text-anchor="start" x="8" y="-102" font-family="Helvetica,sans-Serif" font-size="10.00">lib/3rd_party_adapters</text>
<text text-anchor="middle" x="63" y="-91" font-family="Helvetica,sans-Serif" font-size="10.00">/LVGL/GuiEngine.cpp</text>
</a>
</g>
</g>
<!-- Node3&#45;&gt;Node4 -->
<g id="edge3" class="edge">
<title>Node3&#45;&gt;Node4</title>
<path fill="none" stroke="midnightblue" d="M114.32,-154.17C102.16,-141.33 87.13,-125.47 76.48,-114.23"/>
<polygon fill="midnightblue" stroke="midnightblue" points="112.04,-156.85 121.46,-161.7 117.12,-152.04 112.04,-156.85"/>
</g>
<!-- Node5 -->
<g id="node5" class="node">
<title>Node5</title>
<g id="a_node5"><a xlink:href="guiEngine__factory__interface_8cpp.xhtml" target="_top" xlink:title=" ">
<polygon fill="white" stroke="black" points="144,-78.5 144,-119.5 278,-119.5 278,-78.5 144,-78.5"/>
<text text-anchor="start" x="152" y="-107.5" font-family="Helvetica,sans-Serif" font-size="10.00">lib/3rd_party_adapters</text>
<text text-anchor="start" x="152" y="-96.5" font-family="Helvetica,sans-Serif" font-size="10.00">/LVGL/guiEngine_factory</text>
<text text-anchor="middle" x="211" y="-85.5" font-family="Helvetica,sans-Serif" font-size="10.00">_interface.cpp</text>
</a>
</g>
</g>
<!-- Node3&#45;&gt;Node5 -->
<g id="edge4" class="edge">
<title>Node3&#45;&gt;Node5</title>
<path fill="none" stroke="midnightblue" d="M156.45,-154.55C167.4,-143.6 180.63,-130.37 191.32,-119.68"/>
<polygon fill="midnightblue" stroke="midnightblue" points="153.89,-152.16 149.3,-161.7 158.84,-157.11 153.89,-152.16"/>
</g>
<!-- Node6&#45;&gt;Node5 -->
<g id="edge6" class="edge">
<title>Node6&#45;&gt;Node5</title>
<path fill="none" stroke="midnightblue" d="M272.92,-150.06C260.54,-140.06 246.63,-128.8 235.13,-119.51"/>
<polygon fill="midnightblue" stroke="midnightblue" points="270.82,-152.86 280.79,-156.43 275.22,-147.42 270.82,-152.86"/>
</g>
<!-- Node7 -->
<g id="node7" class="node">
<title>Node7</title>
<g id="a_node7"><a xlink:href="main_8cpp.xhtml" target="_top" xlink:title=" ">
<polygon fill="white" stroke="black" points="396.5,-11.5 396.5,-30.5 475.5,-30.5 475.5,-11.5 396.5,-11.5"/>
<text text-anchor="middle" x="436" y="-18.5" font-family="Helvetica,sans-Serif" font-size="10.00">src/main.cpp</text>
</a>
</g>
</g>
<!-- Node6&#45;&gt;Node7 -->
<g id="edge7" class="edge">
<title>Node6&#45;&gt;Node7</title>
<path fill="none" stroke="midnightblue" d="M328.07,-148.88C358.35,-113.29 409.84,-52.75 428.76,-30.51"/>
<polygon fill="midnightblue" stroke="midnightblue" points="325.4,-146.61 321.59,-156.5 330.74,-151.15 325.4,-146.61"/>
</g>
<!-- Node6&#45;&gt;Node8 -->
<g id="edge8" class="edge">
<title>Node6&#45;&gt;Node8</title>
<path fill="none" stroke="midnightblue" d="M336.65,-149.83C347.01,-140.75 358.33,-130.28 368,-120 384.27,-102.71 380.29,-89.6 401,-78 521.24,-10.65 573.76,-68.52 709,-42 717.28,-40.38 725.99,-38.29 734.39,-36.08"/>
<polygon fill="midnightblue" stroke="midnightblue" points="334.24,-147.28 328.96,-156.46 338.81,-152.58 334.24,-147.28"/>
</g>
<!-- Node9&#45;&gt;Node7 -->
<g id="edge16" class="edge">
<title>Node9&#45;&gt;Node7</title>
<path fill="none" stroke="midnightblue" d="M428.56,-150.44C417.51,-142.3 407.25,-132.17 401,-120 384.92,-88.66 413.64,-48.2 428.25,-30.7"/>
<polygon fill="midnightblue" stroke="midnightblue" points="426.89,-153.53 437.12,-156.27 430.83,-147.75 426.89,-153.53"/>
</g>
<!-- Node9&#45;&gt;Node8 -->
<g id="edge17" class="edge">
<title>Node9&#45;&gt;Node8</title>
<path fill="none" stroke="midnightblue" d="M556.27,-167.8C623.79,-159.2 715.25,-143.61 743,-120 768.43,-98.36 776.92,-57.58 779.7,-36.08"/>
<polygon fill="midnightblue" stroke="midnightblue" points="555.56,-164.36 546.07,-169.07 556.42,-171.31 555.56,-164.36"/>
</g>
<!-- Node10 -->
<g id="node10" class="node">
<title>Node10</title>
<g id="a_node10"><a xlink:href="Menu_8cpp.xhtml" target="_top" xlink:title=" ">
<polygon fill="white" stroke="black" points="410,-78.5 410,-119.5 544,-119.5 544,-78.5 410,-78.5"/>
<text text-anchor="start" x="418" y="-107.5" font-family="Helvetica,sans-Serif" font-size="10.00">lib/application_business</text>
<text text-anchor="start" x="418" y="-96.5" font-family="Helvetica,sans-Serif" font-size="10.00">_rules/user_interaction</text>
<text text-anchor="middle" x="477" y="-85.5" font-family="Helvetica,sans-Serif" font-size="10.00">/Menu.cpp</text>
</a>
</g>
</g>
<!-- Node9&#45;&gt;Node10 -->
<g id="edge10" class="edge">
<title>Node9&#45;&gt;Node10</title>
<path fill="none" stroke="midnightblue" d="M478.22,-146.3C477.98,-137.3 477.73,-127.65 477.51,-119.51"/>
<polygon fill="midnightblue" stroke="midnightblue" points="474.72,-146.52 478.48,-156.43 481.72,-146.34 474.72,-146.52"/>
</g>
<!-- Node11 -->
<g id="node11" class="node">
<title>Node11</title>
<g id="a_node11"><a xlink:href="Presenter_8hpp.xhtml" target="_top" xlink:title=" ">
<polygon fill="white" stroke="black" points="600,-78.5 600,-119.5 734,-119.5 734,-78.5 600,-78.5"/>
<text text-anchor="start" x="608" y="-107.5" font-family="Helvetica,sans-Serif" font-size="10.00">lib/application_business</text>
<text text-anchor="start" x="608" y="-96.5" font-family="Helvetica,sans-Serif" font-size="10.00">_rules/user_interaction</text>
<text text-anchor="middle" x="667" y="-85.5" font-family="Helvetica,sans-Serif" font-size="10.00">/Presenter.hpp</text>
</a>
</g>
</g>
<!-- Node9&#45;&gt;Node11 -->
<g id="edge11" class="edge">
<title>Node9&#45;&gt;Node11</title>
<path fill="none" stroke="midnightblue" d="M536.86,-152.61C563.1,-142 593.78,-129.6 618.75,-119.51"/>
<polygon fill="midnightblue" stroke="midnightblue" points="535.37,-149.44 527.41,-156.43 538,-155.93 535.37,-149.44"/>
</g>
<!-- Node11&#45;&gt;Node7 -->
<g id="edge14" class="edge">
<title>Node11&#45;&gt;Node7</title>
<path fill="none" stroke="midnightblue" d="M597.93,-75.28C552.16,-60.22 494.71,-41.32 461.99,-30.55"/>
<polygon fill="midnightblue" stroke="midnightblue" points="596.92,-78.63 607.51,-78.43 599.11,-71.98 596.92,-78.63"/>
</g>
<!-- Node11&#45;&gt;Node8 -->
<g id="edge15" class="edge">
<title>Node11&#45;&gt;Node8</title>
<path fill="none" stroke="midnightblue" d="M705.02,-72.66C723.21,-60.53 744.32,-46.45 759.66,-36.23"/>
<polygon fill="midnightblue" stroke="midnightblue" points="702.74,-69.97 696.36,-78.43 706.62,-75.79 702.74,-69.97"/>
</g>
<!-- Node12 -->
<g id="node12" class="node">
<title>Node12</title>
<g id="a_node12"><a xlink:href="Presenter_8cpp.xhtml" target="_top" xlink:title=" ">
<polygon fill="white" stroke="black" points="566,-0.5 566,-41.5 700,-41.5 700,-0.5 566,-0.5"/>
<text text-anchor="start" x="574" y="-29.5" font-family="Helvetica,sans-Serif" font-size="10.00">lib/application_business</text>
<text text-anchor="start" x="574" y="-18.5" font-family="Helvetica,sans-Serif" font-size="10.00">_rules/user_interaction</text>
<text text-anchor="middle" x="633" y="-7.5" font-family="Helvetica,sans-Serif" font-size="10.00">/Presenter.cpp</text>
</a>
</g>
</g>
<!-- Node11&#45;&gt;Node12 -->
<g id="edge12" class="edge">
<title>Node11&#45;&gt;Node12</title>
<path fill="none" stroke="midnightblue" d="M654.1,-69.17C649.97,-59.93 645.49,-49.92 641.73,-41.51"/>
<polygon fill="midnightblue" stroke="midnightblue" points="650.97,-70.73 658.24,-78.43 657.36,-67.87 650.97,-70.73"/>
</g>
<!-- Node11&#45;&gt;Node13 -->
<g id="edge13" class="edge">
<title>Node11&#45;&gt;Node13</title>
<path fill="none" stroke="midnightblue" d="M744.03,-80.58C801.96,-67.47 880.56,-49.69 935.93,-37.17"/>
<polygon fill="midnightblue" stroke="midnightblue" points="743.17,-77.18 734.19,-82.8 744.71,-84.01 743.17,-77.18"/>
</g>
<!-- Node14&#45;&gt;Node7 -->
<g id="edge20" class="edge">
<title>Node14&#45;&gt;Node7</title>
<path fill="none" stroke="midnightblue" d="M830.47,-231.36C762.78,-209.68 665.04,-172.47 591,-120 570.46,-105.45 573.18,-93.05 553,-78 524.12,-56.46 485.64,-39.97 460.84,-30.63"/>
<polygon fill="midnightblue" stroke="midnightblue" points="829.64,-234.77 840.23,-234.45 831.75,-228.1 829.64,-234.77"/>
</g>
<!-- Node14&#45;&gt;Node8 -->
<g id="edge21" class="edge">
<title>Node14&#45;&gt;Node8</title>
<path fill="none" stroke="midnightblue" d="M880.35,-227.21C871.97,-218.51 863.4,-208.41 857,-198 827.34,-149.73 838.04,-129.3 814,-78 807.1,-63.29 797.52,-47.41 790.46,-36.33"/>
<polygon fill="midnightblue" stroke="midnightblue" points="878.06,-229.87 887.61,-234.46 883.01,-224.91 878.06,-229.87"/>
</g>
<!-- Node15 -->
<g id="node15" class="node">
<title>Node15</title>
<g id="a_node15"><a xlink:href="keypad__factory__interface_8cpp.xhtml" target="_top" xlink:title=" ">
<polygon fill="white" stroke="black" points="866,-156.5 866,-197.5 1030,-197.5 1030,-156.5 866,-156.5"/>
<text text-anchor="start" x="874" y="-185.5" font-family="Helvetica,sans-Serif" font-size="10.00">lib/board_adapters</text>
<text text-anchor="start" x="874" y="-174.5" font-family="Helvetica,sans-Serif" font-size="10.00">/input_device_interface</text>
<text text-anchor="middle" x="948" y="-163.5" font-family="Helvetica,sans-Serif" font-size="10.00">/keypad_factory_interface.cpp</text>
</a>
</g>
</g>
<!-- Node14&#45;&gt;Node15 -->
<g id="edge19" class="edge">
<title>Node14&#45;&gt;Node15</title>
<path fill="none" stroke="midnightblue" d="M924.27,-225.47C928.93,-216.14 934,-206.01 938.25,-197.51"/>
<polygon fill="midnightblue" stroke="midnightblue" points="921.13,-223.92 919.79,-234.43 927.39,-227.05 921.13,-223.92"/>
</g>
<!-- Node16&#45;&gt;Node15 -->
<g id="edge26" class="edge">
<title>Node16&#45;&gt;Node15</title>
<path fill="none" stroke="midnightblue" d="M1089.96,-230.89C1061.32,-220.22 1027.69,-207.69 1000.36,-197.51"/>
<polygon fill="midnightblue" stroke="midnightblue" points="1088.87,-234.22 1099.46,-234.43 1091.32,-227.66 1088.87,-234.22"/>
</g>
<!-- Node17 -->
<g id="node17" class="node">
<title>Node17</title>
<g id="a_node17"><a xlink:href="Keypad_8cpp.xhtml" target="_top" xlink:title=" ">
<polygon fill="white" stroke="black" points="1086.5,-156.5 1086.5,-197.5 1217.5,-197.5 1217.5,-156.5 1086.5,-156.5"/>
<text text-anchor="start" x="1094.5" y="-185.5" font-family="Helvetica,sans-Serif" font-size="10.00">lib/board_adapters</text>
<text text-anchor="start" x="1094.5" y="-174.5" font-family="Helvetica,sans-Serif" font-size="10.00">/input_device_interface</text>
<text text-anchor="middle" x="1152" y="-163.5" font-family="Helvetica,sans-Serif" font-size="10.00">/Keypad.cpp</text>
</a>
</g>
</g>
<!-- Node16&#45;&gt;Node17 -->
<g id="edge25" class="edge">
<title>Node16&#45;&gt;Node17</title>
<path fill="none" stroke="midnightblue" d="M1152,-224.3C1152,-215.3 1152,-205.65 1152,-197.51"/>
<polygon fill="midnightblue" stroke="midnightblue" points="1148.5,-224.43 1152,-234.43 1155.5,-224.43 1148.5,-224.43"/>
</g>
<!-- Node18 -->
<g id="node18" class="node">
<title>Node18</title>
<g id="a_node18"><a xlink:href="test__keyState_8cpp.xhtml" target="_top" xlink:title=" ">
<polygon fill="white" stroke="black" points="1235.5,-162 1235.5,-192 1362.5,-192 1362.5,-162 1235.5,-162"/>
<text text-anchor="start" x="1243.5" y="-180" font-family="Helvetica,sans-Serif" font-size="10.00">test/hmi/test_keyState</text>
<text text-anchor="middle" x="1299" y="-169" font-family="Helvetica,sans-Serif" font-size="10.00">/test_keyState.cpp</text>
</a>
</g>
</g>
<!-- Node16&#45;&gt;Node18 -->
<g id="edge27" class="edge">
<title>Node16&#45;&gt;Node18</title>
<path fill="none" stroke="midnightblue" d="M1198.79,-229.81C1222.74,-217.43 1251.07,-202.78 1271.49,-192.23"/>
<polygon fill="midnightblue" stroke="midnightblue" points="1197.13,-226.73 1189.86,-234.43 1200.35,-232.94 1197.13,-226.73"/>
</g>
</g>
</svg>
