<?xml version="1.0" encoding="UTF-8" standalone="no"?>
<!DOCTYPE svg PUBLIC "-//W3C//DTD SVG 1.1//EN"
 "http://www.w3.org/Graphics/SVG/1.1/DTD/svg11.dtd">
<!-- Generated by graphviz version 2.43.0 (0)
 -->
<!-- Title: Graphical Class Hierarchy Pages: 1 -->
<svg width="225pt" height="104pt"
 viewBox="0.00 0.00 225.00 104.00" xmlns="http://www.w3.org/2000/svg" xmlns:xlink="http://www.w3.org/1999/xlink">
<g id="graph0" class="graph" transform="scale(1 1) rotate(0) translate(4 100)">
<title>Graphical Class Hierarchy</title>
<polygon fill="white" stroke="transparent" points="-4,4 -4,-100 221,-100 221,4 -4,4"/>
<!-- Node0 -->
<g id="node1" class="node">
<title>Node0</title>
<g id="a_node1"><a xlink:href="classIMenuItem.xhtml" target="_top" xlink:title=" ">
<polygon fill="white" stroke="black" points="0,-38.5 0,-57.5 69,-57.5 69,-38.5 0,-38.5"/>
<text text-anchor="middle" x="34.5" y="-45.5" font-family="Helvetica,sans-Serif" font-size="10.00">IMenuItem</text>
</a>
</g>
</g>
<!-- Node1 -->
<g id="node2" class="node">
<title>Node1</title>
<g id="a_node2"><a xlink:href="classMenuItemSubmenu.xhtml" target="_top" xlink:title=" ">
<polygon fill="white" stroke="black" points="105,-76.5 105,-95.5 217,-95.5 217,-76.5 105,-76.5"/>
<text text-anchor="middle" x="161" y="-83.5" font-family="Helvetica,sans-Serif" font-size="10.00">MenuItemSubmenu</text>
</a>
</g>
</g>
<!-- Node0&#45;&gt;Node1 -->
<g id="edge1" class="edge">
<title>Node0&#45;&gt;Node1</title>
<path fill="none" stroke="midnightblue" d="M76.57,-60.54C93.51,-65.7 112.82,-71.6 128.59,-76.41"/>
<polygon fill="midnightblue" stroke="midnightblue" points="77.5,-57.16 66.92,-57.59 75.46,-63.86 77.5,-57.16"/>
</g>
<!-- Node2 -->
<g id="node3" class="node">
<title>Node2</title>
<g id="a_node3"><a xlink:href="structMenuItemSwitch.xhtml" target="_top" xlink:title=" ">
<polygon fill="white" stroke="black" points="112,-38.5 112,-57.5 210,-57.5 210,-38.5 112,-38.5"/>
<text text-anchor="middle" x="161" y="-45.5" font-family="Helvetica,sans-Serif" font-size="10.00">MenuItemSwitch</text>
</a>
</g>
</g>
<!-- Node0&#45;&gt;Node2 -->
<g id="edge2" class="edge">
<title>Node0&#45;&gt;Node2</title>
<path fill="none" stroke="midnightblue" d="M79.38,-48C89.87,-48 101.12,-48 111.79,-48"/>
<polygon fill="midnightblue" stroke="midnightblue" points="79.19,-44.5 69.19,-48 79.19,-51.5 79.19,-44.5"/>
</g>
<!-- Node3 -->
<g id="node4" class="node">
<title>Node3</title>
<g id="a_node4"><a xlink:href="structMenuItemValue.xhtml" target="_top" xlink:title=" ">
<polygon fill="white" stroke="black" points="114.5,-0.5 114.5,-19.5 207.5,-19.5 207.5,-0.5 114.5,-0.5"/>
<text text-anchor="middle" x="161" y="-7.5" font-family="Helvetica,sans-Serif" font-size="10.00">MenuItemValue</text>
</a>
</g>
</g>
<!-- Node0&#45;&gt;Node3 -->
<g id="edge3" class="edge">
<title>Node0&#45;&gt;Node3</title>
<path fill="none" stroke="midnightblue" d="M76.57,-35.46C93.51,-30.3 112.82,-24.4 128.59,-19.59"/>
<polygon fill="midnightblue" stroke="midnightblue" points="75.46,-32.14 66.92,-38.41 77.5,-38.84 75.46,-32.14"/>
</g>
</g>
</svg>
