<?xml version="1.0" encoding="UTF-8" standalone="no"?>
<!DOCTYPE svg PUBLIC "-//W3C//DTD SVG 1.1//EN"
 "http://www.w3.org/Graphics/SVG/1.1/DTD/svg11.dtd">
<!-- Generated by graphviz version 2.43.0 (0)
 -->
<!-- Title: Graphical Class Hierarchy Pages: 1 -->
<svg width="213pt" height="66pt"
 viewBox="0.00 0.00 213.00 66.00" xmlns="http://www.w3.org/2000/svg" xmlns:xlink="http://www.w3.org/1999/xlink">
<g id="graph0" class="graph" transform="scale(1 1) rotate(0) translate(4 62)">
<title>Graphical Class Hierarchy</title>
<polygon fill="white" stroke="transparent" points="-4,4 -4,-62 209,-62 209,4 -4,4"/>
<!-- Node0 -->
<g id="node1" class="node">
<title>Node0</title>
<g id="a_node1"><a xlink:href="classIScreen.xhtml" target="_top" xlink:title=" ">
<polygon fill="white" stroke="black" points="0,-19.5 0,-38.5 53,-38.5 53,-19.5 0,-19.5"/>
<text text-anchor="middle" x="26.5" y="-26.5" font-family="Helvetica,sans-Serif" font-size="10.00">IScreen</text>
</a>
</g>
</g>
<!-- Node1 -->
<g id="node2" class="node">
<title>Node1</title>
<g id="a_node2"><a xlink:href="classScreenMenu.xhtml" target="_top" xlink:title=" ">
<polygon fill="white" stroke="black" points="108.5,-38.5 108.5,-57.5 185.5,-57.5 185.5,-38.5 108.5,-38.5"/>
<text text-anchor="middle" x="147" y="-45.5" font-family="Helvetica,sans-Serif" font-size="10.00">ScreenMenu</text>
</a>
</g>
</g>
<!-- Node0&#45;&gt;Node1 -->
<g id="edge1" class="edge">
<title>Node0&#45;&gt;Node1</title>
<path fill="none" stroke="midnightblue" d="M63.13,-34.71C77.35,-36.99 93.75,-39.62 108.19,-41.94"/>
<polygon fill="midnightblue" stroke="midnightblue" points="63.64,-31.25 53.21,-33.12 62.53,-38.16 63.64,-31.25"/>
</g>
<!-- Node2 -->
<g id="node3" class="node">
<title>Node2</title>
<g id="a_node3"><a xlink:href="classScreenValueModifier.xhtml" target="_top" xlink:title=" ">
<polygon fill="white" stroke="black" points="89,-0.5 89,-19.5 205,-19.5 205,-0.5 89,-0.5"/>
<text text-anchor="middle" x="147" y="-7.5" font-family="Helvetica,sans-Serif" font-size="10.00">ScreenValueModifier</text>
</a>
</g>
</g>
<!-- Node0&#45;&gt;Node2 -->
<g id="edge2" class="edge">
<title>Node0&#45;&gt;Node2</title>
<path fill="none" stroke="midnightblue" d="M63.31,-23.26C71.35,-21.97 80.06,-20.57 88.72,-19.18"/>
<polygon fill="midnightblue" stroke="midnightblue" points="62.53,-19.84 53.21,-24.88 63.64,-26.75 62.53,-19.84"/>
</g>
</g>
</svg>
