<?xml version="1.0" encoding="UTF-8" standalone="no"?>
<!DOCTYPE svg PUBLIC "-//W3C//DTD SVG 1.1//EN"
 "http://www.w3.org/Graphics/SVG/1.1/DTD/svg11.dtd">
<!-- Generated by graphviz version 2.43.0 (0)
 -->
<!-- Title: Graphical Class Hierarchy Pages: 1 -->
<svg width="269pt" height="78pt"
 viewBox="0.00 0.00 269.00 77.50" xmlns="http://www.w3.org/2000/svg" xmlns:xlink="http://www.w3.org/1999/xlink">
<g id="graph0" class="graph" transform="scale(1 1) rotate(0) translate(4 73.5)">
<title>Graphical Class Hierarchy</title>
<polygon fill="white" stroke="transparent" points="-4,4 -4,-73.5 265,-73.5 265,4 -4,4"/>
<!-- Node6 -->
<g id="node1" class="node">
<title>Node6</title>
<g id="a_node1"><a xlink:title=" ">
<polygon fill="white" stroke="#bfbfbf" points="0,-39 0,-69 109,-69 109,-39 0,-39"/>
<text text-anchor="start" x="8" y="-57" font-family="Helvetica,sans-Serif" font-size="10.00">std::enable_shared</text>
<text text-anchor="middle" x="54.5" y="-46" font-family="Helvetica,sans-Serif" font-size="10.00">_from_this</text>
</a>
</g>
</g>
<!-- Node0 -->
<g id="node2" class="node">
<title>Node0</title>
<g id="a_node2"><a xlink:href="classScreenMenu.xhtml" target="_top" xlink:title="Screen for menu navigation it receives a list of menu items for it&#39;s topology.">
<polygon fill="white" stroke="black" points="164.5,-42.5 164.5,-61.5 241.5,-61.5 241.5,-42.5 164.5,-42.5"/>
<text text-anchor="middle" x="203" y="-49.5" font-family="Helvetica,sans-Serif" font-size="10.00">ScreenMenu</text>
</a>
</g>
</g>
<!-- Node6&#45;&gt;Node0 -->
<g id="edge1" class="edge">
<title>Node6&#45;&gt;Node0</title>
<path fill="none" stroke="#8b1a1a" d="M119.22,-53.13C134.61,-52.92 150.57,-52.7 164.32,-52.51"/>
<polygon fill="#8b1a1a" stroke="#8b1a1a" points="119.17,-49.63 109.22,-53.27 119.27,-56.63 119.17,-49.63"/>
</g>
<!-- Node8 -->
<g id="node3" class="node">
<title>Node8</title>
<g id="a_node3"><a xlink:href="classScreenValueModifier.xhtml" target="_top" xlink:title="Screen for value modification.">
<polygon fill="white" stroke="black" points="145,-3.5 145,-22.5 261,-22.5 261,-3.5 145,-3.5"/>
<text text-anchor="middle" x="203" y="-10.5" font-family="Helvetica,sans-Serif" font-size="10.00">ScreenValueModifier</text>
</a>
</g>
</g>
<!-- Node6&#45;&gt;Node8 -->
<g id="edge2" class="edge">
<title>Node6&#45;&gt;Node8</title>
<path fill="none" stroke="#8b1a1a" d="M119,-36.23C135.8,-31.53 153.29,-26.63 167.86,-22.55"/>
<polygon fill="#8b1a1a" stroke="#8b1a1a" points="117.91,-32.9 109.22,-38.97 119.79,-39.64 117.91,-32.9"/>
</g>
<!-- Node20 -->
<g id="node4" class="node">
<title>Node20</title>
<g id="a_node4"><a xlink:href="classIScreen.xhtml" target="_top" xlink:title="Interface class for Screen objects.">
<polygon fill="white" stroke="black" points="28,-0.5 28,-19.5 81,-19.5 81,-0.5 28,-0.5"/>
<text text-anchor="middle" x="54.5" y="-7.5" font-family="Helvetica,sans-Serif" font-size="10.00">IScreen</text>
</a>
</g>
</g>
<!-- Node20&#45;&gt;Node0 -->
<g id="edge3" class="edge">
<title>Node20&#45;&gt;Node0</title>
<path fill="none" stroke="midnightblue" d="M90.69,-20.09C114.41,-26.89 145.5,-35.8 168.8,-42.48"/>
<polygon fill="midnightblue" stroke="midnightblue" points="91.6,-16.71 81.02,-17.32 89.67,-23.44 91.6,-16.71"/>
</g>
<!-- Node20&#45;&gt;Node8 -->
<g id="edge4" class="edge">
<title>Node20&#45;&gt;Node8</title>
<path fill="none" stroke="midnightblue" d="M91.1,-10.73C107.26,-11.06 126.77,-11.46 144.89,-11.83"/>
<polygon fill="midnightblue" stroke="midnightblue" points="91.09,-7.23 81.02,-10.52 90.94,-14.23 91.09,-7.23"/>
</g>
</g>
</svg>
