<?xml version="1.0" encoding="UTF-8" standalone="no"?>
<!DOCTYPE svg PUBLIC "-//W3C//DTD SVG 1.1//EN"
 "http://www.w3.org/Graphics/SVG/1.1/DTD/svg11.dtd">
<!-- Generated by graphviz version 2.43.0 (0)
 -->
<!-- Title: lib/application_business_rules/user_interaction/IStatusIndicator.hpp Pages: 1 -->
<svg width="739pt" height="217pt"
 viewBox="0.00 0.00 739.00 217.00" xmlns="http://www.w3.org/2000/svg" xmlns:xlink="http://www.w3.org/1999/xlink">
<g id="graph0" class="graph" transform="scale(1 1) rotate(0) translate(4 213)">
<title>lib/application_business_rules/user_interaction/IStatusIndicator.hpp</title>
<polygon fill="white" stroke="transparent" points="-4,4 -4,-213 735,-213 735,4 -4,4"/>
<!-- Node1 -->
<g id="node1" class="node">
<title>Node1</title>
<g id="a_node1"><a xlink:title=" ">
<polygon fill="#bfbfbf" stroke="black" points="285,-167.5 285,-208.5 419,-208.5 419,-167.5 285,-167.5"/>
<text text-anchor="start" x="293" y="-196.5" font-family="Helvetica,sans-Serif" font-size="10.00">lib/application_business</text>
<text text-anchor="start" x="293" y="-185.5" font-family="Helvetica,sans-Serif" font-size="10.00">_rules/user_interaction</text>
<text text-anchor="middle" x="352" y="-174.5" font-family="Helvetica,sans-Serif" font-size="10.00">/IStatusIndicator.hpp</text>
</a>
</g>
</g>
<!-- Node2 -->
<g id="node2" class="node">
<title>Node2</title>
<g id="a_node2"><a xlink:href="Presenter_8hpp.xhtml" target="_top" xlink:title=" ">
<polygon fill="white" stroke="black" points="131,-84 131,-125 265,-125 265,-84 131,-84"/>
<text text-anchor="start" x="139" y="-113" font-family="Helvetica,sans-Serif" font-size="10.00">lib/application_business</text>
<text text-anchor="start" x="139" y="-102" font-family="Helvetica,sans-Serif" font-size="10.00">_rules/user_interaction</text>
<text text-anchor="middle" x="198" y="-91" font-family="Helvetica,sans-Serif" font-size="10.00">/Presenter.hpp</text>
</a>
</g>
</g>
<!-- Node1&#45;&gt;Node2 -->
<g id="edge1" class="edge">
<title>Node1&#45;&gt;Node2</title>
<path fill="none" stroke="midnightblue" d="M305.99,-162.65C283.26,-150.62 256.2,-136.3 234.85,-125"/>
<polygon fill="midnightblue" stroke="midnightblue" points="304.64,-165.89 315.11,-167.48 307.91,-159.71 304.64,-165.89"/>
</g>
<!-- Node6 -->
<g id="node6" class="node">
<title>Node6</title>
<g id="a_node6"><a xlink:href="statusindicators__factory__interface_8hpp.xhtml" target="_top" xlink:title="Dependency injection for the keypad.">
<polygon fill="white" stroke="black" points="283.5,-78.5 283.5,-130.5 420.5,-130.5 420.5,-78.5 283.5,-78.5"/>
<text text-anchor="start" x="291.5" y="-118.5" font-family="Helvetica,sans-Serif" font-size="10.00">lib/application_business</text>
<text text-anchor="start" x="291.5" y="-107.5" font-family="Helvetica,sans-Serif" font-size="10.00">_rules/user_interaction</text>
<text text-anchor="start" x="291.5" y="-96.5" font-family="Helvetica,sans-Serif" font-size="10.00">/statusindicators_factory</text>
<text text-anchor="middle" x="352" y="-85.5" font-family="Helvetica,sans-Serif" font-size="10.00">_interface.hpp</text>
</a>
</g>
</g>
<!-- Node1&#45;&gt;Node6 -->
<g id="edge5" class="edge">
<title>Node1&#45;&gt;Node6</title>
<path fill="none" stroke="midnightblue" d="M352,-157.12C352,-148.41 352,-138.99 352,-130.61"/>
<polygon fill="midnightblue" stroke="midnightblue" points="348.5,-157.27 352,-167.27 355.5,-157.27 348.5,-157.27"/>
</g>
<!-- Node8 -->
<g id="node8" class="node">
<title>Node8</title>
<g id="a_node8"><a xlink:href="status__indicators_8hpp.xhtml" target="_top" xlink:title=" ">
<polygon fill="white" stroke="black" points="439,-84 439,-125 575,-125 575,-84 439,-84"/>
<text text-anchor="start" x="447" y="-113" font-family="Helvetica,sans-Serif" font-size="10.00">lib/board_adapters</text>
<text text-anchor="start" x="447" y="-102" font-family="Helvetica,sans-Serif" font-size="10.00">/status_indicators/status</text>
<text text-anchor="middle" x="507" y="-91" font-family="Helvetica,sans-Serif" font-size="10.00">_indicators.hpp</text>
</a>
</g>
</g>
<!-- Node1&#45;&gt;Node8 -->
<g id="edge9" class="edge">
<title>Node1&#45;&gt;Node8</title>
<path fill="none" stroke="midnightblue" d="M398,-162.81C420.95,-150.75 448.33,-136.35 469.91,-125"/>
<polygon fill="midnightblue" stroke="midnightblue" points="396.35,-159.73 389.13,-167.48 399.61,-165.92 396.35,-159.73"/>
</g>
<!-- Node3 -->
<g id="node3" class="node">
<title>Node3</title>
<g id="a_node3"><a xlink:href="Presenter_8cpp.xhtml" target="_top" xlink:title=" ">
<polygon fill="white" stroke="black" points="0,-0.5 0,-41.5 134,-41.5 134,-0.5 0,-0.5"/>
<text text-anchor="start" x="8" y="-29.5" font-family="Helvetica,sans-Serif" font-size="10.00">lib/application_business</text>
<text text-anchor="start" x="8" y="-18.5" font-family="Helvetica,sans-Serif" font-size="10.00">_rules/user_interaction</text>
<text text-anchor="middle" x="67" y="-7.5" font-family="Helvetica,sans-Serif" font-size="10.00">/Presenter.cpp</text>
</a>
</g>
</g>
<!-- Node2&#45;&gt;Node3 -->
<g id="edge2" class="edge">
<title>Node2&#45;&gt;Node3</title>
<path fill="none" stroke="midnightblue" d="M158.12,-78.69C139.02,-66.8 116.46,-52.77 98.58,-41.64"/>
<polygon fill="midnightblue" stroke="midnightblue" points="156.28,-81.67 166.62,-83.98 159.98,-75.72 156.28,-81.67"/>
</g>
<!-- Node4 -->
<g id="node4" class="node">
<title>Node4</title>
<g id="a_node4"><a xlink:href="main_8cpp.xhtml" target="_top" xlink:title=" ">
<polygon fill="white" stroke="black" points="295.5,-11.5 295.5,-30.5 374.5,-30.5 374.5,-11.5 295.5,-11.5"/>
<text text-anchor="middle" x="335" y="-18.5" font-family="Helvetica,sans-Serif" font-size="10.00">src/main.cpp</text>
</a>
</g>
</g>
<!-- Node2&#45;&gt;Node4 -->
<g id="edge3" class="edge">
<title>Node2&#45;&gt;Node4</title>
<path fill="none" stroke="midnightblue" d="M239.46,-78.83C266.93,-62.49 301.31,-42.04 320.44,-30.66"/>
<polygon fill="midnightblue" stroke="midnightblue" points="237.62,-75.86 230.81,-83.98 241.2,-81.87 237.62,-75.86"/>
</g>
<!-- Node5 -->
<g id="node5" class="node">
<title>Node5</title>
<g id="a_node5"><a xlink:href="test__hmi_8cpp.xhtml" target="_top" xlink:title=" ">
<polygon fill="white" stroke="black" points="152.5,-6 152.5,-36 277.5,-36 277.5,-6 152.5,-6"/>
<text text-anchor="start" x="160.5" y="-24" font-family="Helvetica,sans-Serif" font-size="10.00">test/hmi/test_hmi/test</text>
<text text-anchor="middle" x="215" y="-13" font-family="Helvetica,sans-Serif" font-size="10.00">_hmi.cpp</text>
</a>
</g>
</g>
<!-- Node2&#45;&gt;Node5 -->
<g id="edge4" class="edge">
<title>Node2&#45;&gt;Node5</title>
<path fill="none" stroke="midnightblue" d="M204.17,-73.91C206.86,-61.04 209.87,-46.57 212.04,-36.18"/>
<polygon fill="midnightblue" stroke="midnightblue" points="200.73,-73.27 202.12,-83.77 207.58,-74.7 200.73,-73.27"/>
</g>
<!-- Node6&#45;&gt;Node4 -->
<g id="edge7" class="edge">
<title>Node6&#45;&gt;Node4</title>
<path fill="none" stroke="midnightblue" d="M344.65,-68.29C341.76,-54.39 338.67,-39.61 336.79,-30.59"/>
<polygon fill="midnightblue" stroke="midnightblue" points="341.25,-69.09 346.71,-78.16 348.1,-67.66 341.25,-69.09"/>
</g>
<!-- Node6&#45;&gt;Node5 -->
<g id="edge8" class="edge">
<title>Node6&#45;&gt;Node5</title>
<path fill="none" stroke="midnightblue" d="M301.08,-73.21C279.63,-60.45 255.72,-46.22 238.55,-36.01"/>
<polygon fill="midnightblue" stroke="midnightblue" points="299.39,-76.28 309.78,-78.38 302.97,-70.26 299.39,-76.28"/>
</g>
<!-- Node7 -->
<g id="node7" class="node">
<title>Node7</title>
<g id="a_node7"><a xlink:href="statusindicators__factory__interface_8cpp.xhtml" target="_top" xlink:title=" ">
<polygon fill="white" stroke="black" points="393,-0.5 393,-41.5 577,-41.5 577,-0.5 393,-0.5"/>
<text text-anchor="start" x="401" y="-29.5" font-family="Helvetica,sans-Serif" font-size="10.00">lib/board_adapters</text>
<text text-anchor="start" x="401" y="-18.5" font-family="Helvetica,sans-Serif" font-size="10.00">/status_indicators/statusindicators</text>
<text text-anchor="middle" x="485" y="-7.5" font-family="Helvetica,sans-Serif" font-size="10.00">_factory_interface.cpp</text>
</a>
</g>
</g>
<!-- Node6&#45;&gt;Node7 -->
<g id="edge6" class="edge">
<title>Node6&#45;&gt;Node7</title>
<path fill="none" stroke="midnightblue" d="M401.75,-73.01C418.83,-62.55 437.48,-51.12 452.8,-41.73"/>
<polygon fill="midnightblue" stroke="midnightblue" points="399.69,-70.17 392.99,-78.38 403.34,-76.14 399.69,-70.17"/>
</g>
<!-- Node8&#45;&gt;Node7 -->
<g id="edge11" class="edge">
<title>Node8&#45;&gt;Node7</title>
<path fill="none" stroke="midnightblue" d="M499.01,-73.9C496.1,-63.13 492.89,-51.23 490.28,-41.55"/>
<polygon fill="midnightblue" stroke="midnightblue" points="495.69,-75.03 501.67,-83.77 502.45,-73.2 495.69,-75.03"/>
</g>
<!-- Node9 -->
<g id="node9" class="node">
<title>Node9</title>
<g id="a_node9"><a xlink:href="status__indicators_8cpp.xhtml" target="_top" xlink:title=" ">
<polygon fill="white" stroke="black" points="595,-0.5 595,-41.5 731,-41.5 731,-0.5 595,-0.5"/>
<text text-anchor="start" x="603" y="-29.5" font-family="Helvetica,sans-Serif" font-size="10.00">lib/board_adapters</text>
<text text-anchor="start" x="603" y="-18.5" font-family="Helvetica,sans-Serif" font-size="10.00">/status_indicators/status</text>
<text text-anchor="middle" x="663" y="-7.5" font-family="Helvetica,sans-Serif" font-size="10.00">_indicators.cpp</text>
</a>
</g>
</g>
<!-- Node8&#45;&gt;Node9 -->
<g id="edge10" class="edge">
<title>Node8&#45;&gt;Node9</title>
<path fill="none" stroke="midnightblue" d="M553.3,-79.31C576.39,-67.25 603.95,-52.85 625.67,-41.5"/>
<polygon fill="midnightblue" stroke="midnightblue" points="551.61,-76.25 544.37,-83.98 554.85,-82.45 551.61,-76.25"/>
</g>
</g>
</svg>
