<?xml version="1.0" encoding="UTF-8" standalone="no"?>
<!DOCTYPE svg PUBLIC "-//W3C//DTD SVG 1.1//EN"
 "http://www.w3.org/Graphics/SVG/1.1/DTD/svg11.dtd">
<!-- Generated by graphviz version 2.43.0 (0)
 -->
<!-- Title: lib/application_business_rules/user_interaction/KeyIds.hpp Pages: 1 -->
<svg width="1769pt" height="440pt"
 viewBox="0.00 0.00 1769.36 440.00" xmlns="http://www.w3.org/2000/svg" xmlns:xlink="http://www.w3.org/1999/xlink">
<g id="graph0" class="graph" transform="scale(1 1) rotate(0) translate(4 436)">
<title>lib/application_business_rules/user_interaction/KeyIds.hpp</title>
<polygon fill="white" stroke="transparent" points="-4,4 -4,-436 1765.36,-436 1765.36,4 -4,4"/>
<!-- Node1 -->
<g id="node1" class="node">
<title>Node1</title>
<g id="a_node1"><a xlink:title=" ">
<polygon fill="#bfbfbf" stroke="black" points="509.5,-390.5 509.5,-431.5 643.5,-431.5 643.5,-390.5 509.5,-390.5"/>
<text text-anchor="start" x="517.5" y="-419.5" font-family="Helvetica,sans-Serif" font-size="10.00">lib/application_business</text>
<text text-anchor="start" x="517.5" y="-408.5" font-family="Helvetica,sans-Serif" font-size="10.00">_rules/user_interaction</text>
<text text-anchor="middle" x="576.5" y="-397.5" font-family="Helvetica,sans-Serif" font-size="10.00">/KeyIds.hpp</text>
</a>
</g>
</g>
<!-- Node2 -->
<g id="node2" class="node">
<title>Node2</title>
<g id="a_node2"><a xlink:href="board__interface_8hpp.xhtml" target="_top" xlink:title=" ">
<polygon fill="white" stroke="black" points="115.5,-78.5 115.5,-119.5 249.5,-119.5 249.5,-78.5 115.5,-78.5"/>
<text text-anchor="start" x="123.5" y="-107.5" font-family="Helvetica,sans-Serif" font-size="10.00">lib/application_business</text>
<text text-anchor="start" x="123.5" y="-96.5" font-family="Helvetica,sans-Serif" font-size="10.00">_rules/user_interaction</text>
<text text-anchor="middle" x="182.5" y="-85.5" font-family="Helvetica,sans-Serif" font-size="10.00">/board_interface.hpp</text>
</a>
</g>
</g>
<!-- Node1&#45;&gt;Node2 -->
<g id="edge1" class="edge">
<title>Node1&#45;&gt;Node2</title>
<path fill="none" stroke="midnightblue" d="M531.87,-385.27C468.44,-348.95 350.3,-276.89 263.5,-198 236.87,-173.8 211.32,-140.69 196.26,-119.82"/>
<polygon fill="midnightblue" stroke="midnightblue" points="530.4,-388.46 540.82,-390.37 533.86,-382.38 530.4,-388.46"/>
</g>
<!-- Node7 -->
<g id="node7" class="node">
<title>Node7</title>
<g id="a_node7"><a xlink:href="IKeypad_8hpp.xhtml" target="_top" xlink:title=" ">
<polygon fill="white" stroke="black" points="866.5,-312.5 866.5,-353.5 1000.5,-353.5 1000.5,-312.5 866.5,-312.5"/>
<text text-anchor="start" x="874.5" y="-341.5" font-family="Helvetica,sans-Serif" font-size="10.00">lib/application_business</text>
<text text-anchor="start" x="874.5" y="-330.5" font-family="Helvetica,sans-Serif" font-size="10.00">_rules/user_interaction</text>
<text text-anchor="middle" x="933.5" y="-319.5" font-family="Helvetica,sans-Serif" font-size="10.00">/IKeypad.hpp</text>
</a>
</g>
</g>
<!-- Node1&#45;&gt;Node7 -->
<g id="edge6" class="edge">
<title>Node1&#45;&gt;Node7</title>
<path fill="none" stroke="midnightblue" d="M653.59,-393.59C716.97,-380.1 805.86,-361.17 866.35,-348.3"/>
<polygon fill="midnightblue" stroke="midnightblue" points="652.7,-390.2 643.65,-395.7 654.16,-397.05 652.7,-390.2"/>
</g>
<!-- Node23 -->
<g id="node23" class="node">
<title>Node23</title>
<g id="a_node23"><a xlink:href="KeyIds_8cpp.xhtml" target="_top" xlink:title=" ">
<polygon fill="white" stroke="black" points="1018.5,-312.5 1018.5,-353.5 1152.5,-353.5 1152.5,-312.5 1018.5,-312.5"/>
<text text-anchor="start" x="1026.5" y="-341.5" font-family="Helvetica,sans-Serif" font-size="10.00">lib/application_business</text>
<text text-anchor="start" x="1026.5" y="-330.5" font-family="Helvetica,sans-Serif" font-size="10.00">_rules/user_interaction</text>
<text text-anchor="middle" x="1085.5" y="-319.5" font-family="Helvetica,sans-Serif" font-size="10.00">/KeyIds.cpp</text>
</a>
</g>
</g>
<!-- Node1&#45;&gt;Node23 -->
<g id="edge35" class="edge">
<title>Node1&#45;&gt;Node23</title>
<path fill="none" stroke="midnightblue" d="M653.74,-403.04C740.73,-394.5 886.06,-378.12 1009.5,-354 1012.45,-353.42 1015.45,-352.8 1018.47,-352.14"/>
<polygon fill="midnightblue" stroke="midnightblue" points="653.3,-399.57 643.69,-404.02 653.98,-406.53 653.3,-399.57"/>
</g>
<!-- Node24 -->
<g id="node24" class="node">
<title>Node24</title>
<g id="a_node24"><a xlink:href="ProcessHmiInputs_8hpp.xhtml" target="_top" xlink:title=" ">
<polygon fill="white" stroke="black" points="305.5,-78.5 305.5,-119.5 439.5,-119.5 439.5,-78.5 305.5,-78.5"/>
<text text-anchor="start" x="313.5" y="-107.5" font-family="Helvetica,sans-Serif" font-size="10.00">lib/application_business</text>
<text text-anchor="start" x="313.5" y="-96.5" font-family="Helvetica,sans-Serif" font-size="10.00">_rules/user_interaction</text>
<text text-anchor="middle" x="372.5" y="-85.5" font-family="Helvetica,sans-Serif" font-size="10.00">/ProcessHmiInputs.hpp</text>
</a>
</g>
</g>
<!-- Node1&#45;&gt;Node24 -->
<g id="edge36" class="edge">
<title>Node1&#45;&gt;Node24</title>
<path fill="none" stroke="midnightblue" d="M557.82,-381.61C516.94,-319.5 420.45,-172.87 385.46,-119.7"/>
<polygon fill="midnightblue" stroke="midnightblue" points="555.01,-383.71 563.43,-390.14 560.86,-379.86 555.01,-383.71"/>
</g>
<!-- Node3 -->
<g id="node3" class="node">
<title>Node3</title>
<g id="a_node3"><a xlink:href="Presenter_8cpp.xhtml" target="_top" xlink:title=" ">
<polygon fill="white" stroke="black" points="587.5,-0.5 587.5,-41.5 721.5,-41.5 721.5,-0.5 587.5,-0.5"/>
<text text-anchor="start" x="595.5" y="-29.5" font-family="Helvetica,sans-Serif" font-size="10.00">lib/application_business</text>
<text text-anchor="start" x="595.5" y="-18.5" font-family="Helvetica,sans-Serif" font-size="10.00">_rules/user_interaction</text>
<text text-anchor="middle" x="654.5" y="-7.5" font-family="Helvetica,sans-Serif" font-size="10.00">/Presenter.cpp</text>
</a>
</g>
</g>
<!-- Node2&#45;&gt;Node3 -->
<g id="edge2" class="edge">
<title>Node2&#45;&gt;Node3</title>
<path fill="none" stroke="midnightblue" d="M259.88,-84.23C272.12,-82.1 284.65,-79.97 296.5,-78 397.81,-61.19 515.5,-43.05 587.47,-32.11"/>
<polygon fill="midnightblue" stroke="midnightblue" points="258.93,-80.84 249.68,-86 260.13,-87.73 258.93,-80.84"/>
</g>
<!-- Node4 -->
<g id="node4" class="node">
<title>Node4</title>
<g id="a_node4"><a xlink:href="ProcessHmiInputs_8cpp.xhtml" target="_top" xlink:title=" ">
<polygon fill="white" stroke="black" points="296.5,-0.5 296.5,-41.5 430.5,-41.5 430.5,-0.5 296.5,-0.5"/>
<text text-anchor="start" x="304.5" y="-29.5" font-family="Helvetica,sans-Serif" font-size="10.00">lib/application_business</text>
<text text-anchor="start" x="304.5" y="-18.5" font-family="Helvetica,sans-Serif" font-size="10.00">_rules/user_interaction</text>
<text text-anchor="middle" x="363.5" y="-7.5" font-family="Helvetica,sans-Serif" font-size="10.00">/ProcessHmiInputs.cpp</text>
</a>
</g>
</g>
<!-- Node2&#45;&gt;Node4 -->
<g id="edge3" class="edge">
<title>Node2&#45;&gt;Node4</title>
<path fill="none" stroke="midnightblue" d="M238.54,-74.47C263.73,-63.89 293.11,-51.56 317.05,-41.51"/>
<polygon fill="midnightblue" stroke="midnightblue" points="236.98,-71.33 229.11,-78.43 239.69,-77.78 236.98,-71.33"/>
</g>
<!-- Node5 -->
<g id="node5" class="node">
<title>Node5</title>
<g id="a_node5"><a xlink:href="board_8cpp.xhtml" target="_top" xlink:title=" ">
<polygon fill="white" stroke="black" points="0,-6 0,-36 107,-36 107,-6 0,-6"/>
<text text-anchor="start" x="8" y="-24" font-family="Helvetica,sans-Serif" font-size="10.00">lib/board_adapters</text>
<text text-anchor="middle" x="53.5" y="-13" font-family="Helvetica,sans-Serif" font-size="10.00">/board.cpp</text>
</a>
</g>
</g>
<!-- Node2&#45;&gt;Node5 -->
<g id="edge4" class="edge">
<title>Node2&#45;&gt;Node5</title>
<path fill="none" stroke="midnightblue" d="M140.6,-73.31C119.76,-61.04 95.32,-46.64 77.65,-36.23"/>
<polygon fill="midnightblue" stroke="midnightblue" points="138.89,-76.37 149.28,-78.43 142.44,-70.34 138.89,-76.37"/>
</g>
<!-- Node6 -->
<g id="node6" class="node">
<title>Node6</title>
<g id="a_node6"><a xlink:href="sound__output_8cpp.xhtml" target="_top" xlink:title=" ">
<polygon fill="white" stroke="black" points="125.5,-0.5 125.5,-41.5 259.5,-41.5 259.5,-0.5 125.5,-0.5"/>
<text text-anchor="start" x="133.5" y="-29.5" font-family="Helvetica,sans-Serif" font-size="10.00">lib/board_adapters</text>
<text text-anchor="start" x="133.5" y="-18.5" font-family="Helvetica,sans-Serif" font-size="10.00">/sound_output_interface</text>
<text text-anchor="middle" x="192.5" y="-7.5" font-family="Helvetica,sans-Serif" font-size="10.00">/sound_output.cpp</text>
</a>
</g>
</g>
<!-- Node2&#45;&gt;Node6 -->
<g id="edge5" class="edge">
<title>Node2&#45;&gt;Node6</title>
<path fill="none" stroke="midnightblue" d="M186.41,-68.3C187.59,-59.3 188.86,-49.65 189.93,-41.51"/>
<polygon fill="midnightblue" stroke="midnightblue" points="182.91,-68.06 185.08,-78.43 189.85,-68.97 182.91,-68.06"/>
</g>
<!-- Node7&#45;&gt;Node4 -->
<g id="edge29" class="edge">
<title>Node7&#45;&gt;Node4</title>
<path fill="none" stroke="midnightblue" d="M856.39,-317.88C701.88,-287.85 363.37,-212.74 296.5,-120 285.58,-104.86 288.59,-94.91 296.5,-78 303.43,-63.17 316.44,-50.88 329.16,-41.64"/>
<polygon fill="midnightblue" stroke="midnightblue" points="855.82,-321.33 866.3,-319.79 857.14,-314.46 855.82,-321.33"/>
</g>
<!-- Node8 -->
<g id="node8" class="node">
<title>Node8</title>
<g id="a_node8"><a xlink:href="IGuiEngine_8hpp.xhtml" target="_top" xlink:title=" ">
<polygon fill="white" stroke="black" points="799.5,-234.5 799.5,-275.5 933.5,-275.5 933.5,-234.5 799.5,-234.5"/>
<text text-anchor="start" x="807.5" y="-263.5" font-family="Helvetica,sans-Serif" font-size="10.00">lib/application_business</text>
<text text-anchor="start" x="807.5" y="-252.5" font-family="Helvetica,sans-Serif" font-size="10.00">_rules/user_interaction</text>
<text text-anchor="middle" x="866.5" y="-241.5" font-family="Helvetica,sans-Serif" font-size="10.00">/IGuiEngine.hpp</text>
</a>
</g>
</g>
<!-- Node7&#45;&gt;Node8 -->
<g id="edge7" class="edge">
<title>Node7&#45;&gt;Node8</title>
<path fill="none" stroke="midnightblue" d="M909.62,-304.92C901.06,-295.2 891.58,-284.45 883.7,-275.51"/>
<polygon fill="midnightblue" stroke="midnightblue" points="907.01,-307.24 916.25,-312.43 912.26,-302.61 907.01,-307.24"/>
</g>
<!-- Node14 -->
<g id="node14" class="node">
<title>Node14</title>
<g id="a_node14"><a xlink:href="test__hmi_8cpp.xhtml" target="_top" xlink:title=" ">
<polygon fill="white" stroke="black" points="967,-6 967,-36 1092,-36 1092,-6 967,-6"/>
<text text-anchor="start" x="975" y="-24" font-family="Helvetica,sans-Serif" font-size="10.00">test/hmi/test_hmi/test</text>
<text text-anchor="middle" x="1029.5" y="-13" font-family="Helvetica,sans-Serif" font-size="10.00">_hmi.cpp</text>
</a>
</g>
</g>
<!-- Node7&#45;&gt;Node14 -->
<g id="edge34" class="edge">
<title>Node7&#45;&gt;Node14</title>
<path fill="none" stroke="midnightblue" d="M1010.88,-312.04C1192.32,-286.65 1658.78,-332.08 1753.5,-198 1832.75,-85.81 1282.24,-38.64 1092.31,-25.82"/>
<polygon fill="midnightblue" stroke="midnightblue" points="1010.26,-308.59 1000.9,-313.56 1011.32,-315.51 1010.26,-308.59"/>
</g>
<!-- Node15 -->
<g id="node15" class="node">
<title>Node15</title>
<g id="a_node15"><a xlink:href="Menu_8hpp.xhtml" target="_top" xlink:title=" ">
<polygon fill="white" stroke="black" points="953.5,-156.5 953.5,-197.5 1087.5,-197.5 1087.5,-156.5 953.5,-156.5"/>
<text text-anchor="start" x="961.5" y="-185.5" font-family="Helvetica,sans-Serif" font-size="10.00">lib/application_business</text>
<text text-anchor="start" x="961.5" y="-174.5" font-family="Helvetica,sans-Serif" font-size="10.00">_rules/user_interaction</text>
<text text-anchor="middle" x="1020.5" y="-163.5" font-family="Helvetica,sans-Serif" font-size="10.00">/Menu.hpp</text>
</a>
</g>
</g>
<!-- Node7&#45;&gt;Node15 -->
<g id="edge28" class="edge">
<title>Node7&#45;&gt;Node15</title>
<path fill="none" stroke="midnightblue" d="M949.56,-303.56C966.92,-272.85 994.11,-224.71 1009.3,-197.83"/>
<polygon fill="midnightblue" stroke="midnightblue" points="946.39,-302.07 944.52,-312.5 952.48,-305.51 946.39,-302.07"/>
</g>
<!-- Node18 -->
<g id="node18" class="node">
<title>Node18</title>
<g id="a_node18"><a xlink:href="keypad__factory__interface_8hpp.xhtml" target="_top" xlink:title="Dependency injection for the keypad.">
<polygon fill="white" stroke="black" points="1156.5,-234.5 1156.5,-275.5 1320.5,-275.5 1320.5,-234.5 1156.5,-234.5"/>
<text text-anchor="start" x="1164.5" y="-263.5" font-family="Helvetica,sans-Serif" font-size="10.00">lib/application_business</text>
<text text-anchor="start" x="1164.5" y="-252.5" font-family="Helvetica,sans-Serif" font-size="10.00">_rules/user_interaction</text>
<text text-anchor="middle" x="1238.5" y="-241.5" font-family="Helvetica,sans-Serif" font-size="10.00">/keypad_factory_interface.hpp</text>
</a>
</g>
</g>
<!-- Node7&#45;&gt;Node18 -->
<g id="edge24" class="edge">
<title>Node7&#45;&gt;Node18</title>
<path fill="none" stroke="midnightblue" d="M1010.41,-311.79C1064.58,-298.08 1115.77,-285.55 1157.07,-275.55"/>
<polygon fill="midnightblue" stroke="midnightblue" points="1009.45,-308.42 1000.62,-314.27 1011.17,-315.2 1009.45,-308.42"/>
</g>
<!-- Node20 -->
<g id="node20" class="node">
<title>Node20</title>
<g id="a_node20"><a xlink:href="Keypad_8hpp.xhtml" target="_top" xlink:title=" ">
<polygon fill="white" stroke="black" points="1393,-234.5 1393,-275.5 1524,-275.5 1524,-234.5 1393,-234.5"/>
<text text-anchor="start" x="1401" y="-263.5" font-family="Helvetica,sans-Serif" font-size="10.00">lib/board_adapters</text>
<text text-anchor="start" x="1401" y="-252.5" font-family="Helvetica,sans-Serif" font-size="10.00">/input_device_interface</text>
<text text-anchor="middle" x="1458.5" y="-241.5" font-family="Helvetica,sans-Serif" font-size="10.00">/Keypad.hpp</text>
</a>
</g>
</g>
<!-- Node7&#45;&gt;Node20 -->
<g id="edge30" class="edge">
<title>Node7&#45;&gt;Node20</title>
<path fill="none" stroke="midnightblue" d="M1010.43,-311.96C1151.92,-286.12 1190.83,-294.54 1329.5,-276 1350.17,-273.24 1372.64,-269.88 1392.95,-266.71"/>
<polygon fill="midnightblue" stroke="midnightblue" points="1009.71,-308.54 1000.52,-313.8 1010.99,-315.42 1009.71,-308.54"/>
</g>
<!-- Node9 -->
<g id="node9" class="node">
<title>Node9</title>
<g id="a_node9"><a xlink:href="GuiEngine_8hpp.xhtml" target="_top" xlink:title=" ">
<polygon fill="white" stroke="black" points="605.5,-162 605.5,-192 731.5,-192 731.5,-162 605.5,-162"/>
<text text-anchor="start" x="613.5" y="-180" font-family="Helvetica,sans-Serif" font-size="10.00">lib/3rd_party_adapters</text>
<text text-anchor="middle" x="668.5" y="-169" font-family="Helvetica,sans-Serif" font-size="10.00">/LVGL/GuiEngine.hpp</text>
</a>
</g>
</g>
<!-- Node8&#45;&gt;Node9 -->
<g id="edge8" class="edge">
<title>Node8&#45;&gt;Node9</title>
<path fill="none" stroke="midnightblue" d="M805.98,-230.77C773.09,-218.15 733.49,-202.94 705.25,-192.11"/>
<polygon fill="midnightblue" stroke="midnightblue" points="804.92,-234.11 815.51,-234.43 807.43,-227.58 804.92,-234.11"/>
</g>
<!-- Node12 -->
<g id="node12" class="node">
<title>Node12</title>
<g id="a_node12"><a xlink:href="guiEngine__factory__interface_8hpp.xhtml" target="_top" xlink:title="Dependency injection for the guiEngine.">
<polygon fill="white" stroke="black" points="758,-156.5 758,-197.5 935,-197.5 935,-156.5 758,-156.5"/>
<text text-anchor="start" x="766" y="-185.5" font-family="Helvetica,sans-Serif" font-size="10.00">lib/application_business</text>
<text text-anchor="start" x="766" y="-174.5" font-family="Helvetica,sans-Serif" font-size="10.00">_rules/user_interaction</text>
<text text-anchor="middle" x="846.5" y="-163.5" font-family="Helvetica,sans-Serif" font-size="10.00">/guiEngine_factory_interface.hpp</text>
</a>
</g>
</g>
<!-- Node8&#45;&gt;Node12 -->
<g id="edge11" class="edge">
<title>Node8&#45;&gt;Node12</title>
<path fill="none" stroke="midnightblue" d="M858.76,-224.59C856.37,-215.51 853.8,-205.74 851.63,-197.51"/>
<polygon fill="midnightblue" stroke="midnightblue" points="855.42,-225.65 861.35,-234.43 862.19,-223.87 855.42,-225.65"/>
</g>
<!-- Node8&#45;&gt;Node15 -->
<g id="edge15" class="edge">
<title>Node8&#45;&gt;Node15</title>
<path fill="none" stroke="midnightblue" d="M915.32,-229.91C936.49,-219.46 960.97,-207.38 980.98,-197.51"/>
<polygon fill="midnightblue" stroke="midnightblue" points="913.58,-226.86 906.16,-234.43 916.68,-233.14 913.58,-226.86"/>
</g>
<!-- Node10 -->
<g id="node10" class="node">
<title>Node10</title>
<g id="a_node10"><a xlink:href="GuiEngine_8cpp.xhtml" target="_top" xlink:title=" ">
<polygon fill="white" stroke="black" points="457.5,-84 457.5,-114 583.5,-114 583.5,-84 457.5,-84"/>
<text text-anchor="start" x="465.5" y="-102" font-family="Helvetica,sans-Serif" font-size="10.00">lib/3rd_party_adapters</text>
<text text-anchor="middle" x="520.5" y="-91" font-family="Helvetica,sans-Serif" font-size="10.00">/LVGL/GuiEngine.cpp</text>
</a>
</g>
</g>
<!-- Node9&#45;&gt;Node10 -->
<g id="edge9" class="edge">
<title>Node9&#45;&gt;Node10</title>
<path fill="none" stroke="midnightblue" d="M631.84,-157.17C605.83,-143.82 571.47,-126.18 547.84,-114.04"/>
<polygon fill="midnightblue" stroke="midnightblue" points="630.51,-160.43 641.01,-161.88 633.71,-154.2 630.51,-160.43"/>
</g>
<!-- Node11 -->
<g id="node11" class="node">
<title>Node11</title>
<g id="a_node11"><a xlink:href="guiEngine__factory__interface_8cpp.xhtml" target="_top" xlink:title=" ">
<polygon fill="white" stroke="black" points="601.5,-78.5 601.5,-119.5 735.5,-119.5 735.5,-78.5 601.5,-78.5"/>
<text text-anchor="start" x="609.5" y="-107.5" font-family="Helvetica,sans-Serif" font-size="10.00">lib/3rd_party_adapters</text>
<text text-anchor="start" x="609.5" y="-96.5" font-family="Helvetica,sans-Serif" font-size="10.00">/LVGL/guiEngine_factory</text>
<text text-anchor="middle" x="668.5" y="-85.5" font-family="Helvetica,sans-Serif" font-size="10.00">_interface.cpp</text>
</a>
</g>
</g>
<!-- Node9&#45;&gt;Node11 -->
<g id="edge10" class="edge">
<title>Node9&#45;&gt;Node11</title>
<path fill="none" stroke="midnightblue" d="M668.5,-151.66C668.5,-141.33 668.5,-129.44 668.5,-119.68"/>
<polygon fill="midnightblue" stroke="midnightblue" points="665,-151.7 668.5,-161.7 672,-151.71 665,-151.7"/>
</g>
<!-- Node12&#45;&gt;Node11 -->
<g id="edge12" class="edge">
<title>Node12&#45;&gt;Node11</title>
<path fill="none" stroke="midnightblue" d="M791.39,-152.47C766.62,-141.89 737.73,-129.56 714.18,-119.51"/>
<polygon fill="midnightblue" stroke="midnightblue" points="790.09,-155.72 800.66,-156.43 792.84,-149.28 790.09,-155.72"/>
</g>
<!-- Node13 -->
<g id="node13" class="node">
<title>Node13</title>
<g id="a_node13"><a xlink:href="main_8cpp.xhtml" target="_top" xlink:title=" ">
<polygon fill="white" stroke="black" points="870,-11.5 870,-30.5 949,-30.5 949,-11.5 870,-11.5"/>
<text text-anchor="middle" x="909.5" y="-18.5" font-family="Helvetica,sans-Serif" font-size="10.00">src/main.cpp</text>
</a>
</g>
</g>
<!-- Node12&#45;&gt;Node13 -->
<g id="edge13" class="edge">
<title>Node12&#45;&gt;Node13</title>
<path fill="none" stroke="midnightblue" d="M876.44,-149C884.17,-140.48 891.67,-130.52 896.5,-120 910.53,-89.43 910.7,-48.22 910.01,-30.59"/>
<polygon fill="midnightblue" stroke="midnightblue" points="873.74,-146.76 869.35,-156.4 878.79,-151.61 873.74,-146.76"/>
</g>
<!-- Node12&#45;&gt;Node14 -->
<g id="edge14" class="edge">
<title>Node12&#45;&gt;Node14</title>
<path fill="none" stroke="midnightblue" d="M878.69,-150.19C890.34,-140.76 903.57,-129.96 915.5,-120 950.75,-90.55 991.42,-55.27 1013.39,-36.1"/>
<polygon fill="midnightblue" stroke="midnightblue" points="876.49,-147.47 870.91,-156.47 880.89,-152.91 876.49,-147.47"/>
</g>
<!-- Node15&#45;&gt;Node13 -->
<g id="edge22" class="edge">
<title>Node15&#45;&gt;Node13</title>
<path fill="none" stroke="midnightblue" d="M1000.3,-147.97C974.57,-112.27 931.53,-52.56 915.64,-30.51"/>
<polygon fill="midnightblue" stroke="midnightblue" points="997.76,-150.43 1006.44,-156.5 1003.43,-146.34 997.76,-150.43"/>
</g>
<!-- Node15&#45;&gt;Node14 -->
<g id="edge23" class="edge">
<title>Node15&#45;&gt;Node14</title>
<path fill="none" stroke="midnightblue" d="M1022.22,-146.51C1024.15,-113.49 1027.2,-61.34 1028.66,-36.32"/>
<polygon fill="midnightblue" stroke="midnightblue" points="1018.73,-146.31 1021.64,-156.5 1025.72,-146.72 1018.73,-146.31"/>
</g>
<!-- Node16 -->
<g id="node16" class="node">
<title>Node16</title>
<g id="a_node16"><a xlink:href="Menu_8cpp.xhtml" target="_top" xlink:title=" ">
<polygon fill="white" stroke="black" points="1057.5,-78.5 1057.5,-119.5 1191.5,-119.5 1191.5,-78.5 1057.5,-78.5"/>
<text text-anchor="start" x="1065.5" y="-107.5" font-family="Helvetica,sans-Serif" font-size="10.00">lib/application_business</text>
<text text-anchor="start" x="1065.5" y="-96.5" font-family="Helvetica,sans-Serif" font-size="10.00">_rules/user_interaction</text>
<text text-anchor="middle" x="1124.5" y="-85.5" font-family="Helvetica,sans-Serif" font-size="10.00">/Menu.cpp</text>
</a>
</g>
</g>
<!-- Node15&#45;&gt;Node16 -->
<g id="edge16" class="edge">
<title>Node15&#45;&gt;Node16</title>
<path fill="none" stroke="midnightblue" d="M1055.6,-150.35C1069.39,-140.27 1084.96,-128.89 1097.81,-119.51"/>
<polygon fill="midnightblue" stroke="midnightblue" points="1053.29,-147.7 1047.28,-156.43 1057.42,-153.35 1053.29,-147.7"/>
</g>
<!-- Node17 -->
<g id="node17" class="node">
<title>Node17</title>
<g id="a_node17"><a xlink:href="Presenter_8hpp.xhtml" target="_top" xlink:title=" ">
<polygon fill="white" stroke="black" points="753.5,-78.5 753.5,-119.5 887.5,-119.5 887.5,-78.5 753.5,-78.5"/>
<text text-anchor="start" x="761.5" y="-107.5" font-family="Helvetica,sans-Serif" font-size="10.00">lib/application_business</text>
<text text-anchor="start" x="761.5" y="-96.5" font-family="Helvetica,sans-Serif" font-size="10.00">_rules/user_interaction</text>
<text text-anchor="middle" x="820.5" y="-85.5" font-family="Helvetica,sans-Serif" font-size="10.00">/Presenter.hpp</text>
</a>
</g>
</g>
<!-- Node15&#45;&gt;Node17 -->
<g id="edge17" class="edge">
<title>Node15&#45;&gt;Node17</title>
<path fill="none" stroke="midnightblue" d="M959.31,-152.75C931.31,-142.11 898.52,-129.65 871.83,-119.51"/>
<polygon fill="midnightblue" stroke="midnightblue" points="958.4,-156.15 969,-156.43 960.89,-149.6 958.4,-156.15"/>
</g>
<!-- Node17&#45;&gt;Node3 -->
<g id="edge18" class="edge">
<title>Node17&#45;&gt;Node3</title>
<path fill="none" stroke="midnightblue" d="M768.49,-74.19C745.53,-63.67 718.87,-51.47 697.1,-41.51"/>
<polygon fill="midnightblue" stroke="midnightblue" points="767.2,-77.45 777.75,-78.43 770.12,-71.08 767.2,-77.45"/>
</g>
<!-- Node17&#45;&gt;Node4 -->
<g id="edge19" class="edge">
<title>Node17&#45;&gt;Node4</title>
<path fill="none" stroke="midnightblue" d="M743.41,-77.88C628.21,-54.75 504.91,-38.46 430.65,-29.57"/>
<polygon fill="midnightblue" stroke="midnightblue" points="742.96,-81.37 753.46,-79.92 744.35,-74.51 742.96,-81.37"/>
</g>
<!-- Node17&#45;&gt;Node13 -->
<g id="edge20" class="edge">
<title>Node17&#45;&gt;Node13</title>
<path fill="none" stroke="midnightblue" d="M851.39,-71.62C868.21,-57.26 887.88,-40.46 899.49,-30.55"/>
<polygon fill="midnightblue" stroke="midnightblue" points="848.75,-69.27 843.42,-78.43 853.3,-74.6 848.75,-69.27"/>
</g>
<!-- Node17&#45;&gt;Node14 -->
<g id="edge21" class="edge">
<title>Node17&#45;&gt;Node14</title>
<path fill="none" stroke="midnightblue" d="M883.93,-74.93C918.74,-62.28 960.77,-46.99 990.71,-36.11"/>
<polygon fill="midnightblue" stroke="midnightblue" points="882.52,-71.72 874.32,-78.43 884.92,-78.3 882.52,-71.72"/>
</g>
<!-- Node18&#45;&gt;Node13 -->
<g id="edge26" class="edge">
<title>Node18&#45;&gt;Node13</title>
<path fill="none" stroke="midnightblue" d="M1241.44,-224.42C1243.56,-184.96 1240.72,-115.69 1200.5,-78 1160.83,-40.82 1010.93,-56.38 958.5,-42 948.04,-39.13 936.82,-34.66 927.75,-30.67"/>
<polygon fill="midnightblue" stroke="midnightblue" points="1237.94,-224.27 1240.75,-234.48 1244.92,-224.74 1237.94,-224.27"/>
</g>
<!-- Node18&#45;&gt;Node14 -->
<g id="edge27" class="edge">
<title>Node18&#45;&gt;Node14</title>
<path fill="none" stroke="midnightblue" d="M1247.38,-224.36C1256.84,-186.21 1266.37,-119.86 1233.5,-78 1215.98,-55.69 1145.3,-39.91 1092.01,-30.91"/>
<polygon fill="midnightblue" stroke="midnightblue" points="1243.92,-223.76 1244.75,-234.33 1250.68,-225.55 1243.92,-223.76"/>
</g>
<!-- Node19 -->
<g id="node19" class="node">
<title>Node19</title>
<g id="a_node19"><a xlink:href="keypad__factory__interface_8cpp.xhtml" target="_top" xlink:title=" ">
<polygon fill="white" stroke="black" points="1285.5,-156.5 1285.5,-197.5 1449.5,-197.5 1449.5,-156.5 1285.5,-156.5"/>
<text text-anchor="start" x="1293.5" y="-185.5" font-family="Helvetica,sans-Serif" font-size="10.00">lib/board_adapters</text>
<text text-anchor="start" x="1293.5" y="-174.5" font-family="Helvetica,sans-Serif" font-size="10.00">/input_device_interface</text>
<text text-anchor="middle" x="1367.5" y="-163.5" font-family="Helvetica,sans-Serif" font-size="10.00">/keypad_factory_interface.cpp</text>
</a>
</g>
</g>
<!-- Node18&#45;&gt;Node19 -->
<g id="edge25" class="edge">
<title>Node18&#45;&gt;Node19</title>
<path fill="none" stroke="midnightblue" d="M1280.59,-229.2C1298.05,-218.92 1318.01,-207.16 1334.39,-197.51"/>
<polygon fill="midnightblue" stroke="midnightblue" points="1278.56,-226.34 1271.72,-234.43 1282.11,-232.37 1278.56,-226.34"/>
</g>
<!-- Node20&#45;&gt;Node19 -->
<g id="edge32" class="edge">
<title>Node20&#45;&gt;Node19</title>
<path fill="none" stroke="midnightblue" d="M1427.1,-227.78C1415.21,-217.84 1401.88,-206.72 1390.86,-197.51"/>
<polygon fill="midnightblue" stroke="midnightblue" points="1425.15,-230.7 1435.07,-234.43 1429.63,-225.33 1425.15,-230.7"/>
</g>
<!-- Node21 -->
<g id="node21" class="node">
<title>Node21</title>
<g id="a_node21"><a xlink:href="Keypad_8cpp.xhtml" target="_top" xlink:title=" ">
<polygon fill="white" stroke="black" points="1613,-156.5 1613,-197.5 1744,-197.5 1744,-156.5 1613,-156.5"/>
<text text-anchor="start" x="1621" y="-185.5" font-family="Helvetica,sans-Serif" font-size="10.00">lib/board_adapters</text>
<text text-anchor="start" x="1621" y="-174.5" font-family="Helvetica,sans-Serif" font-size="10.00">/input_device_interface</text>
<text text-anchor="middle" x="1678.5" y="-163.5" font-family="Helvetica,sans-Serif" font-size="10.00">/Keypad.cpp</text>
</a>
</g>
</g>
<!-- Node20&#45;&gt;Node21 -->
<g id="edge31" class="edge">
<title>Node20&#45;&gt;Node21</title>
<path fill="none" stroke="midnightblue" d="M1525,-231.03C1555.97,-220.33 1592.43,-207.73 1622.04,-197.51"/>
<polygon fill="midnightblue" stroke="midnightblue" points="1523.46,-227.85 1515.16,-234.43 1525.75,-234.47 1523.46,-227.85"/>
</g>
<!-- Node22 -->
<g id="node22" class="node">
<title>Node22</title>
<g id="a_node22"><a xlink:href="test__keyState_8cpp.xhtml" target="_top" xlink:title=" ">
<polygon fill="white" stroke="black" points="1468,-162 1468,-192 1595,-192 1595,-162 1468,-162"/>
<text text-anchor="start" x="1476" y="-180" font-family="Helvetica,sans-Serif" font-size="10.00">test/hmi/test_keyState</text>
<text text-anchor="middle" x="1531.5" y="-169" font-family="Helvetica,sans-Serif" font-size="10.00">/test_keyState.cpp</text>
</a>
</g>
</g>
<!-- Node20&#45;&gt;Node22 -->
<g id="edge33" class="edge">
<title>Node20&#45;&gt;Node22</title>
<path fill="none" stroke="midnightblue" d="M1484.44,-226.99C1495.72,-215.25 1508.46,-201.99 1517.84,-192.23"/>
<polygon fill="midnightblue" stroke="midnightblue" points="1481.7,-224.79 1477.3,-234.43 1486.75,-229.64 1481.7,-224.79"/>
</g>
<!-- Node24&#45;&gt;Node4 -->
<g id="edge37" class="edge">
<title>Node24&#45;&gt;Node4</title>
<path fill="none" stroke="midnightblue" d="M368.98,-68.3C367.92,-59.3 366.77,-49.65 365.81,-41.51"/>
<polygon fill="midnightblue" stroke="midnightblue" points="365.53,-68.91 370.18,-78.43 372.48,-68.09 365.53,-68.91"/>
</g>
<!-- Node24&#45;&gt;Node13 -->
<g id="edge38" class="edge">
<title>Node24&#45;&gt;Node13</title>
<path fill="none" stroke="midnightblue" d="M449.68,-78.05C519.17,-66.74 771.3,-37.73 869.8,-26.51"/>
<polygon fill="midnightblue" stroke="midnightblue" points="448.77,-74.66 439.52,-79.83 449.98,-81.56 448.77,-74.66"/>
</g>
<!-- Node24&#45;&gt;Node14 -->
<g id="edge39" class="edge">
<title>Node24&#45;&gt;Node14</title>
<path fill="none" stroke="midnightblue" d="M450.02,-77.92C674.54,-42.08 737.92,-80.44 958.5,-42 967.08,-40.51 976.11,-38.39 984.75,-36.1"/>
<polygon fill="midnightblue" stroke="midnightblue" points="449.21,-74.5 439.9,-79.56 450.34,-81.41 449.21,-74.5"/>
</g>
</g>
</svg>
