<?xml version="1.0" encoding="UTF-8" standalone="no"?>
<!DOCTYPE svg PUBLIC "-//W3C//DTD SVG 1.1//EN"
 "http://www.w3.org/Graphics/SVG/1.1/DTD/svg11.dtd">
<!-- Generated by graphviz version 2.43.0 (0)
 -->
<!-- Title: lib/application_business_rules/user_interaction/KeyIds.hpp Pages: 1 -->
<svg width="1761pt" height="440pt"
 viewBox="0.00 0.00 1761.36 440.00" xmlns="http://www.w3.org/2000/svg" xmlns:xlink="http://www.w3.org/1999/xlink">
<g id="graph0" class="graph" transform="scale(1 1) rotate(0) translate(4 436)">
<title>lib/application_business_rules/user_interaction/KeyIds.hpp</title>
<polygon fill="white" stroke="transparent" points="-4,4 -4,-436 1757.36,-436 1757.36,4 -4,4"/>
<!-- Node1 -->
<g id="node1" class="node">
<title>Node1</title>
<g id="a_node1"><a xlink:title=" ">
<polygon fill="#bfbfbf" stroke="black" points="504.5,-390.5 504.5,-431.5 638.5,-431.5 638.5,-390.5 504.5,-390.5"/>
<text text-anchor="start" x="512.5" y="-419.5" font-family="Helvetica,sans-Serif" font-size="10.00">lib/application_business</text>
<text text-anchor="start" x="512.5" y="-408.5" font-family="Helvetica,sans-Serif" font-size="10.00">_rules/user_interaction</text>
<text text-anchor="middle" x="571.5" y="-397.5" font-family="Helvetica,sans-Serif" font-size="10.00">/KeyIds.hpp</text>
</a>
</g>
</g>
<!-- Node2 -->
<g id="node2" class="node">
<title>Node2</title>
<g id="a_node2"><a xlink:href="board__interface_8hpp.xhtml" target="_top" xlink:title=" ">
<polygon fill="white" stroke="black" points="115.5,-78.5 115.5,-119.5 249.5,-119.5 249.5,-78.5 115.5,-78.5"/>
<text text-anchor="start" x="123.5" y="-107.5" font-family="Helvetica,sans-Serif" font-size="10.00">lib/application_business</text>
<text text-anchor="start" x="123.5" y="-96.5" font-family="Helvetica,sans-Serif" font-size="10.00">_rules/user_interaction</text>
<text text-anchor="middle" x="182.5" y="-85.5" font-family="Helvetica,sans-Serif" font-size="10.00">/board_interface.hpp</text>
</a>
</g>
</g>
<!-- Node1&#45;&gt;Node2 -->
<g id="edge1" class="edge">
<title>Node1&#45;&gt;Node2</title>
<path fill="none" stroke="midnightblue" d="M527.62,-385.12C465.26,-348.62 349.06,-276.35 263.5,-198 236.97,-173.7 211.38,-140.61 196.3,-119.78"/>
<polygon fill="midnightblue" stroke="midnightblue" points="526.02,-388.24 536.43,-390.24 529.54,-382.19 526.02,-388.24"/>
</g>
<!-- Node7 -->
<g id="node7" class="node">
<title>Node7</title>
<g id="a_node7"><a xlink:href="IKeypad_8hpp.xhtml" target="_top" xlink:title=" ">
<polygon fill="white" stroke="black" points="856.5,-312.5 856.5,-353.5 990.5,-353.5 990.5,-312.5 856.5,-312.5"/>
<text text-anchor="start" x="864.5" y="-341.5" font-family="Helvetica,sans-Serif" font-size="10.00">lib/application_business</text>
<text text-anchor="start" x="864.5" y="-330.5" font-family="Helvetica,sans-Serif" font-size="10.00">_rules/user_interaction</text>
<text text-anchor="middle" x="923.5" y="-319.5" font-family="Helvetica,sans-Serif" font-size="10.00">/IKeypad.hpp</text>
</a>
</g>
</g>
<!-- Node1&#45;&gt;Node7 -->
<g id="edge6" class="edge">
<title>Node1&#45;&gt;Node7</title>
<path fill="none" stroke="midnightblue" d="M648.67,-393.34C710.77,-379.93 797.16,-361.28 856.41,-348.48"/>
<polygon fill="midnightblue" stroke="midnightblue" points="647.57,-389.99 638.54,-395.53 649.05,-396.84 647.57,-389.99"/>
</g>
<!-- Node23 -->
<g id="node23" class="node">
<title>Node23</title>
<g id="a_node23"><a xlink:href="KeyIds_8cpp.xhtml" target="_top" xlink:title=" ">
<polygon fill="white" stroke="black" points="1008.5,-312.5 1008.5,-353.5 1142.5,-353.5 1142.5,-312.5 1008.5,-312.5"/>
<text text-anchor="start" x="1016.5" y="-341.5" font-family="Helvetica,sans-Serif" font-size="10.00">lib/application_business</text>
<text text-anchor="start" x="1016.5" y="-330.5" font-family="Helvetica,sans-Serif" font-size="10.00">_rules/user_interaction</text>
<text text-anchor="middle" x="1075.5" y="-319.5" font-family="Helvetica,sans-Serif" font-size="10.00">/KeyIds.cpp</text>
</a>
</g>
</g>
<!-- Node1&#45;&gt;Node23 -->
<g id="edge35" class="edge">
<title>Node1&#45;&gt;Node23</title>
<path fill="none" stroke="midnightblue" d="M648.86,-402.87C734.95,-394.24 877.96,-377.84 999.5,-354 1002.45,-353.42 1005.45,-352.8 1008.47,-352.13"/>
<polygon fill="midnightblue" stroke="midnightblue" points="648.25,-399.41 638.65,-403.88 648.95,-406.38 648.25,-399.41"/>
</g>
<!-- Node24 -->
<g id="node24" class="node">
<title>Node24</title>
<g id="a_node24"><a xlink:href="ProcessHmiInputs_8hpp.xhtml" target="_top" xlink:title=" ">
<polygon fill="white" stroke="black" points="305.5,-78.5 305.5,-119.5 439.5,-119.5 439.5,-78.5 305.5,-78.5"/>
<text text-anchor="start" x="313.5" y="-107.5" font-family="Helvetica,sans-Serif" font-size="10.00">lib/application_business</text>
<text text-anchor="start" x="313.5" y="-96.5" font-family="Helvetica,sans-Serif" font-size="10.00">_rules/user_interaction</text>
<text text-anchor="middle" x="372.5" y="-85.5" font-family="Helvetica,sans-Serif" font-size="10.00">/ProcessHmiInputs.hpp</text>
</a>
</g>
</g>
<!-- Node1&#45;&gt;Node24 -->
<g id="edge36" class="edge">
<title>Node1&#45;&gt;Node24</title>
<path fill="none" stroke="midnightblue" d="M553.27,-381.61C513.4,-319.5 419.28,-172.87 385.14,-119.7"/>
<polygon fill="midnightblue" stroke="midnightblue" points="550.4,-383.61 558.75,-390.14 556.29,-379.83 550.4,-383.61"/>
</g>
<!-- Node3 -->
<g id="node3" class="node">
<title>Node3</title>
<g id="a_node3"><a xlink:href="Presenter_8cpp.xhtml" target="_top" xlink:title=" ">
<polygon fill="white" stroke="black" points="583.5,-0.5 583.5,-41.5 717.5,-41.5 717.5,-0.5 583.5,-0.5"/>
<text text-anchor="start" x="591.5" y="-29.5" font-family="Helvetica,sans-Serif" font-size="10.00">lib/application_business</text>
<text text-anchor="start" x="591.5" y="-18.5" font-family="Helvetica,sans-Serif" font-size="10.00">_rules/user_interaction</text>
<text text-anchor="middle" x="650.5" y="-7.5" font-family="Helvetica,sans-Serif" font-size="10.00">/Presenter.cpp</text>
</a>
</g>
</g>
<!-- Node2&#45;&gt;Node3 -->
<g id="edge2" class="edge">
<title>Node2&#45;&gt;Node3</title>
<path fill="none" stroke="midnightblue" d="M259.88,-84.24C272.13,-82.12 284.65,-79.98 296.5,-78 396.23,-61.36 511.99,-43.28 583.24,-32.3"/>
<polygon fill="midnightblue" stroke="midnightblue" points="258.93,-80.86 249.68,-86.02 260.13,-87.75 258.93,-80.86"/>
</g>
<!-- Node4 -->
<g id="node4" class="node">
<title>Node4</title>
<g id="a_node4"><a xlink:href="ProcessHmiInputs_8cpp.xhtml" target="_top" xlink:title=" ">
<polygon fill="white" stroke="black" points="296.5,-0.5 296.5,-41.5 430.5,-41.5 430.5,-0.5 296.5,-0.5"/>
<text text-anchor="start" x="304.5" y="-29.5" font-family="Helvetica,sans-Serif" font-size="10.00">lib/application_business</text>
<text text-anchor="start" x="304.5" y="-18.5" font-family="Helvetica,sans-Serif" font-size="10.00">_rules/user_interaction</text>
<text text-anchor="middle" x="363.5" y="-7.5" font-family="Helvetica,sans-Serif" font-size="10.00">/ProcessHmiInputs.cpp</text>
</a>
</g>
</g>
<!-- Node2&#45;&gt;Node4 -->
<g id="edge3" class="edge">
<title>Node2&#45;&gt;Node4</title>
<path fill="none" stroke="midnightblue" d="M238.54,-74.47C263.73,-63.89 293.11,-51.56 317.05,-41.51"/>
<polygon fill="midnightblue" stroke="midnightblue" points="236.98,-71.33 229.11,-78.43 239.69,-77.78 236.98,-71.33"/>
</g>
<!-- Node5 -->
<g id="node5" class="node">
<title>Node5</title>
<g id="a_node5"><a xlink:href="board_8cpp.xhtml" target="_top" xlink:title=" ">
<polygon fill="white" stroke="black" points="0,-6 0,-36 107,-36 107,-6 0,-6"/>
<text text-anchor="start" x="8" y="-24" font-family="Helvetica,sans-Serif" font-size="10.00">lib/board_adapters</text>
<text text-anchor="middle" x="53.5" y="-13" font-family="Helvetica,sans-Serif" font-size="10.00">/board.cpp</text>
</a>
</g>
</g>
<!-- Node2&#45;&gt;Node5 -->
<g id="edge4" class="edge">
<title>Node2&#45;&gt;Node5</title>
<path fill="none" stroke="midnightblue" d="M140.6,-73.31C119.76,-61.04 95.32,-46.64 77.65,-36.23"/>
<polygon fill="midnightblue" stroke="midnightblue" points="138.89,-76.37 149.28,-78.43 142.44,-70.34 138.89,-76.37"/>
</g>
<!-- Node6 -->
<g id="node6" class="node">
<title>Node6</title>
<g id="a_node6"><a xlink:href="sound__output_8cpp.xhtml" target="_top" xlink:title=" ">
<polygon fill="white" stroke="black" points="125.5,-0.5 125.5,-41.5 259.5,-41.5 259.5,-0.5 125.5,-0.5"/>
<text text-anchor="start" x="133.5" y="-29.5" font-family="Helvetica,sans-Serif" font-size="10.00">lib/board_adapters</text>
<text text-anchor="start" x="133.5" y="-18.5" font-family="Helvetica,sans-Serif" font-size="10.00">/sound_output_interface</text>
<text text-anchor="middle" x="192.5" y="-7.5" font-family="Helvetica,sans-Serif" font-size="10.00">/sound_output.cpp</text>
</a>
</g>
</g>
<!-- Node2&#45;&gt;Node6 -->
<g id="edge5" class="edge">
<title>Node2&#45;&gt;Node6</title>
<path fill="none" stroke="midnightblue" d="M186.41,-68.3C187.59,-59.3 188.86,-49.65 189.93,-41.51"/>
<polygon fill="midnightblue" stroke="midnightblue" points="182.91,-68.06 185.08,-78.43 189.85,-68.97 182.91,-68.06"/>
</g>
<!-- Node7&#45;&gt;Node4 -->
<g id="edge29" class="edge">
<title>Node7&#45;&gt;Node4</title>
<path fill="none" stroke="midnightblue" d="M846.39,-332.4C708.95,-328.4 424.1,-297.84 296.5,-120 285.62,-104.83 288.59,-94.91 296.5,-78 303.43,-63.17 316.44,-50.88 329.16,-41.64"/>
<polygon fill="midnightblue" stroke="midnightblue" points="846.34,-335.89 856.43,-332.65 846.52,-328.9 846.34,-335.89"/>
</g>
<!-- Node8 -->
<g id="node8" class="node">
<title>Node8</title>
<g id="a_node8"><a xlink:href="IDisplay_8hpp.xhtml" target="_top" xlink:title=" ">
<polygon fill="white" stroke="black" points="791.5,-234.5 791.5,-275.5 925.5,-275.5 925.5,-234.5 791.5,-234.5"/>
<text text-anchor="start" x="799.5" y="-263.5" font-family="Helvetica,sans-Serif" font-size="10.00">lib/application_business</text>
<text text-anchor="start" x="799.5" y="-252.5" font-family="Helvetica,sans-Serif" font-size="10.00">_rules/user_interaction</text>
<text text-anchor="middle" x="858.5" y="-241.5" font-family="Helvetica,sans-Serif" font-size="10.00">/IDisplay.hpp</text>
</a>
</g>
</g>
<!-- Node7&#45;&gt;Node8 -->
<g id="edge7" class="edge">
<title>Node7&#45;&gt;Node8</title>
<path fill="none" stroke="midnightblue" d="M900.09,-304.63C891.85,-294.99 882.76,-284.36 875.18,-275.51"/>
<polygon fill="midnightblue" stroke="midnightblue" points="897.6,-307.1 906.76,-312.43 902.92,-302.55 897.6,-307.1"/>
</g>
<!-- Node14 -->
<g id="node14" class="node">
<title>Node14</title>
<g id="a_node14"><a xlink:href="test__hmi_8cpp.xhtml" target="_top" xlink:title=" ">
<polygon fill="white" stroke="black" points="959,-6 959,-36 1084,-36 1084,-6 959,-6"/>
<text text-anchor="start" x="967" y="-24" font-family="Helvetica,sans-Serif" font-size="10.00">test/hmi/test_hmi/test</text>
<text text-anchor="middle" x="1021.5" y="-13" font-family="Helvetica,sans-Serif" font-size="10.00">_hmi.cpp</text>
</a>
</g>
</g>
<!-- Node7&#45;&gt;Node14 -->
<g id="edge34" class="edge">
<title>Node7&#45;&gt;Node14</title>
<path fill="none" stroke="midnightblue" d="M1000.91,-312.04C1182.8,-286.61 1650.53,-332.43 1745.5,-198 1824.75,-85.81 1274.24,-38.64 1084.31,-25.82"/>
<polygon fill="midnightblue" stroke="midnightblue" points="1000.26,-308.59 990.9,-313.56 1001.31,-315.51 1000.26,-308.59"/>
</g>
<!-- Node15 -->
<g id="node15" class="node">
<title>Node15</title>
<g id="a_node15"><a xlink:href="Menu_8hpp.xhtml" target="_top" xlink:title=" ">
<polygon fill="white" stroke="black" points="940.5,-156.5 940.5,-197.5 1074.5,-197.5 1074.5,-156.5 940.5,-156.5"/>
<text text-anchor="start" x="948.5" y="-185.5" font-family="Helvetica,sans-Serif" font-size="10.00">lib/application_business</text>
<text text-anchor="start" x="948.5" y="-174.5" font-family="Helvetica,sans-Serif" font-size="10.00">_rules/user_interaction</text>
<text text-anchor="middle" x="1007.5" y="-163.5" font-family="Helvetica,sans-Serif" font-size="10.00">/Menu.hpp</text>
</a>
</g>
</g>
<!-- Node7&#45;&gt;Node15 -->
<g id="edge28" class="edge">
<title>Node7&#45;&gt;Node15</title>
<path fill="none" stroke="midnightblue" d="M939.01,-303.56C955.77,-272.85 982.02,-224.71 996.68,-197.83"/>
<polygon fill="midnightblue" stroke="midnightblue" points="935.85,-302.04 934.14,-312.5 942,-305.39 935.85,-302.04"/>
</g>
<!-- Node18 -->
<g id="node18" class="node">
<title>Node18</title>
<g id="a_node18"><a xlink:href="keypad__factory__interface_8hpp.xhtml" target="_top" xlink:title="Dependency injection for the keypad.">
<polygon fill="white" stroke="black" points="1148.5,-234.5 1148.5,-275.5 1312.5,-275.5 1312.5,-234.5 1148.5,-234.5"/>
<text text-anchor="start" x="1156.5" y="-263.5" font-family="Helvetica,sans-Serif" font-size="10.00">lib/application_business</text>
<text text-anchor="start" x="1156.5" y="-252.5" font-family="Helvetica,sans-Serif" font-size="10.00">_rules/user_interaction</text>
<text text-anchor="middle" x="1230.5" y="-241.5" font-family="Helvetica,sans-Serif" font-size="10.00">/keypad_factory_interface.hpp</text>
</a>
</g>
</g>
<!-- Node7&#45;&gt;Node18 -->
<g id="edge24" class="edge">
<title>Node7&#45;&gt;Node18</title>
<path fill="none" stroke="midnightblue" d="M1000.48,-311.77C1055.05,-298.02 1106.68,-285.49 1148.35,-275.5"/>
<polygon fill="midnightblue" stroke="midnightblue" points="999.46,-308.42 990.62,-314.26 1001.17,-315.21 999.46,-308.42"/>
</g>
<!-- Node20 -->
<g id="node20" class="node">
<title>Node20</title>
<g id="a_node20"><a xlink:href="Keypad_8hpp.xhtml" target="_top" xlink:title=" ">
<polygon fill="white" stroke="black" points="1385,-234.5 1385,-275.5 1516,-275.5 1516,-234.5 1385,-234.5"/>
<text text-anchor="start" x="1393" y="-263.5" font-family="Helvetica,sans-Serif" font-size="10.00">lib/board_adapters</text>
<text text-anchor="start" x="1393" y="-252.5" font-family="Helvetica,sans-Serif" font-size="10.00">/input_device_interface</text>
<text text-anchor="middle" x="1450.5" y="-241.5" font-family="Helvetica,sans-Serif" font-size="10.00">/Keypad.hpp</text>
</a>
</g>
</g>
<!-- Node7&#45;&gt;Node20 -->
<g id="edge30" class="edge">
<title>Node7&#45;&gt;Node20</title>
<path fill="none" stroke="midnightblue" d="M1000.49,-311.95C1142.81,-286.02 1181.97,-294.61 1321.5,-276 1342.17,-273.24 1364.64,-269.89 1384.95,-266.71"/>
<polygon fill="midnightblue" stroke="midnightblue" points="999.71,-308.54 990.52,-313.8 1000.99,-315.42 999.71,-308.54"/>
</g>
<!-- Node9 -->
<g id="node9" class="node">
<title>Node9</title>
<g id="a_node9"><a xlink:href="Display_8hpp.xhtml" target="_top" xlink:title=" ">
<polygon fill="white" stroke="black" points="601.5,-162 601.5,-192 727.5,-192 727.5,-162 601.5,-162"/>
<text text-anchor="start" x="609.5" y="-180" font-family="Helvetica,sans-Serif" font-size="10.00">lib/3rd_party_adapters</text>
<text text-anchor="middle" x="664.5" y="-169" font-family="Helvetica,sans-Serif" font-size="10.00">/LVGL/Display.hpp</text>
</a>
</g>
</g>
<!-- Node8&#45;&gt;Node9 -->
<g id="edge8" class="edge">
<title>Node8&#45;&gt;Node9</title>
<path fill="none" stroke="midnightblue" d="M799.21,-230.77C766.98,-218.15 728.17,-202.94 700.51,-192.11"/>
<polygon fill="midnightblue" stroke="midnightblue" points="797.95,-234.04 808.54,-234.43 800.51,-227.52 797.95,-234.04"/>
</g>
<!-- Node12 -->
<g id="node12" class="node">
<title>Node12</title>
<g id="a_node12"><a xlink:href="display__factory__interface_8hpp.xhtml" target="_top" xlink:title="Dependency injection for the display.">
<polygon fill="white" stroke="black" points="758.5,-156.5 758.5,-197.5 922.5,-197.5 922.5,-156.5 758.5,-156.5"/>
<text text-anchor="start" x="766.5" y="-185.5" font-family="Helvetica,sans-Serif" font-size="10.00">lib/application_business</text>
<text text-anchor="start" x="766.5" y="-174.5" font-family="Helvetica,sans-Serif" font-size="10.00">_rules/user_interaction</text>
<text text-anchor="middle" x="840.5" y="-163.5" font-family="Helvetica,sans-Serif" font-size="10.00">/display_factory_interface.hpp</text>
</a>
</g>
</g>
<!-- Node8&#45;&gt;Node12 -->
<g id="edge11" class="edge">
<title>Node8&#45;&gt;Node12</title>
<path fill="none" stroke="midnightblue" d="M851.53,-224.59C849.38,-215.51 847.07,-205.74 845.12,-197.51"/>
<polygon fill="midnightblue" stroke="midnightblue" points="848.15,-225.5 853.86,-234.43 854.97,-223.89 848.15,-225.5"/>
</g>
<!-- Node8&#45;&gt;Node15 -->
<g id="edge15" class="edge">
<title>Node8&#45;&gt;Node15</title>
<path fill="none" stroke="midnightblue" d="M906.01,-229.77C926.43,-219.35 949.99,-207.34 969.26,-197.51"/>
<polygon fill="midnightblue" stroke="midnightblue" points="904.19,-226.77 896.87,-234.43 907.37,-233 904.19,-226.77"/>
</g>
<!-- Node10 -->
<g id="node10" class="node">
<title>Node10</title>
<g id="a_node10"><a xlink:href="Display_8cpp.xhtml" target="_top" xlink:title=" ">
<polygon fill="white" stroke="black" points="457.5,-84 457.5,-114 583.5,-114 583.5,-84 457.5,-84"/>
<text text-anchor="start" x="465.5" y="-102" font-family="Helvetica,sans-Serif" font-size="10.00">lib/3rd_party_adapters</text>
<text text-anchor="middle" x="520.5" y="-91" font-family="Helvetica,sans-Serif" font-size="10.00">/LVGL/Display.cpp</text>
</a>
</g>
</g>
<!-- Node9&#45;&gt;Node10 -->
<g id="edge9" class="edge">
<title>Node9&#45;&gt;Node10</title>
<path fill="none" stroke="midnightblue" d="M628.83,-157.17C603.52,-143.82 570.1,-126.18 547.1,-114.04"/>
<polygon fill="midnightblue" stroke="midnightblue" points="627.27,-160.31 637.75,-161.88 630.54,-154.12 627.27,-160.31"/>
</g>
<!-- Node11 -->
<g id="node11" class="node">
<title>Node11</title>
<g id="a_node11"><a xlink:href="display__factory__interface_8cpp.xhtml" target="_top" xlink:title=" ">
<polygon fill="white" stroke="black" points="601.5,-78.5 601.5,-119.5 727.5,-119.5 727.5,-78.5 601.5,-78.5"/>
<text text-anchor="start" x="609.5" y="-107.5" font-family="Helvetica,sans-Serif" font-size="10.00">lib/3rd_party_adapters</text>
<text text-anchor="start" x="609.5" y="-96.5" font-family="Helvetica,sans-Serif" font-size="10.00">/LVGL/display_factory</text>
<text text-anchor="middle" x="664.5" y="-85.5" font-family="Helvetica,sans-Serif" font-size="10.00">_interface.cpp</text>
</a>
</g>
</g>
<!-- Node9&#45;&gt;Node11 -->
<g id="edge10" class="edge">
<title>Node9&#45;&gt;Node11</title>
<path fill="none" stroke="midnightblue" d="M664.5,-151.66C664.5,-141.33 664.5,-129.44 664.5,-119.68"/>
<polygon fill="midnightblue" stroke="midnightblue" points="661,-151.7 664.5,-161.7 668,-151.71 661,-151.7"/>
</g>
<!-- Node12&#45;&gt;Node11 -->
<g id="edge12" class="edge">
<title>Node12&#45;&gt;Node11</title>
<path fill="none" stroke="midnightblue" d="M785.68,-152.33C761.26,-141.78 732.85,-129.51 709.67,-119.51"/>
<polygon fill="midnightblue" stroke="midnightblue" points="784.61,-155.68 795.18,-156.43 787.38,-149.25 784.61,-155.68"/>
</g>
<!-- Node13 -->
<g id="node13" class="node">
<title>Node13</title>
<g id="a_node13"><a xlink:href="main_8cpp.xhtml" target="_top" xlink:title=" ">
<polygon fill="white" stroke="black" points="862,-11.5 862,-30.5 941,-30.5 941,-11.5 862,-11.5"/>
<text text-anchor="middle" x="901.5" y="-18.5" font-family="Helvetica,sans-Serif" font-size="10.00">src/main.cpp</text>
</a>
</g>
</g>
<!-- Node12&#45;&gt;Node13 -->
<g id="edge13" class="edge">
<title>Node12&#45;&gt;Node13</title>
<path fill="none" stroke="midnightblue" d="M869.05,-149.05C876.54,-140.47 883.82,-130.47 888.5,-120 902.22,-89.29 902.55,-48.16 901.95,-30.57"/>
<polygon fill="midnightblue" stroke="midnightblue" points="866.39,-146.77 862.18,-156.5 871.53,-151.52 866.39,-146.77"/>
</g>
<!-- Node12&#45;&gt;Node14 -->
<g id="edge14" class="edge">
<title>Node12&#45;&gt;Node14</title>
<path fill="none" stroke="midnightblue" d="M872.01,-149.82C883.24,-140.45 895.96,-129.78 907.5,-120 942.54,-90.3 983.28,-55.12 1005.33,-36.03"/>
<polygon fill="midnightblue" stroke="midnightblue" points="869.57,-147.29 864.13,-156.38 874.05,-152.67 869.57,-147.29"/>
</g>
<!-- Node15&#45;&gt;Node13 -->
<g id="edge22" class="edge">
<title>Node15&#45;&gt;Node13</title>
<path fill="none" stroke="midnightblue" d="M988.21,-147.97C963.64,-112.27 922.54,-52.56 907.36,-30.51"/>
<polygon fill="midnightblue" stroke="midnightblue" points="985.52,-150.24 994.08,-156.5 991.29,-146.27 985.52,-150.24"/>
</g>
<!-- Node15&#45;&gt;Node14 -->
<g id="edge23" class="edge">
<title>Node15&#45;&gt;Node14</title>
<path fill="none" stroke="midnightblue" d="M1010.18,-146.51C1013.18,-113.49 1017.92,-61.34 1020.2,-36.32"/>
<polygon fill="midnightblue" stroke="midnightblue" points="1006.69,-146.22 1009.27,-156.5 1013.66,-146.85 1006.69,-146.22"/>
</g>
<!-- Node16 -->
<g id="node16" class="node">
<title>Node16</title>
<g id="a_node16"><a xlink:href="Menu_8cpp.xhtml" target="_top" xlink:title=" ">
<polygon fill="white" stroke="black" points="1049.5,-78.5 1049.5,-119.5 1183.5,-119.5 1183.5,-78.5 1049.5,-78.5"/>
<text text-anchor="start" x="1057.5" y="-107.5" font-family="Helvetica,sans-Serif" font-size="10.00">lib/application_business</text>
<text text-anchor="start" x="1057.5" y="-96.5" font-family="Helvetica,sans-Serif" font-size="10.00">_rules/user_interaction</text>
<text text-anchor="middle" x="1116.5" y="-85.5" font-family="Helvetica,sans-Serif" font-size="10.00">/Menu.cpp</text>
</a>
</g>
</g>
<!-- Node15&#45;&gt;Node16 -->
<g id="edge16" class="edge">
<title>Node15&#45;&gt;Node16</title>
<path fill="none" stroke="midnightblue" d="M1043.88,-150.64C1058.43,-140.49 1074.93,-128.98 1088.52,-119.51"/>
<polygon fill="midnightblue" stroke="midnightblue" points="1041.77,-147.84 1035.57,-156.43 1045.77,-153.58 1041.77,-147.84"/>
</g>
<!-- Node17 -->
<g id="node17" class="node">
<title>Node17</title>
<g id="a_node17"><a xlink:href="Presenter_8hpp.xhtml" target="_top" xlink:title=" ">
<polygon fill="white" stroke="black" points="745.5,-78.5 745.5,-119.5 879.5,-119.5 879.5,-78.5 745.5,-78.5"/>
<text text-anchor="start" x="753.5" y="-107.5" font-family="Helvetica,sans-Serif" font-size="10.00">lib/application_business</text>
<text text-anchor="start" x="753.5" y="-96.5" font-family="Helvetica,sans-Serif" font-size="10.00">_rules/user_interaction</text>
<text text-anchor="middle" x="812.5" y="-85.5" font-family="Helvetica,sans-Serif" font-size="10.00">/Presenter.hpp</text>
</a>
</g>
</g>
<!-- Node15&#45;&gt;Node17 -->
<g id="edge17" class="edge">
<title>Node15&#45;&gt;Node17</title>
<path fill="none" stroke="midnightblue" d="M947.84,-152.75C920.54,-142.11 888.56,-129.65 862.55,-119.51"/>
<polygon fill="midnightblue" stroke="midnightblue" points="946.69,-156.06 957.28,-156.43 949.24,-149.54 946.69,-156.06"/>
</g>
<!-- Node17&#45;&gt;Node3 -->
<g id="edge18" class="edge">
<title>Node17&#45;&gt;Node3</title>
<path fill="none" stroke="midnightblue" d="M761.45,-74.05C739.1,-63.57 713.22,-51.42 692.08,-41.51"/>
<polygon fill="midnightblue" stroke="midnightblue" points="760.24,-77.35 770.78,-78.43 763.21,-71.01 760.24,-77.35"/>
</g>
<!-- Node17&#45;&gt;Node4 -->
<g id="edge19" class="edge">
<title>Node17&#45;&gt;Node4</title>
<path fill="none" stroke="midnightblue" d="M735.66,-77.93C623.33,-55.18 503.44,-38.87 430.59,-29.85"/>
<polygon fill="midnightblue" stroke="midnightblue" points="734.96,-81.36 745.46,-79.94 736.36,-74.5 734.96,-81.36"/>
</g>
<!-- Node17&#45;&gt;Node13 -->
<g id="edge20" class="edge">
<title>Node17&#45;&gt;Node13</title>
<path fill="none" stroke="midnightblue" d="M843.39,-71.62C860.21,-57.26 879.88,-40.46 891.49,-30.55"/>
<polygon fill="midnightblue" stroke="midnightblue" points="840.75,-69.27 835.42,-78.43 845.3,-74.6 840.75,-69.27"/>
</g>
<!-- Node17&#45;&gt;Node14 -->
<g id="edge21" class="edge">
<title>Node17&#45;&gt;Node14</title>
<path fill="none" stroke="midnightblue" d="M875.93,-74.93C910.74,-62.28 952.77,-46.99 982.71,-36.11"/>
<polygon fill="midnightblue" stroke="midnightblue" points="874.52,-71.72 866.32,-78.43 876.92,-78.3 874.52,-71.72"/>
</g>
<!-- Node18&#45;&gt;Node13 -->
<g id="edge26" class="edge">
<title>Node18&#45;&gt;Node13</title>
<path fill="none" stroke="midnightblue" d="M1233.44,-224.42C1235.56,-184.96 1232.72,-115.69 1192.5,-78 1152.83,-40.82 1002.93,-56.38 950.5,-42 940.04,-39.13 928.82,-34.66 919.75,-30.67"/>
<polygon fill="midnightblue" stroke="midnightblue" points="1229.94,-224.27 1232.75,-234.48 1236.92,-224.74 1229.94,-224.27"/>
</g>
<!-- Node18&#45;&gt;Node14 -->
<g id="edge27" class="edge">
<title>Node18&#45;&gt;Node14</title>
<path fill="none" stroke="midnightblue" d="M1239.38,-224.36C1248.84,-186.21 1258.37,-119.86 1225.5,-78 1207.98,-55.69 1137.3,-39.91 1084.01,-30.91"/>
<polygon fill="midnightblue" stroke="midnightblue" points="1235.92,-223.76 1236.75,-234.33 1242.68,-225.55 1235.92,-223.76"/>
</g>
<!-- Node19 -->
<g id="node19" class="node">
<title>Node19</title>
<g id="a_node19"><a xlink:href="keypad__factory__interface_8cpp.xhtml" target="_top" xlink:title=" ">
<polygon fill="white" stroke="black" points="1277.5,-156.5 1277.5,-197.5 1441.5,-197.5 1441.5,-156.5 1277.5,-156.5"/>
<text text-anchor="start" x="1285.5" y="-185.5" font-family="Helvetica,sans-Serif" font-size="10.00">lib/board_adapters</text>
<text text-anchor="start" x="1285.5" y="-174.5" font-family="Helvetica,sans-Serif" font-size="10.00">/input_device_interface</text>
<text text-anchor="middle" x="1359.5" y="-163.5" font-family="Helvetica,sans-Serif" font-size="10.00">/keypad_factory_interface.cpp</text>
</a>
</g>
</g>
<!-- Node18&#45;&gt;Node19 -->
<g id="edge25" class="edge">
<title>Node18&#45;&gt;Node19</title>
<path fill="none" stroke="midnightblue" d="M1272.59,-229.2C1290.05,-218.92 1310.01,-207.16 1326.39,-197.51"/>
<polygon fill="midnightblue" stroke="midnightblue" points="1270.56,-226.34 1263.72,-234.43 1274.11,-232.37 1270.56,-226.34"/>
</g>
<!-- Node20&#45;&gt;Node19 -->
<g id="edge32" class="edge">
<title>Node20&#45;&gt;Node19</title>
<path fill="none" stroke="midnightblue" d="M1419.1,-227.78C1407.21,-217.84 1393.88,-206.72 1382.86,-197.51"/>
<polygon fill="midnightblue" stroke="midnightblue" points="1417.15,-230.7 1427.07,-234.43 1421.63,-225.33 1417.15,-230.7"/>
</g>
<!-- Node21 -->
<g id="node21" class="node">
<title>Node21</title>
<g id="a_node21"><a xlink:href="Keypad_8cpp.xhtml" target="_top" xlink:title=" ">
<polygon fill="white" stroke="black" points="1605,-156.5 1605,-197.5 1736,-197.5 1736,-156.5 1605,-156.5"/>
<text text-anchor="start" x="1613" y="-185.5" font-family="Helvetica,sans-Serif" font-size="10.00">lib/board_adapters</text>
<text text-anchor="start" x="1613" y="-174.5" font-family="Helvetica,sans-Serif" font-size="10.00">/input_device_interface</text>
<text text-anchor="middle" x="1670.5" y="-163.5" font-family="Helvetica,sans-Serif" font-size="10.00">/Keypad.cpp</text>
</a>
</g>
</g>
<!-- Node20&#45;&gt;Node21 -->
<g id="edge31" class="edge">
<title>Node20&#45;&gt;Node21</title>
<path fill="none" stroke="midnightblue" d="M1517,-231.03C1547.97,-220.33 1584.43,-207.73 1614.04,-197.51"/>
<polygon fill="midnightblue" stroke="midnightblue" points="1515.46,-227.85 1507.16,-234.43 1517.75,-234.47 1515.46,-227.85"/>
</g>
<!-- Node22 -->
<g id="node22" class="node">
<title>Node22</title>
<g id="a_node22"><a xlink:href="test__keyState_8cpp.xhtml" target="_top" xlink:title=" ">
<polygon fill="white" stroke="black" points="1460,-162 1460,-192 1587,-192 1587,-162 1460,-162"/>
<text text-anchor="start" x="1468" y="-180" font-family="Helvetica,sans-Serif" font-size="10.00">test/hmi/test_keyState</text>
<text text-anchor="middle" x="1523.5" y="-169" font-family="Helvetica,sans-Serif" font-size="10.00">/test_keyState.cpp</text>
</a>
</g>
</g>
<!-- Node20&#45;&gt;Node22 -->
<g id="edge33" class="edge">
<title>Node20&#45;&gt;Node22</title>
<path fill="none" stroke="midnightblue" d="M1476.44,-226.99C1487.72,-215.25 1500.46,-201.99 1509.84,-192.23"/>
<polygon fill="midnightblue" stroke="midnightblue" points="1473.7,-224.79 1469.3,-234.43 1478.75,-229.64 1473.7,-224.79"/>
</g>
<!-- Node24&#45;&gt;Node4 -->
<g id="edge37" class="edge">
<title>Node24&#45;&gt;Node4</title>
<path fill="none" stroke="midnightblue" d="M368.98,-68.3C367.92,-59.3 366.77,-49.65 365.81,-41.51"/>
<polygon fill="midnightblue" stroke="midnightblue" points="365.53,-68.91 370.18,-78.43 372.48,-68.09 365.53,-68.91"/>
</g>
<!-- Node24&#45;&gt;Node13 -->
<g id="edge38" class="edge">
<title>Node24&#45;&gt;Node13</title>
<path fill="none" stroke="midnightblue" d="M449.51,-78.08C517.72,-66.86 764.42,-37.92 861.75,-26.6"/>
<polygon fill="midnightblue" stroke="midnightblue" points="448.76,-74.65 439.52,-79.84 449.98,-81.55 448.76,-74.65"/>
</g>
<!-- Node24&#45;&gt;Node14 -->
<g id="edge39" class="edge">
<title>Node24&#45;&gt;Node14</title>
<path fill="none" stroke="midnightblue" d="M449.87,-77.94C670.99,-42.51 733.39,-79.96 950.5,-42 959.08,-40.5 968.11,-38.39 976.75,-36.09"/>
<polygon fill="midnightblue" stroke="midnightblue" points="449.21,-74.5 439.9,-79.57 450.34,-81.41 449.21,-74.5"/>
</g>
</g>
</svg>
