<?xml version="1.0" encoding="UTF-8" standalone="no"?>
<!DOCTYPE svg PUBLIC "-//W3C//DTD SVG 1.1//EN"
 "http://www.w3.org/Graphics/SVG/1.1/DTD/svg11.dtd">
<!-- Generated by graphviz version 2.43.0 (0)
 -->
<!-- Title: lib/application_business_rules/user_interaction/KeyIds.hpp Pages: 1 -->
<svg width="1732pt" height="440pt"
 viewBox="0.00 0.00 1731.94 440.00" xmlns="http://www.w3.org/2000/svg" xmlns:xlink="http://www.w3.org/1999/xlink">
<g id="graph0" class="graph" transform="scale(1 1) rotate(0) translate(4 436)">
<title>lib/application_business_rules/user_interaction/KeyIds.hpp</title>
<polygon fill="white" stroke="transparent" points="-4,4 -4,-436 1727.94,-436 1727.94,4 -4,4"/>
<!-- Node1 -->
<g id="node1" class="node">
<title>Node1</title>
<g id="a_node1"><a xlink:title=" ">
<polygon fill="#bfbfbf" stroke="black" points="472.5,-390.5 472.5,-431.5 606.5,-431.5 606.5,-390.5 472.5,-390.5"/>
<text text-anchor="start" x="480.5" y="-419.5" font-family="Helvetica,sans-Serif" font-size="10.00">lib/application_business</text>
<text text-anchor="start" x="480.5" y="-408.5" font-family="Helvetica,sans-Serif" font-size="10.00">_rules/user_interaction</text>
<text text-anchor="middle" x="539.5" y="-397.5" font-family="Helvetica,sans-Serif" font-size="10.00">/KeyIds.hpp</text>
</a>
</g>
</g>
<!-- Node2 -->
<g id="node2" class="node">
<title>Node2</title>
<g id="a_node2"><a xlink:href="board__interface_8hpp.xhtml" target="_top" xlink:title=" ">
<polygon fill="white" stroke="black" points="115.5,-78.5 115.5,-119.5 249.5,-119.5 249.5,-78.5 115.5,-78.5"/>
<text text-anchor="start" x="123.5" y="-107.5" font-family="Helvetica,sans-Serif" font-size="10.00">lib/application_business</text>
<text text-anchor="start" x="123.5" y="-96.5" font-family="Helvetica,sans-Serif" font-size="10.00">_rules/user_interaction</text>
<text text-anchor="middle" x="182.5" y="-85.5" font-family="Helvetica,sans-Serif" font-size="10.00">/board_interface.hpp</text>
</a>
</g>
</g>
<!-- Node1&#45;&gt;Node2 -->
<g id="edge1" class="edge">
<title>Node1&#45;&gt;Node2</title>
<path fill="none" stroke="midnightblue" d="M501.11,-384.63C445.72,-347.16 341.5,-273.27 263.5,-198 237.61,-173.02 211.85,-140.12 196.55,-119.51"/>
<polygon fill="midnightblue" stroke="midnightblue" points="499.32,-387.65 509.57,-390.33 503.23,-381.84 499.32,-387.65"/>
</g>
<!-- Node7 -->
<g id="node7" class="node">
<title>Node7</title>
<g id="a_node7"><a xlink:href="IKeypad_8hpp.xhtml" target="_top" xlink:title=" ">
<polygon fill="white" stroke="black" points="791.5,-312.5 791.5,-353.5 925.5,-353.5 925.5,-312.5 791.5,-312.5"/>
<text text-anchor="start" x="799.5" y="-341.5" font-family="Helvetica,sans-Serif" font-size="10.00">lib/application_business</text>
<text text-anchor="start" x="799.5" y="-330.5" font-family="Helvetica,sans-Serif" font-size="10.00">_rules/user_interaction</text>
<text text-anchor="middle" x="858.5" y="-319.5" font-family="Helvetica,sans-Serif" font-size="10.00">/IKeypad.hpp</text>
</a>
</g>
</g>
<!-- Node1&#45;&gt;Node7 -->
<g id="edge6" class="edge">
<title>Node1&#45;&gt;Node7</title>
<path fill="none" stroke="midnightblue" d="M616.52,-391.65C669.89,-378.94 740.24,-362.17 791.33,-350"/>
<polygon fill="midnightblue" stroke="midnightblue" points="615.68,-388.25 606.76,-393.98 617.3,-395.06 615.68,-388.25"/>
</g>
<!-- Node23 -->
<g id="node23" class="node">
<title>Node23</title>
<g id="a_node23"><a xlink:href="KeyIds_8cpp.xhtml" target="_top" xlink:title=" ">
<polygon fill="white" stroke="black" points="943.5,-312.5 943.5,-353.5 1077.5,-353.5 1077.5,-312.5 943.5,-312.5"/>
<text text-anchor="start" x="951.5" y="-341.5" font-family="Helvetica,sans-Serif" font-size="10.00">lib/application_business</text>
<text text-anchor="start" x="951.5" y="-330.5" font-family="Helvetica,sans-Serif" font-size="10.00">_rules/user_interaction</text>
<text text-anchor="middle" x="1010.5" y="-319.5" font-family="Helvetica,sans-Serif" font-size="10.00">/KeyIds.cpp</text>
</a>
</g>
</g>
<!-- Node1&#45;&gt;Node23 -->
<g id="edge34" class="edge">
<title>Node1&#45;&gt;Node23</title>
<path fill="none" stroke="midnightblue" d="M616.64,-401.76C696.58,-392.59 824.95,-376.1 934.5,-354 937.44,-353.41 940.44,-352.77 943.46,-352.09"/>
<polygon fill="midnightblue" stroke="midnightblue" points="616.19,-398.29 606.65,-402.9 616.98,-405.24 616.19,-398.29"/>
</g>
<!-- Node24 -->
<g id="node24" class="node">
<title>Node24</title>
<g id="a_node24"><a xlink:href="ProcessHmiInputs_8hpp.xhtml" target="_top" xlink:title=" ">
<polygon fill="white" stroke="black" points="305.5,-78.5 305.5,-119.5 439.5,-119.5 439.5,-78.5 305.5,-78.5"/>
<text text-anchor="start" x="313.5" y="-107.5" font-family="Helvetica,sans-Serif" font-size="10.00">lib/application_business</text>
<text text-anchor="start" x="313.5" y="-96.5" font-family="Helvetica,sans-Serif" font-size="10.00">_rules/user_interaction</text>
<text text-anchor="middle" x="372.5" y="-85.5" font-family="Helvetica,sans-Serif" font-size="10.00">/ProcessHmiInputs.hpp</text>
</a>
</g>
</g>
<!-- Node1&#45;&gt;Node24 -->
<g id="edge35" class="edge">
<title>Node1&#45;&gt;Node24</title>
<path fill="none" stroke="midnightblue" d="M524,-381.22C490.42,-318.9 411.7,-172.76 383.11,-119.7"/>
<polygon fill="midnightblue" stroke="midnightblue" points="520.98,-382.99 528.8,-390.14 527.14,-379.67 520.98,-382.99"/>
</g>
<!-- Node3 -->
<g id="node3" class="node">
<title>Node3</title>
<g id="a_node3"><a xlink:href="Presenter_8cpp.xhtml" target="_top" xlink:title=" ">
<polygon fill="white" stroke="black" points="562.5,-0.5 562.5,-41.5 696.5,-41.5 696.5,-0.5 562.5,-0.5"/>
<text text-anchor="start" x="570.5" y="-29.5" font-family="Helvetica,sans-Serif" font-size="10.00">lib/application_business</text>
<text text-anchor="start" x="570.5" y="-18.5" font-family="Helvetica,sans-Serif" font-size="10.00">_rules/user_interaction</text>
<text text-anchor="middle" x="629.5" y="-7.5" font-family="Helvetica,sans-Serif" font-size="10.00">/Presenter.cpp</text>
</a>
</g>
</g>
<!-- Node2&#45;&gt;Node3 -->
<g id="edge2" class="edge">
<title>Node2&#45;&gt;Node3</title>
<path fill="none" stroke="midnightblue" d="M259.9,-84.35C272.14,-82.21 284.66,-80.03 296.5,-78 388.51,-62.19 494.91,-44.38 562.19,-33.18"/>
<polygon fill="midnightblue" stroke="midnightblue" points="258.95,-80.96 249.7,-86.13 260.15,-87.85 258.95,-80.96"/>
</g>
<!-- Node4 -->
<g id="node4" class="node">
<title>Node4</title>
<g id="a_node4"><a xlink:href="ProcessHmiInputs_8cpp.xhtml" target="_top" xlink:title=" ">
<polygon fill="white" stroke="black" points="296.5,-0.5 296.5,-41.5 430.5,-41.5 430.5,-0.5 296.5,-0.5"/>
<text text-anchor="start" x="304.5" y="-29.5" font-family="Helvetica,sans-Serif" font-size="10.00">lib/application_business</text>
<text text-anchor="start" x="304.5" y="-18.5" font-family="Helvetica,sans-Serif" font-size="10.00">_rules/user_interaction</text>
<text text-anchor="middle" x="363.5" y="-7.5" font-family="Helvetica,sans-Serif" font-size="10.00">/ProcessHmiInputs.cpp</text>
</a>
</g>
</g>
<!-- Node2&#45;&gt;Node4 -->
<g id="edge3" class="edge">
<title>Node2&#45;&gt;Node4</title>
<path fill="none" stroke="midnightblue" d="M238.54,-74.47C263.73,-63.89 293.11,-51.56 317.05,-41.51"/>
<polygon fill="midnightblue" stroke="midnightblue" points="236.98,-71.33 229.11,-78.43 239.69,-77.78 236.98,-71.33"/>
</g>
<!-- Node5 -->
<g id="node5" class="node">
<title>Node5</title>
<g id="a_node5"><a xlink:href="board_8cpp.xhtml" target="_top" xlink:title=" ">
<polygon fill="white" stroke="black" points="0,-6 0,-36 107,-36 107,-6 0,-6"/>
<text text-anchor="start" x="8" y="-24" font-family="Helvetica,sans-Serif" font-size="10.00">lib/board_adapters</text>
<text text-anchor="middle" x="53.5" y="-13" font-family="Helvetica,sans-Serif" font-size="10.00">/board.cpp</text>
</a>
</g>
</g>
<!-- Node2&#45;&gt;Node5 -->
<g id="edge4" class="edge">
<title>Node2&#45;&gt;Node5</title>
<path fill="none" stroke="midnightblue" d="M140.6,-73.31C119.76,-61.04 95.32,-46.64 77.65,-36.23"/>
<polygon fill="midnightblue" stroke="midnightblue" points="138.89,-76.37 149.28,-78.43 142.44,-70.34 138.89,-76.37"/>
</g>
<!-- Node6 -->
<g id="node6" class="node">
<title>Node6</title>
<g id="a_node6"><a xlink:href="sound__output_8cpp.xhtml" target="_top" xlink:title=" ">
<polygon fill="white" stroke="black" points="125.5,-0.5 125.5,-41.5 259.5,-41.5 259.5,-0.5 125.5,-0.5"/>
<text text-anchor="start" x="133.5" y="-29.5" font-family="Helvetica,sans-Serif" font-size="10.00">lib/board_adapters</text>
<text text-anchor="start" x="133.5" y="-18.5" font-family="Helvetica,sans-Serif" font-size="10.00">/sound_output_interface</text>
<text text-anchor="middle" x="192.5" y="-7.5" font-family="Helvetica,sans-Serif" font-size="10.00">/sound_output.cpp</text>
</a>
</g>
</g>
<!-- Node2&#45;&gt;Node6 -->
<g id="edge5" class="edge">
<title>Node2&#45;&gt;Node6</title>
<path fill="none" stroke="midnightblue" d="M186.41,-68.3C187.59,-59.3 188.86,-49.65 189.93,-41.51"/>
<polygon fill="midnightblue" stroke="midnightblue" points="182.91,-68.06 185.08,-78.43 189.85,-68.97 182.91,-68.06"/>
</g>
<!-- Node7&#45;&gt;Node4 -->
<g id="edge28" class="edge">
<title>Node7&#45;&gt;Node4</title>
<path fill="none" stroke="midnightblue" d="M781.09,-328.97C654.71,-319.35 407.09,-279.92 296.5,-120 285.88,-104.65 288.59,-94.91 296.5,-78 303.43,-63.17 316.44,-50.88 329.16,-41.64"/>
<polygon fill="midnightblue" stroke="midnightblue" points="780.86,-332.46 791.08,-329.69 781.36,-325.48 780.86,-332.46"/>
</g>
<!-- Node8 -->
<g id="node8" class="node">
<title>Node8</title>
<g id="a_node8"><a xlink:href="IGuiEngine_8hpp.xhtml" target="_top" xlink:title=" ">
<polygon fill="white" stroke="black" points="722.5,-234.5 722.5,-275.5 856.5,-275.5 856.5,-234.5 722.5,-234.5"/>
<text text-anchor="start" x="730.5" y="-263.5" font-family="Helvetica,sans-Serif" font-size="10.00">lib/application_business</text>
<text text-anchor="start" x="730.5" y="-252.5" font-family="Helvetica,sans-Serif" font-size="10.00">_rules/user_interaction</text>
<text text-anchor="middle" x="789.5" y="-241.5" font-family="Helvetica,sans-Serif" font-size="10.00">/IGuiEngine.hpp</text>
</a>
</g>
</g>
<!-- Node7&#45;&gt;Node8 -->
<g id="edge7" class="edge">
<title>Node7&#45;&gt;Node8</title>
<path fill="none" stroke="midnightblue" d="M833.91,-304.92C825.09,-295.2 815.33,-284.45 807.21,-275.51"/>
<polygon fill="midnightblue" stroke="midnightblue" points="831.42,-307.38 840.73,-312.43 836.6,-302.67 831.42,-307.38"/>
</g>
<!-- Node14 -->
<g id="node14" class="node">
<title>Node14</title>
<g id="a_node14"><a xlink:href="Menu_8hpp.xhtml" target="_top" xlink:title=" ">
<polygon fill="white" stroke="black" points="878.5,-156.5 878.5,-197.5 1012.5,-197.5 1012.5,-156.5 878.5,-156.5"/>
<text text-anchor="start" x="886.5" y="-185.5" font-family="Helvetica,sans-Serif" font-size="10.00">lib/application_business</text>
<text text-anchor="start" x="886.5" y="-174.5" font-family="Helvetica,sans-Serif" font-size="10.00">_rules/user_interaction</text>
<text text-anchor="middle" x="945.5" y="-163.5" font-family="Helvetica,sans-Serif" font-size="10.00">/Menu.hpp</text>
</a>
</g>
</g>
<!-- Node7&#45;&gt;Node14 -->
<g id="edge27" class="edge">
<title>Node7&#45;&gt;Node14</title>
<path fill="none" stroke="midnightblue" d="M874.56,-303.56C891.92,-272.85 919.11,-224.71 934.3,-197.83"/>
<polygon fill="midnightblue" stroke="midnightblue" points="871.39,-302.07 869.52,-312.5 877.48,-305.51 871.39,-302.07"/>
</g>
<!-- Node17 -->
<g id="node17" class="node">
<title>Node17</title>
<g id="a_node17"><a xlink:href="test__hmi_8cpp.xhtml" target="_top" xlink:title=" ">
<polygon fill="white" stroke="black" points="1081,-6 1081,-36 1206,-36 1206,-6 1081,-6"/>
<text text-anchor="start" x="1089" y="-24" font-family="Helvetica,sans-Serif" font-size="10.00">test/hmi/test_hmi/test</text>
<text text-anchor="middle" x="1143.5" y="-13" font-family="Helvetica,sans-Serif" font-size="10.00">_hmi.cpp</text>
</a>
</g>
</g>
<!-- Node7&#45;&gt;Node17 -->
<g id="edge33" class="edge">
<title>Node7&#45;&gt;Node17</title>
<path fill="none" stroke="midnightblue" d="M936.06,-312.02C1125.81,-285.95 1616.23,-338.74 1715.5,-198 1726.26,-182.75 1727.1,-170.63 1715.5,-156 1652.37,-76.38 1341,-39.52 1206.06,-27.1"/>
<polygon fill="midnightblue" stroke="midnightblue" points="935.27,-308.6 925.9,-313.54 936.31,-315.52 935.27,-308.6"/>
</g>
<!-- Node18 -->
<g id="node18" class="node">
<title>Node18</title>
<g id="a_node18"><a xlink:href="keypad__factory__interface_8hpp.xhtml" target="_top" xlink:title="Dependency injection for the keypad.">
<polygon fill="white" stroke="black" points="1118.5,-234.5 1118.5,-275.5 1282.5,-275.5 1282.5,-234.5 1118.5,-234.5"/>
<text text-anchor="start" x="1126.5" y="-263.5" font-family="Helvetica,sans-Serif" font-size="10.00">lib/application_business</text>
<text text-anchor="start" x="1126.5" y="-252.5" font-family="Helvetica,sans-Serif" font-size="10.00">_rules/user_interaction</text>
<text text-anchor="middle" x="1200.5" y="-241.5" font-family="Helvetica,sans-Serif" font-size="10.00">/keypad_factory_interface.hpp</text>
</a>
</g>
</g>
<!-- Node7&#45;&gt;Node18 -->
<g id="edge23" class="edge">
<title>Node7&#45;&gt;Node18</title>
<path fill="none" stroke="midnightblue" d="M935.48,-311.82C1002.43,-296.1 1068.24,-282.33 1118.48,-272.17"/>
<polygon fill="midnightblue" stroke="midnightblue" points="934.52,-308.45 925.59,-314.15 936.13,-315.26 934.52,-308.45"/>
</g>
<!-- Node20 -->
<g id="node20" class="node">
<title>Node20</title>
<g id="a_node20"><a xlink:href="Keypad_8hpp.xhtml" target="_top" xlink:title=" ">
<polygon fill="white" stroke="black" points="1356,-234.5 1356,-275.5 1487,-275.5 1487,-234.5 1356,-234.5"/>
<text text-anchor="start" x="1364" y="-263.5" font-family="Helvetica,sans-Serif" font-size="10.00">lib/board_adapters</text>
<text text-anchor="start" x="1364" y="-252.5" font-family="Helvetica,sans-Serif" font-size="10.00">/input_device_interface</text>
<text text-anchor="middle" x="1421.5" y="-241.5" font-family="Helvetica,sans-Serif" font-size="10.00">/Keypad.hpp</text>
</a>
</g>
</g>
<!-- Node7&#45;&gt;Node20 -->
<g id="edge29" class="edge">
<title>Node7&#45;&gt;Node20</title>
<path fill="none" stroke="midnightblue" d="M935.56,-311.96C1093.19,-284.12 1136.55,-295.72 1291.5,-276 1312.45,-273.33 1335.24,-269.98 1355.79,-266.79"/>
<polygon fill="midnightblue" stroke="midnightblue" points="934.74,-308.55 925.51,-313.76 935.97,-315.44 934.74,-308.55"/>
</g>
<!-- Node9 -->
<g id="node9" class="node">
<title>Node9</title>
<g id="a_node9"><a xlink:href="GuiEngine_8hpp.xhtml" target="_top" xlink:title=" ">
<polygon fill="white" stroke="black" points="534.5,-162 534.5,-192 660.5,-192 660.5,-162 534.5,-162"/>
<text text-anchor="start" x="542.5" y="-180" font-family="Helvetica,sans-Serif" font-size="10.00">lib/3rd_party_adapters</text>
<text text-anchor="middle" x="597.5" y="-169" font-family="Helvetica,sans-Serif" font-size="10.00">/LVGL/GuiEngine.hpp</text>
</a>
</g>
</g>
<!-- Node8&#45;&gt;Node9 -->
<g id="edge8" class="edge">
<title>Node8&#45;&gt;Node9</title>
<path fill="none" stroke="midnightblue" d="M730.41,-230.61C698.59,-218.02 660.4,-202.9 633.14,-192.11"/>
<polygon fill="midnightblue" stroke="midnightblue" points="729.47,-234 740.06,-234.43 732.05,-227.49 729.47,-234"/>
</g>
<!-- Node12 -->
<g id="node12" class="node">
<title>Node12</title>
<g id="a_node12"><a xlink:href="guiEngine__factory__interface_8hpp.xhtml" target="_top" xlink:title="Dependency injection for the guiEngine.">
<polygon fill="white" stroke="black" points="679,-156.5 679,-197.5 856,-197.5 856,-156.5 679,-156.5"/>
<text text-anchor="start" x="687" y="-185.5" font-family="Helvetica,sans-Serif" font-size="10.00">lib/application_business</text>
<text text-anchor="start" x="687" y="-174.5" font-family="Helvetica,sans-Serif" font-size="10.00">_rules/user_interaction</text>
<text text-anchor="middle" x="767.5" y="-163.5" font-family="Helvetica,sans-Serif" font-size="10.00">/guiEngine_factory_interface.hpp</text>
</a>
</g>
</g>
<!-- Node8&#45;&gt;Node12 -->
<g id="edge11" class="edge">
<title>Node8&#45;&gt;Node12</title>
<path fill="none" stroke="midnightblue" d="M780.99,-224.59C778.36,-215.51 775.53,-205.74 773.15,-197.51"/>
<polygon fill="midnightblue" stroke="midnightblue" points="777.69,-225.8 783.83,-234.43 784.42,-223.85 777.69,-225.8"/>
</g>
<!-- Node8&#45;&gt;Node14 -->
<g id="edge14" class="edge">
<title>Node8&#45;&gt;Node14</title>
<path fill="none" stroke="midnightblue" d="M838.95,-229.91C860.4,-219.46 885.19,-207.38 905.46,-197.51"/>
<polygon fill="midnightblue" stroke="midnightblue" points="837.13,-226.9 829.67,-234.43 840.2,-233.19 837.13,-226.9"/>
</g>
<!-- Node10 -->
<g id="node10" class="node">
<title>Node10</title>
<g id="a_node10"><a xlink:href="GuiEngine_8cpp.xhtml" target="_top" xlink:title=" ">
<polygon fill="white" stroke="black" points="457.5,-84 457.5,-114 583.5,-114 583.5,-84 457.5,-84"/>
<text text-anchor="start" x="465.5" y="-102" font-family="Helvetica,sans-Serif" font-size="10.00">lib/3rd_party_adapters</text>
<text text-anchor="middle" x="520.5" y="-91" font-family="Helvetica,sans-Serif" font-size="10.00">/LVGL/GuiEngine.cpp</text>
</a>
</g>
</g>
<!-- Node9&#45;&gt;Node10 -->
<g id="edge9" class="edge">
<title>Node9&#45;&gt;Node10</title>
<path fill="none" stroke="midnightblue" d="M575.75,-154.53C562.68,-141.63 546.41,-125.57 534.92,-114.23"/>
<polygon fill="midnightblue" stroke="midnightblue" points="573.44,-157.17 583.02,-161.7 578.36,-152.19 573.44,-157.17"/>
</g>
<!-- Node11 -->
<g id="node11" class="node">
<title>Node11</title>
<g id="a_node11"><a xlink:href="guiEngine__factory__interface_8cpp.xhtml" target="_top" xlink:title=" ">
<polygon fill="white" stroke="black" points="601.5,-78.5 601.5,-119.5 735.5,-119.5 735.5,-78.5 601.5,-78.5"/>
<text text-anchor="start" x="609.5" y="-107.5" font-family="Helvetica,sans-Serif" font-size="10.00">lib/3rd_party_adapters</text>
<text text-anchor="start" x="609.5" y="-96.5" font-family="Helvetica,sans-Serif" font-size="10.00">/LVGL/guiEngine_factory</text>
<text text-anchor="middle" x="668.5" y="-85.5" font-family="Helvetica,sans-Serif" font-size="10.00">_interface.cpp</text>
</a>
</g>
</g>
<!-- Node9&#45;&gt;Node11 -->
<g id="edge10" class="edge">
<title>Node9&#45;&gt;Node11</title>
<path fill="none" stroke="midnightblue" d="M617.84,-154.23C628.01,-143.34 640.23,-130.26 650.11,-119.68"/>
<polygon fill="midnightblue" stroke="midnightblue" points="615.12,-152.01 610.85,-161.7 620.24,-156.79 615.12,-152.01"/>
</g>
<!-- Node12&#45;&gt;Node11 -->
<g id="edge12" class="edge">
<title>Node12&#45;&gt;Node11</title>
<path fill="none" stroke="midnightblue" d="M733.72,-150.06C720.68,-140.06 706.02,-128.8 693.91,-119.51"/>
<polygon fill="midnightblue" stroke="midnightblue" points="731.94,-153.11 742.01,-156.43 736.2,-147.56 731.94,-153.11"/>
</g>
<!-- Node13 -->
<g id="node13" class="node">
<title>Node13</title>
<g id="a_node13"><a xlink:href="main_8cpp.xhtml" target="_top" xlink:title=" ">
<polygon fill="white" stroke="black" points="819,-11.5 819,-30.5 898,-30.5 898,-11.5 819,-11.5"/>
<text text-anchor="middle" x="858.5" y="-18.5" font-family="Helvetica,sans-Serif" font-size="10.00">src/main.cpp</text>
</a>
</g>
</g>
<!-- Node12&#45;&gt;Node13 -->
<g id="edge13" class="edge">
<title>Node12&#45;&gt;Node13</title>
<path fill="none" stroke="midnightblue" d="M766.27,-146.42C766.73,-125.86 770.06,-98.57 782.5,-78 795.9,-55.84 821.71,-39.7 839.51,-30.59"/>
<polygon fill="midnightblue" stroke="midnightblue" points="762.77,-146.48 766.26,-156.49 769.77,-146.49 762.77,-146.48"/>
</g>
<!-- Node14&#45;&gt;Node13 -->
<g id="edge21" class="edge">
<title>Node14&#45;&gt;Node13</title>
<path fill="none" stroke="midnightblue" d="M948.17,-146.13C948.62,-125.65 946.39,-98.58 934.5,-78 921.63,-55.72 895.96,-39.7 878.03,-30.65"/>
<polygon fill="midnightblue" stroke="midnightblue" points="944.67,-146.02 947.73,-156.16 951.66,-146.33 944.67,-146.02"/>
</g>
<!-- Node15 -->
<g id="node15" class="node">
<title>Node15</title>
<g id="a_node15"><a xlink:href="Menu_8cpp.xhtml" target="_top" xlink:title=" ">
<polygon fill="white" stroke="black" points="981.5,-78.5 981.5,-119.5 1115.5,-119.5 1115.5,-78.5 981.5,-78.5"/>
<text text-anchor="start" x="989.5" y="-107.5" font-family="Helvetica,sans-Serif" font-size="10.00">lib/application_business</text>
<text text-anchor="start" x="989.5" y="-96.5" font-family="Helvetica,sans-Serif" font-size="10.00">_rules/user_interaction</text>
<text text-anchor="middle" x="1048.5" y="-85.5" font-family="Helvetica,sans-Serif" font-size="10.00">/Menu.cpp</text>
</a>
</g>
</g>
<!-- Node14&#45;&gt;Node15 -->
<g id="edge15" class="edge">
<title>Node14&#45;&gt;Node15</title>
<path fill="none" stroke="midnightblue" d="M980.26,-150.35C993.92,-140.27 1009.34,-128.89 1022.06,-119.51"/>
<polygon fill="midnightblue" stroke="midnightblue" points="977.99,-147.67 972.03,-156.43 982.15,-153.31 977.99,-147.67"/>
</g>
<!-- Node16 -->
<g id="node16" class="node">
<title>Node16</title>
<g id="a_node16"><a xlink:href="Presenter_8hpp.xhtml" target="_top" xlink:title=" ">
<polygon fill="white" stroke="black" points="791.5,-78.5 791.5,-119.5 925.5,-119.5 925.5,-78.5 791.5,-78.5"/>
<text text-anchor="start" x="799.5" y="-107.5" font-family="Helvetica,sans-Serif" font-size="10.00">lib/application_business</text>
<text text-anchor="start" x="799.5" y="-96.5" font-family="Helvetica,sans-Serif" font-size="10.00">_rules/user_interaction</text>
<text text-anchor="middle" x="858.5" y="-85.5" font-family="Helvetica,sans-Serif" font-size="10.00">/Presenter.hpp</text>
</a>
</g>
</g>
<!-- Node14&#45;&gt;Node16 -->
<g id="edge16" class="edge">
<title>Node14&#45;&gt;Node16</title>
<path fill="none" stroke="midnightblue" d="M915.48,-149.78C904.11,-139.84 891.37,-128.72 880.83,-119.51"/>
<polygon fill="midnightblue" stroke="midnightblue" points="913.26,-152.49 923.1,-156.43 917.87,-147.21 913.26,-152.49"/>
</g>
<!-- Node14&#45;&gt;Node17 -->
<g id="edge22" class="edge">
<title>Node14&#45;&gt;Node17</title>
<path fill="none" stroke="midnightblue" d="M1022.8,-169.76C1058.61,-162.87 1098.81,-148.73 1124.5,-120 1145.41,-96.62 1146.25,-57.31 1144.95,-36.28"/>
<polygon fill="midnightblue" stroke="midnightblue" points="1022.08,-166.33 1012.84,-171.52 1023.29,-173.23 1022.08,-166.33"/>
</g>
<!-- Node16&#45;&gt;Node3 -->
<g id="edge17" class="edge">
<title>Node16&#45;&gt;Node3</title>
<path fill="none" stroke="midnightblue" d="M789.7,-75.17C757.37,-64.44 719.23,-51.78 688.27,-41.51"/>
<polygon fill="midnightblue" stroke="midnightblue" points="788.93,-78.6 799.53,-78.43 791.14,-71.96 788.93,-78.6"/>
</g>
<!-- Node16&#45;&gt;Node4 -->
<g id="edge18" class="edge">
<title>Node16&#45;&gt;Node4</title>
<path fill="none" stroke="midnightblue" d="M781.14,-84.13C768.89,-82.02 756.36,-79.91 744.5,-78 634.77,-60.31 506.88,-41.98 430.69,-31.3"/>
<polygon fill="midnightblue" stroke="midnightblue" points="780.89,-87.64 791.34,-85.9 782.08,-80.74 780.89,-87.64"/>
</g>
<!-- Node16&#45;&gt;Node13 -->
<g id="edge19" class="edge">
<title>Node16&#45;&gt;Node13</title>
<path fill="none" stroke="midnightblue" d="M858.5,-68.05C858.5,-54.56 858.5,-39.65 858.5,-30.55"/>
<polygon fill="midnightblue" stroke="midnightblue" points="855,-68.43 858.5,-78.43 862,-68.43 855,-68.43"/>
</g>
<!-- Node16&#45;&gt;Node17 -->
<g id="edge20" class="edge">
<title>Node16&#45;&gt;Node17</title>
<path fill="none" stroke="midnightblue" d="M935.63,-77.43C984.71,-64.34 1047.01,-47.73 1090.55,-36.12"/>
<polygon fill="midnightblue" stroke="midnightblue" points="934.44,-74.13 925.68,-80.09 936.24,-80.89 934.44,-74.13"/>
</g>
<!-- Node18&#45;&gt;Node13 -->
<g id="edge25" class="edge">
<title>Node18&#45;&gt;Node13</title>
<path fill="none" stroke="midnightblue" d="M1196.2,-224.27C1188.84,-184.62 1169.94,-115.15 1124.5,-78 1090.25,-50 963.48,-32.97 898.09,-25.87"/>
<polygon fill="midnightblue" stroke="midnightblue" points="1192.8,-225.11 1197.95,-234.37 1199.69,-223.92 1192.8,-225.11"/>
</g>
<!-- Node18&#45;&gt;Node17 -->
<g id="edge26" class="edge">
<title>Node18&#45;&gt;Node17</title>
<path fill="none" stroke="midnightblue" d="M1205.86,-223.99C1210.93,-187.87 1215.17,-126.07 1195.5,-78 1188.62,-61.18 1174.21,-46.32 1162.3,-36.15"/>
<polygon fill="midnightblue" stroke="midnightblue" points="1202.33,-223.92 1204.28,-234.33 1209.25,-224.98 1202.33,-223.92"/>
</g>
<!-- Node19 -->
<g id="node19" class="node">
<title>Node19</title>
<g id="a_node19"><a xlink:href="keypad__factory__interface_8cpp.xhtml" target="_top" xlink:title=" ">
<polygon fill="white" stroke="black" points="1247.5,-156.5 1247.5,-197.5 1411.5,-197.5 1411.5,-156.5 1247.5,-156.5"/>
<text text-anchor="start" x="1255.5" y="-185.5" font-family="Helvetica,sans-Serif" font-size="10.00">lib/board_adapters</text>
<text text-anchor="start" x="1255.5" y="-174.5" font-family="Helvetica,sans-Serif" font-size="10.00">/input_device_interface</text>
<text text-anchor="middle" x="1329.5" y="-163.5" font-family="Helvetica,sans-Serif" font-size="10.00">/keypad_factory_interface.cpp</text>
</a>
</g>
</g>
<!-- Node18&#45;&gt;Node19 -->
<g id="edge24" class="edge">
<title>Node18&#45;&gt;Node19</title>
<path fill="none" stroke="midnightblue" d="M1242.59,-229.2C1260.05,-218.92 1280.01,-207.16 1296.39,-197.51"/>
<polygon fill="midnightblue" stroke="midnightblue" points="1240.56,-226.34 1233.72,-234.43 1244.11,-232.37 1240.56,-226.34"/>
</g>
<!-- Node20&#45;&gt;Node19 -->
<g id="edge31" class="edge">
<title>Node20&#45;&gt;Node19</title>
<path fill="none" stroke="midnightblue" d="M1389.76,-227.78C1377.73,-217.84 1364.26,-206.72 1353.11,-197.51"/>
<polygon fill="midnightblue" stroke="midnightblue" points="1387.87,-230.76 1397.81,-234.43 1392.33,-225.36 1387.87,-230.76"/>
</g>
<!-- Node21 -->
<g id="node21" class="node">
<title>Node21</title>
<g id="a_node21"><a xlink:href="Keypad_8cpp.xhtml" target="_top" xlink:title=" ">
<polygon fill="white" stroke="black" points="1430,-156.5 1430,-197.5 1561,-197.5 1561,-156.5 1430,-156.5"/>
<text text-anchor="start" x="1438" y="-185.5" font-family="Helvetica,sans-Serif" font-size="10.00">lib/board_adapters</text>
<text text-anchor="start" x="1438" y="-174.5" font-family="Helvetica,sans-Serif" font-size="10.00">/input_device_interface</text>
<text text-anchor="middle" x="1495.5" y="-163.5" font-family="Helvetica,sans-Serif" font-size="10.00">/Keypad.cpp</text>
</a>
</g>
</g>
<!-- Node20&#45;&gt;Node21 -->
<g id="edge30" class="edge">
<title>Node20&#45;&gt;Node21</title>
<path fill="none" stroke="midnightblue" d="M1447.59,-227.2C1457.12,-217.42 1467.71,-206.54 1476.51,-197.51"/>
<polygon fill="midnightblue" stroke="midnightblue" points="1445.03,-224.82 1440.56,-234.43 1450.04,-229.71 1445.03,-224.82"/>
</g>
<!-- Node22 -->
<g id="node22" class="node">
<title>Node22</title>
<g id="a_node22"><a xlink:href="test__keyState_8cpp.xhtml" target="_top" xlink:title=" ">
<polygon fill="white" stroke="black" points="1579,-162 1579,-192 1706,-192 1706,-162 1579,-162"/>
<text text-anchor="start" x="1587" y="-180" font-family="Helvetica,sans-Serif" font-size="10.00">test/hmi/test_keyState</text>
<text text-anchor="middle" x="1642.5" y="-169" font-family="Helvetica,sans-Serif" font-size="10.00">/test_keyState.cpp</text>
</a>
</g>
</g>
<!-- Node20&#45;&gt;Node22 -->
<g id="edge32" class="edge">
<title>Node20&#45;&gt;Node22</title>
<path fill="none" stroke="midnightblue" d="M1488.1,-231.1C1525,-218.41 1569.69,-203.04 1601.48,-192.11"/>
<polygon fill="midnightblue" stroke="midnightblue" points="1486.73,-227.87 1478.41,-234.43 1489.01,-234.49 1486.73,-227.87"/>
</g>
<!-- Node24&#45;&gt;Node4 -->
<g id="edge36" class="edge">
<title>Node24&#45;&gt;Node4</title>
<path fill="none" stroke="midnightblue" d="M368.98,-68.3C367.92,-59.3 366.77,-49.65 365.81,-41.51"/>
<polygon fill="midnightblue" stroke="midnightblue" points="365.53,-68.91 370.18,-78.43 372.48,-68.09 365.53,-68.91"/>
</g>
<!-- Node24&#45;&gt;Node13 -->
<g id="edge37" class="edge">
<title>Node24&#45;&gt;Node13</title>
<path fill="none" stroke="midnightblue" d="M449.47,-78.16C504.18,-69.37 726.8,-39.56 818.68,-27.31"/>
<polygon fill="midnightblue" stroke="midnightblue" points="448.79,-74.73 439.53,-79.89 449.99,-81.62 448.79,-74.73"/>
</g>
<!-- Node24&#45;&gt;Node17 -->
<g id="edge38" class="edge">
<title>Node24&#45;&gt;Node17</title>
<path fill="none" stroke="midnightblue" d="M449.96,-77.9C652.01,-44.29 706.84,-58.37 907.5,-42 966.31,-37.2 1033.34,-31.5 1080.9,-27.41"/>
<polygon fill="midnightblue" stroke="midnightblue" points="449.19,-74.48 439.91,-79.59 450.35,-81.38 449.19,-74.48"/>
</g>
</g>
</svg>
