<?xml version="1.0" encoding="UTF-8" standalone="no"?>
<!DOCTYPE svg PUBLIC "-//W3C//DTD SVG 1.1//EN"
 "http://www.w3.org/Graphics/SVG/1.1/DTD/svg11.dtd">
<!-- Generated by graphviz version 2.43.0 (0)
 -->
<!-- Title: lib/application_business_rules/user_interaction/KeyIds.hpp Pages: 1 -->
<svg width="1800pt" height="440pt"
 viewBox="0.00 0.00 1800.00 440.00" xmlns="http://www.w3.org/2000/svg" xmlns:xlink="http://www.w3.org/1999/xlink">
<g id="graph0" class="graph" transform="scale(1 1) rotate(0) translate(4 436)">
<title>lib/application_business_rules/user_interaction/KeyIds.hpp</title>
<polygon fill="white" stroke="transparent" points="-4,4 -4,-436 1796,-436 1796,4 -4,4"/>
<!-- Node1 -->
<g id="node1" class="node">
<title>Node1</title>
<g id="a_node1"><a xlink:title=" ">
<polygon fill="#bfbfbf" stroke="black" points="486.5,-390.5 486.5,-431.5 620.5,-431.5 620.5,-390.5 486.5,-390.5"/>
<text text-anchor="start" x="494.5" y="-419.5" font-family="Helvetica,sans-Serif" font-size="10.00">lib/application_business</text>
<text text-anchor="start" x="494.5" y="-408.5" font-family="Helvetica,sans-Serif" font-size="10.00">_rules/user_interaction</text>
<text text-anchor="middle" x="553.5" y="-397.5" font-family="Helvetica,sans-Serif" font-size="10.00">/KeyIds.hpp</text>
</a>
</g>
</g>
<!-- Node2 -->
<g id="node2" class="node">
<title>Node2</title>
<g id="a_node2"><a xlink:href="board__interface_8hpp.xhtml" target="_top" xlink:title=" ">
<polygon fill="white" stroke="black" points="220.5,-312.5 220.5,-353.5 354.5,-353.5 354.5,-312.5 220.5,-312.5"/>
<text text-anchor="start" x="228.5" y="-341.5" font-family="Helvetica,sans-Serif" font-size="10.00">lib/application_business</text>
<text text-anchor="start" x="228.5" y="-330.5" font-family="Helvetica,sans-Serif" font-size="10.00">_rules/user_interaction</text>
<text text-anchor="middle" x="287.5" y="-319.5" font-family="Helvetica,sans-Serif" font-size="10.00">/board_interface.hpp</text>
</a>
</g>
</g>
<!-- Node1&#45;&gt;Node2 -->
<g id="edge1" class="edge">
<title>Node1&#45;&gt;Node2</title>
<path fill="none" stroke="midnightblue" d="M476.74,-388.07C438.13,-377.04 391.77,-363.79 354.6,-353.17"/>
<polygon fill="midnightblue" stroke="midnightblue" points="475.8,-391.44 486.38,-390.82 477.72,-384.71 475.8,-391.44"/>
</g>
<!-- Node7 -->
<g id="node7" class="node">
<title>Node7</title>
<g id="a_node7"><a xlink:href="IKeypad_8hpp.xhtml" target="_top" xlink:title=" ">
<polygon fill="white" stroke="black" points="828.5,-312.5 828.5,-353.5 962.5,-353.5 962.5,-312.5 828.5,-312.5"/>
<text text-anchor="start" x="836.5" y="-341.5" font-family="Helvetica,sans-Serif" font-size="10.00">lib/application_business</text>
<text text-anchor="start" x="836.5" y="-330.5" font-family="Helvetica,sans-Serif" font-size="10.00">_rules/user_interaction</text>
<text text-anchor="middle" x="895.5" y="-319.5" font-family="Helvetica,sans-Serif" font-size="10.00">/IKeypad.hpp</text>
</a>
</g>
</g>
<!-- Node1&#45;&gt;Node7 -->
<g id="edge6" class="edge">
<title>Node1&#45;&gt;Node7</title>
<path fill="none" stroke="midnightblue" d="M630.76,-392.83C690.28,-379.61 771.72,-361.51 828.49,-348.89"/>
<polygon fill="midnightblue" stroke="midnightblue" points="629.66,-389.49 620.66,-395.08 631.18,-396.32 629.66,-389.49"/>
</g>
<!-- Node23 -->
<g id="node23" class="node">
<title>Node23</title>
<g id="a_node23"><a xlink:href="KeyIds_8cpp.xhtml" target="_top" xlink:title=" ">
<polygon fill="white" stroke="black" points="562.5,-312.5 562.5,-353.5 696.5,-353.5 696.5,-312.5 562.5,-312.5"/>
<text text-anchor="start" x="570.5" y="-341.5" font-family="Helvetica,sans-Serif" font-size="10.00">lib/application_business</text>
<text text-anchor="start" x="570.5" y="-330.5" font-family="Helvetica,sans-Serif" font-size="10.00">_rules/user_interaction</text>
<text text-anchor="middle" x="629.5" y="-319.5" font-family="Helvetica,sans-Serif" font-size="10.00">/KeyIds.cpp</text>
</a>
</g>
</g>
<!-- Node1&#45;&gt;Node23 -->
<g id="edge34" class="edge">
<title>Node1&#45;&gt;Node23</title>
<path fill="none" stroke="midnightblue" d="M580.3,-383.2C590.08,-373.42 600.96,-362.54 609.99,-353.51"/>
<polygon fill="midnightblue" stroke="midnightblue" points="577.67,-380.88 573.07,-390.43 582.62,-385.83 577.67,-380.88"/>
</g>
<!-- Node24 -->
<g id="node24" class="node">
<title>Node24</title>
<g id="a_node24"><a xlink:href="ProcessHmiInputs_8hpp.xhtml" target="_top" xlink:title=" ">
<polygon fill="white" stroke="black" points="410.5,-312.5 410.5,-353.5 544.5,-353.5 544.5,-312.5 410.5,-312.5"/>
<text text-anchor="start" x="418.5" y="-341.5" font-family="Helvetica,sans-Serif" font-size="10.00">lib/application_business</text>
<text text-anchor="start" x="418.5" y="-330.5" font-family="Helvetica,sans-Serif" font-size="10.00">_rules/user_interaction</text>
<text text-anchor="middle" x="477.5" y="-319.5" font-family="Helvetica,sans-Serif" font-size="10.00">/ProcessHmiInputs.hpp</text>
</a>
</g>
</g>
<!-- Node1&#45;&gt;Node24 -->
<g id="edge35" class="edge">
<title>Node1&#45;&gt;Node24</title>
<path fill="none" stroke="midnightblue" d="M526.7,-383.2C516.92,-373.42 506.04,-362.54 497.01,-353.51"/>
<polygon fill="midnightblue" stroke="midnightblue" points="524.38,-385.83 533.93,-390.43 529.33,-380.88 524.38,-385.83"/>
</g>
<!-- Node3 -->
<g id="node3" class="node">
<title>Node3</title>
<g id="a_node3"><a xlink:href="Presenter_8cpp.xhtml" target="_top" xlink:title=" ">
<polygon fill="white" stroke="black" points="310.5,-0.5 310.5,-41.5 444.5,-41.5 444.5,-0.5 310.5,-0.5"/>
<text text-anchor="start" x="318.5" y="-29.5" font-family="Helvetica,sans-Serif" font-size="10.00">lib/application_business</text>
<text text-anchor="start" x="318.5" y="-18.5" font-family="Helvetica,sans-Serif" font-size="10.00">_rules/user_interaction</text>
<text text-anchor="middle" x="377.5" y="-7.5" font-family="Helvetica,sans-Serif" font-size="10.00">/Presenter.cpp</text>
</a>
</g>
</g>
<!-- Node2&#45;&gt;Node3 -->
<g id="edge2" class="edge">
<title>Node2&#45;&gt;Node3</title>
<path fill="none" stroke="midnightblue" d="M292.23,-302.18C295.59,-282.64 300.55,-256.63 306.5,-234 325.47,-161.93 355.92,-78.71 369.96,-41.61"/>
<polygon fill="midnightblue" stroke="midnightblue" points="288.73,-301.86 290.53,-312.31 295.64,-303.02 288.73,-301.86"/>
</g>
<!-- Node4 -->
<g id="node4" class="node">
<title>Node4</title>
<g id="a_node4"><a xlink:href="ProcessHmiInputs_8cpp.xhtml" target="_top" xlink:title=" ">
<polygon fill="white" stroke="black" points="315.5,-234.5 315.5,-275.5 449.5,-275.5 449.5,-234.5 315.5,-234.5"/>
<text text-anchor="start" x="323.5" y="-263.5" font-family="Helvetica,sans-Serif" font-size="10.00">lib/application_business</text>
<text text-anchor="start" x="323.5" y="-252.5" font-family="Helvetica,sans-Serif" font-size="10.00">_rules/user_interaction</text>
<text text-anchor="middle" x="382.5" y="-241.5" font-family="Helvetica,sans-Serif" font-size="10.00">/ProcessHmiInputs.cpp</text>
</a>
</g>
</g>
<!-- Node2&#45;&gt;Node4 -->
<g id="edge3" class="edge">
<title>Node2&#45;&gt;Node4</title>
<path fill="none" stroke="midnightblue" d="M319.92,-306.06C332.43,-296.06 346.49,-284.8 358.12,-275.51"/>
<polygon fill="midnightblue" stroke="midnightblue" points="317.59,-303.45 311.96,-312.43 321.96,-308.91 317.59,-303.45"/>
</g>
<!-- Node5 -->
<g id="node5" class="node">
<title>Node5</title>
<g id="a_node5"><a xlink:href="board_8cpp.xhtml" target="_top" xlink:title=" ">
<polygon fill="white" stroke="black" points="0,-240 0,-270 107,-270 107,-240 0,-240"/>
<text text-anchor="start" x="8" y="-258" font-family="Helvetica,sans-Serif" font-size="10.00">lib/board_adapters</text>
<text text-anchor="middle" x="53.5" y="-247" font-family="Helvetica,sans-Serif" font-size="10.00">/board.cpp</text>
</a>
</g>
</g>
<!-- Node2&#45;&gt;Node5 -->
<g id="edge4" class="edge">
<title>Node2&#45;&gt;Node5</title>
<path fill="none" stroke="midnightblue" d="M217.48,-309.26C178.32,-296.54 130.73,-281.08 96.93,-270.11"/>
<polygon fill="midnightblue" stroke="midnightblue" points="216.65,-312.67 227.24,-312.43 218.81,-306.01 216.65,-312.67"/>
</g>
<!-- Node6 -->
<g id="node6" class="node">
<title>Node6</title>
<g id="a_node6"><a xlink:href="sound__output_8cpp.xhtml" target="_top" xlink:title=" ">
<polygon fill="white" stroke="black" points="125.5,-234.5 125.5,-275.5 259.5,-275.5 259.5,-234.5 125.5,-234.5"/>
<text text-anchor="start" x="133.5" y="-263.5" font-family="Helvetica,sans-Serif" font-size="10.00">lib/board_adapters</text>
<text text-anchor="start" x="133.5" y="-252.5" font-family="Helvetica,sans-Serif" font-size="10.00">/sound_output_interface</text>
<text text-anchor="middle" x="192.5" y="-241.5" font-family="Helvetica,sans-Serif" font-size="10.00">/sound_output.cpp</text>
</a>
</g>
</g>
<!-- Node2&#45;&gt;Node6 -->
<g id="edge5" class="edge">
<title>Node2&#45;&gt;Node6</title>
<path fill="none" stroke="midnightblue" d="M255.08,-306.06C242.57,-296.06 228.51,-284.8 216.88,-275.51"/>
<polygon fill="midnightblue" stroke="midnightblue" points="253.04,-308.91 263.04,-312.43 257.41,-303.45 253.04,-308.91"/>
</g>
<!-- Node7&#45;&gt;Node4 -->
<g id="edge28" class="edge">
<title>Node7&#45;&gt;Node4</title>
<path fill="none" stroke="midnightblue" d="M818.37,-320.57C718.11,-305.72 544.64,-280.02 449.58,-265.94"/>
<polygon fill="midnightblue" stroke="midnightblue" points="818.03,-324.06 828.43,-322.06 819.06,-317.14 818.03,-324.06"/>
</g>
<!-- Node8 -->
<g id="node8" class="node">
<title>Node8</title>
<g id="a_node8"><a xlink:href="IGuiEngine_8hpp.xhtml" target="_top" xlink:title=" ">
<polygon fill="white" stroke="black" points="934.5,-234.5 934.5,-275.5 1068.5,-275.5 1068.5,-234.5 934.5,-234.5"/>
<text text-anchor="start" x="942.5" y="-263.5" font-family="Helvetica,sans-Serif" font-size="10.00">lib/application_business</text>
<text text-anchor="start" x="942.5" y="-252.5" font-family="Helvetica,sans-Serif" font-size="10.00">_rules/user_interaction</text>
<text text-anchor="middle" x="1001.5" y="-241.5" font-family="Helvetica,sans-Serif" font-size="10.00">/IGuiEngine.hpp</text>
</a>
</g>
</g>
<!-- Node7&#45;&gt;Node8 -->
<g id="edge7" class="edge">
<title>Node7&#45;&gt;Node8</title>
<path fill="none" stroke="midnightblue" d="M931.27,-306.35C945.33,-296.27 961.2,-284.89 974.29,-275.51"/>
<polygon fill="midnightblue" stroke="midnightblue" points="928.89,-303.76 922.8,-312.43 932.96,-309.45 928.89,-303.76"/>
</g>
<!-- Node14 -->
<g id="node14" class="node">
<title>Node14</title>
<g id="a_node14"><a xlink:href="test__hmi_8cpp.xhtml" target="_top" xlink:title=" ">
<polygon fill="white" stroke="black" points="814,-6 814,-36 939,-36 939,-6 814,-6"/>
<text text-anchor="start" x="822" y="-24" font-family="Helvetica,sans-Serif" font-size="10.00">test/hmi/test_hmi/test</text>
<text text-anchor="middle" x="876.5" y="-13" font-family="Helvetica,sans-Serif" font-size="10.00">_hmi.cpp</text>
</a>
</g>
</g>
<!-- Node7&#45;&gt;Node14 -->
<g id="edge33" class="edge">
<title>Node7&#45;&gt;Node14</title>
<path fill="none" stroke="midnightblue" d="M893.67,-302.08C889.66,-236.73 880.26,-83.37 877.36,-36.11"/>
<polygon fill="midnightblue" stroke="midnightblue" points="890.18,-302.37 894.28,-312.14 897.16,-301.94 890.18,-302.37"/>
</g>
<!-- Node15 -->
<g id="node15" class="node">
<title>Node15</title>
<g id="a_node15"><a xlink:href="Menu_8hpp.xhtml" target="_top" xlink:title=" ">
<polygon fill="white" stroke="black" points="628.5,-156.5 628.5,-197.5 762.5,-197.5 762.5,-156.5 628.5,-156.5"/>
<text text-anchor="start" x="636.5" y="-185.5" font-family="Helvetica,sans-Serif" font-size="10.00">lib/application_business</text>
<text text-anchor="start" x="636.5" y="-174.5" font-family="Helvetica,sans-Serif" font-size="10.00">_rules/user_interaction</text>
<text text-anchor="middle" x="695.5" y="-163.5" font-family="Helvetica,sans-Serif" font-size="10.00">/Menu.hpp</text>
</a>
</g>
</g>
<!-- Node7&#45;&gt;Node15 -->
<g id="edge27" class="edge">
<title>Node7&#45;&gt;Node15</title>
<path fill="none" stroke="midnightblue" d="M862.1,-306.28C822.33,-275.66 756.82,-225.21 720.94,-197.59"/>
<polygon fill="midnightblue" stroke="midnightblue" points="860.11,-309.17 870.17,-312.5 864.38,-303.62 860.11,-309.17"/>
</g>
<!-- Node18 -->
<g id="node18" class="node">
<title>Node18</title>
<g id="a_node18"><a xlink:href="keypad__factory__interface_8hpp.xhtml" target="_top" xlink:title="Dependency injection for the keypad.">
<polygon fill="white" stroke="black" points="1168.5,-234.5 1168.5,-275.5 1332.5,-275.5 1332.5,-234.5 1168.5,-234.5"/>
<text text-anchor="start" x="1176.5" y="-263.5" font-family="Helvetica,sans-Serif" font-size="10.00">lib/application_business</text>
<text text-anchor="start" x="1176.5" y="-252.5" font-family="Helvetica,sans-Serif" font-size="10.00">_rules/user_interaction</text>
<text text-anchor="middle" x="1250.5" y="-241.5" font-family="Helvetica,sans-Serif" font-size="10.00">/keypad_factory_interface.hpp</text>
</a>
</g>
</g>
<!-- Node7&#45;&gt;Node18 -->
<g id="edge23" class="edge">
<title>Node7&#45;&gt;Node18</title>
<path fill="none" stroke="midnightblue" d="M972.5,-315.52C1030.29,-303.14 1109.28,-286.23 1168.3,-273.6"/>
<polygon fill="midnightblue" stroke="midnightblue" points="971.74,-312.1 962.69,-317.62 973.2,-318.94 971.74,-312.1"/>
</g>
<!-- Node20 -->
<g id="node20" class="node">
<title>Node20</title>
<g id="a_node20"><a xlink:href="Keypad_8hpp.xhtml" target="_top" xlink:title=" ">
<polygon fill="white" stroke="black" points="1405,-234.5 1405,-275.5 1536,-275.5 1536,-234.5 1405,-234.5"/>
<text text-anchor="start" x="1413" y="-263.5" font-family="Helvetica,sans-Serif" font-size="10.00">lib/board_adapters</text>
<text text-anchor="start" x="1413" y="-252.5" font-family="Helvetica,sans-Serif" font-size="10.00">/input_device_interface</text>
<text text-anchor="middle" x="1470.5" y="-241.5" font-family="Helvetica,sans-Serif" font-size="10.00">/Keypad.hpp</text>
</a>
</g>
</g>
<!-- Node7&#45;&gt;Node20 -->
<g id="edge29" class="edge">
<title>Node7&#45;&gt;Node20</title>
<path fill="none" stroke="midnightblue" d="M972.84,-322.98C1061.86,-312.43 1212.39,-294.11 1341.5,-276 1362.15,-273.1 1384.62,-269.71 1404.93,-266.54"/>
<polygon fill="midnightblue" stroke="midnightblue" points="972.35,-319.51 962.83,-324.16 973.17,-326.46 972.35,-319.51"/>
</g>
<!-- Node9 -->
<g id="node9" class="node">
<title>Node9</title>
<g id="a_node9"><a xlink:href="GuiEngine_8hpp.xhtml" target="_top" xlink:title=" ">
<polygon fill="white" stroke="black" points="1118.5,-162 1118.5,-192 1244.5,-192 1244.5,-162 1118.5,-162"/>
<text text-anchor="start" x="1126.5" y="-180" font-family="Helvetica,sans-Serif" font-size="10.00">lib/3rd_party_adapters</text>
<text text-anchor="middle" x="1181.5" y="-169" font-family="Helvetica,sans-Serif" font-size="10.00">/LVGL/GuiEngine.hpp</text>
</a>
</g>
</g>
<!-- Node8&#45;&gt;Node9 -->
<g id="edge8" class="edge">
<title>Node8&#45;&gt;Node9</title>
<path fill="none" stroke="midnightblue" d="M1057.29,-230.45C1087.03,-217.89 1122.64,-202.85 1148.09,-192.11"/>
<polygon fill="midnightblue" stroke="midnightblue" points="1055.71,-227.31 1047.85,-234.43 1058.43,-233.76 1055.71,-227.31"/>
</g>
<!-- Node12 -->
<g id="node12" class="node">
<title>Node12</title>
<g id="a_node12"><a xlink:href="guiEngine__factory__interface_8hpp.xhtml" target="_top" xlink:title="Dependency injection for the guiEngine.">
<polygon fill="white" stroke="black" points="923,-156.5 923,-197.5 1100,-197.5 1100,-156.5 923,-156.5"/>
<text text-anchor="start" x="931" y="-185.5" font-family="Helvetica,sans-Serif" font-size="10.00">lib/application_business</text>
<text text-anchor="start" x="931" y="-174.5" font-family="Helvetica,sans-Serif" font-size="10.00">_rules/user_interaction</text>
<text text-anchor="middle" x="1011.5" y="-163.5" font-family="Helvetica,sans-Serif" font-size="10.00">/guiEngine_factory_interface.hpp</text>
</a>
</g>
</g>
<!-- Node8&#45;&gt;Node12 -->
<g id="edge11" class="edge">
<title>Node8&#45;&gt;Node12</title>
<path fill="none" stroke="midnightblue" d="M1005.41,-224.3C1006.59,-215.3 1007.86,-205.65 1008.93,-197.51"/>
<polygon fill="midnightblue" stroke="midnightblue" points="1001.91,-224.06 1004.08,-234.43 1008.85,-224.97 1001.91,-224.06"/>
</g>
<!-- Node8&#45;&gt;Node15 -->
<g id="edge15" class="edge">
<title>Node8&#45;&gt;Node15</title>
<path fill="none" stroke="midnightblue" d="M924.59,-234.9C874.78,-222.53 810.53,-206.57 762.76,-194.71"/>
<polygon fill="midnightblue" stroke="midnightblue" points="923.8,-238.31 934.35,-237.32 925.49,-231.51 923.8,-238.31"/>
</g>
<!-- Node10 -->
<g id="node10" class="node">
<title>Node10</title>
<g id="a_node10"><a xlink:href="GuiEngine_8cpp.xhtml" target="_top" xlink:title=" ">
<polygon fill="white" stroke="black" points="1151.5,-84 1151.5,-114 1277.5,-114 1277.5,-84 1151.5,-84"/>
<text text-anchor="start" x="1159.5" y="-102" font-family="Helvetica,sans-Serif" font-size="10.00">lib/3rd_party_adapters</text>
<text text-anchor="middle" x="1214.5" y="-91" font-family="Helvetica,sans-Serif" font-size="10.00">/LVGL/GuiEngine.cpp</text>
</a>
</g>
</g>
<!-- Node9&#45;&gt;Node10 -->
<g id="edge9" class="edge">
<title>Node9&#45;&gt;Node10</title>
<path fill="none" stroke="midnightblue" d="M1191.78,-152.33C1197.2,-139.85 1203.67,-124.94 1208.32,-114.23"/>
<polygon fill="midnightblue" stroke="midnightblue" points="1188.48,-151.14 1187.71,-161.7 1194.9,-153.93 1188.48,-151.14"/>
</g>
<!-- Node11 -->
<g id="node11" class="node">
<title>Node11</title>
<g id="a_node11"><a xlink:href="guiEngine__factory__interface_8cpp.xhtml" target="_top" xlink:title=" ">
<polygon fill="white" stroke="black" points="999.5,-78.5 999.5,-119.5 1133.5,-119.5 1133.5,-78.5 999.5,-78.5"/>
<text text-anchor="start" x="1007.5" y="-107.5" font-family="Helvetica,sans-Serif" font-size="10.00">lib/3rd_party_adapters</text>
<text text-anchor="start" x="1007.5" y="-96.5" font-family="Helvetica,sans-Serif" font-size="10.00">/LVGL/guiEngine_factory</text>
<text text-anchor="middle" x="1066.5" y="-85.5" font-family="Helvetica,sans-Serif" font-size="10.00">_interface.cpp</text>
</a>
</g>
</g>
<!-- Node9&#45;&gt;Node11 -->
<g id="edge10" class="edge">
<title>Node9&#45;&gt;Node11</title>
<path fill="none" stroke="midnightblue" d="M1151.68,-156.29C1134.68,-145.06 1113.44,-131.02 1096.42,-119.77"/>
<polygon fill="midnightblue" stroke="midnightblue" points="1149.87,-159.29 1160.14,-161.88 1153.73,-153.45 1149.87,-159.29"/>
</g>
<!-- Node12&#45;&gt;Node11 -->
<g id="edge12" class="edge">
<title>Node12&#45;&gt;Node11</title>
<path fill="none" stroke="midnightblue" d="M1031.73,-148.05C1038.59,-138.57 1046.1,-128.18 1052.38,-119.51"/>
<polygon fill="midnightblue" stroke="midnightblue" points="1028.69,-146.27 1025.66,-156.43 1034.36,-150.38 1028.69,-146.27"/>
</g>
<!-- Node13 -->
<g id="node13" class="node">
<title>Node13</title>
<g id="a_node13"><a xlink:href="main_8cpp.xhtml" target="_top" xlink:title=" ">
<polygon fill="white" stroke="black" points="552,-11.5 552,-30.5 631,-30.5 631,-11.5 552,-11.5"/>
<text text-anchor="middle" x="591.5" y="-18.5" font-family="Helvetica,sans-Serif" font-size="10.00">src/main.cpp</text>
</a>
</g>
</g>
<!-- Node12&#45;&gt;Node13 -->
<g id="edge13" class="edge">
<title>Node12&#45;&gt;Node13</title>
<path fill="none" stroke="midnightblue" d="M973.38,-150.95C938.32,-128.91 884.23,-97.4 833.5,-78 764.62,-51.65 679.79,-35.52 631.04,-27.71"/>
<polygon fill="midnightblue" stroke="midnightblue" points="971.55,-153.93 981.87,-156.33 975.3,-148.02 971.55,-153.93"/>
</g>
<!-- Node12&#45;&gt;Node14 -->
<g id="edge14" class="edge">
<title>Node12&#45;&gt;Node14</title>
<path fill="none" stroke="midnightblue" d="M996.15,-147.39C984.37,-126.86 966.88,-99.2 947.5,-78 932.67,-61.78 912.82,-46.55 897.89,-36.08"/>
<polygon fill="midnightblue" stroke="midnightblue" points="993.19,-149.27 1001.15,-156.27 999.3,-145.84 993.19,-149.27"/>
</g>
<!-- Node15&#45;&gt;Node13 -->
<g id="edge21" class="edge">
<title>Node15&#45;&gt;Node13</title>
<path fill="none" stroke="midnightblue" d="M643.35,-150.98C630.89,-142.73 618.81,-132.41 610.5,-120 591.51,-91.63 590.49,-48.89 591.04,-30.7"/>
<polygon fill="midnightblue" stroke="midnightblue" points="641.66,-154.05 652,-156.37 645.36,-148.11 641.66,-154.05"/>
</g>
<!-- Node15&#45;&gt;Node14 -->
<g id="edge22" class="edge">
<title>Node15&#45;&gt;Node14</title>
<path fill="none" stroke="midnightblue" d="M727.01,-149.82C738.24,-140.45 750.96,-129.78 762.5,-120 797.54,-90.3 838.28,-55.12 860.33,-36.03"/>
<polygon fill="midnightblue" stroke="midnightblue" points="724.57,-147.29 719.13,-156.38 729.05,-152.67 724.57,-147.29"/>
</g>
<!-- Node16 -->
<g id="node16" class="node">
<title>Node16</title>
<g id="a_node16"><a xlink:href="Menu_8cpp.xhtml" target="_top" xlink:title=" ">
<polygon fill="white" stroke="black" points="619.5,-78.5 619.5,-119.5 753.5,-119.5 753.5,-78.5 619.5,-78.5"/>
<text text-anchor="start" x="627.5" y="-107.5" font-family="Helvetica,sans-Serif" font-size="10.00">lib/application_business</text>
<text text-anchor="start" x="627.5" y="-96.5" font-family="Helvetica,sans-Serif" font-size="10.00">_rules/user_interaction</text>
<text text-anchor="middle" x="686.5" y="-85.5" font-family="Helvetica,sans-Serif" font-size="10.00">/Menu.cpp</text>
</a>
</g>
</g>
<!-- Node15&#45;&gt;Node16 -->
<g id="edge16" class="edge">
<title>Node15&#45;&gt;Node16</title>
<path fill="none" stroke="midnightblue" d="M691.98,-146.3C690.92,-137.3 689.77,-127.65 688.81,-119.51"/>
<polygon fill="midnightblue" stroke="midnightblue" points="688.53,-146.91 693.18,-156.43 695.48,-146.09 688.53,-146.91"/>
</g>
<!-- Node17 -->
<g id="node17" class="node">
<title>Node17</title>
<g id="a_node17"><a xlink:href="Presenter_8hpp.xhtml" target="_top" xlink:title=" ">
<polygon fill="white" stroke="black" points="429.5,-78.5 429.5,-119.5 563.5,-119.5 563.5,-78.5 429.5,-78.5"/>
<text text-anchor="start" x="437.5" y="-107.5" font-family="Helvetica,sans-Serif" font-size="10.00">lib/application_business</text>
<text text-anchor="start" x="437.5" y="-96.5" font-family="Helvetica,sans-Serif" font-size="10.00">_rules/user_interaction</text>
<text text-anchor="middle" x="496.5" y="-85.5" font-family="Helvetica,sans-Serif" font-size="10.00">/Presenter.hpp</text>
</a>
</g>
</g>
<!-- Node15&#45;&gt;Node17 -->
<g id="edge17" class="edge">
<title>Node15&#45;&gt;Node17</title>
<path fill="none" stroke="midnightblue" d="M634.62,-152.75C606.76,-142.11 574.13,-129.65 547.57,-119.51"/>
<polygon fill="midnightblue" stroke="midnightblue" points="633.66,-156.13 644.25,-156.43 636.16,-149.59 633.66,-156.13"/>
</g>
<!-- Node17&#45;&gt;Node3 -->
<g id="edge18" class="edge">
<title>Node17&#45;&gt;Node3</title>
<path fill="none" stroke="midnightblue" d="M457.23,-72.92C441.23,-62.7 423.02,-51.07 408.04,-41.51"/>
<polygon fill="midnightblue" stroke="midnightblue" points="455.54,-76 465.85,-78.43 459.31,-70.1 455.54,-76"/>
</g>
<!-- Node17&#45;&gt;Node13 -->
<g id="edge19" class="edge">
<title>Node17&#45;&gt;Node13</title>
<path fill="none" stroke="midnightblue" d="M528.99,-72.01C547.04,-57.57 568.31,-40.55 580.81,-30.55"/>
<polygon fill="midnightblue" stroke="midnightblue" points="526.59,-69.45 520.96,-78.43 530.96,-74.91 526.59,-69.45"/>
</g>
<!-- Node17&#45;&gt;Node14 -->
<g id="edge20" class="edge">
<title>Node17&#45;&gt;Node14</title>
<path fill="none" stroke="midnightblue" d="M573.76,-82.55C644.58,-68.38 748.12,-47.68 813.89,-34.52"/>
<polygon fill="midnightblue" stroke="midnightblue" points="572.68,-79.19 563.56,-84.59 574.05,-86.06 572.68,-79.19"/>
</g>
<!-- Node18&#45;&gt;Node13 -->
<g id="edge25" class="edge">
<title>Node18&#45;&gt;Node13</title>
<path fill="none" stroke="midnightblue" d="M1158.33,-243.95C1074.05,-233.81 956.21,-216.97 913.5,-198 835.16,-163.2 837.97,-118.64 762.5,-78 719.87,-55.04 666.17,-39.36 630.44,-30.55"/>
<polygon fill="midnightblue" stroke="midnightblue" points="1158.09,-247.44 1168.43,-245.15 1158.92,-240.49 1158.09,-247.44"/>
</g>
<!-- Node18&#45;&gt;Node14 -->
<g id="edge26" class="edge">
<title>Node18&#45;&gt;Node14</title>
<path fill="none" stroke="midnightblue" d="M1269.11,-225.83C1291.75,-187.67 1322.76,-119.55 1286.5,-78 1264.03,-52.26 1048.52,-33.85 939.3,-26.09"/>
<polygon fill="midnightblue" stroke="midnightblue" points="1266.1,-224.05 1263.86,-234.4 1272.07,-227.7 1266.1,-224.05"/>
</g>
<!-- Node19 -->
<g id="node19" class="node">
<title>Node19</title>
<g id="a_node19"><a xlink:href="keypad__factory__interface_8cpp.xhtml" target="_top" xlink:title=" ">
<polygon fill="white" stroke="black" points="1333.5,-156.5 1333.5,-197.5 1497.5,-197.5 1497.5,-156.5 1333.5,-156.5"/>
<text text-anchor="start" x="1341.5" y="-185.5" font-family="Helvetica,sans-Serif" font-size="10.00">lib/board_adapters</text>
<text text-anchor="start" x="1341.5" y="-174.5" font-family="Helvetica,sans-Serif" font-size="10.00">/input_device_interface</text>
<text text-anchor="middle" x="1415.5" y="-163.5" font-family="Helvetica,sans-Serif" font-size="10.00">/keypad_factory_interface.cpp</text>
</a>
</g>
</g>
<!-- Node18&#45;&gt;Node19 -->
<g id="edge24" class="edge">
<title>Node18&#45;&gt;Node19</title>
<path fill="none" stroke="midnightblue" d="M1302.19,-230.19C1325.02,-219.67 1351.52,-207.47 1373.15,-197.51"/>
<polygon fill="midnightblue" stroke="midnightblue" points="1300.61,-227.07 1292.99,-234.43 1303.54,-233.42 1300.61,-227.07"/>
</g>
<!-- Node20&#45;&gt;Node19 -->
<g id="edge31" class="edge">
<title>Node20&#45;&gt;Node19</title>
<path fill="none" stroke="midnightblue" d="M1450.27,-226.05C1443.41,-216.57 1435.9,-206.18 1429.62,-197.51"/>
<polygon fill="midnightblue" stroke="midnightblue" points="1447.64,-228.38 1456.34,-234.43 1453.31,-224.27 1447.64,-228.38"/>
</g>
<!-- Node21 -->
<g id="node21" class="node">
<title>Node21</title>
<g id="a_node21"><a xlink:href="Keypad_8cpp.xhtml" target="_top" xlink:title=" ">
<polygon fill="white" stroke="black" points="1661,-156.5 1661,-197.5 1792,-197.5 1792,-156.5 1661,-156.5"/>
<text text-anchor="start" x="1669" y="-185.5" font-family="Helvetica,sans-Serif" font-size="10.00">lib/board_adapters</text>
<text text-anchor="start" x="1669" y="-174.5" font-family="Helvetica,sans-Serif" font-size="10.00">/input_device_interface</text>
<text text-anchor="middle" x="1726.5" y="-163.5" font-family="Helvetica,sans-Serif" font-size="10.00">/Keypad.cpp</text>
</a>
</g>
</g>
<!-- Node20&#45;&gt;Node21 -->
<g id="edge30" class="edge">
<title>Node20&#45;&gt;Node21</title>
<path fill="none" stroke="midnightblue" d="M1545.69,-231.68C1582.13,-220.86 1625.5,-207.98 1660.63,-197.55"/>
<polygon fill="midnightblue" stroke="midnightblue" points="1544.68,-228.33 1536.09,-234.53 1546.68,-235.04 1544.68,-228.33"/>
</g>
<!-- Node22 -->
<g id="node22" class="node">
<title>Node22</title>
<g id="a_node22"><a xlink:href="test__keyState_8cpp.xhtml" target="_top" xlink:title=" ">
<polygon fill="white" stroke="black" points="1516,-162 1516,-192 1643,-192 1643,-162 1516,-162"/>
<text text-anchor="start" x="1524" y="-180" font-family="Helvetica,sans-Serif" font-size="10.00">test/hmi/test_keyState</text>
<text text-anchor="middle" x="1579.5" y="-169" font-family="Helvetica,sans-Serif" font-size="10.00">/test_keyState.cpp</text>
</a>
</g>
</g>
<!-- Node20&#45;&gt;Node22 -->
<g id="edge32" class="edge">
<title>Node20&#45;&gt;Node22</title>
<path fill="none" stroke="midnightblue" d="M1506.85,-228.66C1524.25,-216.53 1544.43,-202.45 1559.1,-192.23"/>
<polygon fill="midnightblue" stroke="midnightblue" points="1504.77,-225.84 1498.57,-234.43 1508.77,-231.58 1504.77,-225.84"/>
</g>
<!-- Node24&#45;&gt;Node4 -->
<g id="edge36" class="edge">
<title>Node24&#45;&gt;Node4</title>
<path fill="none" stroke="midnightblue" d="M445.08,-306.06C432.57,-296.06 418.51,-284.8 406.88,-275.51"/>
<polygon fill="midnightblue" stroke="midnightblue" points="443.04,-308.91 453.04,-312.43 447.41,-303.45 443.04,-308.91"/>
</g>
<!-- Node24&#45;&gt;Node13 -->
<g id="edge37" class="edge">
<title>Node24&#45;&gt;Node13</title>
<path fill="none" stroke="midnightblue" d="M472.76,-302.18C469.4,-282.65 464.44,-256.63 458.5,-234 440.39,-164.98 378.62,-135.78 420.5,-78 450.29,-36.9 511.16,-25.41 551.65,-22.5"/>
<polygon fill="midnightblue" stroke="midnightblue" points="469.35,-303.02 474.46,-312.31 476.25,-301.87 469.35,-303.02"/>
</g>
<!-- Node24&#45;&gt;Node14 -->
<g id="edge38" class="edge">
<title>Node24&#45;&gt;Node14</title>
<path fill="none" stroke="midnightblue" d="M554.37,-311.09C618.31,-290.62 708.7,-254.23 771.5,-198 824.78,-150.29 859.12,-69 871.42,-36.27"/>
<polygon fill="midnightblue" stroke="midnightblue" points="553.23,-307.78 544.74,-314.12 555.33,-314.46 553.23,-307.78"/>
</g>
</g>
</svg>
