<?xml version="1.0" encoding="UTF-8" standalone="no"?>
<!DOCTYPE svg PUBLIC "-//W3C//DTD SVG 1.1//EN"
 "http://www.w3.org/Graphics/SVG/1.1/DTD/svg11.dtd">
<!-- Generated by graphviz version 2.43.0 (0)
 -->
<!-- Title: src/main.cpp Pages: 1 -->
<svg width="1179pt" height="408pt"
 viewBox="0.00 0.00 1179.00 408.00" xmlns="http://www.w3.org/2000/svg" xmlns:xlink="http://www.w3.org/1999/xlink">
<g id="graph0" class="graph" transform="scale(1 1) rotate(0) translate(4 404)">
<title>src/main.cpp</title>
<polygon fill="white" stroke="transparent" points="-4,4 -4,-404 1175,-404 1175,4 -4,4"/>
<!-- Node1 -->
<g id="node1" class="node">
<title>Node1</title>
<g id="a_node1"><a xlink:title=" ">
<polygon fill="#bfbfbf" stroke="black" points="465.5,-380.5 465.5,-399.5 544.5,-399.5 544.5,-380.5 465.5,-380.5"/>
<text text-anchor="middle" x="505" y="-387.5" font-family="Helvetica,sans-Serif" font-size="10.00">src/main.cpp</text>
</a>
</g>
</g>
<!-- Node2 -->
<g id="node2" class="node">
<title>Node2</title>
<g id="a_node2"><a xlink:title=" ">
<polygon fill="white" stroke="#bfbfbf" points="73,-252 73,-271 123,-271 123,-252 73,-252"/>
<text text-anchor="middle" x="98" y="-259" font-family="Helvetica,sans-Serif" font-size="10.00">chrono</text>
</a>
</g>
</g>
<!-- Node1&#45;&gt;Node2 -->
<g id="edge1" class="edge">
<title>Node1&#45;&gt;Node2</title>
<path fill="none" stroke="midnightblue" d="M465.42,-386.93C372,-381.7 143.74,-366.71 118,-344 100.37,-328.44 97.02,-300.1 96.95,-281.28"/>
<polygon fill="midnightblue" stroke="midnightblue" points="100.45,-281.33 97.22,-271.24 93.45,-281.14 100.45,-281.33"/>
</g>
<!-- Node3 -->
<g id="node3" class="node">
<title>Node3</title>
<g id="a_node3"><a xlink:href="Protocol_8hpp.xhtml" target="_top" xlink:title=" ">
<polygon fill="white" stroke="black" points="949,-319 949,-338 1105,-338 1105,-319 949,-319"/>
<text text-anchor="middle" x="1027" y="-326" font-family="Helvetica,sans-Serif" font-size="10.00">serial_interface/Protocol.hpp</text>
</a>
</g>
</g>
<!-- Node1&#45;&gt;Node3 -->
<g id="edge2" class="edge">
<title>Node1&#45;&gt;Node3</title>
<path fill="none" stroke="midnightblue" d="M544.68,-385.73C621.28,-379.22 794.78,-363.59 940,-344 949.46,-342.72 959.47,-341.21 969.21,-339.65"/>
<polygon fill="midnightblue" stroke="midnightblue" points="969.91,-343.08 979.22,-338.01 968.78,-336.17 969.91,-343.08"/>
</g>
<!-- Node4 -->
<g id="node4" class="node">
<title>Node4</title>
<g id="a_node4"><a xlink:href="serial__port_8hpp.xhtml" target="_top" xlink:title=" ">
<polygon fill="white" stroke="black" points="0,-112.5 0,-142.5 122,-142.5 122,-112.5 0,-112.5"/>
<text text-anchor="start" x="8" y="-130.5" font-family="Helvetica,sans-Serif" font-size="10.00">serial_interface/serial</text>
<text text-anchor="middle" x="61" y="-119.5" font-family="Helvetica,sans-Serif" font-size="10.00">_port.hpp</text>
</a>
</g>
</g>
<!-- Node1&#45;&gt;Node4 -->
<g id="edge3" class="edge">
<title>Node1&#45;&gt;Node4</title>
<path fill="none" stroke="midnightblue" d="M465.39,-389.35C374.8,-389.43 155.79,-385.22 97,-344 36.64,-301.68 47.18,-199.4 55.76,-152.6"/>
<polygon fill="midnightblue" stroke="midnightblue" points="59.2,-153.22 57.69,-142.73 52.33,-151.87 59.2,-153.22"/>
</g>
<!-- Node10 -->
<g id="node10" class="node">
<title>Node10</title>
<g id="a_node10"><a xlink:href="Task_8hpp.xhtml" target="_top" xlink:title=" ">
<polygon fill="white" stroke="black" points="127.5,-319 127.5,-338 216.5,-338 216.5,-319 127.5,-319"/>
<text text-anchor="middle" x="172" y="-326" font-family="Helvetica,sans-Serif" font-size="10.00">tasks/Task.hpp</text>
</a>
</g>
</g>
<!-- Node1&#45;&gt;Node10 -->
<g id="edge9" class="edge">
<title>Node1&#45;&gt;Node10</title>
<path fill="none" stroke="midnightblue" d="M465.35,-383.48C411.9,-375.82 313.88,-360.96 231,-344 225.64,-342.9 220.03,-341.65 214.49,-340.36"/>
<polygon fill="midnightblue" stroke="midnightblue" points="215.21,-336.93 204.66,-338.01 213.58,-343.74 215.21,-336.93"/>
</g>
<!-- Node12 -->
<g id="node12" class="node">
<title>Node12</title>
<g id="a_node12"><a xlink:title=" ">
<polygon fill="white" stroke="#bfbfbf" points="1123,-319 1123,-338 1171,-338 1171,-319 1123,-319"/>
<text text-anchor="middle" x="1147" y="-326" font-family="Helvetica,sans-Serif" font-size="10.00">thread</text>
</a>
</g>
</g>
<!-- Node1&#45;&gt;Node12 -->
<g id="edge13" class="edge">
<title>Node1&#45;&gt;Node12</title>
<path fill="none" stroke="midnightblue" d="M544.78,-387.82C662.13,-384.07 1005.46,-371.01 1114,-344 1116.36,-343.41 1118.76,-342.67 1121.13,-341.83"/>
<polygon fill="midnightblue" stroke="midnightblue" points="1122.64,-345 1130.6,-338.02 1120.02,-338.51 1122.64,-345"/>
</g>
<!-- Node13 -->
<g id="node13" class="node">
<title>Node13</title>
<g id="a_node13"><a xlink:href="Menu_8hpp.xhtml" target="_top" xlink:title=" ">
<polygon fill="white" stroke="black" points="273,-252 273,-271 419,-271 419,-252 273,-252"/>
<text text-anchor="middle" x="346" y="-259" font-family="Helvetica,sans-Serif" font-size="10.00">user_interaction/Menu.hpp</text>
</a>
</g>
</g>
<!-- Node1&#45;&gt;Node13 -->
<g id="edge14" class="edge">
<title>Node1&#45;&gt;Node13</title>
<path fill="none" stroke="midnightblue" d="M494.07,-380.31C467.41,-359.09 398.75,-304.46 365.12,-277.72"/>
<polygon fill="midnightblue" stroke="midnightblue" points="367.01,-274.74 357.01,-271.26 362.65,-280.22 367.01,-274.74"/>
</g>
<!-- Node20 -->
<g id="node20" class="node">
<title>Node20</title>
<g id="a_node20"><a xlink:href="Presenter_8hpp.xhtml" target="_top" xlink:title=" ">
<polygon fill="white" stroke="black" points="571.5,-319 571.5,-338 736.5,-338 736.5,-319 571.5,-319"/>
<text text-anchor="middle" x="654" y="-326" font-family="Helvetica,sans-Serif" font-size="10.00">user_interaction/Presenter.hpp</text>
</a>
</g>
</g>
<!-- Node1&#45;&gt;Node20 -->
<g id="edge25" class="edge">
<title>Node1&#45;&gt;Node20</title>
<path fill="none" stroke="midnightblue" d="M526.35,-380.48C551.69,-370.36 594.14,-353.4 623.07,-341.85"/>
<polygon fill="midnightblue" stroke="midnightblue" points="624.7,-344.97 632.69,-338.01 622.11,-338.47 624.7,-344.97"/>
</g>
<!-- Node23 -->
<g id="node23" class="node">
<title>Node23</title>
<g id="a_node23"><a xlink:href="ProcessHmiInputs_8hpp.xhtml" target="_top" xlink:title=" ">
<polygon fill="white" stroke="black" points="484,-179.5 484,-209.5 620,-209.5 620,-179.5 484,-179.5"/>
<text text-anchor="start" x="492" y="-197.5" font-family="Helvetica,sans-Serif" font-size="10.00">user_interaction/Process</text>
<text text-anchor="middle" x="552" y="-186.5" font-family="Helvetica,sans-Serif" font-size="10.00">HmiInputs.hpp</text>
</a>
</g>
</g>
<!-- Node1&#45;&gt;Node23 -->
<g id="edge30" class="edge">
<title>Node1&#45;&gt;Node23</title>
<path fill="none" stroke="midnightblue" d="M511.71,-380.05C522.44,-365.78 544.16,-337.03 563,-313 575.68,-296.83 585.17,-296.38 592,-277 596.58,-264.01 596.53,-259.01 592,-246 588.36,-235.54 581.55,-225.62 574.57,-217.38"/>
<polygon fill="midnightblue" stroke="midnightblue" points="576.96,-214.81 567.65,-209.75 571.78,-219.51 576.96,-214.81"/>
</g>
<!-- Node24 -->
<g id="node24" class="node">
<title>Node24</title>
<g id="a_node24"><a xlink:href="guiEngine__factory__interface_8hpp.xhtml" target="_top" xlink:title="Dependency injection for the guiEngine.">
<polygon fill="white" stroke="black" points="437,-246.5 437,-276.5 583,-276.5 583,-246.5 437,-246.5"/>
<text text-anchor="start" x="445" y="-264.5" font-family="Helvetica,sans-Serif" font-size="10.00">user_interaction/guiEngine</text>
<text text-anchor="middle" x="510" y="-253.5" font-family="Helvetica,sans-Serif" font-size="10.00">_factory_interface.hpp</text>
</a>
</g>
</g>
<!-- Node1&#45;&gt;Node24 -->
<g id="edge32" class="edge">
<title>Node1&#45;&gt;Node24</title>
<path fill="none" stroke="midnightblue" d="M505.34,-380.31C506.09,-361.3 507.91,-315.47 509.04,-286.9"/>
<polygon fill="midnightblue" stroke="midnightblue" points="512.53,-287.02 509.43,-276.89 505.54,-286.74 512.53,-287.02"/>
</g>
<!-- Node25 -->
<g id="node25" class="node">
<title>Node25</title>
<g id="a_node25"><a xlink:href="keypad__factory__interface_8hpp.xhtml" target="_top" xlink:title="Dependency injection for the keypad.">
<polygon fill="white" stroke="black" points="181,-179.5 181,-209.5 315,-209.5 315,-179.5 181,-179.5"/>
<text text-anchor="start" x="189" y="-197.5" font-family="Helvetica,sans-Serif" font-size="10.00">user_interaction/keypad</text>
<text text-anchor="middle" x="248" y="-186.5" font-family="Helvetica,sans-Serif" font-size="10.00">_factory_interface.hpp</text>
</a>
</g>
</g>
<!-- Node1&#45;&gt;Node25 -->
<g id="edge34" class="edge">
<title>Node1&#45;&gt;Node25</title>
<path fill="none" stroke="midnightblue" d="M465.14,-382.07C410.78,-370.42 314.42,-341.53 264,-277 251.35,-260.82 247.83,-237.41 247.19,-219.83"/>
<polygon fill="midnightblue" stroke="midnightblue" points="250.69,-219.72 247.11,-209.75 243.69,-219.78 250.69,-219.72"/>
</g>
<!-- Node26 -->
<g id="node26" class="node">
<title>Node26</title>
<g id="a_node26"><a xlink:href="statusindicators__factory__interface_8hpp.xhtml" target="_top" xlink:title="Dependency injection for the keypad.">
<polygon fill="white" stroke="black" points="755,-313.5 755,-343.5 931,-343.5 931,-313.5 755,-313.5"/>
<text text-anchor="start" x="763" y="-331.5" font-family="Helvetica,sans-Serif" font-size="10.00">user_interaction/statusindicators</text>
<text text-anchor="middle" x="843" y="-320.5" font-family="Helvetica,sans-Serif" font-size="10.00">_factory_interface.hpp</text>
</a>
</g>
</g>
<!-- Node1&#45;&gt;Node26 -->
<g id="edge36" class="edge">
<title>Node1&#45;&gt;Node26</title>
<path fill="none" stroke="midnightblue" d="M544.77,-382C595.64,-373.04 685.27,-357.27 753.03,-345.34"/>
<polygon fill="midnightblue" stroke="midnightblue" points="754.04,-348.71 763.28,-343.53 752.83,-341.82 754.04,-348.71"/>
</g>
<!-- Node5 -->
<g id="node5" class="node">
<title>Node5</title>
<g id="a_node5"><a xlink:title=" ">
<polygon fill="white" stroke="#bfbfbf" points="106,-56.5 106,-75.5 148,-75.5 148,-56.5 106,-56.5"/>
<text text-anchor="middle" x="127" y="-63.5" font-family="Helvetica,sans-Serif" font-size="10.00">array</text>
</a>
</g>
</g>
<!-- Node4&#45;&gt;Node5 -->
<g id="edge4" class="edge">
<title>Node4&#45;&gt;Node5</title>
<path fill="none" stroke="midnightblue" d="M76.64,-112.4C86.63,-103.4 99.58,-91.72 109.85,-82.47"/>
<polygon fill="midnightblue" stroke="midnightblue" points="112.31,-84.95 117.4,-75.66 107.63,-79.75 112.31,-84.95"/>
</g>
<!-- Node6 -->
<g id="node6" class="node">
<title>Node6</title>
<g id="a_node6"><a xlink:title=" ">
<polygon fill="white" stroke="#bfbfbf" points="166.5,-56.5 166.5,-75.5 231.5,-75.5 231.5,-56.5 166.5,-56.5"/>
<text text-anchor="middle" x="199" y="-63.5" font-family="Helvetica,sans-Serif" font-size="10.00">functional</text>
</a>
</g>
</g>
<!-- Node4&#45;&gt;Node6 -->
<g id="edge5" class="edge">
<title>Node4&#45;&gt;Node6</title>
<path fill="none" stroke="midnightblue" d="M93.7,-112.4C116.75,-102.46 147.36,-89.26 169.63,-79.66"/>
<polygon fill="midnightblue" stroke="midnightblue" points="171.12,-82.83 178.92,-75.66 168.35,-76.4 171.12,-82.83"/>
</g>
<!-- Node7 -->
<g id="node7" class="node">
<title>Node7</title>
<g id="a_node7"><a xlink:title=" ">
<polygon fill="white" stroke="#bfbfbf" points="32,-56.5 32,-75.5 88,-75.5 88,-56.5 32,-56.5"/>
<text text-anchor="middle" x="60" y="-63.5" font-family="Helvetica,sans-Serif" font-size="10.00">optional</text>
</a>
</g>
</g>
<!-- Node4&#45;&gt;Node7 -->
<g id="edge6" class="edge">
<title>Node4&#45;&gt;Node7</title>
<path fill="none" stroke="midnightblue" d="M60.76,-112.4C60.63,-104.47 60.46,-94.46 60.32,-85.86"/>
<polygon fill="midnightblue" stroke="midnightblue" points="63.81,-85.6 60.15,-75.66 56.81,-85.72 63.81,-85.6"/>
</g>
<!-- Node8 -->
<g id="node8" class="node">
<title>Node8</title>
<g id="a_node8"><a xlink:title=" ">
<polygon fill="white" stroke="#bfbfbf" points="146.5,-0.5 146.5,-19.5 203.5,-19.5 203.5,-0.5 146.5,-0.5"/>
<text text-anchor="middle" x="175" y="-7.5" font-family="Helvetica,sans-Serif" font-size="10.00">ostream</text>
</a>
</g>
</g>
<!-- Node4&#45;&gt;Node8 -->
<g id="edge7" class="edge">
<title>Node4&#45;&gt;Node8</title>
<path fill="none" stroke="midnightblue" d="M43.94,-112.26C28.32,-97.49 9.52,-74.05 23,-56 48.93,-21.28 100.47,-12.25 136.3,-10.44"/>
<polygon fill="midnightblue" stroke="midnightblue" points="136.54,-13.93 146.41,-10.09 136.3,-6.93 136.54,-13.93"/>
</g>
<!-- Node9 -->
<g id="node9" class="node">
<title>Node9</title>
<g id="a_node9"><a xlink:title=" ">
<polygon fill="white" stroke="#bfbfbf" points="250,-56.5 250,-75.5 294,-75.5 294,-56.5 250,-56.5"/>
<text text-anchor="middle" x="272" y="-63.5" font-family="Helvetica,sans-Serif" font-size="10.00">string</text>
</a>
</g>
</g>
<!-- Node4&#45;&gt;Node9 -->
<g id="edge8" class="edge">
<title>Node4&#45;&gt;Node9</title>
<path fill="none" stroke="midnightblue" d="M111.47,-112.47C145.31,-103.03 191.14,-90.2 240.15,-76.23"/>
<polygon fill="midnightblue" stroke="midnightblue" points="241.34,-79.53 249.99,-73.42 239.41,-72.8 241.34,-79.53"/>
</g>
<!-- Node10&#45;&gt;Node2 -->
<g id="edge10" class="edge">
<title>Node10&#45;&gt;Node2</title>
<path fill="none" stroke="midnightblue" d="M162.02,-318.73C150.15,-308.31 130.11,-290.71 115.62,-277.97"/>
<polygon fill="midnightblue" stroke="midnightblue" points="117.64,-275.1 107.82,-271.13 113.03,-280.36 117.64,-275.1"/>
</g>
<!-- Node10&#45;&gt;Node9 -->
<g id="edge12" class="edge">
<title>Node10&#45;&gt;Node9</title>
<path fill="none" stroke="midnightblue" d="M170.3,-318.87C166.06,-295.64 156.49,-230.06 172,-179 182.21,-145.37 190.42,-138.06 214,-112 224.39,-100.52 237.98,-89.8 249.4,-81.7"/>
<polygon fill="midnightblue" stroke="midnightblue" points="251.72,-84.35 257.99,-75.81 247.76,-78.58 251.72,-84.35"/>
</g>
<!-- Node11 -->
<g id="node11" class="node">
<title>Node11</title>
<g id="a_node11"><a xlink:title=" ">
<polygon fill="white" stroke="#bfbfbf" points="179,-252 179,-271 217,-271 217,-252 179,-252"/>
<text text-anchor="middle" x="198" y="-259" font-family="Helvetica,sans-Serif" font-size="10.00">map</text>
</a>
</g>
</g>
<!-- Node10&#45;&gt;Node11 -->
<g id="edge11" class="edge">
<title>Node10&#45;&gt;Node11</title>
<path fill="none" stroke="midnightblue" d="M175.51,-318.73C179.4,-308.99 185.81,-292.98 190.79,-280.53"/>
<polygon fill="midnightblue" stroke="midnightblue" points="194.08,-281.71 194.55,-271.13 187.59,-279.11 194.08,-281.71"/>
</g>
<!-- Node14 -->
<g id="node14" class="node">
<title>Node14</title>
<g id="a_node14"><a xlink:href="IGuiEngine_8hpp.xhtml" target="_top" xlink:title=" ">
<polygon fill="white" stroke="black" points="374,-185 374,-204 464,-204 464,-185 374,-185"/>
<text text-anchor="middle" x="419" y="-192" font-family="Helvetica,sans-Serif" font-size="10.00">IGuiEngine.hpp</text>
</a>
</g>
</g>
<!-- Node13&#45;&gt;Node14 -->
<g id="edge15" class="edge">
<title>Node13&#45;&gt;Node14</title>
<path fill="none" stroke="midnightblue" d="M355.85,-251.73C367.56,-241.31 387.32,-223.71 401.62,-210.97"/>
<polygon fill="midnightblue" stroke="midnightblue" points="404.17,-213.39 409.31,-204.13 399.51,-208.16 404.17,-213.39"/>
</g>
<!-- Node18 -->
<g id="node18" class="node">
<title>Node18</title>
<g id="a_node18"><a xlink:href="IKeypad_8hpp.xhtml" target="_top" xlink:title=" ">
<polygon fill="white" stroke="black" points="223,-118 223,-137 381,-137 381,-118 223,-118"/>
<text text-anchor="middle" x="302" y="-125" font-family="Helvetica,sans-Serif" font-size="10.00">user_interaction/IKeypad.hpp</text>
</a>
</g>
</g>
<!-- Node13&#45;&gt;Node18 -->
<g id="edge24" class="edge">
<title>Node13&#45;&gt;Node18</title>
<path fill="none" stroke="midnightblue" d="M344.1,-251.81C340.71,-236.77 333.12,-205 324,-179 320.14,-168 314.97,-156.02 310.61,-146.5"/>
<polygon fill="midnightblue" stroke="midnightblue" points="313.71,-144.86 306.3,-137.28 307.37,-147.82 313.71,-144.86"/>
</g>
<!-- Node15 -->
<g id="node15" class="node">
<title>Node15</title>
<g id="a_node15"><a xlink:href="MenuItem_8hpp.xhtml" target="_top" xlink:title=" ">
<polygon fill="white" stroke="black" points="437.5,-118 437.5,-137 524.5,-137 524.5,-118 437.5,-118"/>
<text text-anchor="middle" x="481" y="-125" font-family="Helvetica,sans-Serif" font-size="10.00">MenuItem.hpp</text>
</a>
</g>
</g>
<!-- Node14&#45;&gt;Node15 -->
<g id="edge16" class="edge">
<title>Node14&#45;&gt;Node15</title>
<path fill="none" stroke="midnightblue" d="M427.36,-184.73C437.12,-174.5 453.47,-157.36 465.55,-144.69"/>
<polygon fill="midnightblue" stroke="midnightblue" points="468.4,-146.78 472.77,-137.13 463.34,-141.95 468.4,-146.78"/>
</g>
<!-- Node14&#45;&gt;Node18 -->
<g id="edge20" class="edge">
<title>Node14&#45;&gt;Node18</title>
<path fill="none" stroke="midnightblue" d="M403.22,-184.73C383.49,-173.77 349.49,-154.88 326.39,-142.05"/>
<polygon fill="midnightblue" stroke="midnightblue" points="327.97,-138.92 317.53,-137.13 324.57,-145.04 327.97,-138.92"/>
</g>
<!-- Node15&#45;&gt;Node9 -->
<g id="edge18" class="edge">
<title>Node15&#45;&gt;Node9</title>
<path fill="none" stroke="midnightblue" d="M450.75,-117.98C417.19,-108.51 361.18,-92.67 303.63,-76.17"/>
<polygon fill="midnightblue" stroke="midnightblue" points="304.59,-72.8 294.01,-73.41 302.66,-79.53 304.59,-72.8"/>
</g>
<!-- Node16 -->
<g id="node16" class="node">
<title>Node16</title>
<g id="a_node16"><a xlink:title=" ">
<polygon fill="white" stroke="#bfbfbf" points="456,-56.5 456,-75.5 506,-75.5 506,-56.5 456,-56.5"/>
<text text-anchor="middle" x="481" y="-63.5" font-family="Helvetica,sans-Serif" font-size="10.00">cstdint</text>
</a>
</g>
</g>
<!-- Node15&#45;&gt;Node16 -->
<g id="edge17" class="edge">
<title>Node15&#45;&gt;Node16</title>
<path fill="none" stroke="midnightblue" d="M481,-117.98C481,-109.58 481,-96.48 481,-85.66"/>
<polygon fill="midnightblue" stroke="midnightblue" points="484.5,-85.51 481,-75.51 477.5,-85.51 484.5,-85.51"/>
</g>
<!-- Node17 -->
<g id="node17" class="node">
<title>Node17</title>
<g id="a_node17"><a xlink:title=" ">
<polygon fill="white" stroke="#bfbfbf" points="625.5,-56.5 625.5,-75.5 672.5,-75.5 672.5,-56.5 625.5,-56.5"/>
<text text-anchor="middle" x="649" y="-63.5" font-family="Helvetica,sans-Serif" font-size="10.00">vector</text>
</a>
</g>
</g>
<!-- Node15&#45;&gt;Node17 -->
<g id="edge19" class="edge">
<title>Node15&#45;&gt;Node17</title>
<path fill="none" stroke="midnightblue" d="M505.07,-117.98C534.1,-107.7 583.04,-90.36 615.68,-78.8"/>
<polygon fill="midnightblue" stroke="midnightblue" points="616.99,-82.05 625.25,-75.41 614.65,-75.45 616.99,-82.05"/>
</g>
<!-- Node18&#45;&gt;Node6 -->
<g id="edge23" class="edge">
<title>Node18&#45;&gt;Node6</title>
<path fill="none" stroke="midnightblue" d="M287.24,-117.98C270.34,-108.21 242.42,-92.08 222.51,-80.58"/>
<polygon fill="midnightblue" stroke="midnightblue" points="224.14,-77.48 213.73,-75.51 220.64,-83.54 224.14,-77.48"/>
</g>
<!-- Node19 -->
<g id="node19" class="node">
<title>Node19</title>
<g id="a_node19"><a xlink:href="KeyIds_8hpp.xhtml" target="_top" xlink:title=" ">
<polygon fill="white" stroke="black" points="312,-56.5 312,-75.5 382,-75.5 382,-56.5 312,-56.5"/>
<text text-anchor="middle" x="347" y="-63.5" font-family="Helvetica,sans-Serif" font-size="10.00">KeyIds.hpp</text>
</a>
</g>
</g>
<!-- Node18&#45;&gt;Node19 -->
<g id="edge21" class="edge">
<title>Node18&#45;&gt;Node19</title>
<path fill="none" stroke="midnightblue" d="M308.45,-117.98C315.2,-109.05 325.97,-94.81 334.41,-83.64"/>
<polygon fill="midnightblue" stroke="midnightblue" points="337.32,-85.6 340.56,-75.51 331.74,-81.37 337.32,-85.6"/>
</g>
<!-- Node19&#45;&gt;Node8 -->
<g id="edge22" class="edge">
<title>Node19&#45;&gt;Node8</title>
<path fill="none" stroke="midnightblue" d="M319.75,-56.44C290.56,-47.28 244.08,-32.69 211.69,-22.52"/>
<polygon fill="midnightblue" stroke="midnightblue" points="212.72,-19.17 202.13,-19.52 210.62,-25.85 212.72,-19.17"/>
</g>
<!-- Node20&#45;&gt;Node13 -->
<g id="edge27" class="edge">
<title>Node20&#45;&gt;Node13</title>
<path fill="none" stroke="midnightblue" d="M613.42,-318.94C557.67,-307.17 457.44,-286.02 396.79,-273.22"/>
<polygon fill="midnightblue" stroke="midnightblue" points="397.18,-269.72 386.67,-271.08 395.73,-276.57 397.18,-269.72"/>
</g>
<!-- Node20&#45;&gt;Node17 -->
<g id="edge29" class="edge">
<title>Node20&#45;&gt;Node17</title>
<path fill="none" stroke="midnightblue" d="M653.83,-318.83C653.13,-281.98 650.36,-137.83 649.36,-85.83"/>
<polygon fill="midnightblue" stroke="midnightblue" points="652.86,-85.63 649.17,-75.7 645.86,-85.77 652.86,-85.63"/>
</g>
<!-- Node21 -->
<g id="node21" class="node">
<title>Node21</title>
<g id="a_node21"><a xlink:href="IStatusIndicator_8hpp.xhtml" target="_top" xlink:title=" ">
<polygon fill="white" stroke="black" points="748.5,-252 748.5,-271 861.5,-271 861.5,-252 748.5,-252"/>
<text text-anchor="middle" x="805" y="-259" font-family="Helvetica,sans-Serif" font-size="10.00">IStatusIndicator.hpp</text>
</a>
</g>
</g>
<!-- Node20&#45;&gt;Node21 -->
<g id="edge26" class="edge">
<title>Node20&#45;&gt;Node21</title>
<path fill="none" stroke="midnightblue" d="M674.05,-318.87C700,-307.7 745.42,-288.15 775.36,-275.26"/>
<polygon fill="midnightblue" stroke="midnightblue" points="777.06,-278.34 784.87,-271.17 774.3,-271.91 777.06,-278.34"/>
</g>
<!-- Node22 -->
<g id="node22" class="node">
<title>Node22</title>
<g id="a_node22"><a xlink:title=" ">
<polygon fill="white" stroke="#bfbfbf" points="677.5,-252 677.5,-271 730.5,-271 730.5,-252 677.5,-252"/>
<text text-anchor="middle" x="704" y="-259" font-family="Helvetica,sans-Serif" font-size="10.00">cstddef</text>
</a>
</g>
</g>
<!-- Node20&#45;&gt;Node22 -->
<g id="edge28" class="edge">
<title>Node20&#45;&gt;Node22</title>
<path fill="none" stroke="midnightblue" d="M660.74,-318.73C668.54,-308.6 681.55,-291.69 691.26,-279.06"/>
<polygon fill="midnightblue" stroke="midnightblue" points="694.04,-281.19 697.36,-271.13 688.49,-276.92 694.04,-281.19"/>
</g>
<!-- Node23&#45;&gt;Node19 -->
<g id="edge31" class="edge">
<title>Node23&#45;&gt;Node19</title>
<path fill="none" stroke="midnightblue" d="M507.15,-179.46C482.97,-170.84 453.22,-158.47 429,-143 414.84,-133.95 382.32,-102.38 362.76,-82.89"/>
<polygon fill="midnightblue" stroke="midnightblue" points="365.03,-80.21 355.49,-75.61 360.08,-85.16 365.03,-80.21"/>
</g>
<!-- Node24&#45;&gt;Node14 -->
<g id="edge33" class="edge">
<title>Node24&#45;&gt;Node14</title>
<path fill="none" stroke="midnightblue" d="M490.25,-246.4C475.14,-235.6 454.36,-220.76 439.14,-209.89"/>
<polygon fill="midnightblue" stroke="midnightblue" points="441.08,-206.97 430.91,-204.01 437.01,-212.67 441.08,-206.97"/>
</g>
<!-- Node25&#45;&gt;Node18 -->
<g id="edge35" class="edge">
<title>Node25&#45;&gt;Node18</title>
<path fill="none" stroke="midnightblue" d="M259.72,-179.4C268.14,-169.26 279.51,-155.57 288.34,-144.94"/>
<polygon fill="midnightblue" stroke="midnightblue" points="291.08,-147.12 294.78,-137.19 285.69,-142.65 291.08,-147.12"/>
</g>
<!-- Node26&#45;&gt;Node17 -->
<g id="edge38" class="edge">
<title>Node26&#45;&gt;Node17</title>
<path fill="none" stroke="midnightblue" d="M854.5,-313.27C866.4,-296.69 881.84,-268.67 871,-246 830.56,-161.45 728.54,-104.07 678.12,-79.9"/>
<polygon fill="midnightblue" stroke="midnightblue" points="679.59,-76.72 669.05,-75.65 676.62,-83.06 679.59,-76.72"/>
</g>
<!-- Node26&#45;&gt;Node21 -->
<g id="edge37" class="edge">
<title>Node26&#45;&gt;Node21</title>
<path fill="none" stroke="midnightblue" d="M834.75,-313.4C829.01,-303.56 821.3,-290.38 815.17,-279.89"/>
<polygon fill="midnightblue" stroke="midnightblue" points="818.15,-278.06 810.08,-271.19 812.11,-281.59 818.15,-278.06"/>
</g>
</g>
</svg>
