<?xml version="1.0" encoding="UTF-8" standalone="no"?>
<!DOCTYPE svg PUBLIC "-//W3C//DTD SVG 1.1//EN"
 "http://www.w3.org/Graphics/SVG/1.1/DTD/svg11.dtd">
<!-- Generated by graphviz version 2.43.0 (0)
 -->
<!-- Title: src/main.cpp Pages: 1 -->
<svg width="1305pt" height="408pt"
 viewBox="0.00 0.00 1305.00 408.00" xmlns="http://www.w3.org/2000/svg" xmlns:xlink="http://www.w3.org/1999/xlink">
<g id="graph0" class="graph" transform="scale(1 1) rotate(0) translate(4 404)">
<title>src/main.cpp</title>
<polygon fill="white" stroke="transparent" points="-4,4 -4,-404 1301,-404 1301,4 -4,4"/>
<!-- Node1 -->
<g id="node1" class="node">
<title>Node1</title>
<g id="a_node1"><a xlink:title=" ">
<polygon fill="#bfbfbf" stroke="black" points="591.5,-380.5 591.5,-399.5 670.5,-399.5 670.5,-380.5 591.5,-380.5"/>
<text text-anchor="middle" x="631" y="-387.5" font-family="Helvetica,sans-Serif" font-size="10.00">src/main.cpp</text>
</a>
</g>
</g>
<!-- Node2 -->
<g id="node2" class="node">
<title>Node2</title>
<g id="a_node2"><a xlink:title=" ">
<polygon fill="white" stroke="#bfbfbf" points="249,-252 249,-271 299,-271 299,-252 249,-252"/>
<text text-anchor="middle" x="274" y="-259" font-family="Helvetica,sans-Serif" font-size="10.00">chrono</text>
</a>
</g>
</g>
<!-- Node1&#45;&gt;Node2 -->
<g id="edge1" class="edge">
<title>Node1&#45;&gt;Node2</title>
<path fill="none" stroke="midnightblue" d="M591.37,-387.56C517.74,-384.19 363.38,-373.7 320,-344 298.04,-328.97 285.35,-299.82 279.06,-280.76"/>
<polygon fill="midnightblue" stroke="midnightblue" points="282.39,-279.68 276.14,-271.13 275.69,-281.71 282.39,-279.68"/>
</g>
<!-- Node3 -->
<g id="node3" class="node">
<title>Node3</title>
<g id="a_node3"><a xlink:href="Protocol_8hpp.xhtml" target="_top" xlink:title=" ">
<polygon fill="white" stroke="black" points="1075,-319 1075,-338 1231,-338 1231,-319 1075,-319"/>
<text text-anchor="middle" x="1153" y="-326" font-family="Helvetica,sans-Serif" font-size="10.00">serial_interface/Protocol.hpp</text>
</a>
</g>
</g>
<!-- Node1&#45;&gt;Node3 -->
<g id="edge2" class="edge">
<title>Node1&#45;&gt;Node3</title>
<path fill="none" stroke="midnightblue" d="M670.68,-385.73C747.28,-379.22 920.78,-363.59 1066,-344 1075.46,-342.72 1085.47,-341.21 1095.21,-339.65"/>
<polygon fill="midnightblue" stroke="midnightblue" points="1095.91,-343.08 1105.22,-338.01 1094.78,-336.17 1095.91,-343.08"/>
</g>
<!-- Node4 -->
<g id="node4" class="node">
<title>Node4</title>
<g id="a_node4"><a xlink:href="serial__port_8hpp.xhtml" target="_top" xlink:title=" ">
<polygon fill="white" stroke="black" points="272,-112.5 272,-142.5 394,-142.5 394,-112.5 272,-112.5"/>
<text text-anchor="start" x="280" y="-130.5" font-family="Helvetica,sans-Serif" font-size="10.00">serial_interface/serial</text>
<text text-anchor="middle" x="333" y="-119.5" font-family="Helvetica,sans-Serif" font-size="10.00">_port.hpp</text>
</a>
</g>
</g>
<!-- Node1&#45;&gt;Node4 -->
<g id="edge3" class="edge">
<title>Node1&#45;&gt;Node4</title>
<path fill="none" stroke="midnightblue" d="M637.19,-380.46C647.5,-366.28 668.97,-337.06 688,-313 700.92,-296.66 710.91,-296.58 718,-277 722.69,-264.05 725.86,-257.31 718,-246 682,-194.19 505.28,-157.02 404.24,-139.6"/>
<polygon fill="midnightblue" stroke="midnightblue" points="404.55,-136.11 394.1,-137.88 403.37,-143.01 404.55,-136.11"/>
</g>
<!-- Node10 -->
<g id="node10" class="node">
<title>Node10</title>
<g id="a_node10"><a xlink:href="Task_8hpp.xhtml" target="_top" xlink:title=" ">
<polygon fill="white" stroke="black" points="329.5,-319 329.5,-338 418.5,-338 418.5,-319 329.5,-319"/>
<text text-anchor="middle" x="374" y="-326" font-family="Helvetica,sans-Serif" font-size="10.00">tasks/Task.hpp</text>
</a>
</g>
</g>
<!-- Node1&#45;&gt;Node10 -->
<g id="edge9" class="edge">
<title>Node1&#45;&gt;Node10</title>
<path fill="none" stroke="midnightblue" d="M594.18,-380.48C548.47,-369.89 470.47,-351.84 420.63,-340.3"/>
<polygon fill="midnightblue" stroke="midnightblue" points="421.29,-336.85 410.75,-338.01 419.71,-343.67 421.29,-336.85"/>
</g>
<!-- Node12 -->
<g id="node12" class="node">
<title>Node12</title>
<g id="a_node12"><a xlink:title=" ">
<polygon fill="white" stroke="#bfbfbf" points="1249,-319 1249,-338 1297,-338 1297,-319 1249,-319"/>
<text text-anchor="middle" x="1273" y="-326" font-family="Helvetica,sans-Serif" font-size="10.00">thread</text>
</a>
</g>
</g>
<!-- Node1&#45;&gt;Node12 -->
<g id="edge13" class="edge">
<title>Node1&#45;&gt;Node12</title>
<path fill="none" stroke="midnightblue" d="M670.78,-387.82C788.13,-384.07 1131.46,-371.01 1240,-344 1242.36,-343.41 1244.76,-342.67 1247.13,-341.83"/>
<polygon fill="midnightblue" stroke="midnightblue" points="1248.64,-345 1256.6,-338.02 1246.02,-338.51 1248.64,-345"/>
</g>
<!-- Node13 -->
<g id="node13" class="node">
<title>Node13</title>
<g id="a_node13"><a xlink:href="Menu_8hpp.xhtml" target="_top" xlink:title=" ">
<polygon fill="white" stroke="black" points="563,-252 563,-271 709,-271 709,-252 563,-252"/>
<text text-anchor="middle" x="636" y="-259" font-family="Helvetica,sans-Serif" font-size="10.00">user_interaction/Menu.hpp</text>
</a>
</g>
</g>
<!-- Node1&#45;&gt;Node13 -->
<g id="edge14" class="edge">
<title>Node1&#45;&gt;Node13</title>
<path fill="none" stroke="midnightblue" d="M631.34,-380.31C632.15,-359.99 634.16,-309.05 635.26,-281.28"/>
<polygon fill="midnightblue" stroke="midnightblue" points="638.76,-281.39 635.65,-271.26 631.76,-281.11 638.76,-281.39"/>
</g>
<!-- Node19 -->
<g id="node19" class="node">
<title>Node19</title>
<g id="a_node19"><a xlink:href="Presenter_8hpp.xhtml" target="_top" xlink:title=" ">
<polygon fill="white" stroke="black" points="697.5,-319 697.5,-338 862.5,-338 862.5,-319 697.5,-319"/>
<text text-anchor="middle" x="780" y="-326" font-family="Helvetica,sans-Serif" font-size="10.00">user_interaction/Presenter.hpp</text>
</a>
</g>
</g>
<!-- Node1&#45;&gt;Node19 -->
<g id="edge24" class="edge">
<title>Node1&#45;&gt;Node19</title>
<path fill="none" stroke="midnightblue" d="M652.35,-380.48C677.69,-370.36 720.14,-353.4 749.07,-341.85"/>
<polygon fill="midnightblue" stroke="midnightblue" points="750.7,-344.97 758.69,-338.01 748.11,-338.47 750.7,-344.97"/>
</g>
<!-- Node22 -->
<g id="node22" class="node">
<title>Node22</title>
<g id="a_node22"><a xlink:href="ProcessHmiInputs_8hpp.xhtml" target="_top" xlink:title=" ">
<polygon fill="white" stroke="black" points="0,-179.5 0,-209.5 136,-209.5 136,-179.5 0,-179.5"/>
<text text-anchor="start" x="8" y="-197.5" font-family="Helvetica,sans-Serif" font-size="10.00">user_interaction/Process</text>
<text text-anchor="middle" x="68" y="-186.5" font-family="Helvetica,sans-Serif" font-size="10.00">HmiInputs.hpp</text>
</a>
</g>
</g>
<!-- Node1&#45;&gt;Node22 -->
<g id="edge29" class="edge">
<title>Node1&#45;&gt;Node22</title>
<path fill="none" stroke="midnightblue" d="M591.41,-386.99C507.63,-382.3 315.15,-369.09 255,-344 184.51,-314.6 118.63,-250.61 87.23,-217.04"/>
<polygon fill="midnightblue" stroke="midnightblue" points="89.71,-214.56 80.36,-209.58 84.56,-219.31 89.71,-214.56"/>
</g>
<!-- Node23 -->
<g id="node23" class="node">
<title>Node23</title>
<g id="a_node23"><a xlink:href="display__factory__interface_8hpp.xhtml" target="_top" xlink:title="Dependency injection for the display.">
<polygon fill="white" stroke="black" points="411,-246.5 411,-276.5 545,-276.5 545,-246.5 411,-246.5"/>
<text text-anchor="start" x="419" y="-264.5" font-family="Helvetica,sans-Serif" font-size="10.00">user_interaction/display</text>
<text text-anchor="middle" x="478" y="-253.5" font-family="Helvetica,sans-Serif" font-size="10.00">_factory_interface.hpp</text>
</a>
</g>
</g>
<!-- Node1&#45;&gt;Node23 -->
<g id="edge31" class="edge">
<title>Node1&#45;&gt;Node23</title>
<path fill="none" stroke="midnightblue" d="M620.48,-380.31C596.58,-360.54 537.62,-311.79 503.5,-283.59"/>
<polygon fill="midnightblue" stroke="midnightblue" points="505.34,-280.56 495.4,-276.89 500.88,-285.96 505.34,-280.56"/>
</g>
<!-- Node24 -->
<g id="node24" class="node">
<title>Node24</title>
<g id="a_node24"><a xlink:href="keypad__factory__interface_8hpp.xhtml" target="_top" xlink:title="Dependency injection for the keypad.">
<polygon fill="white" stroke="black" points="154,-179.5 154,-209.5 288,-209.5 288,-179.5 154,-179.5"/>
<text text-anchor="start" x="162" y="-197.5" font-family="Helvetica,sans-Serif" font-size="10.00">user_interaction/keypad</text>
<text text-anchor="middle" x="221" y="-186.5" font-family="Helvetica,sans-Serif" font-size="10.00">_factory_interface.hpp</text>
</a>
</g>
</g>
<!-- Node1&#45;&gt;Node24 -->
<g id="edge33" class="edge">
<title>Node1&#45;&gt;Node24</title>
<path fill="none" stroke="midnightblue" d="M591.3,-387.6C512.67,-384.2 340.35,-373.53 290,-344 245.75,-318.04 229.6,-254.88 223.92,-219.87"/>
<polygon fill="midnightblue" stroke="midnightblue" points="227.32,-218.97 222.42,-209.58 220.4,-219.98 227.32,-218.97"/>
</g>
<!-- Node25 -->
<g id="node25" class="node">
<title>Node25</title>
<g id="a_node25"><a xlink:href="statusindicators__factory__interface_8hpp.xhtml" target="_top" xlink:title="Dependency injection for the keypad.">
<polygon fill="white" stroke="black" points="881,-313.5 881,-343.5 1057,-343.5 1057,-313.5 881,-313.5"/>
<text text-anchor="start" x="889" y="-331.5" font-family="Helvetica,sans-Serif" font-size="10.00">user_interaction/statusindicators</text>
<text text-anchor="middle" x="969" y="-320.5" font-family="Helvetica,sans-Serif" font-size="10.00">_factory_interface.hpp</text>
</a>
</g>
</g>
<!-- Node1&#45;&gt;Node25 -->
<g id="edge35" class="edge">
<title>Node1&#45;&gt;Node25</title>
<path fill="none" stroke="midnightblue" d="M670.77,-382C721.64,-373.04 811.27,-357.27 879.03,-345.34"/>
<polygon fill="midnightblue" stroke="midnightblue" points="880.04,-348.71 889.28,-343.53 878.83,-341.82 880.04,-348.71"/>
</g>
<!-- Node5 -->
<g id="node5" class="node">
<title>Node5</title>
<g id="a_node5"><a xlink:title=" ">
<polygon fill="white" stroke="#bfbfbf" points="236,-56.5 236,-75.5 278,-75.5 278,-56.5 236,-56.5"/>
<text text-anchor="middle" x="257" y="-63.5" font-family="Helvetica,sans-Serif" font-size="10.00">array</text>
</a>
</g>
</g>
<!-- Node4&#45;&gt;Node5 -->
<g id="edge4" class="edge">
<title>Node4&#45;&gt;Node5</title>
<path fill="none" stroke="midnightblue" d="M314.99,-112.4C303.26,-103.22 287.98,-91.26 276.06,-81.92"/>
<polygon fill="midnightblue" stroke="midnightblue" points="278.09,-79.07 268.06,-75.66 273.78,-84.58 278.09,-79.07"/>
</g>
<!-- Node6 -->
<g id="node6" class="node">
<title>Node6</title>
<g id="a_node6"><a xlink:title=" ">
<polygon fill="white" stroke="#bfbfbf" points="152.5,-56.5 152.5,-75.5 217.5,-75.5 217.5,-56.5 152.5,-56.5"/>
<text text-anchor="middle" x="185" y="-63.5" font-family="Helvetica,sans-Serif" font-size="10.00">functional</text>
</a>
</g>
</g>
<!-- Node4&#45;&gt;Node6 -->
<g id="edge5" class="edge">
<title>Node4&#45;&gt;Node6</title>
<path fill="none" stroke="midnightblue" d="M297.93,-112.4C272.98,-102.37 239.79,-89.03 215.86,-79.4"/>
<polygon fill="midnightblue" stroke="midnightblue" points="217.12,-76.14 206.54,-75.66 214.51,-82.64 217.12,-76.14"/>
</g>
<!-- Node7 -->
<g id="node7" class="node">
<title>Node7</title>
<g id="a_node7"><a xlink:title=" ">
<polygon fill="white" stroke="#bfbfbf" points="296,-56.5 296,-75.5 352,-75.5 352,-56.5 296,-56.5"/>
<text text-anchor="middle" x="324" y="-63.5" font-family="Helvetica,sans-Serif" font-size="10.00">optional</text>
</a>
</g>
</g>
<!-- Node4&#45;&gt;Node7 -->
<g id="edge6" class="edge">
<title>Node4&#45;&gt;Node7</title>
<path fill="none" stroke="midnightblue" d="M330.87,-112.4C329.65,-104.38 328.12,-94.23 326.81,-85.57"/>
<polygon fill="midnightblue" stroke="midnightblue" points="330.27,-85.02 325.31,-75.66 323.34,-86.07 330.27,-85.02"/>
</g>
<!-- Node8 -->
<g id="node8" class="node">
<title>Node8</title>
<g id="a_node8"><a xlink:title=" ">
<polygon fill="white" stroke="#bfbfbf" points="210.5,-0.5 210.5,-19.5 267.5,-19.5 267.5,-0.5 210.5,-0.5"/>
<text text-anchor="middle" x="239" y="-7.5" font-family="Helvetica,sans-Serif" font-size="10.00">ostream</text>
</a>
</g>
</g>
<!-- Node4&#45;&gt;Node8 -->
<g id="edge7" class="edge">
<title>Node4&#45;&gt;Node8</title>
<path fill="none" stroke="midnightblue" d="M346.26,-112.32C358.57,-97.38 373.27,-73.61 361,-56 342.32,-29.2 305.77,-18.32 277.52,-13.92"/>
<polygon fill="midnightblue" stroke="midnightblue" points="277.92,-10.44 267.54,-12.58 276.98,-17.38 277.92,-10.44"/>
</g>
<!-- Node9 -->
<g id="node9" class="node">
<title>Node9</title>
<g id="a_node9"><a xlink:title=" ">
<polygon fill="white" stroke="#bfbfbf" points="408,-56.5 408,-75.5 452,-75.5 452,-56.5 408,-56.5"/>
<text text-anchor="middle" x="430" y="-63.5" font-family="Helvetica,sans-Serif" font-size="10.00">string</text>
</a>
</g>
</g>
<!-- Node4&#45;&gt;Node9 -->
<g id="edge8" class="edge">
<title>Node4&#45;&gt;Node9</title>
<path fill="none" stroke="midnightblue" d="M355.99,-112.4C371.39,-102.95 391.59,-90.56 407,-81.11"/>
<polygon fill="midnightblue" stroke="midnightblue" points="409.19,-83.87 415.89,-75.66 405.53,-77.9 409.19,-83.87"/>
</g>
<!-- Node10&#45;&gt;Node2 -->
<g id="edge10" class="edge">
<title>Node10&#45;&gt;Node2</title>
<path fill="none" stroke="midnightblue" d="M360.51,-318.73C343.95,-307.96 315.62,-289.55 295.91,-276.74"/>
<polygon fill="midnightblue" stroke="midnightblue" points="297.56,-273.64 287.27,-271.13 293.75,-279.51 297.56,-273.64"/>
</g>
<!-- Node10&#45;&gt;Node9 -->
<g id="edge12" class="edge">
<title>Node10&#45;&gt;Node9</title>
<path fill="none" stroke="midnightblue" d="M375.86,-318.83C383.8,-281.9 414.9,-137.22 426.02,-85.5"/>
<polygon fill="midnightblue" stroke="midnightblue" points="429.45,-86.21 428.13,-75.7 422.61,-84.74 429.45,-86.21"/>
</g>
<!-- Node11 -->
<g id="node11" class="node">
<title>Node11</title>
<g id="a_node11"><a xlink:title=" ">
<polygon fill="white" stroke="#bfbfbf" points="317,-252 317,-271 355,-271 355,-252 317,-252"/>
<text text-anchor="middle" x="336" y="-259" font-family="Helvetica,sans-Serif" font-size="10.00">map</text>
</a>
</g>
</g>
<!-- Node10&#45;&gt;Node11 -->
<g id="edge11" class="edge">
<title>Node10&#45;&gt;Node11</title>
<path fill="none" stroke="midnightblue" d="M368.88,-318.73C363.06,-308.79 353.44,-292.34 346.11,-279.79"/>
<polygon fill="midnightblue" stroke="midnightblue" points="349.11,-277.99 341.04,-271.13 343.07,-281.53 349.11,-277.99"/>
</g>
<!-- Node14 -->
<g id="node14" class="node">
<title>Node14</title>
<g id="a_node14"><a xlink:href="IDisplay_8hpp.xhtml" target="_top" xlink:title=" ">
<polygon fill="white" stroke="black" points="453,-185 453,-204 529,-204 529,-185 453,-185"/>
<text text-anchor="middle" x="491" y="-192" font-family="Helvetica,sans-Serif" font-size="10.00">IDisplay.hpp</text>
</a>
</g>
</g>
<!-- Node13&#45;&gt;Node14 -->
<g id="edge15" class="edge">
<title>Node13&#45;&gt;Node14</title>
<path fill="none" stroke="midnightblue" d="M616.75,-251.87C591.83,-240.7 548.21,-221.15 519.47,-208.26"/>
<polygon fill="midnightblue" stroke="midnightblue" points="520.89,-205.06 510.33,-204.17 518.03,-211.45 520.89,-205.06"/>
</g>
<!-- Node17 -->
<g id="node17" class="node">
<title>Node17</title>
<g id="a_node17"><a xlink:href="IKeypad_8hpp.xhtml" target="_top" xlink:title=" ">
<polygon fill="white" stroke="black" points="96,-118 96,-137 254,-137 254,-118 96,-118"/>
<text text-anchor="middle" x="175" y="-125" font-family="Helvetica,sans-Serif" font-size="10.00">user_interaction/IKeypad.hpp</text>
</a>
</g>
</g>
<!-- Node13&#45;&gt;Node17 -->
<g id="edge23" class="edge">
<title>Node13&#45;&gt;Node17</title>
<path fill="none" stroke="midnightblue" d="M601.91,-251.94C563.44,-242.18 499.05,-225.57 444,-210 360.58,-186.4 263.39,-156.31 211.72,-140.1"/>
<polygon fill="midnightblue" stroke="midnightblue" points="212.6,-136.7 202.01,-137.05 210.5,-143.38 212.6,-136.7"/>
</g>
<!-- Node15 -->
<g id="node15" class="node">
<title>Node15</title>
<g id="a_node15"><a xlink:href="MenuItem_8hpp.xhtml" target="_top" xlink:title=" ">
<polygon fill="white" stroke="black" points="450.5,-118 450.5,-137 537.5,-137 537.5,-118 450.5,-118"/>
<text text-anchor="middle" x="494" y="-125" font-family="Helvetica,sans-Serif" font-size="10.00">MenuItem.hpp</text>
</a>
</g>
</g>
<!-- Node14&#45;&gt;Node15 -->
<g id="edge16" class="edge">
<title>Node14&#45;&gt;Node15</title>
<path fill="none" stroke="midnightblue" d="M491.4,-184.73C491.85,-175.18 492.56,-159.62 493.13,-147.28"/>
<polygon fill="midnightblue" stroke="midnightblue" points="496.64,-147.28 493.6,-137.13 489.64,-146.96 496.64,-147.28"/>
</g>
<!-- Node14&#45;&gt;Node17 -->
<g id="edge19" class="edge">
<title>Node14&#45;&gt;Node17</title>
<path fill="none" stroke="midnightblue" d="M461.39,-184.96C453.8,-182.9 445.62,-180.77 438,-179 369.08,-162.98 289.15,-148.16 235.67,-138.77"/>
<polygon fill="midnightblue" stroke="midnightblue" points="236.12,-135.3 225.66,-137.03 234.91,-142.2 236.12,-135.3"/>
</g>
<!-- Node15&#45;&gt;Node9 -->
<g id="edge17" class="edge">
<title>Node15&#45;&gt;Node9</title>
<path fill="none" stroke="midnightblue" d="M484.83,-117.98C474.85,-108.7 458.69,-93.67 446.49,-82.33"/>
<polygon fill="midnightblue" stroke="midnightblue" points="448.86,-79.75 439.15,-75.51 444.09,-84.88 448.86,-79.75"/>
</g>
<!-- Node16 -->
<g id="node16" class="node">
<title>Node16</title>
<g id="a_node16"><a xlink:title=" ">
<polygon fill="white" stroke="#bfbfbf" points="751.5,-56.5 751.5,-75.5 798.5,-75.5 798.5,-56.5 751.5,-56.5"/>
<text text-anchor="middle" x="775" y="-63.5" font-family="Helvetica,sans-Serif" font-size="10.00">vector</text>
</a>
</g>
</g>
<!-- Node15&#45;&gt;Node16 -->
<g id="edge18" class="edge">
<title>Node15&#45;&gt;Node16</title>
<path fill="none" stroke="midnightblue" d="M534.26,-117.98C589.91,-106.19 689.35,-85.14 741.3,-74.14"/>
<polygon fill="midnightblue" stroke="midnightblue" points="742.27,-77.51 751.33,-72.01 740.82,-70.66 742.27,-77.51"/>
</g>
<!-- Node17&#45;&gt;Node6 -->
<g id="edge22" class="edge">
<title>Node17&#45;&gt;Node6</title>
<path fill="none" stroke="midnightblue" d="M176.43,-117.98C177.84,-109.58 180.05,-96.48 181.86,-85.66"/>
<polygon fill="midnightblue" stroke="midnightblue" points="185.36,-85.95 183.57,-75.51 178.46,-84.79 185.36,-85.95"/>
</g>
<!-- Node18 -->
<g id="node18" class="node">
<title>Node18</title>
<g id="a_node18"><a xlink:href="KeyIds_8hpp.xhtml" target="_top" xlink:title=" ">
<polygon fill="white" stroke="black" points="64,-56.5 64,-75.5 134,-75.5 134,-56.5 64,-56.5"/>
<text text-anchor="middle" x="99" y="-63.5" font-family="Helvetica,sans-Serif" font-size="10.00">KeyIds.hpp</text>
</a>
</g>
</g>
<!-- Node17&#45;&gt;Node18 -->
<g id="edge20" class="edge">
<title>Node17&#45;&gt;Node18</title>
<path fill="none" stroke="midnightblue" d="M164.11,-117.98C152.03,-108.52 132.33,-93.1 117.76,-81.69"/>
<polygon fill="midnightblue" stroke="midnightblue" points="119.9,-78.92 109.87,-75.51 115.59,-84.43 119.9,-78.92"/>
</g>
<!-- Node18&#45;&gt;Node8 -->
<g id="edge21" class="edge">
<title>Node18&#45;&gt;Node8</title>
<path fill="none" stroke="midnightblue" d="M121.18,-56.44C144.43,-47.48 181.15,-33.31 207.42,-23.18"/>
<polygon fill="midnightblue" stroke="midnightblue" points="208.85,-26.38 216.92,-19.52 206.33,-19.85 208.85,-26.38"/>
</g>
<!-- Node19&#45;&gt;Node13 -->
<g id="edge26" class="edge">
<title>Node19&#45;&gt;Node13</title>
<path fill="none" stroke="midnightblue" d="M760.88,-318.87C736.24,-307.75 693.19,-288.32 664.64,-275.43"/>
<polygon fill="midnightblue" stroke="midnightblue" points="665.76,-272.09 655.2,-271.17 662.88,-278.47 665.76,-272.09"/>
</g>
<!-- Node19&#45;&gt;Node16 -->
<g id="edge28" class="edge">
<title>Node19&#45;&gt;Node16</title>
<path fill="none" stroke="midnightblue" d="M779.83,-318.83C779.13,-281.98 776.36,-137.83 775.36,-85.83"/>
<polygon fill="midnightblue" stroke="midnightblue" points="778.86,-85.63 775.17,-75.7 771.86,-85.77 778.86,-85.63"/>
</g>
<!-- Node20 -->
<g id="node20" class="node">
<title>Node20</title>
<g id="a_node20"><a xlink:href="IStatusIndicator_8hpp.xhtml" target="_top" xlink:title=" ">
<polygon fill="white" stroke="black" points="874.5,-252 874.5,-271 987.5,-271 987.5,-252 874.5,-252"/>
<text text-anchor="middle" x="931" y="-259" font-family="Helvetica,sans-Serif" font-size="10.00">IStatusIndicator.hpp</text>
</a>
</g>
</g>
<!-- Node19&#45;&gt;Node20 -->
<g id="edge25" class="edge">
<title>Node19&#45;&gt;Node20</title>
<path fill="none" stroke="midnightblue" d="M800.05,-318.87C826,-307.7 871.42,-288.15 901.36,-275.26"/>
<polygon fill="midnightblue" stroke="midnightblue" points="903.06,-278.34 910.87,-271.17 900.3,-271.91 903.06,-278.34"/>
</g>
<!-- Node21 -->
<g id="node21" class="node">
<title>Node21</title>
<g id="a_node21"><a xlink:title=" ">
<polygon fill="white" stroke="#bfbfbf" points="803.5,-252 803.5,-271 856.5,-271 856.5,-252 803.5,-252"/>
<text text-anchor="middle" x="830" y="-259" font-family="Helvetica,sans-Serif" font-size="10.00">cstddef</text>
</a>
</g>
</g>
<!-- Node19&#45;&gt;Node21 -->
<g id="edge27" class="edge">
<title>Node19&#45;&gt;Node21</title>
<path fill="none" stroke="midnightblue" d="M786.74,-318.73C794.54,-308.6 807.55,-291.69 817.26,-279.06"/>
<polygon fill="midnightblue" stroke="midnightblue" points="820.04,-281.19 823.36,-271.13 814.49,-276.92 820.04,-281.19"/>
</g>
<!-- Node22&#45;&gt;Node18 -->
<g id="edge30" class="edge">
<title>Node22&#45;&gt;Node18</title>
<path fill="none" stroke="midnightblue" d="M71.16,-179.33C74.83,-163.05 81.12,-135.54 87,-112 89.18,-103.26 91.74,-93.61 93.93,-85.49"/>
<polygon fill="midnightblue" stroke="midnightblue" points="97.37,-86.17 96.62,-75.61 90.62,-84.34 97.37,-86.17"/>
</g>
<!-- Node23&#45;&gt;Node14 -->
<g id="edge32" class="edge">
<title>Node23&#45;&gt;Node14</title>
<path fill="none" stroke="midnightblue" d="M480.82,-246.4C482.71,-236.96 485.21,-224.45 487.26,-214.19"/>
<polygon fill="midnightblue" stroke="midnightblue" points="490.73,-214.69 489.26,-204.19 483.87,-213.31 490.73,-214.69"/>
</g>
<!-- Node24&#45;&gt;Node17 -->
<g id="edge34" class="edge">
<title>Node24&#45;&gt;Node17</title>
<path fill="none" stroke="midnightblue" d="M211.02,-179.4C203.99,-169.46 194.54,-156.11 187.08,-145.57"/>
<polygon fill="midnightblue" stroke="midnightblue" points="189.79,-143.34 181.15,-137.19 184.07,-147.38 189.79,-143.34"/>
</g>
<!-- Node25&#45;&gt;Node16 -->
<g id="edge37" class="edge">
<title>Node25&#45;&gt;Node16</title>
<path fill="none" stroke="midnightblue" d="M980.5,-313.27C992.4,-296.69 1007.84,-268.67 997,-246 956.56,-161.45 854.54,-104.07 804.12,-79.9"/>
<polygon fill="midnightblue" stroke="midnightblue" points="805.59,-76.72 795.05,-75.65 802.62,-83.06 805.59,-76.72"/>
</g>
<!-- Node25&#45;&gt;Node20 -->
<g id="edge36" class="edge">
<title>Node25&#45;&gt;Node20</title>
<path fill="none" stroke="midnightblue" d="M960.75,-313.4C955.01,-303.56 947.3,-290.38 941.17,-279.89"/>
<polygon fill="midnightblue" stroke="midnightblue" points="944.15,-278.06 936.08,-271.19 938.11,-281.59 944.15,-278.06"/>
</g>
</g>
</svg>
