<?xml version="1.0" encoding="UTF-8" standalone="no"?>
<!DOCTYPE svg PUBLIC "-//W3C//DTD SVG 1.1//EN"
 "http://www.w3.org/Graphics/SVG/1.1/DTD/svg11.dtd">
<!-- Generated by graphviz version 2.43.0 (0)
 -->
<!-- Title: src/main.cpp Pages: 1 -->
<svg width="1170pt" height="408pt"
 viewBox="0.00 0.00 1170.00 408.00" xmlns="http://www.w3.org/2000/svg" xmlns:xlink="http://www.w3.org/1999/xlink">
<g id="graph0" class="graph" transform="scale(1 1) rotate(0) translate(4 404)">
<title>src/main.cpp</title>
<polygon fill="white" stroke="transparent" points="-4,4 -4,-404 1166,-404 1166,4 -4,4"/>
<!-- Node1 -->
<g id="node1" class="node">
<title>Node1</title>
<g id="a_node1"><a xlink:title=" ">
<polygon fill="#bfbfbf" stroke="black" points="456.5,-380.5 456.5,-399.5 535.5,-399.5 535.5,-380.5 456.5,-380.5"/>
<text text-anchor="middle" x="496" y="-387.5" font-family="Helvetica,sans-Serif" font-size="10.00">src/main.cpp</text>
</a>
</g>
</g>
<!-- Node2 -->
<g id="node2" class="node">
<title>Node2</title>
<g id="a_node2"><a xlink:title=" ">
<polygon fill="white" stroke="#bfbfbf" points="73,-252 73,-271 123,-271 123,-252 73,-252"/>
<text text-anchor="middle" x="98" y="-259" font-family="Helvetica,sans-Serif" font-size="10.00">chrono</text>
</a>
</g>
</g>
<!-- Node1&#45;&gt;Node2 -->
<g id="edge1" class="edge">
<title>Node1&#45;&gt;Node2</title>
<path fill="none" stroke="midnightblue" d="M456.43,-389.77C369.86,-390.62 167.43,-387.74 118,-344 100.39,-328.42 97.03,-300.08 96.96,-281.27"/>
<polygon fill="midnightblue" stroke="midnightblue" points="100.46,-281.32 97.23,-271.23 93.46,-281.13 100.46,-281.32"/>
</g>
<!-- Node3 -->
<g id="node3" class="node">
<title>Node3</title>
<g id="a_node3"><a xlink:href="Protocol_8hpp.xhtml" target="_top" xlink:title=" ">
<polygon fill="white" stroke="black" points="940,-319 940,-338 1096,-338 1096,-319 940,-319"/>
<text text-anchor="middle" x="1018" y="-326" font-family="Helvetica,sans-Serif" font-size="10.00">serial_interface/Protocol.hpp</text>
</a>
</g>
</g>
<!-- Node1&#45;&gt;Node3 -->
<g id="edge2" class="edge">
<title>Node1&#45;&gt;Node3</title>
<path fill="none" stroke="midnightblue" d="M535.68,-385.73C612.28,-379.22 785.78,-363.59 931,-344 940.46,-342.72 950.47,-341.21 960.21,-339.65"/>
<polygon fill="midnightblue" stroke="midnightblue" points="960.91,-343.08 970.22,-338.01 959.78,-336.17 960.91,-343.08"/>
</g>
<!-- Node4 -->
<g id="node4" class="node">
<title>Node4</title>
<g id="a_node4"><a xlink:href="serial__port_8hpp.xhtml" target="_top" xlink:title=" ">
<polygon fill="white" stroke="black" points="0,-112.5 0,-142.5 122,-142.5 122,-112.5 0,-112.5"/>
<text text-anchor="start" x="8" y="-130.5" font-family="Helvetica,sans-Serif" font-size="10.00">serial_interface/serial</text>
<text text-anchor="middle" x="61" y="-119.5" font-family="Helvetica,sans-Serif" font-size="10.00">_port.hpp</text>
</a>
</g>
</g>
<!-- Node1&#45;&gt;Node4 -->
<g id="edge3" class="edge">
<title>Node1&#45;&gt;Node4</title>
<path fill="none" stroke="midnightblue" d="M456.27,-389.24C367.07,-389.04 154.24,-384.24 97,-344 36.69,-301.6 47.2,-199.37 55.77,-152.59"/>
<polygon fill="midnightblue" stroke="midnightblue" points="59.21,-153.21 57.7,-142.72 52.34,-151.87 59.21,-153.21"/>
</g>
<!-- Node10 -->
<g id="node10" class="node">
<title>Node10</title>
<g id="a_node10"><a xlink:href="Task_8hpp.xhtml" target="_top" xlink:title=" ">
<polygon fill="white" stroke="black" points="127.5,-319 127.5,-338 216.5,-338 216.5,-319 127.5,-319"/>
<text text-anchor="middle" x="172" y="-326" font-family="Helvetica,sans-Serif" font-size="10.00">tasks/Task.hpp</text>
</a>
</g>
</g>
<!-- Node1&#45;&gt;Node10 -->
<g id="edge9" class="edge">
<title>Node1&#45;&gt;Node10</title>
<path fill="none" stroke="midnightblue" d="M456.32,-383.18C404.36,-375.36 310.5,-360.5 231,-344 225.84,-342.93 220.45,-341.72 215.11,-340.48"/>
<polygon fill="midnightblue" stroke="midnightblue" points="215.52,-336.98 204.98,-338.05 213.89,-343.79 215.52,-336.98"/>
</g>
<!-- Node12 -->
<g id="node12" class="node">
<title>Node12</title>
<g id="a_node12"><a xlink:title=" ">
<polygon fill="white" stroke="#bfbfbf" points="1114,-319 1114,-338 1162,-338 1162,-319 1114,-319"/>
<text text-anchor="middle" x="1138" y="-326" font-family="Helvetica,sans-Serif" font-size="10.00">thread</text>
</a>
</g>
</g>
<!-- Node1&#45;&gt;Node12 -->
<g id="edge13" class="edge">
<title>Node1&#45;&gt;Node12</title>
<path fill="none" stroke="midnightblue" d="M535.78,-387.82C653.13,-384.07 996.46,-371.01 1105,-344 1107.36,-343.41 1109.76,-342.67 1112.13,-341.83"/>
<polygon fill="midnightblue" stroke="midnightblue" points="1113.64,-345 1121.6,-338.02 1111.02,-338.51 1113.64,-345"/>
</g>
<!-- Node13 -->
<g id="node13" class="node">
<title>Node13</title>
<g id="a_node13"><a xlink:href="Menu_8hpp.xhtml" target="_top" xlink:title=" ">
<polygon fill="white" stroke="black" points="273,-252 273,-271 419,-271 419,-252 273,-252"/>
<text text-anchor="middle" x="346" y="-259" font-family="Helvetica,sans-Serif" font-size="10.00">user_interaction/Menu.hpp</text>
</a>
</g>
</g>
<!-- Node1&#45;&gt;Node13 -->
<g id="edge14" class="edge">
<title>Node1&#45;&gt;Node13</title>
<path fill="none" stroke="midnightblue" d="M485.69,-380.31C460.54,-359.09 395.76,-304.46 364.04,-277.72"/>
<polygon fill="midnightblue" stroke="midnightblue" points="366.28,-275.03 356.38,-271.26 361.77,-280.38 366.28,-275.03"/>
</g>
<!-- Node20 -->
<g id="node20" class="node">
<title>Node20</title>
<g id="a_node20"><a xlink:href="Presenter_8hpp.xhtml" target="_top" xlink:title=" ">
<polygon fill="white" stroke="black" points="562.5,-319 562.5,-338 727.5,-338 727.5,-319 562.5,-319"/>
<text text-anchor="middle" x="645" y="-326" font-family="Helvetica,sans-Serif" font-size="10.00">user_interaction/Presenter.hpp</text>
</a>
</g>
</g>
<!-- Node1&#45;&gt;Node20 -->
<g id="edge25" class="edge">
<title>Node1&#45;&gt;Node20</title>
<path fill="none" stroke="midnightblue" d="M517.35,-380.48C542.69,-370.36 585.14,-353.4 614.07,-341.85"/>
<polygon fill="midnightblue" stroke="midnightblue" points="615.7,-344.97 623.69,-338.01 613.11,-338.47 615.7,-344.97"/>
</g>
<!-- Node23 -->
<g id="node23" class="node">
<title>Node23</title>
<g id="a_node23"><a xlink:href="ProcessHmiInputs_8hpp.xhtml" target="_top" xlink:title=" ">
<polygon fill="white" stroke="black" points="472,-179.5 472,-209.5 608,-209.5 608,-179.5 472,-179.5"/>
<text text-anchor="start" x="480" y="-197.5" font-family="Helvetica,sans-Serif" font-size="10.00">user_interaction/Process</text>
<text text-anchor="middle" x="540" y="-186.5" font-family="Helvetica,sans-Serif" font-size="10.00">HmiInputs.hpp</text>
</a>
</g>
</g>
<!-- Node1&#45;&gt;Node23 -->
<g id="edge30" class="edge">
<title>Node1&#45;&gt;Node23</title>
<path fill="none" stroke="midnightblue" d="M502.5,-380.48C522.04,-354.86 578.98,-280.06 580,-277 584.36,-263.93 584.53,-259.01 580,-246 576.36,-235.54 569.55,-225.62 562.57,-217.38"/>
<polygon fill="midnightblue" stroke="midnightblue" points="564.96,-214.81 555.65,-209.75 559.78,-219.51 564.96,-214.81"/>
</g>
<!-- Node24 -->
<g id="node24" class="node">
<title>Node24</title>
<g id="a_node24"><a xlink:href="display__factory__interface_8hpp.xhtml" target="_top" xlink:title="Dependency injection for the display.">
<polygon fill="white" stroke="black" points="437,-246.5 437,-276.5 571,-276.5 571,-246.5 437,-246.5"/>
<text text-anchor="start" x="445" y="-264.5" font-family="Helvetica,sans-Serif" font-size="10.00">user_interaction/display</text>
<text text-anchor="middle" x="504" y="-253.5" font-family="Helvetica,sans-Serif" font-size="10.00">_factory_interface.hpp</text>
</a>
</g>
</g>
<!-- Node1&#45;&gt;Node24 -->
<g id="edge32" class="edge">
<title>Node1&#45;&gt;Node24</title>
<path fill="none" stroke="midnightblue" d="M496.55,-380.31C497.75,-361.3 500.65,-315.47 502.46,-286.9"/>
<polygon fill="midnightblue" stroke="midnightblue" points="505.95,-287.09 503.09,-276.89 498.97,-286.65 505.95,-287.09"/>
</g>
<!-- Node25 -->
<g id="node25" class="node">
<title>Node25</title>
<g id="a_node25"><a xlink:href="keypad__factory__interface_8hpp.xhtml" target="_top" xlink:title="Dependency injection for the keypad.">
<polygon fill="white" stroke="black" points="181,-179.5 181,-209.5 315,-209.5 315,-179.5 181,-179.5"/>
<text text-anchor="start" x="189" y="-197.5" font-family="Helvetica,sans-Serif" font-size="10.00">user_interaction/keypad</text>
<text text-anchor="middle" x="248" y="-186.5" font-family="Helvetica,sans-Serif" font-size="10.00">_factory_interface.hpp</text>
</a>
</g>
</g>
<!-- Node1&#45;&gt;Node25 -->
<g id="edge34" class="edge">
<title>Node1&#45;&gt;Node25</title>
<path fill="none" stroke="midnightblue" d="M456.28,-381.28C403.72,-368.88 312.1,-339.31 264,-277 251.45,-260.74 247.91,-237.35 247.24,-219.79"/>
<polygon fill="midnightblue" stroke="midnightblue" points="250.74,-219.69 247.14,-209.72 243.74,-219.76 250.74,-219.69"/>
</g>
<!-- Node26 -->
<g id="node26" class="node">
<title>Node26</title>
<g id="a_node26"><a xlink:href="statusindicators__factory__interface_8hpp.xhtml" target="_top" xlink:title="Dependency injection for the keypad.">
<polygon fill="white" stroke="black" points="746,-313.5 746,-343.5 922,-343.5 922,-313.5 746,-313.5"/>
<text text-anchor="start" x="754" y="-331.5" font-family="Helvetica,sans-Serif" font-size="10.00">user_interaction/statusindicators</text>
<text text-anchor="middle" x="834" y="-320.5" font-family="Helvetica,sans-Serif" font-size="10.00">_factory_interface.hpp</text>
</a>
</g>
</g>
<!-- Node1&#45;&gt;Node26 -->
<g id="edge36" class="edge">
<title>Node1&#45;&gt;Node26</title>
<path fill="none" stroke="midnightblue" d="M535.77,-382C586.64,-373.04 676.27,-357.27 744.03,-345.34"/>
<polygon fill="midnightblue" stroke="midnightblue" points="745.04,-348.71 754.28,-343.53 743.83,-341.82 745.04,-348.71"/>
</g>
<!-- Node5 -->
<g id="node5" class="node">
<title>Node5</title>
<g id="a_node5"><a xlink:title=" ">
<polygon fill="white" stroke="#bfbfbf" points="106,-56.5 106,-75.5 148,-75.5 148,-56.5 106,-56.5"/>
<text text-anchor="middle" x="127" y="-63.5" font-family="Helvetica,sans-Serif" font-size="10.00">array</text>
</a>
</g>
</g>
<!-- Node4&#45;&gt;Node5 -->
<g id="edge4" class="edge">
<title>Node4&#45;&gt;Node5</title>
<path fill="none" stroke="midnightblue" d="M76.64,-112.4C86.63,-103.4 99.58,-91.72 109.85,-82.47"/>
<polygon fill="midnightblue" stroke="midnightblue" points="112.31,-84.95 117.4,-75.66 107.63,-79.75 112.31,-84.95"/>
</g>
<!-- Node6 -->
<g id="node6" class="node">
<title>Node6</title>
<g id="a_node6"><a xlink:title=" ">
<polygon fill="white" stroke="#bfbfbf" points="166.5,-56.5 166.5,-75.5 231.5,-75.5 231.5,-56.5 166.5,-56.5"/>
<text text-anchor="middle" x="199" y="-63.5" font-family="Helvetica,sans-Serif" font-size="10.00">functional</text>
</a>
</g>
</g>
<!-- Node4&#45;&gt;Node6 -->
<g id="edge5" class="edge">
<title>Node4&#45;&gt;Node6</title>
<path fill="none" stroke="midnightblue" d="M93.7,-112.4C116.75,-102.46 147.36,-89.26 169.63,-79.66"/>
<polygon fill="midnightblue" stroke="midnightblue" points="171.12,-82.83 178.92,-75.66 168.35,-76.4 171.12,-82.83"/>
</g>
<!-- Node7 -->
<g id="node7" class="node">
<title>Node7</title>
<g id="a_node7"><a xlink:title=" ">
<polygon fill="white" stroke="#bfbfbf" points="32,-56.5 32,-75.5 88,-75.5 88,-56.5 32,-56.5"/>
<text text-anchor="middle" x="60" y="-63.5" font-family="Helvetica,sans-Serif" font-size="10.00">optional</text>
</a>
</g>
</g>
<!-- Node4&#45;&gt;Node7 -->
<g id="edge6" class="edge">
<title>Node4&#45;&gt;Node7</title>
<path fill="none" stroke="midnightblue" d="M60.76,-112.4C60.63,-104.47 60.46,-94.46 60.32,-85.86"/>
<polygon fill="midnightblue" stroke="midnightblue" points="63.81,-85.6 60.15,-75.66 56.81,-85.72 63.81,-85.6"/>
</g>
<!-- Node8 -->
<g id="node8" class="node">
<title>Node8</title>
<g id="a_node8"><a xlink:title=" ">
<polygon fill="white" stroke="#bfbfbf" points="146.5,-0.5 146.5,-19.5 203.5,-19.5 203.5,-0.5 146.5,-0.5"/>
<text text-anchor="middle" x="175" y="-7.5" font-family="Helvetica,sans-Serif" font-size="10.00">ostream</text>
</a>
</g>
</g>
<!-- Node4&#45;&gt;Node8 -->
<g id="edge7" class="edge">
<title>Node4&#45;&gt;Node8</title>
<path fill="none" stroke="midnightblue" d="M43.94,-112.26C28.32,-97.49 9.52,-74.05 23,-56 48.93,-21.28 100.47,-12.25 136.3,-10.44"/>
<polygon fill="midnightblue" stroke="midnightblue" points="136.54,-13.93 146.41,-10.09 136.3,-6.93 136.54,-13.93"/>
</g>
<!-- Node9 -->
<g id="node9" class="node">
<title>Node9</title>
<g id="a_node9"><a xlink:title=" ">
<polygon fill="white" stroke="#bfbfbf" points="250,-56.5 250,-75.5 294,-75.5 294,-56.5 250,-56.5"/>
<text text-anchor="middle" x="272" y="-63.5" font-family="Helvetica,sans-Serif" font-size="10.00">string</text>
</a>
</g>
</g>
<!-- Node4&#45;&gt;Node9 -->
<g id="edge8" class="edge">
<title>Node4&#45;&gt;Node9</title>
<path fill="none" stroke="midnightblue" d="M111.47,-112.47C145.31,-103.03 191.14,-90.2 240.15,-76.23"/>
<polygon fill="midnightblue" stroke="midnightblue" points="241.34,-79.53 249.99,-73.42 239.41,-72.8 241.34,-79.53"/>
</g>
<!-- Node10&#45;&gt;Node2 -->
<g id="edge10" class="edge">
<title>Node10&#45;&gt;Node2</title>
<path fill="none" stroke="midnightblue" d="M162.02,-318.73C150.15,-308.31 130.11,-290.71 115.62,-277.97"/>
<polygon fill="midnightblue" stroke="midnightblue" points="117.64,-275.1 107.82,-271.13 113.03,-280.36 117.64,-275.1"/>
</g>
<!-- Node10&#45;&gt;Node9 -->
<g id="edge12" class="edge">
<title>Node10&#45;&gt;Node9</title>
<path fill="none" stroke="midnightblue" d="M170.3,-318.87C166.06,-295.64 156.49,-230.06 172,-179 182.21,-145.37 190.42,-138.06 214,-112 224.39,-100.52 237.98,-89.8 249.4,-81.7"/>
<polygon fill="midnightblue" stroke="midnightblue" points="251.72,-84.35 257.99,-75.81 247.76,-78.58 251.72,-84.35"/>
</g>
<!-- Node11 -->
<g id="node11" class="node">
<title>Node11</title>
<g id="a_node11"><a xlink:title=" ">
<polygon fill="white" stroke="#bfbfbf" points="179,-252 179,-271 217,-271 217,-252 179,-252"/>
<text text-anchor="middle" x="198" y="-259" font-family="Helvetica,sans-Serif" font-size="10.00">map</text>
</a>
</g>
</g>
<!-- Node10&#45;&gt;Node11 -->
<g id="edge11" class="edge">
<title>Node10&#45;&gt;Node11</title>
<path fill="none" stroke="midnightblue" d="M175.51,-318.73C179.4,-308.99 185.81,-292.98 190.79,-280.53"/>
<polygon fill="midnightblue" stroke="midnightblue" points="194.08,-281.71 194.55,-271.13 187.59,-279.11 194.08,-281.71"/>
</g>
<!-- Node14 -->
<g id="node14" class="node">
<title>Node14</title>
<g id="a_node14"><a xlink:href="IDisplay_8hpp.xhtml" target="_top" xlink:title=" ">
<polygon fill="white" stroke="black" points="375,-185 375,-204 451,-204 451,-185 375,-185"/>
<text text-anchor="middle" x="413" y="-192" font-family="Helvetica,sans-Serif" font-size="10.00">IDisplay.hpp</text>
</a>
</g>
</g>
<!-- Node13&#45;&gt;Node14 -->
<g id="edge15" class="edge">
<title>Node13&#45;&gt;Node14</title>
<path fill="none" stroke="midnightblue" d="M355.04,-251.73C365.68,-241.4 383.58,-224.04 396.68,-211.33"/>
<polygon fill="midnightblue" stroke="midnightblue" points="399.37,-213.6 404.11,-204.13 394.49,-208.58 399.37,-213.6"/>
</g>
<!-- Node18 -->
<g id="node18" class="node">
<title>Node18</title>
<g id="a_node18"><a xlink:href="IKeypad_8hpp.xhtml" target="_top" xlink:title=" ">
<polygon fill="white" stroke="black" points="223,-118 223,-137 381,-137 381,-118 223,-118"/>
<text text-anchor="middle" x="302" y="-125" font-family="Helvetica,sans-Serif" font-size="10.00">user_interaction/IKeypad.hpp</text>
</a>
</g>
</g>
<!-- Node13&#45;&gt;Node18 -->
<g id="edge24" class="edge">
<title>Node13&#45;&gt;Node18</title>
<path fill="none" stroke="midnightblue" d="M344.1,-251.81C340.71,-236.77 333.12,-205 324,-179 320.14,-168 314.97,-156.02 310.61,-146.5"/>
<polygon fill="midnightblue" stroke="midnightblue" points="313.71,-144.86 306.3,-137.28 307.37,-147.82 313.71,-144.86"/>
</g>
<!-- Node15 -->
<g id="node15" class="node">
<title>Node15</title>
<g id="a_node15"><a xlink:href="MenuItem_8hpp.xhtml" target="_top" xlink:title=" ">
<polygon fill="white" stroke="black" points="437.5,-118 437.5,-137 524.5,-137 524.5,-118 437.5,-118"/>
<text text-anchor="middle" x="481" y="-125" font-family="Helvetica,sans-Serif" font-size="10.00">MenuItem.hpp</text>
</a>
</g>
</g>
<!-- Node14&#45;&gt;Node15 -->
<g id="edge16" class="edge">
<title>Node14&#45;&gt;Node15</title>
<path fill="none" stroke="midnightblue" d="M422.17,-184.73C432.98,-174.4 451.15,-157.04 464.44,-144.33"/>
<polygon fill="midnightblue" stroke="midnightblue" points="467.16,-146.57 471.97,-137.13 462.33,-141.51 467.16,-146.57"/>
</g>
<!-- Node14&#45;&gt;Node18 -->
<g id="edge20" class="edge">
<title>Node14&#45;&gt;Node18</title>
<path fill="none" stroke="midnightblue" d="M398.03,-184.73C379.39,-173.82 347.34,-155.05 325.43,-142.22"/>
<polygon fill="midnightblue" stroke="midnightblue" points="327.13,-139.16 316.73,-137.13 323.59,-145.2 327.13,-139.16"/>
</g>
<!-- Node15&#45;&gt;Node9 -->
<g id="edge18" class="edge">
<title>Node15&#45;&gt;Node9</title>
<path fill="none" stroke="midnightblue" d="M450.75,-117.98C417.19,-108.51 361.18,-92.67 303.63,-76.17"/>
<polygon fill="midnightblue" stroke="midnightblue" points="304.59,-72.8 294.01,-73.41 302.66,-79.53 304.59,-72.8"/>
</g>
<!-- Node16 -->
<g id="node16" class="node">
<title>Node16</title>
<g id="a_node16"><a xlink:title=" ">
<polygon fill="white" stroke="#bfbfbf" points="456,-56.5 456,-75.5 506,-75.5 506,-56.5 456,-56.5"/>
<text text-anchor="middle" x="481" y="-63.5" font-family="Helvetica,sans-Serif" font-size="10.00">cstdint</text>
</a>
</g>
</g>
<!-- Node15&#45;&gt;Node16 -->
<g id="edge17" class="edge">
<title>Node15&#45;&gt;Node16</title>
<path fill="none" stroke="midnightblue" d="M481,-117.98C481,-109.58 481,-96.48 481,-85.66"/>
<polygon fill="midnightblue" stroke="midnightblue" points="484.5,-85.51 481,-75.51 477.5,-85.51 484.5,-85.51"/>
</g>
<!-- Node17 -->
<g id="node17" class="node">
<title>Node17</title>
<g id="a_node17"><a xlink:title=" ">
<polygon fill="white" stroke="#bfbfbf" points="613.5,-56.5 613.5,-75.5 660.5,-75.5 660.5,-56.5 613.5,-56.5"/>
<text text-anchor="middle" x="637" y="-63.5" font-family="Helvetica,sans-Serif" font-size="10.00">vector</text>
</a>
</g>
</g>
<!-- Node15&#45;&gt;Node17 -->
<g id="edge19" class="edge">
<title>Node15&#45;&gt;Node17</title>
<path fill="none" stroke="midnightblue" d="M503.35,-117.98C529.99,-107.81 574.71,-90.76 605.01,-79.2"/>
<polygon fill="midnightblue" stroke="midnightblue" points="606.59,-82.34 614.69,-75.51 604.1,-75.8 606.59,-82.34"/>
</g>
<!-- Node18&#45;&gt;Node6 -->
<g id="edge23" class="edge">
<title>Node18&#45;&gt;Node6</title>
<path fill="none" stroke="midnightblue" d="M287.24,-117.98C270.34,-108.21 242.42,-92.08 222.51,-80.58"/>
<polygon fill="midnightblue" stroke="midnightblue" points="224.14,-77.48 213.73,-75.51 220.64,-83.54 224.14,-77.48"/>
</g>
<!-- Node19 -->
<g id="node19" class="node">
<title>Node19</title>
<g id="a_node19"><a xlink:href="KeyIds_8hpp.xhtml" target="_top" xlink:title=" ">
<polygon fill="white" stroke="black" points="312,-56.5 312,-75.5 382,-75.5 382,-56.5 312,-56.5"/>
<text text-anchor="middle" x="347" y="-63.5" font-family="Helvetica,sans-Serif" font-size="10.00">KeyIds.hpp</text>
</a>
</g>
</g>
<!-- Node18&#45;&gt;Node19 -->
<g id="edge21" class="edge">
<title>Node18&#45;&gt;Node19</title>
<path fill="none" stroke="midnightblue" d="M308.45,-117.98C315.2,-109.05 325.97,-94.81 334.41,-83.64"/>
<polygon fill="midnightblue" stroke="midnightblue" points="337.32,-85.6 340.56,-75.51 331.74,-81.37 337.32,-85.6"/>
</g>
<!-- Node19&#45;&gt;Node8 -->
<g id="edge22" class="edge">
<title>Node19&#45;&gt;Node8</title>
<path fill="none" stroke="midnightblue" d="M319.75,-56.44C290.56,-47.28 244.08,-32.69 211.69,-22.52"/>
<polygon fill="midnightblue" stroke="midnightblue" points="212.72,-19.17 202.13,-19.52 210.62,-25.85 212.72,-19.17"/>
</g>
<!-- Node20&#45;&gt;Node13 -->
<g id="edge27" class="edge">
<title>Node20&#45;&gt;Node13</title>
<path fill="none" stroke="midnightblue" d="M605.6,-318.94C551.49,-307.17 454.18,-286.02 395.3,-273.22"/>
<polygon fill="midnightblue" stroke="midnightblue" points="396,-269.79 385.48,-271.08 394.51,-276.63 396,-269.79"/>
</g>
<!-- Node20&#45;&gt;Node17 -->
<g id="edge29" class="edge">
<title>Node20&#45;&gt;Node17</title>
<path fill="none" stroke="midnightblue" d="M644.73,-318.83C643.6,-281.98 639.18,-137.83 637.58,-85.83"/>
<polygon fill="midnightblue" stroke="midnightblue" points="641.07,-85.59 637.27,-75.7 634.08,-85.8 641.07,-85.59"/>
</g>
<!-- Node21 -->
<g id="node21" class="node">
<title>Node21</title>
<g id="a_node21"><a xlink:href="IStatusIndicator_8hpp.xhtml" target="_top" xlink:title=" ">
<polygon fill="white" stroke="black" points="736.5,-252 736.5,-271 849.5,-271 849.5,-252 736.5,-252"/>
<text text-anchor="middle" x="793" y="-259" font-family="Helvetica,sans-Serif" font-size="10.00">IStatusIndicator.hpp</text>
</a>
</g>
</g>
<!-- Node20&#45;&gt;Node21 -->
<g id="edge26" class="edge">
<title>Node20&#45;&gt;Node21</title>
<path fill="none" stroke="midnightblue" d="M664.65,-318.87C690.09,-307.7 734.6,-288.15 763.95,-275.26"/>
<polygon fill="midnightblue" stroke="midnightblue" points="765.52,-278.39 773.27,-271.17 762.7,-271.98 765.52,-278.39"/>
</g>
<!-- Node22 -->
<g id="node22" class="node">
<title>Node22</title>
<g id="a_node22"><a xlink:title=" ">
<polygon fill="white" stroke="#bfbfbf" points="665.5,-252 665.5,-271 718.5,-271 718.5,-252 665.5,-252"/>
<text text-anchor="middle" x="692" y="-259" font-family="Helvetica,sans-Serif" font-size="10.00">cstddef</text>
</a>
</g>
</g>
<!-- Node20&#45;&gt;Node22 -->
<g id="edge28" class="edge">
<title>Node20&#45;&gt;Node22</title>
<path fill="none" stroke="midnightblue" d="M651.34,-318.73C658.6,-308.7 670.66,-292.01 679.76,-279.42"/>
<polygon fill="midnightblue" stroke="midnightblue" points="682.74,-281.28 685.76,-271.13 677.07,-277.18 682.74,-281.28"/>
</g>
<!-- Node23&#45;&gt;Node19 -->
<g id="edge31" class="edge">
<title>Node23&#45;&gt;Node19</title>
<path fill="none" stroke="midnightblue" d="M501.16,-179.41C479.09,-170.54 451.47,-157.96 429,-143 403.13,-125.78 377.55,-100.38 362.01,-83.76"/>
<polygon fill="midnightblue" stroke="midnightblue" points="364.19,-80.96 354.85,-75.96 359.04,-85.69 364.19,-80.96"/>
</g>
<!-- Node24&#45;&gt;Node14 -->
<g id="edge33" class="edge">
<title>Node24&#45;&gt;Node14</title>
<path fill="none" stroke="midnightblue" d="M484.25,-246.4C469.14,-235.6 448.36,-220.76 433.14,-209.89"/>
<polygon fill="midnightblue" stroke="midnightblue" points="435.08,-206.97 424.91,-204.01 431.01,-212.67 435.08,-206.97"/>
</g>
<!-- Node25&#45;&gt;Node18 -->
<g id="edge35" class="edge">
<title>Node25&#45;&gt;Node18</title>
<path fill="none" stroke="midnightblue" d="M259.72,-179.4C268.14,-169.26 279.51,-155.57 288.34,-144.94"/>
<polygon fill="midnightblue" stroke="midnightblue" points="291.08,-147.12 294.78,-137.19 285.69,-142.65 291.08,-147.12"/>
</g>
<!-- Node26&#45;&gt;Node17 -->
<g id="edge38" class="edge">
<title>Node26&#45;&gt;Node17</title>
<path fill="none" stroke="midnightblue" d="M844.44,-313.48C855.44,-296.85 869.79,-268.56 859,-246 818.56,-161.45 716.54,-104.07 666.12,-79.9"/>
<polygon fill="midnightblue" stroke="midnightblue" points="667.59,-76.72 657.05,-75.65 664.62,-83.06 667.59,-76.72"/>
</g>
<!-- Node26&#45;&gt;Node21 -->
<g id="edge37" class="edge">
<title>Node26&#45;&gt;Node21</title>
<path fill="none" stroke="midnightblue" d="M825.1,-313.4C818.9,-303.56 810.58,-290.38 803.97,-279.89"/>
<polygon fill="midnightblue" stroke="midnightblue" points="806.78,-277.79 798.48,-271.19 800.86,-281.52 806.78,-277.79"/>
</g>
</g>
</svg>
