<?xml version="1.0" encoding="UTF-8" standalone="no"?>
<!DOCTYPE svg PUBLIC "-//W3C//DTD SVG 1.1//EN"
 "http://www.w3.org/Graphics/SVG/1.1/DTD/svg11.dtd">
<!-- Generated by graphviz version 2.43.0 (0)
 -->
<!-- Title: lib/application_business_rules/user_interaction/MenuItem.hpp Pages: 1 -->
<svg width="896pt" height="362pt"
 viewBox="0.00 0.00 896.25 362.00" xmlns="http://www.w3.org/2000/svg" xmlns:xlink="http://www.w3.org/1999/xlink">
<g id="graph0" class="graph" transform="scale(1 1) rotate(0) translate(4 358)">
<title>lib/application_business_rules/user_interaction/MenuItem.hpp</title>
<polygon fill="white" stroke="transparent" points="-4,4 -4,-358 892.25,-358 892.25,4 -4,4"/>
<!-- Node1 -->
<g id="node1" class="node">
<title>Node1</title>
<g id="a_node1"><a xlink:title=" ">
<polygon fill="#bfbfbf" stroke="black" points="364.25,-312.5 364.25,-353.5 498.25,-353.5 498.25,-312.5 364.25,-312.5"/>
<text text-anchor="start" x="372.25" y="-341.5" font-family="Helvetica,sans-Serif" font-size="10.00">lib/application_business</text>
<text text-anchor="start" x="372.25" y="-330.5" font-family="Helvetica,sans-Serif" font-size="10.00">_rules/user_interaction</text>
<text text-anchor="middle" x="431.25" y="-319.5" font-family="Helvetica,sans-Serif" font-size="10.00">/MenuItem.hpp</text>
</a>
</g>
</g>
<!-- Node2 -->
<g id="node2" class="node">
<title>Node2</title>
<g id="a_node2"><a xlink:href="GuiEngine_8cpp.xhtml" target="_top" xlink:title=" ">
<polygon fill="white" stroke="black" points="98.25,-84 98.25,-114 224.25,-114 224.25,-84 98.25,-84"/>
<text text-anchor="start" x="106.25" y="-102" font-family="Helvetica,sans-Serif" font-size="10.00">lib/3rd_party_adapters</text>
<text text-anchor="middle" x="161.25" y="-91" font-family="Helvetica,sans-Serif" font-size="10.00">/LVGL/GuiEngine.cpp</text>
</a>
</g>
</g>
<!-- Node1&#45;&gt;Node2 -->
<g id="edge1" class="edge">
<title>Node1&#45;&gt;Node2</title>
<path fill="none" stroke="midnightblue" d="M358.17,-308.83C304.04,-288.05 232.46,-252.35 189.25,-198 169.43,-173.07 163.64,-134.75 161.95,-114.19"/>
<polygon fill="midnightblue" stroke="midnightblue" points="357.13,-312.18 367.72,-312.41 359.59,-305.62 357.13,-312.18"/>
</g>
<!-- Node3 -->
<g id="node3" class="node">
<title>Node3</title>
<g id="a_node3"><a xlink:href="Screen_8hpp.xhtml" target="_top" xlink:title=" ">
<polygon fill="white" stroke="black" points="16.25,-240 16.25,-270 142.25,-270 142.25,-240 16.25,-240"/>
<text text-anchor="start" x="24.25" y="-258" font-family="Helvetica,sans-Serif" font-size="10.00">lib/3rd_party_adapters</text>
<text text-anchor="middle" x="79.25" y="-247" font-family="Helvetica,sans-Serif" font-size="10.00">/LVGL/Screen.hpp</text>
</a>
</g>
</g>
<!-- Node1&#45;&gt;Node3 -->
<g id="edge2" class="edge">
<title>Node1&#45;&gt;Node3</title>
<path fill="none" stroke="midnightblue" d="M354,-317.41C298.75,-306.7 222.72,-291.39 156.25,-276 148.31,-274.16 139.94,-272.11 131.76,-270.04"/>
<polygon fill="midnightblue" stroke="midnightblue" points="353.59,-320.89 364.07,-319.36 354.91,-314.02 353.59,-320.89"/>
</g>
<!-- Node5 -->
<g id="node5" class="node">
<title>Node5</title>
<g id="a_node5"><a xlink:href="IGuiEngine_8hpp.xhtml" target="_top" xlink:title=" ">
<polygon fill="white" stroke="black" points="364.25,-234.5 364.25,-275.5 498.25,-275.5 498.25,-234.5 364.25,-234.5"/>
<text text-anchor="start" x="372.25" y="-263.5" font-family="Helvetica,sans-Serif" font-size="10.00">lib/application_business</text>
<text text-anchor="start" x="372.25" y="-252.5" font-family="Helvetica,sans-Serif" font-size="10.00">_rules/user_interaction</text>
<text text-anchor="middle" x="431.25" y="-241.5" font-family="Helvetica,sans-Serif" font-size="10.00">/IGuiEngine.hpp</text>
</a>
</g>
</g>
<!-- Node1&#45;&gt;Node5 -->
<g id="edge5" class="edge">
<title>Node1&#45;&gt;Node5</title>
<path fill="none" stroke="midnightblue" d="M431.25,-302.3C431.25,-293.3 431.25,-283.65 431.25,-275.51"/>
<polygon fill="midnightblue" stroke="midnightblue" points="427.75,-302.43 431.25,-312.43 434.75,-302.43 427.75,-302.43"/>
</g>
<!-- Node12 -->
<g id="node12" class="node">
<title>Node12</title>
<g id="a_node12"><a xlink:href="Menu_8cpp.xhtml" target="_top" xlink:title=" ">
<polygon fill="white" stroke="black" points="698.25,-78.5 698.25,-119.5 832.25,-119.5 832.25,-78.5 698.25,-78.5"/>
<text text-anchor="start" x="706.25" y="-107.5" font-family="Helvetica,sans-Serif" font-size="10.00">lib/application_business</text>
<text text-anchor="start" x="706.25" y="-96.5" font-family="Helvetica,sans-Serif" font-size="10.00">_rules/user_interaction</text>
<text text-anchor="middle" x="765.25" y="-85.5" font-family="Helvetica,sans-Serif" font-size="10.00">/Menu.cpp</text>
</a>
</g>
</g>
<!-- Node1&#45;&gt;Node12 -->
<g id="edge22" class="edge">
<title>Node1&#45;&gt;Node12</title>
<path fill="none" stroke="midnightblue" d="M489.32,-308.3C542.47,-284.95 621.69,-245.88 681.25,-198 710.07,-174.83 736.63,-140.82 751.88,-119.56"/>
<polygon fill="midnightblue" stroke="midnightblue" points="487.81,-305.14 480.03,-312.33 490.6,-311.56 487.81,-305.14"/>
</g>
<!-- Node16 -->
<g id="node16" class="node">
<title>Node16</title>
<g id="a_node16"><a xlink:href="MenuItem_8cpp.xhtml" target="_top" xlink:title=" ">
<polygon fill="white" stroke="black" points="728.25,-234.5 728.25,-275.5 862.25,-275.5 862.25,-234.5 728.25,-234.5"/>
<text text-anchor="start" x="736.25" y="-263.5" font-family="Helvetica,sans-Serif" font-size="10.00">lib/application_business</text>
<text text-anchor="start" x="736.25" y="-252.5" font-family="Helvetica,sans-Serif" font-size="10.00">_rules/user_interaction</text>
<text text-anchor="middle" x="795.25" y="-241.5" font-family="Helvetica,sans-Serif" font-size="10.00">/MenuItem.cpp</text>
</a>
</g>
</g>
<!-- Node1&#45;&gt;Node16 -->
<g id="edge23" class="edge">
<title>Node1&#45;&gt;Node16</title>
<path fill="none" stroke="midnightblue" d="M508.35,-317.75C565.37,-306.97 644.83,-291.43 714.25,-276 718.77,-274.99 723.43,-273.93 728.12,-272.83"/>
<polygon fill="midnightblue" stroke="midnightblue" points="507.51,-314.35 498.33,-319.64 508.81,-321.23 507.51,-314.35"/>
</g>
<!-- Node3&#45;&gt;Node2 -->
<g id="edge3" class="edge">
<title>Node3&#45;&gt;Node2</title>
<path fill="none" stroke="midnightblue" d="M41.59,-234.34C28.19,-225.23 14.61,-213.05 7.25,-198 -0.95,-181.23 -3.46,-171.29 7.25,-156 27.73,-126.76 65.14,-112.73 97.96,-106.02"/>
<polygon fill="midnightblue" stroke="midnightblue" points="39.98,-237.46 50.3,-239.88 43.74,-231.56 39.98,-237.46"/>
</g>
<!-- Node4 -->
<g id="node4" class="node">
<title>Node4</title>
<g id="a_node4"><a xlink:href="Screen_8cpp.xhtml" target="_top" xlink:title=" ">
<polygon fill="white" stroke="black" points="16.25,-162 16.25,-192 142.25,-192 142.25,-162 16.25,-162"/>
<text text-anchor="start" x="24.25" y="-180" font-family="Helvetica,sans-Serif" font-size="10.00">lib/3rd_party_adapters</text>
<text text-anchor="middle" x="79.25" y="-169" font-family="Helvetica,sans-Serif" font-size="10.00">/LVGL/Screen.cpp</text>
</a>
</g>
</g>
<!-- Node3&#45;&gt;Node4 -->
<g id="edge4" class="edge">
<title>Node3&#45;&gt;Node4</title>
<path fill="none" stroke="midnightblue" d="M79.25,-229.59C79.25,-217.26 79.25,-202.72 79.25,-192.23"/>
<polygon fill="midnightblue" stroke="midnightblue" points="75.75,-229.7 79.25,-239.7 82.75,-229.71 75.75,-229.7"/>
</g>
<!-- Node6 -->
<g id="node6" class="node">
<title>Node6</title>
<g id="a_node6"><a xlink:href="GuiEngine_8hpp.xhtml" target="_top" xlink:title=" ">
<polygon fill="white" stroke="black" points="198.25,-162 198.25,-192 324.25,-192 324.25,-162 198.25,-162"/>
<text text-anchor="start" x="206.25" y="-180" font-family="Helvetica,sans-Serif" font-size="10.00">lib/3rd_party_adapters</text>
<text text-anchor="middle" x="261.25" y="-169" font-family="Helvetica,sans-Serif" font-size="10.00">/LVGL/GuiEngine.hpp</text>
</a>
</g>
</g>
<!-- Node5&#45;&gt;Node6 -->
<g id="edge6" class="edge">
<title>Node5&#45;&gt;Node6</title>
<path fill="none" stroke="midnightblue" d="M378.2,-230.28C350.17,-217.76 316.73,-202.81 292.8,-192.11"/>
<polygon fill="midnightblue" stroke="midnightblue" points="376.91,-233.54 387.47,-234.43 379.77,-227.15 376.91,-233.54"/>
</g>
<!-- Node8 -->
<g id="node8" class="node">
<title>Node8</title>
<g id="a_node8"><a xlink:href="guiEngine__factory__interface_8hpp.xhtml" target="_top" xlink:title="Dependency injection for the guiEngine.">
<polygon fill="white" stroke="black" points="342.75,-156.5 342.75,-197.5 519.75,-197.5 519.75,-156.5 342.75,-156.5"/>
<text text-anchor="start" x="350.75" y="-185.5" font-family="Helvetica,sans-Serif" font-size="10.00">lib/application_business</text>
<text text-anchor="start" x="350.75" y="-174.5" font-family="Helvetica,sans-Serif" font-size="10.00">_rules/user_interaction</text>
<text text-anchor="middle" x="431.25" y="-163.5" font-family="Helvetica,sans-Serif" font-size="10.00">/guiEngine_factory_interface.hpp</text>
</a>
</g>
</g>
<!-- Node5&#45;&gt;Node8 -->
<g id="edge9" class="edge">
<title>Node5&#45;&gt;Node8</title>
<path fill="none" stroke="midnightblue" d="M431.25,-224.3C431.25,-215.3 431.25,-205.65 431.25,-197.51"/>
<polygon fill="midnightblue" stroke="midnightblue" points="427.75,-224.43 431.25,-234.43 434.75,-224.43 427.75,-224.43"/>
</g>
<!-- Node11 -->
<g id="node11" class="node">
<title>Node11</title>
<g id="a_node11"><a xlink:href="Menu_8hpp.xhtml" target="_top" xlink:title=" ">
<polygon fill="white" stroke="black" points="538.25,-156.5 538.25,-197.5 672.25,-197.5 672.25,-156.5 538.25,-156.5"/>
<text text-anchor="start" x="546.25" y="-185.5" font-family="Helvetica,sans-Serif" font-size="10.00">lib/application_business</text>
<text text-anchor="start" x="546.25" y="-174.5" font-family="Helvetica,sans-Serif" font-size="10.00">_rules/user_interaction</text>
<text text-anchor="middle" x="605.25" y="-163.5" font-family="Helvetica,sans-Serif" font-size="10.00">/Menu.hpp</text>
</a>
</g>
</g>
<!-- Node5&#45;&gt;Node11 -->
<g id="edge13" class="edge">
<title>Node5&#45;&gt;Node11</title>
<path fill="none" stroke="midnightblue" d="M485.44,-230.33C509.59,-219.78 537.68,-207.51 560.59,-197.51"/>
<polygon fill="midnightblue" stroke="midnightblue" points="483.82,-227.22 476.06,-234.43 486.62,-233.63 483.82,-227.22"/>
</g>
<!-- Node6&#45;&gt;Node2 -->
<g id="edge7" class="edge">
<title>Node6&#45;&gt;Node2</title>
<path fill="none" stroke="midnightblue" d="M234.42,-155.61C217.22,-142.54 195.31,-125.89 179.97,-114.23"/>
<polygon fill="midnightblue" stroke="midnightblue" points="232.36,-158.44 242.44,-161.7 236.6,-152.87 232.36,-158.44"/>
</g>
<!-- Node7 -->
<g id="node7" class="node">
<title>Node7</title>
<g id="a_node7"><a xlink:href="guiEngine__factory__interface_8cpp.xhtml" target="_top" xlink:title=" ">
<polygon fill="white" stroke="black" points="242.25,-78.5 242.25,-119.5 376.25,-119.5 376.25,-78.5 242.25,-78.5"/>
<text text-anchor="start" x="250.25" y="-107.5" font-family="Helvetica,sans-Serif" font-size="10.00">lib/3rd_party_adapters</text>
<text text-anchor="start" x="250.25" y="-96.5" font-family="Helvetica,sans-Serif" font-size="10.00">/LVGL/guiEngine_factory</text>
<text text-anchor="middle" x="309.25" y="-85.5" font-family="Helvetica,sans-Serif" font-size="10.00">_interface.cpp</text>
</a>
</g>
</g>
<!-- Node6&#45;&gt;Node7 -->
<g id="edge8" class="edge">
<title>Node6&#45;&gt;Node7</title>
<path fill="none" stroke="midnightblue" d="M275.8,-152.95C282.51,-142.33 290.39,-129.85 296.82,-119.68"/>
<polygon fill="midnightblue" stroke="midnightblue" points="272.66,-151.38 270.28,-161.7 278.58,-155.12 272.66,-151.38"/>
</g>
<!-- Node8&#45;&gt;Node7 -->
<g id="edge10" class="edge">
<title>Node8&#45;&gt;Node7</title>
<path fill="none" stroke="midnightblue" d="M390.99,-150.92C374.59,-140.7 355.91,-129.07 340.56,-119.51"/>
<polygon fill="midnightblue" stroke="midnightblue" points="389.49,-154.11 399.83,-156.43 393.19,-148.17 389.49,-154.11"/>
</g>
<!-- Node9 -->
<g id="node9" class="node">
<title>Node9</title>
<g id="a_node9"><a xlink:href="main_8cpp.xhtml" target="_top" xlink:title=" ">
<polygon fill="white" stroke="black" points="361.75,-11.5 361.75,-30.5 440.75,-30.5 440.75,-11.5 361.75,-11.5"/>
<text text-anchor="middle" x="401.25" y="-18.5" font-family="Helvetica,sans-Serif" font-size="10.00">src/main.cpp</text>
</a>
</g>
</g>
<!-- Node8&#45;&gt;Node9 -->
<g id="edge11" class="edge">
<title>Node8&#45;&gt;Node9</title>
<path fill="none" stroke="midnightblue" d="M425.52,-146.6C418.54,-110.76 407.15,-52.28 402.91,-30.51"/>
<polygon fill="midnightblue" stroke="midnightblue" points="422.1,-147.35 427.45,-156.5 428.97,-146.01 422.1,-147.35"/>
</g>
<!-- Node10 -->
<g id="node10" class="node">
<title>Node10</title>
<g id="a_node10"><a xlink:href="test__hmi_8cpp.xhtml" target="_top" xlink:title=" ">
<polygon fill="white" stroke="black" points="458.75,-6 458.75,-36 583.75,-36 583.75,-6 458.75,-6"/>
<text text-anchor="start" x="466.75" y="-24" font-family="Helvetica,sans-Serif" font-size="10.00">test/hmi/test_hmi/test</text>
<text text-anchor="middle" x="521.25" y="-13" font-family="Helvetica,sans-Serif" font-size="10.00">_hmi.cpp</text>
</a>
</g>
</g>
<!-- Node8&#45;&gt;Node10 -->
<g id="edge12" class="edge">
<title>Node8&#45;&gt;Node10</title>
<path fill="none" stroke="midnightblue" d="M447.74,-147.78C466.99,-114.85 498.07,-61.66 512.88,-36.32"/>
<polygon fill="midnightblue" stroke="midnightblue" points="444.67,-146.1 442.65,-156.5 450.71,-149.63 444.67,-146.1"/>
</g>
<!-- Node11&#45;&gt;Node9 -->
<g id="edge20" class="edge">
<title>Node11&#45;&gt;Node9</title>
<path fill="none" stroke="midnightblue" d="M564.43,-150.79C549.92,-141.47 533.62,-130.59 519.25,-120 477.23,-89.03 430.38,-48.04 410.73,-30.52"/>
<polygon fill="midnightblue" stroke="midnightblue" points="562.89,-153.96 573.2,-156.38 566.65,-148.05 562.89,-153.96"/>
</g>
<!-- Node11&#45;&gt;Node10 -->
<g id="edge21" class="edge">
<title>Node11&#45;&gt;Node10</title>
<path fill="none" stroke="midnightblue" d="M564.07,-150.03C553.81,-141.65 543.87,-131.51 537.25,-120 521.87,-93.25 520.17,-55.99 520.54,-36"/>
<polygon fill="midnightblue" stroke="midnightblue" points="562.25,-153.04 572.31,-156.36 566.51,-147.49 562.25,-153.04"/>
</g>
<!-- Node11&#45;&gt;Node12 -->
<g id="edge14" class="edge">
<title>Node11&#45;&gt;Node12</title>
<path fill="none" stroke="midnightblue" d="M655.67,-152.05C677.74,-141.57 703.3,-129.42 724.18,-119.51"/>
<polygon fill="midnightblue" stroke="midnightblue" points="653.98,-148.98 646.45,-156.43 656.99,-155.3 653.98,-148.98"/>
</g>
<!-- Node13 -->
<g id="node13" class="node">
<title>Node13</title>
<g id="a_node13"><a xlink:href="Presenter_8hpp.xhtml" target="_top" xlink:title=" ">
<polygon fill="white" stroke="black" points="546.25,-78.5 546.25,-119.5 680.25,-119.5 680.25,-78.5 546.25,-78.5"/>
<text text-anchor="start" x="554.25" y="-107.5" font-family="Helvetica,sans-Serif" font-size="10.00">lib/application_business</text>
<text text-anchor="start" x="554.25" y="-96.5" font-family="Helvetica,sans-Serif" font-size="10.00">_rules/user_interaction</text>
<text text-anchor="middle" x="613.25" y="-85.5" font-family="Helvetica,sans-Serif" font-size="10.00">/Presenter.hpp</text>
</a>
</g>
</g>
<!-- Node11&#45;&gt;Node13 -->
<g id="edge15" class="edge">
<title>Node11&#45;&gt;Node13</title>
<path fill="none" stroke="midnightblue" d="M608.37,-146.3C609.32,-137.3 610.34,-127.65 611.19,-119.51"/>
<polygon fill="midnightblue" stroke="midnightblue" points="604.87,-146.12 607.31,-156.43 611.84,-146.85 604.87,-146.12"/>
</g>
<!-- Node13&#45;&gt;Node9 -->
<g id="edge18" class="edge">
<title>Node13&#45;&gt;Node9</title>
<path fill="none" stroke="midnightblue" d="M544.07,-75.2C514.96,-65.35 480.83,-53.48 450.25,-42 440.79,-38.45 430.41,-34.25 421.65,-30.63"/>
<polygon fill="midnightblue" stroke="midnightblue" points="543.14,-78.58 553.73,-78.45 545.37,-71.94 543.14,-78.58"/>
</g>
<!-- Node13&#45;&gt;Node10 -->
<g id="edge19" class="edge">
<title>Node13&#45;&gt;Node10</title>
<path fill="none" stroke="midnightblue" d="M581.76,-71.99C567.27,-60.02 550.63,-46.27 538.47,-36.23"/>
<polygon fill="midnightblue" stroke="midnightblue" points="579.62,-74.76 589.56,-78.43 584.08,-69.36 579.62,-74.76"/>
</g>
<!-- Node14 -->
<g id="node14" class="node">
<title>Node14</title>
<g id="a_node14"><a xlink:href="Presenter_8cpp.xhtml" target="_top" xlink:title=" ">
<polygon fill="white" stroke="black" points="602.25,-0.5 602.25,-41.5 736.25,-41.5 736.25,-0.5 602.25,-0.5"/>
<text text-anchor="start" x="610.25" y="-29.5" font-family="Helvetica,sans-Serif" font-size="10.00">lib/application_business</text>
<text text-anchor="start" x="610.25" y="-18.5" font-family="Helvetica,sans-Serif" font-size="10.00">_rules/user_interaction</text>
<text text-anchor="middle" x="669.25" y="-7.5" font-family="Helvetica,sans-Serif" font-size="10.00">/Presenter.cpp</text>
</a>
</g>
</g>
<!-- Node13&#45;&gt;Node14 -->
<g id="edge16" class="edge">
<title>Node13&#45;&gt;Node14</title>
<path fill="none" stroke="midnightblue" d="M633.63,-70.34C640.68,-60.78 648.42,-50.27 654.88,-41.51"/>
<polygon fill="midnightblue" stroke="midnightblue" points="630.78,-68.3 627.67,-78.43 636.42,-72.45 630.78,-68.3"/>
</g>
<!-- Node15 -->
<g id="node15" class="node">
<title>Node15</title>
<g id="a_node15"><a xlink:href="ProcessHmiInputs_8cpp.xhtml" target="_top" xlink:title=" ">
<polygon fill="white" stroke="black" points="754.25,-0.5 754.25,-41.5 888.25,-41.5 888.25,-0.5 754.25,-0.5"/>
<text text-anchor="start" x="762.25" y="-29.5" font-family="Helvetica,sans-Serif" font-size="10.00">lib/application_business</text>
<text text-anchor="start" x="762.25" y="-18.5" font-family="Helvetica,sans-Serif" font-size="10.00">_rules/user_interaction</text>
<text text-anchor="middle" x="821.25" y="-7.5" font-family="Helvetica,sans-Serif" font-size="10.00">/ProcessHmiInputs.cpp</text>
</a>
</g>
</g>
<!-- Node13&#45;&gt;Node15 -->
<g id="edge17" class="edge">
<title>Node13&#45;&gt;Node15</title>
<path fill="none" stroke="midnightblue" d="M676.5,-74.89C705.7,-64.22 739.99,-51.69 767.86,-41.51"/>
<polygon fill="midnightblue" stroke="midnightblue" points="675,-71.71 666.81,-78.43 677.41,-78.28 675,-71.71"/>
</g>
</g>
</svg>
