<?xml version="1.0" encoding="UTF-8" standalone="no"?>
<!DOCTYPE svg PUBLIC "-//W3C//DTD SVG 1.1//EN"
 "http://www.w3.org/Graphics/SVG/1.1/DTD/svg11.dtd">
<!-- Generated by graphviz version 2.43.0 (0)
 -->
<!-- Title: lib/application_business_rules/user_interaction/MenuItem.hpp Pages: 1 -->
<svg width="887pt" height="362pt"
 viewBox="0.00 0.00 887.24 362.00" xmlns="http://www.w3.org/2000/svg" xmlns:xlink="http://www.w3.org/1999/xlink">
<g id="graph0" class="graph" transform="scale(1 1) rotate(0) translate(4 358)">
<title>lib/application_business_rules/user_interaction/MenuItem.hpp</title>
<polygon fill="white" stroke="transparent" points="-4,4 -4,-358 883.24,-358 883.24,4 -4,4"/>
<!-- Node1 -->
<g id="node1" class="node">
<title>Node1</title>
<g id="a_node1"><a xlink:title=" ">
<polygon fill="#bfbfbf" stroke="black" points="357.24,-312.5 357.24,-353.5 491.24,-353.5 491.24,-312.5 357.24,-312.5"/>
<text text-anchor="start" x="365.24" y="-341.5" font-family="Helvetica,sans-Serif" font-size="10.00">lib/application_business</text>
<text text-anchor="start" x="365.24" y="-330.5" font-family="Helvetica,sans-Serif" font-size="10.00">_rules/user_interaction</text>
<text text-anchor="middle" x="424.24" y="-319.5" font-family="Helvetica,sans-Serif" font-size="10.00">/MenuItem.hpp</text>
</a>
</g>
</g>
<!-- Node2 -->
<g id="node2" class="node">
<title>Node2</title>
<g id="a_node2"><a xlink:href="Display_8cpp.xhtml" target="_top" xlink:title=" ">
<polygon fill="white" stroke="black" points="97.24,-84 97.24,-114 223.24,-114 223.24,-84 97.24,-84"/>
<text text-anchor="start" x="105.24" y="-102" font-family="Helvetica,sans-Serif" font-size="10.00">lib/3rd_party_adapters</text>
<text text-anchor="middle" x="160.24" y="-91" font-family="Helvetica,sans-Serif" font-size="10.00">/LVGL/Display.cpp</text>
</a>
</g>
</g>
<!-- Node1&#45;&gt;Node2 -->
<g id="edge1" class="edge">
<title>Node1&#45;&gt;Node2</title>
<path fill="none" stroke="midnightblue" d="M354.61,-308.67C301.97,-287.61 231.74,-251.62 189.24,-198 169.4,-172.97 163.13,-134.69 161.15,-114.17"/>
<polygon fill="midnightblue" stroke="midnightblue" points="353.63,-312.05 364.22,-312.43 356.18,-305.53 353.63,-312.05"/>
</g>
<!-- Node3 -->
<g id="node3" class="node">
<title>Node3</title>
<g id="a_node3"><a xlink:href="Screen_8hpp.xhtml" target="_top" xlink:title=" ">
<polygon fill="white" stroke="black" points="16.24,-240 16.24,-270 142.24,-270 142.24,-240 16.24,-240"/>
<text text-anchor="start" x="24.24" y="-258" font-family="Helvetica,sans-Serif" font-size="10.00">lib/3rd_party_adapters</text>
<text text-anchor="middle" x="79.24" y="-247" font-family="Helvetica,sans-Serif" font-size="10.00">/LVGL/Screen.hpp</text>
</a>
</g>
</g>
<!-- Node1&#45;&gt;Node3 -->
<g id="edge2" class="edge">
<title>Node1&#45;&gt;Node3</title>
<path fill="none" stroke="midnightblue" d="M347.01,-316.89C293.35,-306.14 220.26,-290.99 156.24,-276 148.31,-274.14 139.94,-272.08 131.76,-270"/>
<polygon fill="midnightblue" stroke="midnightblue" points="346.64,-320.38 357.14,-318.91 348.01,-313.52 346.64,-320.38"/>
</g>
<!-- Node5 -->
<g id="node5" class="node">
<title>Node5</title>
<g id="a_node5"><a xlink:href="IDisplay_8hpp.xhtml" target="_top" xlink:title=" ">
<polygon fill="white" stroke="black" points="357.24,-234.5 357.24,-275.5 491.24,-275.5 491.24,-234.5 357.24,-234.5"/>
<text text-anchor="start" x="365.24" y="-263.5" font-family="Helvetica,sans-Serif" font-size="10.00">lib/application_business</text>
<text text-anchor="start" x="365.24" y="-252.5" font-family="Helvetica,sans-Serif" font-size="10.00">_rules/user_interaction</text>
<text text-anchor="middle" x="424.24" y="-241.5" font-family="Helvetica,sans-Serif" font-size="10.00">/IDisplay.hpp</text>
</a>
</g>
</g>
<!-- Node1&#45;&gt;Node5 -->
<g id="edge5" class="edge">
<title>Node1&#45;&gt;Node5</title>
<path fill="none" stroke="midnightblue" d="M424.24,-302.3C424.24,-293.3 424.24,-283.65 424.24,-275.51"/>
<polygon fill="midnightblue" stroke="midnightblue" points="420.74,-302.43 424.24,-312.43 427.74,-302.43 420.74,-302.43"/>
</g>
<!-- Node12 -->
<g id="node12" class="node">
<title>Node12</title>
<g id="a_node12"><a xlink:href="Menu_8cpp.xhtml" target="_top" xlink:title=" ">
<polygon fill="white" stroke="black" points="689.24,-78.5 689.24,-119.5 823.24,-119.5 823.24,-78.5 689.24,-78.5"/>
<text text-anchor="start" x="697.24" y="-107.5" font-family="Helvetica,sans-Serif" font-size="10.00">lib/application_business</text>
<text text-anchor="start" x="697.24" y="-96.5" font-family="Helvetica,sans-Serif" font-size="10.00">_rules/user_interaction</text>
<text text-anchor="middle" x="756.24" y="-85.5" font-family="Helvetica,sans-Serif" font-size="10.00">/Menu.cpp</text>
</a>
</g>
</g>
<!-- Node1&#45;&gt;Node12 -->
<g id="edge22" class="edge">
<title>Node1&#45;&gt;Node12</title>
<path fill="none" stroke="midnightblue" d="M479.25,-308.09C530.67,-284.3 608.17,-244.68 667.24,-198 696.81,-174.63 725.02,-140.98 741.48,-119.82"/>
<polygon fill="midnightblue" stroke="midnightblue" points="477.59,-305 469.96,-312.34 480.51,-311.36 477.59,-305"/>
</g>
<!-- Node16 -->
<g id="node16" class="node">
<title>Node16</title>
<g id="a_node16"><a xlink:href="MenuItem_8cpp.xhtml" target="_top" xlink:title=" ">
<polygon fill="white" stroke="black" points="714.24,-234.5 714.24,-275.5 848.24,-275.5 848.24,-234.5 714.24,-234.5"/>
<text text-anchor="start" x="722.24" y="-263.5" font-family="Helvetica,sans-Serif" font-size="10.00">lib/application_business</text>
<text text-anchor="start" x="722.24" y="-252.5" font-family="Helvetica,sans-Serif" font-size="10.00">_rules/user_interaction</text>
<text text-anchor="middle" x="781.24" y="-241.5" font-family="Helvetica,sans-Serif" font-size="10.00">/MenuItem.cpp</text>
</a>
</g>
</g>
<!-- Node1&#45;&gt;Node16 -->
<g id="edge23" class="edge">
<title>Node1&#45;&gt;Node16</title>
<path fill="none" stroke="midnightblue" d="M501.44,-317.24C556.88,-306.41 633.33,-291.04 700.24,-276 704.76,-274.98 709.42,-273.91 714.11,-272.81"/>
<polygon fill="midnightblue" stroke="midnightblue" points="500.48,-313.86 491.33,-319.2 501.82,-320.73 500.48,-313.86"/>
</g>
<!-- Node3&#45;&gt;Node2 -->
<g id="edge3" class="edge">
<title>Node3&#45;&gt;Node2</title>
<path fill="none" stroke="midnightblue" d="M41.58,-234.34C28.18,-225.23 14.6,-213.05 7.24,-198 -0.96,-181.23 -3.45,-171.3 7.24,-156 27.5,-127.02 64.45,-112.99 96.96,-106.22"/>
<polygon fill="midnightblue" stroke="midnightblue" points="39.97,-237.46 50.29,-239.88 43.73,-231.56 39.97,-237.46"/>
</g>
<!-- Node4 -->
<g id="node4" class="node">
<title>Node4</title>
<g id="a_node4"><a xlink:href="Screen_8cpp.xhtml" target="_top" xlink:title=" ">
<polygon fill="white" stroke="black" points="16.24,-162 16.24,-192 142.24,-192 142.24,-162 16.24,-162"/>
<text text-anchor="start" x="24.24" y="-180" font-family="Helvetica,sans-Serif" font-size="10.00">lib/3rd_party_adapters</text>
<text text-anchor="middle" x="79.24" y="-169" font-family="Helvetica,sans-Serif" font-size="10.00">/LVGL/Screen.cpp</text>
</a>
</g>
</g>
<!-- Node3&#45;&gt;Node4 -->
<g id="edge4" class="edge">
<title>Node3&#45;&gt;Node4</title>
<path fill="none" stroke="midnightblue" d="M79.24,-229.59C79.24,-217.26 79.24,-202.72 79.24,-192.23"/>
<polygon fill="midnightblue" stroke="midnightblue" points="75.74,-229.7 79.24,-239.7 82.74,-229.71 75.74,-229.7"/>
</g>
<!-- Node6 -->
<g id="node6" class="node">
<title>Node6</title>
<g id="a_node6"><a xlink:href="Display_8hpp.xhtml" target="_top" xlink:title=" ">
<polygon fill="white" stroke="black" points="198.24,-162 198.24,-192 324.24,-192 324.24,-162 198.24,-162"/>
<text text-anchor="start" x="206.24" y="-180" font-family="Helvetica,sans-Serif" font-size="10.00">lib/3rd_party_adapters</text>
<text text-anchor="middle" x="261.24" y="-169" font-family="Helvetica,sans-Serif" font-size="10.00">/LVGL/Display.hpp</text>
</a>
</g>
</g>
<!-- Node5&#45;&gt;Node6 -->
<g id="edge6" class="edge">
<title>Node5&#45;&gt;Node6</title>
<path fill="none" stroke="midnightblue" d="M373.02,-230.12C346.23,-217.63 314.34,-202.76 291.5,-192.11"/>
<polygon fill="midnightblue" stroke="midnightblue" points="371.72,-233.37 382.26,-234.43 374.68,-227.03 371.72,-233.37"/>
</g>
<!-- Node8 -->
<g id="node8" class="node">
<title>Node8</title>
<g id="a_node8"><a xlink:href="display__factory__interface_8hpp.xhtml" target="_top" xlink:title="Dependency injection for the display.">
<polygon fill="white" stroke="black" points="342.24,-156.5 342.24,-197.5 506.24,-197.5 506.24,-156.5 342.24,-156.5"/>
<text text-anchor="start" x="350.24" y="-185.5" font-family="Helvetica,sans-Serif" font-size="10.00">lib/application_business</text>
<text text-anchor="start" x="350.24" y="-174.5" font-family="Helvetica,sans-Serif" font-size="10.00">_rules/user_interaction</text>
<text text-anchor="middle" x="424.24" y="-163.5" font-family="Helvetica,sans-Serif" font-size="10.00">/display_factory_interface.hpp</text>
</a>
</g>
</g>
<!-- Node5&#45;&gt;Node8 -->
<g id="edge9" class="edge">
<title>Node5&#45;&gt;Node8</title>
<path fill="none" stroke="midnightblue" d="M424.24,-224.3C424.24,-215.3 424.24,-205.65 424.24,-197.51"/>
<polygon fill="midnightblue" stroke="midnightblue" points="420.74,-224.43 424.24,-234.43 427.74,-224.43 420.74,-224.43"/>
</g>
<!-- Node11 -->
<g id="node11" class="node">
<title>Node11</title>
<g id="a_node11"><a xlink:href="Menu_8hpp.xhtml" target="_top" xlink:title=" ">
<polygon fill="white" stroke="black" points="524.24,-156.5 524.24,-197.5 658.24,-197.5 658.24,-156.5 524.24,-156.5"/>
<text text-anchor="start" x="532.24" y="-185.5" font-family="Helvetica,sans-Serif" font-size="10.00">lib/application_business</text>
<text text-anchor="start" x="532.24" y="-174.5" font-family="Helvetica,sans-Serif" font-size="10.00">_rules/user_interaction</text>
<text text-anchor="middle" x="591.24" y="-163.5" font-family="Helvetica,sans-Serif" font-size="10.00">/Menu.hpp</text>
</a>
</g>
</g>
<!-- Node5&#45;&gt;Node11 -->
<g id="edge13" class="edge">
<title>Node5&#45;&gt;Node11</title>
<path fill="none" stroke="midnightblue" d="M476.56,-230.19C499.67,-219.67 526.49,-207.47 548.38,-197.51"/>
<polygon fill="midnightblue" stroke="midnightblue" points="474.9,-227.1 467.25,-234.43 477.8,-233.47 474.9,-227.1"/>
</g>
<!-- Node6&#45;&gt;Node2 -->
<g id="edge7" class="edge">
<title>Node6&#45;&gt;Node2</title>
<path fill="none" stroke="midnightblue" d="M234.14,-155.61C216.77,-142.54 194.65,-125.89 179.15,-114.23"/>
<polygon fill="midnightblue" stroke="midnightblue" points="232.15,-158.49 242.24,-161.7 236.36,-152.9 232.15,-158.49"/>
</g>
<!-- Node7 -->
<g id="node7" class="node">
<title>Node7</title>
<g id="a_node7"><a xlink:href="display__factory__interface_8cpp.xhtml" target="_top" xlink:title=" ">
<polygon fill="white" stroke="black" points="241.24,-78.5 241.24,-119.5 367.24,-119.5 367.24,-78.5 241.24,-78.5"/>
<text text-anchor="start" x="249.24" y="-107.5" font-family="Helvetica,sans-Serif" font-size="10.00">lib/3rd_party_adapters</text>
<text text-anchor="start" x="249.24" y="-96.5" font-family="Helvetica,sans-Serif" font-size="10.00">/LVGL/display_factory</text>
<text text-anchor="middle" x="304.24" y="-85.5" font-family="Helvetica,sans-Serif" font-size="10.00">_interface.cpp</text>
</a>
</g>
</g>
<!-- Node6&#45;&gt;Node7 -->
<g id="edge8" class="edge">
<title>Node6&#45;&gt;Node7</title>
<path fill="none" stroke="midnightblue" d="M274.28,-152.95C280.29,-142.33 287.35,-129.85 293.11,-119.68"/>
<polygon fill="midnightblue" stroke="midnightblue" points="271.21,-151.28 269.33,-161.7 277.3,-154.73 271.21,-151.28"/>
</g>
<!-- Node8&#45;&gt;Node7 -->
<g id="edge10" class="edge">
<title>Node8&#45;&gt;Node7</title>
<path fill="none" stroke="midnightblue" d="M384.64,-150.92C368.51,-140.7 350.14,-129.07 335.04,-119.51"/>
<polygon fill="midnightblue" stroke="midnightblue" points="383.02,-154.03 393.34,-156.43 386.76,-148.12 383.02,-154.03"/>
</g>
<!-- Node9 -->
<g id="node9" class="node">
<title>Node9</title>
<g id="a_node9"><a xlink:href="main_8cpp.xhtml" target="_top" xlink:title=" ">
<polygon fill="white" stroke="black" points="352.74,-11.5 352.74,-30.5 431.74,-30.5 431.74,-11.5 352.74,-11.5"/>
<text text-anchor="middle" x="392.24" y="-18.5" font-family="Helvetica,sans-Serif" font-size="10.00">src/main.cpp</text>
</a>
</g>
</g>
<!-- Node8&#45;&gt;Node9 -->
<g id="edge11" class="edge">
<title>Node8&#45;&gt;Node9</title>
<path fill="none" stroke="midnightblue" d="M418.13,-146.6C410.68,-110.76 398.53,-52.28 394.01,-30.51"/>
<polygon fill="midnightblue" stroke="midnightblue" points="414.73,-147.42 420.19,-156.5 421.58,-145.99 414.73,-147.42"/>
</g>
<!-- Node10 -->
<g id="node10" class="node">
<title>Node10</title>
<g id="a_node10"><a xlink:href="test__hmi_8cpp.xhtml" target="_top" xlink:title=" ">
<polygon fill="white" stroke="black" points="449.74,-6 449.74,-36 574.74,-36 574.74,-6 449.74,-6"/>
<text text-anchor="start" x="457.74" y="-24" font-family="Helvetica,sans-Serif" font-size="10.00">test/hmi/test_hmi/test</text>
<text text-anchor="middle" x="512.24" y="-13" font-family="Helvetica,sans-Serif" font-size="10.00">_hmi.cpp</text>
</a>
</g>
</g>
<!-- Node8&#45;&gt;Node10 -->
<g id="edge12" class="edge">
<title>Node8&#45;&gt;Node10</title>
<path fill="none" stroke="midnightblue" d="M440.37,-147.78C459.19,-114.85 489.58,-61.66 504.06,-36.32"/>
<polygon fill="midnightblue" stroke="midnightblue" points="437.31,-146.08 435.39,-156.5 443.39,-149.55 437.31,-146.08"/>
</g>
<!-- Node11&#45;&gt;Node9 -->
<g id="edge20" class="edge">
<title>Node11&#45;&gt;Node9</title>
<path fill="none" stroke="midnightblue" d="M553.26,-150.76C539.52,-141.36 524,-130.44 510.24,-120 468.87,-88.62 422.06,-48.18 402.1,-30.7"/>
<polygon fill="midnightblue" stroke="midnightblue" points="551.32,-153.67 561.55,-156.39 555.25,-147.88 551.32,-153.67"/>
</g>
<!-- Node11&#45;&gt;Node10 -->
<g id="edge21" class="edge">
<title>Node11&#45;&gt;Node10</title>
<path fill="none" stroke="midnightblue" d="M553.6,-149.99C543.91,-141.51 534.48,-131.33 528.24,-120 513.45,-93.11 511.49,-56.24 511.67,-36.26"/>
<polygon fill="midnightblue" stroke="midnightblue" points="551.43,-152.73 561.37,-156.41 555.89,-147.34 551.43,-152.73"/>
</g>
<!-- Node11&#45;&gt;Node12 -->
<g id="edge14" class="edge">
<title>Node11&#45;&gt;Node12</title>
<path fill="none" stroke="midnightblue" d="M642.94,-152.19C665.76,-141.67 692.26,-129.47 713.89,-119.51"/>
<polygon fill="midnightblue" stroke="midnightblue" points="641.35,-149.07 633.73,-156.43 644.28,-155.42 641.35,-149.07"/>
</g>
<!-- Node13 -->
<g id="node13" class="node">
<title>Node13</title>
<g id="a_node13"><a xlink:href="Presenter_8hpp.xhtml" target="_top" xlink:title=" ">
<polygon fill="white" stroke="black" points="537.24,-78.5 537.24,-119.5 671.24,-119.5 671.24,-78.5 537.24,-78.5"/>
<text text-anchor="start" x="545.24" y="-107.5" font-family="Helvetica,sans-Serif" font-size="10.00">lib/application_business</text>
<text text-anchor="start" x="545.24" y="-96.5" font-family="Helvetica,sans-Serif" font-size="10.00">_rules/user_interaction</text>
<text text-anchor="middle" x="604.24" y="-85.5" font-family="Helvetica,sans-Serif" font-size="10.00">/Presenter.hpp</text>
</a>
</g>
</g>
<!-- Node11&#45;&gt;Node13 -->
<g id="edge15" class="edge">
<title>Node11&#45;&gt;Node13</title>
<path fill="none" stroke="midnightblue" d="M596.32,-146.3C597.86,-137.3 599.51,-127.65 600.9,-119.51"/>
<polygon fill="midnightblue" stroke="midnightblue" points="592.83,-145.98 594.59,-156.43 599.72,-147.16 592.83,-145.98"/>
</g>
<!-- Node13&#45;&gt;Node9 -->
<g id="edge18" class="edge">
<title>Node13&#45;&gt;Node9</title>
<path fill="none" stroke="midnightblue" d="M535.06,-75.2C505.96,-65.35 471.82,-53.48 441.24,-42 431.78,-38.45 421.4,-34.25 412.64,-30.63"/>
<polygon fill="midnightblue" stroke="midnightblue" points="534.13,-78.58 544.72,-78.45 536.36,-71.94 534.13,-78.58"/>
</g>
<!-- Node13&#45;&gt;Node10 -->
<g id="edge19" class="edge">
<title>Node13&#45;&gt;Node10</title>
<path fill="none" stroke="midnightblue" d="M572.76,-71.99C558.26,-60.02 541.62,-46.27 529.46,-36.23"/>
<polygon fill="midnightblue" stroke="midnightblue" points="570.61,-74.76 580.55,-78.43 575.07,-69.36 570.61,-74.76"/>
</g>
<!-- Node14 -->
<g id="node14" class="node">
<title>Node14</title>
<g id="a_node14"><a xlink:href="Presenter_8cpp.xhtml" target="_top" xlink:title=" ">
<polygon fill="white" stroke="black" points="593.24,-0.5 593.24,-41.5 727.24,-41.5 727.24,-0.5 593.24,-0.5"/>
<text text-anchor="start" x="601.24" y="-29.5" font-family="Helvetica,sans-Serif" font-size="10.00">lib/application_business</text>
<text text-anchor="start" x="601.24" y="-18.5" font-family="Helvetica,sans-Serif" font-size="10.00">_rules/user_interaction</text>
<text text-anchor="middle" x="660.24" y="-7.5" font-family="Helvetica,sans-Serif" font-size="10.00">/Presenter.cpp</text>
</a>
</g>
</g>
<!-- Node13&#45;&gt;Node14 -->
<g id="edge16" class="edge">
<title>Node13&#45;&gt;Node14</title>
<path fill="none" stroke="midnightblue" d="M624.62,-70.34C631.67,-60.78 639.41,-50.27 645.87,-41.51"/>
<polygon fill="midnightblue" stroke="midnightblue" points="621.78,-68.3 618.66,-78.43 627.41,-72.45 621.78,-68.3"/>
</g>
<!-- Node15 -->
<g id="node15" class="node">
<title>Node15</title>
<g id="a_node15"><a xlink:href="ProcessHmiInputs_8cpp.xhtml" target="_top" xlink:title=" ">
<polygon fill="white" stroke="black" points="745.24,-0.5 745.24,-41.5 879.24,-41.5 879.24,-0.5 745.24,-0.5"/>
<text text-anchor="start" x="753.24" y="-29.5" font-family="Helvetica,sans-Serif" font-size="10.00">lib/application_business</text>
<text text-anchor="start" x="753.24" y="-18.5" font-family="Helvetica,sans-Serif" font-size="10.00">_rules/user_interaction</text>
<text text-anchor="middle" x="812.24" y="-7.5" font-family="Helvetica,sans-Serif" font-size="10.00">/ProcessHmiInputs.cpp</text>
</a>
</g>
</g>
<!-- Node13&#45;&gt;Node15 -->
<g id="edge17" class="edge">
<title>Node13&#45;&gt;Node15</title>
<path fill="none" stroke="midnightblue" d="M667.5,-74.89C696.7,-64.22 730.98,-51.69 758.86,-41.51"/>
<polygon fill="midnightblue" stroke="midnightblue" points="666,-71.71 657.81,-78.43 668.4,-78.28 666,-71.71"/>
</g>
</g>
</svg>
