<?xml version="1.0" encoding="UTF-8" standalone="no"?>
<!DOCTYPE svg PUBLIC "-//W3C//DTD SVG 1.1//EN"
 "http://www.w3.org/Graphics/SVG/1.1/DTD/svg11.dtd">
<!-- Generated by graphviz version 2.43.0 (0)
 -->
<!-- Title: lib/application_business_rules/user_interaction/Menu.hpp Pages: 1 -->
<svg width="535pt" height="206pt"
 viewBox="0.00 0.00 534.50 206.00" xmlns="http://www.w3.org/2000/svg" xmlns:xlink="http://www.w3.org/1999/xlink">
<g id="graph0" class="graph" transform="scale(1 1) rotate(0) translate(4 202)">
<title>lib/application_business_rules/user_interaction/Menu.hpp</title>
<polygon fill="white" stroke="transparent" points="-4,4 -4,-202 530.5,-202 530.5,4 -4,4"/>
<!-- Node1 -->
<g id="node1" class="node">
<title>Node1</title>
<g id="a_node1"><a xlink:title=" ">
<polygon fill="#bfbfbf" stroke="black" points="250,-156.5 250,-197.5 384,-197.5 384,-156.5 250,-156.5"/>
<text text-anchor="start" x="258" y="-185.5" font-family="Helvetica,sans-Serif" font-size="10.00">lib/application_business</text>
<text text-anchor="start" x="258" y="-174.5" font-family="Helvetica,sans-Serif" font-size="10.00">_rules/user_interaction</text>
<text text-anchor="middle" x="317" y="-163.5" font-family="Helvetica,sans-Serif" font-size="10.00">/Menu.hpp</text>
</a>
</g>
</g>
<!-- Node2 -->
<g id="node2" class="node">
<title>Node2</title>
<g id="a_node2"><a xlink:href="Menu_8cpp.xhtml" target="_top" xlink:title=" ">
<polygon fill="white" stroke="black" points="51,-78.5 51,-119.5 185,-119.5 185,-78.5 51,-78.5"/>
<text text-anchor="start" x="59" y="-107.5" font-family="Helvetica,sans-Serif" font-size="10.00">lib/application_business</text>
<text text-anchor="start" x="59" y="-96.5" font-family="Helvetica,sans-Serif" font-size="10.00">_rules/user_interaction</text>
<text text-anchor="middle" x="118" y="-85.5" font-family="Helvetica,sans-Serif" font-size="10.00">/Menu.cpp</text>
</a>
</g>
</g>
<!-- Node1&#45;&gt;Node2 -->
<g id="edge1" class="edge">
<title>Node1&#45;&gt;Node2</title>
<path fill="none" stroke="midnightblue" d="M256.12,-152.75C228.26,-142.11 195.63,-129.65 169.07,-119.51"/>
<polygon fill="midnightblue" stroke="midnightblue" points="255.16,-156.13 265.75,-156.43 257.66,-149.59 255.16,-156.13"/>
</g>
<!-- Node3 -->
<g id="node3" class="node">
<title>Node3</title>
<g id="a_node3"><a xlink:href="Presenter_8hpp.xhtml" target="_top" xlink:title=" ">
<polygon fill="white" stroke="black" points="203,-78.5 203,-119.5 337,-119.5 337,-78.5 203,-78.5"/>
<text text-anchor="start" x="211" y="-107.5" font-family="Helvetica,sans-Serif" font-size="10.00">lib/application_business</text>
<text text-anchor="start" x="211" y="-96.5" font-family="Helvetica,sans-Serif" font-size="10.00">_rules/user_interaction</text>
<text text-anchor="middle" x="270" y="-85.5" font-family="Helvetica,sans-Serif" font-size="10.00">/Presenter.hpp</text>
</a>
</g>
</g>
<!-- Node1&#45;&gt;Node3 -->
<g id="edge2" class="edge">
<title>Node1&#45;&gt;Node3</title>
<path fill="none" stroke="midnightblue" d="M299.53,-147.76C293.72,-138.35 287.38,-128.1 282.06,-119.51"/>
<polygon fill="midnightblue" stroke="midnightblue" points="296.66,-149.76 304.9,-156.43 302.61,-146.08 296.66,-149.76"/>
</g>
<!-- Node6 -->
<g id="node6" class="node">
<title>Node6</title>
<g id="a_node6"><a xlink:href="main_8cpp.xhtml" target="_top" xlink:title=" ">
<polygon fill="white" stroke="black" points="304.5,-11.5 304.5,-30.5 383.5,-30.5 383.5,-11.5 304.5,-11.5"/>
<text text-anchor="middle" x="344" y="-18.5" font-family="Helvetica,sans-Serif" font-size="10.00">src/main.cpp</text>
</a>
</g>
</g>
<!-- Node1&#45;&gt;Node6 -->
<g id="edge7" class="edge">
<title>Node1&#45;&gt;Node6</title>
<path fill="none" stroke="midnightblue" d="M335,-147.65C339.5,-139.09 343.7,-129.45 346,-120 353.85,-87.76 348.58,-47.77 345.62,-30.55"/>
<polygon fill="midnightblue" stroke="midnightblue" points="331.9,-146.01 330.07,-156.44 338.01,-149.43 331.9,-146.01"/>
</g>
<!-- Node7 -->
<g id="node7" class="node">
<title>Node7</title>
<g id="a_node7"><a xlink:href="test__hmi_8cpp.xhtml" target="_top" xlink:title=" ">
<polygon fill="white" stroke="black" points="401.5,-6 401.5,-36 526.5,-36 526.5,-6 401.5,-6"/>
<text text-anchor="start" x="409.5" y="-24" font-family="Helvetica,sans-Serif" font-size="10.00">test/hmi/test_hmi/test</text>
<text text-anchor="middle" x="464" y="-13" font-family="Helvetica,sans-Serif" font-size="10.00">_hmi.cpp</text>
</a>
</g>
</g>
<!-- Node1&#45;&gt;Node7 -->
<g id="edge8" class="edge">
<title>Node1&#45;&gt;Node7</title>
<path fill="none" stroke="midnightblue" d="M342.73,-149.04C374.07,-116.21 425.83,-61.99 450.33,-36.32"/>
<polygon fill="midnightblue" stroke="midnightblue" points="339.99,-146.85 335.62,-156.5 345.05,-151.68 339.99,-146.85"/>
</g>
<!-- Node4 -->
<g id="node4" class="node">
<title>Node4</title>
<g id="a_node4"><a xlink:href="Presenter_8cpp.xhtml" target="_top" xlink:title=" ">
<polygon fill="white" stroke="black" points="0,-0.5 0,-41.5 134,-41.5 134,-0.5 0,-0.5"/>
<text text-anchor="start" x="8" y="-29.5" font-family="Helvetica,sans-Serif" font-size="10.00">lib/application_business</text>
<text text-anchor="start" x="8" y="-18.5" font-family="Helvetica,sans-Serif" font-size="10.00">_rules/user_interaction</text>
<text text-anchor="middle" x="67" y="-7.5" font-family="Helvetica,sans-Serif" font-size="10.00">/Presenter.cpp</text>
</a>
</g>
</g>
<!-- Node3&#45;&gt;Node4 -->
<g id="edge3" class="edge">
<title>Node3&#45;&gt;Node4</title>
<path fill="none" stroke="midnightblue" d="M208.26,-74.89C179.77,-64.22 146.3,-51.69 119.1,-41.51"/>
<polygon fill="midnightblue" stroke="midnightblue" points="207.13,-78.2 217.72,-78.43 209.58,-71.64 207.13,-78.2"/>
</g>
<!-- Node5 -->
<g id="node5" class="node">
<title>Node5</title>
<g id="a_node5"><a xlink:href="ProcessHmiInputs_8cpp.xhtml" target="_top" xlink:title=" ">
<polygon fill="white" stroke="black" points="152,-0.5 152,-41.5 286,-41.5 286,-0.5 152,-0.5"/>
<text text-anchor="start" x="160" y="-29.5" font-family="Helvetica,sans-Serif" font-size="10.00">lib/application_business</text>
<text text-anchor="start" x="160" y="-18.5" font-family="Helvetica,sans-Serif" font-size="10.00">_rules/user_interaction</text>
<text text-anchor="middle" x="219" y="-7.5" font-family="Helvetica,sans-Serif" font-size="10.00">/ProcessHmiInputs.cpp</text>
</a>
</g>
</g>
<!-- Node3&#45;&gt;Node5 -->
<g id="edge4" class="edge">
<title>Node3&#45;&gt;Node5</title>
<path fill="none" stroke="midnightblue" d="M251.24,-70.05C244.88,-60.57 237.91,-50.18 232.09,-41.51"/>
<polygon fill="midnightblue" stroke="midnightblue" points="248.39,-72.07 256.87,-78.43 254.2,-68.17 248.39,-72.07"/>
</g>
<!-- Node3&#45;&gt;Node6 -->
<g id="edge5" class="edge">
<title>Node3&#45;&gt;Node6</title>
<path fill="none" stroke="midnightblue" d="M296.07,-71.23C309.96,-56.96 326.11,-40.37 335.67,-30.55"/>
<polygon fill="midnightblue" stroke="midnightblue" points="293.53,-68.82 289.06,-78.43 298.54,-73.71 293.53,-68.82"/>
</g>
<!-- Node3&#45;&gt;Node7 -->
<g id="edge6" class="edge">
<title>Node3&#45;&gt;Node7</title>
<path fill="none" stroke="midnightblue" d="M329.29,-74.77C361.52,-62.15 400.33,-46.94 427.99,-36.11"/>
<polygon fill="midnightblue" stroke="midnightblue" points="327.99,-71.52 319.96,-78.43 330.55,-78.04 327.99,-71.52"/>
</g>
</g>
</svg>
