<?xml version="1.0" encoding="UTF-8" standalone="no"?>
<!DOCTYPE svg PUBLIC "-//W3C//DTD SVG 1.1//EN"
 "http://www.w3.org/Graphics/SVG/1.1/DTD/svg11.dtd">
<!-- Generated by graphviz version 2.43.0 (0)
 -->
<!-- Title: lib/application_business_rules/user_interaction/MenuItem.hpp Pages: 1 -->
<svg width="907pt" height="362pt"
 viewBox="0.00 0.00 907.00 362.00" xmlns="http://www.w3.org/2000/svg" xmlns:xlink="http://www.w3.org/1999/xlink">
<g id="graph0" class="graph" transform="scale(1 1) rotate(0) translate(4 358)">
<title>lib/application_business_rules/user_interaction/MenuItem.hpp</title>
<polygon fill="white" stroke="transparent" points="-4,4 -4,-358 903,-358 903,4 -4,4"/>
<!-- Node1 -->
<g id="node1" class="node">
<title>Node1</title>
<g id="a_node1"><a xlink:title=" ">
<polygon fill="#bfbfbf" stroke="black" points="401,-312.5 401,-353.5 535,-353.5 535,-312.5 401,-312.5"/>
<text text-anchor="start" x="409" y="-341.5" font-family="Helvetica,sans-Serif" font-size="10.00">lib/application_business</text>
<text text-anchor="start" x="409" y="-330.5" font-family="Helvetica,sans-Serif" font-size="10.00">_rules/user_interaction</text>
<text text-anchor="middle" x="468" y="-319.5" font-family="Helvetica,sans-Serif" font-size="10.00">/MenuItem.hpp</text>
</a>
</g>
</g>
<!-- Node2 -->
<g id="node2" class="node">
<title>Node2</title>
<g id="a_node2"><a xlink:href="GuiEngine_8cpp.xhtml" target="_top" xlink:title=" ">
<polygon fill="white" stroke="black" points="0,-84 0,-114 126,-114 126,-84 0,-84"/>
<text text-anchor="start" x="8" y="-102" font-family="Helvetica,sans-Serif" font-size="10.00">lib/3rd_party_adapters</text>
<text text-anchor="middle" x="63" y="-91" font-family="Helvetica,sans-Serif" font-size="10.00">/LVGL/GuiEngine.cpp</text>
</a>
</g>
</g>
<!-- Node1&#45;&gt;Node2 -->
<g id="edge1" class="edge">
<title>Node1&#45;&gt;Node2</title>
<path fill="none" stroke="midnightblue" d="M390.83,-330.82C291.31,-327.66 125.77,-316.29 82,-276 36.1,-233.75 51.05,-147.84 59.2,-114.07"/>
<polygon fill="midnightblue" stroke="midnightblue" points="390.75,-334.32 400.85,-331.12 390.96,-327.32 390.75,-334.32"/>
</g>
<!-- Node3 -->
<g id="node3" class="node">
<title>Node3</title>
<g id="a_node3"><a xlink:href="Screen_8hpp.xhtml" target="_top" xlink:title=" ">
<polygon fill="white" stroke="black" points="91,-240 91,-270 217,-270 217,-240 91,-240"/>
<text text-anchor="start" x="99" y="-258" font-family="Helvetica,sans-Serif" font-size="10.00">lib/3rd_party_adapters</text>
<text text-anchor="middle" x="154" y="-247" font-family="Helvetica,sans-Serif" font-size="10.00">/LVGL/Screen.hpp</text>
</a>
</g>
</g>
<!-- Node1&#45;&gt;Node3 -->
<g id="edge2" class="edge">
<title>Node1&#45;&gt;Node3</title>
<path fill="none" stroke="midnightblue" d="M390.89,-313.34C335.63,-299.96 262.36,-282.23 212.02,-270.04"/>
<polygon fill="midnightblue" stroke="midnightblue" points="390.1,-316.75 400.64,-315.7 391.74,-309.94 390.1,-316.75"/>
</g>
<!-- Node5 -->
<g id="node5" class="node">
<title>Node5</title>
<g id="a_node5"><a xlink:href="IGuiEngine_8hpp.xhtml" target="_top" xlink:title=" ">
<polygon fill="white" stroke="black" points="401,-234.5 401,-275.5 535,-275.5 535,-234.5 401,-234.5"/>
<text text-anchor="start" x="409" y="-263.5" font-family="Helvetica,sans-Serif" font-size="10.00">lib/application_business</text>
<text text-anchor="start" x="409" y="-252.5" font-family="Helvetica,sans-Serif" font-size="10.00">_rules/user_interaction</text>
<text text-anchor="middle" x="468" y="-241.5" font-family="Helvetica,sans-Serif" font-size="10.00">/IGuiEngine.hpp</text>
</a>
</g>
</g>
<!-- Node1&#45;&gt;Node5 -->
<g id="edge5" class="edge">
<title>Node1&#45;&gt;Node5</title>
<path fill="none" stroke="midnightblue" d="M468,-302.3C468,-293.3 468,-283.65 468,-275.51"/>
<polygon fill="midnightblue" stroke="midnightblue" points="464.5,-302.43 468,-312.43 471.5,-302.43 464.5,-302.43"/>
</g>
<!-- Node11 -->
<g id="node11" class="node">
<title>Node11</title>
<g id="a_node11"><a xlink:href="Menu_8cpp.xhtml" target="_top" xlink:title=" ">
<polygon fill="white" stroke="black" points="686,-78.5 686,-119.5 820,-119.5 820,-78.5 686,-78.5"/>
<text text-anchor="start" x="694" y="-107.5" font-family="Helvetica,sans-Serif" font-size="10.00">lib/application_business</text>
<text text-anchor="start" x="694" y="-96.5" font-family="Helvetica,sans-Serif" font-size="10.00">_rules/user_interaction</text>
<text text-anchor="middle" x="753" y="-85.5" font-family="Helvetica,sans-Serif" font-size="10.00">/Menu.cpp</text>
</a>
</g>
</g>
<!-- Node1&#45;&gt;Node11 -->
<g id="edge18" class="edge">
<title>Node1&#45;&gt;Node11</title>
<path fill="none" stroke="midnightblue" d="M541.57,-308.93C597.04,-288.08 671.3,-252.24 718,-198 737.45,-175.41 746.37,-141.23 750.25,-119.78"/>
<polygon fill="midnightblue" stroke="midnightblue" points="540.32,-305.67 532.14,-312.4 542.74,-312.24 540.32,-305.67"/>
</g>
<!-- Node14 -->
<g id="node14" class="node">
<title>Node14</title>
<g id="a_node14"><a xlink:href="MenuItem_8cpp.xhtml" target="_top" xlink:title=" ">
<polygon fill="white" stroke="black" points="765,-234.5 765,-275.5 899,-275.5 899,-234.5 765,-234.5"/>
<text text-anchor="start" x="773" y="-263.5" font-family="Helvetica,sans-Serif" font-size="10.00">lib/application_business</text>
<text text-anchor="start" x="773" y="-252.5" font-family="Helvetica,sans-Serif" font-size="10.00">_rules/user_interaction</text>
<text text-anchor="middle" x="832" y="-241.5" font-family="Helvetica,sans-Serif" font-size="10.00">/MenuItem.cpp</text>
</a>
</g>
</g>
<!-- Node1&#45;&gt;Node14 -->
<g id="edge19" class="edge">
<title>Node1&#45;&gt;Node14</title>
<path fill="none" stroke="midnightblue" d="M545.11,-317.75C602.12,-306.97 681.59,-291.43 751,-276 755.52,-274.99 760.18,-273.93 764.87,-272.83"/>
<polygon fill="midnightblue" stroke="midnightblue" points="544.26,-314.35 535.08,-319.64 545.56,-321.23 544.26,-314.35"/>
</g>
<!-- Node3&#45;&gt;Node2 -->
<g id="edge3" class="edge">
<title>Node3&#45;&gt;Node2</title>
<path fill="none" stroke="midnightblue" d="M118.71,-234.18C105.24,-224.88 90.97,-212.61 82,-198 65.77,-171.56 62.95,-134.18 62.72,-114.09"/>
<polygon fill="midnightblue" stroke="midnightblue" points="117.1,-237.31 127.39,-239.85 120.93,-231.45 117.1,-237.31"/>
</g>
<!-- Node4 -->
<g id="node4" class="node">
<title>Node4</title>
<g id="a_node4"><a xlink:href="Screen_8cpp.xhtml" target="_top" xlink:title=" ">
<polygon fill="white" stroke="black" points="91,-162 91,-192 217,-192 217,-162 91,-162"/>
<text text-anchor="start" x="99" y="-180" font-family="Helvetica,sans-Serif" font-size="10.00">lib/3rd_party_adapters</text>
<text text-anchor="middle" x="154" y="-169" font-family="Helvetica,sans-Serif" font-size="10.00">/LVGL/Screen.cpp</text>
</a>
</g>
</g>
<!-- Node3&#45;&gt;Node4 -->
<g id="edge4" class="edge">
<title>Node3&#45;&gt;Node4</title>
<path fill="none" stroke="midnightblue" d="M154,-229.59C154,-217.26 154,-202.72 154,-192.23"/>
<polygon fill="midnightblue" stroke="midnightblue" points="150.5,-229.7 154,-239.7 157.5,-229.71 150.5,-229.7"/>
</g>
<!-- Node6 -->
<g id="node6" class="node">
<title>Node6</title>
<g id="a_node6"><a xlink:href="GuiEngine_8hpp.xhtml" target="_top" xlink:title=" ">
<polygon fill="white" stroke="black" points="235,-162 235,-192 361,-192 361,-162 235,-162"/>
<text text-anchor="start" x="243" y="-180" font-family="Helvetica,sans-Serif" font-size="10.00">lib/3rd_party_adapters</text>
<text text-anchor="middle" x="298" y="-169" font-family="Helvetica,sans-Serif" font-size="10.00">/LVGL/GuiEngine.hpp</text>
</a>
</g>
</g>
<!-- Node5&#45;&gt;Node6 -->
<g id="edge6" class="edge">
<title>Node5&#45;&gt;Node6</title>
<path fill="none" stroke="midnightblue" d="M414.95,-230.28C386.93,-217.76 353.48,-202.81 329.55,-192.11"/>
<polygon fill="midnightblue" stroke="midnightblue" points="413.66,-233.54 424.22,-234.43 416.52,-227.15 413.66,-233.54"/>
</g>
<!-- Node8 -->
<g id="node8" class="node">
<title>Node8</title>
<g id="a_node8"><a xlink:href="guiEngine__factory__interface_8hpp.xhtml" target="_top" xlink:title="Dependency injection for the guiEngine.">
<polygon fill="white" stroke="black" points="379.5,-156.5 379.5,-197.5 556.5,-197.5 556.5,-156.5 379.5,-156.5"/>
<text text-anchor="start" x="387.5" y="-185.5" font-family="Helvetica,sans-Serif" font-size="10.00">lib/application_business</text>
<text text-anchor="start" x="387.5" y="-174.5" font-family="Helvetica,sans-Serif" font-size="10.00">_rules/user_interaction</text>
<text text-anchor="middle" x="468" y="-163.5" font-family="Helvetica,sans-Serif" font-size="10.00">/guiEngine_factory_interface.hpp</text>
</a>
</g>
</g>
<!-- Node5&#45;&gt;Node8 -->
<g id="edge9" class="edge">
<title>Node5&#45;&gt;Node8</title>
<path fill="none" stroke="midnightblue" d="M468,-224.3C468,-215.3 468,-205.65 468,-197.51"/>
<polygon fill="midnightblue" stroke="midnightblue" points="464.5,-224.43 468,-234.43 471.5,-224.43 464.5,-224.43"/>
</g>
<!-- Node10 -->
<g id="node10" class="node">
<title>Node10</title>
<g id="a_node10"><a xlink:href="Menu_8hpp.xhtml" target="_top" xlink:title=" ">
<polygon fill="white" stroke="black" points="575,-156.5 575,-197.5 709,-197.5 709,-156.5 575,-156.5"/>
<text text-anchor="start" x="583" y="-185.5" font-family="Helvetica,sans-Serif" font-size="10.00">lib/application_business</text>
<text text-anchor="start" x="583" y="-174.5" font-family="Helvetica,sans-Serif" font-size="10.00">_rules/user_interaction</text>
<text text-anchor="middle" x="642" y="-163.5" font-family="Helvetica,sans-Serif" font-size="10.00">/Menu.hpp</text>
</a>
</g>
</g>
<!-- Node5&#45;&gt;Node10 -->
<g id="edge12" class="edge">
<title>Node5&#45;&gt;Node10</title>
<path fill="none" stroke="midnightblue" d="M522.19,-230.33C546.34,-219.78 574.43,-207.51 597.34,-197.51"/>
<polygon fill="midnightblue" stroke="midnightblue" points="520.57,-227.22 512.81,-234.43 523.37,-233.63 520.57,-227.22"/>
</g>
<!-- Node6&#45;&gt;Node2 -->
<g id="edge7" class="edge">
<title>Node6&#45;&gt;Node2</title>
<path fill="none" stroke="midnightblue" d="M244.9,-158.83C203.11,-145.31 145.61,-126.72 106.52,-114.07"/>
<polygon fill="midnightblue" stroke="midnightblue" points="244.03,-162.22 254.62,-161.97 246.19,-155.56 244.03,-162.22"/>
</g>
<!-- Node7 -->
<g id="node7" class="node">
<title>Node7</title>
<g id="a_node7"><a xlink:href="guiEngine__factory__interface_8cpp.xhtml" target="_top" xlink:title=" ">
<polygon fill="white" stroke="black" points="268,-78.5 268,-119.5 402,-119.5 402,-78.5 268,-78.5"/>
<text text-anchor="start" x="276" y="-107.5" font-family="Helvetica,sans-Serif" font-size="10.00">lib/3rd_party_adapters</text>
<text text-anchor="start" x="276" y="-96.5" font-family="Helvetica,sans-Serif" font-size="10.00">/LVGL/guiEngine_factory</text>
<text text-anchor="middle" x="335" y="-85.5" font-family="Helvetica,sans-Serif" font-size="10.00">_interface.cpp</text>
</a>
</g>
</g>
<!-- Node6&#45;&gt;Node7 -->
<g id="edge8" class="edge">
<title>Node6&#45;&gt;Node7</title>
<path fill="none" stroke="midnightblue" d="M309.38,-152.63C314.51,-142.08 320.52,-129.75 325.42,-119.68"/>
<polygon fill="midnightblue" stroke="midnightblue" points="306.19,-151.18 304.96,-161.7 312.48,-154.25 306.19,-151.18"/>
</g>
<!-- Node8&#45;&gt;Node7 -->
<g id="edge10" class="edge">
<title>Node8&#45;&gt;Node7</title>
<path fill="none" stroke="midnightblue" d="M424.61,-151.2C406.61,-140.92 386.03,-129.16 369.13,-119.51"/>
<polygon fill="midnightblue" stroke="midnightblue" points="423.33,-154.51 433.75,-156.43 426.8,-148.43 423.33,-154.51"/>
</g>
<!-- Node9 -->
<g id="node9" class="node">
<title>Node9</title>
<g id="a_node9"><a xlink:href="main_8cpp.xhtml" target="_top" xlink:title=" ">
<polygon fill="white" stroke="black" points="451.5,-11.5 451.5,-30.5 530.5,-30.5 530.5,-11.5 451.5,-11.5"/>
<text text-anchor="middle" x="491" y="-18.5" font-family="Helvetica,sans-Serif" font-size="10.00">src/main.cpp</text>
</a>
</g>
</g>
<!-- Node8&#45;&gt;Node9 -->
<g id="edge11" class="edge">
<title>Node8&#45;&gt;Node9</title>
<path fill="none" stroke="midnightblue" d="M472.39,-146.6C477.74,-110.76 486.48,-52.28 489.73,-30.51"/>
<polygon fill="midnightblue" stroke="midnightblue" points="468.93,-146.09 470.91,-156.5 475.85,-147.12 468.93,-146.09"/>
</g>
<!-- Node10&#45;&gt;Node9 -->
<g id="edge17" class="edge">
<title>Node10&#45;&gt;Node9</title>
<path fill="none" stroke="midnightblue" d="M569.51,-152.21C553.16,-144.09 537.09,-133.53 525,-120 501.24,-93.41 493.9,-49.33 491.79,-30.72"/>
<polygon fill="midnightblue" stroke="midnightblue" points="568.05,-155.4 578.59,-156.48 571.03,-149.06 568.05,-155.4"/>
</g>
<!-- Node10&#45;&gt;Node11 -->
<g id="edge13" class="edge">
<title>Node10&#45;&gt;Node11</title>
<path fill="none" stroke="midnightblue" d="M679.05,-150.64C693.87,-140.49 710.67,-128.98 724.51,-119.51"/>
<polygon fill="midnightblue" stroke="midnightblue" points="676.86,-147.89 670.59,-156.43 680.81,-153.67 676.86,-147.89"/>
</g>
<!-- Node12 -->
<g id="node12" class="node">
<title>Node12</title>
<g id="a_node12"><a xlink:href="Presenter_8hpp.xhtml" target="_top" xlink:title=" ">
<polygon fill="white" stroke="black" points="534,-78.5 534,-119.5 668,-119.5 668,-78.5 534,-78.5"/>
<text text-anchor="start" x="542" y="-107.5" font-family="Helvetica,sans-Serif" font-size="10.00">lib/application_business</text>
<text text-anchor="start" x="542" y="-96.5" font-family="Helvetica,sans-Serif" font-size="10.00">_rules/user_interaction</text>
<text text-anchor="middle" x="601" y="-85.5" font-family="Helvetica,sans-Serif" font-size="10.00">/Presenter.hpp</text>
</a>
</g>
</g>
<!-- Node10&#45;&gt;Node12 -->
<g id="edge14" class="edge">
<title>Node10&#45;&gt;Node12</title>
<path fill="none" stroke="midnightblue" d="M626.61,-147.47C621.58,-138.14 616.11,-128.01 611.52,-119.51"/>
<polygon fill="midnightblue" stroke="midnightblue" points="623.61,-149.29 631.44,-156.43 629.77,-145.97 623.61,-149.29"/>
</g>
<!-- Node12&#45;&gt;Node9 -->
<g id="edge16" class="edge">
<title>Node12&#45;&gt;Node9</title>
<path fill="none" stroke="midnightblue" d="M564.23,-72.59C543.15,-58.03 518.04,-40.69 503.38,-30.55"/>
<polygon fill="midnightblue" stroke="midnightblue" points="562.46,-75.62 572.67,-78.43 566.43,-69.86 562.46,-75.62"/>
</g>
<!-- Node13 -->
<g id="node13" class="node">
<title>Node13</title>
<g id="a_node13"><a xlink:href="Presenter_8cpp.xhtml" target="_top" xlink:title=" ">
<polygon fill="white" stroke="black" points="549,-0.5 549,-41.5 683,-41.5 683,-0.5 549,-0.5"/>
<text text-anchor="start" x="557" y="-29.5" font-family="Helvetica,sans-Serif" font-size="10.00">lib/application_business</text>
<text text-anchor="start" x="557" y="-18.5" font-family="Helvetica,sans-Serif" font-size="10.00">_rules/user_interaction</text>
<text text-anchor="middle" x="616" y="-7.5" font-family="Helvetica,sans-Serif" font-size="10.00">/Presenter.cpp</text>
</a>
</g>
</g>
<!-- Node12&#45;&gt;Node13 -->
<g id="edge15" class="edge">
<title>Node12&#45;&gt;Node13</title>
<path fill="none" stroke="midnightblue" d="M606.8,-68.59C608.6,-59.51 610.52,-49.74 612.15,-41.51"/>
<polygon fill="midnightblue" stroke="midnightblue" points="603.37,-67.94 604.86,-78.43 610.23,-69.3 603.37,-67.94"/>
</g>
</g>
</svg>
