<?xml version="1.0" encoding="UTF-8" standalone="no"?>
<!DOCTYPE svg PUBLIC "-//W3C//DTD SVG 1.1//EN"
 "http://www.w3.org/Graphics/SVG/1.1/DTD/svg11.dtd">
<!-- Generated by graphviz version 2.43.0 (0)
 -->
<!-- Title: lib/application_business_rules/user_interaction/Menu.hpp Pages: 1 -->
<svg width="358pt" height="274pt"
 viewBox="0.00 0.00 357.50 274.00" xmlns="http://www.w3.org/2000/svg" xmlns:xlink="http://www.w3.org/1999/xlink">
<g id="graph0" class="graph" transform="scale(1 1) rotate(0) translate(4 270)">
<title>lib/application_business_rules/user_interaction/Menu.hpp</title>
<polygon fill="white" stroke="transparent" points="-4,4 -4,-270 353.5,-270 353.5,4 -4,4"/>
<!-- Node1 -->
<g id="node1" class="node">
<title>Node1</title>
<g id="a_node1"><a xlink:title=" ">
<polygon fill="#bfbfbf" stroke="black" points="131,-224.5 131,-265.5 265,-265.5 265,-224.5 131,-224.5"/>
<text text-anchor="start" x="139" y="-253.5" font-family="Helvetica,sans-Serif" font-size="10.00">lib/application_business</text>
<text text-anchor="start" x="139" y="-242.5" font-family="Helvetica,sans-Serif" font-size="10.00">_rules/user_interaction</text>
<text text-anchor="middle" x="198" y="-231.5" font-family="Helvetica,sans-Serif" font-size="10.00">/Menu.hpp</text>
</a>
</g>
</g>
<!-- Node2 -->
<g id="node2" class="node">
<title>Node2</title>
<g id="a_node2"><a xlink:href="IDisplay_8hpp.xhtml" target="_top" xlink:title=" ">
<polygon fill="white" stroke="black" points="127,-168.5 127,-187.5 203,-187.5 203,-168.5 127,-168.5"/>
<text text-anchor="middle" x="165" y="-175.5" font-family="Helvetica,sans-Serif" font-size="10.00">IDisplay.hpp</text>
</a>
</g>
</g>
<!-- Node1&#45;&gt;Node2 -->
<g id="edge1" class="edge">
<title>Node1&#45;&gt;Node2</title>
<path fill="none" stroke="midnightblue" d="M188.1,-224.5C183.62,-215.68 178.37,-205.34 174.01,-196.74"/>
<polygon fill="midnightblue" stroke="midnightblue" points="177.04,-194.98 169.39,-187.65 170.8,-198.15 177.04,-194.98"/>
</g>
<!-- Node7 -->
<g id="node7" class="node">
<title>Node7</title>
<g id="a_node7"><a xlink:href="IKeypad_8hpp.xhtml" target="_top" xlink:title=" ">
<polygon fill="white" stroke="black" points="152,-112.5 152,-131.5 310,-131.5 310,-112.5 152,-112.5"/>
<text text-anchor="middle" x="231" y="-119.5" font-family="Helvetica,sans-Serif" font-size="10.00">user_interaction/IKeypad.hpp</text>
</a>
</g>
</g>
<!-- Node1&#45;&gt;Node7 -->
<g id="edge10" class="edge">
<title>Node1&#45;&gt;Node7</title>
<path fill="none" stroke="midnightblue" d="M203.38,-224.29C209.63,-201.37 219.86,-163.85 225.96,-141.47"/>
<polygon fill="midnightblue" stroke="midnightblue" points="229.41,-142.14 228.66,-131.57 222.65,-140.3 229.41,-142.14"/>
</g>
<!-- Node3 -->
<g id="node3" class="node">
<title>Node3</title>
<g id="a_node3"><a xlink:href="MenuItem_8hpp.xhtml" target="_top" xlink:title=" ">
<polygon fill="white" stroke="black" points="46.5,-112.5 46.5,-131.5 133.5,-131.5 133.5,-112.5 46.5,-112.5"/>
<text text-anchor="middle" x="90" y="-119.5" font-family="Helvetica,sans-Serif" font-size="10.00">MenuItem.hpp</text>
</a>
</g>
</g>
<!-- Node2&#45;&gt;Node3 -->
<g id="edge2" class="edge">
<title>Node2&#45;&gt;Node3</title>
<path fill="none" stroke="midnightblue" d="M152.95,-168.32C141.54,-160.11 124.17,-147.6 110.57,-137.81"/>
<polygon fill="midnightblue" stroke="midnightblue" points="112.43,-134.84 102.27,-131.83 108.34,-140.52 112.43,-134.84"/>
</g>
<!-- Node2&#45;&gt;Node7 -->
<g id="edge6" class="edge">
<title>Node2&#45;&gt;Node7</title>
<path fill="none" stroke="midnightblue" d="M175.6,-168.32C185.46,-160.26 200.35,-148.08 212.22,-138.37"/>
<polygon fill="midnightblue" stroke="midnightblue" points="214.68,-140.88 220.2,-131.83 210.25,-135.46 214.68,-140.88"/>
</g>
<!-- Node4 -->
<g id="node4" class="node">
<title>Node4</title>
<g id="a_node4"><a xlink:title=" ">
<polygon fill="white" stroke="#bfbfbf" points="0,-56.5 0,-75.5 50,-75.5 50,-56.5 0,-56.5"/>
<text text-anchor="middle" x="25" y="-63.5" font-family="Helvetica,sans-Serif" font-size="10.00">cstdint</text>
</a>
</g>
</g>
<!-- Node3&#45;&gt;Node4 -->
<g id="edge3" class="edge">
<title>Node3&#45;&gt;Node4</title>
<path fill="none" stroke="midnightblue" d="M79.56,-112.32C69.85,-104.26 55.18,-92.08 43.5,-82.37"/>
<polygon fill="midnightblue" stroke="midnightblue" points="45.56,-79.53 35.63,-75.83 41.09,-84.92 45.56,-79.53"/>
</g>
<!-- Node5 -->
<g id="node5" class="node">
<title>Node5</title>
<g id="a_node5"><a xlink:title=" ">
<polygon fill="white" stroke="#bfbfbf" points="68,-56.5 68,-75.5 112,-75.5 112,-56.5 68,-56.5"/>
<text text-anchor="middle" x="90" y="-63.5" font-family="Helvetica,sans-Serif" font-size="10.00">string</text>
</a>
</g>
</g>
<!-- Node3&#45;&gt;Node5 -->
<g id="edge4" class="edge">
<title>Node3&#45;&gt;Node5</title>
<path fill="none" stroke="midnightblue" d="M90,-112.08C90,-105.01 90,-94.86 90,-85.99"/>
<polygon fill="midnightblue" stroke="midnightblue" points="93.5,-85.75 90,-75.75 86.5,-85.75 93.5,-85.75"/>
</g>
<!-- Node6 -->
<g id="node6" class="node">
<title>Node6</title>
<g id="a_node6"><a xlink:title=" ">
<polygon fill="white" stroke="#bfbfbf" points="130.5,-56.5 130.5,-75.5 177.5,-75.5 177.5,-56.5 130.5,-56.5"/>
<text text-anchor="middle" x="154" y="-63.5" font-family="Helvetica,sans-Serif" font-size="10.00">vector</text>
</a>
</g>
</g>
<!-- Node3&#45;&gt;Node6 -->
<g id="edge5" class="edge">
<title>Node3&#45;&gt;Node6</title>
<path fill="none" stroke="midnightblue" d="M100.28,-112.32C109.84,-104.26 124.28,-92.08 135.78,-82.37"/>
<polygon fill="midnightblue" stroke="midnightblue" points="138.14,-84.96 143.53,-75.83 133.63,-79.61 138.14,-84.96"/>
</g>
<!-- Node8 -->
<g id="node8" class="node">
<title>Node8</title>
<g id="a_node8"><a xlink:href="KeyIds_8hpp.xhtml" target="_top" xlink:title=" ">
<polygon fill="white" stroke="black" points="196,-56.5 196,-75.5 266,-75.5 266,-56.5 196,-56.5"/>
<text text-anchor="middle" x="231" y="-63.5" font-family="Helvetica,sans-Serif" font-size="10.00">KeyIds.hpp</text>
</a>
</g>
</g>
<!-- Node7&#45;&gt;Node8 -->
<g id="edge7" class="edge">
<title>Node7&#45;&gt;Node8</title>
<path fill="none" stroke="midnightblue" d="M231,-112.08C231,-105.01 231,-94.86 231,-85.99"/>
<polygon fill="midnightblue" stroke="midnightblue" points="234.5,-85.75 231,-75.75 227.5,-85.75 234.5,-85.75"/>
</g>
<!-- Node10 -->
<g id="node10" class="node">
<title>Node10</title>
<g id="a_node10"><a xlink:title=" ">
<polygon fill="white" stroke="#bfbfbf" points="284.5,-56.5 284.5,-75.5 349.5,-75.5 349.5,-56.5 284.5,-56.5"/>
<text text-anchor="middle" x="317" y="-63.5" font-family="Helvetica,sans-Serif" font-size="10.00">functional</text>
</a>
</g>
</g>
<!-- Node7&#45;&gt;Node10 -->
<g id="edge9" class="edge">
<title>Node7&#45;&gt;Node10</title>
<path fill="none" stroke="midnightblue" d="M244.82,-112.32C258.23,-103.9 278.82,-90.97 294.59,-81.07"/>
<polygon fill="midnightblue" stroke="midnightblue" points="296.61,-83.94 303.22,-75.65 292.89,-78.01 296.61,-83.94"/>
</g>
<!-- Node9 -->
<g id="node9" class="node">
<title>Node9</title>
<g id="a_node9"><a xlink:title=" ">
<polygon fill="white" stroke="#bfbfbf" points="202.5,-0.5 202.5,-19.5 259.5,-19.5 259.5,-0.5 202.5,-0.5"/>
<text text-anchor="middle" x="231" y="-7.5" font-family="Helvetica,sans-Serif" font-size="10.00">ostream</text>
</a>
</g>
</g>
<!-- Node8&#45;&gt;Node9 -->
<g id="edge8" class="edge">
<title>Node8&#45;&gt;Node9</title>
<path fill="none" stroke="midnightblue" d="M231,-56.08C231,-49.01 231,-38.86 231,-29.99"/>
<polygon fill="midnightblue" stroke="midnightblue" points="234.5,-29.75 231,-19.75 227.5,-29.75 234.5,-29.75"/>
</g>
</g>
</svg>
