<?xml version="1.0" encoding="UTF-8" standalone="no"?>
<!DOCTYPE svg PUBLIC "-//W3C//DTD SVG 1.1//EN"
 "http://www.w3.org/Graphics/SVG/1.1/DTD/svg11.dtd">
<!-- Generated by graphviz version 2.43.0 (0)
 -->
<!-- Title: lib/application_business_rules/user_interaction/Menu.hpp Pages: 1 -->
<svg width="322pt" height="274pt"
 viewBox="0.00 0.00 321.50 274.00" xmlns="http://www.w3.org/2000/svg" xmlns:xlink="http://www.w3.org/1999/xlink">
<g id="graph0" class="graph" transform="scale(1 1) rotate(0) translate(4 270)">
<title>lib/application_business_rules/user_interaction/Menu.hpp</title>
<polygon fill="white" stroke="transparent" points="-4,4 -4,-270 317.5,-270 317.5,4 -4,4"/>
<!-- Node1 -->
<g id="node1" class="node">
<title>Node1</title>
<g id="a_node1"><a xlink:title=" ">
<polygon fill="#bfbfbf" stroke="black" points="111,-224.5 111,-265.5 245,-265.5 245,-224.5 111,-224.5"/>
<text text-anchor="start" x="119" y="-253.5" font-family="Helvetica,sans-Serif" font-size="10.00">lib/application_business</text>
<text text-anchor="start" x="119" y="-242.5" font-family="Helvetica,sans-Serif" font-size="10.00">_rules/user_interaction</text>
<text text-anchor="middle" x="178" y="-231.5" font-family="Helvetica,sans-Serif" font-size="10.00">/Menu.hpp</text>
</a>
</g>
</g>
<!-- Node2 -->
<g id="node2" class="node">
<title>Node2</title>
<g id="a_node2"><a xlink:href="IDisplay_8hpp.xhtml" target="_top" xlink:title=" ">
<polygon fill="white" stroke="black" points="107,-168.5 107,-187.5 183,-187.5 183,-168.5 107,-168.5"/>
<text text-anchor="middle" x="145" y="-175.5" font-family="Helvetica,sans-Serif" font-size="10.00">IDisplay.hpp</text>
</a>
</g>
</g>
<!-- Node1&#45;&gt;Node2 -->
<g id="edge1" class="edge">
<title>Node1&#45;&gt;Node2</title>
<path fill="none" stroke="midnightblue" d="M168.1,-224.5C163.62,-215.68 158.37,-205.34 154.01,-196.74"/>
<polygon fill="midnightblue" stroke="midnightblue" points="157.04,-194.98 149.39,-187.65 150.8,-198.15 157.04,-194.98"/>
</g>
<!-- Node6 -->
<g id="node6" class="node">
<title>Node6</title>
<g id="a_node6"><a xlink:href="IKeypad_8hpp.xhtml" target="_top" xlink:title=" ">
<polygon fill="white" stroke="black" points="132,-112.5 132,-131.5 290,-131.5 290,-112.5 132,-112.5"/>
<text text-anchor="middle" x="211" y="-119.5" font-family="Helvetica,sans-Serif" font-size="10.00">user_interaction/IKeypad.hpp</text>
</a>
</g>
</g>
<!-- Node1&#45;&gt;Node6 -->
<g id="edge9" class="edge">
<title>Node1&#45;&gt;Node6</title>
<path fill="none" stroke="midnightblue" d="M183.38,-224.29C189.63,-201.37 199.86,-163.85 205.96,-141.47"/>
<polygon fill="midnightblue" stroke="midnightblue" points="209.41,-142.14 208.66,-131.57 202.65,-140.3 209.41,-142.14"/>
</g>
<!-- Node3 -->
<g id="node3" class="node">
<title>Node3</title>
<g id="a_node3"><a xlink:href="MenuItem_8hpp.xhtml" target="_top" xlink:title=" ">
<polygon fill="white" stroke="black" points="26.5,-112.5 26.5,-131.5 113.5,-131.5 113.5,-112.5 26.5,-112.5"/>
<text text-anchor="middle" x="70" y="-119.5" font-family="Helvetica,sans-Serif" font-size="10.00">MenuItem.hpp</text>
</a>
</g>
</g>
<!-- Node2&#45;&gt;Node3 -->
<g id="edge2" class="edge">
<title>Node2&#45;&gt;Node3</title>
<path fill="none" stroke="midnightblue" d="M132.95,-168.32C121.54,-160.11 104.17,-147.6 90.57,-137.81"/>
<polygon fill="midnightblue" stroke="midnightblue" points="92.43,-134.84 82.27,-131.83 88.34,-140.52 92.43,-134.84"/>
</g>
<!-- Node2&#45;&gt;Node6 -->
<g id="edge5" class="edge">
<title>Node2&#45;&gt;Node6</title>
<path fill="none" stroke="midnightblue" d="M155.6,-168.32C165.46,-160.26 180.35,-148.08 192.22,-138.37"/>
<polygon fill="midnightblue" stroke="midnightblue" points="194.68,-140.88 200.2,-131.83 190.25,-135.46 194.68,-140.88"/>
</g>
<!-- Node4 -->
<g id="node4" class="node">
<title>Node4</title>
<g id="a_node4"><a xlink:title=" ">
<polygon fill="white" stroke="#bfbfbf" points="0,-56.5 0,-75.5 44,-75.5 44,-56.5 0,-56.5"/>
<text text-anchor="middle" x="22" y="-63.5" font-family="Helvetica,sans-Serif" font-size="10.00">string</text>
</a>
</g>
</g>
<!-- Node3&#45;&gt;Node4 -->
<g id="edge3" class="edge">
<title>Node3&#45;&gt;Node4</title>
<path fill="none" stroke="midnightblue" d="M62.07,-112.08C55.15,-104.3 44.93,-92.8 36.55,-83.37"/>
<polygon fill="midnightblue" stroke="midnightblue" points="39.04,-80.9 29.78,-75.75 33.81,-85.55 39.04,-80.9"/>
</g>
<!-- Node5 -->
<g id="node5" class="node">
<title>Node5</title>
<g id="a_node5"><a xlink:title=" ">
<polygon fill="white" stroke="#bfbfbf" points="62.5,-56.5 62.5,-75.5 109.5,-75.5 109.5,-56.5 62.5,-56.5"/>
<text text-anchor="middle" x="86" y="-63.5" font-family="Helvetica,sans-Serif" font-size="10.00">vector</text>
</a>
</g>
</g>
<!-- Node3&#45;&gt;Node5 -->
<g id="edge4" class="edge">
<title>Node3&#45;&gt;Node5</title>
<path fill="none" stroke="midnightblue" d="M72.64,-112.08C74.79,-104.85 77.88,-94.41 80.55,-85.4"/>
<polygon fill="midnightblue" stroke="midnightblue" points="83.92,-86.33 83.41,-75.75 77.21,-84.34 83.92,-86.33"/>
</g>
<!-- Node7 -->
<g id="node7" class="node">
<title>Node7</title>
<g id="a_node7"><a xlink:href="KeyIds_8hpp.xhtml" target="_top" xlink:title=" ">
<polygon fill="white" stroke="black" points="160,-56.5 160,-75.5 230,-75.5 230,-56.5 160,-56.5"/>
<text text-anchor="middle" x="195" y="-63.5" font-family="Helvetica,sans-Serif" font-size="10.00">KeyIds.hpp</text>
</a>
</g>
</g>
<!-- Node6&#45;&gt;Node7 -->
<g id="edge6" class="edge">
<title>Node6&#45;&gt;Node7</title>
<path fill="none" stroke="midnightblue" d="M208.36,-112.08C206.21,-104.85 203.12,-94.41 200.45,-85.4"/>
<polygon fill="midnightblue" stroke="midnightblue" points="203.79,-84.34 197.59,-75.75 197.08,-86.33 203.79,-84.34"/>
</g>
<!-- Node9 -->
<g id="node9" class="node">
<title>Node9</title>
<g id="a_node9"><a xlink:title=" ">
<polygon fill="white" stroke="#bfbfbf" points="248.5,-56.5 248.5,-75.5 313.5,-75.5 313.5,-56.5 248.5,-56.5"/>
<text text-anchor="middle" x="281" y="-63.5" font-family="Helvetica,sans-Serif" font-size="10.00">functional</text>
</a>
</g>
</g>
<!-- Node6&#45;&gt;Node9 -->
<g id="edge8" class="edge">
<title>Node6&#45;&gt;Node9</title>
<path fill="none" stroke="midnightblue" d="M222.25,-112.32C232.8,-104.18 248.8,-91.84 261.44,-82.09"/>
<polygon fill="midnightblue" stroke="midnightblue" points="263.77,-84.71 269.55,-75.83 259.49,-79.17 263.77,-84.71"/>
</g>
<!-- Node8 -->
<g id="node8" class="node">
<title>Node8</title>
<g id="a_node8"><a xlink:title=" ">
<polygon fill="white" stroke="#bfbfbf" points="166.5,-0.5 166.5,-19.5 223.5,-19.5 223.5,-0.5 166.5,-0.5"/>
<text text-anchor="middle" x="195" y="-7.5" font-family="Helvetica,sans-Serif" font-size="10.00">ostream</text>
</a>
</g>
</g>
<!-- Node7&#45;&gt;Node8 -->
<g id="edge7" class="edge">
<title>Node7&#45;&gt;Node8</title>
<path fill="none" stroke="midnightblue" d="M195,-56.08C195,-49.01 195,-38.86 195,-29.99"/>
<polygon fill="midnightblue" stroke="midnightblue" points="198.5,-29.75 195,-19.75 191.5,-29.75 198.5,-29.75"/>
</g>
</g>
</svg>
