<?xml version="1.0" encoding="UTF-8" standalone="no"?>
<!DOCTYPE svg PUBLIC "-//W3C//DTD SVG 1.1//EN"
 "http://www.w3.org/Graphics/SVG/1.1/DTD/svg11.dtd">
<!-- Generated by graphviz version 2.43.0 (0)
 -->
<!-- Title: lib/application_business_rules/user_interaction/MenuItem.hpp Pages: 1 -->
<svg width="870pt" height="362pt"
 viewBox="0.00 0.00 870.09 362.00" xmlns="http://www.w3.org/2000/svg" xmlns:xlink="http://www.w3.org/1999/xlink">
<g id="graph0" class="graph" transform="scale(1 1) rotate(0) translate(4 358)">
<title>lib/application_business_rules/user_interaction/MenuItem.hpp</title>
<polygon fill="white" stroke="transparent" points="-4,4 -4,-358 866.09,-358 866.09,4 -4,4"/>
<!-- Node1 -->
<g id="node1" class="node">
<title>Node1</title>
<g id="a_node1"><a xlink:title=" ">
<polygon fill="#bfbfbf" stroke="black" points="364.09,-312.5 364.09,-353.5 498.09,-353.5 498.09,-312.5 364.09,-312.5"/>
<text text-anchor="start" x="372.09" y="-341.5" font-family="Helvetica,sans-Serif" font-size="10.00">lib/application_business</text>
<text text-anchor="start" x="372.09" y="-330.5" font-family="Helvetica,sans-Serif" font-size="10.00">_rules/user_interaction</text>
<text text-anchor="middle" x="431.09" y="-319.5" font-family="Helvetica,sans-Serif" font-size="10.00">/MenuItem.hpp</text>
</a>
</g>
</g>
<!-- Node2 -->
<g id="node2" class="node">
<title>Node2</title>
<g id="a_node2"><a xlink:href="GuiEngine_8cpp.xhtml" target="_top" xlink:title=" ">
<polygon fill="white" stroke="black" points="78.09,-84 78.09,-114 204.09,-114 204.09,-84 78.09,-84"/>
<text text-anchor="start" x="86.09" y="-102" font-family="Helvetica,sans-Serif" font-size="10.00">lib/3rd_party_adapters</text>
<text text-anchor="middle" x="141.09" y="-91" font-family="Helvetica,sans-Serif" font-size="10.00">/LVGL/GuiEngine.cpp</text>
</a>
</g>
</g>
<!-- Node1&#45;&gt;Node2 -->
<g id="edge1" class="edge">
<title>Node1&#45;&gt;Node2</title>
<path fill="none" stroke="midnightblue" d="M366,-308.74C312.81,-287 238.57,-250.04 189.09,-198 165.59,-173.29 151.41,-134.88 145.06,-114.25"/>
<polygon fill="midnightblue" stroke="midnightblue" points="364.76,-312.02 375.35,-312.5 367.37,-305.52 364.76,-312.02"/>
</g>
<!-- Node3 -->
<g id="node3" class="node">
<title>Node3</title>
<g id="a_node3"><a xlink:href="Screen_8hpp.xhtml" target="_top" xlink:title=" ">
<polygon fill="white" stroke="black" points="16.09,-240 16.09,-270 142.09,-270 142.09,-240 16.09,-240"/>
<text text-anchor="start" x="24.09" y="-258" font-family="Helvetica,sans-Serif" font-size="10.00">lib/3rd_party_adapters</text>
<text text-anchor="middle" x="79.09" y="-247" font-family="Helvetica,sans-Serif" font-size="10.00">/LVGL/Screen.hpp</text>
</a>
</g>
</g>
<!-- Node1&#45;&gt;Node3 -->
<g id="edge2" class="edge">
<title>Node1&#45;&gt;Node3</title>
<path fill="none" stroke="midnightblue" d="M353.84,-317.41C298.6,-306.7 222.56,-291.39 156.09,-276 148.15,-274.16 139.78,-272.11 131.6,-270.04"/>
<polygon fill="midnightblue" stroke="midnightblue" points="353.43,-320.89 363.91,-319.36 354.76,-314.02 353.43,-320.89"/>
</g>
<!-- Node5 -->
<g id="node5" class="node">
<title>Node5</title>
<g id="a_node5"><a xlink:href="IGuiEngine_8hpp.xhtml" target="_top" xlink:title=" ">
<polygon fill="white" stroke="black" points="364.09,-234.5 364.09,-275.5 498.09,-275.5 498.09,-234.5 364.09,-234.5"/>
<text text-anchor="start" x="372.09" y="-263.5" font-family="Helvetica,sans-Serif" font-size="10.00">lib/application_business</text>
<text text-anchor="start" x="372.09" y="-252.5" font-family="Helvetica,sans-Serif" font-size="10.00">_rules/user_interaction</text>
<text text-anchor="middle" x="431.09" y="-241.5" font-family="Helvetica,sans-Serif" font-size="10.00">/IGuiEngine.hpp</text>
</a>
</g>
</g>
<!-- Node1&#45;&gt;Node5 -->
<g id="edge5" class="edge">
<title>Node1&#45;&gt;Node5</title>
<path fill="none" stroke="midnightblue" d="M431.09,-302.3C431.09,-293.3 431.09,-283.65 431.09,-275.51"/>
<polygon fill="midnightblue" stroke="midnightblue" points="427.59,-302.43 431.09,-312.43 434.59,-302.43 427.59,-302.43"/>
</g>
<!-- Node12 -->
<g id="node12" class="node">
<title>Node12</title>
<g id="a_node12"><a xlink:href="Menu_8cpp.xhtml" target="_top" xlink:title=" ">
<polygon fill="white" stroke="black" points="678.09,-78.5 678.09,-119.5 812.09,-119.5 812.09,-78.5 678.09,-78.5"/>
<text text-anchor="start" x="686.09" y="-107.5" font-family="Helvetica,sans-Serif" font-size="10.00">lib/application_business</text>
<text text-anchor="start" x="686.09" y="-96.5" font-family="Helvetica,sans-Serif" font-size="10.00">_rules/user_interaction</text>
<text text-anchor="middle" x="745.09" y="-85.5" font-family="Helvetica,sans-Serif" font-size="10.00">/Menu.cpp</text>
</a>
</g>
</g>
<!-- Node1&#45;&gt;Node12 -->
<g id="edge21" class="edge">
<title>Node1&#45;&gt;Node12</title>
<path fill="none" stroke="midnightblue" d="M494.16,-308.62C548.25,-286.29 625.97,-248.55 681.09,-198 705.8,-175.34 725.24,-141.18 735.95,-119.76"/>
<polygon fill="midnightblue" stroke="midnightblue" points="492.62,-305.46 484.68,-312.47 495.26,-311.95 492.62,-305.46"/>
</g>
<!-- Node15 -->
<g id="node15" class="node">
<title>Node15</title>
<g id="a_node15"><a xlink:href="MenuItem_8cpp.xhtml" target="_top" xlink:title=" ">
<polygon fill="white" stroke="black" points="728.09,-234.5 728.09,-275.5 862.09,-275.5 862.09,-234.5 728.09,-234.5"/>
<text text-anchor="start" x="736.09" y="-263.5" font-family="Helvetica,sans-Serif" font-size="10.00">lib/application_business</text>
<text text-anchor="start" x="736.09" y="-252.5" font-family="Helvetica,sans-Serif" font-size="10.00">_rules/user_interaction</text>
<text text-anchor="middle" x="795.09" y="-241.5" font-family="Helvetica,sans-Serif" font-size="10.00">/MenuItem.cpp</text>
</a>
</g>
</g>
<!-- Node1&#45;&gt;Node15 -->
<g id="edge22" class="edge">
<title>Node1&#45;&gt;Node15</title>
<path fill="none" stroke="midnightblue" d="M508.19,-317.75C565.21,-306.97 644.68,-291.43 714.09,-276 718.61,-274.99 723.27,-273.93 727.96,-272.83"/>
<polygon fill="midnightblue" stroke="midnightblue" points="507.35,-314.35 498.17,-319.64 508.65,-321.23 507.35,-314.35"/>
</g>
<!-- Node3&#45;&gt;Node2 -->
<g id="edge3" class="edge">
<title>Node3&#45;&gt;Node2</title>
<path fill="none" stroke="midnightblue" d="M41.43,-234.34C28.03,-225.23 14.45,-213.05 7.09,-198 -1.11,-181.23 -3.26,-171.54 7.09,-156 23.02,-132.08 51.34,-118.35 77.85,-110.49"/>
<polygon fill="midnightblue" stroke="midnightblue" points="39.82,-237.46 50.14,-239.88 43.58,-231.56 39.82,-237.46"/>
</g>
<!-- Node4 -->
<g id="node4" class="node">
<title>Node4</title>
<g id="a_node4"><a xlink:href="Screen_8cpp.xhtml" target="_top" xlink:title=" ">
<polygon fill="white" stroke="black" points="16.09,-162 16.09,-192 142.09,-192 142.09,-162 16.09,-162"/>
<text text-anchor="start" x="24.09" y="-180" font-family="Helvetica,sans-Serif" font-size="10.00">lib/3rd_party_adapters</text>
<text text-anchor="middle" x="79.09" y="-169" font-family="Helvetica,sans-Serif" font-size="10.00">/LVGL/Screen.cpp</text>
</a>
</g>
</g>
<!-- Node3&#45;&gt;Node4 -->
<g id="edge4" class="edge">
<title>Node3&#45;&gt;Node4</title>
<path fill="none" stroke="midnightblue" d="M79.09,-229.59C79.09,-217.26 79.09,-202.72 79.09,-192.23"/>
<polygon fill="midnightblue" stroke="midnightblue" points="75.59,-229.7 79.09,-239.7 82.59,-229.71 75.59,-229.7"/>
</g>
<!-- Node6 -->
<g id="node6" class="node">
<title>Node6</title>
<g id="a_node6"><a xlink:href="GuiEngine_8hpp.xhtml" target="_top" xlink:title=" ">
<polygon fill="white" stroke="black" points="198.09,-162 198.09,-192 324.09,-192 324.09,-162 198.09,-162"/>
<text text-anchor="start" x="206.09" y="-180" font-family="Helvetica,sans-Serif" font-size="10.00">lib/3rd_party_adapters</text>
<text text-anchor="middle" x="261.09" y="-169" font-family="Helvetica,sans-Serif" font-size="10.00">/LVGL/GuiEngine.hpp</text>
</a>
</g>
</g>
<!-- Node5&#45;&gt;Node6 -->
<g id="edge6" class="edge">
<title>Node5&#45;&gt;Node6</title>
<path fill="none" stroke="midnightblue" d="M378.04,-230.28C350.02,-217.76 316.57,-202.81 292.64,-192.11"/>
<polygon fill="midnightblue" stroke="midnightblue" points="376.75,-233.54 387.31,-234.43 379.61,-227.15 376.75,-233.54"/>
</g>
<!-- Node8 -->
<g id="node8" class="node">
<title>Node8</title>
<g id="a_node8"><a xlink:href="guiEngine__factory__interface_8hpp.xhtml" target="_top" xlink:title="Dependency injection for the guiEngine.">
<polygon fill="white" stroke="black" points="342.59,-156.5 342.59,-197.5 519.59,-197.5 519.59,-156.5 342.59,-156.5"/>
<text text-anchor="start" x="350.59" y="-185.5" font-family="Helvetica,sans-Serif" font-size="10.00">lib/application_business</text>
<text text-anchor="start" x="350.59" y="-174.5" font-family="Helvetica,sans-Serif" font-size="10.00">_rules/user_interaction</text>
<text text-anchor="middle" x="431.09" y="-163.5" font-family="Helvetica,sans-Serif" font-size="10.00">/guiEngine_factory_interface.hpp</text>
</a>
</g>
</g>
<!-- Node5&#45;&gt;Node8 -->
<g id="edge9" class="edge">
<title>Node5&#45;&gt;Node8</title>
<path fill="none" stroke="midnightblue" d="M431.09,-224.3C431.09,-215.3 431.09,-205.65 431.09,-197.51"/>
<polygon fill="midnightblue" stroke="midnightblue" points="427.59,-224.43 431.09,-234.43 434.59,-224.43 427.59,-224.43"/>
</g>
<!-- Node11 -->
<g id="node11" class="node">
<title>Node11</title>
<g id="a_node11"><a xlink:href="Menu_8hpp.xhtml" target="_top" xlink:title=" ">
<polygon fill="white" stroke="black" points="538.09,-156.5 538.09,-197.5 672.09,-197.5 672.09,-156.5 538.09,-156.5"/>
<text text-anchor="start" x="546.09" y="-185.5" font-family="Helvetica,sans-Serif" font-size="10.00">lib/application_business</text>
<text text-anchor="start" x="546.09" y="-174.5" font-family="Helvetica,sans-Serif" font-size="10.00">_rules/user_interaction</text>
<text text-anchor="middle" x="605.09" y="-163.5" font-family="Helvetica,sans-Serif" font-size="10.00">/Menu.hpp</text>
</a>
</g>
</g>
<!-- Node5&#45;&gt;Node11 -->
<g id="edge13" class="edge">
<title>Node5&#45;&gt;Node11</title>
<path fill="none" stroke="midnightblue" d="M485.28,-230.33C509.43,-219.78 537.52,-207.51 560.43,-197.51"/>
<polygon fill="midnightblue" stroke="midnightblue" points="483.66,-227.22 475.9,-234.43 486.46,-233.63 483.66,-227.22"/>
</g>
<!-- Node6&#45;&gt;Node2 -->
<g id="edge7" class="edge">
<title>Node6&#45;&gt;Node2</title>
<path fill="none" stroke="midnightblue" d="M230.25,-156.47C209.3,-143.2 182.08,-125.96 163.26,-114.04"/>
<polygon fill="midnightblue" stroke="midnightblue" points="228.48,-159.49 238.8,-161.88 232.22,-153.58 228.48,-159.49"/>
</g>
<!-- Node7 -->
<g id="node7" class="node">
<title>Node7</title>
<g id="a_node7"><a xlink:href="guiEngine__factory__interface_8cpp.xhtml" target="_top" xlink:title=" ">
<polygon fill="white" stroke="black" points="222.09,-78.5 222.09,-119.5 356.09,-119.5 356.09,-78.5 222.09,-78.5"/>
<text text-anchor="start" x="230.09" y="-107.5" font-family="Helvetica,sans-Serif" font-size="10.00">lib/3rd_party_adapters</text>
<text text-anchor="start" x="230.09" y="-96.5" font-family="Helvetica,sans-Serif" font-size="10.00">/LVGL/guiEngine_factory</text>
<text text-anchor="middle" x="289.09" y="-85.5" font-family="Helvetica,sans-Serif" font-size="10.00">_interface.cpp</text>
</a>
</g>
</g>
<!-- Node6&#45;&gt;Node7 -->
<g id="edge8" class="edge">
<title>Node6&#45;&gt;Node7</title>
<path fill="none" stroke="midnightblue" d="M269.82,-152.31C273.68,-141.83 278.17,-129.65 281.84,-119.68"/>
<polygon fill="midnightblue" stroke="midnightblue" points="266.53,-151.11 266.36,-161.7 273.1,-153.53 266.53,-151.11"/>
</g>
<!-- Node8&#45;&gt;Node7 -->
<g id="edge10" class="edge">
<title>Node8&#45;&gt;Node7</title>
<path fill="none" stroke="midnightblue" d="M385.55,-151.63C366.15,-141.24 343.82,-129.29 325.53,-119.51"/>
<polygon fill="midnightblue" stroke="midnightblue" points="384.05,-154.8 394.52,-156.43 387.36,-148.62 384.05,-154.8"/>
</g>
<!-- Node9 -->
<g id="node9" class="node">
<title>Node9</title>
<g id="a_node9"><a xlink:href="main_8cpp.xhtml" target="_top" xlink:title=" ">
<polygon fill="white" stroke="black" points="344.59,-11.5 344.59,-30.5 423.59,-30.5 423.59,-11.5 344.59,-11.5"/>
<text text-anchor="middle" x="384.09" y="-18.5" font-family="Helvetica,sans-Serif" font-size="10.00">src/main.cpp</text>
</a>
</g>
</g>
<!-- Node8&#45;&gt;Node9 -->
<g id="edge11" class="edge">
<title>Node8&#45;&gt;Node9</title>
<path fill="none" stroke="midnightblue" d="M418.24,-147.06C414.68,-138.45 411,-128.93 408.09,-120 397.51,-87.52 389.12,-47.66 385.73,-30.51"/>
<polygon fill="midnightblue" stroke="midnightblue" points="415.04,-148.47 422.16,-156.31 421.48,-145.74 415.04,-148.47"/>
</g>
<!-- Node10 -->
<g id="node10" class="node">
<title>Node10</title>
<g id="a_node10"><a xlink:href="test__hmi_8cpp.xhtml" target="_top" xlink:title=" ">
<polygon fill="white" stroke="black" points="594.59,-6 594.59,-36 719.59,-36 719.59,-6 594.59,-6"/>
<text text-anchor="start" x="602.59" y="-24" font-family="Helvetica,sans-Serif" font-size="10.00">test/hmi/test_hmi/test</text>
<text text-anchor="middle" x="657.09" y="-13" font-family="Helvetica,sans-Serif" font-size="10.00">_hmi.cpp</text>
</a>
</g>
</g>
<!-- Node8&#45;&gt;Node10 -->
<g id="edge12" class="edge">
<title>Node8&#45;&gt;Node10</title>
<path fill="none" stroke="midnightblue" d="M529.22,-153.64C551.67,-145.5 574.41,-134.58 593.09,-120 608.23,-108.19 635.9,-60.4 649.34,-36.2"/>
<polygon fill="midnightblue" stroke="midnightblue" points="527.93,-150.38 519.62,-156.96 530.22,-157 527.93,-150.38"/>
</g>
<!-- Node11&#45;&gt;Node9 -->
<g id="edge19" class="edge">
<title>Node11&#45;&gt;Node9</title>
<path fill="none" stroke="midnightblue" d="M527.81,-155.24C492.36,-144.6 455.13,-131.5 441.09,-120 425.49,-107.21 398.32,-52.06 388.12,-30.6"/>
<polygon fill="midnightblue" stroke="midnightblue" points="527.16,-158.7 537.74,-158.17 529.14,-151.98 527.16,-158.7"/>
</g>
<!-- Node11&#45;&gt;Node10 -->
<g id="edge20" class="edge">
<title>Node11&#45;&gt;Node10</title>
<path fill="none" stroke="midnightblue" d="M616.37,-146.79C619.61,-138.19 623.07,-128.75 626.09,-120 636.34,-90.31 647.15,-55.13 652.9,-36.03"/>
<polygon fill="midnightblue" stroke="midnightblue" points="613,-145.8 612.73,-156.39 619.55,-148.29 613,-145.8"/>
</g>
<!-- Node11&#45;&gt;Node12 -->
<g id="edge14" class="edge">
<title>Node11&#45;&gt;Node12</title>
<path fill="none" stroke="midnightblue" d="M649.99,-151.63C669.12,-141.24 691.13,-129.29 709.16,-119.51"/>
<polygon fill="midnightblue" stroke="midnightblue" points="648.26,-148.58 641.14,-156.43 651.6,-154.73 648.26,-148.58"/>
</g>
<!-- Node13 -->
<g id="node13" class="node">
<title>Node13</title>
<g id="a_node13"><a xlink:href="Presenter_8hpp.xhtml" target="_top" xlink:title=" ">
<polygon fill="white" stroke="black" points="450.09,-78.5 450.09,-119.5 584.09,-119.5 584.09,-78.5 450.09,-78.5"/>
<text text-anchor="start" x="458.09" y="-107.5" font-family="Helvetica,sans-Serif" font-size="10.00">lib/application_business</text>
<text text-anchor="start" x="458.09" y="-96.5" font-family="Helvetica,sans-Serif" font-size="10.00">_rules/user_interaction</text>
<text text-anchor="middle" x="517.09" y="-85.5" font-family="Helvetica,sans-Serif" font-size="10.00">/Presenter.hpp</text>
</a>
</g>
</g>
<!-- Node11&#45;&gt;Node13 -->
<g id="edge15" class="edge">
<title>Node11&#45;&gt;Node13</title>
<path fill="none" stroke="midnightblue" d="M574.73,-149.78C563.22,-139.84 550.34,-128.72 539.67,-119.51"/>
<polygon fill="midnightblue" stroke="midnightblue" points="572.57,-152.54 582.43,-156.43 577.15,-147.24 572.57,-152.54"/>
</g>
<!-- Node13&#45;&gt;Node9 -->
<g id="edge17" class="edge">
<title>Node13&#45;&gt;Node9</title>
<path fill="none" stroke="midnightblue" d="M473.98,-73.37C448.23,-58.65 417.1,-40.87 399.06,-30.55"/>
<polygon fill="midnightblue" stroke="midnightblue" points="472.42,-76.51 482.84,-78.43 475.89,-70.43 472.42,-76.51"/>
</g>
<!-- Node13&#45;&gt;Node10 -->
<g id="edge18" class="edge">
<title>Node13&#45;&gt;Node10</title>
<path fill="none" stroke="midnightblue" d="M561.96,-73.64C584.7,-61.3 611.53,-46.73 630.88,-36.23"/>
<polygon fill="midnightblue" stroke="midnightblue" points="560.26,-70.58 553.14,-78.43 563.6,-76.73 560.26,-70.58"/>
</g>
<!-- Node14 -->
<g id="node14" class="node">
<title>Node14</title>
<g id="a_node14"><a xlink:href="Presenter_8cpp.xhtml" target="_top" xlink:title=" ">
<polygon fill="white" stroke="black" points="442.09,-0.5 442.09,-41.5 576.09,-41.5 576.09,-0.5 442.09,-0.5"/>
<text text-anchor="start" x="450.09" y="-29.5" font-family="Helvetica,sans-Serif" font-size="10.00">lib/application_business</text>
<text text-anchor="start" x="450.09" y="-18.5" font-family="Helvetica,sans-Serif" font-size="10.00">_rules/user_interaction</text>
<text text-anchor="middle" x="509.09" y="-7.5" font-family="Helvetica,sans-Serif" font-size="10.00">/Presenter.cpp</text>
</a>
</g>
</g>
<!-- Node13&#45;&gt;Node14 -->
<g id="edge16" class="edge">
<title>Node13&#45;&gt;Node14</title>
<path fill="none" stroke="midnightblue" d="M513.96,-68.3C513.02,-59.3 512,-49.65 511.14,-41.51"/>
<polygon fill="midnightblue" stroke="midnightblue" points="510.5,-68.85 515.03,-78.43 517.46,-68.12 510.5,-68.85"/>
</g>
</g>
</svg>
