<?xml version="1.0" encoding="UTF-8" standalone="no"?>
<!DOCTYPE svg PUBLIC "-//W3C//DTD SVG 1.1//EN"
 "http://www.w3.org/Graphics/SVG/1.1/DTD/svg11.dtd">
<!-- Generated by graphviz version 2.43.0 (0)
 -->
<!-- Title: lib/application_business_rules/user_interaction/Menu.cpp Pages: 1 -->
<svg width="357pt" height="330pt"
 viewBox="0.00 0.00 357.00 330.00" xmlns="http://www.w3.org/2000/svg" xmlns:xlink="http://www.w3.org/1999/xlink">
<g id="graph0" class="graph" transform="scale(1 1) rotate(0) translate(4 326)">
<title>lib/application_business_rules/user_interaction/Menu.cpp</title>
<polygon fill="white" stroke="transparent" points="-4,4 -4,-326 353,-326 353,4 -4,4"/>
<!-- Node1 -->
<g id="node1" class="node">
<title>Node1</title>
<g id="a_node1"><a xlink:title=" ">
<polygon fill="#bfbfbf" stroke="black" points="159,-280.5 159,-321.5 293,-321.5 293,-280.5 159,-280.5"/>
<text text-anchor="start" x="167" y="-309.5" font-family="Helvetica,sans-Serif" font-size="10.00">lib/application_business</text>
<text text-anchor="start" x="167" y="-298.5" font-family="Helvetica,sans-Serif" font-size="10.00">_rules/user_interaction</text>
<text text-anchor="middle" x="226" y="-287.5" font-family="Helvetica,sans-Serif" font-size="10.00">/Menu.cpp</text>
</a>
</g>
</g>
<!-- Node2 -->
<g id="node2" class="node">
<title>Node2</title>
<g id="a_node2"><a xlink:href="Menu_8hpp.xhtml" target="_top" xlink:title=" ">
<polygon fill="white" stroke="black" points="160.5,-224.5 160.5,-243.5 225.5,-243.5 225.5,-224.5 160.5,-224.5"/>
<text text-anchor="middle" x="193" y="-231.5" font-family="Helvetica,sans-Serif" font-size="10.00">Menu.hpp</text>
</a>
</g>
</g>
<!-- Node1&#45;&gt;Node2 -->
<g id="edge1" class="edge">
<title>Node1&#45;&gt;Node2</title>
<path fill="none" stroke="midnightblue" d="M216.1,-280.5C211.62,-271.68 206.37,-261.34 202.01,-252.74"/>
<polygon fill="midnightblue" stroke="midnightblue" points="205.04,-250.98 197.39,-243.65 198.8,-254.15 205.04,-250.98"/>
</g>
<!-- Node4 -->
<g id="node4" class="node">
<title>Node4</title>
<g id="a_node4"><a xlink:href="MenuItem_8hpp.xhtml" target="_top" xlink:title=" ">
<polygon fill="white" stroke="black" points="218.5,-112.5 218.5,-131.5 305.5,-131.5 305.5,-112.5 218.5,-112.5"/>
<text text-anchor="middle" x="262" y="-119.5" font-family="Helvetica,sans-Serif" font-size="10.00">MenuItem.hpp</text>
</a>
</g>
</g>
<!-- Node1&#45;&gt;Node4 -->
<g id="edge12" class="edge">
<title>Node1&#45;&gt;Node4</title>
<path fill="none" stroke="midnightblue" d="M229.99,-280.38C237,-245.93 251.42,-175.04 258.25,-141.44"/>
<polygon fill="midnightblue" stroke="midnightblue" points="261.69,-142.08 260.25,-131.58 254.83,-140.69 261.69,-142.08"/>
</g>
<!-- Node3 -->
<g id="node3" class="node">
<title>Node3</title>
<g id="a_node3"><a xlink:href="IDisplay_8hpp.xhtml" target="_top" xlink:title=" ">
<polygon fill="white" stroke="black" points="155,-168.5 155,-187.5 231,-187.5 231,-168.5 155,-168.5"/>
<text text-anchor="middle" x="193" y="-175.5" font-family="Helvetica,sans-Serif" font-size="10.00">IDisplay.hpp</text>
</a>
</g>
</g>
<!-- Node2&#45;&gt;Node3 -->
<g id="edge2" class="edge">
<title>Node2&#45;&gt;Node3</title>
<path fill="none" stroke="midnightblue" d="M193,-224.08C193,-217.01 193,-206.86 193,-197.99"/>
<polygon fill="midnightblue" stroke="midnightblue" points="196.5,-197.75 193,-187.75 189.5,-197.75 196.5,-197.75"/>
</g>
<!-- Node8 -->
<g id="node8" class="node">
<title>Node8</title>
<g id="a_node8"><a xlink:href="IKeypad_8hpp.xhtml" target="_top" xlink:title=" ">
<polygon fill="white" stroke="black" points="42,-112.5 42,-131.5 200,-131.5 200,-112.5 42,-112.5"/>
<text text-anchor="middle" x="121" y="-119.5" font-family="Helvetica,sans-Serif" font-size="10.00">user_interaction/IKeypad.hpp</text>
</a>
</g>
</g>
<!-- Node2&#45;&gt;Node8 -->
<g id="edge11" class="edge">
<title>Node2&#45;&gt;Node8</title>
<path fill="none" stroke="midnightblue" d="M181.56,-224.48C171.08,-216.17 155.76,-202.67 146,-188 136.38,-173.54 129.69,-154.85 125.66,-141.23"/>
<polygon fill="midnightblue" stroke="midnightblue" points="129.03,-140.27 123,-131.56 122.28,-142.13 129.03,-140.27"/>
</g>
<!-- Node3&#45;&gt;Node4 -->
<g id="edge3" class="edge">
<title>Node3&#45;&gt;Node4</title>
<path fill="none" stroke="midnightblue" d="M204.09,-168.32C214.49,-160.18 230.26,-147.84 242.72,-138.09"/>
<polygon fill="midnightblue" stroke="midnightblue" points="244.99,-140.75 250.71,-131.83 240.68,-135.24 244.99,-140.75"/>
</g>
<!-- Node3&#45;&gt;Node8 -->
<g id="edge7" class="edge">
<title>Node3&#45;&gt;Node8</title>
<path fill="none" stroke="midnightblue" d="M181.43,-168.32C170.58,-160.18 154.12,-147.84 141.12,-138.09"/>
<polygon fill="midnightblue" stroke="midnightblue" points="142.88,-135.03 132.78,-131.83 138.68,-140.63 142.88,-135.03"/>
</g>
<!-- Node5 -->
<g id="node5" class="node">
<title>Node5</title>
<g id="a_node5"><a xlink:title=" ">
<polygon fill="white" stroke="#bfbfbf" points="237,-56.5 237,-75.5 287,-75.5 287,-56.5 237,-56.5"/>
<text text-anchor="middle" x="262" y="-63.5" font-family="Helvetica,sans-Serif" font-size="10.00">cstdint</text>
</a>
</g>
</g>
<!-- Node4&#45;&gt;Node5 -->
<g id="edge4" class="edge">
<title>Node4&#45;&gt;Node5</title>
<path fill="none" stroke="midnightblue" d="M262,-112.08C262,-105.01 262,-94.86 262,-85.99"/>
<polygon fill="midnightblue" stroke="midnightblue" points="265.5,-85.75 262,-75.75 258.5,-85.75 265.5,-85.75"/>
</g>
<!-- Node6 -->
<g id="node6" class="node">
<title>Node6</title>
<g id="a_node6"><a xlink:title=" ">
<polygon fill="white" stroke="#bfbfbf" points="305,-56.5 305,-75.5 349,-75.5 349,-56.5 305,-56.5"/>
<text text-anchor="middle" x="327" y="-63.5" font-family="Helvetica,sans-Serif" font-size="10.00">string</text>
</a>
</g>
</g>
<!-- Node4&#45;&gt;Node6 -->
<g id="edge5" class="edge">
<title>Node4&#45;&gt;Node6</title>
<path fill="none" stroke="midnightblue" d="M272.44,-112.32C282.15,-104.26 296.82,-92.08 308.5,-82.37"/>
<polygon fill="midnightblue" stroke="midnightblue" points="310.91,-84.92 316.37,-75.83 306.44,-79.53 310.91,-84.92"/>
</g>
<!-- Node7 -->
<g id="node7" class="node">
<title>Node7</title>
<g id="a_node7"><a xlink:title=" ">
<polygon fill="white" stroke="#bfbfbf" points="171.5,-56.5 171.5,-75.5 218.5,-75.5 218.5,-56.5 171.5,-56.5"/>
<text text-anchor="middle" x="195" y="-63.5" font-family="Helvetica,sans-Serif" font-size="10.00">vector</text>
</a>
</g>
</g>
<!-- Node4&#45;&gt;Node7 -->
<g id="edge6" class="edge">
<title>Node4&#45;&gt;Node7</title>
<path fill="none" stroke="midnightblue" d="M251.24,-112.32C241.23,-104.26 226.11,-92.08 214.07,-82.37"/>
<polygon fill="midnightblue" stroke="midnightblue" points="215.94,-79.38 205.96,-75.83 211.55,-84.83 215.94,-79.38"/>
</g>
<!-- Node9 -->
<g id="node9" class="node">
<title>Node9</title>
<g id="a_node9"><a xlink:href="KeyIds_8hpp.xhtml" target="_top" xlink:title=" ">
<polygon fill="white" stroke="black" points="0,-56.5 0,-75.5 70,-75.5 70,-56.5 0,-56.5"/>
<text text-anchor="middle" x="35" y="-63.5" font-family="Helvetica,sans-Serif" font-size="10.00">KeyIds.hpp</text>
</a>
</g>
</g>
<!-- Node8&#45;&gt;Node9 -->
<g id="edge8" class="edge">
<title>Node8&#45;&gt;Node9</title>
<path fill="none" stroke="midnightblue" d="M107.18,-112.32C93.77,-103.9 73.18,-90.97 57.41,-81.07"/>
<polygon fill="midnightblue" stroke="midnightblue" points="59.11,-78.01 48.78,-75.65 55.39,-83.94 59.11,-78.01"/>
</g>
<!-- Node11 -->
<g id="node11" class="node">
<title>Node11</title>
<g id="a_node11"><a xlink:title=" ">
<polygon fill="white" stroke="#bfbfbf" points="88.5,-56.5 88.5,-75.5 153.5,-75.5 153.5,-56.5 88.5,-56.5"/>
<text text-anchor="middle" x="121" y="-63.5" font-family="Helvetica,sans-Serif" font-size="10.00">functional</text>
</a>
</g>
</g>
<!-- Node8&#45;&gt;Node11 -->
<g id="edge10" class="edge">
<title>Node8&#45;&gt;Node11</title>
<path fill="none" stroke="midnightblue" d="M121,-112.08C121,-105.01 121,-94.86 121,-85.99"/>
<polygon fill="midnightblue" stroke="midnightblue" points="124.5,-85.75 121,-75.75 117.5,-85.75 124.5,-85.75"/>
</g>
<!-- Node10 -->
<g id="node10" class="node">
<title>Node10</title>
<g id="a_node10"><a xlink:title=" ">
<polygon fill="white" stroke="#bfbfbf" points="6.5,-0.5 6.5,-19.5 63.5,-19.5 63.5,-0.5 6.5,-0.5"/>
<text text-anchor="middle" x="35" y="-7.5" font-family="Helvetica,sans-Serif" font-size="10.00">ostream</text>
</a>
</g>
</g>
<!-- Node9&#45;&gt;Node10 -->
<g id="edge9" class="edge">
<title>Node9&#45;&gt;Node10</title>
<path fill="none" stroke="midnightblue" d="M35,-56.08C35,-49.01 35,-38.86 35,-29.99"/>
<polygon fill="midnightblue" stroke="midnightblue" points="38.5,-29.75 35,-19.75 31.5,-29.75 38.5,-29.75"/>
</g>
</g>
</svg>
