<?xml version="1.0" encoding="UTF-8" standalone="no"?>
<!DOCTYPE svg PUBLIC "-//W3C//DTD SVG 1.1//EN"
 "http://www.w3.org/Graphics/SVG/1.1/DTD/svg11.dtd">
<!-- Generated by graphviz version 2.43.0 (0)
 -->
<!-- Title: lib/application_business_rules/user_interaction/Presenter.hpp Pages: 1 -->
<svg width="587pt" height="330pt"
 viewBox="0.00 0.00 587.00 330.00" xmlns="http://www.w3.org/2000/svg" xmlns:xlink="http://www.w3.org/1999/xlink">
<g id="graph0" class="graph" transform="scale(1 1) rotate(0) translate(4 326)">
<title>lib/application_business_rules/user_interaction/Presenter.hpp</title>
<polygon fill="white" stroke="transparent" points="-4,4 -4,-326 583,-326 583,4 -4,4"/>
<!-- Node1 -->
<g id="node1" class="node">
<title>Node1</title>
<g id="a_node1"><a xlink:title=" ">
<polygon fill="#bfbfbf" stroke="black" points="136,-280.5 136,-321.5 270,-321.5 270,-280.5 136,-280.5"/>
<text text-anchor="start" x="144" y="-309.5" font-family="Helvetica,sans-Serif" font-size="10.00">lib/application_business</text>
<text text-anchor="start" x="144" y="-298.5" font-family="Helvetica,sans-Serif" font-size="10.00">_rules/user_interaction</text>
<text text-anchor="middle" x="203" y="-287.5" font-family="Helvetica,sans-Serif" font-size="10.00">/Presenter.hpp</text>
</a>
</g>
</g>
<!-- Node2 -->
<g id="node2" class="node">
<title>Node2</title>
<g id="a_node2"><a xlink:href="IPresenter_8hpp.xhtml" target="_top" xlink:title=" ">
<polygon fill="white" stroke="black" points="0,-224.5 0,-243.5 86,-243.5 86,-224.5 0,-224.5"/>
<text text-anchor="middle" x="43" y="-231.5" font-family="Helvetica,sans-Serif" font-size="10.00">IPresenter.hpp</text>
</a>
</g>
</g>
<!-- Node1&#45;&gt;Node2 -->
<g id="edge1" class="edge">
<title>Node1&#45;&gt;Node2</title>
<path fill="none" stroke="midnightblue" d="M154.99,-280.5C128.58,-269.77 96.59,-256.77 73.57,-247.42"/>
<polygon fill="midnightblue" stroke="midnightblue" points="74.88,-244.17 64.3,-243.65 72.25,-250.66 74.88,-244.17"/>
</g>
<!-- Node4 -->
<g id="node4" class="node">
<title>Node4</title>
<g id="a_node4"><a xlink:href="IStatusIndicator_8hpp.xhtml" target="_top" xlink:title=" ">
<polygon fill="white" stroke="black" points="104.5,-224.5 104.5,-243.5 217.5,-243.5 217.5,-224.5 104.5,-224.5"/>
<text text-anchor="middle" x="161" y="-231.5" font-family="Helvetica,sans-Serif" font-size="10.00">IStatusIndicator.hpp</text>
</a>
</g>
</g>
<!-- Node1&#45;&gt;Node4 -->
<g id="edge3" class="edge">
<title>Node1&#45;&gt;Node4</title>
<path fill="none" stroke="midnightblue" d="M190.4,-280.5C184.58,-271.49 177.73,-260.89 172.1,-252.19"/>
<polygon fill="midnightblue" stroke="midnightblue" points="174.96,-250.15 166.59,-243.65 169.08,-253.95 174.96,-250.15"/>
</g>
<!-- Node5 -->
<g id="node5" class="node">
<title>Node5</title>
<g id="a_node5"><a xlink:href="Menu_8hpp.xhtml" target="_top" xlink:title=" ">
<polygon fill="white" stroke="black" points="303.5,-224.5 303.5,-243.5 368.5,-243.5 368.5,-224.5 303.5,-224.5"/>
<text text-anchor="middle" x="336" y="-231.5" font-family="Helvetica,sans-Serif" font-size="10.00">Menu.hpp</text>
</a>
</g>
</g>
<!-- Node1&#45;&gt;Node5 -->
<g id="edge4" class="edge">
<title>Node1&#45;&gt;Node5</title>
<path fill="none" stroke="midnightblue" d="M242.9,-280.5C264.37,-270.01 290.27,-257.35 309.3,-248.05"/>
<polygon fill="midnightblue" stroke="midnightblue" points="310.85,-251.19 318.3,-243.65 307.77,-244.9 310.85,-251.19"/>
</g>
<!-- Node10 -->
<g id="node10" class="node">
<title>Node10</title>
<g id="a_node10"><a xlink:title=" ">
<polygon fill="white" stroke="#bfbfbf" points="226.5,-56.5 226.5,-75.5 273.5,-75.5 273.5,-56.5 226.5,-56.5"/>
<text text-anchor="middle" x="250" y="-63.5" font-family="Helvetica,sans-Serif" font-size="10.00">vector</text>
</a>
</g>
</g>
<!-- Node1&#45;&gt;Node10 -->
<g id="edge15" class="edge">
<title>Node1&#45;&gt;Node10</title>
<path fill="none" stroke="midnightblue" d="M212.46,-280.47C217.21,-269.9 222.65,-256.49 226,-244 241.11,-187.72 246.97,-118.69 249.02,-85.95"/>
<polygon fill="midnightblue" stroke="midnightblue" points="252.53,-85.81 249.61,-75.63 245.54,-85.41 252.53,-85.81"/>
</g>
<!-- Node3 -->
<g id="node3" class="node">
<title>Node3</title>
<g id="a_node3"><a xlink:title=" ">
<polygon fill="white" stroke="#bfbfbf" points="16.5,-168.5 16.5,-187.5 69.5,-187.5 69.5,-168.5 16.5,-168.5"/>
<text text-anchor="middle" x="43" y="-175.5" font-family="Helvetica,sans-Serif" font-size="10.00">cstddef</text>
</a>
</g>
</g>
<!-- Node2&#45;&gt;Node3 -->
<g id="edge2" class="edge">
<title>Node2&#45;&gt;Node3</title>
<path fill="none" stroke="midnightblue" d="M43,-224.08C43,-217.01 43,-206.86 43,-197.99"/>
<polygon fill="midnightblue" stroke="midnightblue" points="46.5,-197.75 43,-187.75 39.5,-197.75 46.5,-197.75"/>
</g>
<!-- Node6 -->
<g id="node6" class="node">
<title>Node6</title>
<g id="a_node6"><a xlink:href="IGuiEngine_8hpp.xhtml" target="_top" xlink:title=" ">
<polygon fill="white" stroke="black" points="291,-168.5 291,-187.5 381,-187.5 381,-168.5 291,-168.5"/>
<text text-anchor="middle" x="336" y="-175.5" font-family="Helvetica,sans-Serif" font-size="10.00">IGuiEngine.hpp</text>
</a>
</g>
</g>
<!-- Node5&#45;&gt;Node6 -->
<g id="edge5" class="edge">
<title>Node5&#45;&gt;Node6</title>
<path fill="none" stroke="midnightblue" d="M336,-224.08C336,-217.01 336,-206.86 336,-197.99"/>
<polygon fill="midnightblue" stroke="midnightblue" points="339.5,-197.75 336,-187.75 332.5,-197.75 339.5,-197.75"/>
</g>
<!-- Node11 -->
<g id="node11" class="node">
<title>Node11</title>
<g id="a_node11"><a xlink:href="IKeypad_8hpp.xhtml" target="_top" xlink:title=" ">
<polygon fill="white" stroke="black" points="380,-112.5 380,-131.5 538,-131.5 538,-112.5 380,-112.5"/>
<text text-anchor="middle" x="459" y="-119.5" font-family="Helvetica,sans-Serif" font-size="10.00">user_interaction/IKeypad.hpp</text>
</a>
</g>
</g>
<!-- Node5&#45;&gt;Node11 -->
<g id="edge14" class="edge">
<title>Node5&#45;&gt;Node11</title>
<path fill="none" stroke="midnightblue" d="M346.92,-224.23C357.95,-215.29 375.39,-200.95 390,-188 408.53,-171.58 429.12,-152 442.94,-138.66"/>
<polygon fill="midnightblue" stroke="midnightblue" points="445.49,-141.06 450.23,-131.59 440.61,-136.04 445.49,-141.06"/>
</g>
<!-- Node7 -->
<g id="node7" class="node">
<title>Node7</title>
<g id="a_node7"><a xlink:href="MenuItem_8hpp.xhtml" target="_top" xlink:title=" ">
<polygon fill="white" stroke="black" points="274.5,-112.5 274.5,-131.5 361.5,-131.5 361.5,-112.5 274.5,-112.5"/>
<text text-anchor="middle" x="318" y="-119.5" font-family="Helvetica,sans-Serif" font-size="10.00">MenuItem.hpp</text>
</a>
</g>
</g>
<!-- Node6&#45;&gt;Node7 -->
<g id="edge6" class="edge">
<title>Node6&#45;&gt;Node7</title>
<path fill="none" stroke="midnightblue" d="M333.03,-168.08C330.62,-160.85 327.14,-150.41 324.13,-141.4"/>
<polygon fill="midnightblue" stroke="midnightblue" points="327.4,-140.13 320.92,-131.75 320.76,-142.34 327.4,-140.13"/>
</g>
<!-- Node6&#45;&gt;Node11 -->
<g id="edge10" class="edge">
<title>Node6&#45;&gt;Node11</title>
<path fill="none" stroke="midnightblue" d="M355.49,-168.44C375.64,-159.6 407.32,-145.69 430.33,-135.59"/>
<polygon fill="midnightblue" stroke="midnightblue" points="431.85,-138.74 439.6,-131.52 429.04,-132.33 431.85,-138.74"/>
</g>
<!-- Node8 -->
<g id="node8" class="node">
<title>Node8</title>
<g id="a_node8"><a xlink:title=" ">
<polygon fill="white" stroke="#bfbfbf" points="356,-56.5 356,-75.5 406,-75.5 406,-56.5 356,-56.5"/>
<text text-anchor="middle" x="381" y="-63.5" font-family="Helvetica,sans-Serif" font-size="10.00">cstdint</text>
</a>
</g>
</g>
<!-- Node7&#45;&gt;Node8 -->
<g id="edge7" class="edge">
<title>Node7&#45;&gt;Node8</title>
<path fill="none" stroke="midnightblue" d="M328.12,-112.32C337.53,-104.26 351.74,-92.08 363.07,-82.37"/>
<polygon fill="midnightblue" stroke="midnightblue" points="365.38,-85 370.69,-75.83 360.82,-79.68 365.38,-85"/>
</g>
<!-- Node9 -->
<g id="node9" class="node">
<title>Node9</title>
<g id="a_node9"><a xlink:title=" ">
<polygon fill="white" stroke="#bfbfbf" points="294,-56.5 294,-75.5 338,-75.5 338,-56.5 294,-56.5"/>
<text text-anchor="middle" x="316" y="-63.5" font-family="Helvetica,sans-Serif" font-size="10.00">string</text>
</a>
</g>
</g>
<!-- Node7&#45;&gt;Node9 -->
<g id="edge8" class="edge">
<title>Node7&#45;&gt;Node9</title>
<path fill="none" stroke="midnightblue" d="M317.67,-112.08C317.41,-105.01 317.03,-94.86 316.7,-85.99"/>
<polygon fill="midnightblue" stroke="midnightblue" points="320.19,-85.61 316.32,-75.75 313.2,-85.87 320.19,-85.61"/>
</g>
<!-- Node7&#45;&gt;Node10 -->
<g id="edge9" class="edge">
<title>Node7&#45;&gt;Node10</title>
<path fill="none" stroke="midnightblue" d="M307.07,-112.32C296.83,-104.18 281.28,-91.84 269,-82.09"/>
<polygon fill="midnightblue" stroke="midnightblue" points="271.13,-79.31 261.12,-75.83 266.78,-84.79 271.13,-79.31"/>
</g>
<!-- Node12 -->
<g id="node12" class="node">
<title>Node12</title>
<g id="a_node12"><a xlink:href="KeyIds_8hpp.xhtml" target="_top" xlink:title=" ">
<polygon fill="white" stroke="black" points="509,-56.5 509,-75.5 579,-75.5 579,-56.5 509,-56.5"/>
<text text-anchor="middle" x="544" y="-63.5" font-family="Helvetica,sans-Serif" font-size="10.00">KeyIds.hpp</text>
</a>
</g>
</g>
<!-- Node11&#45;&gt;Node12 -->
<g id="edge11" class="edge">
<title>Node11&#45;&gt;Node12</title>
<path fill="none" stroke="midnightblue" d="M472.66,-112.32C485.92,-103.9 506.27,-90.97 521.85,-81.07"/>
<polygon fill="midnightblue" stroke="midnightblue" points="523.81,-83.97 530.38,-75.65 520.06,-78.06 523.81,-83.97"/>
</g>
<!-- Node14 -->
<g id="node14" class="node">
<title>Node14</title>
<g id="a_node14"><a xlink:title=" ">
<polygon fill="white" stroke="#bfbfbf" points="425.5,-56.5 425.5,-75.5 490.5,-75.5 490.5,-56.5 425.5,-56.5"/>
<text text-anchor="middle" x="458" y="-63.5" font-family="Helvetica,sans-Serif" font-size="10.00">functional</text>
</a>
</g>
</g>
<!-- Node11&#45;&gt;Node14 -->
<g id="edge13" class="edge">
<title>Node11&#45;&gt;Node14</title>
<path fill="none" stroke="midnightblue" d="M458.83,-112.08C458.7,-105.01 458.52,-94.86 458.35,-85.99"/>
<polygon fill="midnightblue" stroke="midnightblue" points="461.85,-85.68 458.16,-75.75 454.85,-85.81 461.85,-85.68"/>
</g>
<!-- Node13 -->
<g id="node13" class="node">
<title>Node13</title>
<g id="a_node13"><a xlink:title=" ">
<polygon fill="white" stroke="#bfbfbf" points="515.5,-0.5 515.5,-19.5 572.5,-19.5 572.5,-0.5 515.5,-0.5"/>
<text text-anchor="middle" x="544" y="-7.5" font-family="Helvetica,sans-Serif" font-size="10.00">ostream</text>
</a>
</g>
</g>
<!-- Node12&#45;&gt;Node13 -->
<g id="edge12" class="edge">
<title>Node12&#45;&gt;Node13</title>
<path fill="none" stroke="midnightblue" d="M544,-56.08C544,-49.01 544,-38.86 544,-29.99"/>
<polygon fill="midnightblue" stroke="midnightblue" points="547.5,-29.75 544,-19.75 540.5,-29.75 547.5,-29.75"/>
</g>
</g>
</svg>
