<?xml version="1.0" encoding="UTF-8" standalone="no"?>
<!DOCTYPE svg PUBLIC "-//W3C//DTD SVG 1.1//EN"
 "http://www.w3.org/Graphics/SVG/1.1/DTD/svg11.dtd">
<!-- Generated by graphviz version 2.43.0 (0)
 -->
<!-- Title: lib/application_business_rules/user_interaction/Presenter.cpp Pages: 1 -->
<svg width="803pt" height="386pt"
 viewBox="0.00 0.00 803.00 386.00" xmlns="http://www.w3.org/2000/svg" xmlns:xlink="http://www.w3.org/1999/xlink">
<g id="graph0" class="graph" transform="scale(1 1) rotate(0) translate(4 382)">
<title>lib/application_business_rules/user_interaction/Presenter.cpp</title>
<polygon fill="white" stroke="transparent" points="-4,4 -4,-382 799,-382 799,4 -4,4"/>
<!-- Node1 -->
<g id="node1" class="node">
<title>Node1</title>
<g id="a_node1"><a xlink:title=" ">
<polygon fill="#bfbfbf" stroke="black" points="512.5,-336.5 512.5,-377.5 646.5,-377.5 646.5,-336.5 512.5,-336.5"/>
<text text-anchor="start" x="520.5" y="-365.5" font-family="Helvetica,sans-Serif" font-size="10.00">lib/application_business</text>
<text text-anchor="start" x="520.5" y="-354.5" font-family="Helvetica,sans-Serif" font-size="10.00">_rules/user_interaction</text>
<text text-anchor="middle" x="579.5" y="-343.5" font-family="Helvetica,sans-Serif" font-size="10.00">/Presenter.cpp</text>
</a>
</g>
</g>
<!-- Node2 -->
<g id="node2" class="node">
<title>Node2</title>
<g id="a_node2"><a xlink:href="Presenter_8hpp.xhtml" target="_top" xlink:title=" ">
<polygon fill="white" stroke="black" points="191,-280.5 191,-299.5 274,-299.5 274,-280.5 191,-280.5"/>
<text text-anchor="middle" x="232.5" y="-287.5" font-family="Helvetica,sans-Serif" font-size="10.00">Presenter.hpp</text>
</a>
</g>
</g>
<!-- Node1&#45;&gt;Node2 -->
<g id="edge1" class="edge">
<title>Node1&#45;&gt;Node2</title>
<path fill="none" stroke="midnightblue" d="M512.18,-343.39C445.48,-330.9 344.77,-312.03 284.14,-300.67"/>
<polygon fill="midnightblue" stroke="midnightblue" points="284.51,-297.18 274.04,-298.78 283.22,-304.06 284.51,-297.18"/>
</g>
<!-- Node14 -->
<g id="node14" class="node">
<title>Node14</title>
<g id="a_node14"><a xlink:href="board__interface_8hpp.xhtml" target="_top" xlink:title=" ">
<polygon fill="white" stroke="black" points="410.5,-280.5 410.5,-299.5 524.5,-299.5 524.5,-280.5 410.5,-280.5"/>
<text text-anchor="middle" x="467.5" y="-287.5" font-family="Helvetica,sans-Serif" font-size="10.00">board_interface.hpp</text>
</a>
</g>
</g>
<!-- Node1&#45;&gt;Node14 -->
<g id="edge15" class="edge">
<title>Node1&#45;&gt;Node14</title>
<path fill="none" stroke="midnightblue" d="M545.9,-336.5C528.23,-326.24 507,-313.93 491.09,-304.69"/>
<polygon fill="midnightblue" stroke="midnightblue" points="492.81,-301.64 482.41,-299.65 489.3,-307.7 492.81,-301.64"/>
</g>
<!-- Node15 -->
<g id="node15" class="node">
<title>Node15</title>
<g id="a_node15"><a xlink:title=" ">
<polygon fill="white" stroke="#bfbfbf" points="527.5,-224.5 527.5,-243.5 577.5,-243.5 577.5,-224.5 527.5,-224.5"/>
<text text-anchor="middle" x="552.5" y="-231.5" font-family="Helvetica,sans-Serif" font-size="10.00">chrono</text>
</a>
</g>
</g>
<!-- Node1&#45;&gt;Node15 -->
<g id="edge20" class="edge">
<title>Node1&#45;&gt;Node15</title>
<path fill="none" stroke="midnightblue" d="M575.1,-336.29C569.99,-313.37 561.61,-275.85 556.62,-253.47"/>
<polygon fill="midnightblue" stroke="midnightblue" points="560.01,-252.57 554.41,-243.57 553.18,-254.1 560.01,-252.57"/>
</g>
<!-- Node16 -->
<g id="node16" class="node">
<title>Node16</title>
<g id="a_node16"><a xlink:title=" ">
<polygon fill="white" stroke="#bfbfbf" points="580.5,-280.5 580.5,-299.5 632.5,-299.5 632.5,-280.5 580.5,-280.5"/>
<text text-anchor="middle" x="606.5" y="-287.5" font-family="Helvetica,sans-Serif" font-size="10.00">cassert</text>
</a>
</g>
</g>
<!-- Node1&#45;&gt;Node16 -->
<g id="edge19" class="edge">
<title>Node1&#45;&gt;Node16</title>
<path fill="none" stroke="midnightblue" d="M587.6,-336.5C591.22,-327.78 595.47,-317.56 599.01,-309.02"/>
<polygon fill="midnightblue" stroke="midnightblue" points="602.3,-310.23 602.91,-299.65 595.84,-307.54 602.3,-310.23"/>
</g>
<!-- Node17 -->
<g id="node17" class="node">
<title>Node17</title>
<g id="a_node17"><a xlink:title=" ">
<polygon fill="white" stroke="#bfbfbf" points="651,-280.5 651,-299.5 704,-299.5 704,-280.5 651,-280.5"/>
<text text-anchor="middle" x="677.5" y="-287.5" font-family="Helvetica,sans-Serif" font-size="10.00">iterator</text>
</a>
</g>
</g>
<!-- Node1&#45;&gt;Node17 -->
<g id="edge21" class="edge">
<title>Node1&#45;&gt;Node17</title>
<path fill="none" stroke="midnightblue" d="M608.9,-336.5C624.07,-326.44 642.24,-314.38 656.07,-305.21"/>
<polygon fill="midnightblue" stroke="midnightblue" points="658.06,-308.1 664.45,-299.65 654.19,-302.26 658.06,-308.1"/>
</g>
<!-- Node18 -->
<g id="node18" class="node">
<title>Node18</title>
<g id="a_node18"><a xlink:href="pitches_8hpp.xhtml" target="_top" xlink:title=" ">
<polygon fill="white" stroke="black" points="722,-280.5 722,-299.5 795,-299.5 795,-280.5 722,-280.5"/>
<text text-anchor="middle" x="758.5" y="-287.5" font-family="Helvetica,sans-Serif" font-size="10.00">pitches.hpp</text>
</a>
</g>
</g>
<!-- Node1&#45;&gt;Node18 -->
<g id="edge22" class="edge">
<title>Node1&#45;&gt;Node18</title>
<path fill="none" stroke="midnightblue" d="M633.21,-336.5C663.02,-325.67 699.19,-312.54 724.99,-303.17"/>
<polygon fill="midnightblue" stroke="midnightblue" points="726.47,-306.36 734.67,-299.65 724.08,-299.78 726.47,-306.36"/>
</g>
<!-- Node3 -->
<g id="node3" class="node">
<title>Node3</title>
<g id="a_node3"><a xlink:href="IStatusIndicator_8hpp.xhtml" target="_top" xlink:title=" ">
<polygon fill="white" stroke="black" points="0,-224.5 0,-243.5 113,-243.5 113,-224.5 0,-224.5"/>
<text text-anchor="middle" x="56.5" y="-231.5" font-family="Helvetica,sans-Serif" font-size="10.00">IStatusIndicator.hpp</text>
</a>
</g>
</g>
<!-- Node2&#45;&gt;Node3 -->
<g id="edge2" class="edge">
<title>Node2&#45;&gt;Node3</title>
<path fill="none" stroke="midnightblue" d="M204.61,-280.44C174.75,-271.28 127.19,-256.69 94.04,-246.52"/>
<polygon fill="midnightblue" stroke="midnightblue" points="94.84,-243.1 84.26,-243.52 92.79,-249.8 94.84,-243.1"/>
</g>
<!-- Node4 -->
<g id="node4" class="node">
<title>Node4</title>
<g id="a_node4"><a xlink:href="Menu_8hpp.xhtml" target="_top" xlink:title=" ">
<polygon fill="white" stroke="black" points="200,-224.5 200,-243.5 265,-243.5 265,-224.5 200,-224.5"/>
<text text-anchor="middle" x="232.5" y="-231.5" font-family="Helvetica,sans-Serif" font-size="10.00">Menu.hpp</text>
</a>
</g>
</g>
<!-- Node2&#45;&gt;Node4 -->
<g id="edge3" class="edge">
<title>Node2&#45;&gt;Node4</title>
<path fill="none" stroke="midnightblue" d="M232.5,-280.08C232.5,-273.01 232.5,-262.86 232.5,-253.99"/>
<polygon fill="midnightblue" stroke="midnightblue" points="236,-253.75 232.5,-243.75 229,-253.75 236,-253.75"/>
</g>
<!-- Node8 -->
<g id="node8" class="node">
<title>Node8</title>
<g id="a_node8"><a xlink:title=" ">
<polygon fill="white" stroke="#bfbfbf" points="122,-56.5 122,-75.5 169,-75.5 169,-56.5 122,-56.5"/>
<text text-anchor="middle" x="145.5" y="-63.5" font-family="Helvetica,sans-Serif" font-size="10.00">vector</text>
</a>
</g>
</g>
<!-- Node2&#45;&gt;Node8 -->
<g id="edge14" class="edge">
<title>Node2&#45;&gt;Node8</title>
<path fill="none" stroke="midnightblue" d="M221.98,-280.44C212.41,-272.1 198.58,-258.58 190.5,-244 161.34,-191.42 150.69,-119.61 147.13,-85.91"/>
<polygon fill="midnightblue" stroke="midnightblue" points="150.58,-85.3 146.14,-75.68 143.61,-85.97 150.58,-85.3"/>
</g>
<!-- Node13 -->
<g id="node13" class="node">
<title>Node13</title>
<g id="a_node13"><a xlink:title=" ">
<polygon fill="white" stroke="#bfbfbf" points="283,-224.5 283,-243.5 336,-243.5 336,-224.5 283,-224.5"/>
<text text-anchor="middle" x="309.5" y="-231.5" font-family="Helvetica,sans-Serif" font-size="10.00">cstddef</text>
</a>
</g>
</g>
<!-- Node2&#45;&gt;Node13 -->
<g id="edge13" class="edge">
<title>Node2&#45;&gt;Node13</title>
<path fill="none" stroke="midnightblue" d="M244.87,-280.32C256.66,-272.06 274.63,-259.45 288.64,-249.63"/>
<polygon fill="midnightblue" stroke="midnightblue" points="290.98,-252.26 297.16,-243.65 286.96,-246.53 290.98,-252.26"/>
</g>
<!-- Node5 -->
<g id="node5" class="node">
<title>Node5</title>
<g id="a_node5"><a xlink:href="IDisplay_8hpp.xhtml" target="_top" xlink:title=" ">
<polygon fill="white" stroke="black" points="194.5,-168.5 194.5,-187.5 270.5,-187.5 270.5,-168.5 194.5,-168.5"/>
<text text-anchor="middle" x="232.5" y="-175.5" font-family="Helvetica,sans-Serif" font-size="10.00">IDisplay.hpp</text>
</a>
</g>
</g>
<!-- Node4&#45;&gt;Node5 -->
<g id="edge4" class="edge">
<title>Node4&#45;&gt;Node5</title>
<path fill="none" stroke="midnightblue" d="M232.5,-224.08C232.5,-217.01 232.5,-206.86 232.5,-197.99"/>
<polygon fill="midnightblue" stroke="midnightblue" points="236,-197.75 232.5,-187.75 229,-197.75 236,-197.75"/>
</g>
<!-- Node9 -->
<g id="node9" class="node">
<title>Node9</title>
<g id="a_node9"><a xlink:href="IKeypad_8hpp.xhtml" target="_top" xlink:title=" ">
<polygon fill="white" stroke="black" points="275.5,-112.5 275.5,-131.5 433.5,-131.5 433.5,-112.5 275.5,-112.5"/>
<text text-anchor="middle" x="354.5" y="-119.5" font-family="Helvetica,sans-Serif" font-size="10.00">user_interaction/IKeypad.hpp</text>
</a>
</g>
</g>
<!-- Node4&#45;&gt;Node9 -->
<g id="edge12" class="edge">
<title>Node4&#45;&gt;Node9</title>
<path fill="none" stroke="midnightblue" d="M242.07,-224.37C262.65,-205.81 311.34,-161.91 337.38,-138.44"/>
<polygon fill="midnightblue" stroke="midnightblue" points="339.89,-140.89 344.97,-131.59 335.2,-135.69 339.89,-140.89"/>
</g>
<!-- Node6 -->
<g id="node6" class="node">
<title>Node6</title>
<g id="a_node6"><a xlink:href="MenuItem_8hpp.xhtml" target="_top" xlink:title=" ">
<polygon fill="white" stroke="black" points="170,-112.5 170,-131.5 257,-131.5 257,-112.5 170,-112.5"/>
<text text-anchor="middle" x="213.5" y="-119.5" font-family="Helvetica,sans-Serif" font-size="10.00">MenuItem.hpp</text>
</a>
</g>
</g>
<!-- Node5&#45;&gt;Node6 -->
<g id="edge5" class="edge">
<title>Node5&#45;&gt;Node6</title>
<path fill="none" stroke="midnightblue" d="M229.36,-168.08C226.82,-160.85 223.14,-150.41 219.97,-141.4"/>
<polygon fill="midnightblue" stroke="midnightblue" points="223.2,-140.02 216.58,-131.75 216.6,-142.35 223.2,-140.02"/>
</g>
<!-- Node5&#45;&gt;Node9 -->
<g id="edge8" class="edge">
<title>Node5&#45;&gt;Node9</title>
<path fill="none" stroke="midnightblue" d="M251.83,-168.44C271.82,-159.6 303.24,-145.69 326.06,-135.59"/>
<polygon fill="midnightblue" stroke="midnightblue" points="327.53,-138.76 335.26,-131.52 324.7,-132.36 327.53,-138.76"/>
</g>
<!-- Node7 -->
<g id="node7" class="node">
<title>Node7</title>
<g id="a_node7"><a xlink:title=" ">
<polygon fill="white" stroke="#bfbfbf" points="191.5,-56.5 191.5,-75.5 235.5,-75.5 235.5,-56.5 191.5,-56.5"/>
<text text-anchor="middle" x="213.5" y="-63.5" font-family="Helvetica,sans-Serif" font-size="10.00">string</text>
</a>
</g>
</g>
<!-- Node6&#45;&gt;Node7 -->
<g id="edge6" class="edge">
<title>Node6&#45;&gt;Node7</title>
<path fill="none" stroke="midnightblue" d="M213.5,-112.08C213.5,-105.01 213.5,-94.86 213.5,-85.99"/>
<polygon fill="midnightblue" stroke="midnightblue" points="217,-85.75 213.5,-75.75 210,-85.75 217,-85.75"/>
</g>
<!-- Node6&#45;&gt;Node8 -->
<g id="edge7" class="edge">
<title>Node6&#45;&gt;Node8</title>
<path fill="none" stroke="midnightblue" d="M202.57,-112.32C192.33,-104.18 176.78,-91.84 164.5,-82.09"/>
<polygon fill="midnightblue" stroke="midnightblue" points="166.63,-79.31 156.62,-75.83 162.28,-84.79 166.63,-79.31"/>
</g>
<!-- Node10 -->
<g id="node10" class="node">
<title>Node10</title>
<g id="a_node10"><a xlink:href="KeyIds_8hpp.xhtml" target="_top" xlink:title=" ">
<polygon fill="white" stroke="black" points="334.5,-56.5 334.5,-75.5 404.5,-75.5 404.5,-56.5 334.5,-56.5"/>
<text text-anchor="middle" x="369.5" y="-63.5" font-family="Helvetica,sans-Serif" font-size="10.00">KeyIds.hpp</text>
</a>
</g>
</g>
<!-- Node9&#45;&gt;Node10 -->
<g id="edge9" class="edge">
<title>Node9&#45;&gt;Node10</title>
<path fill="none" stroke="midnightblue" d="M356.98,-112.08C358.99,-104.85 361.89,-94.41 364.39,-85.4"/>
<polygon fill="midnightblue" stroke="midnightblue" points="367.76,-86.32 367.07,-75.75 361.02,-84.45 367.76,-86.32"/>
</g>
<!-- Node12 -->
<g id="node12" class="node">
<title>Node12</title>
<g id="a_node12"><a xlink:title=" ">
<polygon fill="white" stroke="#bfbfbf" points="452,-56.5 452,-75.5 517,-75.5 517,-56.5 452,-56.5"/>
<text text-anchor="middle" x="484.5" y="-63.5" font-family="Helvetica,sans-Serif" font-size="10.00">functional</text>
</a>
</g>
</g>
<!-- Node9&#45;&gt;Node12 -->
<g id="edge11" class="edge">
<title>Node9&#45;&gt;Node12</title>
<path fill="none" stroke="midnightblue" d="M375.1,-112.44C396.49,-103.56 430.18,-89.56 454.52,-79.45"/>
<polygon fill="midnightblue" stroke="midnightblue" points="456.11,-82.58 464,-75.52 453.42,-76.12 456.11,-82.58"/>
</g>
<!-- Node11 -->
<g id="node11" class="node">
<title>Node11</title>
<g id="a_node11"><a xlink:title=" ">
<polygon fill="white" stroke="#bfbfbf" points="341,-0.5 341,-19.5 398,-19.5 398,-0.5 341,-0.5"/>
<text text-anchor="middle" x="369.5" y="-7.5" font-family="Helvetica,sans-Serif" font-size="10.00">ostream</text>
</a>
</g>
</g>
<!-- Node10&#45;&gt;Node11 -->
<g id="edge10" class="edge">
<title>Node10&#45;&gt;Node11</title>
<path fill="none" stroke="midnightblue" d="M369.5,-56.08C369.5,-49.01 369.5,-38.86 369.5,-29.99"/>
<polygon fill="midnightblue" stroke="midnightblue" points="373,-29.75 369.5,-19.75 366,-29.75 373,-29.75"/>
</g>
<!-- Node14&#45;&gt;Node10 -->
<g id="edge16" class="edge">
<title>Node14&#45;&gt;Node10</title>
<path fill="none" stroke="midnightblue" d="M468.68,-280.38C471.96,-253.12 478.69,-167.32 442.5,-112 433.14,-97.69 417.49,-87.17 403.07,-79.91"/>
<polygon fill="midnightblue" stroke="midnightblue" points="404.39,-76.66 393.85,-75.6 401.43,-83 404.39,-76.66"/>
</g>
<!-- Node14&#45;&gt;Node12 -->
<g id="edge18" class="edge">
<title>Node14&#45;&gt;Node12</title>
<path fill="none" stroke="midnightblue" d="M469.36,-280.42C471.23,-271.4 474.05,-256.77 475.5,-244 482.04,-186.55 483.83,-118.07 484.32,-85.71"/>
<polygon fill="midnightblue" stroke="midnightblue" points="487.82,-85.55 484.44,-75.51 480.82,-85.46 487.82,-85.55"/>
</g>
<!-- Node14&#45;&gt;Node15 -->
<g id="edge17" class="edge">
<title>Node14&#45;&gt;Node15</title>
<path fill="none" stroke="midnightblue" d="M481.16,-280.32C494.42,-271.9 514.77,-258.97 530.35,-249.07"/>
<polygon fill="midnightblue" stroke="midnightblue" points="532.31,-251.97 538.88,-243.65 528.56,-246.06 532.31,-251.97"/>
</g>
<!-- Node19 -->
<g id="node19" class="node">
<title>Node19</title>
<g id="a_node19"><a xlink:title=" ">
<polygon fill="white" stroke="#bfbfbf" points="733.5,-224.5 733.5,-243.5 783.5,-243.5 783.5,-224.5 733.5,-224.5"/>
<text text-anchor="middle" x="758.5" y="-231.5" font-family="Helvetica,sans-Serif" font-size="10.00">cstdint</text>
</a>
</g>
</g>
<!-- Node18&#45;&gt;Node19 -->
<g id="edge23" class="edge">
<title>Node18&#45;&gt;Node19</title>
<path fill="none" stroke="midnightblue" d="M758.5,-280.08C758.5,-273.01 758.5,-262.86 758.5,-253.99"/>
<polygon fill="midnightblue" stroke="midnightblue" points="762,-253.75 758.5,-243.75 755,-253.75 762,-253.75"/>
</g>
</g>
</svg>
