<?xml version="1.0" encoding="UTF-8" standalone="no"?>
<!DOCTYPE svg PUBLIC "-//W3C//DTD SVG 1.1//EN"
 "http://www.w3.org/Graphics/SVG/1.1/DTD/svg11.dtd">
<!-- Generated by graphviz version 2.43.0 (0)
 -->
<!-- Title: lib/application_business_rules/user_interaction/Presenter.cpp Pages: 1 -->
<svg width="757pt" height="386pt"
 viewBox="0.00 0.00 757.00 386.00" xmlns="http://www.w3.org/2000/svg" xmlns:xlink="http://www.w3.org/1999/xlink">
<g id="graph0" class="graph" transform="scale(1 1) rotate(0) translate(4 382)">
<title>lib/application_business_rules/user_interaction/Presenter.cpp</title>
<polygon fill="white" stroke="transparent" points="-4,4 -4,-382 753,-382 753,4 -4,4"/>
<!-- Node1 -->
<g id="node1" class="node">
<title>Node1</title>
<g id="a_node1"><a xlink:title=" ">
<polygon fill="#bfbfbf" stroke="black" points="487.5,-336.5 487.5,-377.5 621.5,-377.5 621.5,-336.5 487.5,-336.5"/>
<text text-anchor="start" x="495.5" y="-365.5" font-family="Helvetica,sans-Serif" font-size="10.00">lib/application_business</text>
<text text-anchor="start" x="495.5" y="-354.5" font-family="Helvetica,sans-Serif" font-size="10.00">_rules/user_interaction</text>
<text text-anchor="middle" x="554.5" y="-343.5" font-family="Helvetica,sans-Serif" font-size="10.00">/Presenter.cpp</text>
</a>
</g>
</g>
<!-- Node2 -->
<g id="node2" class="node">
<title>Node2</title>
<g id="a_node2"><a xlink:href="Presenter_8hpp.xhtml" target="_top" xlink:title=" ">
<polygon fill="white" stroke="black" points="205,-280.5 205,-299.5 288,-299.5 288,-280.5 205,-280.5"/>
<text text-anchor="middle" x="246.5" y="-287.5" font-family="Helvetica,sans-Serif" font-size="10.00">Presenter.hpp</text>
</a>
</g>
</g>
<!-- Node1&#45;&gt;Node2 -->
<g id="edge1" class="edge">
<title>Node1&#45;&gt;Node2</title>
<path fill="none" stroke="midnightblue" d="M487.29,-341.82C430.04,-329.73 349.03,-312.64 297.13,-301.68"/>
<polygon fill="midnightblue" stroke="midnightblue" points="297.66,-298.22 287.15,-299.58 296.21,-305.07 297.66,-298.22"/>
</g>
<!-- Node15 -->
<g id="node15" class="node">
<title>Node15</title>
<g id="a_node15"><a xlink:href="board__interface_8hpp.xhtml" target="_top" xlink:title=" ">
<polygon fill="white" stroke="black" points="455.5,-280.5 455.5,-299.5 569.5,-299.5 569.5,-280.5 455.5,-280.5"/>
<text text-anchor="middle" x="512.5" y="-287.5" font-family="Helvetica,sans-Serif" font-size="10.00">board_interface.hpp</text>
</a>
</g>
</g>
<!-- Node1&#45;&gt;Node15 -->
<g id="edge16" class="edge">
<title>Node1&#45;&gt;Node15</title>
<path fill="none" stroke="midnightblue" d="M541.9,-336.5C536.08,-327.49 529.23,-316.89 523.6,-308.19"/>
<polygon fill="midnightblue" stroke="midnightblue" points="526.46,-306.15 518.09,-299.65 520.58,-309.95 526.46,-306.15"/>
</g>
<!-- Node16 -->
<g id="node16" class="node">
<title>Node16</title>
<g id="a_node16"><a xlink:title=" ">
<polygon fill="white" stroke="#bfbfbf" points="575.5,-224.5 575.5,-243.5 625.5,-243.5 625.5,-224.5 575.5,-224.5"/>
<text text-anchor="middle" x="600.5" y="-231.5" font-family="Helvetica,sans-Serif" font-size="10.00">chrono</text>
</a>
</g>
</g>
<!-- Node1&#45;&gt;Node16 -->
<g id="edge21" class="edge">
<title>Node1&#45;&gt;Node16</title>
<path fill="none" stroke="midnightblue" d="M563.32,-336.46C568.03,-325.77 573.81,-312.25 578.5,-300 584.42,-284.53 590.4,-266.68 594.63,-253.61"/>
<polygon fill="midnightblue" stroke="midnightblue" points="598.02,-254.5 597.73,-243.91 591.35,-252.37 598.02,-254.5"/>
</g>
<!-- Node17 -->
<g id="node17" class="node">
<title>Node17</title>
<g id="a_node17"><a xlink:title=" ">
<polygon fill="white" stroke="#bfbfbf" points="625.5,-280.5 625.5,-299.5 677.5,-299.5 677.5,-280.5 625.5,-280.5"/>
<text text-anchor="middle" x="651.5" y="-287.5" font-family="Helvetica,sans-Serif" font-size="10.00">cassert</text>
</a>
</g>
</g>
<!-- Node1&#45;&gt;Node17 -->
<g id="edge20" class="edge">
<title>Node1&#45;&gt;Node17</title>
<path fill="none" stroke="midnightblue" d="M583.6,-336.5C598.48,-326.53 616.26,-314.61 629.9,-305.48"/>
<polygon fill="midnightblue" stroke="midnightblue" points="632.23,-308.13 638.59,-299.65 628.33,-302.31 632.23,-308.13"/>
</g>
<!-- Node18 -->
<g id="node18" class="node">
<title>Node18</title>
<g id="a_node18"><a xlink:title=" ">
<polygon fill="white" stroke="#bfbfbf" points="696,-280.5 696,-299.5 749,-299.5 749,-280.5 696,-280.5"/>
<text text-anchor="middle" x="722.5" y="-287.5" font-family="Helvetica,sans-Serif" font-size="10.00">iterator</text>
</a>
</g>
</g>
<!-- Node1&#45;&gt;Node18 -->
<g id="edge22" class="edge">
<title>Node1&#45;&gt;Node18</title>
<path fill="none" stroke="midnightblue" d="M604.91,-336.5C632.77,-325.72 666.54,-312.65 690.72,-303.29"/>
<polygon fill="midnightblue" stroke="midnightblue" points="692.07,-306.53 700.14,-299.65 689.55,-300 692.07,-306.53"/>
</g>
<!-- Node19 -->
<g id="node19" class="node">
<title>Node19</title>
<g id="a_node19"><a xlink:href="pitches_8hpp.xhtml" target="_top" xlink:title=" ">
<polygon fill="white" stroke="black" points="0,-168.5 0,-187.5 73,-187.5 73,-168.5 0,-168.5"/>
<text text-anchor="middle" x="36.5" y="-175.5" font-family="Helvetica,sans-Serif" font-size="10.00">pitches.hpp</text>
</a>
</g>
</g>
<!-- Node1&#45;&gt;Node19 -->
<g id="edge23" class="edge">
<title>Node1&#45;&gt;Node19</title>
<path fill="none" stroke="midnightblue" d="M487.24,-349.37C414.52,-341.31 295.59,-325.52 195.5,-300 124.12,-281.8 83.26,-303.26 39.5,-244 29.76,-230.81 30.1,-211.67 32.22,-197.58"/>
<polygon fill="midnightblue" stroke="midnightblue" points="35.7,-198.05 34.15,-187.56 28.82,-196.72 35.7,-198.05"/>
</g>
<!-- Node3 -->
<g id="node3" class="node">
<title>Node3</title>
<g id="a_node3"><a xlink:href="IStatusIndicator_8hpp.xhtml" target="_top" xlink:title=" ">
<polygon fill="white" stroke="black" points="49,-224.5 49,-243.5 162,-243.5 162,-224.5 49,-224.5"/>
<text text-anchor="middle" x="105.5" y="-231.5" font-family="Helvetica,sans-Serif" font-size="10.00">IStatusIndicator.hpp</text>
</a>
</g>
</g>
<!-- Node2&#45;&gt;Node3 -->
<g id="edge2" class="edge">
<title>Node2&#45;&gt;Node3</title>
<path fill="none" stroke="midnightblue" d="M224.16,-280.44C200.75,-271.48 163.76,-257.31 137.31,-247.18"/>
<polygon fill="midnightblue" stroke="midnightblue" points="138.33,-243.82 127.74,-243.52 135.82,-250.36 138.33,-243.82"/>
</g>
<!-- Node4 -->
<g id="node4" class="node">
<title>Node4</title>
<g id="a_node4"><a xlink:href="Menu_8hpp.xhtml" target="_top" xlink:title=" ">
<polygon fill="white" stroke="black" points="291,-224.5 291,-243.5 356,-243.5 356,-224.5 291,-224.5"/>
<text text-anchor="middle" x="323.5" y="-231.5" font-family="Helvetica,sans-Serif" font-size="10.00">Menu.hpp</text>
</a>
</g>
</g>
<!-- Node2&#45;&gt;Node4 -->
<g id="edge3" class="edge">
<title>Node2&#45;&gt;Node4</title>
<path fill="none" stroke="midnightblue" d="M258.87,-280.32C270.66,-272.06 288.63,-259.45 302.64,-249.63"/>
<polygon fill="midnightblue" stroke="midnightblue" points="304.98,-252.26 311.16,-243.65 300.96,-246.53 304.98,-252.26"/>
</g>
<!-- Node9 -->
<g id="node9" class="node">
<title>Node9</title>
<g id="a_node9"><a xlink:title=" ">
<polygon fill="white" stroke="#bfbfbf" points="170,-56.5 170,-75.5 217,-75.5 217,-56.5 170,-56.5"/>
<text text-anchor="middle" x="193.5" y="-63.5" font-family="Helvetica,sans-Serif" font-size="10.00">vector</text>
</a>
</g>
</g>
<!-- Node2&#45;&gt;Node9 -->
<g id="edge15" class="edge">
<title>Node2&#45;&gt;Node9</title>
<path fill="none" stroke="midnightblue" d="M237,-280.39C228.45,-272.01 216.37,-258.46 210.5,-244 188.5,-189.75 189.77,-118.74 191.9,-85.58"/>
<polygon fill="midnightblue" stroke="midnightblue" points="195.4,-85.75 192.65,-75.51 188.42,-85.22 195.4,-85.75"/>
</g>
<!-- Node14 -->
<g id="node14" class="node">
<title>Node14</title>
<g id="a_node14"><a xlink:title=" ">
<polygon fill="white" stroke="#bfbfbf" points="220,-224.5 220,-243.5 273,-243.5 273,-224.5 220,-224.5"/>
<text text-anchor="middle" x="246.5" y="-231.5" font-family="Helvetica,sans-Serif" font-size="10.00">cstddef</text>
</a>
</g>
</g>
<!-- Node2&#45;&gt;Node14 -->
<g id="edge14" class="edge">
<title>Node2&#45;&gt;Node14</title>
<path fill="none" stroke="midnightblue" d="M246.5,-280.08C246.5,-273.01 246.5,-262.86 246.5,-253.99"/>
<polygon fill="midnightblue" stroke="midnightblue" points="250,-253.75 246.5,-243.75 243,-253.75 250,-253.75"/>
</g>
<!-- Node5 -->
<g id="node5" class="node">
<title>Node5</title>
<g id="a_node5"><a xlink:href="IGuiEngine_8hpp.xhtml" target="_top" xlink:title=" ">
<polygon fill="white" stroke="black" points="278.5,-168.5 278.5,-187.5 368.5,-187.5 368.5,-168.5 278.5,-168.5"/>
<text text-anchor="middle" x="323.5" y="-175.5" font-family="Helvetica,sans-Serif" font-size="10.00">IGuiEngine.hpp</text>
</a>
</g>
</g>
<!-- Node4&#45;&gt;Node5 -->
<g id="edge4" class="edge">
<title>Node4&#45;&gt;Node5</title>
<path fill="none" stroke="midnightblue" d="M323.5,-224.08C323.5,-217.01 323.5,-206.86 323.5,-197.99"/>
<polygon fill="midnightblue" stroke="midnightblue" points="327,-197.75 323.5,-187.75 320,-197.75 327,-197.75"/>
</g>
<!-- Node10 -->
<g id="node10" class="node">
<title>Node10</title>
<g id="a_node10"><a xlink:href="IKeypad_8hpp.xhtml" target="_top" xlink:title=" ">
<polygon fill="white" stroke="black" points="323.5,-112.5 323.5,-131.5 481.5,-131.5 481.5,-112.5 323.5,-112.5"/>
<text text-anchor="middle" x="402.5" y="-119.5" font-family="Helvetica,sans-Serif" font-size="10.00">user_interaction/IKeypad.hpp</text>
</a>
</g>
</g>
<!-- Node4&#45;&gt;Node10 -->
<g id="edge13" class="edge">
<title>Node4&#45;&gt;Node10</title>
<path fill="none" stroke="midnightblue" d="M337.65,-224.22C349.69,-216.12 366.7,-203.08 377.5,-188 387.61,-173.88 394.25,-155.15 398.12,-141.42"/>
<polygon fill="midnightblue" stroke="midnightblue" points="401.53,-142.23 400.65,-131.67 394.75,-140.47 401.53,-142.23"/>
</g>
<!-- Node6 -->
<g id="node6" class="node">
<title>Node6</title>
<g id="a_node6"><a xlink:href="MenuItem_8hpp.xhtml" target="_top" xlink:title=" ">
<polygon fill="white" stroke="black" points="218,-112.5 218,-131.5 305,-131.5 305,-112.5 218,-112.5"/>
<text text-anchor="middle" x="261.5" y="-119.5" font-family="Helvetica,sans-Serif" font-size="10.00">MenuItem.hpp</text>
</a>
</g>
</g>
<!-- Node5&#45;&gt;Node6 -->
<g id="edge5" class="edge">
<title>Node5&#45;&gt;Node6</title>
<path fill="none" stroke="midnightblue" d="M313.54,-168.32C304.37,-160.34 290.56,-148.31 279.47,-138.65"/>
<polygon fill="midnightblue" stroke="midnightblue" points="281.48,-135.76 271.64,-131.83 276.88,-141.04 281.48,-135.76"/>
</g>
<!-- Node5&#45;&gt;Node10 -->
<g id="edge9" class="edge">
<title>Node5&#45;&gt;Node10</title>
<path fill="none" stroke="midnightblue" d="M336.19,-168.32C348.4,-159.98 367.08,-147.21 381.5,-137.35"/>
<polygon fill="midnightblue" stroke="midnightblue" points="383.56,-140.19 389.84,-131.65 379.61,-134.41 383.56,-140.19"/>
</g>
<!-- Node7 -->
<g id="node7" class="node">
<title>Node7</title>
<g id="a_node7"><a xlink:title=" ">
<polygon fill="white" stroke="#bfbfbf" points="88.5,-56.5 88.5,-75.5 138.5,-75.5 138.5,-56.5 88.5,-56.5"/>
<text text-anchor="middle" x="113.5" y="-63.5" font-family="Helvetica,sans-Serif" font-size="10.00">cstdint</text>
</a>
</g>
</g>
<!-- Node6&#45;&gt;Node7 -->
<g id="edge6" class="edge">
<title>Node6&#45;&gt;Node7</title>
<path fill="none" stroke="midnightblue" d="M238.05,-112.44C213.37,-103.44 174.31,-89.19 146.52,-79.05"/>
<polygon fill="midnightblue" stroke="midnightblue" points="147.44,-75.66 136.84,-75.52 145.04,-82.23 147.44,-75.66"/>
</g>
<!-- Node8 -->
<g id="node8" class="node">
<title>Node8</title>
<g id="a_node8"><a xlink:title=" ">
<polygon fill="white" stroke="#bfbfbf" points="239.5,-56.5 239.5,-75.5 283.5,-75.5 283.5,-56.5 239.5,-56.5"/>
<text text-anchor="middle" x="261.5" y="-63.5" font-family="Helvetica,sans-Serif" font-size="10.00">string</text>
</a>
</g>
</g>
<!-- Node6&#45;&gt;Node8 -->
<g id="edge7" class="edge">
<title>Node6&#45;&gt;Node8</title>
<path fill="none" stroke="midnightblue" d="M261.5,-112.08C261.5,-105.01 261.5,-94.86 261.5,-85.99"/>
<polygon fill="midnightblue" stroke="midnightblue" points="265,-85.75 261.5,-75.75 258,-85.75 265,-85.75"/>
</g>
<!-- Node6&#45;&gt;Node9 -->
<g id="edge8" class="edge">
<title>Node6&#45;&gt;Node9</title>
<path fill="none" stroke="midnightblue" d="M250.57,-112.32C240.33,-104.18 224.78,-91.84 212.5,-82.09"/>
<polygon fill="midnightblue" stroke="midnightblue" points="214.63,-79.31 204.62,-75.83 210.28,-84.79 214.63,-79.31"/>
</g>
<!-- Node11 -->
<g id="node11" class="node">
<title>Node11</title>
<g id="a_node11"><a xlink:href="KeyIds_8hpp.xhtml" target="_top" xlink:title=" ">
<polygon fill="white" stroke="black" points="382.5,-56.5 382.5,-75.5 452.5,-75.5 452.5,-56.5 382.5,-56.5"/>
<text text-anchor="middle" x="417.5" y="-63.5" font-family="Helvetica,sans-Serif" font-size="10.00">KeyIds.hpp</text>
</a>
</g>
</g>
<!-- Node10&#45;&gt;Node11 -->
<g id="edge10" class="edge">
<title>Node10&#45;&gt;Node11</title>
<path fill="none" stroke="midnightblue" d="M404.98,-112.08C406.99,-104.85 409.89,-94.41 412.39,-85.4"/>
<polygon fill="midnightblue" stroke="midnightblue" points="415.76,-86.32 415.07,-75.75 409.02,-84.45 415.76,-86.32"/>
</g>
<!-- Node13 -->
<g id="node13" class="node">
<title>Node13</title>
<g id="a_node13"><a xlink:title=" ">
<polygon fill="white" stroke="#bfbfbf" points="500,-56.5 500,-75.5 565,-75.5 565,-56.5 500,-56.5"/>
<text text-anchor="middle" x="532.5" y="-63.5" font-family="Helvetica,sans-Serif" font-size="10.00">functional</text>
</a>
</g>
</g>
<!-- Node10&#45;&gt;Node13 -->
<g id="edge12" class="edge">
<title>Node10&#45;&gt;Node13</title>
<path fill="none" stroke="midnightblue" d="M423.1,-112.44C444.49,-103.56 478.18,-89.56 502.52,-79.45"/>
<polygon fill="midnightblue" stroke="midnightblue" points="504.11,-82.58 512,-75.52 501.42,-76.12 504.11,-82.58"/>
</g>
<!-- Node12 -->
<g id="node12" class="node">
<title>Node12</title>
<g id="a_node12"><a xlink:title=" ">
<polygon fill="white" stroke="#bfbfbf" points="389,-0.5 389,-19.5 446,-19.5 446,-0.5 389,-0.5"/>
<text text-anchor="middle" x="417.5" y="-7.5" font-family="Helvetica,sans-Serif" font-size="10.00">ostream</text>
</a>
</g>
</g>
<!-- Node11&#45;&gt;Node12 -->
<g id="edge11" class="edge">
<title>Node11&#45;&gt;Node12</title>
<path fill="none" stroke="midnightblue" d="M417.5,-56.08C417.5,-49.01 417.5,-38.86 417.5,-29.99"/>
<polygon fill="midnightblue" stroke="midnightblue" points="421,-29.75 417.5,-19.75 414,-29.75 421,-29.75"/>
</g>
<!-- Node15&#45;&gt;Node11 -->
<g id="edge17" class="edge">
<title>Node15&#45;&gt;Node11</title>
<path fill="none" stroke="midnightblue" d="M513.86,-280.39C517.71,-253.17 526.15,-167.49 490.5,-112 481.26,-97.61 465.62,-87.08 451.18,-79.84"/>
<polygon fill="midnightblue" stroke="midnightblue" points="452.49,-76.58 441.94,-75.54 449.54,-82.93 452.49,-76.58"/>
</g>
<!-- Node15&#45;&gt;Node13 -->
<g id="edge19" class="edge">
<title>Node15&#45;&gt;Node13</title>
<path fill="none" stroke="midnightblue" d="M515.1,-280.47C517.71,-271.49 521.61,-256.89 523.5,-244 531.87,-186.79 532.8,-118.19 532.7,-85.76"/>
<polygon fill="midnightblue" stroke="midnightblue" points="536.2,-85.51 532.63,-75.53 529.2,-85.55 536.2,-85.51"/>
</g>
<!-- Node15&#45;&gt;Node16 -->
<g id="edge18" class="edge">
<title>Node15&#45;&gt;Node16</title>
<path fill="none" stroke="midnightblue" d="M526.64,-280.32C540.37,-271.9 561.44,-258.97 577.56,-249.07"/>
<polygon fill="midnightblue" stroke="midnightblue" points="579.7,-251.87 586.4,-243.65 576.04,-245.9 579.7,-251.87"/>
</g>
<!-- Node19&#45;&gt;Node7 -->
<g id="edge24" class="edge">
<title>Node19&#45;&gt;Node7</title>
<path fill="none" stroke="midnightblue" d="M42.54,-168.37C55.25,-150.22 84.94,-107.8 101.61,-83.99"/>
<polygon fill="midnightblue" stroke="midnightblue" points="104.62,-85.79 107.49,-75.59 98.88,-81.78 104.62,-85.79"/>
</g>
</g>
</svg>
