<?xml version="1.0" encoding="UTF-8" standalone="no"?>
<!DOCTYPE svg PUBLIC "-//W3C//DTD SVG 1.1//EN"
 "http://www.w3.org/Graphics/SVG/1.1/DTD/svg11.dtd">
<!-- Generated by graphviz version 2.43.0 (0)
 -->
<!-- Title: lib/application_business_rules/user_interaction/Presenter.cpp Pages: 1 -->
<svg width="751pt" height="386pt"
 viewBox="0.00 0.00 751.00 386.00" xmlns="http://www.w3.org/2000/svg" xmlns:xlink="http://www.w3.org/1999/xlink">
<g id="graph0" class="graph" transform="scale(1 1) rotate(0) translate(4 382)">
<title>lib/application_business_rules/user_interaction/Presenter.cpp</title>
<polygon fill="white" stroke="transparent" points="-4,4 -4,-382 747,-382 747,4 -4,4"/>
<!-- Node1 -->
<g id="node1" class="node">
<title>Node1</title>
<g id="a_node1"><a xlink:title=" ">
<polygon fill="#bfbfbf" stroke="black" points="481.5,-336.5 481.5,-377.5 615.5,-377.5 615.5,-336.5 481.5,-336.5"/>
<text text-anchor="start" x="489.5" y="-365.5" font-family="Helvetica,sans-Serif" font-size="10.00">lib/application_business</text>
<text text-anchor="start" x="489.5" y="-354.5" font-family="Helvetica,sans-Serif" font-size="10.00">_rules/user_interaction</text>
<text text-anchor="middle" x="548.5" y="-343.5" font-family="Helvetica,sans-Serif" font-size="10.00">/Presenter.cpp</text>
</a>
</g>
</g>
<!-- Node2 -->
<g id="node2" class="node">
<title>Node2</title>
<g id="a_node2"><a xlink:href="Presenter_8hpp.xhtml" target="_top" xlink:title=" ">
<polygon fill="white" stroke="black" points="200,-280.5 200,-299.5 283,-299.5 283,-280.5 200,-280.5"/>
<text text-anchor="middle" x="241.5" y="-287.5" font-family="Helvetica,sans-Serif" font-size="10.00">Presenter.hpp</text>
</a>
</g>
</g>
<!-- Node1&#45;&gt;Node2 -->
<g id="edge1" class="edge">
<title>Node1&#45;&gt;Node2</title>
<path fill="none" stroke="midnightblue" d="M481.13,-341.74C424.04,-329.65 343.45,-312.59 291.84,-301.66"/>
<polygon fill="midnightblue" stroke="midnightblue" points="292.42,-298.2 281.91,-299.56 290.97,-305.05 292.42,-298.2"/>
</g>
<!-- Node15 -->
<g id="node15" class="node">
<title>Node15</title>
<g id="a_node15"><a xlink:href="board__interface_8hpp.xhtml" target="_top" xlink:title=" ">
<polygon fill="white" stroke="black" points="449.5,-280.5 449.5,-299.5 563.5,-299.5 563.5,-280.5 449.5,-280.5"/>
<text text-anchor="middle" x="506.5" y="-287.5" font-family="Helvetica,sans-Serif" font-size="10.00">board_interface.hpp</text>
</a>
</g>
</g>
<!-- Node1&#45;&gt;Node15 -->
<g id="edge16" class="edge">
<title>Node1&#45;&gt;Node15</title>
<path fill="none" stroke="midnightblue" d="M535.9,-336.5C530.08,-327.49 523.23,-316.89 517.6,-308.19"/>
<polygon fill="midnightblue" stroke="midnightblue" points="520.46,-306.15 512.09,-299.65 514.58,-309.95 520.46,-306.15"/>
</g>
<!-- Node16 -->
<g id="node16" class="node">
<title>Node16</title>
<g id="a_node16"><a xlink:title=" ">
<polygon fill="white" stroke="#bfbfbf" points="569.5,-224.5 569.5,-243.5 619.5,-243.5 619.5,-224.5 569.5,-224.5"/>
<text text-anchor="middle" x="594.5" y="-231.5" font-family="Helvetica,sans-Serif" font-size="10.00">chrono</text>
</a>
</g>
</g>
<!-- Node1&#45;&gt;Node16 -->
<g id="edge21" class="edge">
<title>Node1&#45;&gt;Node16</title>
<path fill="none" stroke="midnightblue" d="M557.32,-336.46C562.03,-325.77 567.81,-312.25 572.5,-300 578.42,-284.53 584.4,-266.68 588.63,-253.61"/>
<polygon fill="midnightblue" stroke="midnightblue" points="592.02,-254.5 591.73,-243.91 585.35,-252.37 592.02,-254.5"/>
</g>
<!-- Node17 -->
<g id="node17" class="node">
<title>Node17</title>
<g id="a_node17"><a xlink:title=" ">
<polygon fill="white" stroke="#bfbfbf" points="619.5,-280.5 619.5,-299.5 671.5,-299.5 671.5,-280.5 619.5,-280.5"/>
<text text-anchor="middle" x="645.5" y="-287.5" font-family="Helvetica,sans-Serif" font-size="10.00">cassert</text>
</a>
</g>
</g>
<!-- Node1&#45;&gt;Node17 -->
<g id="edge20" class="edge">
<title>Node1&#45;&gt;Node17</title>
<path fill="none" stroke="midnightblue" d="M577.6,-336.5C592.48,-326.53 610.26,-314.61 623.9,-305.48"/>
<polygon fill="midnightblue" stroke="midnightblue" points="626.23,-308.13 632.59,-299.65 622.33,-302.31 626.23,-308.13"/>
</g>
<!-- Node18 -->
<g id="node18" class="node">
<title>Node18</title>
<g id="a_node18"><a xlink:title=" ">
<polygon fill="white" stroke="#bfbfbf" points="690,-280.5 690,-299.5 743,-299.5 743,-280.5 690,-280.5"/>
<text text-anchor="middle" x="716.5" y="-287.5" font-family="Helvetica,sans-Serif" font-size="10.00">iterator</text>
</a>
</g>
</g>
<!-- Node1&#45;&gt;Node18 -->
<g id="edge22" class="edge">
<title>Node1&#45;&gt;Node18</title>
<path fill="none" stroke="midnightblue" d="M598.91,-336.5C626.77,-325.72 660.54,-312.65 684.72,-303.29"/>
<polygon fill="midnightblue" stroke="midnightblue" points="686.07,-306.53 694.14,-299.65 683.55,-300 686.07,-306.53"/>
</g>
<!-- Node19 -->
<g id="node19" class="node">
<title>Node19</title>
<g id="a_node19"><a xlink:href="pitches_8hpp.xhtml" target="_top" xlink:title=" ">
<polygon fill="white" stroke="black" points="0,-168.5 0,-187.5 73,-187.5 73,-168.5 0,-168.5"/>
<text text-anchor="middle" x="36.5" y="-175.5" font-family="Helvetica,sans-Serif" font-size="10.00">pitches.hpp</text>
</a>
</g>
</g>
<!-- Node1&#45;&gt;Node19 -->
<g id="edge23" class="edge">
<title>Node1&#45;&gt;Node19</title>
<path fill="none" stroke="midnightblue" d="M481.43,-349.31C408.93,-341.2 290.34,-325.38 190.5,-300 118.7,-281.75 76.19,-304.55 33.5,-244 24.05,-230.6 26.28,-211.49 29.99,-197.46"/>
<polygon fill="midnightblue" stroke="midnightblue" points="33.46,-198.09 33.08,-187.5 26.77,-196.01 33.46,-198.09"/>
</g>
<!-- Node3 -->
<g id="node3" class="node">
<title>Node3</title>
<g id="a_node3"><a xlink:href="IStatusIndicator_8hpp.xhtml" target="_top" xlink:title=" ">
<polygon fill="white" stroke="black" points="43,-224.5 43,-243.5 156,-243.5 156,-224.5 43,-224.5"/>
<text text-anchor="middle" x="99.5" y="-231.5" font-family="Helvetica,sans-Serif" font-size="10.00">IStatusIndicator.hpp</text>
</a>
</g>
</g>
<!-- Node2&#45;&gt;Node3 -->
<g id="edge2" class="edge">
<title>Node2&#45;&gt;Node3</title>
<path fill="none" stroke="midnightblue" d="M219,-280.44C195.42,-271.48 158.18,-257.31 131.54,-247.18"/>
<polygon fill="midnightblue" stroke="midnightblue" points="132.49,-243.8 121.9,-243.52 130,-250.34 132.49,-243.8"/>
</g>
<!-- Node4 -->
<g id="node4" class="node">
<title>Node4</title>
<g id="a_node4"><a xlink:href="Menu_8hpp.xhtml" target="_top" xlink:title=" ">
<polygon fill="white" stroke="black" points="287,-224.5 287,-243.5 352,-243.5 352,-224.5 287,-224.5"/>
<text text-anchor="middle" x="319.5" y="-231.5" font-family="Helvetica,sans-Serif" font-size="10.00">Menu.hpp</text>
</a>
</g>
</g>
<!-- Node2&#45;&gt;Node4 -->
<g id="edge3" class="edge">
<title>Node2&#45;&gt;Node4</title>
<path fill="none" stroke="midnightblue" d="M254.03,-280.32C266.09,-271.98 284.53,-259.21 298.77,-249.35"/>
<polygon fill="midnightblue" stroke="midnightblue" points="300.77,-252.22 307,-243.65 296.78,-246.47 300.77,-252.22"/>
</g>
<!-- Node9 -->
<g id="node9" class="node">
<title>Node9</title>
<g id="a_node9"><a xlink:title=" ">
<polygon fill="white" stroke="#bfbfbf" points="164,-56.5 164,-75.5 211,-75.5 211,-56.5 164,-56.5"/>
<text text-anchor="middle" x="187.5" y="-63.5" font-family="Helvetica,sans-Serif" font-size="10.00">vector</text>
</a>
</g>
</g>
<!-- Node2&#45;&gt;Node9 -->
<g id="edge15" class="edge">
<title>Node2&#45;&gt;Node9</title>
<path fill="none" stroke="midnightblue" d="M232.02,-280.38C223.48,-272 211.41,-258.45 205.5,-244 183.34,-189.78 184.13,-118.76 186.03,-85.58"/>
<polygon fill="midnightblue" stroke="midnightblue" points="189.53,-85.73 186.72,-75.52 182.55,-85.26 189.53,-85.73"/>
</g>
<!-- Node14 -->
<g id="node14" class="node">
<title>Node14</title>
<g id="a_node14"><a xlink:title=" ">
<polygon fill="white" stroke="#bfbfbf" points="215,-224.5 215,-243.5 268,-243.5 268,-224.5 215,-224.5"/>
<text text-anchor="middle" x="241.5" y="-231.5" font-family="Helvetica,sans-Serif" font-size="10.00">cstddef</text>
</a>
</g>
</g>
<!-- Node2&#45;&gt;Node14 -->
<g id="edge14" class="edge">
<title>Node2&#45;&gt;Node14</title>
<path fill="none" stroke="midnightblue" d="M241.5,-280.08C241.5,-273.01 241.5,-262.86 241.5,-253.99"/>
<polygon fill="midnightblue" stroke="midnightblue" points="245,-253.75 241.5,-243.75 238,-253.75 245,-253.75"/>
</g>
<!-- Node5 -->
<g id="node5" class="node">
<title>Node5</title>
<g id="a_node5"><a xlink:href="IDisplay_8hpp.xhtml" target="_top" xlink:title=" ">
<polygon fill="white" stroke="black" points="281.5,-168.5 281.5,-187.5 357.5,-187.5 357.5,-168.5 281.5,-168.5"/>
<text text-anchor="middle" x="319.5" y="-175.5" font-family="Helvetica,sans-Serif" font-size="10.00">IDisplay.hpp</text>
</a>
</g>
</g>
<!-- Node4&#45;&gt;Node5 -->
<g id="edge4" class="edge">
<title>Node4&#45;&gt;Node5</title>
<path fill="none" stroke="midnightblue" d="M319.5,-224.08C319.5,-217.01 319.5,-206.86 319.5,-197.99"/>
<polygon fill="midnightblue" stroke="midnightblue" points="323,-197.75 319.5,-187.75 316,-197.75 323,-197.75"/>
</g>
<!-- Node10 -->
<g id="node10" class="node">
<title>Node10</title>
<g id="a_node10"><a xlink:href="IKeypad_8hpp.xhtml" target="_top" xlink:title=" ">
<polygon fill="white" stroke="black" points="317.5,-112.5 317.5,-131.5 475.5,-131.5 475.5,-112.5 317.5,-112.5"/>
<text text-anchor="middle" x="396.5" y="-119.5" font-family="Helvetica,sans-Serif" font-size="10.00">user_interaction/IKeypad.hpp</text>
</a>
</g>
</g>
<!-- Node4&#45;&gt;Node10 -->
<g id="edge13" class="edge">
<title>Node4&#45;&gt;Node10</title>
<path fill="none" stroke="midnightblue" d="M330.73,-224.33C341.05,-215.92 356.26,-202.35 366.5,-188 376.87,-173.47 385.04,-154.79 390.22,-141.18"/>
<polygon fill="midnightblue" stroke="midnightblue" points="393.6,-142.13 393.72,-131.54 387.02,-139.75 393.6,-142.13"/>
</g>
<!-- Node6 -->
<g id="node6" class="node">
<title>Node6</title>
<g id="a_node6"><a xlink:href="MenuItem_8hpp.xhtml" target="_top" xlink:title=" ">
<polygon fill="white" stroke="black" points="212,-112.5 212,-131.5 299,-131.5 299,-112.5 212,-112.5"/>
<text text-anchor="middle" x="255.5" y="-119.5" font-family="Helvetica,sans-Serif" font-size="10.00">MenuItem.hpp</text>
</a>
</g>
</g>
<!-- Node5&#45;&gt;Node6 -->
<g id="edge5" class="edge">
<title>Node5&#45;&gt;Node6</title>
<path fill="none" stroke="midnightblue" d="M309.22,-168.32C299.66,-160.26 285.22,-148.08 273.72,-138.37"/>
<polygon fill="midnightblue" stroke="midnightblue" points="275.87,-135.61 265.97,-131.83 271.36,-140.96 275.87,-135.61"/>
</g>
<!-- Node5&#45;&gt;Node10 -->
<g id="edge9" class="edge">
<title>Node5&#45;&gt;Node10</title>
<path fill="none" stroke="midnightblue" d="M331.87,-168.32C343.66,-160.06 361.63,-147.45 375.64,-137.63"/>
<polygon fill="midnightblue" stroke="midnightblue" points="377.98,-140.26 384.16,-131.65 373.96,-134.53 377.98,-140.26"/>
</g>
<!-- Node7 -->
<g id="node7" class="node">
<title>Node7</title>
<g id="a_node7"><a xlink:title=" ">
<polygon fill="white" stroke="#bfbfbf" points="83.5,-56.5 83.5,-75.5 133.5,-75.5 133.5,-56.5 83.5,-56.5"/>
<text text-anchor="middle" x="108.5" y="-63.5" font-family="Helvetica,sans-Serif" font-size="10.00">cstdint</text>
</a>
</g>
</g>
<!-- Node6&#45;&gt;Node7 -->
<g id="edge6" class="edge">
<title>Node6&#45;&gt;Node7</title>
<path fill="none" stroke="midnightblue" d="M232.21,-112.44C207.69,-103.44 168.9,-89.19 141.3,-79.05"/>
<polygon fill="midnightblue" stroke="midnightblue" points="142.28,-75.68 131.68,-75.52 139.86,-82.25 142.28,-75.68"/>
</g>
<!-- Node8 -->
<g id="node8" class="node">
<title>Node8</title>
<g id="a_node8"><a xlink:title=" ">
<polygon fill="white" stroke="#bfbfbf" points="233.5,-56.5 233.5,-75.5 277.5,-75.5 277.5,-56.5 233.5,-56.5"/>
<text text-anchor="middle" x="255.5" y="-63.5" font-family="Helvetica,sans-Serif" font-size="10.00">string</text>
</a>
</g>
</g>
<!-- Node6&#45;&gt;Node8 -->
<g id="edge7" class="edge">
<title>Node6&#45;&gt;Node8</title>
<path fill="none" stroke="midnightblue" d="M255.5,-112.08C255.5,-105.01 255.5,-94.86 255.5,-85.99"/>
<polygon fill="midnightblue" stroke="midnightblue" points="259,-85.75 255.5,-75.75 252,-85.75 259,-85.75"/>
</g>
<!-- Node6&#45;&gt;Node9 -->
<g id="edge8" class="edge">
<title>Node6&#45;&gt;Node9</title>
<path fill="none" stroke="midnightblue" d="M244.57,-112.32C234.33,-104.18 218.78,-91.84 206.5,-82.09"/>
<polygon fill="midnightblue" stroke="midnightblue" points="208.63,-79.31 198.62,-75.83 204.28,-84.79 208.63,-79.31"/>
</g>
<!-- Node11 -->
<g id="node11" class="node">
<title>Node11</title>
<g id="a_node11"><a xlink:href="KeyIds_8hpp.xhtml" target="_top" xlink:title=" ">
<polygon fill="white" stroke="black" points="376.5,-56.5 376.5,-75.5 446.5,-75.5 446.5,-56.5 376.5,-56.5"/>
<text text-anchor="middle" x="411.5" y="-63.5" font-family="Helvetica,sans-Serif" font-size="10.00">KeyIds.hpp</text>
</a>
</g>
</g>
<!-- Node10&#45;&gt;Node11 -->
<g id="edge10" class="edge">
<title>Node10&#45;&gt;Node11</title>
<path fill="none" stroke="midnightblue" d="M398.98,-112.08C400.99,-104.85 403.89,-94.41 406.39,-85.4"/>
<polygon fill="midnightblue" stroke="midnightblue" points="409.76,-86.32 409.07,-75.75 403.02,-84.45 409.76,-86.32"/>
</g>
<!-- Node13 -->
<g id="node13" class="node">
<title>Node13</title>
<g id="a_node13"><a xlink:title=" ">
<polygon fill="white" stroke="#bfbfbf" points="494,-56.5 494,-75.5 559,-75.5 559,-56.5 494,-56.5"/>
<text text-anchor="middle" x="526.5" y="-63.5" font-family="Helvetica,sans-Serif" font-size="10.00">functional</text>
</a>
</g>
</g>
<!-- Node10&#45;&gt;Node13 -->
<g id="edge12" class="edge">
<title>Node10&#45;&gt;Node13</title>
<path fill="none" stroke="midnightblue" d="M417.1,-112.44C438.49,-103.56 472.18,-89.56 496.52,-79.45"/>
<polygon fill="midnightblue" stroke="midnightblue" points="498.11,-82.58 506,-75.52 495.42,-76.12 498.11,-82.58"/>
</g>
<!-- Node12 -->
<g id="node12" class="node">
<title>Node12</title>
<g id="a_node12"><a xlink:title=" ">
<polygon fill="white" stroke="#bfbfbf" points="383,-0.5 383,-19.5 440,-19.5 440,-0.5 383,-0.5"/>
<text text-anchor="middle" x="411.5" y="-7.5" font-family="Helvetica,sans-Serif" font-size="10.00">ostream</text>
</a>
</g>
</g>
<!-- Node11&#45;&gt;Node12 -->
<g id="edge11" class="edge">
<title>Node11&#45;&gt;Node12</title>
<path fill="none" stroke="midnightblue" d="M411.5,-56.08C411.5,-49.01 411.5,-38.86 411.5,-29.99"/>
<polygon fill="midnightblue" stroke="midnightblue" points="415,-29.75 411.5,-19.75 408,-29.75 415,-29.75"/>
</g>
<!-- Node15&#45;&gt;Node11 -->
<g id="edge17" class="edge">
<title>Node15&#45;&gt;Node11</title>
<path fill="none" stroke="midnightblue" d="M507.86,-280.39C511.71,-253.17 520.15,-167.49 484.5,-112 475.26,-97.61 459.62,-87.08 445.18,-79.84"/>
<polygon fill="midnightblue" stroke="midnightblue" points="446.49,-76.58 435.94,-75.54 443.54,-82.93 446.49,-76.58"/>
</g>
<!-- Node15&#45;&gt;Node13 -->
<g id="edge19" class="edge">
<title>Node15&#45;&gt;Node13</title>
<path fill="none" stroke="midnightblue" d="M509.1,-280.47C511.71,-271.49 515.61,-256.89 517.5,-244 525.87,-186.79 526.8,-118.19 526.7,-85.76"/>
<polygon fill="midnightblue" stroke="midnightblue" points="530.2,-85.51 526.63,-75.53 523.2,-85.55 530.2,-85.51"/>
</g>
<!-- Node15&#45;&gt;Node16 -->
<g id="edge18" class="edge">
<title>Node15&#45;&gt;Node16</title>
<path fill="none" stroke="midnightblue" d="M520.64,-280.32C534.37,-271.9 555.44,-258.97 571.56,-249.07"/>
<polygon fill="midnightblue" stroke="midnightblue" points="573.7,-251.87 580.4,-243.65 570.04,-245.9 573.7,-251.87"/>
</g>
<!-- Node19&#45;&gt;Node7 -->
<g id="edge24" class="edge">
<title>Node19&#45;&gt;Node7</title>
<path fill="none" stroke="midnightblue" d="M42.15,-168.37C54.03,-150.22 81.79,-107.8 97.38,-83.99"/>
<polygon fill="midnightblue" stroke="midnightblue" points="100.33,-85.88 102.88,-75.59 94.47,-82.04 100.33,-85.88"/>
</g>
</g>
</svg>
