<?xml version="1.0" encoding="UTF-8" standalone="no"?>
<!DOCTYPE svg PUBLIC "-//W3C//DTD SVG 1.1//EN"
 "http://www.w3.org/Graphics/SVG/1.1/DTD/svg11.dtd">
<!-- Generated by graphviz version 2.43.0 (0)
 -->
<!-- Title: lib/application_business_rules/user_interaction/Presenter.hpp Pages: 1 -->
<svg width="390pt" height="330pt"
 viewBox="0.00 0.00 389.50 330.00" xmlns="http://www.w3.org/2000/svg" xmlns:xlink="http://www.w3.org/1999/xlink">
<g id="graph0" class="graph" transform="scale(1 1) rotate(0) translate(4 326)">
<title>lib/application_business_rules/user_interaction/Presenter.hpp</title>
<polygon fill="white" stroke="transparent" points="-4,4 -4,-326 385.5,-326 385.5,4 -4,4"/>
<!-- Node1 -->
<g id="node1" class="node">
<title>Node1</title>
<g id="a_node1"><a xlink:title=" ">
<polygon fill="#bfbfbf" stroke="black" points="202,-280.5 202,-321.5 336,-321.5 336,-280.5 202,-280.5"/>
<text text-anchor="start" x="210" y="-309.5" font-family="Helvetica,sans-Serif" font-size="10.00">lib/application_business</text>
<text text-anchor="start" x="210" y="-298.5" font-family="Helvetica,sans-Serif" font-size="10.00">_rules/user_interaction</text>
<text text-anchor="middle" x="269" y="-287.5" font-family="Helvetica,sans-Serif" font-size="10.00">/Presenter.hpp</text>
</a>
</g>
</g>
<!-- Node2 -->
<g id="node2" class="node">
<title>Node2</title>
<g id="a_node2"><a xlink:href="IStatusIndicator_8hpp.xhtml" target="_top" xlink:title=" ">
<polygon fill="white" stroke="black" points="69.5,-224.5 69.5,-243.5 182.5,-243.5 182.5,-224.5 69.5,-224.5"/>
<text text-anchor="middle" x="126" y="-231.5" font-family="Helvetica,sans-Serif" font-size="10.00">IStatusIndicator.hpp</text>
</a>
</g>
</g>
<!-- Node1&#45;&gt;Node2 -->
<g id="edge1" class="edge">
<title>Node1&#45;&gt;Node2</title>
<path fill="none" stroke="midnightblue" d="M226.1,-280.5C202.8,-269.91 174.66,-257.12 154.15,-247.8"/>
<polygon fill="midnightblue" stroke="midnightblue" points="155.59,-244.6 145.04,-243.65 152.69,-250.98 155.59,-244.6"/>
</g>
<!-- Node3 -->
<g id="node3" class="node">
<title>Node3</title>
<g id="a_node3"><a xlink:href="Menu_8hpp.xhtml" target="_top" xlink:title=" ">
<polygon fill="white" stroke="black" points="200.5,-224.5 200.5,-243.5 265.5,-243.5 265.5,-224.5 200.5,-224.5"/>
<text text-anchor="middle" x="233" y="-231.5" font-family="Helvetica,sans-Serif" font-size="10.00">Menu.hpp</text>
</a>
</g>
</g>
<!-- Node1&#45;&gt;Node3 -->
<g id="edge2" class="edge">
<title>Node1&#45;&gt;Node3</title>
<path fill="none" stroke="midnightblue" d="M258.2,-280.5C253.26,-271.59 247.46,-261.11 242.67,-252.46"/>
<polygon fill="midnightblue" stroke="midnightblue" points="245.7,-250.7 237.79,-243.65 239.58,-254.1 245.7,-250.7"/>
</g>
<!-- Node7 -->
<g id="node7" class="node">
<title>Node7</title>
<g id="a_node7"><a xlink:title=" ">
<polygon fill="white" stroke="#bfbfbf" points="272.5,-56.5 272.5,-75.5 319.5,-75.5 319.5,-56.5 272.5,-56.5"/>
<text text-anchor="middle" x="296" y="-63.5" font-family="Helvetica,sans-Serif" font-size="10.00">vector</text>
</a>
</g>
</g>
<!-- Node1&#45;&gt;Node7 -->
<g id="edge13" class="edge">
<title>Node1&#45;&gt;Node7</title>
<path fill="none" stroke="midnightblue" d="M271.3,-280.13C276.45,-235.68 288.85,-128.73 293.85,-85.54"/>
<polygon fill="midnightblue" stroke="midnightblue" points="297.33,-85.92 295.01,-75.59 290.38,-85.12 297.33,-85.92"/>
</g>
<!-- Node12 -->
<g id="node12" class="node">
<title>Node12</title>
<g id="a_node12"><a xlink:title=" ">
<polygon fill="white" stroke="#bfbfbf" points="328.5,-224.5 328.5,-243.5 381.5,-243.5 381.5,-224.5 328.5,-224.5"/>
<text text-anchor="middle" x="355" y="-231.5" font-family="Helvetica,sans-Serif" font-size="10.00">cstddef</text>
</a>
</g>
</g>
<!-- Node1&#45;&gt;Node12 -->
<g id="edge12" class="edge">
<title>Node1&#45;&gt;Node12</title>
<path fill="none" stroke="midnightblue" d="M294.8,-280.5C307.86,-270.63 323.45,-258.84 335.5,-249.74"/>
<polygon fill="midnightblue" stroke="midnightblue" points="337.68,-252.47 343.55,-243.65 333.46,-246.89 337.68,-252.47"/>
</g>
<!-- Node4 -->
<g id="node4" class="node">
<title>Node4</title>
<g id="a_node4"><a xlink:href="IDisplay_8hpp.xhtml" target="_top" xlink:title=" ">
<polygon fill="white" stroke="black" points="190,-168.5 190,-187.5 266,-187.5 266,-168.5 190,-168.5"/>
<text text-anchor="middle" x="228" y="-175.5" font-family="Helvetica,sans-Serif" font-size="10.00">IDisplay.hpp</text>
</a>
</g>
</g>
<!-- Node3&#45;&gt;Node4 -->
<g id="edge3" class="edge">
<title>Node3&#45;&gt;Node4</title>
<path fill="none" stroke="midnightblue" d="M232.17,-224.08C231.52,-217.01 230.58,-206.86 229.76,-197.99"/>
<polygon fill="midnightblue" stroke="midnightblue" points="233.22,-197.39 228.81,-187.75 226.25,-198.03 233.22,-197.39"/>
</g>
<!-- Node8 -->
<g id="node8" class="node">
<title>Node8</title>
<g id="a_node8"><a xlink:href="IKeypad_8hpp.xhtml" target="_top" xlink:title=" ">
<polygon fill="white" stroke="black" points="8,-112.5 8,-131.5 166,-131.5 166,-112.5 8,-112.5"/>
<text text-anchor="middle" x="87" y="-119.5" font-family="Helvetica,sans-Serif" font-size="10.00">user_interaction/IKeypad.hpp</text>
</a>
</g>
</g>
<!-- Node3&#45;&gt;Node8 -->
<g id="edge11" class="edge">
<title>Node3&#45;&gt;Node8</title>
<path fill="none" stroke="midnightblue" d="M221.54,-224.37C196.7,-205.65 137.64,-161.15 106.69,-137.83"/>
<polygon fill="midnightblue" stroke="midnightblue" points="108.5,-134.81 98.4,-131.59 104.28,-140.4 108.5,-134.81"/>
</g>
<!-- Node5 -->
<g id="node5" class="node">
<title>Node5</title>
<g id="a_node5"><a xlink:href="MenuItem_8hpp.xhtml" target="_top" xlink:title=" ">
<polygon fill="white" stroke="black" points="184.5,-112.5 184.5,-131.5 271.5,-131.5 271.5,-112.5 184.5,-112.5"/>
<text text-anchor="middle" x="228" y="-119.5" font-family="Helvetica,sans-Serif" font-size="10.00">MenuItem.hpp</text>
</a>
</g>
</g>
<!-- Node4&#45;&gt;Node5 -->
<g id="edge4" class="edge">
<title>Node4&#45;&gt;Node5</title>
<path fill="none" stroke="midnightblue" d="M228,-168.08C228,-161.01 228,-150.86 228,-141.99"/>
<polygon fill="midnightblue" stroke="midnightblue" points="231.5,-141.75 228,-131.75 224.5,-141.75 231.5,-141.75"/>
</g>
<!-- Node4&#45;&gt;Node8 -->
<g id="edge7" class="edge">
<title>Node4&#45;&gt;Node8</title>
<path fill="none" stroke="midnightblue" d="M205.66,-168.44C182.25,-159.48 145.26,-145.31 118.81,-135.18"/>
<polygon fill="midnightblue" stroke="midnightblue" points="119.83,-131.82 109.24,-131.52 117.32,-138.36 119.83,-131.82"/>
</g>
<!-- Node6 -->
<g id="node6" class="node">
<title>Node6</title>
<g id="a_node6"><a xlink:title=" ">
<polygon fill="white" stroke="#bfbfbf" points="206,-56.5 206,-75.5 250,-75.5 250,-56.5 206,-56.5"/>
<text text-anchor="middle" x="228" y="-63.5" font-family="Helvetica,sans-Serif" font-size="10.00">string</text>
</a>
</g>
</g>
<!-- Node5&#45;&gt;Node6 -->
<g id="edge5" class="edge">
<title>Node5&#45;&gt;Node6</title>
<path fill="none" stroke="midnightblue" d="M228,-112.08C228,-105.01 228,-94.86 228,-85.99"/>
<polygon fill="midnightblue" stroke="midnightblue" points="231.5,-85.75 228,-75.75 224.5,-85.75 231.5,-85.75"/>
</g>
<!-- Node5&#45;&gt;Node7 -->
<g id="edge6" class="edge">
<title>Node5&#45;&gt;Node7</title>
<path fill="none" stroke="midnightblue" d="M238.93,-112.32C249.17,-104.18 264.72,-91.84 277,-82.09"/>
<polygon fill="midnightblue" stroke="midnightblue" points="279.22,-84.79 284.88,-75.83 274.87,-79.31 279.22,-84.79"/>
</g>
<!-- Node9 -->
<g id="node9" class="node">
<title>Node9</title>
<g id="a_node9"><a xlink:href="KeyIds_8hpp.xhtml" target="_top" xlink:title=" ">
<polygon fill="white" stroke="black" points="0,-56.5 0,-75.5 70,-75.5 70,-56.5 0,-56.5"/>
<text text-anchor="middle" x="35" y="-63.5" font-family="Helvetica,sans-Serif" font-size="10.00">KeyIds.hpp</text>
</a>
</g>
</g>
<!-- Node8&#45;&gt;Node9 -->
<g id="edge8" class="edge">
<title>Node8&#45;&gt;Node9</title>
<path fill="none" stroke="midnightblue" d="M78.41,-112.08C70.84,-104.22 59.62,-92.57 50.49,-83.08"/>
<polygon fill="midnightblue" stroke="midnightblue" points="52.88,-80.53 43.43,-75.75 47.84,-85.38 52.88,-80.53"/>
</g>
<!-- Node11 -->
<g id="node11" class="node">
<title>Node11</title>
<g id="a_node11"><a xlink:title=" ">
<polygon fill="white" stroke="#bfbfbf" points="88.5,-56.5 88.5,-75.5 153.5,-75.5 153.5,-56.5 88.5,-56.5"/>
<text text-anchor="middle" x="121" y="-63.5" font-family="Helvetica,sans-Serif" font-size="10.00">functional</text>
</a>
</g>
</g>
<!-- Node8&#45;&gt;Node11 -->
<g id="edge10" class="edge">
<title>Node8&#45;&gt;Node11</title>
<path fill="none" stroke="midnightblue" d="M92.61,-112.08C97.37,-104.53 104.32,-93.49 110.15,-84.23"/>
<polygon fill="midnightblue" stroke="midnightblue" points="113.12,-86.08 115.49,-75.75 107.2,-82.35 113.12,-86.08"/>
</g>
<!-- Node10 -->
<g id="node10" class="node">
<title>Node10</title>
<g id="a_node10"><a xlink:title=" ">
<polygon fill="white" stroke="#bfbfbf" points="6.5,-0.5 6.5,-19.5 63.5,-19.5 63.5,-0.5 6.5,-0.5"/>
<text text-anchor="middle" x="35" y="-7.5" font-family="Helvetica,sans-Serif" font-size="10.00">ostream</text>
</a>
</g>
</g>
<!-- Node9&#45;&gt;Node10 -->
<g id="edge9" class="edge">
<title>Node9&#45;&gt;Node10</title>
<path fill="none" stroke="midnightblue" d="M35,-56.08C35,-49.01 35,-38.86 35,-29.99"/>
<polygon fill="midnightblue" stroke="midnightblue" points="38.5,-29.75 35,-19.75 31.5,-29.75 38.5,-29.75"/>
</g>
</g>
</svg>
