<?xml version="1.0" encoding="UTF-8" standalone="no"?>
<!DOCTYPE svg PUBLIC "-//W3C//DTD SVG 1.1//EN"
 "http://www.w3.org/Graphics/SVG/1.1/DTD/svg11.dtd">
<!-- Generated by graphviz version 2.43.0 (0)
 -->
<!-- Title: lib/application_business_rules/user_interaction/ProcessHmiInputs.cpp Pages: 1 -->
<svg width="858pt" height="397pt"
 viewBox="0.00 0.00 857.50 397.00" xmlns="http://www.w3.org/2000/svg" xmlns:xlink="http://www.w3.org/1999/xlink">
<g id="graph0" class="graph" transform="scale(1 1) rotate(0) translate(4 393)">
<title>lib/application_business_rules/user_interaction/ProcessHmiInputs.cpp</title>
<polygon fill="white" stroke="transparent" points="-4,4 -4,-393 853.5,-393 853.5,4 -4,4"/>
<!-- Node1 -->
<g id="node1" class="node">
<title>Node1</title>
<g id="a_node1"><a xlink:title=" ">
<polygon fill="#bfbfbf" stroke="black" points="323,-347.5 323,-388.5 457,-388.5 457,-347.5 323,-347.5"/>
<text text-anchor="start" x="331" y="-376.5" font-family="Helvetica,sans-Serif" font-size="10.00">lib/application_business</text>
<text text-anchor="start" x="331" y="-365.5" font-family="Helvetica,sans-Serif" font-size="10.00">_rules/user_interaction</text>
<text text-anchor="middle" x="390" y="-354.5" font-family="Helvetica,sans-Serif" font-size="10.00">/ProcessHmiInputs.cpp</text>
</a>
</g>
</g>
<!-- Node2 -->
<g id="node2" class="node">
<title>Node2</title>
<g id="a_node2"><a xlink:href="ProcessHmiInputs_8hpp.xhtml" target="_top" xlink:title=" ">
<polygon fill="white" stroke="black" points="198.5,-179.5 198.5,-198.5 323.5,-198.5 323.5,-179.5 198.5,-179.5"/>
<text text-anchor="middle" x="261" y="-186.5" font-family="Helvetica,sans-Serif" font-size="10.00">ProcessHmiInputs.hpp</text>
</a>
</g>
</g>
<!-- Node1&#45;&gt;Node2 -->
<g id="edge1" class="edge">
<title>Node1&#45;&gt;Node2</title>
<path fill="none" stroke="midnightblue" d="M370.05,-347.31C359.97,-336.91 347.81,-323.71 338,-311 311.1,-276.17 284.64,-231.75 270.84,-207.59"/>
<polygon fill="midnightblue" stroke="midnightblue" points="273.7,-205.55 265.73,-198.57 267.61,-208.99 273.7,-205.55"/>
</g>
<!-- Node5 -->
<g id="node5" class="node">
<title>Node5</title>
<g id="a_node5"><a xlink:href="IKeypad_8hpp.xhtml" target="_top" xlink:title=" ">
<polygon fill="white" stroke="black" points="370.5,-118 370.5,-137 447.5,-137 447.5,-118 370.5,-118"/>
<text text-anchor="middle" x="409" y="-125" font-family="Helvetica,sans-Serif" font-size="10.00">IKeypad.hpp</text>
</a>
</g>
</g>
<!-- Node1&#45;&gt;Node5 -->
<g id="edge4" class="edge">
<title>Node1&#45;&gt;Node5</title>
<path fill="none" stroke="midnightblue" d="M391.55,-347.48C395.14,-302.45 403.96,-191.76 407.5,-147.37"/>
<polygon fill="midnightblue" stroke="midnightblue" points="410.99,-147.62 408.29,-137.37 404.01,-147.06 410.99,-147.62"/>
</g>
<!-- Node6 -->
<g id="node6" class="node">
<title>Node6</title>
<g id="a_node6"><a xlink:title=" ">
<polygon fill="white" stroke="#bfbfbf" points="174.5,-56.5 174.5,-75.5 239.5,-75.5 239.5,-56.5 174.5,-56.5"/>
<text text-anchor="middle" x="207" y="-63.5" font-family="Helvetica,sans-Serif" font-size="10.00">functional</text>
</a>
</g>
</g>
<!-- Node1&#45;&gt;Node6 -->
<g id="edge23" class="edge">
<title>Node1&#45;&gt;Node6</title>
<path fill="none" stroke="midnightblue" d="M349.47,-347.31C300.84,-321.12 221.77,-269.78 189,-199 171.49,-161.18 187.55,-111.21 198.59,-84.93"/>
<polygon fill="midnightblue" stroke="midnightblue" points="201.91,-86.07 202.77,-75.51 195.52,-83.23 201.91,-86.07"/>
</g>
<!-- Node7 -->
<g id="node7" class="node">
<title>Node7</title>
<g id="a_node7"><a xlink:href="Presenter_8hpp.xhtml" target="_top" xlink:title=" ">
<polygon fill="white" stroke="black" points="499.5,-291.5 499.5,-310.5 582.5,-310.5 582.5,-291.5 499.5,-291.5"/>
<text text-anchor="middle" x="541" y="-298.5" font-family="Helvetica,sans-Serif" font-size="10.00">Presenter.hpp</text>
</a>
</g>
</g>
<!-- Node1&#45;&gt;Node7 -->
<g id="edge7" class="edge">
<title>Node1&#45;&gt;Node7</title>
<path fill="none" stroke="midnightblue" d="M435.3,-347.5C460.01,-336.86 489.89,-324 511.57,-314.67"/>
<polygon fill="midnightblue" stroke="midnightblue" points="513.1,-317.82 520.9,-310.65 510.33,-311.39 513.1,-317.82"/>
</g>
<!-- Node16 -->
<g id="node16" class="node">
<title>Node16</title>
<g id="a_node16"><a xlink:href="board__interface_8hpp.xhtml" target="_top" xlink:title=" ">
<polygon fill="white" stroke="black" points="238,-118 238,-137 352,-137 352,-118 238,-118"/>
<text text-anchor="middle" x="295" y="-125" font-family="Helvetica,sans-Serif" font-size="10.00">board_interface.hpp</text>
</a>
</g>
</g>
<!-- Node1&#45;&gt;Node16 -->
<g id="edge19" class="edge">
<title>Node1&#45;&gt;Node16</title>
<path fill="none" stroke="midnightblue" d="M386.18,-347.24C378.88,-312.06 361.07,-236.83 332,-179 325.87,-166.81 316.85,-154.43 309.25,-144.97"/>
<polygon fill="midnightblue" stroke="midnightblue" points="311.88,-142.66 302.8,-137.21 306.5,-147.14 311.88,-142.66"/>
</g>
<!-- Node18 -->
<g id="node18" class="node">
<title>Node18</title>
<g id="a_node18"><a xlink:href="serial__port_8hpp.xhtml" target="_top" xlink:title=" ">
<polygon fill="white" stroke="black" points="22,-112.5 22,-142.5 144,-142.5 144,-112.5 22,-112.5"/>
<text text-anchor="start" x="30" y="-130.5" font-family="Helvetica,sans-Serif" font-size="10.00">serial_interface/serial</text>
<text text-anchor="middle" x="83" y="-119.5" font-family="Helvetica,sans-Serif" font-size="10.00">_port.hpp</text>
</a>
</g>
</g>
<!-- Node1&#45;&gt;Node18 -->
<g id="edge24" class="edge">
<title>Node1&#45;&gt;Node18</title>
<path fill="none" stroke="midnightblue" d="M322.93,-357.93C262.94,-348.59 180.77,-332.4 156,-311 107.97,-269.5 91.2,-191.96 85.62,-152.66"/>
<polygon fill="midnightblue" stroke="midnightblue" points="89.08,-152.12 84.32,-142.65 82.13,-153.02 89.08,-152.12"/>
</g>
<!-- Node21 -->
<g id="node21" class="node">
<title>Node21</title>
<g id="a_node21"><a xlink:title=" ">
<polygon fill="white" stroke="#bfbfbf" points="600.5,-291.5 600.5,-310.5 665.5,-310.5 665.5,-291.5 600.5,-291.5"/>
<text text-anchor="middle" x="633" y="-298.5" font-family="Helvetica,sans-Serif" font-size="10.00">stdexcept</text>
</a>
</g>
</g>
<!-- Node1&#45;&gt;Node21 -->
<g id="edge30" class="edge">
<title>Node1&#45;&gt;Node21</title>
<path fill="none" stroke="midnightblue" d="M457.04,-349.07C499.93,-337.59 554.24,-323.07 591.09,-313.21"/>
<polygon fill="midnightblue" stroke="midnightblue" points="592.24,-316.52 601,-310.56 590.43,-309.76 592.24,-316.52"/>
</g>
<!-- Node22 -->
<g id="node22" class="node">
<title>Node22</title>
<g id="a_node22"><a xlink:href="Task_8hpp.xhtml" target="_top" xlink:title=" ">
<polygon fill="white" stroke="black" points="465.5,-118 465.5,-137 554.5,-137 554.5,-118 465.5,-118"/>
<text text-anchor="middle" x="510" y="-125" font-family="Helvetica,sans-Serif" font-size="10.00">tasks/Task.hpp</text>
</a>
</g>
</g>
<!-- Node1&#45;&gt;Node22 -->
<g id="edge31" class="edge">
<title>Node1&#45;&gt;Node22</title>
<path fill="none" stroke="midnightblue" d="M397.78,-347.44C408.33,-321.39 428.14,-274.04 448,-235 464.41,-202.73 486.22,-166.6 499.11,-145.8"/>
<polygon fill="midnightblue" stroke="midnightblue" points="502.19,-147.49 504.51,-137.15 496.25,-143.78 502.19,-147.49"/>
</g>
<!-- Node24 -->
<g id="node24" class="node">
<title>Node24</title>
<g id="a_node24"><a xlink:href="type__traits_8hpp.xhtml" target="_top" xlink:title=" ">
<polygon fill="white" stroke="black" points="741,-291.5 741,-310.5 831,-310.5 831,-291.5 741,-291.5"/>
<text text-anchor="middle" x="786" y="-298.5" font-family="Helvetica,sans-Serif" font-size="10.00">type_traits.hpp</text>
</a>
</g>
</g>
<!-- Node1&#45;&gt;Node24 -->
<g id="edge35" class="edge">
<title>Node1&#45;&gt;Node24</title>
<path fill="none" stroke="midnightblue" d="M457.18,-355.97C534.15,-343.34 658.88,-322.87 730.56,-311.1"/>
<polygon fill="midnightblue" stroke="midnightblue" points="731.44,-314.5 740.74,-309.43 730.3,-307.6 731.44,-314.5"/>
</g>
<!-- Node3 -->
<g id="node3" class="node">
<title>Node3</title>
<g id="a_node3"><a xlink:href="KeyIds_8hpp.xhtml" target="_top" xlink:title=" ">
<polygon fill="white" stroke="black" points="259,-56.5 259,-75.5 329,-75.5 329,-56.5 259,-56.5"/>
<text text-anchor="middle" x="294" y="-63.5" font-family="Helvetica,sans-Serif" font-size="10.00">KeyIds.hpp</text>
</a>
</g>
</g>
<!-- Node2&#45;&gt;Node3 -->
<g id="edge2" class="edge">
<title>Node2&#45;&gt;Node3</title>
<path fill="none" stroke="midnightblue" d="M252.36,-179.35C239.13,-165.02 216.64,-135.59 229,-112 236.28,-98.11 250.01,-87.65 262.98,-80.33"/>
<polygon fill="midnightblue" stroke="midnightblue" points="264.93,-83.27 272.19,-75.55 261.7,-77.05 264.93,-83.27"/>
</g>
<!-- Node4 -->
<g id="node4" class="node">
<title>Node4</title>
<g id="a_node4"><a xlink:title=" ">
<polygon fill="white" stroke="#bfbfbf" points="160.5,-0.5 160.5,-19.5 217.5,-19.5 217.5,-0.5 160.5,-0.5"/>
<text text-anchor="middle" x="189" y="-7.5" font-family="Helvetica,sans-Serif" font-size="10.00">ostream</text>
</a>
</g>
</g>
<!-- Node3&#45;&gt;Node4 -->
<g id="edge3" class="edge">
<title>Node3&#45;&gt;Node4</title>
<path fill="none" stroke="midnightblue" d="M277.13,-56.32C260.29,-47.66 234.19,-34.24 214.76,-24.25"/>
<polygon fill="midnightblue" stroke="midnightblue" points="216.32,-21.12 205.83,-19.65 213.12,-27.34 216.32,-21.12"/>
</g>
<!-- Node5&#45;&gt;Node3 -->
<g id="edge5" class="edge">
<title>Node5&#45;&gt;Node3</title>
<path fill="none" stroke="midnightblue" d="M392.52,-117.98C373.39,-108.08 341.63,-91.64 319.35,-80.12"/>
<polygon fill="midnightblue" stroke="midnightblue" points="320.94,-77 310.45,-75.51 317.72,-83.21 320.94,-77"/>
</g>
<!-- Node5&#45;&gt;Node6 -->
<g id="edge6" class="edge">
<title>Node5&#45;&gt;Node6</title>
<path fill="none" stroke="midnightblue" d="M380.84,-117.95C374.33,-115.98 367.43,-113.91 361,-112 321.97,-100.4 277.3,-87.38 246.16,-78.34"/>
<polygon fill="midnightblue" stroke="midnightblue" points="247.13,-74.97 236.55,-75.55 245.17,-81.7 247.13,-74.97"/>
</g>
<!-- Node8 -->
<g id="node8" class="node">
<title>Node8</title>
<g id="a_node8"><a xlink:href="IStatusIndicator_8hpp.xhtml" target="_top" xlink:title=" ">
<polygon fill="white" stroke="black" points="456.5,-235.5 456.5,-254.5 569.5,-254.5 569.5,-235.5 456.5,-235.5"/>
<text text-anchor="middle" x="513" y="-242.5" font-family="Helvetica,sans-Serif" font-size="10.00">IStatusIndicator.hpp</text>
</a>
</g>
</g>
<!-- Node7&#45;&gt;Node8 -->
<g id="edge8" class="edge">
<title>Node7&#45;&gt;Node8</title>
<path fill="none" stroke="midnightblue" d="M536.38,-291.08C532.54,-283.69 526.98,-272.95 522.24,-263.81"/>
<polygon fill="midnightblue" stroke="midnightblue" points="525.25,-262.02 517.54,-254.75 519.03,-265.24 525.25,-262.02"/>
</g>
<!-- Node9 -->
<g id="node9" class="node">
<title>Node9</title>
<g id="a_node9"><a xlink:href="Menu_8hpp.xhtml" target="_top" xlink:title=" ">
<polygon fill="white" stroke="black" points="587.5,-235.5 587.5,-254.5 652.5,-254.5 652.5,-235.5 587.5,-235.5"/>
<text text-anchor="middle" x="620" y="-242.5" font-family="Helvetica,sans-Serif" font-size="10.00">Menu.hpp</text>
</a>
</g>
</g>
<!-- Node7&#45;&gt;Node9 -->
<g id="edge9" class="edge">
<title>Node7&#45;&gt;Node9</title>
<path fill="none" stroke="midnightblue" d="M553.69,-291.32C565.9,-282.98 584.58,-270.21 599,-260.35"/>
<polygon fill="midnightblue" stroke="midnightblue" points="601.06,-263.19 607.34,-254.65 597.11,-257.41 601.06,-263.19"/>
</g>
<!-- Node14 -->
<g id="node14" class="node">
<title>Node14</title>
<g id="a_node14"><a xlink:title=" ">
<polygon fill="white" stroke="#bfbfbf" points="694.5,-56.5 694.5,-75.5 741.5,-75.5 741.5,-56.5 694.5,-56.5"/>
<text text-anchor="middle" x="718" y="-63.5" font-family="Helvetica,sans-Serif" font-size="10.00">vector</text>
</a>
</g>
</g>
<!-- Node7&#45;&gt;Node14 -->
<g id="edge18" class="edge">
<title>Node7&#45;&gt;Node14</title>
<path fill="none" stroke="midnightblue" d="M582.76,-291.58C637.8,-280.28 728.28,-260.95 733,-255 772.8,-204.79 742.99,-121.49 726.73,-85.03"/>
<polygon fill="midnightblue" stroke="midnightblue" points="729.78,-83.28 722.4,-75.68 723.43,-86.22 729.78,-83.28"/>
</g>
<!-- Node15 -->
<g id="node15" class="node">
<title>Node15</title>
<g id="a_node15"><a xlink:title=" ">
<polygon fill="white" stroke="#bfbfbf" points="670.5,-235.5 670.5,-254.5 723.5,-254.5 723.5,-235.5 670.5,-235.5"/>
<text text-anchor="middle" x="697" y="-242.5" font-family="Helvetica,sans-Serif" font-size="10.00">cstddef</text>
</a>
</g>
</g>
<!-- Node7&#45;&gt;Node15 -->
<g id="edge17" class="edge">
<title>Node7&#45;&gt;Node15</title>
<path fill="none" stroke="midnightblue" d="M565.72,-291.44C591.85,-282.4 633.26,-268.06 662.58,-257.92"/>
<polygon fill="midnightblue" stroke="midnightblue" points="664.09,-261.1 672.4,-254.52 661.8,-254.48 664.09,-261.1"/>
</g>
<!-- Node9&#45;&gt;Node5 -->
<g id="edge16" class="edge">
<title>Node9&#45;&gt;Node5</title>
<path fill="none" stroke="midnightblue" d="M604.14,-235.32C567.62,-215.33 477.38,-165.93 433.6,-141.97"/>
<polygon fill="midnightblue" stroke="midnightblue" points="435.21,-138.86 424.76,-137.12 431.85,-145 435.21,-138.86"/>
</g>
<!-- Node10 -->
<g id="node10" class="node">
<title>Node10</title>
<g id="a_node10"><a xlink:href="IGuiEngine_8hpp.xhtml" target="_top" xlink:title=" ">
<polygon fill="white" stroke="black" points="574,-179.5 574,-198.5 664,-198.5 664,-179.5 574,-179.5"/>
<text text-anchor="middle" x="619" y="-186.5" font-family="Helvetica,sans-Serif" font-size="10.00">IGuiEngine.hpp</text>
</a>
</g>
</g>
<!-- Node9&#45;&gt;Node10 -->
<g id="edge10" class="edge">
<title>Node9&#45;&gt;Node10</title>
<path fill="none" stroke="midnightblue" d="M619.83,-235.08C619.7,-228.01 619.52,-217.86 619.35,-208.99"/>
<polygon fill="midnightblue" stroke="midnightblue" points="622.85,-208.68 619.16,-198.75 615.85,-208.81 622.85,-208.68"/>
</g>
<!-- Node10&#45;&gt;Node5 -->
<g id="edge15" class="edge">
<title>Node10&#45;&gt;Node5</title>
<path fill="none" stroke="midnightblue" d="M587.58,-179.5C554.9,-170.6 502.28,-156.13 457,-143 453.64,-142.03 450.15,-141 446.65,-139.96"/>
<polygon fill="midnightblue" stroke="midnightblue" points="447.47,-136.55 436.89,-137.04 445.47,-143.26 447.47,-136.55"/>
</g>
<!-- Node11 -->
<g id="node11" class="node">
<title>Node11</title>
<g id="a_node11"><a xlink:href="MenuItem_8hpp.xhtml" target="_top" xlink:title=" ">
<polygon fill="white" stroke="black" points="575.5,-118 575.5,-137 662.5,-137 662.5,-118 575.5,-118"/>
<text text-anchor="middle" x="619" y="-125" font-family="Helvetica,sans-Serif" font-size="10.00">MenuItem.hpp</text>
</a>
</g>
</g>
<!-- Node10&#45;&gt;Node11 -->
<g id="edge11" class="edge">
<title>Node10&#45;&gt;Node11</title>
<path fill="none" stroke="midnightblue" d="M619,-179.48C619,-171.08 619,-157.98 619,-147.16"/>
<polygon fill="midnightblue" stroke="midnightblue" points="622.5,-147.01 619,-137.01 615.5,-147.01 622.5,-147.01"/>
</g>
<!-- Node12 -->
<g id="node12" class="node">
<title>Node12</title>
<g id="a_node12"><a xlink:title=" ">
<polygon fill="white" stroke="#bfbfbf" points="594,-56.5 594,-75.5 644,-75.5 644,-56.5 594,-56.5"/>
<text text-anchor="middle" x="619" y="-63.5" font-family="Helvetica,sans-Serif" font-size="10.00">cstdint</text>
</a>
</g>
</g>
<!-- Node11&#45;&gt;Node12 -->
<g id="edge12" class="edge">
<title>Node11&#45;&gt;Node12</title>
<path fill="none" stroke="midnightblue" d="M619,-117.98C619,-109.58 619,-96.48 619,-85.66"/>
<polygon fill="midnightblue" stroke="midnightblue" points="622.5,-85.51 619,-75.51 615.5,-85.51 622.5,-85.51"/>
</g>
<!-- Node13 -->
<g id="node13" class="node">
<title>Node13</title>
<g id="a_node13"><a xlink:title=" ">
<polygon fill="white" stroke="#bfbfbf" points="462,-56.5 462,-75.5 506,-75.5 506,-56.5 462,-56.5"/>
<text text-anchor="middle" x="484" y="-63.5" font-family="Helvetica,sans-Serif" font-size="10.00">string</text>
</a>
</g>
</g>
<!-- Node11&#45;&gt;Node13 -->
<g id="edge13" class="edge">
<title>Node11&#45;&gt;Node13</title>
<path fill="none" stroke="midnightblue" d="M599.66,-117.98C576.9,-107.95 538.91,-91.2 512.71,-79.65"/>
<polygon fill="midnightblue" stroke="midnightblue" points="513.87,-76.34 503.31,-75.51 511.05,-82.74 513.87,-76.34"/>
</g>
<!-- Node11&#45;&gt;Node14 -->
<g id="edge14" class="edge">
<title>Node11&#45;&gt;Node14</title>
<path fill="none" stroke="midnightblue" d="M633.18,-117.98C649.36,-108.25 676.03,-92.23 695.14,-80.74"/>
<polygon fill="midnightblue" stroke="midnightblue" points="697.07,-83.66 703.84,-75.51 693.47,-77.66 697.07,-83.66"/>
</g>
<!-- Node16&#45;&gt;Node3 -->
<g id="edge20" class="edge">
<title>Node16&#45;&gt;Node3</title>
<path fill="none" stroke="midnightblue" d="M294.86,-117.98C294.72,-109.58 294.5,-96.48 294.31,-85.66"/>
<polygon fill="midnightblue" stroke="midnightblue" points="297.81,-85.45 294.14,-75.51 290.81,-85.57 297.81,-85.45"/>
</g>
<!-- Node16&#45;&gt;Node6 -->
<g id="edge22" class="edge">
<title>Node16&#45;&gt;Node6</title>
<path fill="none" stroke="midnightblue" d="M282.39,-117.98C268.28,-108.43 245.17,-92.81 228.25,-81.37"/>
<polygon fill="midnightblue" stroke="midnightblue" points="229.83,-78.21 219.58,-75.51 225.91,-84.01 229.83,-78.21"/>
</g>
<!-- Node17 -->
<g id="node17" class="node">
<title>Node17</title>
<g id="a_node17"><a xlink:title=" ">
<polygon fill="white" stroke="#bfbfbf" points="366,-56.5 366,-75.5 416,-75.5 416,-56.5 366,-56.5"/>
<text text-anchor="middle" x="391" y="-63.5" font-family="Helvetica,sans-Serif" font-size="10.00">chrono</text>
</a>
</g>
</g>
<!-- Node16&#45;&gt;Node17 -->
<g id="edge21" class="edge">
<title>Node16&#45;&gt;Node17</title>
<path fill="none" stroke="midnightblue" d="M308.75,-117.98C324.37,-108.3 350.06,-92.37 368.58,-80.89"/>
<polygon fill="midnightblue" stroke="midnightblue" points="370.62,-83.75 377.27,-75.51 366.93,-77.8 370.62,-83.75"/>
</g>
<!-- Node18&#45;&gt;Node4 -->
<g id="edge28" class="edge">
<title>Node18&#45;&gt;Node4</title>
<path fill="none" stroke="midnightblue" d="M83.77,-112.28C85.28,-96.87 89.76,-72.29 103,-56 115.26,-40.92 133.94,-30.29 150.75,-23.16"/>
<polygon fill="midnightblue" stroke="midnightblue" points="152.36,-26.29 160.38,-19.37 149.79,-19.78 152.36,-26.29"/>
</g>
<!-- Node18&#45;&gt;Node6 -->
<g id="edge26" class="edge">
<title>Node18&#45;&gt;Node6</title>
<path fill="none" stroke="midnightblue" d="M112.39,-112.4C132.82,-102.59 159.86,-89.62 179.8,-80.05"/>
<polygon fill="midnightblue" stroke="midnightblue" points="181.46,-83.14 188.96,-75.66 178.43,-76.83 181.46,-83.14"/>
</g>
<!-- Node18&#45;&gt;Node13 -->
<g id="edge29" class="edge">
<title>Node18&#45;&gt;Node13</title>
<path fill="none" stroke="midnightblue" d="M144.17,-117.56C212.61,-107.53 326.77,-90.74 425,-76 433.67,-74.7 443.05,-73.27 451.73,-71.95"/>
<polygon fill="midnightblue" stroke="midnightblue" points="452.51,-75.37 461.87,-70.4 451.46,-68.45 452.51,-75.37"/>
</g>
<!-- Node19 -->
<g id="node19" class="node">
<title>Node19</title>
<g id="a_node19"><a xlink:title=" ">
<polygon fill="white" stroke="#bfbfbf" points="112,-56.5 112,-75.5 154,-75.5 154,-56.5 112,-56.5"/>
<text text-anchor="middle" x="133" y="-63.5" font-family="Helvetica,sans-Serif" font-size="10.00">array</text>
</a>
</g>
</g>
<!-- Node18&#45;&gt;Node19 -->
<g id="edge25" class="edge">
<title>Node18&#45;&gt;Node19</title>
<path fill="none" stroke="midnightblue" d="M94.85,-112.4C102.11,-103.75 111.45,-92.64 119.07,-83.58"/>
<polygon fill="midnightblue" stroke="midnightblue" points="121.97,-85.57 125.72,-75.66 116.61,-81.06 121.97,-85.57"/>
</g>
<!-- Node20 -->
<g id="node20" class="node">
<title>Node20</title>
<g id="a_node20"><a xlink:title=" ">
<polygon fill="white" stroke="#bfbfbf" points="0,-56.5 0,-75.5 56,-75.5 56,-56.5 0,-56.5"/>
<text text-anchor="middle" x="28" y="-63.5" font-family="Helvetica,sans-Serif" font-size="10.00">optional</text>
</a>
</g>
</g>
<!-- Node18&#45;&gt;Node20 -->
<g id="edge27" class="edge">
<title>Node18&#45;&gt;Node20</title>
<path fill="none" stroke="midnightblue" d="M69.97,-112.4C61.81,-103.58 51.28,-92.18 42.81,-83.02"/>
<polygon fill="midnightblue" stroke="midnightblue" points="45.36,-80.63 36,-75.66 40.22,-85.38 45.36,-80.63"/>
</g>
<!-- Node22&#45;&gt;Node13 -->
<g id="edge34" class="edge">
<title>Node22&#45;&gt;Node13</title>
<path fill="none" stroke="midnightblue" d="M506.27,-117.98C502.53,-109.4 496.64,-95.93 491.86,-84.98"/>
<polygon fill="midnightblue" stroke="midnightblue" points="494.93,-83.27 487.72,-75.51 488.52,-86.07 494.93,-83.27"/>
</g>
<!-- Node22&#45;&gt;Node17 -->
<g id="edge32" class="edge">
<title>Node22&#45;&gt;Node17</title>
<path fill="none" stroke="midnightblue" d="M492.95,-117.98C473.16,-108.08 440.28,-91.64 417.23,-80.12"/>
<polygon fill="midnightblue" stroke="midnightblue" points="418.53,-76.85 408.02,-75.51 415.4,-83.11 418.53,-76.85"/>
</g>
<!-- Node23 -->
<g id="node23" class="node">
<title>Node23</title>
<g id="a_node23"><a xlink:title=" ">
<polygon fill="white" stroke="#bfbfbf" points="524,-56.5 524,-75.5 562,-75.5 562,-56.5 524,-56.5"/>
<text text-anchor="middle" x="543" y="-63.5" font-family="Helvetica,sans-Serif" font-size="10.00">map</text>
</a>
</g>
</g>
<!-- Node22&#45;&gt;Node23 -->
<g id="edge33" class="edge">
<title>Node22&#45;&gt;Node23</title>
<path fill="none" stroke="midnightblue" d="M514.73,-117.98C519.58,-109.23 527.27,-95.37 533.4,-84.31"/>
<polygon fill="midnightblue" stroke="midnightblue" points="536.49,-85.95 538.28,-75.51 530.37,-82.56 536.49,-85.95"/>
</g>
<!-- Node25 -->
<g id="node25" class="node">
<title>Node25</title>
<g id="a_node25"><a xlink:title=" ">
<polygon fill="white" stroke="#bfbfbf" points="780.5,-235.5 780.5,-254.5 849.5,-254.5 849.5,-235.5 780.5,-235.5"/>
<text text-anchor="middle" x="815" y="-242.5" font-family="Helvetica,sans-Serif" font-size="10.00">type_traits</text>
</a>
</g>
</g>
<!-- Node24&#45;&gt;Node25 -->
<g id="edge36" class="edge">
<title>Node24&#45;&gt;Node25</title>
<path fill="none" stroke="midnightblue" d="M790.79,-291.08C794.76,-283.69 800.53,-272.95 805.43,-263.81"/>
<polygon fill="midnightblue" stroke="midnightblue" points="808.65,-265.22 810.3,-254.75 802.49,-261.91 808.65,-265.22"/>
</g>
</g>
</svg>
