<?xml version="1.0" encoding="UTF-8" standalone="no"?>
<!DOCTYPE svg PUBLIC "-//W3C//DTD SVG 1.1//EN"
 "http://www.w3.org/Graphics/SVG/1.1/DTD/svg11.dtd">
<!-- Generated by graphviz version 2.43.0 (0)
 -->
<!-- Title: lib/application_business_rules/user_interaction/ProcessHmiInputs.cpp Pages: 1 -->
<svg width="986pt" height="397pt"
 viewBox="0.00 0.00 985.50 397.00" xmlns="http://www.w3.org/2000/svg" xmlns:xlink="http://www.w3.org/1999/xlink">
<g id="graph0" class="graph" transform="scale(1 1) rotate(0) translate(4 393)">
<title>lib/application_business_rules/user_interaction/ProcessHmiInputs.cpp</title>
<polygon fill="white" stroke="transparent" points="-4,4 -4,-393 981.5,-393 981.5,4 -4,4"/>
<!-- Node1 -->
<g id="node1" class="node">
<title>Node1</title>
<g id="a_node1"><a xlink:title=" ">
<polygon fill="#bfbfbf" stroke="black" points="346,-347.5 346,-388.5 480,-388.5 480,-347.5 346,-347.5"/>
<text text-anchor="start" x="354" y="-376.5" font-family="Helvetica,sans-Serif" font-size="10.00">lib/application_business</text>
<text text-anchor="start" x="354" y="-365.5" font-family="Helvetica,sans-Serif" font-size="10.00">_rules/user_interaction</text>
<text text-anchor="middle" x="413" y="-354.5" font-family="Helvetica,sans-Serif" font-size="10.00">/ProcessHmiInputs.cpp</text>
</a>
</g>
</g>
<!-- Node2 -->
<g id="node2" class="node">
<title>Node2</title>
<g id="a_node2"><a xlink:href="ProcessHmiInputs_8hpp.xhtml" target="_top" xlink:title=" ">
<polygon fill="white" stroke="black" points="209.5,-179.5 209.5,-198.5 334.5,-198.5 334.5,-179.5 209.5,-179.5"/>
<text text-anchor="middle" x="272" y="-186.5" font-family="Helvetica,sans-Serif" font-size="10.00">ProcessHmiInputs.hpp</text>
</a>
</g>
</g>
<!-- Node1&#45;&gt;Node2 -->
<g id="edge1" class="edge">
<title>Node1&#45;&gt;Node2</title>
<path fill="none" stroke="midnightblue" d="M391.64,-347.33C380.8,-336.94 367.7,-323.74 357,-311 327.68,-276.11 298.14,-231.42 282.8,-207.3"/>
<polygon fill="midnightblue" stroke="midnightblue" points="285.59,-205.17 277.3,-198.58 279.67,-208.91 285.59,-205.17"/>
</g>
<!-- Node5 -->
<g id="node5" class="node">
<title>Node5</title>
<g id="a_node5"><a xlink:href="IKeypad_8hpp.xhtml" target="_top" xlink:title=" ">
<polygon fill="white" stroke="black" points="374.5,-118 374.5,-137 451.5,-137 451.5,-118 374.5,-118"/>
<text text-anchor="middle" x="413" y="-125" font-family="Helvetica,sans-Serif" font-size="10.00">IKeypad.hpp</text>
</a>
</g>
</g>
<!-- Node1&#45;&gt;Node5 -->
<g id="edge4" class="edge">
<title>Node1&#45;&gt;Node5</title>
<path fill="none" stroke="midnightblue" d="M413,-347.48C413,-302.55 413,-192.23 413,-147.65"/>
<polygon fill="midnightblue" stroke="midnightblue" points="416.5,-147.37 413,-137.37 409.5,-147.37 416.5,-147.37"/>
</g>
<!-- Node6 -->
<g id="node6" class="node">
<title>Node6</title>
<g id="a_node6"><a xlink:title=" ">
<polygon fill="white" stroke="#bfbfbf" points="178.5,-56.5 178.5,-75.5 243.5,-75.5 243.5,-56.5 178.5,-56.5"/>
<text text-anchor="middle" x="211" y="-63.5" font-family="Helvetica,sans-Serif" font-size="10.00">functional</text>
</a>
</g>
</g>
<!-- Node1&#45;&gt;Node6 -->
<g id="edge22" class="edge">
<title>Node1&#45;&gt;Node6</title>
<path fill="none" stroke="midnightblue" d="M345.72,-361.09C275.65,-350.8 176,-322.69 176,-246 176,-246 176,-246 176,-188 176,-150.07 192.06,-108 202.43,-84.8"/>
<polygon fill="midnightblue" stroke="midnightblue" points="205.68,-86.1 206.71,-75.56 199.33,-83.16 205.68,-86.1"/>
</g>
<!-- Node7 -->
<g id="node7" class="node">
<title>Node7</title>
<g id="a_node7"><a xlink:href="Presenter_8hpp.xhtml" target="_top" xlink:title=" ">
<polygon fill="white" stroke="black" points="599.5,-291.5 599.5,-310.5 682.5,-310.5 682.5,-291.5 599.5,-291.5"/>
<text text-anchor="middle" x="641" y="-298.5" font-family="Helvetica,sans-Serif" font-size="10.00">Presenter.hpp</text>
</a>
</g>
</g>
<!-- Node1&#45;&gt;Node7 -->
<g id="edge7" class="edge">
<title>Node1&#45;&gt;Node7</title>
<path fill="none" stroke="midnightblue" d="M480.17,-347.85C519.46,-336.65 567.72,-322.89 601.07,-313.38"/>
<polygon fill="midnightblue" stroke="midnightblue" points="602.26,-316.68 610.91,-310.58 600.34,-309.95 602.26,-316.68"/>
</g>
<!-- Node15 -->
<g id="node15" class="node">
<title>Node15</title>
<g id="a_node15"><a xlink:href="board__interface_8hpp.xhtml" target="_top" xlink:title=" ">
<polygon fill="white" stroke="black" points="242,-118 242,-137 356,-137 356,-118 242,-118"/>
<text text-anchor="middle" x="299" y="-125" font-family="Helvetica,sans-Serif" font-size="10.00">board_interface.hpp</text>
</a>
</g>
</g>
<!-- Node1&#45;&gt;Node15 -->
<g id="edge18" class="edge">
<title>Node1&#45;&gt;Node15</title>
<path fill="none" stroke="midnightblue" d="M408.19,-347.3C399,-311.88 376.83,-235.87 343,-179 335.38,-166.19 324.37,-153.56 315.27,-144.13"/>
<polygon fill="midnightblue" stroke="midnightblue" points="317.73,-141.64 308.19,-137.03 312.77,-146.58 317.73,-141.64"/>
</g>
<!-- Node17 -->
<g id="node17" class="node">
<title>Node17</title>
<g id="a_node17"><a xlink:href="serial__port_8hpp.xhtml" target="_top" xlink:title=" ">
<polygon fill="white" stroke="black" points="26,-112.5 26,-142.5 148,-142.5 148,-112.5 26,-112.5"/>
<text text-anchor="start" x="34" y="-130.5" font-family="Helvetica,sans-Serif" font-size="10.00">serial_interface/serial</text>
<text text-anchor="middle" x="87" y="-119.5" font-family="Helvetica,sans-Serif" font-size="10.00">_port.hpp</text>
</a>
</g>
</g>
<!-- Node1&#45;&gt;Node17 -->
<g id="edge23" class="edge">
<title>Node1&#45;&gt;Node17</title>
<path fill="none" stroke="midnightblue" d="M345.71,-359.07C281.1,-350.24 189.4,-334.09 162,-311 113.27,-269.94 95.76,-192.2 89.83,-152.76"/>
<polygon fill="midnightblue" stroke="midnightblue" points="93.27,-152.14 88.44,-142.71 86.34,-153.09 93.27,-152.14"/>
</g>
<!-- Node20 -->
<g id="node20" class="node">
<title>Node20</title>
<g id="a_node20"><a xlink:title=" ">
<polygon fill="white" stroke="#bfbfbf" points="700.5,-291.5 700.5,-310.5 765.5,-310.5 765.5,-291.5 700.5,-291.5"/>
<text text-anchor="middle" x="733" y="-298.5" font-family="Helvetica,sans-Serif" font-size="10.00">stdexcept</text>
</a>
</g>
</g>
<!-- Node1&#45;&gt;Node20 -->
<g id="edge29" class="edge">
<title>Node1&#45;&gt;Node20</title>
<path fill="none" stroke="midnightblue" d="M480.15,-353.87C534.39,-343.19 612.95,-327.53 690.41,-311.31"/>
<polygon fill="midnightblue" stroke="midnightblue" points="691.27,-314.71 700.34,-309.23 689.83,-307.85 691.27,-314.71"/>
</g>
<!-- Node21 -->
<g id="node21" class="node">
<title>Node21</title>
<g id="a_node21"><a xlink:href="Task_8hpp.xhtml" target="_top" xlink:title=" ">
<polygon fill="white" stroke="black" points="469.5,-118 469.5,-137 558.5,-137 558.5,-118 469.5,-118"/>
<text text-anchor="middle" x="514" y="-125" font-family="Helvetica,sans-Serif" font-size="10.00">tasks/Task.hpp</text>
</a>
</g>
</g>
<!-- Node1&#45;&gt;Node21 -->
<g id="edge30" class="edge">
<title>Node1&#45;&gt;Node21</title>
<path fill="none" stroke="midnightblue" d="M421.27,-347.48C440.42,-302.26 487.61,-190.82 506.25,-146.81"/>
<polygon fill="midnightblue" stroke="midnightblue" points="509.57,-147.94 510.24,-137.37 503.12,-145.21 509.57,-147.94"/>
</g>
<!-- Node23 -->
<g id="node23" class="node">
<title>Node23</title>
<g id="a_node23"><a xlink:href="type__traits_8hpp.xhtml" target="_top" xlink:title=" ">
<polygon fill="white" stroke="black" points="853,-291.5 853,-310.5 943,-310.5 943,-291.5 853,-291.5"/>
<text text-anchor="middle" x="898" y="-298.5" font-family="Helvetica,sans-Serif" font-size="10.00">type_traits.hpp</text>
</a>
</g>
</g>
<!-- Node1&#45;&gt;Node23 -->
<g id="edge34" class="edge">
<title>Node1&#45;&gt;Node23</title>
<path fill="none" stroke="midnightblue" d="M480.18,-358C576.84,-345.04 753.35,-321.39 842.83,-309.39"/>
<polygon fill="midnightblue" stroke="midnightblue" points="843.34,-312.86 852.78,-308.06 842.41,-305.92 843.34,-312.86"/>
</g>
<!-- Node3 -->
<g id="node3" class="node">
<title>Node3</title>
<g id="a_node3"><a xlink:href="KeyIds_8hpp.xhtml" target="_top" xlink:title=" ">
<polygon fill="white" stroke="black" points="263,-56.5 263,-75.5 333,-75.5 333,-56.5 263,-56.5"/>
<text text-anchor="middle" x="298" y="-63.5" font-family="Helvetica,sans-Serif" font-size="10.00">KeyIds.hpp</text>
</a>
</g>
</g>
<!-- Node2&#45;&gt;Node3 -->
<g id="edge2" class="edge">
<title>Node2&#45;&gt;Node3</title>
<path fill="none" stroke="midnightblue" d="M261.01,-179.37C251.55,-171.17 238.56,-157.92 233,-143 228.18,-130.09 226.61,-124.2 233,-112 240.28,-98.11 254.01,-87.65 266.98,-80.33"/>
<polygon fill="midnightblue" stroke="midnightblue" points="268.93,-83.27 276.19,-75.55 265.7,-77.05 268.93,-83.27"/>
</g>
<!-- Node4 -->
<g id="node4" class="node">
<title>Node4</title>
<g id="a_node4"><a xlink:title=" ">
<polygon fill="white" stroke="#bfbfbf" points="194.5,-0.5 194.5,-19.5 251.5,-19.5 251.5,-0.5 194.5,-0.5"/>
<text text-anchor="middle" x="223" y="-7.5" font-family="Helvetica,sans-Serif" font-size="10.00">ostream</text>
</a>
</g>
</g>
<!-- Node3&#45;&gt;Node4 -->
<g id="edge3" class="edge">
<title>Node3&#45;&gt;Node4</title>
<path fill="none" stroke="midnightblue" d="M285.95,-56.32C274.54,-48.11 257.17,-35.6 243.57,-25.81"/>
<polygon fill="midnightblue" stroke="midnightblue" points="245.43,-22.84 235.27,-19.83 241.34,-28.52 245.43,-22.84"/>
</g>
<!-- Node5&#45;&gt;Node3 -->
<g id="edge5" class="edge">
<title>Node5&#45;&gt;Node3</title>
<path fill="none" stroke="midnightblue" d="M396.52,-117.98C377.39,-108.08 345.63,-91.64 323.35,-80.12"/>
<polygon fill="midnightblue" stroke="midnightblue" points="324.94,-77 314.45,-75.51 321.72,-83.21 324.94,-77"/>
</g>
<!-- Node5&#45;&gt;Node6 -->
<g id="edge6" class="edge">
<title>Node5&#45;&gt;Node6</title>
<path fill="none" stroke="midnightblue" d="M384.84,-117.95C378.33,-115.98 371.43,-113.91 365,-112 325.97,-100.4 281.3,-87.38 250.16,-78.34"/>
<polygon fill="midnightblue" stroke="midnightblue" points="251.13,-74.97 240.55,-75.55 249.17,-81.7 251.13,-74.97"/>
</g>
<!-- Node8 -->
<g id="node8" class="node">
<title>Node8</title>
<g id="a_node8"><a xlink:href="IStatusIndicator_8hpp.xhtml" target="_top" xlink:title=" ">
<polygon fill="white" stroke="black" points="706.5,-235.5 706.5,-254.5 819.5,-254.5 819.5,-235.5 706.5,-235.5"/>
<text text-anchor="middle" x="763" y="-242.5" font-family="Helvetica,sans-Serif" font-size="10.00">IStatusIndicator.hpp</text>
</a>
</g>
</g>
<!-- Node7&#45;&gt;Node8 -->
<g id="edge8" class="edge">
<title>Node7&#45;&gt;Node8</title>
<path fill="none" stroke="midnightblue" d="M660.33,-291.44C680.32,-282.6 711.74,-268.69 734.56,-258.59"/>
<polygon fill="midnightblue" stroke="midnightblue" points="736.03,-261.76 743.76,-254.52 733.2,-255.36 736.03,-261.76"/>
</g>
<!-- Node9 -->
<g id="node9" class="node">
<title>Node9</title>
<g id="a_node9"><a xlink:href="Menu_8hpp.xhtml" target="_top" xlink:title=" ">
<polygon fill="white" stroke="black" points="578.5,-235.5 578.5,-254.5 643.5,-254.5 643.5,-235.5 578.5,-235.5"/>
<text text-anchor="middle" x="611" y="-242.5" font-family="Helvetica,sans-Serif" font-size="10.00">Menu.hpp</text>
</a>
</g>
</g>
<!-- Node7&#45;&gt;Node9 -->
<g id="edge9" class="edge">
<title>Node7&#45;&gt;Node9</title>
<path fill="none" stroke="midnightblue" d="M636.05,-291.08C631.9,-283.61 625.85,-272.72 620.73,-263.52"/>
<polygon fill="midnightblue" stroke="midnightblue" points="623.78,-261.79 615.86,-254.75 617.66,-265.19 623.78,-261.79"/>
</g>
<!-- Node13 -->
<g id="node13" class="node">
<title>Node13</title>
<g id="a_node13"><a xlink:title=" ">
<polygon fill="white" stroke="#bfbfbf" points="604.5,-56.5 604.5,-75.5 651.5,-75.5 651.5,-56.5 604.5,-56.5"/>
<text text-anchor="middle" x="628" y="-63.5" font-family="Helvetica,sans-Serif" font-size="10.00">vector</text>
</a>
</g>
</g>
<!-- Node7&#45;&gt;Node13 -->
<g id="edge17" class="edge">
<title>Node7&#45;&gt;Node13</title>
<path fill="none" stroke="midnightblue" d="M645.69,-291.38C659.91,-264.04 699.99,-177.15 673,-112 668.08,-100.12 658.33,-89.74 649.17,-81.96"/>
<polygon fill="midnightblue" stroke="midnightblue" points="651.08,-79.01 641.06,-75.56 646.75,-84.51 651.08,-79.01"/>
</g>
<!-- Node14 -->
<g id="node14" class="node">
<title>Node14</title>
<g id="a_node14"><a xlink:title=" ">
<polygon fill="white" stroke="#bfbfbf" points="837.5,-235.5 837.5,-254.5 890.5,-254.5 890.5,-235.5 837.5,-235.5"/>
<text text-anchor="middle" x="864" y="-242.5" font-family="Helvetica,sans-Serif" font-size="10.00">cstddef</text>
</a>
</g>
</g>
<!-- Node7&#45;&gt;Node14 -->
<g id="edge16" class="edge">
<title>Node7&#45;&gt;Node14</title>
<path fill="none" stroke="midnightblue" d="M677.44,-291.47C713.27,-283.04 769.79,-269.63 827.28,-255.4"/>
<polygon fill="midnightblue" stroke="midnightblue" points="828.4,-258.73 837.26,-252.93 826.71,-251.94 828.4,-258.73"/>
</g>
<!-- Node9&#45;&gt;Node5 -->
<g id="edge15" class="edge">
<title>Node9&#45;&gt;Node5</title>
<path fill="none" stroke="midnightblue" d="M596.12,-235.32C561.99,-215.41 477.87,-166.34 436.6,-142.27"/>
<polygon fill="midnightblue" stroke="midnightblue" points="438.19,-139.14 427.78,-137.12 434.66,-145.19 438.19,-139.14"/>
</g>
<!-- Node10 -->
<g id="node10" class="node">
<title>Node10</title>
<g id="a_node10"><a xlink:href="IDisplay_8hpp.xhtml" target="_top" xlink:title=" ">
<polygon fill="white" stroke="black" points="573,-179.5 573,-198.5 649,-198.5 649,-179.5 573,-179.5"/>
<text text-anchor="middle" x="611" y="-186.5" font-family="Helvetica,sans-Serif" font-size="10.00">IDisplay.hpp</text>
</a>
</g>
</g>
<!-- Node9&#45;&gt;Node10 -->
<g id="edge10" class="edge">
<title>Node9&#45;&gt;Node10</title>
<path fill="none" stroke="midnightblue" d="M611,-235.08C611,-228.01 611,-217.86 611,-208.99"/>
<polygon fill="midnightblue" stroke="midnightblue" points="614.5,-208.75 611,-198.75 607.5,-208.75 614.5,-208.75"/>
</g>
<!-- Node10&#45;&gt;Node5 -->
<g id="edge14" class="edge">
<title>Node10&#45;&gt;Node5</title>
<path fill="none" stroke="midnightblue" d="M582.52,-179.47C552.34,-170.43 503.31,-155.74 461,-143 457.69,-142 454.25,-140.97 450.81,-139.93"/>
<polygon fill="midnightblue" stroke="midnightblue" points="451.76,-136.56 441.17,-137.02 449.73,-143.26 451.76,-136.56"/>
</g>
<!-- Node11 -->
<g id="node11" class="node">
<title>Node11</title>
<g id="a_node11"><a xlink:href="MenuItem_8hpp.xhtml" target="_top" xlink:title=" ">
<polygon fill="white" stroke="black" points="576.5,-118 576.5,-137 663.5,-137 663.5,-118 576.5,-118"/>
<text text-anchor="middle" x="620" y="-125" font-family="Helvetica,sans-Serif" font-size="10.00">MenuItem.hpp</text>
</a>
</g>
</g>
<!-- Node10&#45;&gt;Node11 -->
<g id="edge11" class="edge">
<title>Node10&#45;&gt;Node11</title>
<path fill="none" stroke="midnightblue" d="M612.29,-179.48C613.56,-171.08 615.54,-157.98 617.18,-147.16"/>
<polygon fill="midnightblue" stroke="midnightblue" points="620.68,-147.42 618.71,-137.01 613.76,-146.37 620.68,-147.42"/>
</g>
<!-- Node12 -->
<g id="node12" class="node">
<title>Node12</title>
<g id="a_node12"><a xlink:title=" ">
<polygon fill="white" stroke="#bfbfbf" points="526,-56.5 526,-75.5 570,-75.5 570,-56.5 526,-56.5"/>
<text text-anchor="middle" x="548" y="-63.5" font-family="Helvetica,sans-Serif" font-size="10.00">string</text>
</a>
</g>
</g>
<!-- Node11&#45;&gt;Node12 -->
<g id="edge12" class="edge">
<title>Node11&#45;&gt;Node12</title>
<path fill="none" stroke="midnightblue" d="M609.68,-117.98C598.35,-108.61 579.93,-93.38 566.16,-82.01"/>
<polygon fill="midnightblue" stroke="midnightblue" points="568.23,-79.18 558.3,-75.51 563.78,-84.58 568.23,-79.18"/>
</g>
<!-- Node11&#45;&gt;Node13 -->
<g id="edge13" class="edge">
<title>Node11&#45;&gt;Node13</title>
<path fill="none" stroke="midnightblue" d="M621.15,-117.98C622.27,-109.58 624.04,-96.48 625.49,-85.66"/>
<polygon fill="midnightblue" stroke="midnightblue" points="628.99,-85.89 626.86,-75.51 622.05,-84.95 628.99,-85.89"/>
</g>
<!-- Node15&#45;&gt;Node3 -->
<g id="edge19" class="edge">
<title>Node15&#45;&gt;Node3</title>
<path fill="none" stroke="midnightblue" d="M298.86,-117.98C298.72,-109.58 298.5,-96.48 298.31,-85.66"/>
<polygon fill="midnightblue" stroke="midnightblue" points="301.81,-85.45 298.14,-75.51 294.81,-85.57 301.81,-85.45"/>
</g>
<!-- Node15&#45;&gt;Node6 -->
<g id="edge21" class="edge">
<title>Node15&#45;&gt;Node6</title>
<path fill="none" stroke="midnightblue" d="M286.39,-117.98C272.28,-108.43 249.17,-92.81 232.25,-81.37"/>
<polygon fill="midnightblue" stroke="midnightblue" points="233.83,-78.21 223.58,-75.51 229.91,-84.01 233.83,-78.21"/>
</g>
<!-- Node16 -->
<g id="node16" class="node">
<title>Node16</title>
<g id="a_node16"><a xlink:title=" ">
<polygon fill="white" stroke="#bfbfbf" points="369,-56.5 369,-75.5 419,-75.5 419,-56.5 369,-56.5"/>
<text text-anchor="middle" x="394" y="-63.5" font-family="Helvetica,sans-Serif" font-size="10.00">chrono</text>
</a>
</g>
</g>
<!-- Node15&#45;&gt;Node16 -->
<g id="edge20" class="edge">
<title>Node15&#45;&gt;Node16</title>
<path fill="none" stroke="midnightblue" d="M312.61,-117.98C328.06,-108.3 353.49,-92.37 371.82,-80.89"/>
<polygon fill="midnightblue" stroke="midnightblue" points="373.8,-83.78 380.41,-75.51 370.08,-77.85 373.8,-83.78"/>
</g>
<!-- Node17&#45;&gt;Node4 -->
<g id="edge27" class="edge">
<title>Node17&#45;&gt;Node4</title>
<path fill="none" stroke="midnightblue" d="M103.27,-112.38C119.77,-98.09 146.07,-75.41 169,-56 180.91,-45.92 194.39,-34.69 204.9,-25.97"/>
<polygon fill="midnightblue" stroke="midnightblue" points="207.14,-28.65 212.61,-19.58 202.67,-23.26 207.14,-28.65"/>
</g>
<!-- Node17&#45;&gt;Node6 -->
<g id="edge25" class="edge">
<title>Node17&#45;&gt;Node6</title>
<path fill="none" stroke="midnightblue" d="M116.39,-112.4C136.82,-102.59 163.86,-89.62 183.8,-80.05"/>
<polygon fill="midnightblue" stroke="midnightblue" points="185.46,-83.14 192.96,-75.66 182.43,-76.83 185.46,-83.14"/>
</g>
<!-- Node17&#45;&gt;Node12 -->
<g id="edge28" class="edge">
<title>Node17&#45;&gt;Node12</title>
<path fill="none" stroke="midnightblue" d="M148.05,-120.59C245.31,-110.97 432.19,-91.61 515.84,-75.88"/>
<polygon fill="midnightblue" stroke="midnightblue" points="516.62,-79.3 525.76,-73.94 515.27,-72.43 516.62,-79.3"/>
</g>
<!-- Node18 -->
<g id="node18" class="node">
<title>Node18</title>
<g id="a_node18"><a xlink:title=" ">
<polygon fill="white" stroke="#bfbfbf" points="0,-56.5 0,-75.5 42,-75.5 42,-56.5 0,-56.5"/>
<text text-anchor="middle" x="21" y="-63.5" font-family="Helvetica,sans-Serif" font-size="10.00">array</text>
</a>
</g>
</g>
<!-- Node17&#45;&gt;Node18 -->
<g id="edge24" class="edge">
<title>Node17&#45;&gt;Node18</title>
<path fill="none" stroke="midnightblue" d="M71.36,-112.4C61.37,-103.4 48.42,-91.72 38.15,-82.47"/>
<polygon fill="midnightblue" stroke="midnightblue" points="40.37,-79.75 30.6,-75.66 35.69,-84.95 40.37,-79.75"/>
</g>
<!-- Node19 -->
<g id="node19" class="node">
<title>Node19</title>
<g id="a_node19"><a xlink:title=" ">
<polygon fill="white" stroke="#bfbfbf" points="60,-56.5 60,-75.5 116,-75.5 116,-56.5 60,-56.5"/>
<text text-anchor="middle" x="88" y="-63.5" font-family="Helvetica,sans-Serif" font-size="10.00">optional</text>
</a>
</g>
</g>
<!-- Node17&#45;&gt;Node19 -->
<g id="edge26" class="edge">
<title>Node17&#45;&gt;Node19</title>
<path fill="none" stroke="midnightblue" d="M87.24,-112.4C87.37,-104.47 87.54,-94.46 87.68,-85.86"/>
<polygon fill="midnightblue" stroke="midnightblue" points="91.19,-85.72 87.85,-75.66 84.19,-85.6 91.19,-85.72"/>
</g>
<!-- Node21&#45;&gt;Node12 -->
<g id="edge33" class="edge">
<title>Node21&#45;&gt;Node12</title>
<path fill="none" stroke="midnightblue" d="M518.87,-117.98C523.87,-109.23 531.79,-95.37 538.11,-84.31"/>
<polygon fill="midnightblue" stroke="midnightblue" points="541.22,-85.93 543.14,-75.51 535.14,-82.46 541.22,-85.93"/>
</g>
<!-- Node21&#45;&gt;Node16 -->
<g id="edge31" class="edge">
<title>Node21&#45;&gt;Node16</title>
<path fill="none" stroke="midnightblue" d="M496.81,-117.98C476.76,-108.03 443.4,-91.49 420.14,-79.96"/>
<polygon fill="midnightblue" stroke="midnightblue" points="421.68,-76.82 411.16,-75.51 418.57,-83.09 421.68,-76.82"/>
</g>
<!-- Node22 -->
<g id="node22" class="node">
<title>Node22</title>
<g id="a_node22"><a xlink:title=" ">
<polygon fill="white" stroke="#bfbfbf" points="470,-56.5 470,-75.5 508,-75.5 508,-56.5 470,-56.5"/>
<text text-anchor="middle" x="489" y="-63.5" font-family="Helvetica,sans-Serif" font-size="10.00">map</text>
</a>
</g>
</g>
<!-- Node21&#45;&gt;Node22 -->
<g id="edge32" class="edge">
<title>Node21&#45;&gt;Node22</title>
<path fill="none" stroke="midnightblue" d="M510.42,-117.98C506.82,-109.4 501.15,-95.93 496.56,-84.98"/>
<polygon fill="midnightblue" stroke="midnightblue" points="499.68,-83.37 492.58,-75.51 493.22,-86.08 499.68,-83.37"/>
</g>
<!-- Node24 -->
<g id="node24" class="node">
<title>Node24</title>
<g id="a_node24"><a xlink:title=" ">
<polygon fill="white" stroke="#bfbfbf" points="908.5,-235.5 908.5,-254.5 977.5,-254.5 977.5,-235.5 908.5,-235.5"/>
<text text-anchor="middle" x="943" y="-242.5" font-family="Helvetica,sans-Serif" font-size="10.00">type_traits</text>
</a>
</g>
</g>
<!-- Node23&#45;&gt;Node24 -->
<g id="edge35" class="edge">
<title>Node23&#45;&gt;Node24</title>
<path fill="none" stroke="midnightblue" d="M905.43,-291.08C911.85,-283.38 921.31,-272.03 929.12,-262.65"/>
<polygon fill="midnightblue" stroke="midnightblue" points="931.99,-264.67 935.71,-254.75 926.62,-260.19 931.99,-264.67"/>
</g>
</g>
</svg>
