<?xml version="1.0" encoding="UTF-8" standalone="no"?>
<!DOCTYPE svg PUBLIC "-//W3C//DTD SVG 1.1//EN"
 "http://www.w3.org/Graphics/SVG/1.1/DTD/svg11.dtd">
<!-- Generated by graphviz version 2.43.0 (0)
 -->
<!-- Title: lib/application_business_rules/serial_interface/Protocol.cpp Pages: 1 -->
<svg width="890pt" height="218pt"
 viewBox="0.00 0.00 890.00 218.00" xmlns="http://www.w3.org/2000/svg" xmlns:xlink="http://www.w3.org/1999/xlink">
<g id="graph0" class="graph" transform="scale(1 1) rotate(0) translate(4 214)">
<title>lib/application_business_rules/serial_interface/Protocol.cpp</title>
<polygon fill="white" stroke="transparent" points="-4,4 -4,-214 886,-214 886,4 -4,4"/>
<!-- Node1 -->
<g id="node1" class="node">
<title>Node1</title>
<g id="a_node1"><a xlink:title=" ">
<polygon fill="#bfbfbf" stroke="black" points="87.5,-168.5 87.5,-209.5 221.5,-209.5 221.5,-168.5 87.5,-168.5"/>
<text text-anchor="start" x="95.5" y="-197.5" font-family="Helvetica,sans-Serif" font-size="10.00">lib/application_business</text>
<text text-anchor="start" x="95.5" y="-186.5" font-family="Helvetica,sans-Serif" font-size="10.00">_rules/serial_interface</text>
<text text-anchor="middle" x="154.5" y="-175.5" font-family="Helvetica,sans-Serif" font-size="10.00">/Protocol.cpp</text>
</a>
</g>
</g>
<!-- Node2 -->
<g id="node2" class="node">
<title>Node2</title>
<g id="a_node2"><a xlink:href="Protocol_8hpp.xhtml" target="_top" xlink:title=" ">
<polygon fill="white" stroke="black" points="0,-112.5 0,-131.5 77,-131.5 77,-112.5 0,-112.5"/>
<text text-anchor="middle" x="38.5" y="-119.5" font-family="Helvetica,sans-Serif" font-size="10.00">Protocol.hpp</text>
</a>
</g>
</g>
<!-- Node1&#45;&gt;Node2 -->
<g id="edge1" class="edge">
<title>Node1&#45;&gt;Node2</title>
<path fill="none" stroke="midnightblue" d="M119.7,-168.5C101.4,-158.24 79.41,-145.93 62.94,-136.69"/>
<polygon fill="midnightblue" stroke="midnightblue" points="64.38,-133.49 53.94,-131.65 60.95,-139.59 64.38,-133.49"/>
</g>
<!-- Node3 -->
<g id="node3" class="node">
<title>Node3</title>
<g id="a_node3"><a xlink:href="command__line__interpreter_8hpp.xhtml" target="_top" xlink:title=" ">
<polygon fill="white" stroke="black" points="524.5,-112.5 524.5,-131.5 690.5,-131.5 690.5,-112.5 524.5,-112.5"/>
<text text-anchor="middle" x="607.5" y="-119.5" font-family="Helvetica,sans-Serif" font-size="10.00">command_line_interpreter.hpp</text>
</a>
</g>
</g>
<!-- Node1&#45;&gt;Node3 -->
<g id="edge2" class="edge">
<title>Node1&#45;&gt;Node3</title>
<path fill="none" stroke="midnightblue" d="M221.83,-178.34C306.82,-166.14 452.28,-145.27 538.2,-132.94"/>
<polygon fill="midnightblue" stroke="midnightblue" points="538.71,-136.41 548.12,-131.52 537.72,-129.48 538.71,-136.41"/>
</g>
<!-- Node11 -->
<g id="node11" class="node">
<title>Node11</title>
<g id="a_node11"><a xlink:title=" ">
<polygon fill="white" stroke="#bfbfbf" points="181.5,-0.5 181.5,-19.5 225.5,-19.5 225.5,-0.5 181.5,-0.5"/>
<text text-anchor="middle" x="203.5" y="-7.5" font-family="Helvetica,sans-Serif" font-size="10.00">string</text>
</a>
</g>
</g>
<!-- Node1&#45;&gt;Node11 -->
<g id="edge22" class="edge">
<title>Node1&#45;&gt;Node11</title>
<path fill="none" stroke="midnightblue" d="M141.72,-168.32C125.94,-141.3 103.6,-91.96 124.5,-56 134.64,-38.55 154.37,-27.3 171.57,-20.42"/>
<polygon fill="midnightblue" stroke="midnightblue" points="173.13,-23.57 181.32,-16.85 170.72,-17 173.13,-23.57"/>
</g>
<!-- Node15 -->
<g id="node15" class="node">
<title>Node15</title>
<g id="a_node15"><a xlink:href="serial__port_8hpp.xhtml" target="_top" xlink:title=" ">
<polygon fill="white" stroke="black" points="199,-112.5 199,-131.5 288,-131.5 288,-112.5 199,-112.5"/>
<text text-anchor="middle" x="243.5" y="-119.5" font-family="Helvetica,sans-Serif" font-size="10.00">serial_port.hpp</text>
</a>
</g>
</g>
<!-- Node1&#45;&gt;Node15 -->
<g id="edge15" class="edge">
<title>Node1&#45;&gt;Node15</title>
<path fill="none" stroke="midnightblue" d="M181.2,-168.5C194.72,-158.63 210.85,-146.84 223.32,-137.74"/>
<polygon fill="midnightblue" stroke="midnightblue" points="225.64,-140.38 231.65,-131.65 221.51,-134.72 225.64,-140.38"/>
</g>
<!-- Node16 -->
<g id="node16" class="node">
<title>Node16</title>
<g id="a_node16"><a xlink:title=" ">
<polygon fill="white" stroke="#bfbfbf" points="133.5,-56.5 133.5,-75.5 175.5,-75.5 175.5,-56.5 133.5,-56.5"/>
<text text-anchor="middle" x="154.5" y="-63.5" font-family="Helvetica,sans-Serif" font-size="10.00">array</text>
</a>
</g>
</g>
<!-- Node1&#45;&gt;Node16 -->
<g id="edge21" class="edge">
<title>Node1&#45;&gt;Node16</title>
<path fill="none" stroke="midnightblue" d="M154.5,-168.29C154.5,-145.48 154.5,-108.19 154.5,-85.78"/>
<polygon fill="midnightblue" stroke="midnightblue" points="158,-85.57 154.5,-75.57 151,-85.57 158,-85.57"/>
</g>
<!-- Node4 -->
<g id="node4" class="node">
<title>Node4</title>
<g id="a_node4"><a xlink:title=" ">
<polygon fill="white" stroke="#bfbfbf" points="381,-56.5 381,-75.5 446,-75.5 446,-56.5 381,-56.5"/>
<text text-anchor="middle" x="413.5" y="-63.5" font-family="Helvetica,sans-Serif" font-size="10.00">functional</text>
</a>
</g>
</g>
<!-- Node3&#45;&gt;Node4 -->
<g id="edge3" class="edge">
<title>Node3&#45;&gt;Node4</title>
<path fill="none" stroke="midnightblue" d="M576.76,-112.44C543.56,-103.2 490.51,-88.44 453.94,-78.26"/>
<polygon fill="midnightblue" stroke="midnightblue" points="454.67,-74.83 444.1,-75.52 452.79,-81.57 454.67,-74.83"/>
</g>
<!-- Node5 -->
<g id="node5" class="node">
<title>Node5</title>
<g id="a_node5"><a xlink:title=" ">
<polygon fill="white" stroke="#bfbfbf" points="628.5,-56.5 628.5,-75.5 688.5,-75.5 688.5,-56.5 628.5,-56.5"/>
<text text-anchor="middle" x="658.5" y="-63.5" font-family="Helvetica,sans-Serif" font-size="10.00">iostream</text>
</a>
</g>
</g>
<!-- Node3&#45;&gt;Node5 -->
<g id="edge4" class="edge">
<title>Node3&#45;&gt;Node5</title>
<path fill="none" stroke="midnightblue" d="M615.92,-112.08C623.35,-104.22 634.35,-92.57 643.31,-83.08"/>
<polygon fill="midnightblue" stroke="midnightblue" points="645.91,-85.42 650.24,-75.75 640.82,-80.62 645.91,-85.42"/>
</g>
<!-- Node6 -->
<g id="node6" class="node">
<title>Node6</title>
<g id="a_node6"><a xlink:title=" ">
<polygon fill="white" stroke="#bfbfbf" points="707,-56.5 707,-75.5 760,-75.5 760,-56.5 707,-56.5"/>
<text text-anchor="middle" x="733.5" y="-63.5" font-family="Helvetica,sans-Serif" font-size="10.00">iterator</text>
</a>
</g>
</g>
<!-- Node3&#45;&gt;Node6 -->
<g id="edge5" class="edge">
<title>Node3&#45;&gt;Node6</title>
<path fill="none" stroke="midnightblue" d="M627.47,-112.44C648.11,-103.6 680.56,-89.69 704.13,-79.59"/>
<polygon fill="midnightblue" stroke="midnightblue" points="705.82,-82.67 713.63,-75.52 703.06,-76.24 705.82,-82.67"/>
</g>
<!-- Node7 -->
<g id="node7" class="node">
<title>Node7</title>
<g id="a_node7"><a xlink:title=" ">
<polygon fill="white" stroke="#bfbfbf" points="442,-0.5 442,-19.5 507,-19.5 507,-0.5 442,-0.5"/>
<text text-anchor="middle" x="474.5" y="-7.5" font-family="Helvetica,sans-Serif" font-size="10.00">stdexcept</text>
</a>
</g>
</g>
<!-- Node3&#45;&gt;Node7 -->
<g id="edge6" class="edge">
<title>Node3&#45;&gt;Node7</title>
<path fill="none" stroke="midnightblue" d="M561.39,-112.48C538.45,-106.04 511.97,-94.93 494.5,-76 482.88,-63.4 478,-44.19 475.96,-29.91"/>
<polygon fill="midnightblue" stroke="midnightblue" points="479.42,-29.31 474.86,-19.74 472.46,-30.06 479.42,-29.31"/>
</g>
<!-- Node8 -->
<g id="node8" class="node">
<title>Node8</title>
<g id="a_node8"><a xlink:href="string__helpers_8hpp.xhtml" target="_top" xlink:title=" ">
<polygon fill="white" stroke="black" points="503,-56.5 503,-75.5 610,-75.5 610,-56.5 503,-56.5"/>
<text text-anchor="middle" x="556.5" y="-63.5" font-family="Helvetica,sans-Serif" font-size="10.00">string_helpers.hpp</text>
</a>
</g>
</g>
<!-- Node3&#45;&gt;Node8 -->
<g id="edge7" class="edge">
<title>Node3&#45;&gt;Node8</title>
<path fill="none" stroke="midnightblue" d="M599.08,-112.08C591.65,-104.22 580.65,-92.57 571.69,-83.08"/>
<polygon fill="midnightblue" stroke="midnightblue" points="574.18,-80.62 564.76,-75.75 569.09,-85.42 574.18,-80.62"/>
</g>
<!-- Node13 -->
<g id="node13" class="node">
<title>Node13</title>
<g id="a_node13"><a xlink:title=" ">
<polygon fill="white" stroke="#bfbfbf" points="778,-56.5 778,-75.5 819,-75.5 819,-56.5 778,-56.5"/>
<text text-anchor="middle" x="798.5" y="-63.5" font-family="Helvetica,sans-Serif" font-size="10.00">tuple</text>
</a>
</g>
</g>
<!-- Node3&#45;&gt;Node13 -->
<g id="edge13" class="edge">
<title>Node3&#45;&gt;Node13</title>
<path fill="none" stroke="midnightblue" d="M639.24,-112.48C669.98,-104.17 718.13,-90.98 768.22,-76.32"/>
<polygon fill="midnightblue" stroke="midnightblue" points="769.32,-79.64 777.93,-73.47 767.35,-72.93 769.32,-79.64"/>
</g>
<!-- Node14 -->
<g id="node14" class="node">
<title>Node14</title>
<g id="a_node14"><a xlink:title=" ">
<polygon fill="white" stroke="#bfbfbf" points="837,-56.5 837,-75.5 882,-75.5 882,-56.5 837,-56.5"/>
<text text-anchor="middle" x="859.5" y="-63.5" font-family="Helvetica,sans-Serif" font-size="10.00">utility</text>
</a>
</g>
</g>
<!-- Node3&#45;&gt;Node14 -->
<g id="edge14" class="edge">
<title>Node3&#45;&gt;Node14</title>
<path fill="none" stroke="midnightblue" d="M655.17,-112.46C697.91,-104.54 762.5,-91.93 826.95,-76.24"/>
<polygon fill="midnightblue" stroke="midnightblue" points="828,-79.59 836.87,-73.8 826.32,-72.79 828,-79.59"/>
</g>
<!-- Node8&#45;&gt;Node7 -->
<g id="edge10" class="edge">
<title>Node8&#45;&gt;Node7</title>
<path fill="none" stroke="midnightblue" d="M543.33,-56.32C530.65,-47.98 511.27,-35.21 496.29,-25.35"/>
<polygon fill="midnightblue" stroke="midnightblue" points="497.92,-22.23 487.64,-19.65 494.07,-28.08 497.92,-22.23"/>
</g>
<!-- Node9 -->
<g id="node9" class="node">
<title>Node9</title>
<g id="a_node9"><a xlink:title=" ">
<polygon fill="white" stroke="#bfbfbf" points="525.5,-0.5 525.5,-19.5 581.5,-19.5 581.5,-0.5 525.5,-0.5"/>
<text text-anchor="middle" x="553.5" y="-7.5" font-family="Helvetica,sans-Serif" font-size="10.00">iomanip</text>
</a>
</g>
</g>
<!-- Node8&#45;&gt;Node9 -->
<g id="edge8" class="edge">
<title>Node8&#45;&gt;Node9</title>
<path fill="none" stroke="midnightblue" d="M556,-56.08C555.61,-49.01 555.05,-38.86 554.55,-29.99"/>
<polygon fill="midnightblue" stroke="midnightblue" points="558.04,-29.54 553.99,-19.75 551.05,-29.93 558.04,-29.54"/>
</g>
<!-- Node10 -->
<g id="node10" class="node">
<title>Node10</title>
<g id="a_node10"><a xlink:title=" ">
<polygon fill="white" stroke="#bfbfbf" points="599.5,-0.5 599.5,-19.5 655.5,-19.5 655.5,-0.5 599.5,-0.5"/>
<text text-anchor="middle" x="627.5" y="-7.5" font-family="Helvetica,sans-Serif" font-size="10.00">sstream</text>
</a>
</g>
</g>
<!-- Node8&#45;&gt;Node10 -->
<g id="edge9" class="edge">
<title>Node8&#45;&gt;Node10</title>
<path fill="none" stroke="midnightblue" d="M567.91,-56.32C578.61,-48.18 594.84,-35.84 607.66,-26.09"/>
<polygon fill="midnightblue" stroke="midnightblue" points="610.04,-28.67 615.89,-19.83 605.81,-23.1 610.04,-28.67"/>
</g>
<!-- Node8&#45;&gt;Node11 -->
<g id="edge11" class="edge">
<title>Node8&#45;&gt;Node11</title>
<path fill="none" stroke="midnightblue" d="M502.89,-56.8C428.65,-45.44 296.84,-25.28 235.97,-15.97"/>
<polygon fill="midnightblue" stroke="midnightblue" points="236.21,-12.46 225.8,-14.41 235.15,-19.38 236.21,-12.46"/>
</g>
<!-- Node12 -->
<g id="node12" class="node">
<title>Node12</title>
<g id="a_node12"><a xlink:title=" ">
<polygon fill="white" stroke="#bfbfbf" points="674,-0.5 674,-19.5 721,-19.5 721,-0.5 674,-0.5"/>
<text text-anchor="middle" x="697.5" y="-7.5" font-family="Helvetica,sans-Serif" font-size="10.00">vector</text>
</a>
</g>
</g>
<!-- Node8&#45;&gt;Node12 -->
<g id="edge12" class="edge">
<title>Node8&#45;&gt;Node12</title>
<path fill="none" stroke="midnightblue" d="M578.84,-56.44C602.25,-47.48 639.24,-33.31 665.69,-23.18"/>
<polygon fill="midnightblue" stroke="midnightblue" points="667.18,-26.36 675.26,-19.52 664.67,-19.82 667.18,-26.36"/>
</g>
<!-- Node15&#45;&gt;Node4 -->
<g id="edge17" class="edge">
<title>Node15&#45;&gt;Node4</title>
<path fill="none" stroke="midnightblue" d="M270.44,-112.44C299.16,-103.32 344.83,-88.81 376.82,-78.65"/>
<polygon fill="midnightblue" stroke="midnightblue" points="378.22,-81.88 386.69,-75.52 376.1,-75.21 378.22,-81.88"/>
</g>
<!-- Node15&#45;&gt;Node11 -->
<g id="edge20" class="edge">
<title>Node15&#45;&gt;Node11</title>
<path fill="none" stroke="midnightblue" d="M238.91,-112.21C234.35,-103.26 227.37,-88.91 222.5,-76 216.67,-60.53 211.51,-42.44 208.05,-29.28"/>
<polygon fill="midnightblue" stroke="midnightblue" points="211.43,-28.37 205.56,-19.55 204.64,-30.1 211.43,-28.37"/>
</g>
<!-- Node15&#45;&gt;Node16 -->
<g id="edge16" class="edge">
<title>Node15&#45;&gt;Node16</title>
<path fill="none" stroke="midnightblue" d="M229.2,-112.32C215.32,-103.9 194.01,-90.97 177.7,-81.07"/>
<polygon fill="midnightblue" stroke="midnightblue" points="179.13,-77.85 168.76,-75.65 175.5,-83.83 179.13,-77.85"/>
</g>
<!-- Node17 -->
<g id="node17" class="node">
<title>Node17</title>
<g id="a_node17"><a xlink:title=" ">
<polygon fill="white" stroke="#bfbfbf" points="231.5,-56.5 231.5,-75.5 287.5,-75.5 287.5,-56.5 231.5,-56.5"/>
<text text-anchor="middle" x="259.5" y="-63.5" font-family="Helvetica,sans-Serif" font-size="10.00">optional</text>
</a>
</g>
</g>
<!-- Node15&#45;&gt;Node17 -->
<g id="edge18" class="edge">
<title>Node15&#45;&gt;Node17</title>
<path fill="none" stroke="midnightblue" d="M246.14,-112.08C248.29,-104.85 251.38,-94.41 254.05,-85.4"/>
<polygon fill="midnightblue" stroke="midnightblue" points="257.42,-86.33 256.91,-75.75 250.71,-84.34 257.42,-86.33"/>
</g>
<!-- Node18 -->
<g id="node18" class="node">
<title>Node18</title>
<g id="a_node18"><a xlink:title=" ">
<polygon fill="white" stroke="#bfbfbf" points="306,-56.5 306,-75.5 363,-75.5 363,-56.5 306,-56.5"/>
<text text-anchor="middle" x="334.5" y="-63.5" font-family="Helvetica,sans-Serif" font-size="10.00">ostream</text>
</a>
</g>
</g>
<!-- Node15&#45;&gt;Node18 -->
<g id="edge19" class="edge">
<title>Node15&#45;&gt;Node18</title>
<path fill="none" stroke="midnightblue" d="M258.12,-112.32C272.45,-103.82 294.51,-90.73 311.25,-80.8"/>
<polygon fill="midnightblue" stroke="midnightblue" points="313.1,-83.77 319.92,-75.65 309.53,-77.75 313.1,-83.77"/>
</g>
</g>
</svg>
