<?xml version="1.0" encoding="UTF-8" standalone="no"?>
<!DOCTYPE svg PUBLIC "-//W3C//DTD SVG 1.1//EN"
 "http://www.w3.org/Graphics/SVG/1.1/DTD/svg11.dtd">
<!-- Generated by graphviz version 2.43.0 (0)
 -->
<!-- Title: lib/3rd_party_adapters/LVGL/Screen.hpp Pages: 1 -->
<svg width="177pt" height="151pt"
 viewBox="0.00 0.00 177.00 151.00" xmlns="http://www.w3.org/2000/svg" xmlns:xlink="http://www.w3.org/1999/xlink">
<g id="graph0" class="graph" transform="scale(1 1) rotate(0) translate(4 147)">
<title>lib/3rd_party_adapters/LVGL/Screen.hpp</title>
<polygon fill="white" stroke="transparent" points="-4,4 -4,-147 173,-147 173,4 -4,4"/>
<!-- Node1 -->
<g id="node1" class="node">
<title>Node1</title>
<g id="a_node1"><a xlink:title=" ">
<polygon fill="#bfbfbf" stroke="black" points="21.5,-112.5 21.5,-142.5 147.5,-142.5 147.5,-112.5 21.5,-112.5"/>
<text text-anchor="start" x="29.5" y="-130.5" font-family="Helvetica,sans-Serif" font-size="10.00">lib/3rd_party_adapters</text>
<text text-anchor="middle" x="84.5" y="-119.5" font-family="Helvetica,sans-Serif" font-size="10.00">/LVGL/Screen.hpp</text>
</a>
</g>
</g>
<!-- Node2 -->
<g id="node2" class="node">
<title>Node2</title>
<g id="a_node2"><a xlink:href="MenuItem_8hpp.xhtml" target="_top" xlink:title=" ">
<polygon fill="white" stroke="black" points="0,-56.5 0,-75.5 169,-75.5 169,-56.5 0,-56.5"/>
<text text-anchor="middle" x="84.5" y="-63.5" font-family="Helvetica,sans-Serif" font-size="10.00">user_interaction/MenuItem.hpp</text>
</a>
</g>
</g>
<!-- Node1&#45;&gt;Node2 -->
<g id="edge1" class="edge">
<title>Node1&#45;&gt;Node2</title>
<path fill="none" stroke="midnightblue" d="M84.5,-112.4C84.5,-104.47 84.5,-94.46 84.5,-85.86"/>
<polygon fill="midnightblue" stroke="midnightblue" points="88,-85.66 84.5,-75.66 81,-85.66 88,-85.66"/>
</g>
<!-- Node3 -->
<g id="node3" class="node">
<title>Node3</title>
<g id="a_node3"><a xlink:title=" ">
<polygon fill="white" stroke="#bfbfbf" points="30.5,-0.5 30.5,-19.5 74.5,-19.5 74.5,-0.5 30.5,-0.5"/>
<text text-anchor="middle" x="52.5" y="-7.5" font-family="Helvetica,sans-Serif" font-size="10.00">string</text>
</a>
</g>
</g>
<!-- Node2&#45;&gt;Node3 -->
<g id="edge2" class="edge">
<title>Node2&#45;&gt;Node3</title>
<path fill="none" stroke="midnightblue" d="M79.22,-56.08C74.79,-48.61 68.34,-37.72 62.88,-28.52"/>
<polygon fill="midnightblue" stroke="midnightblue" points="65.79,-26.57 57.69,-19.75 59.77,-30.14 65.79,-26.57"/>
</g>
<!-- Node4 -->
<g id="node4" class="node">
<title>Node4</title>
<g id="a_node4"><a xlink:title=" ">
<polygon fill="white" stroke="#bfbfbf" points="93,-0.5 93,-19.5 140,-19.5 140,-0.5 93,-0.5"/>
<text text-anchor="middle" x="116.5" y="-7.5" font-family="Helvetica,sans-Serif" font-size="10.00">vector</text>
</a>
</g>
</g>
<!-- Node2&#45;&gt;Node4 -->
<g id="edge3" class="edge">
<title>Node2&#45;&gt;Node4</title>
<path fill="none" stroke="midnightblue" d="M89.78,-56.08C94.21,-48.61 100.66,-37.72 106.12,-28.52"/>
<polygon fill="midnightblue" stroke="midnightblue" points="109.23,-30.14 111.31,-19.75 103.21,-26.57 109.23,-30.14"/>
</g>
</g>
</svg>
