<?xml version="1.0" encoding="UTF-8" standalone="no"?>
<!DOCTYPE svg PUBLIC "-//W3C//DTD SVG 1.1//EN"
 "http://www.w3.org/Graphics/SVG/1.1/DTD/svg11.dtd">
<!-- Generated by graphviz version 2.43.0 (0)
 -->
<!-- Title: lib/3rd_party_adapters/LVGL/Screen.cpp Pages: 1 -->
<svg width="258pt" height="207pt"
 viewBox="0.00 0.00 257.50 207.00" xmlns="http://www.w3.org/2000/svg" xmlns:xlink="http://www.w3.org/1999/xlink">
<g id="graph0" class="graph" transform="scale(1 1) rotate(0) translate(4 203)">
<title>lib/3rd_party_adapters/LVGL/Screen.cpp</title>
<polygon fill="white" stroke="transparent" points="-4,4 -4,-203 253.5,-203 253.5,4 -4,4"/>
<!-- Node1 -->
<g id="node1" class="node">
<title>Node1</title>
<g id="a_node1"><a xlink:title=" ">
<polygon fill="#bfbfbf" stroke="black" points="100,-168.5 100,-198.5 226,-198.5 226,-168.5 100,-168.5"/>
<text text-anchor="start" x="108" y="-186.5" font-family="Helvetica,sans-Serif" font-size="10.00">lib/3rd_party_adapters</text>
<text text-anchor="middle" x="163" y="-175.5" font-family="Helvetica,sans-Serif" font-size="10.00">/LVGL/Screen.cpp</text>
</a>
</g>
</g>
<!-- Node2 -->
<g id="node2" class="node">
<title>Node2</title>
<g id="a_node2"><a xlink:href="Screen_8hpp.xhtml" target="_top" xlink:title=" ">
<polygon fill="white" stroke="black" points="48.5,-112.5 48.5,-131.5 119.5,-131.5 119.5,-112.5 48.5,-112.5"/>
<text text-anchor="middle" x="84" y="-119.5" font-family="Helvetica,sans-Serif" font-size="10.00">Screen.hpp</text>
</a>
</g>
</g>
<!-- Node1&#45;&gt;Node2 -->
<g id="edge1" class="edge">
<title>Node1&#45;&gt;Node2</title>
<path fill="none" stroke="midnightblue" d="M144.28,-168.4C132.09,-159.22 116.21,-147.26 103.81,-137.92"/>
<polygon fill="midnightblue" stroke="midnightblue" points="105.59,-134.88 95.5,-131.66 101.38,-140.47 105.59,-134.88"/>
</g>
<!-- Node8 -->
<g id="node8" class="node">
<title>Node8</title>
<g id="a_node8"><a xlink:title=" ">
<polygon fill="white" stroke="#bfbfbf" points="137.5,-112.5 137.5,-131.5 188.5,-131.5 188.5,-112.5 137.5,-112.5"/>
<text text-anchor="middle" x="163" y="-119.5" font-family="Helvetica,sans-Serif" font-size="10.00">math.h</text>
</a>
</g>
</g>
<!-- Node1&#45;&gt;Node8 -->
<g id="edge7" class="edge">
<title>Node1&#45;&gt;Node8</title>
<path fill="none" stroke="midnightblue" d="M163,-168.4C163,-160.47 163,-150.46 163,-141.86"/>
<polygon fill="midnightblue" stroke="midnightblue" points="166.5,-141.66 163,-131.66 159.5,-141.66 166.5,-141.66"/>
</g>
<!-- Node9 -->
<g id="node9" class="node">
<title>Node9</title>
<g id="a_node9"><a xlink:title=" ">
<polygon fill="white" stroke="#bfbfbf" points="206.5,-112.5 206.5,-131.5 249.5,-131.5 249.5,-112.5 206.5,-112.5"/>
<text text-anchor="middle" x="228" y="-119.5" font-family="Helvetica,sans-Serif" font-size="10.00">stack</text>
</a>
</g>
</g>
<!-- Node1&#45;&gt;Node9 -->
<g id="edge8" class="edge">
<title>Node1&#45;&gt;Node9</title>
<path fill="none" stroke="midnightblue" d="M178.4,-168.4C188.24,-159.4 200.99,-147.72 211.11,-138.47"/>
<polygon fill="midnightblue" stroke="midnightblue" points="213.53,-140.99 218.54,-131.66 208.8,-135.83 213.53,-140.99"/>
</g>
<!-- Node3 -->
<g id="node3" class="node">
<title>Node3</title>
<g id="a_node3"><a xlink:title=" ">
<polygon fill="white" stroke="#bfbfbf" points="0,-56.5 0,-75.5 44,-75.5 44,-56.5 0,-56.5"/>
<text text-anchor="middle" x="22" y="-63.5" font-family="Helvetica,sans-Serif" font-size="10.00">lvgl.h</text>
</a>
</g>
</g>
<!-- Node2&#45;&gt;Node3 -->
<g id="edge2" class="edge">
<title>Node2&#45;&gt;Node3</title>
<path fill="none" stroke="midnightblue" d="M74.04,-112.32C64.87,-104.34 51.06,-92.31 39.97,-82.65"/>
<polygon fill="midnightblue" stroke="midnightblue" points="41.98,-79.76 32.14,-75.83 37.38,-85.04 41.98,-79.76"/>
</g>
<!-- Node4 -->
<g id="node4" class="node">
<title>Node4</title>
<g id="a_node4"><a xlink:href="MenuItem_8hpp.xhtml" target="_top" xlink:title=" ">
<polygon fill="white" stroke="black" points="61.5,-56.5 61.5,-75.5 230.5,-75.5 230.5,-56.5 61.5,-56.5"/>
<text text-anchor="middle" x="146" y="-63.5" font-family="Helvetica,sans-Serif" font-size="10.00">user_interaction/MenuItem.hpp</text>
</a>
</g>
</g>
<!-- Node2&#45;&gt;Node4 -->
<g id="edge3" class="edge">
<title>Node2&#45;&gt;Node4</title>
<path fill="none" stroke="midnightblue" d="M93.96,-112.32C103.13,-104.34 116.94,-92.31 128.03,-82.65"/>
<polygon fill="midnightblue" stroke="midnightblue" points="130.62,-85.04 135.86,-75.83 126.02,-79.76 130.62,-85.04"/>
</g>
<!-- Node5 -->
<g id="node5" class="node">
<title>Node5</title>
<g id="a_node5"><a xlink:title=" ">
<polygon fill="white" stroke="#bfbfbf" points="56,-0.5 56,-19.5 106,-19.5 106,-0.5 56,-0.5"/>
<text text-anchor="middle" x="81" y="-7.5" font-family="Helvetica,sans-Serif" font-size="10.00">cstdint</text>
</a>
</g>
</g>
<!-- Node4&#45;&gt;Node5 -->
<g id="edge4" class="edge">
<title>Node4&#45;&gt;Node5</title>
<path fill="none" stroke="midnightblue" d="M135.56,-56.32C125.85,-48.26 111.18,-36.08 99.5,-26.37"/>
<polygon fill="midnightblue" stroke="midnightblue" points="101.56,-23.53 91.63,-19.83 97.09,-28.92 101.56,-23.53"/>
</g>
<!-- Node6 -->
<g id="node6" class="node">
<title>Node6</title>
<g id="a_node6"><a xlink:title=" ">
<polygon fill="white" stroke="#bfbfbf" points="124,-0.5 124,-19.5 168,-19.5 168,-0.5 124,-0.5"/>
<text text-anchor="middle" x="146" y="-7.5" font-family="Helvetica,sans-Serif" font-size="10.00">string</text>
</a>
</g>
</g>
<!-- Node4&#45;&gt;Node6 -->
<g id="edge5" class="edge">
<title>Node4&#45;&gt;Node6</title>
<path fill="none" stroke="midnightblue" d="M146,-56.08C146,-49.01 146,-38.86 146,-29.99"/>
<polygon fill="midnightblue" stroke="midnightblue" points="149.5,-29.75 146,-19.75 142.5,-29.75 149.5,-29.75"/>
</g>
<!-- Node7 -->
<g id="node7" class="node">
<title>Node7</title>
<g id="a_node7"><a xlink:title=" ">
<polygon fill="white" stroke="#bfbfbf" points="186.5,-0.5 186.5,-19.5 233.5,-19.5 233.5,-0.5 186.5,-0.5"/>
<text text-anchor="middle" x="210" y="-7.5" font-family="Helvetica,sans-Serif" font-size="10.00">vector</text>
</a>
</g>
</g>
<!-- Node4&#45;&gt;Node7 -->
<g id="edge6" class="edge">
<title>Node4&#45;&gt;Node7</title>
<path fill="none" stroke="midnightblue" d="M156.28,-56.32C165.84,-48.26 180.28,-36.08 191.78,-26.37"/>
<polygon fill="midnightblue" stroke="midnightblue" points="194.14,-28.96 199.53,-19.83 189.63,-23.61 194.14,-28.96"/>
</g>
</g>
</svg>
