<?xml version="1.0" encoding="UTF-8" standalone="no"?>
<!DOCTYPE svg PUBLIC "-//W3C//DTD SVG 1.1//EN"
 "http://www.w3.org/Graphics/SVG/1.1/DTD/svg11.dtd">
<!-- Generated by graphviz version 2.43.0 (0)
 -->
<!-- Title: lib/3rd_party_adapters/LVGL/Screen.cpp Pages: 1 -->
<svg width="321pt" height="207pt"
 viewBox="0.00 0.00 321.00 207.00" xmlns="http://www.w3.org/2000/svg" xmlns:xlink="http://www.w3.org/1999/xlink">
<g id="graph0" class="graph" transform="scale(1 1) rotate(0) translate(4 203)">
<title>lib/3rd_party_adapters/LVGL/Screen.cpp</title>
<polygon fill="white" stroke="transparent" points="-4,4 -4,-203 317,-203 317,4 -4,4"/>
<!-- Node1 -->
<g id="node1" class="node">
<title>Node1</title>
<g id="a_node1"><a xlink:title=" ">
<polygon fill="#bfbfbf" stroke="black" points="128.5,-168.5 128.5,-198.5 254.5,-198.5 254.5,-168.5 128.5,-168.5"/>
<text text-anchor="start" x="136.5" y="-186.5" font-family="Helvetica,sans-Serif" font-size="10.00">lib/3rd_party_adapters</text>
<text text-anchor="middle" x="191.5" y="-175.5" font-family="Helvetica,sans-Serif" font-size="10.00">/LVGL/Screen.cpp</text>
</a>
</g>
</g>
<!-- Node2 -->
<g id="node2" class="node">
<title>Node2</title>
<g id="a_node2"><a xlink:href="Screen_8hpp.xhtml" target="_top" xlink:title=" ">
<polygon fill="white" stroke="black" points="49,-112.5 49,-131.5 120,-131.5 120,-112.5 49,-112.5"/>
<text text-anchor="middle" x="84.5" y="-119.5" font-family="Helvetica,sans-Serif" font-size="10.00">Screen.hpp</text>
</a>
</g>
</g>
<!-- Node1&#45;&gt;Node2 -->
<g id="edge1" class="edge">
<title>Node1&#45;&gt;Node2</title>
<path fill="none" stroke="midnightblue" d="M166.14,-168.4C148.83,-158.77 126.02,-146.09 108.92,-136.58"/>
<polygon fill="midnightblue" stroke="midnightblue" points="110.51,-133.46 100.07,-131.66 107.11,-139.58 110.51,-133.46"/>
</g>
<!-- Node6 -->
<g id="node6" class="node">
<title>Node6</title>
<g id="a_node6"><a xlink:title=" ">
<polygon fill="white" stroke="#bfbfbf" points="138.5,-112.5 138.5,-131.5 182.5,-131.5 182.5,-112.5 138.5,-112.5"/>
<text text-anchor="middle" x="160.5" y="-119.5" font-family="Helvetica,sans-Serif" font-size="10.00">lvgl.h</text>
</a>
</g>
</g>
<!-- Node1&#45;&gt;Node6 -->
<g id="edge5" class="edge">
<title>Node1&#45;&gt;Node6</title>
<path fill="none" stroke="midnightblue" d="M184.15,-168.4C179.83,-160.11 174.33,-149.55 169.73,-140.71"/>
<polygon fill="midnightblue" stroke="midnightblue" points="172.74,-138.91 165.01,-131.66 166.53,-142.14 172.74,-138.91"/>
</g>
<!-- Node7 -->
<g id="node7" class="node">
<title>Node7</title>
<g id="a_node7"><a xlink:title=" ">
<polygon fill="white" stroke="#bfbfbf" points="201,-112.5 201,-131.5 244,-131.5 244,-112.5 201,-112.5"/>
<text text-anchor="middle" x="222.5" y="-119.5" font-family="Helvetica,sans-Serif" font-size="10.00">stack</text>
</a>
</g>
</g>
<!-- Node1&#45;&gt;Node7 -->
<g id="edge6" class="edge">
<title>Node1&#45;&gt;Node7</title>
<path fill="none" stroke="midnightblue" d="M198.85,-168.4C203.17,-160.11 208.67,-149.55 213.27,-140.71"/>
<polygon fill="midnightblue" stroke="midnightblue" points="216.47,-142.14 217.99,-131.66 210.26,-138.91 216.47,-142.14"/>
</g>
<!-- Node8 -->
<g id="node8" class="node">
<title>Node8</title>
<g id="a_node8"><a xlink:title=" ">
<polygon fill="white" stroke="#bfbfbf" points="262,-112.5 262,-131.5 313,-131.5 313,-112.5 262,-112.5"/>
<text text-anchor="middle" x="287.5" y="-119.5" font-family="Helvetica,sans-Serif" font-size="10.00">math.h</text>
</a>
</g>
</g>
<!-- Node1&#45;&gt;Node8 -->
<g id="edge7" class="edge">
<title>Node1&#45;&gt;Node8</title>
<path fill="none" stroke="midnightblue" d="M214.25,-168.4C229.49,-158.95 249.49,-146.56 264.74,-137.11"/>
<polygon fill="midnightblue" stroke="midnightblue" points="266.88,-139.9 273.53,-131.66 263.19,-133.95 266.88,-139.9"/>
</g>
<!-- Node3 -->
<g id="node3" class="node">
<title>Node3</title>
<g id="a_node3"><a xlink:href="MenuItem_8hpp.xhtml" target="_top" xlink:title=" ">
<polygon fill="white" stroke="black" points="0,-56.5 0,-75.5 169,-75.5 169,-56.5 0,-56.5"/>
<text text-anchor="middle" x="84.5" y="-63.5" font-family="Helvetica,sans-Serif" font-size="10.00">user_interaction/MenuItem.hpp</text>
</a>
</g>
</g>
<!-- Node2&#45;&gt;Node3 -->
<g id="edge2" class="edge">
<title>Node2&#45;&gt;Node3</title>
<path fill="none" stroke="midnightblue" d="M84.5,-112.08C84.5,-105.01 84.5,-94.86 84.5,-85.99"/>
<polygon fill="midnightblue" stroke="midnightblue" points="88,-85.75 84.5,-75.75 81,-85.75 88,-85.75"/>
</g>
<!-- Node4 -->
<g id="node4" class="node">
<title>Node4</title>
<g id="a_node4"><a xlink:title=" ">
<polygon fill="white" stroke="#bfbfbf" points="30.5,-0.5 30.5,-19.5 74.5,-19.5 74.5,-0.5 30.5,-0.5"/>
<text text-anchor="middle" x="52.5" y="-7.5" font-family="Helvetica,sans-Serif" font-size="10.00">string</text>
</a>
</g>
</g>
<!-- Node3&#45;&gt;Node4 -->
<g id="edge3" class="edge">
<title>Node3&#45;&gt;Node4</title>
<path fill="none" stroke="midnightblue" d="M79.22,-56.08C74.79,-48.61 68.34,-37.72 62.88,-28.52"/>
<polygon fill="midnightblue" stroke="midnightblue" points="65.79,-26.57 57.69,-19.75 59.77,-30.14 65.79,-26.57"/>
</g>
<!-- Node5 -->
<g id="node5" class="node">
<title>Node5</title>
<g id="a_node5"><a xlink:title=" ">
<polygon fill="white" stroke="#bfbfbf" points="93,-0.5 93,-19.5 140,-19.5 140,-0.5 93,-0.5"/>
<text text-anchor="middle" x="116.5" y="-7.5" font-family="Helvetica,sans-Serif" font-size="10.00">vector</text>
</a>
</g>
</g>
<!-- Node3&#45;&gt;Node5 -->
<g id="edge4" class="edge">
<title>Node3&#45;&gt;Node5</title>
<path fill="none" stroke="midnightblue" d="M89.78,-56.08C94.21,-48.61 100.66,-37.72 106.12,-28.52"/>
<polygon fill="midnightblue" stroke="midnightblue" points="109.23,-30.14 111.31,-19.75 103.21,-26.57 109.23,-30.14"/>
</g>
</g>
</svg>
