<?xml version="1.0" encoding="UTF-8" standalone="no"?>
<!DOCTYPE svg PUBLIC "-//W3C//DTD SVG 1.1//EN"
 "http://www.w3.org/Graphics/SVG/1.1/DTD/svg11.dtd">
<!-- Generated by graphviz version 2.43.0 (0)
 -->
<!-- Title: MenuItemSwitch Pages: 1 -->
<svg width="238pt" height="248pt"
 viewBox="0.00 0.00 238.00 248.00" xmlns="http://www.w3.org/2000/svg" xmlns:xlink="http://www.w3.org/1999/xlink">
<g id="graph0" class="graph" transform="scale(1 1) rotate(0) translate(4 244)">
<title>MenuItemSwitch</title>
<polygon fill="white" stroke="transparent" points="-4,4 -4,-244 234,-244 234,4 -4,4"/>
<!-- Node1 -->
<g id="node1" class="node">
<title>Node1</title>
<g id="a_node1"><a xlink:title="menu item to show and change boolean variables">
<polygon fill="#bfbfbf" stroke="black" points="70.5,-0.5 70.5,-101.5 195.5,-101.5 195.5,-0.5 70.5,-0.5"/>
<text text-anchor="middle" x="133" y="-89.5" font-family="Helvetica,sans-Serif" font-size="10.00">MenuItemSwitch</text>
<polyline fill="none" stroke="black" points="70.5,-82.5 195.5,-82.5 "/>
<text text-anchor="middle" x="133" y="-70.5" font-family="Helvetica,sans-Serif" font-size="10.00"> </text>
<polyline fill="none" stroke="black" points="70.5,-63.5 195.5,-63.5 "/>
<text text-anchor="start" x="78.5" y="-51.5" font-family="Helvetica,sans-Serif" font-size="10.00">+ MenuItemSwitch()</text>
<text text-anchor="start" x="78.5" y="-40.5" font-family="Helvetica,sans-Serif" font-size="10.00">+ ~MenuItemSwitch()</text>
<text text-anchor="start" x="78.5" y="-29.5" font-family="Helvetica,sans-Serif" font-size="10.00">+ getText()</text>
<text text-anchor="start" x="78.5" y="-18.5" font-family="Helvetica,sans-Serif" font-size="10.00">+ getType()</text>
<text text-anchor="start" x="78.5" y="-7.5" font-family="Helvetica,sans-Serif" font-size="10.00">+ getPtrBool()</text>
</a>
</g>
</g>
<!-- Node2 -->
<g id="node2" class="node">
<title>Node2</title>
<g id="a_node2"><a xlink:href="classIMenuItem.xhtml" target="_top" xlink:title="interface for all menu items">
<polygon fill="white" stroke="black" points="0,-149.5 0,-239.5 96,-239.5 96,-149.5 0,-149.5"/>
<text text-anchor="middle" x="48" y="-227.5" font-family="Helvetica,sans-Serif" font-size="10.00">IMenuItem</text>
<polyline fill="none" stroke="black" points="0,-220.5 96,-220.5 "/>
<text text-anchor="middle" x="48" y="-208.5" font-family="Helvetica,sans-Serif" font-size="10.00"> </text>
<polyline fill="none" stroke="black" points="0,-201.5 96,-201.5 "/>
<text text-anchor="start" x="8" y="-189.5" font-family="Helvetica,sans-Serif" font-size="10.00">+ IMenuItem()</text>
<text text-anchor="start" x="8" y="-178.5" font-family="Helvetica,sans-Serif" font-size="10.00">+ ~IMenuItem()</text>
<text text-anchor="start" x="8" y="-167.5" font-family="Helvetica,sans-Serif" font-size="10.00">+ getText()</text>
<text text-anchor="start" x="8" y="-156.5" font-family="Helvetica,sans-Serif" font-size="10.00">+ getType()</text>
</a>
</g>
</g>
<!-- Node2&#45;&gt;Node1 -->
<g id="edge1" class="edge">
<title>Node2&#45;&gt;Node1</title>
<path fill="none" stroke="midnightblue" d="M79.86,-140.46C87.5,-127.74 95.63,-114.2 103.18,-101.64"/>
<polygon fill="none" stroke="midnightblue" points="76.81,-138.74 74.66,-149.12 82.81,-142.35 76.81,-138.74"/>
</g>
<!-- Node3 -->
<g id="node3" class="node">
<title>Node3</title>
<g id="a_node3"><a xlink:title=" ">
<polygon fill="white" stroke="#bfbfbf" points="114,-166 114,-223 152,-223 152,-166 114,-166"/>
<text text-anchor="middle" x="133" y="-211" font-family="Helvetica,sans-Serif" font-size="10.00">bool</text>
<polyline fill="none" stroke="#bfbfbf" points="114,-204 152,-204 "/>
<text text-anchor="middle" x="133" y="-192" font-family="Helvetica,sans-Serif" font-size="10.00"> </text>
<polyline fill="none" stroke="#bfbfbf" points="114,-185 152,-185 "/>
<text text-anchor="middle" x="133" y="-173" font-family="Helvetica,sans-Serif" font-size="10.00"> </text>
</a>
</g>
</g>
<!-- Node3&#45;&gt;Node1 -->
<g id="edge2" class="edge">
<title>Node3&#45;&gt;Node1</title>
<path fill="none" stroke="#404040" d="M133,-165.88C133,-150.98 133,-131.94 133,-113.72"/>
<polygon fill="none" stroke="#404040" points="133,-113.6 129,-107.6 133,-101.6 137,-107.6 133,-113.6"/>
<text text-anchor="middle" x="159" y="-123" font-family="Helvetica,sans-Serif" font-size="10.00"> #_ptrBool</text>
</g>
<!-- Node4 -->
<g id="node4" class="node">
<title>Node4</title>
<g id="a_node4"><a xlink:title=" ">
<polygon fill="white" stroke="#bfbfbf" points="186,-166 186,-223 230,-223 230,-166 186,-166"/>
<text text-anchor="middle" x="208" y="-211" font-family="Helvetica,sans-Serif" font-size="10.00">string</text>
<polyline fill="none" stroke="#bfbfbf" points="186,-204 230,-204 "/>
<text text-anchor="middle" x="208" y="-192" font-family="Helvetica,sans-Serif" font-size="10.00"> </text>
<polyline fill="none" stroke="#bfbfbf" points="186,-185 230,-185 "/>
<text text-anchor="middle" x="208" y="-173" font-family="Helvetica,sans-Serif" font-size="10.00"> </text>
</a>
</g>
</g>
<!-- Node4&#45;&gt;Node1 -->
<g id="edge3" class="edge">
<title>Node4&#45;&gt;Node1</title>
<path fill="none" stroke="#404040" d="M202.27,-165.69C198.71,-151.53 193.39,-134.32 186,-120 184.62,-117.32 183.13,-114.65 181.55,-111.99"/>
<polygon fill="none" stroke="#404040" points="181.54,-111.98 174.95,-109.06 175.11,-101.85 181.7,-104.77 181.54,-111.98"/>
<text text-anchor="middle" x="208.5" y="-123" font-family="Helvetica,sans-Serif" font-size="10.00"> #_text</text>
</g>
</g>
</svg>
