<?xml version="1.0" encoding="UTF-8" standalone="no"?>
<!DOCTYPE svg PUBLIC "-//W3C//DTD SVG 1.1//EN"
 "http://www.w3.org/Graphics/SVG/1.1/DTD/svg11.dtd">
<!-- Generated by graphviz version 7.0.5 (20221223.1930)
 -->
<!-- Title: lib/3rd_party_adapters/nlohmann/JsonGenerator.cpp Pages: 1 -->
<svg width="633pt" height="214pt"
 viewBox="0.00 0.00 632.50 214.00" xmlns="http://www.w3.org/2000/svg" xmlns:xlink="http://www.w3.org/1999/xlink">
<g id="graph0" class="graph" transform="scale(1 1) rotate(0) translate(4 210)">
<title>lib/3rd_party_adapters/nlohmann/JsonGenerator.cpp</title>
<!-- Node1 -->
<g id="node1" class="node">
<title>Node1</title>
<g id="a_node1"><a xlink:title=" ">
<polygon fill="#999999" stroke="#666666" points="369,-206 223,-206 223,-176 369,-176 369,-206"/>
<text text-anchor="start" x="231" y="-194" font-family="Helvetica,sans-Serif" font-size="10.00">lib/3rd_party_adapters</text>
<text text-anchor="middle" x="296" y="-183" font-family="Helvetica,sans-Serif" font-size="10.00">/nlohmann/JsonGenerator.cpp</text>
</a>
</g>
</g>
<!-- Node2 -->
<g id="node2" class="node">
<title>Node2</title>
<g id="a_node2"><a xlink:title=" ">
<polygon fill="#e0e0e0" stroke="#999999" points="98,-134.5 0,-134.5 0,-115.5 98,-115.5 98,-134.5"/>
<text text-anchor="middle" x="49" y="-122.5" font-family="Helvetica,sans-Serif" font-size="10.00">nlohmann/json.hpp</text>
</a>
</g>
</g>
<!-- Node1&#45;&gt;Node2 -->
<g id="edge1" class="edge">
<title>Node1&#45;&gt;Node2</title>
<path fill="none" stroke="#63b8ff" d="M240.26,-175.56C196.3,-164.17 135.75,-148.48 94.64,-137.83"/>
<polygon fill="#63b8ff" stroke="#63b8ff" points="95.61,-134.46 85.06,-135.34 93.86,-141.24 95.61,-134.46"/>
</g>
<!-- Node3 -->
<g id="node3" class="node">
<title>Node3</title>
<g id="a_node3"><a xlink:href="JsonGenerator_8hpp.xhtml" target="_top" xlink:title=" ">
<polygon fill="white" stroke="#666666" points="268.5,-74 101.5,-74 101.5,-55 268.5,-55 268.5,-74"/>
<text text-anchor="middle" x="185" y="-62" font-family="Helvetica,sans-Serif" font-size="10.00">serial_interface/JsonGenerator.hpp</text>
</a>
</g>
</g>
<!-- Node1&#45;&gt;Node3 -->
<g id="edge2" class="edge">
<title>Node1&#45;&gt;Node3</title>
<path fill="none" stroke="#63b8ff" d="M222.82,-183.96C193.72,-177.55 162.95,-164.85 145,-140 131.58,-121.42 149.4,-97.8 165.35,-82.2"/>
<polygon fill="#63b8ff" stroke="#63b8ff" points="167.69,-84.8 172.69,-75.46 162.96,-79.64 167.69,-84.8"/>
</g>
<!-- Node5 -->
<g id="node5" class="node">
<title>Node5</title>
<g id="a_node5"><a xlink:href="DeletedTaskObject_8hpp.xhtml" target="_top" xlink:title=" ">
<polygon fill="white" stroke="#666666" points="291.5,-140 154.5,-140 154.5,-110 291.5,-110 291.5,-140"/>
<text text-anchor="start" x="162.5" y="-128" font-family="Helvetica,sans-Serif" font-size="10.00">serial_protocol/DeletedTask</text>
<text text-anchor="middle" x="223" y="-117" font-family="Helvetica,sans-Serif" font-size="10.00">Object.hpp</text>
</a>
</g>
</g>
<!-- Node1&#45;&gt;Node5 -->
<g id="edge4" class="edge">
<title>Node1&#45;&gt;Node5</title>
<path fill="none" stroke="#63b8ff" d="M279.8,-175.8C270.41,-167.57 258.4,-157.04 247.85,-147.78"/>
<polygon fill="#63b8ff" stroke="#63b8ff" points="250.37,-145.34 240.55,-141.38 245.76,-150.61 250.37,-145.34"/>
</g>
<!-- Node6 -->
<g id="node6" class="node">
<title>Node6</title>
<g id="a_node6"><a xlink:href="ProtocolVersionObject_8hpp.xhtml" target="_top" xlink:title=" ">
<polygon fill="white" stroke="#666666" points="428.5,-140 309.5,-140 309.5,-110 428.5,-110 428.5,-140"/>
<text text-anchor="start" x="317.5" y="-128" font-family="Helvetica,sans-Serif" font-size="10.00">serial_protocol/Protocol</text>
<text text-anchor="middle" x="369" y="-117" font-family="Helvetica,sans-Serif" font-size="10.00">VersionObject.hpp</text>
</a>
</g>
</g>
<!-- Node1&#45;&gt;Node6 -->
<g id="edge5" class="edge">
<title>Node1&#45;&gt;Node6</title>
<path fill="none" stroke="#63b8ff" d="M312.2,-175.8C321.59,-167.57 333.6,-157.04 344.15,-147.78"/>
<polygon fill="#63b8ff" stroke="#63b8ff" points="346.24,-150.61 351.45,-141.38 341.63,-145.34 346.24,-150.61"/>
</g>
<!-- Node8 -->
<g id="node8" class="node">
<title>Node8</title>
<g id="a_node8"><a xlink:href="TaskList_8hpp.xhtml" target="_top" xlink:title=" ">
<polygon fill="white" stroke="#666666" points="624.5,-134.5 485.5,-134.5 485.5,-115.5 624.5,-115.5 624.5,-134.5"/>
<text text-anchor="middle" x="555" y="-122.5" font-family="Helvetica,sans-Serif" font-size="10.00">serial_protocol/TaskList.hpp</text>
</a>
</g>
</g>
<!-- Node1&#45;&gt;Node8 -->
<g id="edge7" class="edge">
<title>Node1&#45;&gt;Node8</title>
<path fill="none" stroke="#63b8ff" d="M354.45,-175.56C400.74,-164.12 464.58,-148.34 507.69,-137.69"/>
<polygon fill="#63b8ff" stroke="#63b8ff" points="508.39,-141.12 517.26,-135.33 506.71,-134.33 508.39,-141.12"/>
</g>
<!-- Node9 -->
<g id="node9" class="node">
<title>Node9</title>
<g id="a_node9"><a xlink:href="TaskObject_8hpp.xhtml" target="_top" xlink:title=" ">
<polygon fill="white" stroke="#666666" points="499.5,-74 414.5,-74 414.5,-55 499.5,-55 499.5,-74"/>
<text text-anchor="middle" x="457" y="-62" font-family="Helvetica,sans-Serif" font-size="10.00">TaskObject.hpp</text>
</a>
</g>
</g>
<!-- Node1&#45;&gt;Node9 -->
<g id="edge12" class="edge">
<title>Node1&#45;&gt;Node9</title>
<path fill="none" stroke="#63b8ff" d="M369.26,-178.28C393.74,-170.99 419.28,-159.17 437,-140 450.76,-125.11 455.24,-101.77 456.61,-85.19"/>
<polygon fill="#63b8ff" stroke="#63b8ff" points="460.08,-85.75 457.07,-75.59 453.09,-85.41 460.08,-85.75"/>
</g>
<!-- Node4 -->
<g id="node4" class="node">
<title>Node4</title>
<g id="a_node4"><a xlink:title=" ">
<polygon fill="#e0e0e0" stroke="#999999" points="310.5,-19 269.5,-19 269.5,0 310.5,0 310.5,-19"/>
<text text-anchor="middle" x="290" y="-7" font-family="Helvetica,sans-Serif" font-size="10.00">string</text>
</a>
</g>
</g>
<!-- Node3&#45;&gt;Node4 -->
<g id="edge3" class="edge">
<title>Node3&#45;&gt;Node4</title>
<path fill="none" stroke="#63b8ff" d="M202.81,-54.51C219.13,-46.27 243.53,-33.96 262.37,-24.45"/>
<polygon fill="#63b8ff" stroke="#63b8ff" points="263.75,-27.67 271.1,-20.04 260.6,-21.42 263.75,-27.67"/>
</g>
<!-- Node7 -->
<g id="node7" class="node">
<title>Node7</title>
<g id="a_node7"><a xlink:title=" ">
<polygon fill="#e0e0e0" stroke="#999999" points="392,-74 346,-74 346,-55 392,-55 392,-74"/>
<text text-anchor="middle" x="369" y="-62" font-family="Helvetica,sans-Serif" font-size="10.00">cstdint</text>
</a>
</g>
</g>
<!-- Node6&#45;&gt;Node7 -->
<g id="edge6" class="edge">
<title>Node6&#45;&gt;Node7</title>
<path fill="none" stroke="#63b8ff" d="M369,-109.54C369,-102.34 369,-93.53 369,-85.68"/>
<polygon fill="#63b8ff" stroke="#63b8ff" points="372.5,-85.69 369,-75.69 365.5,-85.69 372.5,-85.69"/>
</g>
<!-- Node8&#45;&gt;Node9 -->
<g id="edge8" class="edge">
<title>Node8&#45;&gt;Node9</title>
<path fill="none" stroke="#63b8ff" d="M540.12,-115.12C524.65,-105.88 500.17,-91.27 481.78,-80.29"/>
<polygon fill="#63b8ff" stroke="#63b8ff" points="483.7,-77.36 473.32,-75.24 480.12,-83.38 483.7,-77.36"/>
</g>
<!-- Node11 -->
<g id="node11" class="node">
<title>Node11</title>
<g id="a_node11"><a xlink:title=" ">
<polygon fill="#e0e0e0" stroke="#999999" points="577,-74 533,-74 533,-55 577,-55 577,-74"/>
<text text-anchor="middle" x="555" y="-62" font-family="Helvetica,sans-Serif" font-size="10.00">vector</text>
</a>
</g>
</g>
<!-- Node8&#45;&gt;Node11 -->
<g id="edge11" class="edge">
<title>Node8&#45;&gt;Node11</title>
<path fill="none" stroke="#63b8ff" d="M555,-115.37C555,-107.5 555,-95.6 555,-85.39"/>
<polygon fill="#63b8ff" stroke="#63b8ff" points="558.5,-85.68 555,-75.68 551.5,-85.68 558.5,-85.68"/>
</g>
<!-- Node9&#45;&gt;Node4 -->
<g id="edge10" class="edge">
<title>Node9&#45;&gt;Node4</title>
<path fill="none" stroke="#63b8ff" d="M428.67,-54.51C398.92,-45.07 352.25,-30.25 321.39,-20.46"/>
<polygon fill="#63b8ff" stroke="#63b8ff" points="322.83,-17.25 312.24,-17.56 320.71,-23.92 322.83,-17.25"/>
</g>
<!-- Node10 -->
<g id="node10" class="node">
<title>Node10</title>
<g id="a_node10"><a xlink:title=" ">
<polygon fill="#e0e0e0" stroke="#999999" points="480,-19 434,-19 434,0 480,0 480,-19"/>
<text text-anchor="middle" x="457" y="-7" font-family="Helvetica,sans-Serif" font-size="10.00">chrono</text>
</a>
</g>
</g>
<!-- Node9&#45;&gt;Node10 -->
<g id="edge9" class="edge">
<title>Node9&#45;&gt;Node10</title>
<path fill="none" stroke="#63b8ff" d="M457,-54.75C457,-48.27 457,-39.16 457,-30.9"/>
<polygon fill="#63b8ff" stroke="#63b8ff" points="460.5,-30.96 457,-20.96 453.5,-30.96 460.5,-30.96"/>
</g>
</g>
</svg>
