<?xml version="1.0" encoding="UTF-8" standalone="no"?>
<!DOCTYPE svg PUBLIC "-//W3C//DTD SVG 1.1//EN"
 "http://www.w3.org/Graphics/SVG/1.1/DTD/svg11.dtd">
<!-- Generated by graphviz version 7.0.5 (20221223.1930)
 -->
<!-- Title: lib/application_business_rules/serial_interface/Protocol.cpp Pages: 1 -->
<svg width="1137pt" height="225pt"
 viewBox="0.00 0.00 1136.50 225.00" xmlns="http://www.w3.org/2000/svg" xmlns:xlink="http://www.w3.org/1999/xlink">
<g id="graph0" class="graph" transform="scale(1 1) rotate(0) translate(4 221)">
<title>lib/application_business_rules/serial_interface/Protocol.cpp</title>
<!-- Node1 -->
<g id="node1" class="node">
<title>Node1</title>
<g id="a_node1"><a xlink:title=" ">
<polygon fill="#999999" stroke="#666666" points="722,-217 602,-217 602,-176 722,-176 722,-217"/>
<text text-anchor="start" x="610" y="-205" font-family="Helvetica,sans-Serif" font-size="10.00">lib/application_business</text>
<text text-anchor="start" x="610" y="-194" font-family="Helvetica,sans-Serif" font-size="10.00">_rules/serial_interface</text>
<text text-anchor="middle" x="662" y="-183" font-family="Helvetica,sans-Serif" font-size="10.00">/Protocol.cpp</text>
</a>
</g>
</g>
<!-- Node2 -->
<g id="node2" class="node">
<title>Node2</title>
<g id="a_node2"><a xlink:href="Protocol_8hpp.xhtml" target="_top" xlink:title=" ">
<polygon fill="white" stroke="#666666" points="217.5,-134.5 146.5,-134.5 146.5,-115.5 217.5,-115.5 217.5,-134.5"/>
<text text-anchor="middle" x="182" y="-122.5" font-family="Helvetica,sans-Serif" font-size="10.00">Protocol.hpp</text>
</a>
</g>
</g>
<!-- Node1&#45;&gt;Node2 -->
<g id="edge1" class="edge">
<title>Node1&#45;&gt;Node2</title>
<path fill="none" stroke="#63b8ff" d="M601.63,-191.15C517.11,-184.3 359.05,-168.73 227,-140 224.37,-139.43 221.67,-138.77 218.97,-138.06"/>
<polygon fill="#63b8ff" stroke="#63b8ff" points="220,-134.72 209.42,-135.34 218.08,-141.45 220,-134.72"/>
</g>
<!-- Node3 -->
<g id="node3" class="node">
<title>Node3</title>
<g id="a_node3"><a xlink:href="command__line__interpreter_8hpp.xhtml" target="_top" xlink:title=" ">
<polygon fill="white" stroke="#666666" points="382,-134.5 236,-134.5 236,-115.5 382,-115.5 382,-134.5"/>
<text text-anchor="middle" x="309" y="-122.5" font-family="Helvetica,sans-Serif" font-size="10.00">command_line_interpreter.hpp</text>
</a>
</g>
</g>
<!-- Node1&#45;&gt;Node3 -->
<g id="edge2" class="edge">
<title>Node1&#45;&gt;Node3</title>
<path fill="none" stroke="#63b8ff" d="M601.72,-183.63C535.68,-170.63 430.57,-149.93 365.9,-137.2"/>
<polygon fill="#63b8ff" stroke="#63b8ff" points="366.68,-133.79 356.19,-135.29 365.33,-140.66 366.68,-133.79"/>
</g>
<!-- Node11 -->
<g id="node11" class="node">
<title>Node11</title>
<g id="a_node11"><a xlink:title=" ">
<polygon fill="#e0e0e0" stroke="#999999" points="845.5,-19 804.5,-19 804.5,0 845.5,0 845.5,-19"/>
<text text-anchor="middle" x="825" y="-7" font-family="Helvetica,sans-Serif" font-size="10.00">string</text>
</a>
</g>
</g>
<!-- Node1&#45;&gt;Node11 -->
<g id="edge32" class="edge">
<title>Node1&#45;&gt;Node11</title>
<path fill="none" stroke="#63b8ff" d="M722.49,-194.75C811.07,-192.22 969.42,-181.8 1005,-140 1054.21,-82.18 920.76,-36.59 856.89,-18.7"/>
<polygon fill="#63b8ff" stroke="#63b8ff" points="857.86,-15.34 847.29,-16.08 856.02,-22.09 857.86,-15.34"/>
</g>
<!-- Node15 -->
<g id="node15" class="node">
<title>Node15</title>
<g id="a_node15"><a xlink:href="serial__port_8hpp.xhtml" target="_top" xlink:title=" ">
<polygon fill="white" stroke="#666666" points="546,-134.5 466,-134.5 466,-115.5 546,-115.5 546,-134.5"/>
<text text-anchor="middle" x="506" y="-122.5" font-family="Helvetica,sans-Serif" font-size="10.00">serial_port.hpp</text>
</a>
</g>
</g>
<!-- Node1&#45;&gt;Node15 -->
<g id="edge15" class="edge">
<title>Node1&#45;&gt;Node15</title>
<path fill="none" stroke="#63b8ff" d="M617.3,-175.58C591.45,-164.07 559.61,-149.88 536.61,-139.64"/>
<polygon fill="#63b8ff" stroke="#63b8ff" points="538.04,-136.44 527.48,-135.57 535.19,-142.84 538.04,-136.44"/>
</g>
<!-- Node16 -->
<g id="node16" class="node">
<title>Node16</title>
<g id="a_node16"><a xlink:title=" ">
<polygon fill="#e0e0e0" stroke="#999999" points="695,-74 657,-74 657,-55 695,-55 695,-74"/>
<text text-anchor="middle" x="676" y="-62" font-family="Helvetica,sans-Serif" font-size="10.00">array</text>
</a>
</g>
</g>
<!-- Node1&#45;&gt;Node16 -->
<g id="edge21" class="edge">
<title>Node1&#45;&gt;Node16</title>
<path fill="none" stroke="#63b8ff" d="M627.78,-175.62C603.83,-159.01 578.5,-134.22 593,-110 604.39,-90.97 627,-79.62 645.76,-73.14"/>
<polygon fill="#63b8ff" stroke="#63b8ff" points="646.56,-76.56 655.07,-70.25 644.48,-69.87 646.56,-76.56"/>
</g>
<!-- Node19 -->
<g id="node19" class="node">
<title>Node19</title>
<g id="a_node19"><a xlink:href="JsonGenerator_8hpp.xhtml" target="_top" xlink:title=" ">
<polygon fill="white" stroke="#666666" points="838,-134.5 740,-134.5 740,-115.5 838,-115.5 838,-134.5"/>
<text text-anchor="middle" x="789" y="-122.5" font-family="Helvetica,sans-Serif" font-size="10.00">JsonGenerator.hpp</text>
</a>
</g>
</g>
<!-- Node1&#45;&gt;Node19 -->
<g id="edge22" class="edge">
<title>Node1&#45;&gt;Node19</title>
<path fill="none" stroke="#63b8ff" d="M698.39,-175.58C718.95,-164.33 744.18,-150.53 762.79,-140.34"/>
<polygon fill="#63b8ff" stroke="#63b8ff" points="764.22,-143.55 771.31,-135.68 760.86,-137.41 764.22,-143.55"/>
</g>
<!-- Node20 -->
<g id="node20" class="node">
<title>Node20</title>
<g id="a_node20"><a xlink:href="ProtocolVersionObject_8hpp.xhtml" target="_top" xlink:title=" ">
<polygon fill="white" stroke="#666666" points="721.5,-140 602.5,-140 602.5,-110 721.5,-110 721.5,-140"/>
<text text-anchor="start" x="610.5" y="-128" font-family="Helvetica,sans-Serif" font-size="10.00">serial_protocol/Protocol</text>
<text text-anchor="middle" x="662" y="-117" font-family="Helvetica,sans-Serif" font-size="10.00">VersionObject.hpp</text>
</a>
</g>
</g>
<!-- Node1&#45;&gt;Node20 -->
<g id="edge24" class="edge">
<title>Node1&#45;&gt;Node20</title>
<path fill="none" stroke="#63b8ff" d="M662,-175.77C662,-168.31 662,-159.7 662,-151.77"/>
<polygon fill="#63b8ff" stroke="#63b8ff" points="665.5,-151.99 662,-141.99 658.5,-151.99 665.5,-151.99"/>
</g>
<!-- Node22 -->
<g id="node22" class="node">
<title>Node22</title>
<g id="a_node22"><a xlink:href="TaskList_8hpp.xhtml" target="_top" xlink:title=" ">
<polygon fill="white" stroke="#666666" points="995.5,-134.5 856.5,-134.5 856.5,-115.5 995.5,-115.5 995.5,-134.5"/>
<text text-anchor="middle" x="926" y="-122.5" font-family="Helvetica,sans-Serif" font-size="10.00">serial_protocol/TaskList.hpp</text>
</a>
</g>
</g>
<!-- Node1&#45;&gt;Node22 -->
<g id="edge26" class="edge">
<title>Node1&#45;&gt;Node22</title>
<path fill="none" stroke="#63b8ff" d="M722.24,-179.64C770.53,-166.93 837.25,-149.36 880.99,-137.85"/>
<polygon fill="#63b8ff" stroke="#63b8ff" points="881.62,-141.3 890.4,-135.37 879.84,-134.53 881.62,-141.3"/>
</g>
<!-- Node23 -->
<g id="node23" class="node">
<title>Node23</title>
<g id="a_node23"><a xlink:href="TaskObject_8hpp.xhtml" target="_top" xlink:title=" ">
<polygon fill="white" stroke="#666666" points="1128.5,-74 1043.5,-74 1043.5,-55 1128.5,-55 1128.5,-74"/>
<text text-anchor="middle" x="1086" y="-62" font-family="Helvetica,sans-Serif" font-size="10.00">TaskObject.hpp</text>
</a>
</g>
</g>
<!-- Node1&#45;&gt;Node23 -->
<g id="edge31" class="edge">
<title>Node1&#45;&gt;Node23</title>
<path fill="none" stroke="#63b8ff" d="M722.39,-192.6C815.06,-187.17 986.97,-172.89 1038,-140 1058.07,-127.06 1071.45,-102.44 1078.87,-85.04"/>
<polygon fill="#63b8ff" stroke="#63b8ff" points="1082.1,-86.39 1082.51,-75.8 1075.59,-83.82 1082.1,-86.39"/>
</g>
<!-- Node4 -->
<g id="node4" class="node">
<title>Node4</title>
<g id="a_node4"><a xlink:title=" ">
<polygon fill="#e0e0e0" stroke="#999999" points="462.5,-74 403.5,-74 403.5,-55 462.5,-55 462.5,-74"/>
<text text-anchor="middle" x="433" y="-62" font-family="Helvetica,sans-Serif" font-size="10.00">functional</text>
</a>
</g>
</g>
<!-- Node3&#45;&gt;Node4 -->
<g id="edge3" class="edge">
<title>Node3&#45;&gt;Node4</title>
<path fill="none" stroke="#63b8ff" d="M327.83,-115.12C347.95,-105.62 380.11,-90.45 403.58,-79.38"/>
<polygon fill="#63b8ff" stroke="#63b8ff" points="405.07,-82.55 412.62,-75.11 402.08,-76.22 405.07,-82.55"/>
</g>
<!-- Node5 -->
<g id="node5" class="node">
<title>Node5</title>
<g id="a_node5"><a xlink:title=" ">
<polygon fill="#e0e0e0" stroke="#999999" points="54,-74 0,-74 0,-55 54,-55 54,-74"/>
<text text-anchor="middle" x="27" y="-62" font-family="Helvetica,sans-Serif" font-size="10.00">iostream</text>
</a>
</g>
</g>
<!-- Node3&#45;&gt;Node5 -->
<g id="edge4" class="edge">
<title>Node3&#45;&gt;Node5</title>
<path fill="none" stroke="#63b8ff" d="M262.66,-115.03C215.46,-105.8 139.89,-90.73 65.47,-74.49"/>
<polygon fill="#63b8ff" stroke="#63b8ff" points="66.49,-71.13 55.98,-72.41 64.99,-77.97 66.49,-71.13"/>
</g>
<!-- Node6 -->
<g id="node6" class="node">
<title>Node6</title>
<g id="a_node6"><a xlink:title=" ">
<polygon fill="#e0e0e0" stroke="#999999" points="119.5,-74 72.5,-74 72.5,-55 119.5,-55 119.5,-74"/>
<text text-anchor="middle" x="96" y="-62" font-family="Helvetica,sans-Serif" font-size="10.00">iterator</text>
</a>
</g>
</g>
<!-- Node3&#45;&gt;Node6 -->
<g id="edge5" class="edge">
<title>Node3&#45;&gt;Node6</title>
<path fill="none" stroke="#63b8ff" d="M276.65,-115.12C237.27,-104.3 171.03,-86.11 130.64,-75.01"/>
<polygon fill="#63b8ff" stroke="#63b8ff" points="131.76,-71.69 121.19,-72.42 129.91,-78.44 131.76,-71.69"/>
</g>
<!-- Node7 -->
<g id="node7" class="node">
<title>Node7</title>
<g id="a_node7"><a xlink:title=" ">
<polygon fill="#e0e0e0" stroke="#999999" points="178.5,-19 119.5,-19 119.5,0 178.5,0 178.5,-19"/>
<text text-anchor="middle" x="149" y="-7" font-family="Helvetica,sans-Serif" font-size="10.00">stdexcept</text>
</a>
</g>
</g>
<!-- Node3&#45;&gt;Node7 -->
<g id="edge6" class="edge">
<title>Node3&#45;&gt;Node7</title>
<path fill="none" stroke="#63b8ff" d="M245.59,-115.05C218.06,-108.11 187.49,-95.81 167,-74 155.95,-62.24 151.61,-44.19 149.94,-30.34"/>
<polygon fill="#63b8ff" stroke="#63b8ff" points="153.45,-30.3 149.16,-20.61 146.47,-30.85 153.45,-30.3"/>
</g>
<!-- Node8 -->
<g id="node8" class="node">
<title>Node8</title>
<g id="a_node8"><a xlink:href="string__helpers_8hpp.xhtml" target="_top" xlink:title=" ">
<polygon fill="white" stroke="#666666" points="271.5,-74 176.5,-74 176.5,-55 271.5,-55 271.5,-74"/>
<text text-anchor="middle" x="224" y="-62" font-family="Helvetica,sans-Serif" font-size="10.00">string_helpers.hpp</text>
</a>
</g>
</g>
<!-- Node3&#45;&gt;Node8 -->
<g id="edge7" class="edge">
<title>Node3&#45;&gt;Node8</title>
<path fill="none" stroke="#63b8ff" d="M296.09,-115.12C282.86,-106.01 262.03,-91.68 246.16,-80.75"/>
<polygon fill="#63b8ff" stroke="#63b8ff" points="248.5,-78.11 238.28,-75.33 244.53,-83.88 248.5,-78.11"/>
</g>
<!-- Node13 -->
<g id="node13" class="node">
<title>Node13</title>
<g id="a_node13"><a xlink:title=" ">
<polygon fill="#e0e0e0" stroke="#999999" points="328,-74 290,-74 290,-55 328,-55 328,-74"/>
<text text-anchor="middle" x="309" y="-62" font-family="Helvetica,sans-Serif" font-size="10.00">tuple</text>
</a>
</g>
</g>
<!-- Node3&#45;&gt;Node13 -->
<g id="edge13" class="edge">
<title>Node3&#45;&gt;Node13</title>
<path fill="none" stroke="#63b8ff" d="M309,-115.37C309,-107.5 309,-95.6 309,-85.39"/>
<polygon fill="#63b8ff" stroke="#63b8ff" points="312.5,-85.68 309,-75.68 305.5,-85.68 312.5,-85.68"/>
</g>
<!-- Node14 -->
<g id="node14" class="node">
<title>Node14</title>
<g id="a_node14"><a xlink:title=" ">
<polygon fill="#e0e0e0" stroke="#999999" points="385.5,-74 346.5,-74 346.5,-55 385.5,-55 385.5,-74"/>
<text text-anchor="middle" x="366" y="-62" font-family="Helvetica,sans-Serif" font-size="10.00">utility</text>
</a>
</g>
</g>
<!-- Node3&#45;&gt;Node14 -->
<g id="edge14" class="edge">
<title>Node3&#45;&gt;Node14</title>
<path fill="none" stroke="#63b8ff" d="M317.41,-115.37C325.91,-106.64 339.27,-92.93 349.83,-82.09"/>
<polygon fill="#63b8ff" stroke="#63b8ff" points="352.03,-84.86 356.5,-75.25 347.01,-79.97 352.03,-84.86"/>
</g>
<!-- Node8&#45;&gt;Node7 -->
<g id="edge10" class="edge">
<title>Node8&#45;&gt;Node7</title>
<path fill="none" stroke="#63b8ff" d="M211.28,-54.51C200.22,-46.7 183.96,-35.21 170.83,-25.93"/>
<polygon fill="#63b8ff" stroke="#63b8ff" points="172.96,-23.14 162.77,-20.23 168.92,-28.86 172.96,-23.14"/>
</g>
<!-- Node9 -->
<g id="node9" class="node">
<title>Node9</title>
<g id="a_node9"><a xlink:title=" ">
<polygon fill="#e0e0e0" stroke="#999999" points="248,-19 198,-19 198,0 248,0 248,-19"/>
<text text-anchor="middle" x="223" y="-7" font-family="Helvetica,sans-Serif" font-size="10.00">iomanip</text>
</a>
</g>
</g>
<!-- Node8&#45;&gt;Node9 -->
<g id="edge8" class="edge">
<title>Node8&#45;&gt;Node9</title>
<path fill="none" stroke="#63b8ff" d="M223.83,-54.75C223.71,-48.27 223.54,-39.16 223.38,-30.9"/>
<polygon fill="#63b8ff" stroke="#63b8ff" points="226.89,-30.89 223.2,-20.96 219.89,-31.02 226.89,-30.89"/>
</g>
<!-- Node10 -->
<g id="node10" class="node">
<title>Node10</title>
<g id="a_node10"><a xlink:title=" ">
<polygon fill="#e0e0e0" stroke="#999999" points="318,-19 266,-19 266,0 318,0 318,-19"/>
<text text-anchor="middle" x="292" y="-7" font-family="Helvetica,sans-Serif" font-size="10.00">sstream</text>
</a>
</g>
</g>
<!-- Node8&#45;&gt;Node10 -->
<g id="edge9" class="edge">
<title>Node8&#45;&gt;Node10</title>
<path fill="none" stroke="#63b8ff" d="M235.54,-54.51C245.46,-46.77 260.01,-35.43 271.86,-26.2"/>
<polygon fill="#63b8ff" stroke="#63b8ff" points="273.71,-29.2 279.44,-20.29 269.4,-23.68 273.71,-29.2"/>
</g>
<!-- Node8&#45;&gt;Node11 -->
<g id="edge11" class="edge">
<title>Node8&#45;&gt;Node11</title>
<path fill="none" stroke="#63b8ff" d="M271.86,-56.13C274.95,-55.72 278.02,-55.34 281,-55 474.8,-32.65 708.72,-17.47 792.89,-12.38"/>
<polygon fill="#63b8ff" stroke="#63b8ff" points="792.92,-15.88 802.69,-11.79 792.5,-8.9 792.92,-15.88"/>
</g>
<!-- Node12 -->
<g id="node12" class="node">
<title>Node12</title>
<g id="a_node12"><a xlink:title=" ">
<polygon fill="#e0e0e0" stroke="#999999" points="583,-19 539,-19 539,0 583,0 583,-19"/>
<text text-anchor="middle" x="561" y="-7" font-family="Helvetica,sans-Serif" font-size="10.00">vector</text>
</a>
</g>
</g>
<!-- Node8&#45;&gt;Node12 -->
<g id="edge12" class="edge">
<title>Node8&#45;&gt;Node12</title>
<path fill="none" stroke="#63b8ff" d="M271.93,-55.96C341.26,-45.06 467.8,-25.16 527.77,-15.73"/>
<polygon fill="#63b8ff" stroke="#63b8ff" points="528.02,-19.23 537.35,-14.22 526.93,-12.32 528.02,-19.23"/>
</g>
<!-- Node15&#45;&gt;Node4 -->
<g id="edge17" class="edge">
<title>Node15&#45;&gt;Node4</title>
<path fill="none" stroke="#63b8ff" d="M494.91,-115.12C483.76,-106.18 466.34,-92.22 452.81,-81.37"/>
<polygon fill="#63b8ff" stroke="#63b8ff" points="455.36,-78.94 445.37,-75.41 450.99,-84.4 455.36,-78.94"/>
</g>
<!-- Node15&#45;&gt;Node11 -->
<g id="edge20" class="edge">
<title>Node15&#45;&gt;Node11</title>
<path fill="none" stroke="#63b8ff" d="M524.83,-115.05C545.7,-105.12 580.32,-88.55 610,-74 626.95,-65.69 630.29,-61.56 648,-55 697.25,-36.74 756.93,-23.47 792.88,-16.38"/>
<polygon fill="#63b8ff" stroke="#63b8ff" points="793.48,-19.84 802.63,-14.51 792.15,-12.96 793.48,-19.84"/>
</g>
<!-- Node15&#45;&gt;Node16 -->
<g id="edge16" class="edge">
<title>Node15&#45;&gt;Node16</title>
<path fill="none" stroke="#63b8ff" d="M531.82,-115.12C562.56,-104.54 613.81,-86.9 646.2,-75.75"/>
<polygon fill="#63b8ff" stroke="#63b8ff" points="647.06,-79.16 655.38,-72.6 644.79,-72.54 647.06,-79.16"/>
</g>
<!-- Node17 -->
<g id="node17" class="node">
<title>Node17</title>
<g id="a_node17"><a xlink:title=" ">
<polygon fill="#e0e0e0" stroke="#999999" points="531,-74 481,-74 481,-55 531,-55 531,-74"/>
<text text-anchor="middle" x="506" y="-62" font-family="Helvetica,sans-Serif" font-size="10.00">optional</text>
</a>
</g>
</g>
<!-- Node15&#45;&gt;Node17 -->
<g id="edge18" class="edge">
<title>Node15&#45;&gt;Node17</title>
<path fill="none" stroke="#63b8ff" d="M506,-115.37C506,-107.5 506,-95.6 506,-85.39"/>
<polygon fill="#63b8ff" stroke="#63b8ff" points="509.5,-85.68 506,-75.68 502.5,-85.68 509.5,-85.68"/>
</g>
<!-- Node18 -->
<g id="node18" class="node">
<title>Node18</title>
<g id="a_node18"><a xlink:title=" ">
<polygon fill="#e0e0e0" stroke="#999999" points="601,-74 549,-74 549,-55 601,-55 601,-74"/>
<text text-anchor="middle" x="575" y="-62" font-family="Helvetica,sans-Serif" font-size="10.00">ostream</text>
</a>
</g>
</g>
<!-- Node15&#45;&gt;Node18 -->
<g id="edge19" class="edge">
<title>Node15&#45;&gt;Node18</title>
<path fill="none" stroke="#63b8ff" d="M516.48,-115.12C526.92,-106.27 543.17,-92.48 555.91,-81.69"/>
<polygon fill="#63b8ff" stroke="#63b8ff" points="557.9,-84.58 563.27,-75.45 553.38,-79.24 557.9,-84.58"/>
</g>
<!-- Node19&#45;&gt;Node11 -->
<g id="edge23" class="edge">
<title>Node19&#45;&gt;Node11</title>
<path fill="none" stroke="#63b8ff" d="M791.82,-115.09C797.61,-96.86 810.92,-54.91 818.81,-30.03"/>
<polygon fill="#63b8ff" stroke="#63b8ff" points="822.04,-31.4 821.73,-20.81 815.37,-29.28 822.04,-31.4"/>
</g>
<!-- Node21 -->
<g id="node21" class="node">
<title>Node21</title>
<g id="a_node21"><a xlink:title=" ">
<polygon fill="#e0e0e0" stroke="#999999" points="759,-74 713,-74 713,-55 759,-55 759,-74"/>
<text text-anchor="middle" x="736" y="-62" font-family="Helvetica,sans-Serif" font-size="10.00">cstdint</text>
</a>
</g>
</g>
<!-- Node20&#45;&gt;Node21 -->
<g id="edge25" class="edge">
<title>Node20&#45;&gt;Node21</title>
<path fill="none" stroke="#63b8ff" d="M680.29,-109.54C691.15,-100.96 704.92,-90.07 716.06,-81.26"/>
<polygon fill="#63b8ff" stroke="#63b8ff" points="718.16,-84.06 723.84,-75.11 713.82,-78.57 718.16,-84.06"/>
</g>
<!-- Node22&#45;&gt;Node12 -->
<g id="edge30" class="edge">
<title>Node22&#45;&gt;Node12</title>
<path fill="none" stroke="#63b8ff" d="M908.91,-115.17C880.39,-100.76 820.99,-72.08 768,-55 708.29,-35.76 636.2,-22.4 594.77,-15.62"/>
<polygon fill="#63b8ff" stroke="#63b8ff" points="595.36,-12.17 584.93,-14.05 594.26,-19.09 595.36,-12.17"/>
</g>
<!-- Node22&#45;&gt;Node23 -->
<g id="edge27" class="edge">
<title>Node22&#45;&gt;Node23</title>
<path fill="none" stroke="#63b8ff" d="M950.3,-115.12C977.08,-105.32 1020.4,-89.48 1050.88,-78.34"/>
<polygon fill="#63b8ff" stroke="#63b8ff" points="1051.86,-81.71 1060.05,-74.99 1049.46,-75.14 1051.86,-81.71"/>
</g>
<!-- Node23&#45;&gt;Node11 -->
<g id="edge29" class="edge">
<title>Node23&#45;&gt;Node11</title>
<path fill="none" stroke="#63b8ff" d="M1043.19,-54.81C991.04,-44.22 904.12,-26.57 857.27,-17.05"/>
<polygon fill="#63b8ff" stroke="#63b8ff" points="857.98,-13.62 847.48,-15.06 856.58,-20.48 857.98,-13.62"/>
</g>
<!-- Node24 -->
<g id="node24" class="node">
<title>Node24</title>
<g id="a_node24"><a xlink:title=" ">
<polygon fill="#e0e0e0" stroke="#999999" points="1109,-19 1063,-19 1063,0 1109,0 1109,-19"/>
<text text-anchor="middle" x="1086" y="-7" font-family="Helvetica,sans-Serif" font-size="10.00">chrono</text>
</a>
</g>
</g>
<!-- Node23&#45;&gt;Node24 -->
<g id="edge28" class="edge">
<title>Node23&#45;&gt;Node24</title>
<path fill="none" stroke="#63b8ff" d="M1086,-54.75C1086,-48.27 1086,-39.16 1086,-30.9"/>
<polygon fill="#63b8ff" stroke="#63b8ff" points="1089.5,-30.96 1086,-20.96 1082.5,-30.96 1089.5,-30.96"/>
</g>
</g>
</svg>
