<?xml version="1.0" encoding="UTF-8" standalone="no"?>
<!DOCTYPE svg PUBLIC "-//W3C//DTD SVG 1.1//EN"
 "http://www.w3.org/Graphics/SVG/1.1/DTD/svg11.dtd">
<!-- Generated by graphviz version 7.0.5 (20221223.1930)
 -->
<!-- Title: lib/application_business_rules/serial_interface/Protocol.cpp Pages: 1 -->
<svg width="1115pt" height="225pt"
 viewBox="0.00 0.00 1114.50 225.00" xmlns="http://www.w3.org/2000/svg" xmlns:xlink="http://www.w3.org/1999/xlink">
<g id="graph0" class="graph" transform="scale(1 1) rotate(0) translate(4 221)">
<title>lib/application_business_rules/serial_interface/Protocol.cpp</title>
<!-- Node1 -->
<g id="node1" class="node">
<title>Node1</title>
<g id="a_node1"><a xlink:title=" ">
<polygon fill="#999999" stroke="#666666" points="431.5,-217 311.5,-217 311.5,-176 431.5,-176 431.5,-217"/>
<text text-anchor="start" x="319.5" y="-205" font-family="Helvetica,sans-Serif" font-size="10.00">lib/application_business</text>
<text text-anchor="start" x="319.5" y="-194" font-family="Helvetica,sans-Serif" font-size="10.00">_rules/serial_interface</text>
<text text-anchor="middle" x="371.5" y="-183" font-family="Helvetica,sans-Serif" font-size="10.00">/Protocol.cpp</text>
</a>
</g>
</g>
<!-- Node2 -->
<g id="node2" class="node">
<title>Node2</title>
<g id="a_node2"><a xlink:href="Protocol_8hpp.xhtml" target="_top" xlink:title=" ">
<polygon fill="white" stroke="#666666" points="71,-134.5 0,-134.5 0,-115.5 71,-115.5 71,-134.5"/>
<text text-anchor="middle" x="35.5" y="-122.5" font-family="Helvetica,sans-Serif" font-size="10.00">Protocol.hpp</text>
</a>
</g>
</g>
<!-- Node1&#45;&gt;Node2 -->
<g id="edge1" class="edge">
<title>Node1&#45;&gt;Node2</title>
<path fill="none" stroke="#63b8ff" d="M311.21,-185.27C253.12,-175.07 162.9,-158.31 85.5,-140 82.74,-139.35 79.9,-138.64 77.04,-137.91"/>
<polygon fill="#63b8ff" stroke="#63b8ff" points="78.1,-134.57 67.53,-135.37 76.29,-141.33 78.1,-134.57"/>
</g>
<!-- Node3 -->
<g id="node3" class="node">
<title>Node3</title>
<g id="a_node3"><a xlink:href="command__line__interpreter_8hpp.xhtml" target="_top" xlink:title=" ">
<polygon fill="white" stroke="#666666" points="861.5,-134.5 715.5,-134.5 715.5,-115.5 861.5,-115.5 861.5,-134.5"/>
<text text-anchor="middle" x="788.5" y="-122.5" font-family="Helvetica,sans-Serif" font-size="10.00">command_line_interpreter.hpp</text>
</a>
</g>
</g>
<!-- Node1&#45;&gt;Node3 -->
<g id="edge2" class="edge">
<title>Node1&#45;&gt;Node3</title>
<path fill="none" stroke="#63b8ff" d="M431.69,-185.47C509.35,-172.53 643.92,-150.1 723.74,-136.79"/>
<polygon fill="#63b8ff" stroke="#63b8ff" points="723.84,-140.32 733.13,-135.23 722.69,-133.42 723.84,-140.32"/>
</g>
<!-- Node11 -->
<g id="node11" class="node">
<title>Node11</title>
<g id="a_node11"><a xlink:title=" ">
<polygon fill="#e0e0e0" stroke="#999999" points="275,-19 234,-19 234,0 275,0 275,-19"/>
<text text-anchor="middle" x="254.5" y="-7" font-family="Helvetica,sans-Serif" font-size="10.00">string</text>
</a>
</g>
</g>
<!-- Node1&#45;&gt;Node11 -->
<g id="edge29" class="edge">
<title>Node1&#45;&gt;Node11</title>
<path fill="none" stroke="#63b8ff" d="M311.06,-190.8C244.04,-184.18 142.21,-169.48 118.5,-140 79.95,-92.07 172.08,-44.46 223.21,-22.72"/>
<polygon fill="#63b8ff" stroke="#63b8ff" points="224.44,-26 232.34,-18.94 221.76,-19.53 224.44,-26"/>
</g>
<!-- Node15 -->
<g id="node15" class="node">
<title>Node15</title>
<g id="a_node15"><a xlink:href="serial__port_8hpp.xhtml" target="_top" xlink:title=" ">
<polygon fill="white" stroke="#666666" points="531.5,-134.5 451.5,-134.5 451.5,-115.5 531.5,-115.5 531.5,-134.5"/>
<text text-anchor="middle" x="491.5" y="-122.5" font-family="Helvetica,sans-Serif" font-size="10.00">serial_port.hpp</text>
</a>
</g>
</g>
<!-- Node1&#45;&gt;Node15 -->
<g id="edge15" class="edge">
<title>Node1&#45;&gt;Node15</title>
<path fill="none" stroke="#63b8ff" d="M405.89,-175.58C425.22,-164.38 448.93,-150.65 466.49,-140.48"/>
<polygon fill="#63b8ff" stroke="#63b8ff" points="467.83,-143.75 474.73,-135.71 464.32,-137.7 467.83,-143.75"/>
</g>
<!-- Node16 -->
<g id="node16" class="node">
<title>Node16</title>
<g id="a_node16"><a xlink:title=" ">
<polygon fill="#e0e0e0" stroke="#999999" points="384.5,-74 346.5,-74 346.5,-55 384.5,-55 384.5,-74"/>
<text text-anchor="middle" x="365.5" y="-62" font-family="Helvetica,sans-Serif" font-size="10.00">array</text>
</a>
</g>
</g>
<!-- Node1&#45;&gt;Node16 -->
<g id="edge21" class="edge">
<title>Node1&#45;&gt;Node16</title>
<path fill="none" stroke="#63b8ff" d="M387.18,-175.82C398.99,-158.51 411.84,-132.6 403.5,-110 399.66,-99.59 392.18,-89.96 384.86,-82.34"/>
<polygon fill="#63b8ff" stroke="#63b8ff" points="387.31,-79.84 377.67,-75.44 382.46,-84.89 387.31,-79.84"/>
</g>
<!-- Node19 -->
<g id="node19" class="node">
<title>Node19</title>
<g id="a_node19"><a xlink:href="JsonGenerator_8hpp.xhtml" target="_top" xlink:title=" ">
<polygon fill="white" stroke="#666666" points="225.5,-134.5 127.5,-134.5 127.5,-115.5 225.5,-115.5 225.5,-134.5"/>
<text text-anchor="middle" x="176.5" y="-122.5" font-family="Helvetica,sans-Serif" font-size="10.00">JsonGenerator.hpp</text>
</a>
</g>
</g>
<!-- Node1&#45;&gt;Node19 -->
<g id="edge22" class="edge">
<title>Node1&#45;&gt;Node19</title>
<path fill="none" stroke="#63b8ff" d="M315.62,-175.58C282.44,-163.76 241.33,-149.11 212.44,-138.81"/>
<polygon fill="#63b8ff" stroke="#63b8ff" points="213.64,-135.52 203.05,-135.46 211.29,-142.12 213.64,-135.52"/>
</g>
<!-- Node20 -->
<g id="node20" class="node">
<title>Node20</title>
<g id="a_node20"><a xlink:href="ProtocolVersionObject_8hpp.xhtml" target="_top" xlink:title=" ">
<polygon fill="white" stroke="#666666" points="1094,-140 975,-140 975,-110 1094,-110 1094,-140"/>
<text text-anchor="start" x="983" y="-128" font-family="Helvetica,sans-Serif" font-size="10.00">serial_protocol/Protocol</text>
<text text-anchor="middle" x="1034.5" y="-117" font-family="Helvetica,sans-Serif" font-size="10.00">VersionObject.hpp</text>
</a>
</g>
</g>
<!-- Node1&#45;&gt;Node20 -->
<g id="edge24" class="edge">
<title>Node1&#45;&gt;Node20</title>
<path fill="none" stroke="#63b8ff" d="M431.8,-189.18C554.47,-176.32 832.54,-147.17 963.62,-133.43"/>
<polygon fill="#63b8ff" stroke="#63b8ff" points="963.61,-136.95 973.19,-132.43 962.88,-129.99 963.61,-136.95"/>
</g>
<!-- Node22 -->
<g id="node22" class="node">
<title>Node22</title>
<g id="a_node22"><a xlink:href="TaskObject_8hpp.xhtml" target="_top" xlink:title=" ">
<polygon fill="white" stroke="#666666" points="395,-134.5 244,-134.5 244,-115.5 395,-115.5 395,-134.5"/>
<text text-anchor="middle" x="319.5" y="-122.5" font-family="Helvetica,sans-Serif" font-size="10.00">serial_protocol/TaskObject.hpp</text>
</a>
</g>
</g>
<!-- Node1&#45;&gt;Node22 -->
<g id="edge26" class="edge">
<title>Node1&#45;&gt;Node22</title>
<path fill="none" stroke="#63b8ff" d="M356.74,-175.77C349.25,-165.76 340.22,-153.7 332.93,-143.95"/>
<polygon fill="#63b8ff" stroke="#63b8ff" points="335.8,-141.94 327.01,-136.03 330.19,-146.14 335.8,-141.94"/>
</g>
<!-- Node4 -->
<g id="node4" class="node">
<title>Node4</title>
<g id="a_node4"><a xlink:title=" ">
<polygon fill="#e0e0e0" stroke="#999999" points="638,-74 579,-74 579,-55 638,-55 638,-74"/>
<text text-anchor="middle" x="608.5" y="-62" font-family="Helvetica,sans-Serif" font-size="10.00">functional</text>
</a>
</g>
</g>
<!-- Node3&#45;&gt;Node4 -->
<g id="edge3" class="edge">
<title>Node3&#45;&gt;Node4</title>
<path fill="none" stroke="#63b8ff" d="M761.16,-115.12C730.63,-105.19 681.01,-89.07 646.67,-77.9"/>
<polygon fill="#63b8ff" stroke="#63b8ff" points="648.13,-74.7 637.53,-74.94 645.96,-81.36 648.13,-74.7"/>
</g>
<!-- Node5 -->
<g id="node5" class="node">
<title>Node5</title>
<g id="a_node5"><a xlink:title=" ">
<polygon fill="#e0e0e0" stroke="#999999" points="862.5,-74 808.5,-74 808.5,-55 862.5,-55 862.5,-74"/>
<text text-anchor="middle" x="835.5" y="-62" font-family="Helvetica,sans-Serif" font-size="10.00">iostream</text>
</a>
</g>
</g>
<!-- Node3&#45;&gt;Node5 -->
<g id="edge4" class="edge">
<title>Node3&#45;&gt;Node5</title>
<path fill="none" stroke="#63b8ff" d="M795.44,-115.37C802.24,-106.9 812.81,-93.74 821.39,-83.07"/>
<polygon fill="#63b8ff" stroke="#63b8ff" points="824.05,-85.34 827.59,-75.35 818.6,-80.95 824.05,-85.34"/>
</g>
<!-- Node6 -->
<g id="node6" class="node">
<title>Node6</title>
<g id="a_node6"><a xlink:title=" ">
<polygon fill="#e0e0e0" stroke="#999999" points="928,-74 881,-74 881,-55 928,-55 928,-74"/>
<text text-anchor="middle" x="904.5" y="-62" font-family="Helvetica,sans-Serif" font-size="10.00">iterator</text>
</a>
</g>
</g>
<!-- Node3&#45;&gt;Node6 -->
<g id="edge5" class="edge">
<title>Node3&#45;&gt;Node6</title>
<path fill="none" stroke="#63b8ff" d="M806.12,-115.12C824.85,-105.67 854.75,-90.59 876.68,-79.53"/>
<polygon fill="#63b8ff" stroke="#63b8ff" points="878.01,-82.78 885.36,-75.15 874.86,-76.53 878.01,-82.78"/>
</g>
<!-- Node7 -->
<g id="node7" class="node">
<title>Node7</title>
<g id="a_node7"><a xlink:title=" ">
<polygon fill="#e0e0e0" stroke="#999999" points="696,-19 637,-19 637,0 696,0 696,-19"/>
<text text-anchor="middle" x="666.5" y="-7" font-family="Helvetica,sans-Serif" font-size="10.00">stdexcept</text>
</a>
</g>
</g>
<!-- Node3&#45;&gt;Node7 -->
<g id="edge6" class="edge">
<title>Node3&#45;&gt;Node7</title>
<path fill="none" stroke="#63b8ff" d="M754.77,-115.08C732.5,-107.56 704.24,-94.64 686.5,-74 676,-61.79 671.01,-44.06 668.63,-30.43"/>
<polygon fill="#63b8ff" stroke="#63b8ff" points="672.15,-30.28 667.32,-20.85 665.21,-31.23 672.15,-30.28"/>
</g>
<!-- Node8 -->
<g id="node8" class="node">
<title>Node8</title>
<g id="a_node8"><a xlink:href="string__helpers_8hpp.xhtml" target="_top" xlink:title=" ">
<polygon fill="white" stroke="#666666" points="790,-74 695,-74 695,-55 790,-55 790,-74"/>
<text text-anchor="middle" x="742.5" y="-62" font-family="Helvetica,sans-Serif" font-size="10.00">string_helpers.hpp</text>
</a>
</g>
</g>
<!-- Node3&#45;&gt;Node8 -->
<g id="edge7" class="edge">
<title>Node3&#45;&gt;Node8</title>
<path fill="none" stroke="#63b8ff" d="M781.71,-115.37C775.05,-106.9 764.71,-93.74 756.31,-83.07"/>
<polygon fill="#63b8ff" stroke="#63b8ff" points="759.18,-81.05 750.25,-75.36 753.68,-85.38 759.18,-81.05"/>
</g>
<!-- Node13 -->
<g id="node13" class="node">
<title>Node13</title>
<g id="a_node13"><a xlink:title=" ">
<polygon fill="#e0e0e0" stroke="#999999" points="984.5,-74 946.5,-74 946.5,-55 984.5,-55 984.5,-74"/>
<text text-anchor="middle" x="965.5" y="-62" font-family="Helvetica,sans-Serif" font-size="10.00">tuple</text>
</a>
</g>
</g>
<!-- Node3&#45;&gt;Node13 -->
<g id="edge13" class="edge">
<title>Node3&#45;&gt;Node13</title>
<path fill="none" stroke="#63b8ff" d="M815.38,-115.12C847.7,-104.43 901.8,-86.55 935.46,-75.43"/>
<polygon fill="#63b8ff" stroke="#63b8ff" points="936.2,-78.87 944.6,-72.41 934.01,-72.22 936.2,-78.87"/>
</g>
<!-- Node14 -->
<g id="node14" class="node">
<title>Node14</title>
<g id="a_node14"><a xlink:title=" ">
<polygon fill="#e0e0e0" stroke="#999999" points="1042,-74 1003,-74 1003,-55 1042,-55 1042,-74"/>
<text text-anchor="middle" x="1022.5" y="-62" font-family="Helvetica,sans-Serif" font-size="10.00">utility</text>
</a>
</g>
</g>
<!-- Node3&#45;&gt;Node14 -->
<g id="edge14" class="edge">
<title>Node3&#45;&gt;Node14</title>
<path fill="none" stroke="#63b8ff" d="M827.55,-115.04C866.64,-105.94 928.74,-91.16 991.64,-74.4"/>
<polygon fill="#63b8ff" stroke="#63b8ff" points="992.35,-77.84 1001.1,-71.87 990.54,-71.07 992.35,-77.84"/>
</g>
<!-- Node8&#45;&gt;Node7 -->
<g id="edge10" class="edge">
<title>Node8&#45;&gt;Node7</title>
<path fill="none" stroke="#63b8ff" d="M729.61,-54.51C718.4,-46.7 701.93,-35.21 688.62,-25.93"/>
<polygon fill="#63b8ff" stroke="#63b8ff" points="690.65,-23.07 680.44,-20.22 686.64,-28.81 690.65,-23.07"/>
</g>
<!-- Node9 -->
<g id="node9" class="node">
<title>Node9</title>
<g id="a_node9"><a xlink:title=" ">
<polygon fill="#e0e0e0" stroke="#999999" points="764.5,-19 714.5,-19 714.5,0 764.5,0 764.5,-19"/>
<text text-anchor="middle" x="739.5" y="-7" font-family="Helvetica,sans-Serif" font-size="10.00">iomanip</text>
</a>
</g>
</g>
<!-- Node8&#45;&gt;Node9 -->
<g id="edge8" class="edge">
<title>Node8&#45;&gt;Node9</title>
<path fill="none" stroke="#63b8ff" d="M742,-54.75C741.64,-48.27 741.12,-39.16 740.65,-30.9"/>
<polygon fill="#63b8ff" stroke="#63b8ff" points="744.15,-30.74 740.09,-20.95 737.16,-31.13 744.15,-30.74"/>
</g>
<!-- Node10 -->
<g id="node10" class="node">
<title>Node10</title>
<g id="a_node10"><a xlink:title=" ">
<polygon fill="#e0e0e0" stroke="#999999" points="834.5,-19 782.5,-19 782.5,0 834.5,0 834.5,-19"/>
<text text-anchor="middle" x="808.5" y="-7" font-family="Helvetica,sans-Serif" font-size="10.00">sstream</text>
</a>
</g>
</g>
<!-- Node8&#45;&gt;Node10 -->
<g id="edge9" class="edge">
<title>Node8&#45;&gt;Node10</title>
<path fill="none" stroke="#63b8ff" d="M753.7,-54.51C763.24,-46.85 777.17,-35.66 788.61,-26.47"/>
<polygon fill="#63b8ff" stroke="#63b8ff" points="790.68,-29.3 796.29,-20.31 786.3,-23.84 790.68,-29.3"/>
</g>
<!-- Node8&#45;&gt;Node11 -->
<g id="edge11" class="edge">
<title>Node8&#45;&gt;Node11</title>
<path fill="none" stroke="#63b8ff" d="M694.82,-58.32C595.84,-47.57 370.34,-23.08 286.59,-13.99"/>
<polygon fill="#63b8ff" stroke="#63b8ff" points="287.12,-10.52 276.8,-12.92 286.37,-17.48 287.12,-10.52"/>
</g>
<!-- Node12 -->
<g id="node12" class="node">
<title>Node12</title>
<g id="a_node12"><a xlink:title=" ">
<polygon fill="#e0e0e0" stroke="#999999" points="896.5,-19 852.5,-19 852.5,0 896.5,0 896.5,-19"/>
<text text-anchor="middle" x="874.5" y="-7" font-family="Helvetica,sans-Serif" font-size="10.00">vector</text>
</a>
</g>
</g>
<!-- Node8&#45;&gt;Node12 -->
<g id="edge12" class="edge">
<title>Node8&#45;&gt;Node12</title>
<path fill="none" stroke="#63b8ff" d="M764.89,-54.51C786.07,-46.01 818.09,-33.15 842.06,-23.53"/>
<polygon fill="#63b8ff" stroke="#63b8ff" points="843.06,-26.9 851.03,-19.92 840.45,-20.4 843.06,-26.9"/>
</g>
<!-- Node15&#45;&gt;Node4 -->
<g id="edge17" class="edge">
<title>Node15&#45;&gt;Node4</title>
<path fill="none" stroke="#63b8ff" d="M509.27,-115.12C528.17,-105.67 558.32,-90.59 580.44,-79.53"/>
<polygon fill="#63b8ff" stroke="#63b8ff" points="581.83,-82.75 589.21,-75.15 578.7,-76.49 581.83,-82.75"/>
</g>
<!-- Node15&#45;&gt;Node11 -->
<g id="edge20" class="edge">
<title>Node15&#45;&gt;Node11</title>
<path fill="none" stroke="#63b8ff" d="M481.3,-115.21C464.18,-100.85 428.15,-72.24 393.5,-55 358.41,-37.54 314.97,-24.93 286.09,-17.69"/>
<polygon fill="#63b8ff" stroke="#63b8ff" points="287.06,-14.32 276.51,-15.36 285.4,-21.12 287.06,-14.32"/>
</g>
<!-- Node15&#45;&gt;Node16 -->
<g id="edge16" class="edge">
<title>Node15&#45;&gt;Node16</title>
<path fill="none" stroke="#63b8ff" d="M472.36,-115.12C451.83,-105.58 418.94,-90.31 395.07,-79.23"/>
<polygon fill="#63b8ff" stroke="#63b8ff" points="396.73,-76.14 386.19,-75.11 393.79,-82.49 396.73,-76.14"/>
</g>
<!-- Node17 -->
<g id="node17" class="node">
<title>Node17</title>
<g id="a_node17"><a xlink:title=" ">
<polygon fill="#e0e0e0" stroke="#999999" points="490.5,-74 440.5,-74 440.5,-55 490.5,-55 490.5,-74"/>
<text text-anchor="middle" x="465.5" y="-62" font-family="Helvetica,sans-Serif" font-size="10.00">optional</text>
</a>
</g>
</g>
<!-- Node15&#45;&gt;Node17 -->
<g id="edge18" class="edge">
<title>Node15&#45;&gt;Node17</title>
<path fill="none" stroke="#63b8ff" d="M487.66,-115.37C484.05,-107.25 478.53,-94.81 473.89,-84.39"/>
<polygon fill="#63b8ff" stroke="#63b8ff" points="477.23,-83.27 469.97,-75.55 470.83,-86.11 477.23,-83.27"/>
</g>
<!-- Node18 -->
<g id="node18" class="node">
<title>Node18</title>
<g id="a_node18"><a xlink:title=" ">
<polygon fill="#e0e0e0" stroke="#999999" points="560.5,-74 508.5,-74 508.5,-55 560.5,-55 560.5,-74"/>
<text text-anchor="middle" x="534.5" y="-62" font-family="Helvetica,sans-Serif" font-size="10.00">ostream</text>
</a>
</g>
</g>
<!-- Node15&#45;&gt;Node18 -->
<g id="edge19" class="edge">
<title>Node15&#45;&gt;Node18</title>
<path fill="none" stroke="#63b8ff" d="M497.84,-115.37C504.01,-106.99 513.54,-94.01 521.35,-83.39"/>
<polygon fill="#63b8ff" stroke="#63b8ff" points="524.13,-85.52 527.23,-75.39 518.49,-81.37 524.13,-85.52"/>
</g>
<!-- Node19&#45;&gt;Node11 -->
<g id="edge23" class="edge">
<title>Node19&#45;&gt;Node11</title>
<path fill="none" stroke="#63b8ff" d="M182.62,-115.09C195.38,-96.53 225.04,-53.37 242,-28.69"/>
<polygon fill="#63b8ff" stroke="#63b8ff" points="244.77,-30.84 247.55,-20.61 239,-26.87 244.77,-30.84"/>
</g>
<!-- Node21 -->
<g id="node21" class="node">
<title>Node21</title>
<g id="a_node21"><a xlink:title=" ">
<polygon fill="#e0e0e0" stroke="#999999" points="1106.5,-74 1060.5,-74 1060.5,-55 1106.5,-55 1106.5,-74"/>
<text text-anchor="middle" x="1083.5" y="-62" font-family="Helvetica,sans-Serif" font-size="10.00">cstdint</text>
</a>
</g>
</g>
<!-- Node20&#45;&gt;Node21 -->
<g id="edge25" class="edge">
<title>Node20&#45;&gt;Node21</title>
<path fill="none" stroke="#63b8ff" d="M1046.61,-109.54C1053.37,-101.48 1061.82,-91.38 1068.94,-82.89"/>
<polygon fill="#63b8ff" stroke="#63b8ff" points="1071.52,-85.25 1075.26,-75.34 1066.16,-80.75 1071.52,-85.25"/>
</g>
<!-- Node22&#45;&gt;Node11 -->
<g id="edge28" class="edge">
<title>Node22&#45;&gt;Node11</title>
<path fill="none" stroke="#63b8ff" d="M308.88,-115.1C298.47,-105.83 282.83,-90.4 273.5,-74 265.74,-60.36 260.85,-43.22 257.98,-30.19"/>
<polygon fill="#63b8ff" stroke="#63b8ff" points="261.48,-29.83 256.11,-20.69 254.61,-31.18 261.48,-29.83"/>
</g>
<!-- Node23 -->
<g id="node23" class="node">
<title>Node23</title>
<g id="a_node23"><a xlink:title=" ">
<polygon fill="#e0e0e0" stroke="#999999" points="328.5,-74 282.5,-74 282.5,-55 328.5,-55 328.5,-74"/>
<text text-anchor="middle" x="305.5" y="-62" font-family="Helvetica,sans-Serif" font-size="10.00">chrono</text>
</a>
</g>
</g>
<!-- Node22&#45;&gt;Node23 -->
<g id="edge27" class="edge">
<title>Node22&#45;&gt;Node23</title>
<path fill="none" stroke="#63b8ff" d="M317.43,-115.37C315.53,-107.42 312.64,-95.33 310.18,-85.05"/>
<polygon fill="#63b8ff" stroke="#63b8ff" points="313.66,-84.55 307.93,-75.64 306.85,-86.18 313.66,-84.55"/>
</g>
</g>
</svg>
