<?xml version="1.0" encoding="UTF-8" standalone="no"?>
<!DOCTYPE svg PUBLIC "-//W3C//DTD SVG 1.1//EN"
 "http://www.w3.org/Graphics/SVG/1.1/DTD/svg11.dtd">
<!-- Generated by graphviz version 7.0.5 (20221223.1930)
 -->
<!-- Title: task_tracker_systems::TaskObject Pages: 1 -->
<svg width="160pt" height="126pt"
 viewBox="0.00 0.00 160.00 126.00" xmlns="http://www.w3.org/2000/svg" xmlns:xlink="http://www.w3.org/1999/xlink">
<g id="graph0" class="graph" transform="scale(1 1) rotate(0) translate(4 122)">
<title>task_tracker_systems::TaskObject</title>
<!-- Node1 -->
<g id="node1" class="node">
<title>Node1</title>
<g id="a_node1"><a xlink:title="task object">
<polygon fill="#999999" stroke="#666666" points="128,-41 12,-41 12,0 128,0 128,-41"/>
<text text-anchor="start" x="20" y="-29" font-family="Helvetica,sans-Serif" font-size="10.00">{task_tracker_systems</text>
<text text-anchor="middle" x="70" y="-18" font-family="Helvetica,sans-Serif" font-size="10.00">::TaskObject</text>
<text text-anchor="middle" x="70" y="-7" font-family="Helvetica,sans-Serif" font-size="10.00">||}</text>
</a>
</g>
</g>
<!-- Node2 -->
<g id="node2" class="node">
<title>Node2</title>
<g id="a_node2"><a xlink:title=" ">
<polygon fill="white" stroke="#666666" points="30,-118 0,-118 0,-88 30,-88 30,-118"/>
<text text-anchor="middle" x="15" y="-106" font-family="Helvetica,sans-Serif" font-size="10.00">{int</text>
<text text-anchor="middle" x="15" y="-95" font-family="Helvetica,sans-Serif" font-size="10.00">||}</text>
</a>
</g>
</g>
<!-- Node2&#45;&gt;Node1 -->
<g id="edge1" class="edge">
<title>Node2&#45;&gt;Node1</title>
<path fill="none" stroke="#404040" d="M24.83,-87.61C31.6,-77.71 40.84,-64.18 49.2,-51.95"/>
<polygon fill="none" stroke="#404040" points="49.26,-51.86 49.34,-44.65 56.02,-41.95 55.94,-49.17 49.26,-51.86"/>
<text text-anchor="middle" x="52" y="-62" font-family="Helvetica,sans-Serif" font-size="10.00"> +id</text>
</g>
<!-- Node3 -->
<g id="node3" class="node">
<title>Node3</title>
<g id="a_node3"><a xlink:title=" ">
<polygon fill="white" stroke="#666666" points="92,-118 48,-118 48,-88 92,-88 92,-118"/>
<text text-anchor="middle" x="70" y="-106" font-family="Helvetica,sans-Serif" font-size="10.00">{string</text>
<text text-anchor="middle" x="70" y="-95" font-family="Helvetica,sans-Serif" font-size="10.00">||}</text>
</a>
</g>
</g>
<!-- Node3&#45;&gt;Node1 -->
<g id="edge2" class="edge">
<title>Node3&#45;&gt;Node1</title>
<path fill="none" stroke="#404040" d="M70,-87.61C70,-78.31 70,-65.82 70,-54.21"/>
<polygon fill="none" stroke="#404040" points="70,-54.11 66,-48.11 70,-42.11 74,-48.11 70,-54.11"/>
<text text-anchor="middle" x="84.5" y="-62" font-family="Helvetica,sans-Serif" font-size="10.00"> +label</text>
</g>
<!-- Node4 -->
<g id="node4" class="node">
<title>Node4</title>
<g id="a_node4"><a xlink:title=" ">
<polygon fill="white" stroke="#666666" points="143.5,-118 110.5,-118 110.5,-88 143.5,-88 143.5,-118"/>
<text text-anchor="middle" x="127" y="-106" font-family="Helvetica,sans-Serif" font-size="10.00">{rep</text>
<text text-anchor="middle" x="127" y="-95" font-family="Helvetica,sans-Serif" font-size="10.00">||}</text>
</a>
</g>
</g>
<!-- Node4&#45;&gt;Node1 -->
<g id="edge3" class="edge">
<title>Node4&#45;&gt;Node1</title>
<path fill="none" stroke="#404040" d="M119.94,-87.6C115.5,-79.02 109.42,-68.08 103,-59 101.23,-56.49 99.31,-53.96 97.33,-51.45"/>
<polygon fill="none" stroke="#404040" points="97.26,-51.37 90.34,-49.34 89.56,-42.17 96.48,-44.21 97.26,-51.37"/>
<text text-anchor="middle" x="130.5" y="-62" font-family="Helvetica,sans-Serif" font-size="10.00"> +duration</text>
</g>
</g>
</svg>
