<?xml version="1.0" encoding="UTF-8" standalone="no"?>
<!DOCTYPE svg PUBLIC "-//W3C//DTD SVG 1.1//EN"
 "http://www.w3.org/Graphics/SVG/1.1/DTD/svg11.dtd">
<!-- Generated by graphviz version 7.0.5 (20221223.1930)
 -->
<!-- Title: lib/enterprise_business_rules/serial_protocol/TaskObject.hpp Pages: 1 -->
<svg width="302pt" height="203pt"
 viewBox="0.00 0.00 302.00 203.00" xmlns="http://www.w3.org/2000/svg" xmlns:xlink="http://www.w3.org/1999/xlink">
<g id="graph0" class="graph" transform="scale(1 1) rotate(0) translate(4 199)">
<title>lib/enterprise_business_rules/serial_protocol/TaskObject.hpp</title>
<!-- Node1 -->
<g id="node1" class="node">
<title>Node1</title>
<g id="a_node1"><a xlink:title=" ">
<polygon fill="#999999" stroke="#666666" points="212,-195 96,-195 96,-154 212,-154 212,-195"/>
<text text-anchor="start" x="104" y="-183" font-family="Helvetica,sans-Serif" font-size="10.00">lib/enterprise_business</text>
<text text-anchor="start" x="104" y="-172" font-family="Helvetica,sans-Serif" font-size="10.00">_rules/serial_protocol</text>
<text text-anchor="middle" x="154" y="-161" font-family="Helvetica,sans-Serif" font-size="10.00">/TaskObject.hpp</text>
</a>
</g>
</g>
<!-- Node2 -->
<g id="node2" class="node">
<title>Node2</title>
<g id="a_node2"><a xlink:href="JsonGenerator_8cpp.xhtml" target="_top" xlink:title=" ">
<polygon fill="white" stroke="#666666" points="146,-35.5 0,-35.5 0,-5.5 146,-5.5 146,-35.5"/>
<text text-anchor="start" x="8" y="-23.5" font-family="Helvetica,sans-Serif" font-size="10.00">lib/3rd_party_adapters</text>
<text text-anchor="middle" x="73" y="-12.5" font-family="Helvetica,sans-Serif" font-size="10.00">/nlohmann/JsonGenerator.cpp</text>
</a>
</g>
</g>
<!-- Node1&#45;&gt;Node2 -->
<g id="edge1" class="edge">
<title>Node1&#45;&gt;Node2</title>
<path fill="none" stroke="#63b8ff" d="M111.86,-146.6C102.27,-138.54 93.11,-128.89 87,-118 72.33,-91.87 71.25,-55.74 71.99,-35.93"/>
<polygon fill="#63b8ff" stroke="#63b8ff" points="109.5,-149.2 119.53,-152.63 113.83,-143.7 109.5,-149.2"/>
</g>
<!-- Node3 -->
<g id="node3" class="node">
<title>Node3</title>
<g id="a_node3"><a xlink:href="Protocol_8cpp.xhtml" target="_top" xlink:title=" ">
<polygon fill="white" stroke="#666666" points="294,-41 174,-41 174,0 294,0 294,-41"/>
<text text-anchor="start" x="182" y="-29" font-family="Helvetica,sans-Serif" font-size="10.00">lib/application_business</text>
<text text-anchor="start" x="182" y="-18" font-family="Helvetica,sans-Serif" font-size="10.00">_rules/serial_interface</text>
<text text-anchor="middle" x="234" y="-7" font-family="Helvetica,sans-Serif" font-size="10.00">/Protocol.cpp</text>
</a>
</g>
</g>
<!-- Node1&#45;&gt;Node3 -->
<g id="edge2" class="edge">
<title>Node1&#45;&gt;Node3</title>
<path fill="none" stroke="#63b8ff" d="M196.22,-146.65C205.81,-138.58 214.94,-128.92 221,-118 234.28,-94.05 235.96,-61.77 235.4,-41.29"/>
<polygon fill="#63b8ff" stroke="#63b8ff" points="194.25,-143.74 188.54,-152.67 198.57,-149.25 194.25,-143.74"/>
</g>
<!-- Node4 -->
<g id="node4" class="node">
<title>Node4</title>
<g id="a_node4"><a xlink:href="TaskList_8hpp.xhtml" target="_top" xlink:title=" ">
<polygon fill="white" stroke="#666666" points="212,-118 96,-118 96,-77 212,-77 212,-118"/>
<text text-anchor="start" x="104" y="-106" font-family="Helvetica,sans-Serif" font-size="10.00">lib/enterprise_business</text>
<text text-anchor="start" x="104" y="-95" font-family="Helvetica,sans-Serif" font-size="10.00">_rules/serial_protocol</text>
<text text-anchor="middle" x="154" y="-84" font-family="Helvetica,sans-Serif" font-size="10.00">/TaskList.hpp</text>
</a>
</g>
</g>
<!-- Node1&#45;&gt;Node4 -->
<g id="edge3" class="edge">
<title>Node1&#45;&gt;Node4</title>
<path fill="none" stroke="#63b8ff" d="M154,-142.36C154,-134.24 154,-125.7 154,-118.33"/>
<polygon fill="#63b8ff" stroke="#63b8ff" points="150.5,-142.28 154,-152.28 157.5,-142.28 150.5,-142.28"/>
</g>
<!-- Node4&#45;&gt;Node2 -->
<g id="edge4" class="edge">
<title>Node4&#45;&gt;Node2</title>
<path fill="none" stroke="#63b8ff" d="M124.56,-69.24C112.36,-57.94 98.7,-45.3 88.51,-35.86"/>
<polygon fill="#63b8ff" stroke="#63b8ff" points="121.89,-71.54 131.61,-75.77 126.65,-66.4 121.89,-71.54"/>
</g>
<!-- Node4&#45;&gt;Node3 -->
<g id="edge5" class="edge">
<title>Node4&#45;&gt;Node3</title>
<path fill="none" stroke="#63b8ff" d="M183.32,-69.02C193.1,-59.84 203.8,-49.81 212.84,-41.33"/>
<polygon fill="#63b8ff" stroke="#63b8ff" points="181.02,-66.37 176.12,-75.76 185.81,-71.47 181.02,-66.37"/>
</g>
</g>
</svg>
