<?xml version="1.0" encoding="UTF-8" standalone="no"?>
<!DOCTYPE svg PUBLIC "-//W3C//DTD SVG 1.1//EN"
 "http://www.w3.org/Graphics/SVG/1.1/DTD/svg11.dtd">
<!-- Generated by graphviz version 2.43.0 (0)
 -->
<!-- Title: IDisplay Pages: 1 -->
<svg width="80pt" height="171pt"
 viewBox="0.00 0.00 80.00 171.00" xmlns="http://www.w3.org/2000/svg" xmlns:xlink="http://www.w3.org/1999/xlink">
<g id="graph0" class="graph" transform="scale(1 1) rotate(0) translate(4 167)">
<title>IDisplay</title>
<polygon fill="white" stroke="transparent" points="-4,4 -4,-167 76,-167 76,4 -4,4"/>
<!-- Node1 -->
<g id="node1" class="node">
<title>Node1</title>
<g id="a_node1"><a xlink:title="Interface to a display capable of displaying various information to a human.">
<polygon fill="#bfbfbf" stroke="black" points="1,-105.5 1,-162.5 71,-162.5 71,-105.5 1,-105.5"/>
<text text-anchor="middle" x="36" y="-150.5" font-family="Helvetica,sans-Serif" font-size="10.00">IDisplay</text>
<polyline fill="none" stroke="black" points="1,-143.5 71,-143.5 "/>
<text text-anchor="middle" x="36" y="-131.5" font-family="Helvetica,sans-Serif" font-size="10.00"> </text>
<polyline fill="none" stroke="black" points="1,-124.5 71,-124.5 "/>
<text text-anchor="start" x="9" y="-112.5" font-family="Helvetica,sans-Serif" font-size="10.00">+ refresh()</text>
</a>
</g>
</g>
<!-- Node2 -->
<g id="node2" class="node">
<title>Node2</title>
<g id="a_node2"><a xlink:href="classDisplay.xhtml" target="_top" xlink:title=" ">
<polygon fill="white" stroke="black" points="0,-0.5 0,-68.5 72,-68.5 72,-0.5 0,-0.5"/>
<text text-anchor="middle" x="36" y="-56.5" font-family="Helvetica,sans-Serif" font-size="10.00">Display</text>
<polyline fill="none" stroke="black" points="0,-49.5 72,-49.5 "/>
<text text-anchor="start" x="8" y="-37.5" font-family="Helvetica,sans-Serif" font-size="10.00">+ display</text>
<polyline fill="none" stroke="black" points="0,-30.5 72,-30.5 "/>
<text text-anchor="start" x="8" y="-18.5" font-family="Helvetica,sans-Serif" font-size="10.00">+ Display()</text>
<text text-anchor="start" x="8" y="-7.5" font-family="Helvetica,sans-Serif" font-size="10.00">+ refresh()</text>
</a>
</g>
</g>
<!-- Node1&#45;&gt;Node2 -->
<g id="edge1" class="edge">
<title>Node1&#45;&gt;Node2</title>
<path fill="none" stroke="midnightblue" d="M36,-95.06C36,-86.39 36,-77.24 36,-68.79"/>
<polygon fill="none" stroke="midnightblue" points="32.5,-95.32 36,-105.32 39.5,-95.32 32.5,-95.32"/>
</g>
</g>
</svg>
