<?xml version="1.0" encoding="UTF-8" standalone="no"?>
<!DOCTYPE svg PUBLIC "-//W3C//DTD SVG 1.1//EN"
 "http://www.w3.org/Graphics/SVG/1.1/DTD/svg11.dtd">
<!-- Generated by graphviz version 2.43.0 (0)
 -->
<!-- Title: lib/application_business_rules/serial_interface Pages: 1 -->
<svg width="172pt" height="151pt"
 viewBox="0.00 0.00 172.00 151.00" xmlns="http://www.w3.org/2000/svg" xmlns:xlink="http://www.w3.org/1999/xlink">
<g id="graph0" class="graph" transform="scale(1 1) rotate(0) translate(4 147)">
<title>lib/application_business_rules/serial_interface</title>
<polygon fill="white" stroke="transparent" points="-4,4 -4,-147 168,-147 168,4 -4,4"/>
<g id="clust1" class="cluster">
<title>clusterdir_6dbb42d2342d9d7292a192bc1d024acc</title>
<g id="a_clust1"><a xlink:href="dir_6dbb42d2342d9d7292a192bc1d024acc.xhtml" target="_top" xlink:title="application_business_rules">
<polygon fill="#ddddee" stroke="black" points="8,-64 8,-135 156,-135 156,-64 8,-64"/>
<text text-anchor="middle" x="82" y="-123" font-family="Helvetica,sans-Serif" font-size="10.00">application_business_rules</text>
</a>
</g>
</g>
<!-- dir_17a6007a5c84c34f300c622be50c188b -->
<g id="node1" class="node">
<title>dir_17a6007a5c84c34f300c622be50c188b</title>
<g id="a_node1"><a xlink:href="dir_17a6007a5c84c34f300c622be50c188b.xhtml" target="_top" xlink:title="serial_interface">
<polygon fill="#eeeeff" stroke="black" points="128,-108 36,-108 36,-72 128,-72 128,-108"/>
<text text-anchor="middle" x="82" y="-87.5" font-family="Helvetica,sans-Serif" font-size="10.00">serial_interface</text>
</a>
</g>
</g>
<!-- dir_3a2f33b0f26bc6229d595c2c354e6333 -->
<g id="node2" class="node">
<title>dir_3a2f33b0f26bc6229d595c2c354e6333</title>
<g id="a_node2"><a xlink:href="dir_3a2f33b0f26bc6229d595c2c354e6333.xhtml" target="_top" xlink:title="utilities">
<polygon fill="none" stroke="black" points="109,-36 55,-36 55,0 109,0 109,-36"/>
<text text-anchor="middle" x="82" y="-15.5" font-family="Helvetica,sans-Serif" font-size="10.00">utilities</text>
</a>
</g>
</g>
<!-- dir_17a6007a5c84c34f300c622be50c188b&#45;&gt;dir_3a2f33b0f26bc6229d595c2c354e6333 -->
<g id="edge1" class="edge">
<title>dir_17a6007a5c84c34f300c622be50c188b&#45;&gt;dir_3a2f33b0f26bc6229d595c2c354e6333</title>
<path fill="none" stroke="black" d="M82,-71.7C82,-63.98 82,-54.71 82,-46.11"/>
<polygon fill="black" stroke="black" points="85.5,-46.1 82,-36.1 78.5,-46.1 85.5,-46.1"/>
<g id="a_edge1&#45;headlabel"><a xlink:href="dir_000012_000008.xhtml" target="_top" xlink:title="1">
<text text-anchor="middle" x="88.34" y="-47.2" font-family="Helvetica,sans-Serif" font-size="10.00">1</text>
</a>
</g>
</g>
</g>
</svg>
