<?xml version="1.0" encoding="UTF-8" standalone="no"?>
<!DOCTYPE svg PUBLIC "-//W3C//DTD SVG 1.1//EN"
 "http://www.w3.org/Graphics/SVG/1.1/DTD/svg11.dtd">
<!-- Generated by graphviz version 2.43.0 (0)
 -->
<!-- Title: lib/3rd_party_adapters/Arduino/framework_adapter.cpp Pages: 1 -->
<svg width="267pt" height="207pt"
 viewBox="0.00 0.00 267.00 207.00" xmlns="http://www.w3.org/2000/svg" xmlns:xlink="http://www.w3.org/1999/xlink">
<g id="graph0" class="graph" transform="scale(1 1) rotate(0) translate(4 203)">
<title>lib/3rd_party_adapters/Arduino/framework_adapter.cpp</title>
<polygon fill="white" stroke="transparent" points="-4,4 -4,-203 263,-203 263,4 -4,4"/>
<!-- Node1 -->
<g id="node1" class="node">
<title>Node1</title>
<g id="a_node1"><a xlink:title=" ">
<polygon fill="#bfbfbf" stroke="black" points="38.5,-168.5 38.5,-198.5 214.5,-198.5 214.5,-168.5 38.5,-168.5"/>
<text text-anchor="start" x="46.5" y="-186.5" font-family="Helvetica,sans-Serif" font-size="10.00">lib/3rd_party_adapters</text>
<text text-anchor="middle" x="126.5" y="-175.5" font-family="Helvetica,sans-Serif" font-size="10.00">/Arduino/framework_adapter.cpp</text>
</a>
</g>
</g>
<!-- Node2 -->
<g id="node2" class="node">
<title>Node2</title>
<g id="a_node2"><a xlink:title=" ">
<polygon fill="white" stroke="#bfbfbf" points="0,-112.5 0,-131.5 63,-131.5 63,-112.5 0,-112.5"/>
<text text-anchor="middle" x="31.5" y="-119.5" font-family="Helvetica,sans-Serif" font-size="10.00">Arduino.h</text>
</a>
</g>
</g>
<!-- Node1&#45;&gt;Node2 -->
<g id="edge1" class="edge">
<title>Node1&#45;&gt;Node2</title>
<path fill="none" stroke="midnightblue" d="M103.99,-168.4C88.9,-158.95 69.11,-146.56 54.03,-137.11"/>
<polygon fill="midnightblue" stroke="midnightblue" points="55.66,-134 45.32,-131.66 51.94,-139.93 55.66,-134"/>
</g>
<!-- Node3 -->
<g id="node3" class="node">
<title>Node3</title>
<g id="a_node3"><a xlink:href="board__pins_8hpp.xhtml" target="_top" xlink:title="Provides named objects for the pins provided by the board.">
<polygon fill="white" stroke="black" points="81,-112.5 81,-131.5 172,-131.5 172,-112.5 81,-112.5"/>
<text text-anchor="middle" x="126.5" y="-119.5" font-family="Helvetica,sans-Serif" font-size="10.00">board_pins.hpp</text>
</a>
</g>
</g>
<!-- Node1&#45;&gt;Node3 -->
<g id="edge2" class="edge">
<title>Node1&#45;&gt;Node3</title>
<path fill="none" stroke="midnightblue" d="M126.5,-168.4C126.5,-160.47 126.5,-150.46 126.5,-141.86"/>
<polygon fill="midnightblue" stroke="midnightblue" points="130,-141.66 126.5,-131.66 123,-141.66 130,-141.66"/>
</g>
<!-- Node6 -->
<g id="node6" class="node">
<title>Node6</title>
<g id="a_node6"><a xlink:title=" ">
<polygon fill="white" stroke="#bfbfbf" points="190,-112.5 190,-131.5 259,-131.5 259,-112.5 190,-112.5"/>
<text text-anchor="middle" x="224.5" y="-119.5" font-family="Helvetica,sans-Serif" font-size="10.00">type_traits</text>
</a>
</g>
</g>
<!-- Node1&#45;&gt;Node6 -->
<g id="edge5" class="edge">
<title>Node1&#45;&gt;Node6</title>
<path fill="none" stroke="midnightblue" d="M149.72,-168.4C165.29,-158.95 185.7,-146.56 201.26,-137.11"/>
<polygon fill="midnightblue" stroke="midnightblue" points="203.51,-139.84 210.24,-131.66 199.88,-133.86 203.51,-139.84"/>
</g>
<!-- Node4 -->
<g id="node4" class="node">
<title>Node4</title>
<g id="a_node4"><a xlink:href="board__types_8hpp.xhtml" target="_top" xlink:title=" ">
<polygon fill="white" stroke="black" points="77.5,-56.5 77.5,-75.5 175.5,-75.5 175.5,-56.5 77.5,-56.5"/>
<text text-anchor="middle" x="126.5" y="-63.5" font-family="Helvetica,sans-Serif" font-size="10.00">board_types.hpp</text>
</a>
</g>
</g>
<!-- Node3&#45;&gt;Node4 -->
<g id="edge3" class="edge">
<title>Node3&#45;&gt;Node4</title>
<path fill="none" stroke="midnightblue" d="M126.5,-112.08C126.5,-105.01 126.5,-94.86 126.5,-85.99"/>
<polygon fill="midnightblue" stroke="midnightblue" points="130,-85.75 126.5,-75.75 123,-85.75 130,-85.75"/>
</g>
<!-- Node5 -->
<g id="node5" class="node">
<title>Node5</title>
<g id="a_node5"><a xlink:title=" ">
<polygon fill="white" stroke="#bfbfbf" points="101.5,-0.5 101.5,-19.5 151.5,-19.5 151.5,-0.5 101.5,-0.5"/>
<text text-anchor="middle" x="126.5" y="-7.5" font-family="Helvetica,sans-Serif" font-size="10.00">cstdint</text>
</a>
</g>
</g>
<!-- Node4&#45;&gt;Node5 -->
<g id="edge4" class="edge">
<title>Node4&#45;&gt;Node5</title>
<path fill="none" stroke="midnightblue" d="M126.5,-56.08C126.5,-49.01 126.5,-38.86 126.5,-29.99"/>
<polygon fill="midnightblue" stroke="midnightblue" points="130,-29.75 126.5,-19.75 123,-29.75 130,-29.75"/>
</g>
</g>
</svg>
