<?xml version="1.0" encoding="UTF-8" standalone="no"?>
<!DOCTYPE svg PUBLIC "-//W3C//DTD SVG 1.1//EN"
 "http://www.w3.org/Graphics/SVG/1.1/DTD/svg11.dtd">
<!-- Generated by graphviz version 2.43.0 (0)
 -->
<!-- Title: lib/application_business_rules/user_interaction/IDisplay.hpp Pages: 1 -->
<svg width="790pt" height="284pt"
 viewBox="0.00 0.00 790.00 284.00" xmlns="http://www.w3.org/2000/svg" xmlns:xlink="http://www.w3.org/1999/xlink">
<g id="graph0" class="graph" transform="scale(1 1) rotate(0) translate(4 280)">
<title>lib/application_business_rules/user_interaction/IDisplay.hpp</title>
<polygon fill="white" stroke="transparent" points="-4,4 -4,-280 786,-280 786,4 -4,4"/>
<!-- Node1 -->
<g id="node1" class="node">
<title>Node1</title>
<g id="a_node1"><a xlink:title=" ">
<polygon fill="#bfbfbf" stroke="black" points="231,-234.5 231,-275.5 365,-275.5 365,-234.5 231,-234.5"/>
<text text-anchor="start" x="239" y="-263.5" font-family="Helvetica,sans-Serif" font-size="10.00">lib/application_business</text>
<text text-anchor="start" x="239" y="-252.5" font-family="Helvetica,sans-Serif" font-size="10.00">_rules/user_interaction</text>
<text text-anchor="middle" x="298" y="-241.5" font-family="Helvetica,sans-Serif" font-size="10.00">/IDisplay.hpp</text>
</a>
</g>
</g>
<!-- Node2 -->
<g id="node2" class="node">
<title>Node2</title>
<g id="a_node2"><a xlink:href="Display_8hpp.xhtml" target="_top" xlink:title=" ">
<polygon fill="white" stroke="black" points="72,-162 72,-192 198,-192 198,-162 72,-162"/>
<text text-anchor="start" x="80" y="-180" font-family="Helvetica,sans-Serif" font-size="10.00">lib/3rd_party_adapters</text>
<text text-anchor="middle" x="135" y="-169" font-family="Helvetica,sans-Serif" font-size="10.00">/LVGL/Display.hpp</text>
</a>
</g>
</g>
<!-- Node1&#45;&gt;Node2 -->
<g id="edge1" class="edge">
<title>Node1&#45;&gt;Node2</title>
<path fill="none" stroke="midnightblue" d="M246.78,-230.12C219.99,-217.63 188.1,-202.76 165.25,-192.11"/>
<polygon fill="midnightblue" stroke="midnightblue" points="245.48,-233.37 256.02,-234.43 248.44,-227.03 245.48,-233.37"/>
</g>
<!-- Node5 -->
<g id="node5" class="node">
<title>Node5</title>
<g id="a_node5"><a xlink:href="display__factory__interface_8hpp.xhtml" target="_top" xlink:title="Dependency injection for the display.">
<polygon fill="white" stroke="black" points="216,-156.5 216,-197.5 380,-197.5 380,-156.5 216,-156.5"/>
<text text-anchor="start" x="224" y="-185.5" font-family="Helvetica,sans-Serif" font-size="10.00">lib/application_business</text>
<text text-anchor="start" x="224" y="-174.5" font-family="Helvetica,sans-Serif" font-size="10.00">_rules/user_interaction</text>
<text text-anchor="middle" x="298" y="-163.5" font-family="Helvetica,sans-Serif" font-size="10.00">/display_factory_interface.hpp</text>
</a>
</g>
</g>
<!-- Node1&#45;&gt;Node5 -->
<g id="edge4" class="edge">
<title>Node1&#45;&gt;Node5</title>
<path fill="none" stroke="midnightblue" d="M298,-224.3C298,-215.3 298,-205.65 298,-197.51"/>
<polygon fill="midnightblue" stroke="midnightblue" points="294.5,-224.43 298,-234.43 301.5,-224.43 294.5,-224.43"/>
</g>
<!-- Node8 -->
<g id="node8" class="node">
<title>Node8</title>
<g id="a_node8"><a xlink:href="Menu_8hpp.xhtml" target="_top" xlink:title=" ">
<polygon fill="white" stroke="black" points="398,-156.5 398,-197.5 532,-197.5 532,-156.5 398,-156.5"/>
<text text-anchor="start" x="406" y="-185.5" font-family="Helvetica,sans-Serif" font-size="10.00">lib/application_business</text>
<text text-anchor="start" x="406" y="-174.5" font-family="Helvetica,sans-Serif" font-size="10.00">_rules/user_interaction</text>
<text text-anchor="middle" x="465" y="-163.5" font-family="Helvetica,sans-Serif" font-size="10.00">/Menu.hpp</text>
</a>
</g>
</g>
<!-- Node1&#45;&gt;Node8 -->
<g id="edge8" class="edge">
<title>Node1&#45;&gt;Node8</title>
<path fill="none" stroke="midnightblue" d="M350.32,-230.19C373.42,-219.67 400.25,-207.47 422.14,-197.51"/>
<polygon fill="midnightblue" stroke="midnightblue" points="348.66,-227.1 341.01,-234.43 351.56,-233.47 348.66,-227.1"/>
</g>
<!-- Node3 -->
<g id="node3" class="node">
<title>Node3</title>
<g id="a_node3"><a xlink:href="Display_8cpp.xhtml" target="_top" xlink:title=" ">
<polygon fill="white" stroke="black" points="0,-84 0,-114 126,-114 126,-84 0,-84"/>
<text text-anchor="start" x="8" y="-102" font-family="Helvetica,sans-Serif" font-size="10.00">lib/3rd_party_adapters</text>
<text text-anchor="middle" x="63" y="-91" font-family="Helvetica,sans-Serif" font-size="10.00">/LVGL/Display.cpp</text>
</a>
</g>
</g>
<!-- Node2&#45;&gt;Node3 -->
<g id="edge2" class="edge">
<title>Node2&#45;&gt;Node3</title>
<path fill="none" stroke="midnightblue" d="M114.32,-154.17C102.16,-141.33 87.13,-125.47 76.48,-114.23"/>
<polygon fill="midnightblue" stroke="midnightblue" points="112.04,-156.85 121.46,-161.7 117.12,-152.04 112.04,-156.85"/>
</g>
<!-- Node4 -->
<g id="node4" class="node">
<title>Node4</title>
<g id="a_node4"><a xlink:href="display__factory__interface_8cpp.xhtml" target="_top" xlink:title=" ">
<polygon fill="white" stroke="black" points="144,-78.5 144,-119.5 270,-119.5 270,-78.5 144,-78.5"/>
<text text-anchor="start" x="152" y="-107.5" font-family="Helvetica,sans-Serif" font-size="10.00">lib/3rd_party_adapters</text>
<text text-anchor="start" x="152" y="-96.5" font-family="Helvetica,sans-Serif" font-size="10.00">/LVGL/display_factory</text>
<text text-anchor="middle" x="207" y="-85.5" font-family="Helvetica,sans-Serif" font-size="10.00">_interface.cpp</text>
</a>
</g>
</g>
<!-- Node2&#45;&gt;Node4 -->
<g id="edge3" class="edge">
<title>Node2&#45;&gt;Node4</title>
<path fill="none" stroke="midnightblue" d="M155.62,-154.23C165.94,-143.34 178.33,-130.26 188.36,-119.68"/>
<polygon fill="midnightblue" stroke="midnightblue" points="152.88,-152.04 148.54,-161.7 157.96,-156.85 152.88,-152.04"/>
</g>
<!-- Node5&#45;&gt;Node4 -->
<g id="edge5" class="edge">
<title>Node5&#45;&gt;Node4</title>
<path fill="none" stroke="midnightblue" d="M266.6,-149.78C254.71,-139.84 241.38,-128.72 230.36,-119.51"/>
<polygon fill="midnightblue" stroke="midnightblue" points="264.65,-152.7 274.57,-156.43 269.13,-147.33 264.65,-152.7"/>
</g>
<!-- Node6 -->
<g id="node6" class="node">
<title>Node6</title>
<g id="a_node6"><a xlink:href="main_8cpp.xhtml" target="_top" xlink:title=" ">
<polygon fill="white" stroke="black" points="255.5,-11.5 255.5,-30.5 334.5,-30.5 334.5,-11.5 255.5,-11.5"/>
<text text-anchor="middle" x="295" y="-18.5" font-family="Helvetica,sans-Serif" font-size="10.00">src/main.cpp</text>
</a>
</g>
</g>
<!-- Node5&#45;&gt;Node6 -->
<g id="edge6" class="edge">
<title>Node5&#45;&gt;Node6</title>
<path fill="none" stroke="midnightblue" d="M297.42,-146.14C296.72,-110.26 295.59,-52.19 295.17,-30.51"/>
<polygon fill="midnightblue" stroke="midnightblue" points="293.93,-146.57 297.62,-156.5 300.92,-146.43 293.93,-146.57"/>
</g>
<!-- Node7 -->
<g id="node7" class="node">
<title>Node7</title>
<g id="a_node7"><a xlink:href="test__hmi_8cpp.xhtml" target="_top" xlink:title=" ">
<polygon fill="white" stroke="black" points="352.5,-6 352.5,-36 477.5,-36 477.5,-6 352.5,-6"/>
<text text-anchor="start" x="360.5" y="-24" font-family="Helvetica,sans-Serif" font-size="10.00">test/hmi/test_hmi/test</text>
<text text-anchor="middle" x="415" y="-13" font-family="Helvetica,sans-Serif" font-size="10.00">_hmi.cpp</text>
</a>
</g>
</g>
<!-- Node5&#45;&gt;Node7 -->
<g id="edge7" class="edge">
<title>Node5&#45;&gt;Node7</title>
<path fill="none" stroke="midnightblue" d="M319.12,-148.2C344.12,-115.3 384.78,-61.77 404.12,-36.32"/>
<polygon fill="midnightblue" stroke="midnightblue" points="316.08,-146.42 312.82,-156.5 321.65,-150.65 316.08,-146.42"/>
</g>
<!-- Node8&#45;&gt;Node6 -->
<g id="edge15" class="edge">
<title>Node8&#45;&gt;Node6</title>
<path fill="none" stroke="midnightblue" d="M436.04,-149.77C396.9,-114.31 329.15,-52.93 304.4,-30.51"/>
<polygon fill="midnightblue" stroke="midnightblue" points="433.71,-152.38 443.47,-156.5 438.41,-147.19 433.71,-152.38"/>
</g>
<!-- Node8&#45;&gt;Node7 -->
<g id="edge16" class="edge">
<title>Node8&#45;&gt;Node7</title>
<path fill="none" stroke="midnightblue" d="M446.92,-147.43C442.14,-138.87 437.37,-129.28 434,-120 423.52,-91.17 418.45,-55.36 416.32,-36"/>
<polygon fill="midnightblue" stroke="midnightblue" points="444.01,-149.37 452.06,-156.25 450.05,-145.85 444.01,-149.37"/>
</g>
<!-- Node9 -->
<g id="node9" class="node">
<title>Node9</title>
<g id="a_node9"><a xlink:href="Menu_8cpp.xhtml" target="_top" xlink:title=" ">
<polygon fill="white" stroke="black" points="595,-78.5 595,-119.5 729,-119.5 729,-78.5 595,-78.5"/>
<text text-anchor="start" x="603" y="-107.5" font-family="Helvetica,sans-Serif" font-size="10.00">lib/application_business</text>
<text text-anchor="start" x="603" y="-96.5" font-family="Helvetica,sans-Serif" font-size="10.00">_rules/user_interaction</text>
<text text-anchor="middle" x="662" y="-85.5" font-family="Helvetica,sans-Serif" font-size="10.00">/Menu.cpp</text>
</a>
</g>
</g>
<!-- Node8&#45;&gt;Node9 -->
<g id="edge9" class="edge">
<title>Node8&#45;&gt;Node9</title>
<path fill="none" stroke="midnightblue" d="M525.27,-152.75C552.85,-142.11 585.16,-129.65 611.44,-119.51"/>
<polygon fill="midnightblue" stroke="midnightblue" points="523.8,-149.56 515.73,-156.43 526.32,-156.09 523.8,-149.56"/>
</g>
<!-- Node10 -->
<g id="node10" class="node">
<title>Node10</title>
<g id="a_node10"><a xlink:href="Presenter_8hpp.xhtml" target="_top" xlink:title=" ">
<polygon fill="white" stroke="black" points="443,-78.5 443,-119.5 577,-119.5 577,-78.5 443,-78.5"/>
<text text-anchor="start" x="451" y="-107.5" font-family="Helvetica,sans-Serif" font-size="10.00">lib/application_business</text>
<text text-anchor="start" x="451" y="-96.5" font-family="Helvetica,sans-Serif" font-size="10.00">_rules/user_interaction</text>
<text text-anchor="middle" x="510" y="-85.5" font-family="Helvetica,sans-Serif" font-size="10.00">/Presenter.hpp</text>
</a>
</g>
</g>
<!-- Node8&#45;&gt;Node10 -->
<g id="edge10" class="edge">
<title>Node8&#45;&gt;Node10</title>
<path fill="none" stroke="midnightblue" d="M481.72,-147.76C487.29,-138.35 493.36,-128.1 498.45,-119.51"/>
<polygon fill="midnightblue" stroke="midnightblue" points="478.67,-146.04 476.59,-156.43 484.7,-149.61 478.67,-146.04"/>
</g>
<!-- Node10&#45;&gt;Node6 -->
<g id="edge13" class="edge">
<title>Node10&#45;&gt;Node6</title>
<path fill="none" stroke="midnightblue" d="M439.15,-75.18C409.59,-65.37 374.99,-53.54 344,-42 334.53,-38.47 324.15,-34.28 315.39,-30.65"/>
<polygon fill="midnightblue" stroke="midnightblue" points="438.38,-78.61 448.97,-78.42 440.57,-71.96 438.38,-78.61"/>
</g>
<!-- Node10&#45;&gt;Node7 -->
<g id="edge14" class="edge">
<title>Node10&#45;&gt;Node7</title>
<path fill="none" stroke="midnightblue" d="M477.49,-71.99C462.52,-60.02 445.34,-46.27 432.78,-36.23"/>
<polygon fill="midnightblue" stroke="midnightblue" points="475.54,-74.91 485.54,-78.43 479.91,-69.45 475.54,-74.91"/>
</g>
<!-- Node11 -->
<g id="node11" class="node">
<title>Node11</title>
<g id="a_node11"><a xlink:href="Presenter_8cpp.xhtml" target="_top" xlink:title=" ">
<polygon fill="white" stroke="black" points="496,-0.5 496,-41.5 630,-41.5 630,-0.5 496,-0.5"/>
<text text-anchor="start" x="504" y="-29.5" font-family="Helvetica,sans-Serif" font-size="10.00">lib/application_business</text>
<text text-anchor="start" x="504" y="-18.5" font-family="Helvetica,sans-Serif" font-size="10.00">_rules/user_interaction</text>
<text text-anchor="middle" x="563" y="-7.5" font-family="Helvetica,sans-Serif" font-size="10.00">/Presenter.cpp</text>
</a>
</g>
</g>
<!-- Node10&#45;&gt;Node11 -->
<g id="edge11" class="edge">
<title>Node10&#45;&gt;Node11</title>
<path fill="none" stroke="midnightblue" d="M529.49,-70.05C536.11,-60.57 543.34,-50.18 549.4,-41.51"/>
<polygon fill="midnightblue" stroke="midnightblue" points="526.5,-68.22 523.65,-78.43 532.24,-72.23 526.5,-68.22"/>
</g>
<!-- Node12 -->
<g id="node12" class="node">
<title>Node12</title>
<g id="a_node12"><a xlink:href="ProcessHmiInputs_8cpp.xhtml" target="_top" xlink:title=" ">
<polygon fill="white" stroke="black" points="648,-0.5 648,-41.5 782,-41.5 782,-0.5 648,-0.5"/>
<text text-anchor="start" x="656" y="-29.5" font-family="Helvetica,sans-Serif" font-size="10.00">lib/application_business</text>
<text text-anchor="start" x="656" y="-18.5" font-family="Helvetica,sans-Serif" font-size="10.00">_rules/user_interaction</text>
<text text-anchor="middle" x="715" y="-7.5" font-family="Helvetica,sans-Serif" font-size="10.00">/ProcessHmiInputs.cpp</text>
</a>
</g>
</g>
<!-- Node10&#45;&gt;Node12 -->
<g id="edge12" class="edge">
<title>Node10&#45;&gt;Node12</title>
<path fill="none" stroke="midnightblue" d="M572.34,-74.89C601.12,-64.22 634.91,-51.69 662.39,-41.51"/>
<polygon fill="midnightblue" stroke="midnightblue" points="570.95,-71.67 562.79,-78.43 573.39,-78.23 570.95,-71.67"/>
</g>
</g>
</svg>
