<?xml version="1.0" encoding="UTF-8" standalone="no"?>
<!DOCTYPE svg PUBLIC "-//W3C//DTD SVG 1.1//EN"
 "http://www.w3.org/Graphics/SVG/1.1/DTD/svg11.dtd">
<!-- Generated by graphviz version 2.43.0 (0)
 -->
<!-- Title: lib/application_business_rules/user_interaction Pages: 1 -->
<svg width="204pt" height="223pt"
 viewBox="0.00 0.00 204.00 223.00" xmlns="http://www.w3.org/2000/svg" xmlns:xlink="http://www.w3.org/1999/xlink">
<g id="graph0" class="graph" transform="scale(1 1) rotate(0) translate(4 219)">
<title>lib/application_business_rules/user_interaction</title>
<polygon fill="white" stroke="transparent" points="-4,4 -4,-219 200,-219 200,4 -4,4"/>
<g id="clust1" class="cluster">
<title>clusterdir_6dbb42d2342d9d7292a192bc1d024acc</title>
<g id="a_clust1"><a xlink:href="dir_6dbb42d2342d9d7292a192bc1d024acc.xhtml" target="_top" xlink:title="application_business_rules">
<polygon fill="#ddddee" stroke="black" points="8,-64 8,-207 188,-207 188,-64 8,-64"/>
<text text-anchor="middle" x="98" y="-195" font-family="Helvetica,sans-Serif" font-size="10.00">application_business_rules</text>
</a>
</g>
</g>
<!-- dir_17a6007a5c84c34f300c622be50c188b -->
<g id="node1" class="node">
<title>dir_17a6007a5c84c34f300c622be50c188b</title>
<g id="a_node1"><a xlink:href="dir_17a6007a5c84c34f300c622be50c188b.xhtml" target="_top" xlink:title="serial_interface">
<polygon fill="none" stroke="black" points="108,-108 16,-108 16,-72 108,-72 108,-108"/>
<text text-anchor="middle" x="62" y="-87.5" font-family="Helvetica,sans-Serif" font-size="10.00">serial_interface</text>
</a>
</g>
</g>
<!-- dir_3a2f33b0f26bc6229d595c2c354e6333 -->
<g id="node4" class="node">
<title>dir_3a2f33b0f26bc6229d595c2c354e6333</title>
<g id="a_node4"><a xlink:href="dir_3a2f33b0f26bc6229d595c2c354e6333.xhtml" target="_top" xlink:title="utilities">
<polygon fill="none" stroke="black" points="162,-36 108,-36 108,0 162,0 162,-36"/>
<text text-anchor="middle" x="135" y="-15.5" font-family="Helvetica,sans-Serif" font-size="10.00">utilities</text>
</a>
</g>
</g>
<!-- dir_17a6007a5c84c34f300c622be50c188b&#45;&gt;dir_3a2f33b0f26bc6229d595c2c354e6333 -->
<g id="edge1" class="edge">
<title>dir_17a6007a5c84c34f300c622be50c188b&#45;&gt;dir_3a2f33b0f26bc6229d595c2c354e6333</title>
<path fill="none" stroke="black" d="M80.04,-71.7C89.06,-63.05 100.12,-52.45 109.94,-43.03"/>
<polygon fill="black" stroke="black" points="112.37,-45.55 117.16,-36.1 107.52,-40.5 112.37,-45.55"/>
<g id="a_edge1&#45;headlabel"><a xlink:href="dir_000013_000009.xhtml" target="_top" xlink:title="1">
<text text-anchor="middle" x="111.74" y="-47.59" font-family="Helvetica,sans-Serif" font-size="10.00">1</text>
</a>
</g>
</g>
<!-- dir_dab382b21b73aae3d74d7668eeeacf78 -->
<g id="node2" class="node">
<title>dir_dab382b21b73aae3d74d7668eeeacf78</title>
<g id="a_node2"><a xlink:href="dir_dab382b21b73aae3d74d7668eeeacf78.xhtml" target="_top" xlink:title="tasks">
<polygon fill="none" stroke="black" points="180,-108 126,-108 126,-72 180,-72 180,-108"/>
<text text-anchor="middle" x="153" y="-87.5" font-family="Helvetica,sans-Serif" font-size="10.00">tasks</text>
</a>
</g>
</g>
<!-- dir_6c970bd3e9ed525c032ca1b33f237f5b -->
<g id="node3" class="node">
<title>dir_6c970bd3e9ed525c032ca1b33f237f5b</title>
<g id="a_node3"><a xlink:href="dir_6c970bd3e9ed525c032ca1b33f237f5b.xhtml" target="_top" xlink:title="user_interaction">
<polygon fill="#eeeeff" stroke="black" points="179.5,-180 84.5,-180 84.5,-144 179.5,-144 179.5,-180"/>
<text text-anchor="middle" x="132" y="-159.5" font-family="Helvetica,sans-Serif" font-size="10.00">user_interaction</text>
</a>
</g>
</g>
<!-- dir_6c970bd3e9ed525c032ca1b33f237f5b&#45;&gt;dir_17a6007a5c84c34f300c622be50c188b -->
<g id="edge2" class="edge">
<title>dir_6c970bd3e9ed525c032ca1b33f237f5b&#45;&gt;dir_17a6007a5c84c34f300c622be50c188b</title>
<path fill="none" stroke="black" d="M114.7,-143.7C106.14,-135.14 95.66,-124.66 86.3,-115.3"/>
<polygon fill="black" stroke="black" points="88.65,-112.7 79.1,-108.1 83.7,-117.65 88.65,-112.7"/>
<g id="a_edge2&#45;headlabel"><a xlink:href="dir_000015_000013.xhtml" target="_top" xlink:title="1">
<text text-anchor="middle" x="93.2" y="-110.73" font-family="Helvetica,sans-Serif" font-size="10.00">1</text>
</a>
</g>
</g>
<!-- dir_6c970bd3e9ed525c032ca1b33f237f5b&#45;&gt;dir_dab382b21b73aae3d74d7668eeeacf78 -->
<g id="edge4" class="edge">
<title>dir_6c970bd3e9ed525c032ca1b33f237f5b&#45;&gt;dir_dab382b21b73aae3d74d7668eeeacf78</title>
<path fill="none" stroke="black" d="M137.19,-143.7C139.53,-135.9 142.35,-126.51 144.95,-117.83"/>
<polygon fill="black" stroke="black" points="148.35,-118.69 147.87,-108.1 141.64,-116.68 148.35,-118.69"/>
<g id="a_edge4&#45;headlabel"><a xlink:href="dir_000015_000014.xhtml" target="_top" xlink:title="1">
<text text-anchor="middle" x="150.03" y="-120.45" font-family="Helvetica,sans-Serif" font-size="10.00">1</text>
</a>
</g>
</g>
<!-- dir_6c970bd3e9ed525c032ca1b33f237f5b&#45;&gt;dir_3a2f33b0f26bc6229d595c2c354e6333 -->
<g id="edge3" class="edge">
<title>dir_6c970bd3e9ed525c032ca1b33f237f5b&#45;&gt;dir_3a2f33b0f26bc6229d595c2c354e6333</title>
<path fill="none" stroke="black" d="M158.58,-143.91C170.24,-134.81 182.69,-122.49 189,-108 196.81,-90.07 197.29,-81.71 189,-64 184.82,-55.07 177.9,-47.3 170.39,-40.84"/>
<polygon fill="black" stroke="black" points="172.13,-37.76 162.1,-34.35 167.82,-43.27 172.13,-37.76"/>
<g id="a_edge3&#45;headlabel"><a xlink:href="dir_000015_000009.xhtml" target="_top" xlink:title="2">
<text text-anchor="middle" x="176.71" y="-35.24" font-family="Helvetica,sans-Serif" font-size="10.00">2</text>
</a>
</g>
</g>
</g>
</svg>
