<?xml version="1.0" encoding="UTF-8" standalone="no"?>
<!DOCTYPE svg PUBLIC "-//W3C//DTD SVG 1.1//EN"
 "http://www.w3.org/Graphics/SVG/1.1/DTD/svg11.dtd">
<!-- Generated by graphviz version 2.43.0 (0)
 -->
<!-- Title: lib/3rd_party_adapters/LVGL/display_factory_interface.cpp Pages: 1 -->
<svg width="590pt" height="229pt"
 viewBox="0.00 0.00 589.50 229.00" xmlns="http://www.w3.org/2000/svg" xmlns:xlink="http://www.w3.org/1999/xlink">
<g id="graph0" class="graph" transform="scale(1 1) rotate(0) translate(4 225)">
<title>lib/3rd_party_adapters/LVGL/display_factory_interface.cpp</title>
<polygon fill="white" stroke="transparent" points="-4,4 -4,-225 585.5,-225 585.5,4 -4,4"/>
<!-- Node1 -->
<g id="node1" class="node">
<title>Node1</title>
<g id="a_node1"><a xlink:title=" ">
<polygon fill="#bfbfbf" stroke="black" points="272.5,-179.5 272.5,-220.5 398.5,-220.5 398.5,-179.5 272.5,-179.5"/>
<text text-anchor="start" x="280.5" y="-208.5" font-family="Helvetica,sans-Serif" font-size="10.00">lib/3rd_party_adapters</text>
<text text-anchor="start" x="280.5" y="-197.5" font-family="Helvetica,sans-Serif" font-size="10.00">/LVGL/display_factory</text>
<text text-anchor="middle" x="335.5" y="-186.5" font-family="Helvetica,sans-Serif" font-size="10.00">_interface.cpp</text>
</a>
</g>
</g>
<!-- Node2 -->
<g id="node2" class="node">
<title>Node2</title>
<g id="a_node2"><a xlink:href="Display_8hpp.xhtml" target="_top" xlink:title=" ">
<polygon fill="white" stroke="black" points="155,-118 155,-137 228,-137 228,-118 155,-118"/>
<text text-anchor="middle" x="191.5" y="-125" font-family="Helvetica,sans-Serif" font-size="10.00">Display.hpp</text>
</a>
</g>
</g>
<!-- Node1&#45;&gt;Node2 -->
<g id="edge1" class="edge">
<title>Node1&#45;&gt;Node2</title>
<path fill="none" stroke="midnightblue" d="M295.39,-179.36C270.85,-167.35 240.12,-152.3 218.47,-141.7"/>
<polygon fill="midnightblue" stroke="midnightblue" points="219.74,-138.43 209.22,-137.17 216.66,-144.71 219.74,-138.43"/>
</g>
<!-- Node8 -->
<g id="node8" class="node">
<title>Node8</title>
<g id="a_node8"><a xlink:title=" ">
<polygon fill="white" stroke="#bfbfbf" points="246,-118 246,-137 309,-137 309,-118 246,-118"/>
<text text-anchor="middle" x="277.5" y="-125" font-family="Helvetica,sans-Serif" font-size="10.00">Arduino.h</text>
</a>
</g>
</g>
<!-- Node1&#45;&gt;Node8 -->
<g id="edge7" class="edge">
<title>Node1&#45;&gt;Node8</title>
<path fill="none" stroke="midnightblue" d="M319.34,-179.36C310.44,-168.54 299.51,-155.26 291.06,-144.98"/>
<polygon fill="midnightblue" stroke="midnightblue" points="293.69,-142.67 284.64,-137.17 288.29,-147.12 293.69,-142.67"/>
</g>
<!-- Node9 -->
<g id="node9" class="node">
<title>Node9</title>
<g id="a_node9"><a xlink:href="board__pins_8hpp.xhtml" target="_top" xlink:title="Provides named objects for the pins provided by the board.">
<polygon fill="white" stroke="black" points="483,-118 483,-137 574,-137 574,-118 483,-118"/>
<text text-anchor="middle" x="528.5" y="-125" font-family="Helvetica,sans-Serif" font-size="10.00">board_pins.hpp</text>
</a>
</g>
</g>
<!-- Node1&#45;&gt;Node9 -->
<g id="edge8" class="edge">
<title>Node1&#45;&gt;Node9</title>
<path fill="none" stroke="midnightblue" d="M389,-179.46C423.13,-166.99 466.28,-151.23 495.48,-140.56"/>
<polygon fill="midnightblue" stroke="midnightblue" points="497,-143.73 505.19,-137.01 494.6,-137.16 497,-143.73"/>
</g>
<!-- Node11 -->
<g id="node11" class="node">
<title>Node11</title>
<g id="a_node11"><a xlink:href="display__factory__interface_8hpp.xhtml" target="_top" xlink:title="Dependency injection for the display.">
<polygon fill="white" stroke="black" points="327.5,-112.5 327.5,-142.5 461.5,-142.5 461.5,-112.5 327.5,-112.5"/>
<text text-anchor="start" x="335.5" y="-130.5" font-family="Helvetica,sans-Serif" font-size="10.00">user_interaction/display</text>
<text text-anchor="middle" x="394.5" y="-119.5" font-family="Helvetica,sans-Serif" font-size="10.00">_factory_interface.hpp</text>
</a>
</g>
</g>
<!-- Node1&#45;&gt;Node11 -->
<g id="edge11" class="edge">
<title>Node1&#45;&gt;Node11</title>
<path fill="none" stroke="midnightblue" d="M351.93,-179.36C359.35,-170.5 368.14,-160 375.81,-150.84"/>
<polygon fill="midnightblue" stroke="midnightblue" points="378.72,-152.81 382.46,-142.89 373.35,-148.31 378.72,-152.81"/>
</g>
<!-- Node3 -->
<g id="node3" class="node">
<title>Node3</title>
<g id="a_node3"><a xlink:title=" ">
<polygon fill="white" stroke="#bfbfbf" points="0,-56.5 0,-75.5 113,-75.5 113,-56.5 0,-56.5"/>
<text text-anchor="middle" x="56.5" y="-63.5" font-family="Helvetica,sans-Serif" font-size="10.00">Adafruit_SSD1306.h</text>
</a>
</g>
</g>
<!-- Node2&#45;&gt;Node3 -->
<g id="edge2" class="edge">
<title>Node2&#45;&gt;Node3</title>
<path fill="none" stroke="midnightblue" d="M172.16,-117.98C149.4,-107.95 111.41,-91.2 85.21,-79.65"/>
<polygon fill="midnightblue" stroke="midnightblue" points="86.37,-76.34 75.81,-75.51 83.55,-82.74 86.37,-76.34"/>
</g>
<!-- Node4 -->
<g id="node4" class="node">
<title>Node4</title>
<g id="a_node4"><a xlink:title=" ">
<polygon fill="white" stroke="#bfbfbf" points="311.5,-0.5 311.5,-19.5 361.5,-19.5 361.5,-0.5 311.5,-0.5"/>
<text text-anchor="middle" x="336.5" y="-7.5" font-family="Helvetica,sans-Serif" font-size="10.00">cstdint</text>
</a>
</g>
</g>
<!-- Node2&#45;&gt;Node4 -->
<g id="edge3" class="edge">
<title>Node2&#45;&gt;Node4</title>
<path fill="none" stroke="midnightblue" d="M182.39,-117.98C168.52,-103.96 145.25,-75.64 160.5,-56 177.59,-33.99 254.97,-20.92 301.24,-14.94"/>
<polygon fill="midnightblue" stroke="midnightblue" points="301.96,-18.38 311.45,-13.67 301.09,-11.43 301.96,-18.38"/>
</g>
<!-- Node5 -->
<g id="node5" class="node">
<title>Node5</title>
<g id="a_node5"><a xlink:title=" ">
<polygon fill="white" stroke="#bfbfbf" points="169.5,-56.5 169.5,-75.5 213.5,-75.5 213.5,-56.5 169.5,-56.5"/>
<text text-anchor="middle" x="191.5" y="-63.5" font-family="Helvetica,sans-Serif" font-size="10.00">lvgl.h</text>
</a>
</g>
</g>
<!-- Node2&#45;&gt;Node5 -->
<g id="edge4" class="edge">
<title>Node2&#45;&gt;Node5</title>
<path fill="none" stroke="midnightblue" d="M191.5,-117.98C191.5,-109.58 191.5,-96.48 191.5,-85.66"/>
<polygon fill="midnightblue" stroke="midnightblue" points="195,-85.51 191.5,-75.51 188,-85.51 195,-85.51"/>
</g>
<!-- Node6 -->
<g id="node6" class="node">
<title>Node6</title>
<g id="a_node6"><a xlink:title=" ">
<polygon fill="white" stroke="#bfbfbf" points="231.5,-56.5 231.5,-75.5 289.5,-75.5 289.5,-56.5 231.5,-56.5"/>
<text text-anchor="middle" x="260.5" y="-63.5" font-family="Helvetica,sans-Serif" font-size="10.00">memory</text>
</a>
</g>
</g>
<!-- Node2&#45;&gt;Node6 -->
<g id="edge5" class="edge">
<title>Node2&#45;&gt;Node6</title>
<path fill="none" stroke="midnightblue" d="M201.39,-117.98C212.15,-108.7 229.57,-93.67 242.72,-82.33"/>
<polygon fill="midnightblue" stroke="midnightblue" points="245.34,-84.69 250.63,-75.51 240.77,-79.39 245.34,-84.69"/>
</g>
<!-- Node7 -->
<g id="node7" class="node">
<title>Node7</title>
<g id="a_node7"><a xlink:href="IDisplay_8hpp.xhtml" target="_top" xlink:title=" ">
<polygon fill="white" stroke="black" points="307.5,-56.5 307.5,-75.5 465.5,-75.5 465.5,-56.5 307.5,-56.5"/>
<text text-anchor="middle" x="386.5" y="-63.5" font-family="Helvetica,sans-Serif" font-size="10.00">user_interaction/IDisplay.hpp</text>
</a>
</g>
</g>
<!-- Node2&#45;&gt;Node7 -->
<g id="edge6" class="edge">
<title>Node2&#45;&gt;Node7</title>
<path fill="none" stroke="midnightblue" d="M217.65,-117.98C223.82,-115.99 230.39,-113.9 236.5,-112 274.17,-100.28 317.32,-87.39 347.65,-78.42"/>
<polygon fill="midnightblue" stroke="midnightblue" points="348.81,-81.73 357.41,-75.54 346.83,-75.01 348.81,-81.73"/>
</g>
<!-- Node10 -->
<g id="node10" class="node">
<title>Node10</title>
<g id="a_node10"><a xlink:href="board__types_8hpp.xhtml" target="_top" xlink:title=" ">
<polygon fill="white" stroke="black" points="483.5,-56.5 483.5,-75.5 581.5,-75.5 581.5,-56.5 483.5,-56.5"/>
<text text-anchor="middle" x="532.5" y="-63.5" font-family="Helvetica,sans-Serif" font-size="10.00">board_types.hpp</text>
</a>
</g>
</g>
<!-- Node9&#45;&gt;Node10 -->
<g id="edge9" class="edge">
<title>Node9&#45;&gt;Node10</title>
<path fill="none" stroke="midnightblue" d="M529.07,-117.98C529.64,-109.58 530.52,-96.48 531.25,-85.66"/>
<polygon fill="midnightblue" stroke="midnightblue" points="534.75,-85.72 531.93,-75.51 527.76,-85.25 534.75,-85.72"/>
</g>
<!-- Node10&#45;&gt;Node4 -->
<g id="edge10" class="edge">
<title>Node10&#45;&gt;Node4</title>
<path fill="none" stroke="midnightblue" d="M501.44,-56.44C466.02,-46.68 408.25,-30.77 371.33,-20.6"/>
<polygon fill="midnightblue" stroke="midnightblue" points="372.07,-17.17 361.5,-17.89 370.21,-23.92 372.07,-17.17"/>
</g>
<!-- Node11&#45;&gt;Node7 -->
<g id="edge12" class="edge">
<title>Node11&#45;&gt;Node7</title>
<path fill="none" stroke="midnightblue" d="M392.6,-112.4C391.53,-104.38 390.16,-94.23 389,-85.57"/>
<polygon fill="midnightblue" stroke="midnightblue" points="392.47,-85.1 387.66,-75.66 385.53,-86.04 392.47,-85.1"/>
</g>
</g>
</svg>
