<?xml version="1.0" encoding="UTF-8" standalone="no"?>
<!DOCTYPE svg PUBLIC "-//W3C//DTD SVG 1.1//EN"
 "http://www.w3.org/Graphics/SVG/1.1/DTD/svg11.dtd">
<!-- Generated by graphviz version 2.43.0 (0)
 -->
<!-- Title: lib/board_adapters/input_device_interface/Keypad.cpp Pages: 1 -->
<svg width="1089pt" height="274pt"
 viewBox="0.00 0.00 1088.50 274.00" xmlns="http://www.w3.org/2000/svg" xmlns:xlink="http://www.w3.org/1999/xlink">
<g id="graph0" class="graph" transform="scale(1 1) rotate(0) translate(4 270)">
<title>lib/board_adapters/input_device_interface/Keypad.cpp</title>
<polygon fill="white" stroke="transparent" points="-4,4 -4,-270 1084.5,-270 1084.5,4 -4,4"/>
<!-- Node1 -->
<g id="node1" class="node">
<title>Node1</title>
<g id="a_node1"><a xlink:title=" ">
<polygon fill="#bfbfbf" stroke="black" points="533.5,-224.5 533.5,-265.5 664.5,-265.5 664.5,-224.5 533.5,-224.5"/>
<text text-anchor="start" x="541.5" y="-253.5" font-family="Helvetica,sans-Serif" font-size="10.00">lib/board_adapters</text>
<text text-anchor="start" x="541.5" y="-242.5" font-family="Helvetica,sans-Serif" font-size="10.00">/input_device_interface</text>
<text text-anchor="middle" x="599" y="-231.5" font-family="Helvetica,sans-Serif" font-size="10.00">/Keypad.cpp</text>
</a>
</g>
</g>
<!-- Node2 -->
<g id="node2" class="node">
<title>Node2</title>
<g id="a_node2"><a xlink:href="Keypad_8hpp.xhtml" target="_top" xlink:title=" ">
<polygon fill="white" stroke="black" points="63,-168.5 63,-187.5 137,-187.5 137,-168.5 63,-168.5"/>
<text text-anchor="middle" x="100" y="-175.5" font-family="Helvetica,sans-Serif" font-size="10.00">Keypad.hpp</text>
</a>
</g>
</g>
<!-- Node1&#45;&gt;Node2 -->
<g id="edge1" class="edge">
<title>Node1&#45;&gt;Node2</title>
<path fill="none" stroke="midnightblue" d="M533.25,-235.44C431.17,-222.14 237,-196.85 147.43,-185.18"/>
<polygon fill="midnightblue" stroke="midnightblue" points="147.66,-181.68 137.3,-183.86 146.76,-188.62 147.66,-181.68"/>
</g>
<!-- Node6 -->
<g id="node6" class="node">
<title>Node6</title>
<g id="a_node6"><a xlink:title=" ">
<polygon fill="white" stroke="#bfbfbf" points="153.5,-56.5 153.5,-75.5 218.5,-75.5 218.5,-56.5 153.5,-56.5"/>
<text text-anchor="middle" x="186" y="-63.5" font-family="Helvetica,sans-Serif" font-size="10.00">functional</text>
</a>
</g>
</g>
<!-- Node1&#45;&gt;Node6 -->
<g id="edge19" class="edge">
<title>Node1&#45;&gt;Node6</title>
<path fill="none" stroke="midnightblue" d="M533.37,-243.78C433.51,-242 250.21,-232.56 205,-188 177.7,-161.1 179.42,-112.09 182.84,-85.45"/>
<polygon fill="midnightblue" stroke="midnightblue" points="186.3,-85.93 184.32,-75.53 179.38,-84.9 186.3,-85.93"/>
</g>
<!-- Node7 -->
<g id="node7" class="node">
<title>Node7</title>
<g id="a_node7"><a xlink:href="debouncedIsr_8hpp.xhtml" target="_top" xlink:title=" ">
<polygon fill="white" stroke="black" points="214,-168.5 214,-187.5 316,-187.5 316,-168.5 214,-168.5"/>
<text text-anchor="middle" x="265" y="-175.5" font-family="Helvetica,sans-Serif" font-size="10.00">debouncedIsr.hpp</text>
</a>
</g>
</g>
<!-- Node1&#45;&gt;Node7 -->
<g id="edge6" class="edge">
<title>Node1&#45;&gt;Node7</title>
<path fill="none" stroke="midnightblue" d="M533.41,-231.24C470.86,-219.06 377.77,-200.95 319.28,-189.56"/>
<polygon fill="midnightblue" stroke="midnightblue" points="319.62,-186.06 309.13,-187.59 318.28,-192.93 319.62,-186.06"/>
</g>
<!-- Node8 -->
<g id="node8" class="node">
<title>Node8</title>
<g id="a_node8"><a xlink:title=" ">
<polygon fill="white" stroke="#bfbfbf" points="306,-112.5 306,-131.5 356,-131.5 356,-112.5 306,-112.5"/>
<text text-anchor="middle" x="331" y="-119.5" font-family="Helvetica,sans-Serif" font-size="10.00">chrono</text>
</a>
</g>
</g>
<!-- Node1&#45;&gt;Node8 -->
<g id="edge17" class="edge">
<title>Node1&#45;&gt;Node8</title>
<path fill="none" stroke="midnightblue" d="M533.4,-243.18C482.03,-239.33 411.4,-226.59 363,-188 348.42,-176.38 340,-156.42 335.49,-141.68"/>
<polygon fill="midnightblue" stroke="midnightblue" points="338.76,-140.38 332.77,-131.65 332.01,-142.22 338.76,-140.38"/>
</g>
<!-- Node9 -->
<g id="node9" class="node">
<title>Node9</title>
<g id="a_node9"><a xlink:href="Arduino-wrapper_8h.xhtml" target="_top" xlink:title="Circumvents problematic processor macros defined by Arduino framework.">
<polygon fill="white" stroke="black" points="372,-168.5 372,-187.5 478,-187.5 478,-168.5 372,-168.5"/>
<text text-anchor="middle" x="425" y="-175.5" font-family="Helvetica,sans-Serif" font-size="10.00">Arduino&#45;wrapper.h</text>
</a>
</g>
</g>
<!-- Node1&#45;&gt;Node9 -->
<g id="edge9" class="edge">
<title>Node1&#45;&gt;Node9</title>
<path fill="none" stroke="midnightblue" d="M546.79,-224.5C517.81,-213.67 482.65,-200.54 457.58,-191.17"/>
<polygon fill="midnightblue" stroke="midnightblue" points="458.75,-187.87 448.16,-187.65 456.3,-194.43 458.75,-187.87"/>
</g>
<!-- Node11 -->
<g id="node11" class="node">
<title>Node11</title>
<g id="a_node11"><a xlink:title=" ">
<polygon fill="white" stroke="#bfbfbf" points="496,-168.5 496,-187.5 560,-187.5 560,-168.5 496,-168.5"/>
<text text-anchor="middle" x="528" y="-175.5" font-family="Helvetica,sans-Serif" font-size="10.00">algorithm</text>
</a>
</g>
</g>
<!-- Node1&#45;&gt;Node11 -->
<g id="edge11" class="edge">
<title>Node1&#45;&gt;Node11</title>
<path fill="none" stroke="midnightblue" d="M577.7,-224.5C567.23,-214.92 554.79,-203.53 544.98,-194.54"/>
<polygon fill="midnightblue" stroke="midnightblue" points="547.19,-191.82 537.45,-187.65 542.46,-196.99 547.19,-191.82"/>
</g>
<!-- Node12 -->
<g id="node12" class="node">
<title>Node12</title>
<g id="a_node12"><a xlink:title=" ">
<polygon fill="white" stroke="#bfbfbf" points="578,-168.5 578,-187.5 620,-187.5 620,-168.5 578,-168.5"/>
<text text-anchor="middle" x="599" y="-175.5" font-family="Helvetica,sans-Serif" font-size="10.00">array</text>
</a>
</g>
</g>
<!-- Node1&#45;&gt;Node12 -->
<g id="edge12" class="edge">
<title>Node1&#45;&gt;Node12</title>
<path fill="none" stroke="midnightblue" d="M599,-224.5C599,-216.07 599,-206.24 599,-197.87"/>
<polygon fill="midnightblue" stroke="midnightblue" points="602.5,-197.65 599,-187.65 595.5,-197.65 602.5,-197.65"/>
</g>
<!-- Node13 -->
<g id="node13" class="node">
<title>Node13</title>
<g id="a_node13"><a xlink:href="board__pins_8hpp.xhtml" target="_top" xlink:title="Provides named objects for the pins provided by the board.">
<polygon fill="white" stroke="black" points="638.5,-168.5 638.5,-187.5 729.5,-187.5 729.5,-168.5 638.5,-168.5"/>
<text text-anchor="middle" x="684" y="-175.5" font-family="Helvetica,sans-Serif" font-size="10.00">board_pins.hpp</text>
</a>
</g>
</g>
<!-- Node1&#45;&gt;Node13 -->
<g id="edge13" class="edge">
<title>Node1&#45;&gt;Node13</title>
<path fill="none" stroke="midnightblue" d="M624.5,-224.5C637.41,-214.63 652.82,-202.84 664.72,-193.74"/>
<polygon fill="midnightblue" stroke="midnightblue" points="666.87,-196.51 672.69,-187.65 662.62,-190.95 666.87,-196.51"/>
</g>
<!-- Node16 -->
<g id="node16" class="node">
<title>Node16</title>
<g id="a_node16"><a xlink:title=" ">
<polygon fill="white" stroke="#bfbfbf" points="748,-168.5 748,-187.5 800,-187.5 800,-168.5 748,-168.5"/>
<text text-anchor="middle" x="774" y="-175.5" font-family="Helvetica,sans-Serif" font-size="10.00">cassert</text>
</a>
</g>
</g>
<!-- Node1&#45;&gt;Node16 -->
<g id="edge16" class="edge">
<title>Node1&#45;&gt;Node16</title>
<path fill="none" stroke="midnightblue" d="M651.51,-224.5C680.66,-213.67 716.02,-200.54 741.24,-191.17"/>
<polygon fill="midnightblue" stroke="midnightblue" points="742.55,-194.42 750.7,-187.65 740.11,-187.85 742.55,-194.42"/>
</g>
<!-- Node17 -->
<g id="node17" class="node">
<title>Node17</title>
<g id="a_node17"><a xlink:title=" ">
<polygon fill="white" stroke="#bfbfbf" points="818.5,-168.5 818.5,-187.5 871.5,-187.5 871.5,-168.5 818.5,-168.5"/>
<text text-anchor="middle" x="845" y="-175.5" font-family="Helvetica,sans-Serif" font-size="10.00">cstddef</text>
</a>
</g>
</g>
<!-- Node1&#45;&gt;Node17 -->
<g id="edge18" class="edge">
<title>Node1&#45;&gt;Node17</title>
<path fill="none" stroke="midnightblue" d="M664.6,-226.67C710.66,-214.5 770.55,-198.67 808.4,-188.67"/>
<polygon fill="midnightblue" stroke="midnightblue" points="809.69,-191.95 818.46,-186.01 807.9,-185.18 809.69,-191.95"/>
</g>
<!-- Node18 -->
<g id="node18" class="node">
<title>Node18</title>
<g id="a_node18"><a xlink:title=" ">
<polygon fill="white" stroke="#bfbfbf" points="889.5,-168.5 889.5,-187.5 942.5,-187.5 942.5,-168.5 889.5,-168.5"/>
<text text-anchor="middle" x="916" y="-175.5" font-family="Helvetica,sans-Serif" font-size="10.00">iterator</text>
</a>
</g>
</g>
<!-- Node1&#45;&gt;Node18 -->
<g id="edge20" class="edge">
<title>Node1&#45;&gt;Node18</title>
<path fill="none" stroke="midnightblue" d="M664.77,-231.82C719.49,-221.48 799.68,-205.83 879.11,-188.11"/>
<polygon fill="midnightblue" stroke="midnightblue" points="880.31,-191.43 889.3,-185.83 878.77,-184.6 880.31,-191.43"/>
</g>
<!-- Node19 -->
<g id="node19" class="node">
<title>Node19</title>
<g id="a_node19"><a xlink:title=" ">
<polygon fill="white" stroke="#bfbfbf" points="961,-168.5 961,-187.5 1017,-187.5 1017,-168.5 961,-168.5"/>
<text text-anchor="middle" x="989" y="-175.5" font-family="Helvetica,sans-Serif" font-size="10.00">optional</text>
</a>
</g>
</g>
<!-- Node1&#45;&gt;Node19 -->
<g id="edge21" class="edge">
<title>Node1&#45;&gt;Node19</title>
<path fill="none" stroke="midnightblue" d="M664.67,-235.21C733.62,-225.61 845.36,-209.03 950.91,-188.09"/>
<polygon fill="midnightblue" stroke="midnightblue" points="951.65,-191.51 960.77,-186.12 950.28,-184.65 951.65,-191.51"/>
</g>
<!-- Node20 -->
<g id="node20" class="node">
<title>Node20</title>
<g id="a_node20"><a xlink:title=" ">
<polygon fill="white" stroke="#bfbfbf" points="1035.5,-168.5 1035.5,-187.5 1080.5,-187.5 1080.5,-168.5 1035.5,-168.5"/>
<text text-anchor="middle" x="1058" y="-175.5" font-family="Helvetica,sans-Serif" font-size="10.00">utility</text>
</a>
</g>
</g>
<!-- Node1&#45;&gt;Node20 -->
<g id="edge22" class="edge">
<title>Node1&#45;&gt;Node20</title>
<path fill="none" stroke="midnightblue" d="M664.59,-238.35C746.78,-230.62 891.98,-214.78 1025.38,-187.84"/>
<polygon fill="midnightblue" stroke="midnightblue" points="1026.28,-191.23 1035.37,-185.8 1024.87,-184.37 1026.28,-191.23"/>
</g>
<!-- Node3 -->
<g id="node3" class="node">
<title>Node3</title>
<g id="a_node3"><a xlink:href="IKeypad_8hpp.xhtml" target="_top" xlink:title=" ">
<polygon fill="white" stroke="black" points="0,-112.5 0,-131.5 158,-131.5 158,-112.5 0,-112.5"/>
<text text-anchor="middle" x="79" y="-119.5" font-family="Helvetica,sans-Serif" font-size="10.00">user_interaction/IKeypad.hpp</text>
</a>
</g>
</g>
<!-- Node2&#45;&gt;Node3 -->
<g id="edge2" class="edge">
<title>Node2&#45;&gt;Node3</title>
<path fill="none" stroke="midnightblue" d="M96.53,-168.08C93.69,-160.77 89.57,-150.18 86.04,-141.1"/>
<polygon fill="midnightblue" stroke="midnightblue" points="89.29,-139.8 82.4,-131.75 82.77,-142.34 89.29,-139.8"/>
</g>
<!-- Node4 -->
<g id="node4" class="node">
<title>Node4</title>
<g id="a_node4"><a xlink:href="KeyIds_8hpp.xhtml" target="_top" xlink:title=" ">
<polygon fill="white" stroke="black" points="44,-56.5 44,-75.5 114,-75.5 114,-56.5 44,-56.5"/>
<text text-anchor="middle" x="79" y="-63.5" font-family="Helvetica,sans-Serif" font-size="10.00">KeyIds.hpp</text>
</a>
</g>
</g>
<!-- Node3&#45;&gt;Node4 -->
<g id="edge3" class="edge">
<title>Node3&#45;&gt;Node4</title>
<path fill="none" stroke="midnightblue" d="M79,-112.08C79,-105.01 79,-94.86 79,-85.99"/>
<polygon fill="midnightblue" stroke="midnightblue" points="82.5,-85.75 79,-75.75 75.5,-85.75 82.5,-85.75"/>
</g>
<!-- Node3&#45;&gt;Node6 -->
<g id="edge5" class="edge">
<title>Node3&#45;&gt;Node6</title>
<path fill="none" stroke="midnightblue" d="M96.19,-112.32C113.35,-103.66 139.95,-90.24 159.75,-80.25"/>
<polygon fill="midnightblue" stroke="midnightblue" points="161.5,-83.28 168.85,-75.65 158.35,-77.04 161.5,-83.28"/>
</g>
<!-- Node5 -->
<g id="node5" class="node">
<title>Node5</title>
<g id="a_node5"><a xlink:title=" ">
<polygon fill="white" stroke="#bfbfbf" points="50.5,-0.5 50.5,-19.5 107.5,-19.5 107.5,-0.5 50.5,-0.5"/>
<text text-anchor="middle" x="79" y="-7.5" font-family="Helvetica,sans-Serif" font-size="10.00">ostream</text>
</a>
</g>
</g>
<!-- Node4&#45;&gt;Node5 -->
<g id="edge4" class="edge">
<title>Node4&#45;&gt;Node5</title>
<path fill="none" stroke="midnightblue" d="M79,-56.08C79,-49.01 79,-38.86 79,-29.99"/>
<polygon fill="midnightblue" stroke="midnightblue" points="82.5,-29.75 79,-19.75 75.5,-29.75 82.5,-29.75"/>
</g>
<!-- Node7&#45;&gt;Node6 -->
<g id="edge8" class="edge">
<title>Node7&#45;&gt;Node6</title>
<path fill="none" stroke="midnightblue" d="M258.8,-168.37C245.76,-150.22 215.3,-107.8 198.2,-83.99"/>
<polygon fill="midnightblue" stroke="midnightblue" points="200.85,-81.67 192.17,-75.59 195.16,-85.76 200.85,-81.67"/>
</g>
<!-- Node7&#45;&gt;Node8 -->
<g id="edge7" class="edge">
<title>Node7&#45;&gt;Node8</title>
<path fill="none" stroke="midnightblue" d="M275.6,-168.32C285.46,-160.26 300.35,-148.08 312.22,-138.37"/>
<polygon fill="midnightblue" stroke="midnightblue" points="314.68,-140.88 320.2,-131.83 310.25,-135.46 314.68,-140.88"/>
</g>
<!-- Node10 -->
<g id="node10" class="node">
<title>Node10</title>
<g id="a_node10"><a xlink:title=" ">
<polygon fill="white" stroke="#bfbfbf" points="393.5,-112.5 393.5,-131.5 456.5,-131.5 456.5,-112.5 393.5,-112.5"/>
<text text-anchor="middle" x="425" y="-119.5" font-family="Helvetica,sans-Serif" font-size="10.00">Arduino.h</text>
</a>
</g>
</g>
<!-- Node9&#45;&gt;Node10 -->
<g id="edge10" class="edge">
<title>Node9&#45;&gt;Node10</title>
<path fill="none" stroke="midnightblue" d="M425,-168.08C425,-161.01 425,-150.86 425,-141.99"/>
<polygon fill="midnightblue" stroke="midnightblue" points="428.5,-141.75 425,-131.75 421.5,-141.75 428.5,-141.75"/>
</g>
<!-- Node14 -->
<g id="node14" class="node">
<title>Node14</title>
<g id="a_node14"><a xlink:href="board__types_8hpp.xhtml" target="_top" xlink:title=" ">
<polygon fill="white" stroke="black" points="635,-112.5 635,-131.5 733,-131.5 733,-112.5 635,-112.5"/>
<text text-anchor="middle" x="684" y="-119.5" font-family="Helvetica,sans-Serif" font-size="10.00">board_types.hpp</text>
</a>
</g>
</g>
<!-- Node13&#45;&gt;Node14 -->
<g id="edge14" class="edge">
<title>Node13&#45;&gt;Node14</title>
<path fill="none" stroke="midnightblue" d="M684,-168.08C684,-161.01 684,-150.86 684,-141.99"/>
<polygon fill="midnightblue" stroke="midnightblue" points="687.5,-141.75 684,-131.75 680.5,-141.75 687.5,-141.75"/>
</g>
<!-- Node15 -->
<g id="node15" class="node">
<title>Node15</title>
<g id="a_node15"><a xlink:title=" ">
<polygon fill="white" stroke="#bfbfbf" points="659,-56.5 659,-75.5 709,-75.5 709,-56.5 659,-56.5"/>
<text text-anchor="middle" x="684" y="-63.5" font-family="Helvetica,sans-Serif" font-size="10.00">cstdint</text>
</a>
</g>
</g>
<!-- Node14&#45;&gt;Node15 -->
<g id="edge15" class="edge">
<title>Node14&#45;&gt;Node15</title>
<path fill="none" stroke="midnightblue" d="M684,-112.08C684,-105.01 684,-94.86 684,-85.99"/>
<polygon fill="midnightblue" stroke="midnightblue" points="687.5,-85.75 684,-75.75 680.5,-85.75 687.5,-85.75"/>
</g>
</g>
</svg>
