<?xml version="1.0" encoding="UTF-8" standalone="no"?>
<!DOCTYPE svg PUBLIC "-//W3C//DTD SVG 1.1//EN"
 "http://www.w3.org/Graphics/SVG/1.1/DTD/svg11.dtd">
<!-- Generated by graphviz version 2.43.0 (0)
 -->
<!-- Title: lib/application_business_rules/user_interaction/Presenter.cpp Pages: 1 -->
<svg width="798pt" height="218pt"
 viewBox="0.00 0.00 798.00 218.00" xmlns="http://www.w3.org/2000/svg" xmlns:xlink="http://www.w3.org/1999/xlink">
<g id="graph0" class="graph" transform="scale(1 1) rotate(0) translate(4 214)">
<title>lib/application_business_rules/user_interaction/Presenter.cpp</title>
<polygon fill="white" stroke="transparent" points="-4,4 -4,-214 794,-214 794,4 -4,4"/>
<!-- Node1 -->
<g id="node1" class="node">
<title>Node1</title>
<g id="a_node1"><a xlink:title=" ">
<polygon fill="#bfbfbf" stroke="black" points="507.5,-168.5 507.5,-209.5 641.5,-209.5 641.5,-168.5 507.5,-168.5"/>
<text text-anchor="start" x="515.5" y="-197.5" font-family="Helvetica,sans-Serif" font-size="10.00">lib/application_business</text>
<text text-anchor="start" x="515.5" y="-186.5" font-family="Helvetica,sans-Serif" font-size="10.00">_rules/user_interaction</text>
<text text-anchor="middle" x="574.5" y="-175.5" font-family="Helvetica,sans-Serif" font-size="10.00">/Presenter.cpp</text>
</a>
</g>
</g>
<!-- Node2 -->
<g id="node2" class="node">
<title>Node2</title>
<g id="a_node2"><a xlink:href="Presenter_8hpp.xhtml" target="_top" xlink:title=" ">
<polygon fill="white" stroke="black" points="199,-112.5 199,-131.5 282,-131.5 282,-112.5 199,-112.5"/>
<text text-anchor="middle" x="240.5" y="-119.5" font-family="Helvetica,sans-Serif" font-size="10.00">Presenter.hpp</text>
</a>
</g>
</g>
<!-- Node1&#45;&gt;Node2 -->
<g id="edge1" class="edge">
<title>Node1&#45;&gt;Node2</title>
<path fill="none" stroke="midnightblue" d="M507.31,-174.92C443.88,-162.58 350.09,-144.33 292.27,-133.07"/>
<polygon fill="midnightblue" stroke="midnightblue" points="292.74,-129.6 282.26,-131.13 291.4,-136.47 292.74,-129.6"/>
</g>
<!-- Node8 -->
<g id="node8" class="node">
<title>Node8</title>
<g id="a_node8"><a xlink:href="board__interface_8hpp.xhtml" target="_top" xlink:title=" ">
<polygon fill="white" stroke="black" points="405.5,-112.5 405.5,-131.5 519.5,-131.5 519.5,-112.5 405.5,-112.5"/>
<text text-anchor="middle" x="462.5" y="-119.5" font-family="Helvetica,sans-Serif" font-size="10.00">board_interface.hpp</text>
</a>
</g>
</g>
<!-- Node1&#45;&gt;Node8 -->
<g id="edge7" class="edge">
<title>Node1&#45;&gt;Node8</title>
<path fill="none" stroke="midnightblue" d="M540.9,-168.5C523.23,-158.24 502,-145.93 486.09,-136.69"/>
<polygon fill="midnightblue" stroke="midnightblue" points="487.81,-133.64 477.41,-131.65 484.3,-139.7 487.81,-133.64"/>
</g>
<!-- Node11 -->
<g id="node11" class="node">
<title>Node11</title>
<g id="a_node11"><a xlink:title=" ">
<polygon fill="white" stroke="#bfbfbf" points="522.5,-56.5 522.5,-75.5 572.5,-75.5 572.5,-56.5 522.5,-56.5"/>
<text text-anchor="middle" x="547.5" y="-63.5" font-family="Helvetica,sans-Serif" font-size="10.00">chrono</text>
</a>
</g>
</g>
<!-- Node1&#45;&gt;Node11 -->
<g id="edge13" class="edge">
<title>Node1&#45;&gt;Node11</title>
<path fill="none" stroke="midnightblue" d="M570.1,-168.29C564.99,-145.37 556.61,-107.85 551.62,-85.47"/>
<polygon fill="midnightblue" stroke="midnightblue" points="555.01,-84.57 549.41,-75.57 548.18,-86.1 555.01,-84.57"/>
</g>
<!-- Node13 -->
<g id="node13" class="node">
<title>Node13</title>
<g id="a_node13"><a xlink:title=" ">
<polygon fill="white" stroke="#bfbfbf" points="575.5,-112.5 575.5,-131.5 627.5,-131.5 627.5,-112.5 575.5,-112.5"/>
<text text-anchor="middle" x="601.5" y="-119.5" font-family="Helvetica,sans-Serif" font-size="10.00">cassert</text>
</a>
</g>
</g>
<!-- Node1&#45;&gt;Node13 -->
<g id="edge12" class="edge">
<title>Node1&#45;&gt;Node13</title>
<path fill="none" stroke="midnightblue" d="M582.6,-168.5C586.22,-159.78 590.47,-149.56 594.01,-141.02"/>
<polygon fill="midnightblue" stroke="midnightblue" points="597.3,-142.23 597.91,-131.65 590.84,-139.54 597.3,-142.23"/>
</g>
<!-- Node14 -->
<g id="node14" class="node">
<title>Node14</title>
<g id="a_node14"><a xlink:title=" ">
<polygon fill="white" stroke="#bfbfbf" points="646,-112.5 646,-131.5 699,-131.5 699,-112.5 646,-112.5"/>
<text text-anchor="middle" x="672.5" y="-119.5" font-family="Helvetica,sans-Serif" font-size="10.00">iterator</text>
</a>
</g>
</g>
<!-- Node1&#45;&gt;Node14 -->
<g id="edge14" class="edge">
<title>Node1&#45;&gt;Node14</title>
<path fill="none" stroke="midnightblue" d="M603.9,-168.5C619.07,-158.44 637.24,-146.38 651.07,-137.21"/>
<polygon fill="midnightblue" stroke="midnightblue" points="653.06,-140.1 659.45,-131.65 649.19,-134.26 653.06,-140.1"/>
</g>
<!-- Node15 -->
<g id="node15" class="node">
<title>Node15</title>
<g id="a_node15"><a xlink:href="pitches_8hpp.xhtml" target="_top" xlink:title=" ">
<polygon fill="white" stroke="black" points="717,-112.5 717,-131.5 790,-131.5 790,-112.5 717,-112.5"/>
<text text-anchor="middle" x="753.5" y="-119.5" font-family="Helvetica,sans-Serif" font-size="10.00">pitches.hpp</text>
</a>
</g>
</g>
<!-- Node1&#45;&gt;Node15 -->
<g id="edge15" class="edge">
<title>Node1&#45;&gt;Node15</title>
<path fill="none" stroke="midnightblue" d="M628.21,-168.5C658.02,-157.67 694.19,-144.54 719.99,-135.17"/>
<polygon fill="midnightblue" stroke="midnightblue" points="721.47,-138.36 729.67,-131.65 719.08,-131.78 721.47,-138.36"/>
</g>
<!-- Node3 -->
<g id="node3" class="node">
<title>Node3</title>
<g id="a_node3"><a xlink:href="IStatusIndicator_8hpp.xhtml" target="_top" xlink:title=" ">
<polygon fill="white" stroke="black" points="0,-56.5 0,-75.5 113,-75.5 113,-56.5 0,-56.5"/>
<text text-anchor="middle" x="56.5" y="-63.5" font-family="Helvetica,sans-Serif" font-size="10.00">IStatusIndicator.hpp</text>
</a>
</g>
</g>
<!-- Node2&#45;&gt;Node3 -->
<g id="edge2" class="edge">
<title>Node2&#45;&gt;Node3</title>
<path fill="none" stroke="midnightblue" d="M211.34,-112.44C179.99,-103.24 129.97,-88.56 95.3,-78.39"/>
<polygon fill="midnightblue" stroke="midnightblue" points="96.1,-74.97 85.52,-75.52 94.13,-81.69 96.1,-74.97"/>
</g>
<!-- Node4 -->
<g id="node4" class="node">
<title>Node4</title>
<g id="a_node4"><a xlink:href="Menu_8hpp.xhtml" target="_top" xlink:title=" ">
<polygon fill="white" stroke="black" points="131,-56.5 131,-75.5 196,-75.5 196,-56.5 131,-56.5"/>
<text text-anchor="middle" x="163.5" y="-63.5" font-family="Helvetica,sans-Serif" font-size="10.00">Menu.hpp</text>
</a>
</g>
</g>
<!-- Node2&#45;&gt;Node4 -->
<g id="edge3" class="edge">
<title>Node2&#45;&gt;Node4</title>
<path fill="none" stroke="midnightblue" d="M228.13,-112.32C216.34,-104.06 198.37,-91.45 184.36,-81.63"/>
<polygon fill="midnightblue" stroke="midnightblue" points="186.04,-78.53 175.84,-75.65 182.02,-84.26 186.04,-78.53"/>
</g>
<!-- Node6 -->
<g id="node6" class="node">
<title>Node6</title>
<g id="a_node6"><a xlink:title=" ">
<polygon fill="white" stroke="#bfbfbf" points="214,-56.5 214,-75.5 267,-75.5 267,-56.5 214,-56.5"/>
<text text-anchor="middle" x="240.5" y="-63.5" font-family="Helvetica,sans-Serif" font-size="10.00">cstddef</text>
</a>
</g>
</g>
<!-- Node2&#45;&gt;Node6 -->
<g id="edge5" class="edge">
<title>Node2&#45;&gt;Node6</title>
<path fill="none" stroke="midnightblue" d="M240.5,-112.08C240.5,-105.01 240.5,-94.86 240.5,-85.99"/>
<polygon fill="midnightblue" stroke="midnightblue" points="244,-85.75 240.5,-75.75 237,-85.75 244,-85.75"/>
</g>
<!-- Node7 -->
<g id="node7" class="node">
<title>Node7</title>
<g id="a_node7"><a xlink:title=" ">
<polygon fill="white" stroke="#bfbfbf" points="285,-56.5 285,-75.5 332,-75.5 332,-56.5 285,-56.5"/>
<text text-anchor="middle" x="308.5" y="-63.5" font-family="Helvetica,sans-Serif" font-size="10.00">vector</text>
</a>
</g>
</g>
<!-- Node2&#45;&gt;Node7 -->
<g id="edge6" class="edge">
<title>Node2&#45;&gt;Node7</title>
<path fill="none" stroke="midnightblue" d="M251.43,-112.32C261.67,-104.18 277.22,-91.84 289.5,-82.09"/>
<polygon fill="midnightblue" stroke="midnightblue" points="291.72,-84.79 297.38,-75.83 287.37,-79.31 291.72,-84.79"/>
</g>
<!-- Node5 -->
<g id="node5" class="node">
<title>Node5</title>
<g id="a_node5"><a xlink:href="IDisplay_8hpp.xhtml" target="_top" xlink:title=" ">
<polygon fill="white" stroke="black" points="125.5,-0.5 125.5,-19.5 201.5,-19.5 201.5,-0.5 125.5,-0.5"/>
<text text-anchor="middle" x="163.5" y="-7.5" font-family="Helvetica,sans-Serif" font-size="10.00">IDisplay.hpp</text>
</a>
</g>
</g>
<!-- Node4&#45;&gt;Node5 -->
<g id="edge4" class="edge">
<title>Node4&#45;&gt;Node5</title>
<path fill="none" stroke="midnightblue" d="M163.5,-56.08C163.5,-49.01 163.5,-38.86 163.5,-29.99"/>
<polygon fill="midnightblue" stroke="midnightblue" points="167,-29.75 163.5,-19.75 160,-29.75 167,-29.75"/>
</g>
<!-- Node9 -->
<g id="node9" class="node">
<title>Node9</title>
<g id="a_node9"><a xlink:href="KeyIds_8hpp.xhtml" target="_top" xlink:title=" ">
<polygon fill="white" stroke="black" points="350.5,-56.5 350.5,-75.5 420.5,-75.5 420.5,-56.5 350.5,-56.5"/>
<text text-anchor="middle" x="385.5" y="-63.5" font-family="Helvetica,sans-Serif" font-size="10.00">KeyIds.hpp</text>
</a>
</g>
</g>
<!-- Node8&#45;&gt;Node9 -->
<g id="edge8" class="edge">
<title>Node8&#45;&gt;Node9</title>
<path fill="none" stroke="midnightblue" d="M450.13,-112.32C438.34,-104.06 420.37,-91.45 406.36,-81.63"/>
<polygon fill="midnightblue" stroke="midnightblue" points="408.04,-78.53 397.84,-75.65 404.02,-84.26 408.04,-78.53"/>
</g>
<!-- Node8&#45;&gt;Node11 -->
<g id="edge10" class="edge">
<title>Node8&#45;&gt;Node11</title>
<path fill="none" stroke="midnightblue" d="M476.16,-112.32C489.42,-103.9 509.77,-90.97 525.35,-81.07"/>
<polygon fill="midnightblue" stroke="midnightblue" points="527.31,-83.97 533.88,-75.65 523.56,-78.06 527.31,-83.97"/>
</g>
<!-- Node12 -->
<g id="node12" class="node">
<title>Node12</title>
<g id="a_node12"><a xlink:title=" ">
<polygon fill="white" stroke="#bfbfbf" points="439,-56.5 439,-75.5 504,-75.5 504,-56.5 439,-56.5"/>
<text text-anchor="middle" x="471.5" y="-63.5" font-family="Helvetica,sans-Serif" font-size="10.00">functional</text>
</a>
</g>
</g>
<!-- Node8&#45;&gt;Node12 -->
<g id="edge11" class="edge">
<title>Node8&#45;&gt;Node12</title>
<path fill="none" stroke="midnightblue" d="M463.99,-112.08C465.18,-104.93 466.89,-94.64 468.38,-85.69"/>
<polygon fill="midnightblue" stroke="midnightblue" points="471.85,-86.19 470.04,-75.75 464.95,-85.04 471.85,-86.19"/>
</g>
<!-- Node10 -->
<g id="node10" class="node">
<title>Node10</title>
<g id="a_node10"><a xlink:title=" ">
<polygon fill="white" stroke="#bfbfbf" points="357,-0.5 357,-19.5 414,-19.5 414,-0.5 357,-0.5"/>
<text text-anchor="middle" x="385.5" y="-7.5" font-family="Helvetica,sans-Serif" font-size="10.00">ostream</text>
</a>
</g>
</g>
<!-- Node9&#45;&gt;Node10 -->
<g id="edge9" class="edge">
<title>Node9&#45;&gt;Node10</title>
<path fill="none" stroke="midnightblue" d="M385.5,-56.08C385.5,-49.01 385.5,-38.86 385.5,-29.99"/>
<polygon fill="midnightblue" stroke="midnightblue" points="389,-29.75 385.5,-19.75 382,-29.75 389,-29.75"/>
</g>
<!-- Node16 -->
<g id="node16" class="node">
<title>Node16</title>
<g id="a_node16"><a xlink:title=" ">
<polygon fill="white" stroke="#bfbfbf" points="728.5,-56.5 728.5,-75.5 778.5,-75.5 778.5,-56.5 728.5,-56.5"/>
<text text-anchor="middle" x="753.5" y="-63.5" font-family="Helvetica,sans-Serif" font-size="10.00">cstdint</text>
</a>
</g>
</g>
<!-- Node15&#45;&gt;Node16 -->
<g id="edge16" class="edge">
<title>Node15&#45;&gt;Node16</title>
<path fill="none" stroke="midnightblue" d="M753.5,-112.08C753.5,-105.01 753.5,-94.86 753.5,-85.99"/>
<polygon fill="midnightblue" stroke="midnightblue" points="757,-85.75 753.5,-75.75 750,-85.75 757,-85.75"/>
</g>
</g>
</svg>
