<?xml version="1.0" encoding="UTF-8" standalone="no"?>
<!DOCTYPE svg PUBLIC "-//W3C//DTD SVG 1.1//EN"
 "http://www.w3.org/Graphics/SVG/1.1/DTD/svg11.dtd">
<!-- Generated by graphviz version 2.43.0 (0)
 -->
<!-- Title: BarData Pages: 1 -->
<svg width="134pt" height="171pt"
 viewBox="0.00 0.00 133.50 171.00" xmlns="http://www.w3.org/2000/svg" xmlns:xlink="http://www.w3.org/1999/xlink">
<g id="graph0" class="graph" transform="scale(1 1) rotate(0) translate(4 167)">
<title>BarData</title>
<polygon fill="white" stroke="transparent" points="-4,4 -4,-167 129.5,-167 129.5,4 -4,4"/>
<!-- Node1 -->
<g id="node1" class="node">
<title>Node1</title>
<g id="a_node1"><a xlink:title=" ">
<polygon fill="#bfbfbf" stroke="black" points="13.5,-0.5 13.5,-57.5 69.5,-57.5 69.5,-0.5 13.5,-0.5"/>
<text text-anchor="middle" x="41.5" y="-45.5" font-family="Helvetica,sans-Serif" font-size="10.00">BarData</text>
<polyline fill="none" stroke="black" points="13.5,-38.5 69.5,-38.5 "/>
<text text-anchor="middle" x="41.5" y="-26.5" font-family="Helvetica,sans-Serif" font-size="10.00"> </text>
<polyline fill="none" stroke="black" points="13.5,-19.5 69.5,-19.5 "/>
<text text-anchor="middle" x="41.5" y="-7.5" font-family="Helvetica,sans-Serif" font-size="10.00"> </text>
</a>
</g>
</g>
<!-- Node2 -->
<g id="node2" class="node">
<title>Node2</title>
<g id="a_node2"><a xlink:title=" ">
<polygon fill="white" stroke="#bfbfbf" points="0,-105.5 0,-162.5 29,-162.5 29,-105.5 0,-105.5"/>
<text text-anchor="middle" x="14.5" y="-150.5" font-family="Helvetica,sans-Serif" font-size="10.00">int</text>
<polyline fill="none" stroke="#bfbfbf" points="0,-143.5 29,-143.5 "/>
<text text-anchor="middle" x="14.5" y="-131.5" font-family="Helvetica,sans-Serif" font-size="10.00"> </text>
<polyline fill="none" stroke="#bfbfbf" points="0,-124.5 29,-124.5 "/>
<text text-anchor="middle" x="14.5" y="-112.5" font-family="Helvetica,sans-Serif" font-size="10.00"> </text>
</a>
</g>
</g>
<!-- Node2&#45;&gt;Node1 -->
<g id="edge1" class="edge">
<title>Node2&#45;&gt;Node1</title>
<path fill="none" stroke="#404040" d="M21.74,-105.4C24.64,-94.31 28.04,-81.33 31.2,-69.3"/>
<polygon fill="none" stroke="#404040" points="31.2,-69.29 28.85,-62.47 34.24,-57.68 36.59,-64.5 31.2,-69.29"/>
<text text-anchor="middle" x="37.5" y="-79" font-family="Helvetica,sans-Serif" font-size="10.00"> +n</text>
</g>
<!-- Node3 -->
<g id="node3" class="node">
<title>Node3</title>
<g id="a_node3"><a xlink:title=" ">
<polygon fill="white" stroke="#bfbfbf" points="47,-105.5 47,-162.5 92,-162.5 92,-105.5 47,-105.5"/>
<text text-anchor="middle" x="69.5" y="-150.5" font-family="Helvetica,sans-Serif" font-size="10.00">size_t</text>
<polyline fill="none" stroke="#bfbfbf" points="47,-143.5 92,-143.5 "/>
<text text-anchor="middle" x="69.5" y="-131.5" font-family="Helvetica,sans-Serif" font-size="10.00"> </text>
<polyline fill="none" stroke="#bfbfbf" points="47,-124.5 92,-124.5 "/>
<text text-anchor="middle" x="69.5" y="-112.5" font-family="Helvetica,sans-Serif" font-size="10.00"> </text>
</a>
</g>
</g>
<!-- Node3&#45;&gt;Node1 -->
<g id="edge2" class="edge">
<title>Node3&#45;&gt;Node1</title>
<path fill="none" stroke="#404040" d="M62,-105.4C58.98,-94.31 55.45,-81.33 52.18,-69.3"/>
<polygon fill="none" stroke="#404040" points="52.17,-69.26 46.74,-64.52 49.02,-57.68 54.46,-62.42 52.17,-69.26"/>
<text text-anchor="middle" x="90.5" y="-79" font-family="Helvetica,sans-Serif" font-size="10.00"> +timesCalled</text>
</g>
</g>
</svg>
