<?xml version="1.0" encoding="UTF-8" standalone="no"?>
<!DOCTYPE svg PUBLIC "-//W3C//DTD SVG 1.1//EN"
 "http://www.w3.org/Graphics/SVG/1.1/DTD/svg11.dtd">
<!-- Generated by graphviz version 2.43.0 (0)
 -->
<!-- Title: command_line_interpreter::Command&lt; CharType, ReturnType, ArgTypes &gt; Pages: 1 -->
<svg width="476pt" height="375pt"
 viewBox="0.00 0.00 476.00 375.00" xmlns="http://www.w3.org/2000/svg" xmlns:xlink="http://www.w3.org/1999/xlink">
<g id="graph0" class="graph" transform="scale(1 1) rotate(0) translate(4 371)">
<title>command_line_interpreter::Command&lt; CharType, ReturnType, ArgTypes &gt;</title>
<polygon fill="white" stroke="transparent" points="-4,4 -4,-371 472,-371 472,4 -4,4"/>
<!-- Node1 -->
<g id="node1" class="node">
<title>Node1</title>
<g id="a_node1"><a xlink:title="Combines a command with a function.">
<polygon fill="#bfbfbf" stroke="black" points="146.5,-0.5 146.5,-112.5 339.5,-112.5 339.5,-0.5 146.5,-0.5"/>
<text text-anchor="start" x="154.5" y="-100.5" font-family="Helvetica,sans-Serif" font-size="10.00">command_line_interpreter</text>
<text text-anchor="start" x="154.5" y="-89.5" font-family="Helvetica,sans-Serif" font-size="10.00">::Command&lt; CharType, ReturnType,</text>
<text text-anchor="middle" x="243" y="-78.5" font-family="Helvetica,sans-Serif" font-size="10.00"> ArgTypes &gt;</text>
<polyline fill="none" stroke="black" points="146.5,-71.5 339.5,-71.5 "/>
<text text-anchor="middle" x="243" y="-59.5" font-family="Helvetica,sans-Serif" font-size="10.00"> </text>
<polyline fill="none" stroke="black" points="146.5,-52.5 339.5,-52.5 "/>
<text text-anchor="start" x="154.5" y="-40.5" font-family="Helvetica,sans-Serif" font-size="10.00">+ execute()</text>
<text text-anchor="start" x="154.5" y="-29.5" font-family="Helvetica,sans-Serif" font-size="10.00">+ execute()</text>
<text text-anchor="start" x="154.5" y="-18.5" font-family="Helvetica,sans-Serif" font-size="10.00">+ generateHelpMessage()</text>
<text text-anchor="start" x="154.5" y="-7.5" font-family="Helvetica,sans-Serif" font-size="10.00">+ Command()</text>
</a>
</g>
</g>
<!-- Node2 -->
<g id="node2" class="node">
<title>Node2</title>
<g id="a_node2"><a xlink:href="structcommand__line__interpreter_1_1BaseCommand.xhtml" target="_top" xlink:title="Interface for all Command.">
<polygon fill="white" stroke="black" points="0,-160.5 0,-261.5 164,-261.5 164,-160.5 0,-160.5"/>
<text text-anchor="start" x="8" y="-249.5" font-family="Helvetica,sans-Serif" font-size="10.00">command_line_interpreter</text>
<text text-anchor="middle" x="82" y="-238.5" font-family="Helvetica,sans-Serif" font-size="10.00">::BaseCommand&lt; CharType &gt;</text>
<polyline fill="none" stroke="black" points="0,-231.5 164,-231.5 "/>
<text text-anchor="middle" x="82" y="-219.5" font-family="Helvetica,sans-Serif" font-size="10.00"> </text>
<polyline fill="none" stroke="black" points="0,-212.5 164,-212.5 "/>
<text text-anchor="start" x="8" y="-200.5" font-family="Helvetica,sans-Serif" font-size="10.00">+ BaseCommand()</text>
<text text-anchor="start" x="8" y="-189.5" font-family="Helvetica,sans-Serif" font-size="10.00">+ execute()</text>
<text text-anchor="start" x="8" y="-178.5" font-family="Helvetica,sans-Serif" font-size="10.00">+ generateHelpMessage()</text>
<text text-anchor="start" x="8" y="-167.5" font-family="Helvetica,sans-Serif" font-size="10.00">+ ~BaseCommand()</text>
</a>
</g>
</g>
<!-- Node2&#45;&gt;Node1 -->
<g id="edge1" class="edge">
<title>Node2&#45;&gt;Node1</title>
<path fill="none" stroke="midnightblue" d="M141.57,-153.57C155.72,-140.18 170.78,-125.9 184.86,-112.57"/>
<polygon fill="none" stroke="midnightblue" points="139.13,-151.07 134.27,-160.49 143.94,-156.15 139.13,-151.07"/>
</g>
<!-- Node3 -->
<g id="node3" class="node">
<title>Node3</title>
<g id="a_node3"><a xlink:title=" ">
<polygon fill="white" stroke="#bfbfbf" points="40.5,-309.5 40.5,-366.5 123.5,-366.5 123.5,-309.5 40.5,-309.5"/>
<text text-anchor="middle" x="82" y="-354.5" font-family="Helvetica,sans-Serif" font-size="10.00">const CharT *</text>
<polyline fill="none" stroke="#bfbfbf" points="40.5,-347.5 123.5,-347.5 "/>
<text text-anchor="middle" x="82" y="-335.5" font-family="Helvetica,sans-Serif" font-size="10.00"> </text>
<polyline fill="none" stroke="#bfbfbf" points="40.5,-328.5 123.5,-328.5 "/>
<text text-anchor="middle" x="82" y="-316.5" font-family="Helvetica,sans-Serif" font-size="10.00"> </text>
</a>
</g>
</g>
<!-- Node3&#45;&gt;Node2 -->
<g id="edge2" class="edge">
<title>Node3&#45;&gt;Node2</title>
<path fill="none" stroke="#404040" d="M82,-309.26C82,-298.79 82,-286.42 82,-274.07"/>
<polygon fill="none" stroke="#404040" points="82,-273.8 78,-267.8 82,-261.8 86,-267.8 82,-273.8"/>
<text text-anchor="middle" x="127" y="-283" font-family="Helvetica,sans-Serif" font-size="10.00"> +commandName</text>
</g>
<!-- Node4 -->
<g id="node4" class="node">
<title>Node4</title>
<g id="a_node4"><a xlink:title=" ">
<polygon fill="white" stroke="#bfbfbf" points="182,-177 182,-245 304,-245 304,-177 182,-177"/>
<text text-anchor="start" x="190" y="-233" font-family="Helvetica,sans-Serif" font-size="10.00">function&lt; ReturnType</text>
<text text-anchor="middle" x="243" y="-222" font-family="Helvetica,sans-Serif" font-size="10.00">(ArgTypes...)&gt;</text>
<polyline fill="none" stroke="#bfbfbf" points="182,-215 304,-215 "/>
<text text-anchor="middle" x="243" y="-203" font-family="Helvetica,sans-Serif" font-size="10.00"> </text>
<polyline fill="none" stroke="#bfbfbf" points="182,-196 304,-196 "/>
<text text-anchor="middle" x="243" y="-184" font-family="Helvetica,sans-Serif" font-size="10.00"> </text>
</a>
</g>
</g>
<!-- Node4&#45;&gt;Node1 -->
<g id="edge3" class="edge">
<title>Node4&#45;&gt;Node1</title>
<path fill="none" stroke="#404040" d="M243,-176.91C243,-161.6 243,-142.84 243,-124.76"/>
<polygon fill="none" stroke="#404040" points="243,-124.71 239,-118.71 243,-112.71 247,-118.71 243,-124.71"/>
<text text-anchor="middle" x="267.5" y="-134" font-family="Helvetica,sans-Serif" font-size="10.00"> +handler</text>
</g>
<!-- Node5 -->
<g id="node5" class="node">
<title>Node5</title>
<g id="a_node5"><a xlink:title=" ">
<polygon fill="white" stroke="#bfbfbf" points="322,-171.5 322,-250.5 468,-250.5 468,-171.5 322,-171.5"/>
<text text-anchor="start" x="330" y="-238.5" font-family="Helvetica,sans-Serif" font-size="10.00">tuple&lt; const command</text>
<text text-anchor="start" x="330" y="-227.5" font-family="Helvetica,sans-Serif" font-size="10.00">_line_interpreter::Option</text>
<text text-anchor="middle" x="395" y="-216.5" font-family="Helvetica,sans-Serif" font-size="10.00">&lt; ArgTypes, CharT &gt; *... &gt;</text>
<polyline fill="none" stroke="#bfbfbf" points="322,-209.5 468,-209.5 "/>
<text text-anchor="middle" x="395" y="-197.5" font-family="Helvetica,sans-Serif" font-size="10.00"> </text>
<polyline fill="none" stroke="#bfbfbf" points="322,-190.5 468,-190.5 "/>
<text text-anchor="middle" x="395" y="-178.5" font-family="Helvetica,sans-Serif" font-size="10.00"> </text>
</a>
</g>
</g>
<!-- Node5&#45;&gt;Node1 -->
<g id="edge4" class="edge">
<title>Node5&#45;&gt;Node1</title>
<path fill="none" stroke="#404040" d="M356.25,-171.12C341.2,-156.02 323.55,-138.31 306.73,-121.44"/>
<polygon fill="none" stroke="#404040" points="306.5,-121.2 299.43,-119.78 298.02,-112.71 305.09,-114.13 306.5,-121.2"/>
<text text-anchor="middle" x="347" y="-134" font-family="Helvetica,sans-Serif" font-size="10.00"> +options</text>
</g>
</g>
</svg>
