<?xml version="1.0" encoding="UTF-8" standalone="no"?>
<!DOCTYPE svg PUBLIC "-//W3C//DTD SVG 1.1//EN"
 "http://www.w3.org/Graphics/SVG/1.1/DTD/svg11.dtd">
<!-- Generated by graphviz version 2.43.0 (0)
 -->
<!-- Title: lib/utilities/string_helpers.hpp Pages: 1 -->
<svg width="494pt" height="195pt"
 viewBox="0.00 0.00 493.50 195.00" xmlns="http://www.w3.org/2000/svg" xmlns:xlink="http://www.w3.org/1999/xlink">
<g id="graph0" class="graph" transform="scale(1 1) rotate(0) translate(4 191)">
<title>lib/utilities/string_helpers.hpp</title>
<polygon fill="white" stroke="transparent" points="-4,4 -4,-191 489.5,-191 489.5,4 -4,4"/>
<!-- Node1 -->
<g id="node1" class="node">
<title>Node1</title>
<g id="a_node1"><a xlink:title=" ">
<polygon fill="#bfbfbf" stroke="black" points="235.5,-156.5 235.5,-186.5 334.5,-186.5 334.5,-156.5 235.5,-156.5"/>
<text text-anchor="start" x="243.5" y="-174.5" font-family="Helvetica,sans-Serif" font-size="10.00">lib/utilities/string</text>
<text text-anchor="middle" x="285" y="-163.5" font-family="Helvetica,sans-Serif" font-size="10.00">_helpers.hpp</text>
</a>
</g>
</g>
<!-- Node2 -->
<g id="node2" class="node">
<title>Node2</title>
<g id="a_node2"><a xlink:href="command__line__interpreter_8hpp.xhtml" target="_top" xlink:title=" ">
<polygon fill="white" stroke="black" points="48.5,-78.5 48.5,-119.5 217.5,-119.5 217.5,-78.5 48.5,-78.5"/>
<text text-anchor="start" x="56.5" y="-107.5" font-family="Helvetica,sans-Serif" font-size="10.00">lib/application_business</text>
<text text-anchor="start" x="56.5" y="-96.5" font-family="Helvetica,sans-Serif" font-size="10.00">_rules/serial_interface</text>
<text text-anchor="middle" x="133" y="-85.5" font-family="Helvetica,sans-Serif" font-size="10.00">/command_line_interpreter.hpp</text>
</a>
</g>
</g>
<!-- Node1&#45;&gt;Node2 -->
<g id="edge1" class="edge">
<title>Node1&#45;&gt;Node2</title>
<path fill="none" stroke="midnightblue" d="M245.39,-152.13C223.81,-142.12 197.11,-129.73 175.14,-119.55"/>
<polygon fill="midnightblue" stroke="midnightblue" points="244.06,-155.37 254.61,-156.4 247.01,-149.02 244.06,-155.37"/>
</g>
<!-- Node5 -->
<g id="node5" class="node">
<title>Node5</title>
<g id="a_node5"><a xlink:href="string__helpers_8cpp.xhtml" target="_top" xlink:title=" ">
<polygon fill="white" stroke="black" points="235.5,-84 235.5,-114 334.5,-114 334.5,-84 235.5,-84"/>
<text text-anchor="start" x="243.5" y="-102" font-family="Helvetica,sans-Serif" font-size="10.00">lib/utilities/string</text>
<text text-anchor="middle" x="285" y="-91" font-family="Helvetica,sans-Serif" font-size="10.00">_helpers.cpp</text>
</a>
</g>
</g>
<!-- Node1&#45;&gt;Node5 -->
<g id="edge4" class="edge">
<title>Node1&#45;&gt;Node5</title>
<path fill="none" stroke="midnightblue" d="M285,-146.23C285,-135.57 285,-123.41 285,-114.25"/>
<polygon fill="midnightblue" stroke="midnightblue" points="281.5,-146.23 285,-156.23 288.5,-146.23 281.5,-146.23"/>
</g>
<!-- Node6 -->
<g id="node6" class="node">
<title>Node6</title>
<g id="a_node6"><a xlink:href="test__string__helpers_8cpp.xhtml" target="_top" xlink:title=" ">
<polygon fill="white" stroke="black" points="352.5,-84 352.5,-114 485.5,-114 485.5,-84 352.5,-84"/>
<text text-anchor="start" x="360.5" y="-102" font-family="Helvetica,sans-Serif" font-size="10.00">test/test_string_helpers</text>
<text text-anchor="middle" x="419" y="-91" font-family="Helvetica,sans-Serif" font-size="10.00">/test_string_helpers.cpp</text>
</a>
</g>
</g>
<!-- Node1&#45;&gt;Node6 -->
<g id="edge5" class="edge">
<title>Node1&#45;&gt;Node6</title>
<path fill="none" stroke="midnightblue" d="M320.7,-151.72C343.18,-139.89 371.72,-124.87 392.25,-114.07"/>
<polygon fill="midnightblue" stroke="midnightblue" points="319.02,-148.65 311.79,-156.4 322.27,-154.84 319.02,-148.65"/>
</g>
<!-- Node3 -->
<g id="node3" class="node">
<title>Node3</title>
<g id="a_node3"><a xlink:href="Protocol_8cpp.xhtml" target="_top" xlink:title=" ">
<polygon fill="white" stroke="black" points="0,-0.5 0,-41.5 134,-41.5 134,-0.5 0,-0.5"/>
<text text-anchor="start" x="8" y="-29.5" font-family="Helvetica,sans-Serif" font-size="10.00">lib/application_business</text>
<text text-anchor="start" x="8" y="-18.5" font-family="Helvetica,sans-Serif" font-size="10.00">_rules/serial_interface</text>
<text text-anchor="middle" x="67" y="-7.5" font-family="Helvetica,sans-Serif" font-size="10.00">/Protocol.cpp</text>
</a>
</g>
</g>
<!-- Node2&#45;&gt;Node3 -->
<g id="edge2" class="edge">
<title>Node2&#45;&gt;Node3</title>
<path fill="none" stroke="midnightblue" d="M109.23,-70.63C100.86,-60.99 91.63,-50.36 83.94,-41.51"/>
<polygon fill="midnightblue" stroke="midnightblue" points="106.8,-73.17 116,-78.43 112.09,-68.58 106.8,-73.17"/>
</g>
<!-- Node4 -->
<g id="node4" class="node">
<title>Node4</title>
<g id="a_node4"><a xlink:href="test__cli_8cpp.xhtml" target="_top" xlink:title=" ">
<polygon fill="white" stroke="black" points="152.5,-6 152.5,-36 247.5,-36 247.5,-6 152.5,-6"/>
<text text-anchor="start" x="160.5" y="-24" font-family="Helvetica,sans-Serif" font-size="10.00">test/test_cli/test</text>
<text text-anchor="middle" x="200" y="-13" font-family="Helvetica,sans-Serif" font-size="10.00">_cli.cpp</text>
</a>
</g>
</g>
<!-- Node2&#45;&gt;Node4 -->
<g id="edge3" class="edge">
<title>Node2&#45;&gt;Node4</title>
<path fill="none" stroke="midnightblue" d="M157.11,-70.65C167.38,-59 178.93,-45.9 187.46,-36.23"/>
<polygon fill="midnightblue" stroke="midnightblue" points="154.24,-68.61 150.25,-78.43 159.49,-73.24 154.24,-68.61"/>
</g>
</g>
</svg>
