<?xml version="1.0" encoding="UTF-8" standalone="no"?>
<!DOCTYPE svg PUBLIC "-//W3C//DTD SVG 1.1//EN"
 "http://www.w3.org/Graphics/SVG/1.1/DTD/svg11.dtd">
<!-- Generated by graphviz version 2.43.0 (0)
 -->
<!-- Title: command_line_interpreter::Option&lt; T, CharType &gt; Pages: 1 -->
<svg width="229pt" height="193pt"
 viewBox="0.00 0.00 229.00 193.00" xmlns="http://www.w3.org/2000/svg" xmlns:xlink="http://www.w3.org/1999/xlink">
<g id="graph0" class="graph" transform="scale(1 1) rotate(0) translate(4 189)">
<title>command_line_interpreter::Option&lt; T, CharType &gt;</title>
<polygon fill="white" stroke="transparent" points="-4,4 -4,-189 225,-189 225,4 -4,4"/>
<!-- Node1 -->
<g id="node1" class="node">
<title>Node1</title>
<g id="a_node1"><a xlink:title="Extracts data from string options.">
<polygon fill="#bfbfbf" stroke="black" points="45,-0.5 45,-79.5 191,-79.5 191,-0.5 45,-0.5"/>
<text text-anchor="start" x="53" y="-67.5" font-family="Helvetica,sans-Serif" font-size="10.00">command_line_interpreter</text>
<text text-anchor="middle" x="118" y="-56.5" font-family="Helvetica,sans-Serif" font-size="10.00">::Option&lt; T, CharType &gt;</text>
<polyline fill="none" stroke="black" points="45,-49.5 191,-49.5 "/>
<text text-anchor="middle" x="118" y="-37.5" font-family="Helvetica,sans-Serif" font-size="10.00"> </text>
<polyline fill="none" stroke="black" points="45,-30.5 191,-30.5 "/>
<text text-anchor="start" x="53" y="-18.5" font-family="Helvetica,sans-Serif" font-size="10.00">+ doesMatchName()</text>
<text text-anchor="start" x="53" y="-7.5" font-family="Helvetica,sans-Serif" font-size="10.00">+ extractArgument()</text>
</a>
</g>
</g>
<!-- Node2 -->
<g id="node2" class="node">
<title>Node2</title>
<g id="a_node2"><a xlink:title=" ">
<polygon fill="white" stroke="#bfbfbf" points="0,-127.5 0,-184.5 136,-184.5 136,-127.5 0,-127.5"/>
<text text-anchor="middle" x="68" y="-172.5" font-family="Helvetica,sans-Serif" font-size="10.00">vector&lt; const CharT * &gt;</text>
<polyline fill="none" stroke="#bfbfbf" points="0,-165.5 136,-165.5 "/>
<text text-anchor="middle" x="68" y="-153.5" font-family="Helvetica,sans-Serif" font-size="10.00"> </text>
<polyline fill="none" stroke="#bfbfbf" points="0,-146.5 136,-146.5 "/>
<text text-anchor="middle" x="68" y="-134.5" font-family="Helvetica,sans-Serif" font-size="10.00"> </text>
</a>
</g>
</g>
<!-- Node2&#45;&gt;Node1 -->
<g id="edge1" class="edge">
<title>Node2&#45;&gt;Node1</title>
<path fill="none" stroke="#404040" d="M80.1,-127.4C84.93,-116.41 90.63,-103.4 96.13,-90.85"/>
<polygon fill="none" stroke="#404040" points="96.28,-90.53 95.02,-83.43 101.1,-79.54 102.35,-86.64 96.28,-90.53"/>
<text text-anchor="middle" x="113.5" y="-101" font-family="Helvetica,sans-Serif" font-size="10.00"> +labels</text>
</g>
<!-- Node3 -->
<g id="node3" class="node">
<title>Node3</title>
<g id="a_node3"><a xlink:title=" ">
<polygon fill="white" stroke="#bfbfbf" points="154.5,-127.5 154.5,-184.5 183.5,-184.5 183.5,-127.5 154.5,-127.5"/>
<text text-anchor="middle" x="169" y="-172.5" font-family="Helvetica,sans-Serif" font-size="10.00">T</text>
<polyline fill="none" stroke="#bfbfbf" points="154.5,-165.5 183.5,-165.5 "/>
<text text-anchor="middle" x="169" y="-153.5" font-family="Helvetica,sans-Serif" font-size="10.00"> </text>
<polyline fill="none" stroke="#bfbfbf" points="154.5,-146.5 183.5,-146.5 "/>
<text text-anchor="middle" x="169" y="-134.5" font-family="Helvetica,sans-Serif" font-size="10.00"> </text>
</a>
</g>
</g>
<!-- Node3&#45;&gt;Node1 -->
<g id="edge2" class="edge">
<title>Node3&#45;&gt;Node1</title>
<path fill="none" stroke="#404040" d="M156.65,-127.4C151.73,-116.41 145.91,-103.4 140.3,-90.85"/>
<polygon fill="none" stroke="#404040" points="140.14,-90.49 134.04,-86.65 135.24,-79.54 141.34,-83.38 140.14,-90.49"/>
<text text-anchor="middle" x="184.5" y="-101" font-family="Helvetica,sans-Serif" font-size="10.00"> +defaultValue</text>
</g>
</g>
</svg>
